<?xml version="1.0" encoding="utf-8"?>
<!-- Generator: Adobe Illustrator 18.0.0, SVG Export Plug-In . SVG Version: 6.00 Build 0)  -->
<!DOCTYPE svg PUBLIC "-//W3C//DTD SVG 1.1//EN" "http://www.w3.org/Graphics/SVG/1.1/DTD/svg11.dtd">
<svg version="1.1" id="Layer_1" xmlns="http://www.w3.org/2000/svg" xmlns:xlink="http://www.w3.org/1999/xlink" x="0px" y="0px"
	 viewBox="0 0 645 200" enable-background="new 0 0 645 200" xml:space="preserve">
<rect x="102.5" y="48" fill="#020202" stroke="#000000" stroke-miterlimit="10" width="74" height="75"/>
<rect x="176.5" y="48" fill="#323232" stroke="#000000" stroke-miterlimit="10" width="74" height="75"/>
<rect x="250.5" y="48" fill="#575757" stroke="#000000" stroke-miterlimit="10" width="74" height="75"/>
<rect x="324.5" y="48" fill="#A2A2A2" stroke="#000000" stroke-miterlimit="10" width="74" height="75"/>
<rect x="398.5" y="48" fill="#D1D1D1" stroke="#000000" stroke-miterlimit="10" width="74" height="75"/>
<rect x="471.5" y="48" fill="#FFFFFF" stroke="#000000" stroke-miterlimit="10" width="74" height="75"/>
<rect x="133" y="133.2" fill="none" width="17.5" height="25.5"/>
<text transform="matrix(1 0 0 1 133 146.3896)" font-family="'TheSansMono-W5Regular'" font-size="18">0</text>
<rect x="204.8" y="133.2" fill="none" width="34.5" height="25.5"/>
<text transform="matrix(1 0 0 1 204.75 146.3896)" font-family="'TheSansMono-W5Regular'" font-size="18">50</text>
<rect x="271.2" y="134.2" fill="none" width="34.5" height="25.5"/>
<text transform="matrix(1 0 0 1 271.25 147.3896)" font-family="'TheSansMono-W5Regular'" font-size="18">87</text>
<rect x="344.2" y="134.2" fill="none" width="34.5" height="25.5"/>
<text transform="matrix(1 0 0 1 344.25 147.3896)" font-family="'TheSansMono-W5Regular'" font-size="18">167</text>
<rect x="418.2" y="133.2" fill="none" width="34.5" height="25.5"/>
<text transform="matrix(1 0 0 1 418.25 146.3896)" font-family="'TheSansMono-W5Regular'" font-size="18">209</text>
<rect x="493.2" y="134.2" fill="none" width="34.5" height="25.5"/>
<text transform="matrix(1 0 0 1 493.25 147.3896)" font-family="'TheSansMono-W5Regular'" font-size="18">255</text>
</svg>
