<?xml version="1.0" encoding="utf-8"?>
<!-- Generator: Adobe Illustrator 18.0.0, SVG Export Plug-In . SVG Version: 6.00 Build 0)  -->
<!DOCTYPE svg PUBLIC "-//W3C//DTD SVG 1.1//EN" "http://www.w3.org/Graphics/SVG/1.1/DTD/svg11.dtd">
<svg version="1.1" id="Layer_1" xmlns="http://www.w3.org/2000/svg" xmlns:xlink="http://www.w3.org/1999/xlink" x="0px" y="0px"
	 viewBox="0 296 612 200" enable-background="new 0 296 612 200" xml:space="preserve">
<circle cx="31.5" cy="314.9" r="5.5"/>
<line fill="none" stroke="#999999" stroke-width="1.3" x1="40.3" y1="321.6" x2="209.9" y2="451.8"/>
<g enable-background="new    ">
	<path fill="#999999" d="M102.8,322.6c0-0.5,0-1.3,0.1-1.8l0,0c-0.5,1.2-1.5,2-3,2c-2,0-2.6-1.2-2.6-2.7v-4.8
		c-0.4-0.1-1-0.1-1.4-0.2v-0.9c0.8-0.1,2-0.2,3-0.1v5.5c0,1.2,0.3,1.9,1.5,1.9c1.4,0,2.4-1.4,2.4-3.3v-2.9c-0.4-0.1-0.9-0.1-1.4-0.2
		v-0.9c0.8-0.1,2-0.2,2.9-0.1v7.3c0.4,0.1,1,0.1,1.4,0.2v0.9C104.9,322.5,103.7,322.6,102.8,322.6z"/>
</g>
<line fill="none" stroke="#000000" stroke-width="1.3" stroke-dasharray="20,5" x1="31.6" y1="459" x2="220.2" y2="459"/>
<line fill="none" stroke="#000000" stroke-width="1.3" stroke-dasharray="20,5" x1="31.8" y1="312.7" x2="31.8" y2="455.6"/>
<g enable-background="new    ">
	<path d="M17.9,386.2c-2.4,0-3.9-1.8-3.9-4.9c0-5,2.4-7,5.7-7c0.3,0,0.8,0,1,0.1v1.4c-0.4-0.1-0.7-0.1-1.2-0.1
		c-2.2,0-3.5,1.3-3.9,3.7c-0.1,0.2-0.1,0.5-0.2,0.9l0,0c0.6-1,1.6-1.5,2.7-1.5c2.3,0,3.6,1.5,3.6,3.4
		C21.8,384.5,20.2,386.2,17.9,386.2z M17.9,380c-1.4,0-2.3,1.2-2.3,2.2c0,1.4,0.8,2.7,2.3,2.7c1.4,0,2.2-1,2.2-2.5
		C20.2,380.9,19.4,380,17.9,380z"/>
</g>
<polyline fill="none" stroke="#999999" stroke-width="1.3" points="207.9,443.5 209.5,451.6 201.3,453.2 "/>
<polyline fill="#FFFFFF" stroke="#999999" stroke-width="1.3" points="104.4,302.1 108.6,306.3 104.4,310.5 "/>
<line fill="none" stroke="#999999" stroke-width="1.3" x1="108.6" y1="306.3" x2="92.7" y2="306.3"/>
<g enable-background="new    ">
	<path fill="#999999" d="M204,387.8l-2.7,7.4h-1.9l-2.7-7.4c-0.4,0-0.8-0.1-1.1-0.2v-0.9h4v0.9c-0.4,0.1-0.8,0.2-1.2,0.2l1.4,4.2
		c0.2,0.6,0.4,1.1,0.5,1.7l0,0c0.2-0.6,0.3-1.1,0.5-1.6l1.5-4.2c-0.4,0-0.8-0.1-1.2-0.2v-0.9h3.9v0.9
		C204.8,387.7,204.4,387.8,204,387.8z"/>
</g>
<polyline fill="#FFFFFF" stroke="#999999" stroke-width="1.3" points="204.4,374.7 208.7,378.9 204.4,383.2 "/>
<line fill="none" stroke="#999999" stroke-width="1.3" x1="208.7" y1="378.9" x2="192.7" y2="378.9"/>
<g enable-background="new    ">
	<path d="M122.9,487.9c-2.4,0-3.8-1.2-3.8-2.9c0-1,0.5-2.1,2.4-3.2c-1.5-0.8-2.1-1.8-2.1-3c0-1.8,1.5-3,3.7-3s3.5,1.1,3.5,2.7
		c0,1.1-0.7,2-2.3,3.1c2,1,2.7,2,2.7,3.2C127,486.8,125.2,487.9,122.9,487.9z M122.8,482.4c-1.4,0.8-2.1,1.6-2.1,2.5
		c0,1,0.9,1.7,2.3,1.7c1.3,0,2.3-0.6,2.3-1.7C125.3,483.9,124.5,483.2,122.8,482.4z M123,477c-1.3,0-2,0.7-2,1.7
		c0,0.8,0.6,1.5,2,2.3c1.5-0.9,2-1.6,2-2.4C125,477.7,124.4,477,123,477z"/>
</g>
<circle cx="220.2" cy="459.1" r="5.5"/>
<line fill="none" stroke="#999999" stroke-width="1.3" x1="150.3" y1="355" x2="214" y2="439.1"/>
<polyline fill="none" stroke="#999999" stroke-width="1.3" points="215.4,431.1 214,439.3 205.8,438 "/>
<line fill="none" stroke="#999999" stroke-width="1.3" x1="39.3" y1="314.9" x2="148.2" y2="352.1"/>
<g enable-background="new    ">
	<path fill="#999999" d="M115.1,404.7l-2.3,7.4H111l-1.7-5c-0.2-0.5-0.3-1.1-0.5-1.7l0,0c-0.2,0.8-0.4,1.4-0.6,2.2l-1.4,4.6H105
		l-2.2-7.4c-0.4,0-0.8-0.1-1.1-0.2v-0.9h3.9v0.9c-0.4,0.1-0.8,0.2-1.2,0.2l1,3.8c0.2,0.7,0.4,1.4,0.5,1.9l0,0
		c0.2-0.7,0.4-1.4,0.6-2.1l1.5-4.8h1.6l1.5,4.8c0.3,1,0.5,1.5,0.6,2.1l0,0c0.2-0.6,0.3-1.1,0.5-1.9l1.1-3.9c-0.4,0-0.8-0.1-1.2-0.2
		v-0.9h3.8v0.9C115.9,404.6,115.5,404.7,115.1,404.7z"/>
</g>
<polyline fill="none" stroke="#999999" stroke-width="1.3" points="144.8,344.3 147.8,352.1 140,355.1 "/>
<polyline fill="#FFFFFF" stroke="#999999" stroke-width="1.3" points="112.3,391.7 116.5,395.9 112.3,400.1 "/>
<line fill="none" stroke="#999999" stroke-width="1.3" x1="116.5" y1="395.9" x2="100.6" y2="395.9"/>
<g enable-background="new    ">
	<path fill="#999999" d="M481.4,397.1l-2.3,7.4h-1.8l-1.7-5c-0.2-0.5-0.3-1.1-0.5-1.7l0,0c-0.2,0.8-0.4,1.4-0.6,2.2l-1.4,4.6h-1.8
		l-2.2-7.4c-0.4,0-0.8-0.1-1.1-0.2v-1.1h3.9v0.9c-0.4,0.1-0.8,0.2-1.2,0.2l1,3.8c0.2,0.7,0.4,1.4,0.5,1.9l0,0
		c0.2-0.7,0.4-1.4,0.6-2.1l1.5-4.8h1.6l1.5,4.8c0.3,1,0.5,1.5,0.6,2.1l0,0c0.2-0.6,0.3-1.1,0.5-1.9l1.1-3.9c-0.4,0-0.8-0.1-1.2-0.2
		v-0.8h3.8v0.9C482.1,397,481.8,397,481.4,397.1z"/>
</g>
<polyline fill="#FFFFFF" stroke="#999999" stroke-width="1.3" points="478.5,384 482.7,388.2 478.5,392.4 "/>
<line fill="none" stroke="#999999" stroke-width="1.3" x1="482.7" y1="388.2" x2="466.9" y2="388.2"/>
<g enable-background="new    ">
	<path fill="#999999" d="M583.8,404.8c0-0.5,0-1.3,0.1-1.8l0,0c-0.5,1.2-1.5,2-3,2c-2,0-2.6-1.2-2.6-2.7v-4.8
		c-0.4-0.1-1-0.1-1.4-0.2v-0.9c0.8-0.1,2-0.2,3-0.1v5.5c0,1.2,0.3,1.9,1.5,1.9c1.4,0,2.4-1.4,2.4-3.3v-2.9c-0.4-0.1-0.9-0.1-1.4-0.2
		v-0.9c0.8-0.1,2-0.2,2.9-0.1v7.3c0.4,0.1,1,0.1,1.4,0.2v0.9C585.9,404.8,584.7,404.8,583.8,404.8z"/>
</g>
<polyline fill="#FFFFFF" stroke="#999999" stroke-width="1.3" points="585.4,384.3 589.6,388.5 585.4,392.7 "/>
<line fill="none" stroke="#999999" stroke-width="1.3" x1="589.6" y1="388.5" x2="573.7" y2="388.5"/>
<g enable-background="new    ">
	<path fill="#999999" d="M528.2,397.4l-2.7,7.4h-1.9l-2.7-7.4c-0.4,0-0.8-0.1-1.1-0.2v-0.9h4v0.9c-0.4,0.1-0.8,0.2-1.2,0.2l1.4,4.2
		c0.2,0.6,0.4,1.1,0.5,1.7l0,0c0.2-0.6,0.3-1.1,0.5-1.6l1.5-4.2c-0.4,0-0.8-0.1-1.2-0.2v-0.9h3.9v0.9
		C529,397.3,528.6,397.3,528.2,397.4z"/>
</g>
<polyline fill="#FFFFFF" stroke="#999999" stroke-width="1.3" points="528.6,384.3 532.9,388.5 528.6,392.7 "/>
<line fill="none" stroke="#999999" stroke-width="1.3" x1="532.9" y1="388.5" x2="516.9" y2="388.5"/>
<text transform="matrix(1 0 0 1 496.5641 405.4348)" font-family="'ArialMT'" font-size="17.2125">=</text>
<text transform="matrix(1 0 0 1 549.1578 405.4348)" font-family="'ArialMT'" font-size="17.2125">+</text>
</svg>
