<?xml version="1.0" encoding="utf-8"?>
<!-- Generator: Adobe Illustrator 18.0.0, SVG Export Plug-In . SVG Version: 6.00 Build 0)  -->
<!DOCTYPE svg PUBLIC "-//W3C//DTD SVG 1.1//EN" "http://www.w3.org/Graphics/SVG/1.1/DTD/svg11.dtd">
<svg version="1.1" id="Layer_1" xmlns="http://www.w3.org/2000/svg" xmlns:xlink="http://www.w3.org/1999/xlink" x="0px" y="0px"
	 viewBox="-16.5 246 645 300" enable-background="new -16.5 246 645 300" xml:space="preserve">
<circle cx="159.5" cy="465.8" r="5.5"/>
<circle cx="298.1" cy="327.1" r="5.5"/>
<polyline fill="#FFFFFF" stroke="#999999" stroke-width="1.3" points="281.8,336.9 290.1,336.9 290.1,345.1 "/>
<line fill="none" stroke="#999999" stroke-width="1.3" x1="169.8" y1="457.4" x2="289" y2="338.1"/>
<g enable-background="new    ">
	<path d="M229.6,327.8c-0.5,0-0.9,0-1.2-0.1v2.9c0.5,0,1,0.1,1.5,0.2v0.9h-4.6v-0.9c0.4-0.1,1-0.2,1.5-0.2v-9.2
		c-0.5,0-1-0.1-1.5-0.2v-0.9h1.5c0.5,0,1.9-0.1,3-0.1c3.1,0,4.4,1.7,4.4,3.6C234.2,326.1,232.4,327.8,229.6,327.8z M229.6,321.4
		c-0.4,0-0.9,0-1.3,0v5c0.3,0.1,0.8,0.1,1.4,0.1c1.9,0,2.9-1.2,2.9-2.6C232.6,322.6,231.9,321.4,229.6,321.4z"/>
	<path d="M239.2,331.9c-2.3,0-3.8-1.3-3.8-4.3c0-2.6,1.6-4.6,4.2-4.6c2.2,0,3.8,1.2,3.8,4.3C243.3,329.9,241.8,331.9,239.2,331.9z
		 M239.4,324.4c-1.3,0-2.4,0.9-2.4,3.1c0,2,0.8,3.1,2.4,3.1c1.3,0,2.4-1,2.4-3.1C241.7,325.6,240.9,324.4,239.4,324.4z"/>
	<path d="M244.5,331.8v-0.9c0.4-0.1,1-0.2,1.5-0.2v-6.2c-0.4-0.1-1-0.1-1.5-0.2v-0.9c0.9-0.1,2-0.2,3-0.1v7.4c0.5,0,1,0.1,1.4,0.2
		v0.9L244.5,331.8L244.5,331.8z M246.8,321.6c-0.6,0-1-0.4-1-1s0.5-1,1-1c0.6,0,1,0.4,1,1C247.9,321.1,247.4,321.6,246.8,321.6z"/>
	<path d="M256.8,331.8v-5.5c0-1.2-0.3-1.9-1.4-1.9c-1.4,0-2.4,1.4-2.4,3.3v2.9c0.5,0,1,0.1,1.4,0.2v0.9H250v-0.9
		c0.4-0.1,1-0.2,1.5-0.2v-6.2c-0.4-0.1-1-0.1-1.5-0.2v-0.8c0.9-0.1,2-0.2,3-0.1c0,0.5,0,1.3-0.1,1.8l0,0c0.5-1.2,1.6-2,3-2
		c1.9,0,2.6,1.2,2.6,2.7v4.8c0.5,0,1,0.1,1.4,0.2v0.9L256.8,331.8L256.8,331.8z"/>
	<path d="M264,331.9c-1.8,0-2.3-0.7-2.3-2.6v-4.9h-1.8v-1.2h1.8v-2.8l1.5-0.4v3.2h2.4v1.2h-2.4v4.4c0,1.4,0.3,1.8,1.2,1.8
		c0.4,0,0.8-0.1,1.1-0.1l0.2,1.3C265.2,331.9,264.5,331.9,264,331.9z"/>
	<path d="M275,331.9c-0.7,0-1.7-0.1-3-0.1h-1.5v-0.9c0.4-0.1,1-0.2,1.5-0.2v-9.3c-0.5,0-1.1-0.1-1.5-0.2v-0.9h1.5
		c0.8,0,1.9-0.1,3.3-0.1c2.5,0,3.7,1,3.7,2.8c0,1.2-0.7,2.3-1.9,2.7l0,0c1.6,0.3,2.4,1.5,2.4,2.7C279.5,329.8,278.6,331.9,275,331.9
		z M275,321.4c-0.5,0-1,0-1.5,0v3.8c0.3,0,0.6,0,1.1,0c1.9,0,2.7-0.8,2.7-2C277.4,322.1,276.9,321.4,275,321.4z M274.7,326.4
		c-0.2,0-0.8,0-1.1,0v4.1c0.3,0.1,0.8,0.1,1.5,0.1c1.9,0,2.7-0.9,2.7-2.2C277.8,326.9,276.5,326.4,274.7,326.4z"/>
</g>
<g enable-background="new    ">
	<path d="M96.7,468.3c-0.5,0-0.9,0-1.2-0.1v2.9c0.5,0,1,0.1,1.5,0.2v0.9h-4.6v-0.8c0.4-0.1,1-0.2,1.5-0.2v-9.3c-0.5,0-1-0.1-1.5-0.2
		v-0.9h1.5c0.5,0,1.9-0.1,3-0.1c3.1,0,4.4,1.7,4.4,3.6C101.4,466.6,99.6,468.3,96.7,468.3z M96.8,461.9c-0.4,0-0.9,0-1.3,0v5
		c0.3,0.1,0.8,0.1,1.4,0.1c1.9,0,2.9-1.2,2.9-2.6C99.7,463.1,99,461.9,96.8,461.9z"/>
	<path d="M106.3,472.4c-2.3,0-3.8-1.3-3.8-4.3c0-2.6,1.6-4.6,4.2-4.6c2.2,0,3.8,1.2,3.8,4.3C110.5,470.4,108.9,472.4,106.3,472.4z
		 M106.5,464.9c-1.3,0-2.4,0.9-2.4,3.1c0,2,0.8,3.1,2.4,3.1c1.3,0,2.4-1,2.4-3.1C108.9,466.1,108.1,464.9,106.5,464.9z"/>
	<path d="M111.7,472.3v-0.9c0.4-0.1,1-0.2,1.5-0.2v-6.2c-0.4-0.1-1-0.1-1.5-0.2v-0.9c0.9-0.1,2-0.2,3-0.1v7.4c0.5,0,1,0.1,1.4,0.2
		v0.9H111.7z M114,462.1c-0.6,0-1-0.4-1-1s0.5-1,1-1c0.6,0,1,0.4,1,1C115,461.6,114.5,462.1,114,462.1z"/>
	<path d="M123.9,472.3v-5.5c0-1.2-0.3-1.9-1.4-1.9c-1.4,0-2.4,1.4-2.4,3.3v2.9c0.5,0,1,0.1,1.4,0.2v0.9h-4.4v-0.8
		c0.4-0.1,1-0.2,1.5-0.2v-6.2c-0.4-0.1-1-0.1-1.5-0.2v-0.9c0.9-0.1,2-0.2,3-0.1c0,0.5,0,1.3-0.1,1.8l0,0c0.5-1.2,1.6-2,3-2
		c1.9,0,2.6,1.2,2.6,2.7v4.8c0.5,0,1,0.1,1.4,0.2v0.9h-3.1V472.3z"/>
	<path d="M131.1,472.4c-1.8,0-2.3-0.7-2.3-2.6v-4.9H127v-1.2h1.8v-2.8l1.5-0.4v3.2h2.4v1.2h-2.4v4.4c0,1.4,0.3,1.8,1.2,1.8
		c0.4,0,0.8-0.1,1.1-0.1l0.2,1.3C132.4,472.4,131.7,472.4,131.1,472.4z"/>
	<path d="M144.8,472.3v-0.9c0.4-0.1,0.9-0.2,1.3-0.2l-0.7-1.9h-4.9l-0.7,1.9c0.4,0,0.9,0.1,1.4,0.2v0.9h-4v-0.9
		c0.3-0.1,0.7-0.2,1.1-0.2l3.8-10.5h1.9l3.8,10.5c0.3,0,0.7,0.1,1,0.2v0.9H144.8z M143.6,463.9c-0.2-0.6-0.4-1.1-0.5-1.7l0,0
		c-0.1,0.6-0.3,1.1-0.5,1.7l-1.5,4.1h4L143.6,463.9z"/>
</g>
<g enable-background="new    ">
	<path d="M290.3,404.4v-0.9c0.4-0.1,0.9-0.2,1.3-0.2l-0.7-1.9H286l-0.7,1.9c0.4,0,0.9,0.1,1.4,0.2v0.9h-4v-0.9
		c0.3-0.1,0.7-0.2,1-0.2l3.8-10.5h1.9l4.1,10.5c0.3,0,0.7,0.1,1,0.2v0.9L290.3,404.4L290.3,404.4z M289.1,396.1
		c-0.2-0.6-0.4-1.1-0.5-1.7l0,0c-0.1,0.6-0.3,1.1-0.5,1.7l-1.5,4.1h4L289.1,396.1z"/>
	<path d="M308.9,393.9l-3.8,10.5h-1.8l-3.7-10.5c-0.3,0-0.8-0.1-1.1-0.2v-0.9h4.2v0.9c-0.4,0.1-0.9,0.2-1.4,0.2l2.2,6.3
		c0.2,0.7,0.5,1.6,0.8,2.4l0,0c0.2-0.8,0.5-1.6,0.8-2.5l2.2-6.2c-0.5,0-0.9-0.1-1.4-0.2v-0.9h4v0.9
		C309.6,393.9,309.2,393.9,308.9,393.9z"/>
	<path d="M316.7,400.1h-5.6c-0.1,2.2,0.8,3.2,2.7,3.2c0.8,0,1.7-0.2,2.4-0.5l0.2,1.2c-0.9,0.3-1.9,0.5-3,0.5c-2.6,0-4-1.4-4-4.4
		c0-2.5,1.4-4.5,3.9-4.5c2.4,0,3.4,1.6,3.4,3.5C316.7,399.4,316.7,399.8,316.7,400.1z M313.2,396.9c-1.1,0-1.9,0.8-2.1,2.1h4
		C315.2,397.8,314.4,396.9,313.2,396.9z"/>
	<path d="M322.1,404.6c-2.1,0-3.9-1-3.9-4.1c0-2.8,1.4-4.7,4.3-4.7c0.7,0,1.5,0.1,2.1,0.3v2.5h-1c-0.1-0.5-0.2-1-0.2-1.4
		c-0.3-0.1-0.7-0.1-1.2-0.1c-1.5,0-2.4,1.3-2.4,3.2c0,1.7,0.6,3,2.6,3c0.7,0,1.5-0.2,2-0.4l0.3,1.3
		C324.1,404.4,323.1,404.6,322.1,404.6z"/>
	<path d="M329.3,404.6c-1.8,0-2.3-0.7-2.3-2.6v-4.9h-1.8v-1.2h1.8v-2.8l1.5-0.4v3.2h2.4v1.2h-2.4v4.4c0,1.4,0.3,1.8,1.2,1.8
		c0.4,0,0.8-0.1,1.1-0.1l0.2,1.3C330.5,404.4,329.8,404.6,329.3,404.6z"/>
	<path d="M336.1,404.6c-2.3,0-3.8-1.3-3.8-4.3c0-2.6,1.6-4.6,4.2-4.6c2.2,0,3.8,1.2,3.8,4.3C340.3,402.6,338.7,404.6,336.1,404.6z
		 M336.3,397.1c-1.3,0-2.4,0.9-2.4,3.1c0,2,0.8,3.1,2.4,3.1c1.3,0,2.4-1,2.4-3.1C338.7,398.1,337.9,397.1,336.3,397.1z"/>
	<path d="M347.4,397.3c-2-0.3-2.8,1-2.8,3.7v2.3c0.5,0,1,0.1,1.5,0.2v0.9h-4.6v-0.9c0.4-0.1,1-0.2,1.5-0.2v-6.2
		c-0.4-0.1-1-0.1-1.5-0.2v-0.9c0.9-0.1,2-0.2,3-0.1c0,0.5-0.1,1.3-0.2,2l0,0c0.4-1.2,1.2-2.4,3.1-2.2V397.3z"/>
	<path d="M355.2,408.1c-2-3.2-2.5-6-2.5-8.5s0.6-5.5,2.5-8.6l1.1,0.5c-1.4,2.4-2.1,5.1-2.1,7.9c0,2.9,0.7,5.6,2.2,8L355.2,408.1z"/>
	<path d="M363.3,404.4c0-0.5,0-1.2,0.1-1.7l0,0c-0.5,1.2-1.5,1.9-2.9,1.9c-2.1,0-3.1-1.5-3.1-4c0-3,1.7-4.8,4.4-4.8
		c0.5,0,0.9,0,1.4,0.1v-2.8c-0.4-0.1-1-0.1-1.5-0.2V392c0.9-0.1,2-0.2,3-0.1v11.3c0.4,0.1,1,0.1,1.4,0.2v0.9
		C365.5,404.4,364.3,404.4,363.3,404.4z M363.3,397.1c-0.5-0.1-1-0.2-1.5-0.2c-1.6,0-2.7,1-2.7,3.4c0,1.8,0.6,2.9,1.9,2.9
		c1.5,0,2.3-1.8,2.3-3.3L363.3,397.1L363.3,397.1z"/>
	<path d="M373,397.3c-2-0.3-2.8,1-2.8,3.7v2.3c0.5,0,1,0.1,1.5,0.2v0.9h-4.5v-0.9c0.4-0.1,1-0.2,1.5-0.2v-6.2
		c-0.4-0.1-1-0.1-1.5-0.2v-0.9c0.9-0.1,2-0.2,3-0.1c0,0.5-0.1,1.3-0.2,2l0,0c0.4-1.2,1.2-2.4,3.1-2.2L373,397.3z"/>
	<path d="M379,404.4c0-0.6,0-1.2,0.1-1.7l0,0c-0.4,1-1.5,1.9-2.9,1.9s-2.4-0.9-2.4-2.3c0-1.8,1.9-2.9,5.1-2.9v-0.6
		c0-1.2-0.4-1.9-1.8-1.9c-0.5,0-1.1,0.1-1.6,0.2c0,0.4-0.1,0.9-0.2,1.4h-1v-2.3c0.9-0.3,1.9-0.5,2.9-0.5c2.5,0,3.2,1.2,3.2,2.9v4.6
		c0.4,0.1,1,0.1,1.4,0.2v0.9C381.2,404.4,380,404.4,379,404.4z M379,400.4c-2.7,0-3.6,0.7-3.6,1.6c0,0.7,0.5,1.3,1.3,1.3
		c1.4,0,2.3-1.4,2.3-2.7L379,400.4L379,400.4z"/>
	<path d="M395.8,397.1l-2.3,7.4h-1.8l-1.7-5c-0.2-0.5-0.3-1.1-0.5-1.7l0,0c-0.2,0.8-0.4,1.4-0.6,2.2l-1.4,4.6h-1.8l-2.2-7.4
		c-0.4,0-0.8-0.1-1.1-0.2V396h3.9v0.9c-0.4,0.1-0.8,0.2-1.2,0.2l1,3.8c0.2,0.7,0.4,1.4,0.5,1.9l0,0c0.2-0.7,0.4-1.4,0.6-2.1l1.5-4.8
		h1.6l1.5,4.8c0.3,1,0.5,1.5,0.6,2.1l0,0c0.2-0.6,0.3-1.1,0.5-1.9l1.1-3.9c-0.4,0-0.8-0.1-1.2-0.2v-0.9h3.8v0.9
		C396.6,396.9,396.2,396.9,395.8,397.1z"/>
	<path d="M404.4,404.4v-5.5c0-1.2-0.3-1.9-1.4-1.9c-1.4,0-2.4,1.4-2.4,3.3v2.9c0.5,0,1,0.1,1.4,0.2v0.9h-4.5v-0.9
		c0.4-0.1,1-0.2,1.5-0.2V397c-0.4-0.1-1-0.1-1.5-0.2v-0.9c0.9-0.1,2-0.2,3-0.1c0,0.5,0,1.3-0.1,1.8l0,0c0.5-1.2,1.6-2,3-2
		c1.9,0,2.6,1.2,2.6,2.7v4.8c0.5,0,1,0.1,1.4,0.2v0.9h-3V404.4z"/>
	<path d="M417.5,404.4c0-0.6,0-1.2,0.1-1.7l0,0c-0.4,1-1.5,1.9-2.9,1.9s-2.4-0.9-2.4-2.3c0-1.8,1.9-2.9,5.1-2.9v-0.6
		c0-1.2-0.4-1.9-1.8-1.9c-0.5,0-1.1,0.1-1.6,0.2c0,0.4-0.1,0.9-0.2,1.4h-1v-2.3c0.9-0.3,1.9-0.5,2.9-0.5c2.5,0,3.2,1.2,3.2,2.9v4.6
		c0.4,0.1,1,0.1,1.4,0.2v0.9C419.6,404.4,418.4,404.4,417.5,404.4z M417.4,400.4c-2.7,0-3.6,0.7-3.6,1.6c0,0.7,0.5,1.3,1.3,1.3
		c1.4,0,2.3-1.4,2.3-2.7L417.4,400.4L417.4,400.4z"/>
	<path d="M423.7,404.6c-0.7,0-1.4-0.1-2-0.2v-2.4h0.9c0.1,0.4,0.2,0.9,0.2,1.4c0.3,0.1,0.7,0.1,1,0.1c1.2,0,1.9-0.5,1.9-1.3
		c0-1.9-4.3-0.8-4.3-3.8c0-1.5,1.2-2.6,3.4-2.6c0.6,0,1.3,0.1,2,0.2v2.3h-0.9c-0.1-0.4-0.2-0.9-0.2-1.3c-0.3-0.1-0.6-0.1-1-0.1
		c-1.2,0-1.7,0.5-1.7,1.3c0,1.9,4.3,0.9,4.3,3.7C427.3,403.4,426,404.6,423.7,404.6z"/>
	<path d="M437.9,404.4c0-0.6,0-1.2,0.1-1.7l0,0c-0.4,1-1.5,1.9-2.9,1.9s-2.4-0.9-2.4-2.3c0-1.8,1.9-2.9,5.1-2.9v-0.6
		c0-1.2-0.4-1.9-1.8-1.9c-0.5,0-1.1,0.1-1.6,0.2c0,0.4-0.1,0.9-0.2,1.4h-1v-2.3c0.9-0.3,1.9-0.5,2.9-0.5c2.5,0,3.2,1.2,3.2,2.9v4.6
		c0.4,0.1,1,0.1,1.4,0.2v0.9C440,404.4,438.8,404.4,437.9,404.4z M437.8,400.4c-2.7,0-3.6,0.7-3.6,1.6c0,0.7,0.5,1.3,1.3,1.3
		c1.4,0,2.3-1.4,2.3-2.7L437.8,400.4L437.8,400.4z"/>
	<path d="M448.6,404.4v-5.5c0-1.2-0.3-1.9-1.4-1.9c-1.4,0-2.4,1.4-2.4,3.3v2.9c0.5,0,1,0.1,1.4,0.2v0.9h-4.4v-0.9
		c0.4-0.1,1-0.2,1.5-0.2V397c-0.4-0.1-1-0.1-1.5-0.2v-0.9c0.9-0.1,2-0.2,3-0.1c0,0.5,0,1.3-0.1,1.8l0,0c0.5-1.2,1.6-2,3-2
		c1.9,0,2.6,1.2,2.6,2.7v4.8c0.5,0,1,0.1,1.4,0.2v0.9h-3.1V404.4z"/>
	<path d="M461.6,404.4c0-0.6,0-1.2,0.1-1.7l0,0c-0.4,1-1.5,1.9-2.9,1.9s-2.4-0.9-2.4-2.3c0-1.8,1.9-2.9,5.1-2.9v-0.6
		c0-1.2-0.4-1.9-1.8-1.9c-0.5,0-1.1,0.1-1.6,0.2c0,0.4-0.1,0.9-0.2,1.4h-1v-2.3c0.9-0.3,1.9-0.5,2.9-0.5c2.5,0,3.2,1.2,3.2,2.9v4.6
		c0.4,0.1,1,0.1,1.4,0.2v0.9C463.7,404.4,462.5,404.4,461.6,404.4z M461.5,400.4c-2.7,0-3.6,0.7-3.6,1.6c0,0.7,0.5,1.3,1.3,1.3
		c1.4,0,2.3-1.4,2.3-2.7L461.5,400.4L461.5,400.4z"/>
	<path d="M471.2,397.3c-2-0.3-2.8,1-2.8,3.7v2.3c0.5,0,1,0.1,1.5,0.2v0.9h-4.5v-0.9c0.4-0.1,1-0.2,1.5-0.2v-6.2
		c-0.4-0.1-1-0.1-1.5-0.2v-0.9c0.9-0.1,2-0.2,3-0.1c0,0.5-0.1,1.3-0.2,2l0,0c0.4-1.2,1.2-2.4,3.1-2.2L471.2,397.3z"/>
	<path d="M477.9,397.3c-2-0.3-2.8,1-2.8,3.7v2.3c0.5,0,1,0.1,1.5,0.2v0.9h-4.5v-0.9c0.4-0.1,1-0.2,1.5-0.2v-6.2
		c-0.4-0.1-1-0.1-1.5-0.2v-0.9c0.9-0.1,2-0.2,3-0.1c0,0.5-0.1,1.3-0.2,2l0,0c0.4-1.2,1.2-2.4,3.1-2.2L477.9,397.3z"/>
	<path d="M482.8,404.6c-2.3,0-3.8-1.3-3.8-4.3c0-2.6,1.6-4.6,4.2-4.6c2.2,0,3.8,1.2,3.8,4.3C487,402.6,485.4,404.6,482.8,404.6z
		 M483,397.1c-1.3,0-2.4,0.9-2.4,3.1c0,2,0.8,3.1,2.4,3.1c1.3,0,2.4-1,2.4-3.1C485.4,398.1,484.6,397.1,483,397.1z"/>
	<path d="M500.9,397.1l-2.3,7.4h-1.8l-1.7-5c-0.2-0.5-0.3-1.1-0.5-1.7l0,0c-0.2,0.8-0.4,1.4-0.6,2.2l-1.4,4.6h-1.8l-2.2-7.4
		c-0.4,0-0.8-0.1-1.1-0.2V396h3.9v0.9c-0.4,0.1-0.8,0.2-1.2,0.2l1,3.8c0.2,0.7,0.4,1.4,0.5,1.9l0,0c0.2-0.7,0.4-1.4,0.6-2.1l1.5-4.8
		h1.6l1.5,4.8c0.3,1,0.5,1.5,0.6,2.1l0,0c0.2-0.6,0.3-1.1,0.5-1.9l1.1-3.9c-0.4,0-0.8-0.1-1.2-0.2v-0.9h3.8v0.9
		C501.6,396.9,501.3,396.9,500.9,397.1z"/>
	<path d="M503.7,408.1l-1.1-0.6c1.4-2.4,2.1-5.1,2.1-7.9c0-2.9-0.7-5.6-2.2-8l1.2-0.6c2,3.2,2.5,5.9,2.5,8.5
		C506.2,401.9,505.6,404.9,503.7,408.1z"/>
</g>
<g enable-background="new    ">
	<path d="M289.1,420.1c-2-0.3-2.8,1-2.8,3.7v2.3c0.5,0,1,0.1,1.5,0.2v0.9h-4.5v-0.9c0.4-0.1,1-0.2,1.5-0.2v-6.2
		c-0.4-0.1-1-0.1-1.5-0.2v-0.9c0.9-0.1,2-0.2,3-0.1c0,0.5-0.1,1.3-0.2,2l0,0c0.4-1.2,1.2-2.4,3.1-2.2L289.1,420.1z"/>
	<path d="M297.4,423.1h-5.6c-0.1,2.2,0.8,3.2,2.7,3.2c0.8,0,1.7-0.2,2.4-0.5l0.2,1.2c-0.9,0.3-1.9,0.5-3,0.5c-2.6,0-4-1.4-4-4.4
		c0-2.5,1.4-4.5,3.9-4.5c2.4,0,3.4,1.6,3.4,3.5C297.4,422.4,297.4,422.8,297.4,423.1z M293.9,419.9c-1.1,0-1.9,0.8-2.1,2.1h4
		C295.9,420.6,295.1,419.9,293.9,419.9z"/>
	<path d="M303,427.4c-0.6,0-0.9,0-1.5-0.1v3.1c0.5,0,1.1,0.1,1.5,0.2v0.9h-4.5v-0.9c0.4-0.1,0.9-0.2,1.4-0.2V420
		c-0.4-0.1-0.9-0.1-1.4-0.2v-0.9c0.8-0.1,2-0.2,2.9-0.1c0,0.5-0.1,1.3-0.1,1.7l0,0c0.5-1.2,1.5-1.9,2.9-1.9c2,0,3.2,1.4,3.2,4
		C307.4,425.8,305.8,427.4,303,427.4z M303.9,419.9c-1.5,0-2.3,1.8-2.3,3.3v2.8c0.5,0.1,0.9,0.2,1.5,0.2c1.6,0,2.7-1,2.7-3.4
		C305.8,420.9,305.2,419.9,303.9,419.9z"/>
	<path d="M314.5,420.1c-2-0.3-2.8,1-2.8,3.7v2.3c0.5,0,1,0.1,1.5,0.2v0.9h-4.5v-0.9c0.4-0.1,1-0.2,1.5-0.2v-6.2
		c-0.4-0.1-1-0.1-1.5-0.2v-0.9c0.9-0.1,2-0.2,3-0.1c0,0.5-0.1,1.3-0.2,2l0,0c0.4-1.2,1.2-2.4,3.1-2.2L314.5,420.1z"/>
	<path d="M322.8,423.1h-5.6c-0.1,2.2,0.8,3.2,2.7,3.2c0.8,0,1.7-0.2,2.4-0.5l0.2,1.2c-0.9,0.3-1.9,0.5-3,0.5c-2.6,0-4-1.4-4-4.4
		c0-2.5,1.4-4.5,3.9-4.5c2.4,0,3.4,1.6,3.4,3.5C322.8,422.4,322.8,422.8,322.8,423.1z M319.4,419.9c-1.1,0-1.9,0.8-2.1,2.1h4
		C321.3,420.6,320.6,419.9,319.4,419.9z"/>
	<path d="M326.6,427.6c-0.7,0-1.4-0.1-2-0.2v-2.4h0.9c0.1,0.4,0.2,0.9,0.2,1.4c0.3,0.1,0.7,0.1,1,0.1c1.2,0,1.9-0.5,1.9-1.3
		c0-1.9-4.3-0.8-4.3-3.8c0-1.5,1.2-2.6,3.4-2.6c0.6,0,1.3,0.1,2,0.2v2.3h-0.9c-0.1-0.4-0.2-0.9-0.2-1.3c-0.3-0.1-0.6-0.1-1-0.1
		c-1.2,0-1.7,0.5-1.7,1.3c0,1.9,4.3,0.9,4.3,3.7C330.3,426.4,328.9,427.6,326.6,427.6z"/>
	<path d="M339,423.1h-5.6c-0.1,2.2,0.8,3.2,2.7,3.2c0.8,0,1.7-0.2,2.4-0.5l0.2,1.2c-0.9,0.3-1.9,0.5-3,0.5c-2.6,0-4-1.4-4-4.4
		c0-2.5,1.4-4.5,3.9-4.5c2.4,0,3.4,1.6,3.4,3.5C339.1,422.4,339.1,422.8,339,423.1z M335.6,419.9c-1.1,0-1.9,0.8-2.1,2.1h4
		C337.5,420.6,336.8,419.9,335.6,419.9z"/>
	<path d="M347.3,427.4v-5.5c0-1.2-0.3-1.9-1.4-1.9c-1.4,0-2.4,1.4-2.4,3.3v2.9c0.5,0,1,0.1,1.4,0.2v0.9h-4.4v-0.9
		c0.4-0.1,1-0.2,1.5-0.2v-6.2c-0.4-0.1-1-0.1-1.5-0.2v-0.9c0.9-0.1,2-0.2,3-0.1c0,0.5,0,1.3-0.1,1.8l0,0c0.5-1.2,1.6-2,3-2
		c1.9,0,2.6,1.2,2.6,2.7v4.8c0.5,0,1,0.1,1.4,0.2v0.9h-3.1V427.4z"/>
	<path d="M354.5,427.6c-1.8,0-2.3-0.7-2.3-2.6v-4.9h-1.7v-1.2h1.8v-2.8l1.5-0.4v3.2h2.4v1.2h-2.4v4.4c0,1.4,0.3,1.8,1.2,1.8
		c0.4,0,0.8-0.1,1.1-0.1l0.2,1.3C355.8,427.4,355.1,427.6,354.5,427.6z"/>
	<path d="M359.8,427.6c-0.7,0-1.4-0.1-2-0.2v-2.4h0.9c0.1,0.4,0.2,0.9,0.2,1.4c0.3,0.1,0.7,0.1,1,0.1c1.2,0,1.9-0.5,1.9-1.3
		c0-1.9-4.3-0.8-4.3-3.8c0-1.5,1.2-2.6,3.4-2.6c0.6,0,1.3,0.1,2,0.2v2.3H362c-0.1-0.4-0.2-0.9-0.2-1.3c-0.3-0.1-0.6-0.1-1-0.1
		c-1.2,0-1.7,0.5-1.7,1.3c0,1.9,4.3,0.9,4.3,3.7C363.5,426.4,362.1,427.6,359.8,427.6z"/>
	<path d="M372.2,427.6c-1.8,0-2.3-0.7-2.3-2.6v-4.9h-1.8v-1.2h1.8v-2.8l1.5-0.4v3.2h2.4v1.2h-2.4v4.4c0,1.4,0.3,1.8,1.2,1.8
		c0.4,0,0.8-0.1,1.1-0.1l0.2,1.3C373.4,427.4,372.7,427.6,372.2,427.6z"/>
	<path d="M381.7,427.4v-5.5c0-1.2-0.3-1.9-1.5-1.9c-1.4,0-2.4,1.4-2.4,3.3v2.9c0.5,0,1,0.1,1.4,0.2v0.9h-4.4v-0.9
		c0.4-0.1,0.9-0.2,1.4-0.2v-10.2c-0.4-0.1-1-0.1-1.5-0.2v-0.9c0.9-0.1,2-0.2,3-0.1v4.1c0,0.6,0,1.2-0.2,1.7l0,0
		c0.5-1.2,1.5-1.9,3-1.9c1.9,0,2.6,1.2,2.6,2.7v4.8c0.5,0,1,0.1,1.4,0.2v0.9h-2.8V427.4z"/>
	<path d="M392.8,423.1h-5.6c-0.1,2.2,0.8,3.2,2.7,3.2c0.8,0,1.7-0.2,2.4-0.5l0.2,1.2c-0.9,0.3-1.9,0.5-3,0.5c-2.6,0-4-1.4-4-4.4
		c0-2.5,1.4-4.5,3.9-4.5c2.4,0,3.4,1.6,3.4,3.5C392.9,422.4,392.9,422.8,392.8,423.1z M389.4,419.9c-1.1,0-1.9,0.8-2.1,2.1h4
		C391.3,420.6,390.6,419.9,389.4,419.9z"/>
	<path d="M404.1,427.4c0-0.5,0-1.2,0.1-1.7l0,0c-0.5,1.2-1.5,1.9-2.9,1.9c-2.1,0-3.1-1.5-3.1-4c0-3,1.7-4.8,4.4-4.8
		c0.5,0,0.9,0,1.4,0.1v-2.8c-0.4-0.1-1-0.1-1.5-0.2v-0.9c0.9-0.1,2-0.2,3-0.1v11.3c0.4,0.1,1,0.1,1.4,0.2v0.9
		C406.2,427.4,405,427.4,404.1,427.4z M404,420.1c-0.5-0.1-1-0.2-1.5-0.2c-1.6,0-2.7,1-2.7,3.4c0,1.8,0.6,2.9,1.9,2.9
		c1.5,0,2.3-1.8,2.3-3.3L404,420.1L404,420.1z"/>
	<path d="M407.8,427.4v-0.9c0.4-0.1,1-0.2,1.5-0.2V420c-0.4-0.1-1-0.1-1.5-0.2v-0.9c0.9-0.1,2-0.2,3-0.1v7.4c0.5,0,1,0.1,1.4,0.2
		v0.9H407.8z M410.1,417.1c-0.6,0-1-0.4-1-1s0.5-1,1-1c0.6,0,1,0.4,1,1C411.1,416.6,410.7,417.1,410.1,417.1z"/>
	<path d="M424.7,416.1c-0.4-0.1-0.9-0.2-1.3-0.2c-1.2,0-1.8,0.7-1.8,2.2v0.7h2.4v1.2h-2.4v6.2c0.5,0,1,0.1,1.5,0.2v0.9h-4.4v-0.9
		c0.4-0.1,0.9-0.2,1.4-0.2v-6.2h-3.9v6.2c0.5,0,0.9,0.1,1.4,0.2v0.9h-4.4v-0.9c0.4-0.1,1-0.2,1.5-0.2v-6.2h-1.9v-1.2h1.9v-0.4
		c0-1.9,0.9-3.6,3.8-3.6c0.9,0,1.9,0.2,2.8,0.5c0.5-0.4,1.2-0.6,2.1-0.6c0.5,0,0.9,0.1,1.4,0.2L424.7,416.1z M418.6,416.1
		c-1.6,0-2.3,0.7-2.3,2.2v0.6h3.9v-0.6c0-0.7,0.1-1.3,0.4-1.8C419.8,416.3,419.2,416.1,418.6,416.1z"/>
	<path d="M432.2,423.1h-5.6c-0.1,2.2,0.8,3.2,2.7,3.2c0.8,0,1.7-0.2,2.4-0.5l0.2,1.2c-0.9,0.3-1.9,0.5-3,0.5c-2.6,0-4-1.4-4-4.4
		c0-2.5,1.4-4.5,3.9-4.5c2.4,0,3.4,1.6,3.4,3.5C432.2,422.4,432.2,422.8,432.2,423.1z M428.7,419.9c-1.1,0-1.9,0.8-2.1,2.1h4
		C430.7,420.6,429.9,419.9,428.7,419.9z"/>
	<path d="M439.4,420.1c-2-0.3-2.8,1-2.8,3.7v2.3c0.5,0,1,0.1,1.5,0.2v0.9h-4.6v-0.9c0.4-0.1,1-0.2,1.5-0.2v-6.2
		c-0.4-0.1-1-0.1-1.5-0.2v-0.9c0.9-0.1,2-0.2,3-0.1c0,0.5-0.1,1.3-0.2,2l0,0c0.4-1.2,1.2-2.4,3.1-2.2V420.1z"/>
	<path d="M447.7,423.1h-5.6c-0.1,2.2,0.8,3.2,2.7,3.2c0.8,0,1.7-0.2,2.4-0.5l0.2,1.2c-0.9,0.3-1.9,0.5-3,0.5c-2.6,0-4-1.4-4-4.4
		c0-2.5,1.4-4.5,3.9-4.5c2.4,0,3.4,1.6,3.4,3.5C447.7,422.4,447.7,422.8,447.7,423.1z M444.2,419.9c-1.1,0-1.9,0.8-2.1,2.1h4
		C446.2,420.6,445.4,419.9,444.2,419.9z"/>
	<path d="M455.9,427.4v-5.5c0-1.2-0.3-1.9-1.4-1.9c-1.4,0-2.4,1.4-2.4,3.3v2.9c0.5,0,1,0.1,1.4,0.2v0.9h-4.4v-0.9
		c0.4-0.1,1-0.2,1.5-0.2v-6.2c-0.4-0.1-1-0.1-1.5-0.2v-0.9c0.9-0.1,2-0.2,3-0.1c0,0.5,0,1.3-0.1,1.8l0,0c0.5-1.2,1.6-2,3-2
		c1.9,0,2.6,1.2,2.6,2.7v4.8c0.5,0,1,0.1,1.4,0.2v0.9h-3.1V427.4z"/>
	<path d="M463.8,427.6c-2.1,0-3.9-1-3.9-4.1c0-2.8,1.4-4.7,4.3-4.7c0.7,0,1.5,0.1,2.1,0.3v2.5h-1c-0.1-0.5-0.2-1-0.2-1.4
		c-0.3-0.1-0.7-0.1-1.2-0.1c-1.5,0-2.4,1.3-2.4,3.2c0,1.7,0.6,3,2.6,3c0.7,0,1.5-0.2,2-0.4l0.3,1.3
		C465.8,427.3,464.8,427.6,463.8,427.6z"/>
	<path d="M474.8,423.1h-5.6c-0.1,2.2,0.8,3.2,2.7,3.2c0.8,0,1.7-0.2,2.4-0.5l0.2,1.2c-0.9,0.3-1.9,0.5-3,0.5c-2.6,0-4-1.4-4-4.4
		c0-2.5,1.4-4.5,3.9-4.5c2.4,0,3.4,1.6,3.4,3.5C474.9,422.4,474.8,422.8,474.8,423.1z M471.4,419.9c-1.1,0-1.9,0.8-2.1,2.1h4
		C473.3,420.6,472.6,419.9,471.4,419.9z"/>
</g>
<g enable-background="new    ">
	<path d="M287.1,450.4c-1.2,0-2-0.1-2.9-0.3v-11.1c-0.4-0.1-1-0.1-1.5-0.2v-0.9c0.9-0.1,2-0.2,3-0.1v4.1c0,0.5-0.1,1.2-0.2,1.6l0,0
		c0.5-1.2,1.5-1.9,2.8-1.9c2,0,3.1,1.4,3.1,4C291.6,448.6,289.9,450.4,287.1,450.4z M288.1,442.9c-1.5,0-2.3,1.8-2.3,3.3v2.8
		c0.4,0.1,0.9,0.2,1.5,0.2c1.6,0,2.7-1,2.7-3.4C290,443.9,289.4,442.9,288.1,442.9z"/>
	<path d="M300.2,446.1h-5.6c-0.1,2.2,0.8,3.2,2.7,3.2c0.8,0,1.7-0.2,2.4-0.5l0.2,1.2c-0.9,0.3-1.9,0.5-3,0.5c-2.6,0-4-1.4-4-4.4
		c0-2.5,1.4-4.5,3.9-4.5c2.4,0,3.4,1.6,3.4,3.5C300.3,445.4,300.3,445.6,300.2,446.1z M296.8,442.8c-1.1,0-1.9,0.8-2.1,2.1h4
		C298.7,443.6,298,442.8,296.8,442.8z"/>
	<path d="M305.2,450.4c-1.8,0-2.3-0.7-2.3-2.6v-4.9h-1.8v-1.2h1.8v-2.8l1.5-0.4v3.2h2.4v1.2h-2.4v4.4c0,1.4,0.3,1.8,1.2,1.8
		c0.4,0,0.8-0.1,1.1-0.1l0.2,1.3C306.4,450.4,305.7,450.4,305.2,450.4z"/>
	<path d="M315.4,446.1h-5.6c-0.1,2.2,0.8,3.2,2.7,3.2c0.8,0,1.7-0.2,2.4-0.5l0.2,1.2c-0.9,0.3-1.9,0.5-3,0.5c-2.6,0-4-1.4-4-4.4
		c0-2.5,1.4-4.5,3.9-4.5c2.4,0,3.4,1.6,3.4,3.5C315.4,445.4,315.4,445.6,315.4,446.1z M311.9,442.8c-1.1,0-1.9,0.8-2.1,2.1h4
		C313.9,443.6,313.1,442.8,311.9,442.8z"/>
	<path d="M324.1,446.1h-5.6c-0.1,2.2,0.8,3.2,2.7,3.2c0.8,0,1.7-0.2,2.4-0.5l0.2,1.2c-0.9,0.3-1.9,0.5-3,0.5c-2.6,0-4-1.4-4-4.4
		c0-2.5,1.4-4.5,3.9-4.5c2.4,0,3.4,1.6,3.4,3.5C324.2,445.4,324.2,445.6,324.1,446.1z M320.7,442.8c-1.1,0-1.9,0.8-2.1,2.1h4
		C322.6,443.6,321.9,442.8,320.7,442.8z"/>
	<path d="M332.4,450.4v-5.5c0-1.2-0.3-1.9-1.4-1.9c-1.4,0-2.4,1.4-2.4,3.3v2.9c0.5,0,1,0.1,1.4,0.2v0.9h-4.5v-0.9
		c0.4-0.1,1-0.2,1.5-0.2v-6.2c-0.4-0.1-1-0.1-1.5-0.2v-0.9c0.9-0.1,2-0.2,3-0.1c0,0.5,0,1.3-0.1,1.8l0,0c0.5-1.2,1.6-2,3-2
		c1.9,0,2.6,1.2,2.6,2.7v4.8c0.5,0,1,0.1,1.4,0.2v0.9h-3V450.4z"/>
	<path d="M344.2,450.4c-0.6,0-0.9,0-1.5-0.1v3.1c0.5,0,1.1,0.1,1.5,0.2v0.9h-4.5v-0.9c0.4-0.1,0.9-0.2,1.4-0.2V443
		c-0.4-0.1-0.9-0.1-1.4-0.2v-0.9c0.8-0.1,2-0.2,2.9-0.1c0,0.5-0.1,1.3-0.1,1.7l0,0c0.5-1.2,1.5-1.9,2.9-1.9c2,0,3.2,1.4,3.2,4
		C348.6,448.6,347,450.4,344.2,450.4z M345.1,442.9c-1.5,0-2.3,1.8-2.3,3.3v2.8c0.5,0.1,0.9,0.2,1.5,0.2c1.6,0,2.7-1,2.7-3.4
		C347,443.9,346.4,442.9,345.1,442.9z"/>
	<path d="M353.9,450.4c-2.3,0-3.8-1.3-3.8-4.3c0-2.6,1.6-4.6,4.2-4.6c2.2,0,3.8,1.2,3.8,4.3C358.1,448.4,356.5,450.4,353.9,450.4z
		 M354.1,442.9c-1.3,0-2.4,0.9-2.4,3.1c0,2,0.8,3.1,2.4,3.1c1.3,0,2.4-1,2.4-3.1C356.5,444.1,355.7,442.9,354.1,442.9z"/>
	<path d="M359.3,450.4v-1c0.4-0.1,1-0.2,1.5-0.2v-6.2c-0.4-0.1-1-0.1-1.5-0.2v-0.9c0.9-0.1,2-0.2,3-0.1v7.4c0.5,0,1,0.1,1.4,0.2v0.9
		L359.3,450.4L359.3,450.4z M361.6,440.1c-0.6,0-1-0.4-1-1s0.5-1,1-1c0.6,0,1,0.4,1,1S362.1,440.1,361.6,440.1z"/>
	<path d="M371.5,450.4v-5.5c0-1.2-0.3-1.9-1.4-1.9c-1.4,0-2.4,1.4-2.4,3.3v2.9c0.5,0,1,0.1,1.4,0.2v0.9h-4.4v-0.9
		c0.4-0.1,1-0.2,1.5-0.2v-6.2c-0.4-0.1-1-0.1-1.5-0.2v-0.9c0.9-0.1,2-0.2,3-0.1c0,0.5,0,1.3-0.1,1.8l0,0c0.5-1.2,1.6-2,3-2
		c1.9,0,2.6,1.2,2.6,2.7v4.8c0.5,0,1,0.1,1.4,0.2v0.9h-3.1V450.4z"/>
	<path d="M378.7,450.4c-1.8,0-2.3-0.7-2.3-2.6v-4.9h-1.8v-1.2h1.8v-2.8l1.5-0.4v3.2h2.4v1.2h-2.4v4.4c0,1.4,0.3,1.8,1.2,1.8
		c0.4,0,0.8-0.1,1.1-0.1l0.2,1.3C380,450.4,379.3,450.4,378.7,450.4z"/>
	<path d="M384,450.4c-0.7,0-1.4-0.1-2-0.2v-2.4h0.9c0.1,0.4,0.2,0.9,0.2,1.4c0.3,0.1,0.7,0.1,1,0.1c1.2,0,1.9-0.5,1.9-1.3
		c0-1.9-4.3-0.8-4.3-3.8c0-1.5,1.2-2.6,3.4-2.6c0.6,0,1.3,0.1,2,0.2v2.3h-0.9c-0.1-0.4-0.2-0.9-0.2-1.3c-0.3-0.1-0.6-0.1-1-0.1
		c-1.2,0-1.7,0.5-1.7,1.3c0,1.9,4.3,0.9,4.3,3.7C387.7,449.3,386.3,450.4,384,450.4z"/>
	<path d="M399.9,450.4v-1c0.4-0.1,0.9-0.2,1.3-0.2l-0.7-1.9h-4.9l-0.7,1.9c0.4,0,0.9,0.1,1.4,0.2v0.9h-4v-0.9c0.3-0.1,0.7-0.2,1-0.2
		l3.8-10.5h1.9l3.8,10.5c0.3,0,0.7,0.1,1,0.2v0.9L399.9,450.4L399.9,450.4z M398.7,441.9c-0.2-0.6-0.4-1.1-0.5-1.7l0,0
		c-0.1,0.6-0.3,1.1-0.5,1.7l-1.5,4.1h4L398.7,441.9z"/>
	<path d="M413.9,450.4c0-0.6,0-1.2,0.1-1.7l0,0c-0.4,1-1.5,1.9-2.9,1.9s-2.4-0.9-2.4-2.3c0-1.8,1.9-2.9,5.1-2.9v-0.6
		c0-1.2-0.4-1.9-1.8-1.9c-0.5,0-1.1,0.1-1.6,0.2c0,0.4-0.1,0.9-0.2,1.4h-1v-2.3c0.9-0.3,1.9-0.5,2.9-0.5c2.5,0,3.2,1.2,3.2,2.9v4.6
		c0.4,0.1,1,0.1,1.4,0.2v0.9C416,450.4,414.8,450.4,413.9,450.4z M413.8,446.4c-2.7,0-3.6,0.7-3.6,1.6c0,0.7,0.5,1.3,1.3,1.3
		c1.4,0,2.3-1.4,2.3-2.7L413.8,446.4L413.8,446.4z"/>
	<path d="M424.6,450.4v-5.5c0-1.2-0.3-1.9-1.4-1.9c-1.4,0-2.4,1.4-2.4,3.3v2.9c0.5,0,1,0.1,1.4,0.2v0.9h-4.4v-0.9
		c0.4-0.1,1-0.2,1.5-0.2v-6.2c-0.4-0.1-1-0.1-1.5-0.2v-0.9c0.9-0.1,2-0.2,3-0.1c0,0.5,0,1.3-0.1,1.8l0,0c0.5-1.2,1.6-2,3-2
		c1.9,0,2.6,1.2,2.6,2.7v4.8c0.5,0,1,0.1,1.4,0.2v0.9h-3.1V450.4z"/>
	<path d="M434.5,450.4c0-0.5,0-1.2,0.1-1.7l0,0c-0.5,1.2-1.5,1.9-2.9,1.9c-2.1,0-3.1-1.5-3.1-4c0-3,1.7-4.8,4.4-4.8
		c0.5,0,0.9,0,1.4,0.1v-2.8c-0.4-0.1-1-0.1-1.5-0.2v-0.9c0.9-0.1,2-0.2,3-0.1v11.3c0.4,0.1,1,0.1,1.4,0.2v0.9
		C436.6,450.4,435.4,450.4,434.5,450.4z M434.4,443.1c-0.5-0.1-1-0.2-1.5-0.2c-1.6,0-2.7,1-2.7,3.4c0,1.8,0.6,2.9,1.9,2.9
		c1.5,0,2.3-1.8,2.3-3.3L434.4,443.1L434.4,443.1z"/>
	<path d="M446.4,450.4c-0.7,0-1.7-0.1-3-0.1h-1.5v-0.9c0.4-0.1,1-0.2,1.5-0.2v-9.3c-0.5,0-1-0.1-1.5-0.2v-0.9h1.5
		c0.8,0,1.9-0.1,3.3-0.1c2.5,0,3.7,1,3.7,2.8c0,1.2-0.7,2.3-1.9,2.7l0,0c1.6,0.3,2.4,1.5,2.4,2.7
		C450.9,448.3,450.1,450.4,446.4,450.4z M446.5,439.9c-0.5,0-1,0-1.5,0v3.8c0.3,0,0.6,0,1.1,0c1.9,0,2.7-0.8,2.7-2
		C448.8,440.6,448.3,439.9,446.5,439.9z M446.1,444.9c-0.2,0-0.8,0-1.1,0v4.1c0.3,0.1,0.8,0.1,1.5,0.1c1.9,0,2.7-0.9,2.7-2.2
		C449.3,445.4,447.9,444.9,446.1,444.9z"/>
	<path d="M453.8,450.4c-0.6,0-1.1-0.5-1.1-1.1s0.5-1.1,1.1-1.1s1.1,0.5,1.1,1.1S454.4,450.4,453.8,450.4z"/>
</g>
</svg>
