<?xml version="1.0" encoding="utf-8"?>
<!-- Generator: Adobe Illustrator 18.0.0, SVG Export Plug-In . SVG Version: 6.00 Build 0)  -->
<!DOCTYPE svg PUBLIC "-//W3C//DTD SVG 1.1//EN" "http://www.w3.org/Graphics/SVG/1.1/DTD/svg11.dtd">
<svg version="1.1" id="Layer_1" xmlns="http://www.w3.org/2000/svg" xmlns:xlink="http://www.w3.org/1999/xlink" x="0px" y="0px"
	 viewBox="-16.5 286 645 220" enable-background="new -16.5 286 645 220" xml:space="preserve">
<circle cx="221" cy="457.4" r="3.6"/>
<line fill="none" stroke="#999999" stroke-width="1.3" x1="226.5" y1="453.1" x2="360.3" y2="321"/>
<g enable-background="new    ">
	<path d="M322.3,299.6v6.8h-1.4l-3-4.8c-0.3-0.5-0.7-1.1-0.9-1.6c0.1,1.3,0.1,3.3,0.1,5.7c0.3,0,0.7,0.1,0.9,0.1v0.6h-2.9v-0.6
		c0.3-0.1,0.7-0.1,1-0.1v-6.1c-0.3,0-0.7-0.1-1-0.1v-0.6h2.4l2.9,4.7c0.3,0.5,0.7,1.1,0.9,1.6c-0.1-1.3-0.1-3.3-0.1-5.7
		c-0.3,0-0.6-0.1-0.9-0.1v-0.6h2.7v0.6C322.9,299.5,322.5,299.5,322.3,299.6z"/>
	<path d="M328.6,303.6h-3.7c-0.1,1.4,0.5,2.1,1.8,2.1c0.5,0,1.1-0.1,1.6-0.3l0.1,0.8c-0.6,0.2-1.2,0.3-2,0.3c-1.7,0-2.6-0.9-2.6-2.9
		c0-1.6,0.9-3,2.6-3c1.6,0,2.2,1.1,2.2,2.3C328.6,303.1,328.6,303.4,328.6,303.6z M326.3,301.5c-0.7,0-1.2,0.5-1.4,1.4h2.6
		C327.6,302,327.1,301.5,326.3,301.5z"/>
	<path d="M337.9,301.6l-1.5,4.9h-1.2l-1.1-3.3c-0.1-0.3-0.2-0.7-0.3-1.1l0,0c-0.1,0.5-0.3,0.9-0.4,1.4l-0.9,3h-1.2l-1.4-4.9
		c-0.3,0-0.5-0.1-0.7-0.1v-0.6h2.6v0.6c-0.3,0.1-0.5,0.1-0.8,0.1l0.7,2.5c0.1,0.5,0.3,0.9,0.3,1.2l0,0c0.1-0.5,0.3-0.9,0.4-1.4
		l1-3.2h1.1l1,3.2c0.2,0.7,0.3,1,0.4,1.4l0,0c0.1-0.4,0.2-0.7,0.3-1.2l0.7-2.6c-0.3,0-0.5-0.1-0.8-0.1v-0.6h2.5v0.6
		C338.4,301.5,338.1,301.6,337.9,301.6z"/>
</g>
<g enable-background="new    ">
	<path d="M305.4,317.7v-0.6c0.3-0.1,0.7-0.1,1-0.1v-6.1c-0.3,0-0.7-0.1-1-0.1v-0.7h3v0.6c-0.3,0.1-0.7,0.1-1,0.1v6h2
		c0.1-0.3,0.1-0.7,0.2-1.1h0.7v2H305.4z"/>
	<path d="M313.4,317.9c-1.5,0-2.5-0.9-2.5-2.8c0-1.7,1.1-3,2.8-3c1.4,0,2.5,0.8,2.5,2.8C316.1,316.5,315.1,317.9,313.4,317.9z
		 M313.5,312.9c-0.9,0-1.6,0.6-1.6,2c0,1.3,0.5,2,1.6,2c0.9,0,1.6-0.7,1.6-2C315.1,313.7,314.6,312.9,313.5,312.9z"/>
	<path d="M319.6,317.9c-1.4,0-2.6-0.7-2.6-2.7c0-1.8,0.9-3.1,2.8-3.1c0.5,0,1,0.1,1.4,0.2v1.6h-0.7c-0.1-0.3-0.1-0.7-0.1-0.9
		c-0.2-0.1-0.5-0.1-0.8-0.1c-1,0-1.6,0.9-1.6,2.1c0,1.1,0.4,2,1.7,2c0.5,0,1-0.1,1.3-0.3l0.2,0.9
		C320.9,317.7,320.3,317.9,319.6,317.9z"/>
	<path d="M325.6,317.7c0-0.4,0-0.8,0.1-1.1l0,0c-0.3,0.7-1,1.2-1.9,1.2c-0.9,0-1.6-0.6-1.6-1.5c0-1.2,1.2-1.9,3.4-1.9V314
		c0-0.8-0.3-1.2-1.2-1.2c-0.3,0-0.7,0.1-1.1,0.1c0,0.3-0.1,0.6-0.1,0.9h-0.7v-1.5c0.6-0.2,1.2-0.3,1.9-0.3c1.6,0,2.1,0.8,2.1,1.9v3
		c0.3,0.1,0.7,0.1,0.9,0.1v0.6C327,317.7,326.2,317.8,325.6,317.7z M325.5,315.2c-1.8,0-2.4,0.5-2.4,1.1c0,0.5,0.3,0.9,0.9,0.9
		c0.9,0,1.5-0.9,1.5-1.8L325.5,315.2L325.5,315.2z"/>
	<path d="M330.3,317.9c-1.2,0-1.5-0.5-1.5-1.7v-3.2h-1.2v-0.8h1.2v-1.8l1-0.3v2.1h1.6v0.8h-1.6v2.9c0,0.9,0.2,1.2,0.8,1.2
		c0.3,0,0.5-0.1,0.7-0.1l0.1,0.9C331.1,317.8,330.6,317.9,330.3,317.9z"/>
	<path d="M332.1,317.7v-0.6c0.3-0.1,0.7-0.1,1-0.1v-4.1c-0.3-0.1-0.7-0.1-1-0.1v-0.6c0.6-0.1,1.3-0.1,2-0.1v4.9
		c0.3,0,0.7,0.1,0.9,0.1v0.6H332.1L332.1,317.7z M333.6,311c-0.4,0-0.7-0.3-0.7-0.7s0.3-0.7,0.7-0.7c0.4,0,0.7,0.3,0.7,0.7
		C334.3,310.7,334,311,333.6,311z"/>
	<path d="M338.1,317.9c-1.5,0-2.5-0.9-2.5-2.8c0-1.7,1.1-3,2.8-3c1.4,0,2.5,0.8,2.5,2.8C340.8,316.5,339.8,317.9,338.1,317.9z
		 M338.2,312.9c-0.9,0-1.6,0.6-1.6,2c0,1.3,0.5,2,1.6,2c0.9,0,1.6-0.7,1.6-2C339.8,313.7,339.2,312.9,338.2,312.9z"/>
	<path d="M346.2,317.7v-3.6c0-0.8-0.2-1.2-0.9-1.2c-0.9,0-1.6,0.9-1.6,2.2v1.9c0.3,0,0.7,0.1,0.9,0.1v0.6h-2.9v-0.6
		c0.3-0.1,0.7-0.1,1-0.1v-4.1c-0.3-0.1-0.7-0.1-1-0.1v-0.6c0.6-0.1,1.3-0.1,2-0.1c0,0.3,0,0.9-0.1,1.2l0,0c0.3-0.8,1.1-1.3,2-1.3
		c1.2,0,1.7,0.8,1.7,1.8v3.2c0.3,0,0.7,0.1,0.9,0.1v0.6h-2V317.7z"/>
</g>
<g enable-background="new    ">
	<path d="M172.1,463.7c-2.2,0-3.4-1.5-3.4-3.8c0-2.6,1.6-4,3.6-4c2.2,0,3.4,1.5,3.4,3.8C175.7,462.2,174.1,463.7,172.1,463.7z
		 M172.2,456.7c-1.4,0-2.4,1.1-2.4,3c0,1.8,0.8,3.1,2.4,3.1c1.4,0,2.4-1.1,2.4-3C174.7,458,173.8,456.7,172.2,456.7z"/>
	<path d="M180.4,458.9c-1.3-0.2-1.8,0.7-1.8,2.4v1.5c0.3,0,0.7,0.1,1,0.1v0.6h-3V463c0.3-0.1,0.7-0.1,1-0.1v-4.1
		c-0.3-0.1-0.7-0.1-1-0.1V458c0.6-0.1,1.3-0.1,2-0.1c0,0.3-0.1,0.9-0.1,1.3l0,0c0.3-0.8,0.8-1.6,2-1.4L180.4,458.9z"/>
	<path d="M181,463.6V463c0.3-0.1,0.7-0.1,1-0.1v-4.1c-0.3-0.1-0.7-0.1-1-0.1V458c0.6-0.1,1.3-0.1,2-0.1v4.9c0.3,0,0.7,0.1,0.9,0.1
		v0.6L181,463.6L181,463.6z M182.6,456.8c-0.4,0-0.7-0.3-0.7-0.7c0-0.4,0.3-0.7,0.7-0.7c0.4,0,0.7,0.3,0.7,0.7
		C183.2,456.5,182.9,456.8,182.6,456.8z"/>
	<path d="M187,466.4c-1.4,0-2.4-0.6-2.4-1.7c0-0.7,0.5-1.2,0.9-1.5c-0.3-0.1-0.5-0.5-0.5-0.9c0-0.4,0.3-0.8,0.6-0.9
		c-0.5-0.3-0.9-0.8-0.9-1.6c0-1.1,0.9-2.1,2.4-2.1c0.3,0,0.5,0.1,0.8,0.1h1.9v0.8h-0.9c0.3,0.2,0.5,0.6,0.5,1.1c0,1.2-0.8,2-2.4,2
		c-0.2,0-0.4,0-0.6-0.1c-0.3,0.1-0.4,0.3-0.4,0.5c0,0.3,0.3,0.4,1,0.5l1.1,0.1c1.2,0.1,1.9,0.6,1.9,1.6
		C190,465.5,188.8,466.4,187,466.4z M187.8,463.6l-1.1-0.1c-0.1,0-0.3,0-0.3,0c-0.5,0.3-0.7,0.7-0.7,1.1c0,0.7,0.7,1.1,1.5,1.1
		c1.1,0,1.8-0.5,1.8-1.2C188.9,463.9,188.6,463.6,187.8,463.6z M187.2,458.6c-0.9,0-1.3,0.5-1.3,1.2c0,0.8,0.5,1.2,1.3,1.2
		c0.8,0,1.3-0.5,1.3-1.2C188.5,459.1,188,458.6,187.2,458.6z"/>
	<path d="M190.6,463.6V463c0.3-0.1,0.7-0.1,1-0.1v-4.1c-0.3-0.1-0.7-0.1-1-0.1V458c0.6-0.1,1.3-0.1,2-0.1v4.9c0.3,0,0.7,0.1,0.9,0.1
		v0.6L190.6,463.6L190.6,463.6z M192.2,456.8c-0.4,0-0.7-0.3-0.7-0.7c0-0.4,0.3-0.7,0.7-0.7c0.4,0,0.7,0.3,0.7,0.7
		C192.8,456.5,192.5,456.8,192.2,456.8z"/>
	<path d="M198.7,463.6v-3.6c0-0.8-0.2-1.2-0.9-1.2c-0.9,0-1.6,0.9-1.6,2.2v1.9c0.3,0,0.7,0.1,0.9,0.1v0.6h-2.9v-0.6
		c0.3-0.1,0.7-0.1,1-0.1v-4.1c-0.3-0.1-0.7-0.1-1-0.1V458c0.6-0.1,1.3-0.1,2-0.1c0,0.3,0,0.9-0.1,1.2l0,0c0.3-0.8,1.1-1.3,2-1.3
		c1.2,0,1.7,0.8,1.7,1.8v3.2c0.3,0,0.7,0.1,0.9,0.1v0.6L198.7,463.6L198.7,463.6z"/>
	<path d="M204.7,463.6c0-0.4,0-0.8,0.1-1.1l0,0c-0.3,0.7-1,1.2-1.9,1.2s-1.6-0.6-1.6-1.5c0-1.2,1.2-1.9,3.4-1.9v-0.4
		c0-0.8-0.3-1.2-1.2-1.2c-0.3,0-0.7,0.1-1.1,0.1c0,0.3-0.1,0.6-0.1,0.9h-0.7v-1.5c0.6-0.2,1.2-0.3,1.9-0.3c1.6,0,2.1,0.8,2.1,1.9v3
		c0.3,0.1,0.7,0.1,0.9,0.1v0.6C206.1,463.6,205.3,463.6,204.7,463.6z M204.6,461c-1.8,0-2.4,0.5-2.4,1.1c0,0.5,0.3,0.9,0.9,0.9
		c0.9,0,1.5-0.9,1.5-1.8V461z"/>
	<path d="M207,463.6V463c0.3-0.1,0.6-0.1,0.9-0.1v-6.7c-0.3-0.1-0.7-0.1-1-0.1v-0.6c0.6-0.1,1.3-0.1,2-0.1v7.5
		c0.3,0,0.7,0.1,0.9,0.1v0.6L207,463.6L207,463.6z"/>
</g>
<g enable-background="new    ">
	<path d="M167.8,474.9v-0.6c0.3-0.1,0.7-0.1,1-0.1V468c-0.3,0-0.7-0.1-1-0.1v-0.7h3v0.6c-0.3,0.1-0.7,0.1-1,0.1v6h2
		c0.1-0.3,0.1-0.7,0.2-1.1h0.7v2L167.8,474.9L167.8,474.9z"/>
	<path d="M175.8,475c-1.5,0-2.5-0.9-2.5-2.8c0-1.7,1.1-3,2.8-3c1.4,0,2.5,0.8,2.5,2.8C178.5,473.7,177.5,475,175.8,475z M175.9,470
		c-0.9,0-1.6,0.6-1.6,2c0,1.3,0.5,2,1.6,2c0.9,0,1.6-0.7,1.6-2C177.5,470.8,176.9,470,175.9,470z"/>
	<path d="M182,475c-1.4,0-2.6-0.7-2.6-2.7c0-1.8,0.9-3.1,2.8-3.1c0.5,0,1,0.1,1.4,0.2v1.6H183c-0.1-0.3-0.1-0.7-0.1-0.9
		c-0.2-0.1-0.5-0.1-0.8-0.1c-1,0-1.6,0.9-1.6,2.1c0,1.1,0.4,2,1.7,2c0.5,0,1-0.1,1.3-0.3l0.2,0.9C183.3,474.9,182.7,475,182,475z"/>
	<path d="M187.9,474.9c0-0.4,0-0.8,0.1-1.1l0,0c-0.3,0.7-1,1.2-1.9,1.2s-1.6-0.6-1.6-1.5c0-1.2,1.2-1.9,3.4-1.9v-0.4
		c0-0.8-0.3-1.2-1.2-1.2c-0.3,0-0.7,0.1-1.1,0.1c0,0.3-0.1,0.6-0.1,0.9h-0.7v-1.5c0.6-0.2,1.2-0.3,1.9-0.3c1.6,0,2.1,0.8,2.1,1.9v3
		c0.3,0.1,0.7,0.1,0.9,0.1v0.6C189.3,474.9,188.6,474.9,187.9,474.9z M187.9,472.3c-1.8,0-2.4,0.5-2.4,1.1c0,0.5,0.3,0.9,0.9,0.9
		c0.9,0,1.5-0.9,1.5-1.8V472.3z"/>
	<path d="M192.6,475c-1.2,0-1.5-0.5-1.5-1.7v-3.2h-1.2v-0.8h1.2v-1.8l1-0.3v2.1h1.6v0.8h-1.6v2.9c0,0.9,0.2,1.2,0.8,1.2
		c0.3,0,0.5-0.1,0.7-0.1l0.1,0.9C193.5,474.9,193,475,192.6,475z"/>
	<path d="M194.5,474.9v-0.6c0.3-0.1,0.7-0.1,1-0.1v-4.1c-0.3-0.1-0.7-0.1-1-0.1v-0.6c0.6-0.1,1.3-0.1,2-0.1v4.9
		c0.3,0,0.7,0.1,0.9,0.1v0.6H194.5z M196,468.2c-0.4,0-0.7-0.3-0.7-0.7c0-0.4,0.3-0.7,0.7-0.7c0.4,0,0.7,0.3,0.7,0.7
		C196.6,467.8,196.4,468.2,196,468.2z"/>
	<path d="M200.4,475c-1.5,0-2.5-0.9-2.5-2.8c0-1.7,1.1-3,2.8-3c1.4,0,2.5,0.8,2.5,2.8C203.2,473.7,202.1,475,200.4,475z M200.6,470
		c-0.9,0-1.6,0.6-1.6,2c0,1.3,0.5,2,1.6,2c0.9,0,1.6-0.7,1.6-2C202.1,470.8,201.6,470,200.6,470z"/>
	<path d="M208.6,474.9v-3.6c0-0.8-0.2-1.2-0.9-1.2c-0.9,0-1.6,0.9-1.6,2.2v1.9c0.3,0,0.7,0.1,0.9,0.1v0.6h-2.9v-0.6
		c0.3-0.1,0.7-0.1,1-0.1V470c-0.3-0.1-0.7-0.1-1-0.1v-0.6c0.6-0.1,1.3-0.1,2-0.1c0,0.3,0,0.9-0.1,1.2l0,0c0.3-0.8,1.1-1.3,2-1.3
		c1.2,0,1.7,0.8,1.7,1.8v3.2c0.3,0,0.7,0.1,0.9,0.1v0.6h-2V474.9z"/>
</g>
<g enable-background="new    ">
	<path fill="#999999" d="M183.8,380v-0.6c0.3-0.1,0.6-0.1,0.9-0.1l-0.5-1.2H181l-0.5,1.2c0.3,0,0.6,0.1,0.9,0.1v0.6h-2.6v-0.6
		c0.2-0.1,0.5-0.1,0.7-0.1l2.5-6.9h1.2l2.5,6.9c0.2,0,0.5,0.1,0.7,0.1v0.6H183.8z M183,374.5c-0.1-0.4-0.3-0.7-0.3-1.1l0,0
		c-0.1,0.4-0.2,0.7-0.3,1.1l-1,2.7h2.6L183,374.5z"/>
	<path fill="#999999" d="M196,373.1l-2.5,6.9h-1.2l-2.4-6.9c-0.2,0-0.5-0.1-0.7-0.1v-0.6h2.8v0.6c-0.3,0.1-0.6,0.1-0.9,0.1l1.4,4.1
		c0.1,0.5,0.3,1.1,0.5,1.6l0,0c0.1-0.5,0.3-1.1,0.5-1.6l1.4-4.1c-0.3,0-0.6-0.1-0.9-0.1v-0.6h2.6v0.6
		C196.5,373,196.2,373.1,196,373.1z"/>
	<path fill="#999999" d="M201.2,377.2h-3.7c-0.1,1.4,0.5,2.1,1.8,2.1c0.5,0,1.1-0.1,1.6-0.3l0.1,0.8c-0.6,0.2-1.2,0.3-2,0.3
		c-1.7,0-2.6-0.9-2.6-2.9c0-1.6,0.9-3,2.6-3c1.6,0,2.2,1.1,2.2,2.3C201.2,376.7,201.2,376.9,201.2,377.2z M198.9,375
		c-0.7,0-1.2,0.5-1.4,1.4h2.6C200.2,375.6,199.6,375,198.9,375z"/>
	<path fill="#999999" d="M204.7,380.1c-1.4,0-2.6-0.7-2.6-2.7c0-1.8,0.9-3.1,2.8-3.1c0.5,0,1,0.1,1.4,0.2v1.6h-0.7
		c-0.1-0.3-0.1-0.7-0.1-0.9c-0.2-0.1-0.5-0.1-0.8-0.1c-1,0-1.6,0.9-1.6,2.1c0,1.1,0.4,2,1.7,2c0.5,0,1-0.1,1.3-0.3l0.2,0.9
		C206,379.9,205.4,380.1,204.7,380.1z"/>
	<path fill="#999999" d="M209.4,380.1c-1.2,0-1.5-0.5-1.5-1.7v-3.2h-1.2v-0.8h1.2v-1.8l1-0.3v2.1h1.6v0.8h-1.6v2.9
		c0,0.9,0.2,1.2,0.8,1.2c0.3,0,0.5-0.1,0.7-0.1l0.1,0.9C210.2,380,209.8,380.1,209.4,380.1z"/>
	<path fill="#999999" d="M213.9,380.1c-1.5,0-2.5-0.9-2.5-2.8c0-1.7,1.1-3,2.8-3c1.4,0,2.5,0.8,2.5,2.8
		C216.7,378.7,215.6,380.1,213.9,380.1z M214,375.1c-0.9,0-1.6,0.6-1.6,2c0,1.3,0.5,2,1.6,2c0.9,0,1.6-0.7,1.6-2
		C215.6,375.8,215.1,375.1,214,375.1z"/>
	<path fill="#999999" d="M221.3,375.3c-1.3-0.2-1.8,0.7-1.8,2.4v1.5c0.3,0,0.7,0.1,1,0.1v0.6h-3v-0.6c0.3-0.1,0.7-0.1,1-0.1v-4.1
		c-0.3-0.1-0.7-0.1-1-0.1v-0.6c0.6-0.1,1.3-0.1,2-0.1c0,0.3-0.1,0.9-0.1,1.3l0,0c0.3-0.8,0.8-1.6,2-1.4L221.3,375.3z"/>
	<path fill="#999999" d="M226.7,380.1c-1.2,0-1.5-0.5-1.5-1.7v-3.2H224v-0.8h1.2v-1.8l1-0.3v2.1h1.6v0.8h-1.6v2.9
		c0,0.9,0.2,1.2,0.8,1.2c0.3,0,0.5-0.1,0.7-0.1l0.1,0.9C227.5,380,227.1,380.1,226.7,380.1z"/>
	<path fill="#999999" d="M233.4,377.2h-3.7c-0.1,1.4,0.5,2.1,1.8,2.1c0.5,0,1.1-0.1,1.6-0.3l0.1,0.8c-0.6,0.2-1.2,0.3-2,0.3
		c-1.7,0-2.6-0.9-2.6-2.9c0-1.6,0.9-3,2.6-3c1.6,0,2.2,1.1,2.2,2.3C233.4,376.7,233.4,376.9,233.4,377.2z M231.1,375
		c-0.7,0-1.2,0.5-1.4,1.4h2.6C232.5,375.6,231.9,375,231.1,375z"/>
	<path fill="#999999" d="M234.2,380v-0.6c0.3-0.1,0.6-0.1,0.9-0.1v-6.7c-0.3-0.1-0.7-0.1-1-0.1v-0.6c0.6-0.1,1.3-0.1,2-0.1v7.5
		c0.3,0,0.7,0.1,0.9,0.1v0.6H234.2z"/>
	<path fill="#999999" d="M237.5,380v-0.6c0.3-0.1,0.6-0.1,0.9-0.1v-6.7c-0.3-0.1-0.7-0.1-1-0.1v-0.6c0.6-0.1,1.3-0.1,2-0.1v7.5
		c0.3,0,0.7,0.1,0.9,0.1v0.6H237.5z"/>
	<path fill="#999999" d="M240.9,380v-0.6c0.3-0.1,0.7-0.1,1-0.1v-4.1c-0.3-0.1-0.7-0.1-1-0.1v-0.6c0.6-0.1,1.3-0.1,2-0.1v4.9
		c0.3,0,0.7,0.1,0.9,0.1v0.6H240.9z M242.4,373.2c-0.4,0-0.7-0.3-0.7-0.7c0-0.4,0.3-0.7,0.7-0.7c0.4,0,0.7,0.3,0.7,0.7
		C243.1,373,242.8,373.2,242.4,373.2z"/>
	<path fill="#999999" d="M249,380v-3.6c0-0.8-0.2-1.2-0.9-1.2c-0.9,0-1.6,0.9-1.6,2.2v1.9c0.3,0,0.7,0.1,0.9,0.1v0.6h-3v-0.6
		c0.3-0.1,0.7-0.1,1-0.1v-4.1c-0.3-0.1-0.7-0.1-1-0.1v-0.6c0.6-0.1,1.3-0.1,2-0.1c0,0.3,0,0.9-0.1,1.2l0,0c0.3-0.8,1.1-1.3,2-1.3
		c1.2,0,1.7,0.8,1.7,1.8v3.2c0.3,0,0.7,0.1,0.9,0.1v0.6H249V380z"/>
	<path fill="#999999" d="M254,382.9c-1.4,0-2.4-0.6-2.4-1.7c0-0.7,0.5-1.2,0.9-1.5c-0.3-0.1-0.5-0.5-0.5-0.9c0-0.4,0.3-0.8,0.6-0.9
		c-0.5-0.3-0.9-0.8-0.9-1.6c0-1.1,0.9-2.1,2.4-2.1c0.3,0,0.5,0.1,0.8,0.1h1.9v0.8h-0.9c0.3,0.2,0.5,0.6,0.5,1.1c0,1.2-0.8,2-2.4,2
		c-0.2,0-0.4,0-0.6-0.1c-0.3,0.1-0.4,0.3-0.4,0.5c0,0.3,0.3,0.4,1,0.5l1.1,0.1c1.2,0.1,1.9,0.6,1.9,1.6
		C257,381.9,255.7,382.9,254,382.9z M254.8,379.9l-1.1-0.1c-0.1,0-0.3,0-0.3,0c-0.5,0.3-0.7,0.7-0.7,1.1c0,0.7,0.7,1.1,1.5,1.1
		c1.1,0,1.8-0.5,1.8-1.2C255.9,380.3,255.6,380,254.8,379.9z M254.2,375c-0.9,0-1.3,0.5-1.3,1.2c0,0.8,0.5,1.2,1.3,1.2
		c0.8,0,1.3-0.5,1.3-1.2C255.4,375.5,254.9,375,254.2,375z"/>
	<path fill="#999999" d="M264.5,380c0-0.3,0-0.9,0.1-1.2l0,0c-0.3,0.8-1,1.3-2,1.3c-1.3,0-1.7-0.8-1.7-1.8v-3.2
		c-0.3-0.1-0.7-0.1-0.9-0.1v-0.6c0.5-0.1,1.3-0.1,2-0.1v3.6c0,0.8,0.2,1.2,1,1.2c0.9,0,1.6-0.9,1.6-2.2v-1.9
		c-0.3-0.1-0.6-0.1-0.9-0.1v-0.6c0.5-0.1,1.3-0.1,1.9-0.1v4.8c0.3,0.1,0.7,0.1,0.9,0.1v0.6C265.9,380,265.1,380,264.5,380z"/>
	<path fill="#999999" d="M268.6,380.1c-0.5,0-0.9-0.1-1.3-0.1v-1.6h0.6c0.1,0.3,0.1,0.6,0.1,0.9c0.2,0.1,0.5,0.1,0.7,0.1
		c0.8,0,1.2-0.3,1.2-0.9c0-1.2-2.8-0.5-2.8-2.5c0-1,0.8-1.7,2.2-1.7c0.4,0,0.9,0.1,1.3,0.1v1.5h-0.6c-0.1-0.3-0.1-0.6-0.1-0.9
		c-0.2-0.1-0.4-0.1-0.7-0.1c-0.8,0-1.1,0.3-1.1,0.9c0,1.2,2.8,0.6,2.8,2.4C271,379.3,270.1,380.1,268.6,380.1z"/>
</g>
<g enable-background="new    ">
	<path fill="#999999" d="M183.5,393.5v-3.6c0-0.8-0.2-1.2-1-1.2c-0.9,0-1.6,0.9-1.6,2.2v1.9c0.3,0,0.7,0.1,0.9,0.1v0.6H179v-0.5
		c0.3-0.1,0.6-0.1,0.9-0.1v-6.7c-0.3-0.1-0.7-0.1-1-0.1v-0.6c0.6-0.1,1.3-0.1,2-0.1v2.7c0,0.4,0,0.8-0.1,1.1l0,0
		c0.3-0.8,1-1.2,2-1.2c1.2,0,1.7,0.8,1.7,1.8v3.2c0.3,0,0.7,0.1,0.9,0.1v0.6L183.5,393.5L183.5,393.5z"/>
	<path fill="#999999" d="M188.7,393.7c-1.5,0-2.5-0.9-2.5-2.8c0-1.7,1.1-3,2.8-3c1.4,0,2.5,0.8,2.5,2.8
		C191.4,392.3,190.4,393.7,188.7,393.7z M188.8,388.7c-0.9,0-1.6,0.6-1.6,2c0,1.3,0.5,2,1.6,2c0.9,0,1.6-0.7,1.6-2
		C190.4,389.5,189.9,388.7,188.8,388.7z"/>
	<path fill="#999999" d="M200.6,388.7l-1.5,4.9h-1.2l-1.1-3.3c-0.1-0.3-0.2-0.7-0.3-1.1l0,0c-0.1,0.5-0.3,0.9-0.4,1.4l-0.9,3h-1.2
		l-1.4-4.9c-0.3,0-0.5-0.1-0.7-0.1V388h2.6v0.6c-0.3,0.1-0.5,0.1-0.8,0.1l0.7,2.5c0.1,0.5,0.3,0.9,0.3,1.2l0,0
		c0.1-0.5,0.3-0.9,0.4-1.4l1-3.2h1.1l1,3.2c0.2,0.7,0.3,1,0.4,1.4l0,0c0.1-0.4,0.2-0.7,0.3-1.2l0.7-2.6c-0.3,0-0.5-0.1-0.8-0.1v-0.6
		h2.5v0.6C201.1,388.6,200.8,388.7,200.6,388.7z"/>
	<path fill="#999999" d="M206.6,393.7c-1.2,0-1.5-0.5-1.5-1.7v-3.2h-1.2v-0.8h1.2v-1.8l1-0.3v2.1h1.6v0.8H206v2.9
		c0,0.9,0.2,1.2,0.8,1.2c0.3,0,0.5-0.1,0.7-0.1l0.1,0.9C207.3,393.6,206.9,393.7,206.6,393.7z"/>
	<path fill="#999999" d="M211,393.7c-1.5,0-2.5-0.9-2.5-2.8c0-1.7,1.1-3,2.8-3c1.4,0,2.5,0.8,2.5,2.8
		C213.8,392.3,212.7,393.7,211,393.7z M211.2,388.7c-0.9,0-1.6,0.6-1.6,2c0,1.3,0.5,2,1.6,2c0.9,0,1.6-0.7,1.6-2
		C212.7,389.5,212.1,388.7,211.2,388.7z"/>
	<path fill="#999999" d="M219.5,396.4c-1.4,0-2.4-0.6-2.4-1.7c0-0.7,0.5-1.2,0.9-1.5c-0.3-0.1-0.5-0.5-0.5-0.9
		c0-0.4,0.3-0.8,0.6-0.9c-0.5-0.3-0.9-0.8-0.9-1.6c0-1.1,0.9-2.1,2.4-2.1c0.3,0,0.5,0.1,0.8,0.1h1.9v0.8h-0.9
		c0.3,0.2,0.5,0.6,0.5,1.1c0,1.2-0.8,2-2.4,2c-0.2,0-0.4,0-0.6-0.1c-0.3,0.1-0.4,0.3-0.4,0.5c0,0.3,0.3,0.4,1,0.5l1.1,0.1
		c1.2,0.1,1.9,0.6,1.9,1.6C222.5,395.5,221.3,396.4,219.5,396.4z M220.3,393.5l-1.1-0.1c-0.1,0-0.3,0-0.3,0
		c-0.5,0.3-0.7,0.7-0.7,1.1c0,0.7,0.7,1.1,1.5,1.1c1.1,0,1.8-0.5,1.8-1.2C221.5,393.9,221.1,393.5,220.3,393.5z M219.6,388.6
		c-0.9,0-1.3,0.5-1.3,1.2c0,0.8,0.5,1.2,1.3,1.2c0.8,0,1.3-0.5,1.3-1.2C220.9,389.1,220.5,388.6,219.6,388.6z"/>
	<path fill="#999999" d="M228,390.7h-3.7c-0.1,1.4,0.5,2.1,1.8,2.1c0.5,0,1.1-0.1,1.6-0.3l0.1,0.8c-0.6,0.2-1.2,0.3-2,0.3
		c-1.7,0-2.6-0.9-2.6-2.9c0-1.6,0.9-3,2.6-3c1.6,0,2.2,1.1,2.2,2.3C228,390.2,228,390.5,228,390.7z M225.7,388.6
		c-0.7,0-1.2,0.5-1.4,1.4h2.6C227,389.1,226.5,388.6,225.7,388.6z"/>
	<path fill="#999999" d="M231.3,393.7c-1.2,0-1.5-0.5-1.5-1.7v-3.2h-1.2v-0.8h1.2v-1.8l1-0.3v2.1h1.6v0.8h-1.6v2.9
		c0,0.9,0.2,1.2,0.8,1.2c0.3,0,0.5-0.1,0.7-0.1l0.1,0.9C232.1,393.6,231.6,393.7,231.3,393.7z"/>
	<path fill="#999999" d="M237.9,393.7c-1.2,0-1.5-0.5-1.5-1.7v-3.2h-1.2v-0.8h1.2v-1.8l1-0.3v2.1h1.6v0.8h-1.6v2.9
		c0,0.9,0.2,1.2,0.8,1.2c0.3,0,0.5-0.1,0.7-0.1l0.1,0.9C238.7,393.6,238.3,393.7,237.9,393.7z"/>
	<path fill="#999999" d="M244.2,393.5v-3.6c0-0.8-0.2-1.2-1-1.2c-0.9,0-1.6,0.9-1.6,2.2v1.9c0.3,0,0.7,0.1,0.9,0.1v0.6h-2.9v-0.5
		c0.3-0.1,0.6-0.1,0.9-0.1v-6.7c-0.3-0.1-0.7-0.1-1-0.1v-0.6c0.6-0.1,1.3-0.1,2-0.1v2.7c0,0.4,0,0.8-0.1,1.1l0,0
		c0.3-0.8,1-1.2,2-1.2c1.2,0,1.7,0.8,1.7,1.8v3.2c0.3,0,0.7,0.1,0.9,0.1v0.6L244.2,393.5L244.2,393.5z"/>
	<path fill="#999999" d="M251.5,390.7h-3.7c-0.1,1.4,0.5,2.1,1.8,2.1c0.5,0,1.1-0.1,1.6-0.3l0.1,0.8c-0.6,0.2-1.2,0.3-2,0.3
		c-1.7,0-2.6-0.9-2.6-2.9c0-1.6,0.9-3,2.6-3c1.6,0,2.2,1.1,2.2,2.3C251.5,390.2,251.5,390.5,251.5,390.7z M249.2,388.6
		c-0.7,0-1.2,0.5-1.4,1.4h2.6C250.5,389.1,250,388.6,249.2,388.6z"/>
	<path fill="#999999" d="M256.3,388.9c-1.3-0.2-1.8,0.7-1.8,2.4v1.5c0.3,0,0.7,0.1,1,0.1v0.6h-3v-0.6c0.3-0.1,0.7-0.1,1-0.1v-4.1
		c-0.3-0.1-0.7-0.1-1-0.1V388c0.6-0.1,1.3-0.1,2-0.1c0,0.3-0.1,0.9-0.1,1.3l0,0c0.3-0.8,0.8-1.6,2-1.4L256.3,388.9z"/>
	<path fill="#999999" d="M261.7,390.7H258c-0.1,1.4,0.5,2.1,1.8,2.1c0.5,0,1.1-0.1,1.6-0.3l0.1,0.8c-0.6,0.2-1.2,0.3-2,0.3
		c-1.7,0-2.6-0.9-2.6-2.9c0-1.6,0.9-3,2.6-3c1.6,0,2.2,1.1,2.2,2.3C261.7,390.2,261.7,390.5,261.7,390.7z M259.4,388.6
		c-0.7,0-1.2,0.5-1.4,1.4h2.6C260.7,389.1,260.2,388.6,259.4,388.6z"/>
	<path fill="#999999" d="M264.1,393.7c-0.4,0-0.7-0.3-0.7-0.7c0-0.4,0.3-0.7,0.7-0.7c0.4,0,0.7,0.3,0.7,0.7
		C264.9,393.3,264.5,393.7,264.1,393.7z M264.6,391.6h-0.9l-0.2-6h1.2L264.6,391.6z"/>
</g>
<line fill="none" stroke="#000000" stroke-width="1.3" stroke-dasharray="20,5" x1="228.4" y1="457.3" x2="368.8" y2="457.3"/>
<line fill="none" stroke="#000000" stroke-width="1.3" stroke-dasharray="20,5" x1="366.2" y1="317.6" x2="366.2" y2="456.4"/>
<circle cx="366.3" cy="317.9" r="3.6"/>
<g enable-background="new    ">
	<path d="M385.2,377.5l-2.5,6.9h-1.2l-2.4-6.9c-0.2,0-0.5-0.1-0.7-0.1v-0.6h2.8v0.6c-0.3,0.1-0.6,0.1-0.9,0.1l1.4,4.1
		c0.1,0.5,0.3,1.1,0.5,1.6l0,0c0.1-0.5,0.3-1.1,0.5-1.6l1.4-4.1c-0.3,0-0.6-0.1-0.9-0.1v-0.6h2.6v0.6
		C385.6,377.4,385.4,377.5,385.2,377.5z"/>
	<path d="M390.3,381.6h-3.7c-0.1,1.4,0.5,2.1,1.8,2.1c0.5,0,1.1-0.1,1.6-0.3l0.1,0.8c-0.6,0.2-1.2,0.3-2,0.3c-1.7,0-2.6-0.9-2.6-2.9
		c0-1.6,0.9-3,2.6-3c1.6,0,2.2,1.1,2.2,2.3C390.3,381.1,390.3,381.3,390.3,381.6z M388,379.4c-0.7,0-1.2,0.5-1.4,1.4h2.6
		C389.3,380,388.8,379.4,388,379.4z"/>
	<path d="M395,379.7c-1.3-0.2-1.8,0.7-1.8,2.4v1.5c0.3,0,0.7,0.1,1,0.1v0.6h-3v-0.6c0.3-0.1,0.7-0.1,1-0.1v-4.1
		c-0.3-0.1-0.7-0.1-1-0.1v-0.6c0.6-0.1,1.3-0.1,2-0.1c0,0.3-0.1,0.9-0.1,1.3l0,0c0.3-0.8,0.8-1.6,2-1.4L395,379.7z"/>
	<path d="M398.1,384.5c-1.2,0-1.5-0.5-1.5-1.7v-3.2h-1.2v-0.8h1.2v-1.8l1-0.3v2.1h1.6v0.8h-1.6v2.9c0,0.9,0.2,1.2,0.8,1.2
		c0.3,0,0.5-0.1,0.7-0.1l0.1,0.9C398.9,384.4,398.4,384.5,398.1,384.5z"/>
	<path d="M399.8,384.4v-0.7c0.3-0.1,0.7-0.1,1-0.1v-4.1c-0.3-0.1-0.7-0.1-1-0.1v-0.6c0.6-0.1,1.3-0.1,2-0.1v4.9
		c0.3,0,0.7,0.1,0.9,0.1v0.6L399.8,384.4L399.8,384.4z M401.4,377.6c-0.4,0-0.7-0.3-0.7-0.7c0-0.4,0.3-0.7,0.7-0.7
		c0.4,0,0.7,0.3,0.7,0.7C402.1,377.4,401.7,377.6,401.4,377.6z"/>
	<path d="M406,384.5c-1.4,0-2.6-0.7-2.6-2.7c0-1.8,0.9-3.1,2.8-3.1c0.5,0,1,0.1,1.4,0.2v1.6H407c-0.1-0.3-0.1-0.7-0.1-0.9
		c-0.2-0.1-0.5-0.1-0.8-0.1c-1,0-1.6,0.9-1.6,2.1c0,1.1,0.4,2,1.7,2c0.5,0,1-0.1,1.3-0.3l0.2,0.9C407.3,384.3,406.7,384.5,406,384.5
		z"/>
	<path d="M412,384.4c0-0.4,0-0.8,0.1-1.1l0,0c-0.3,0.7-1,1.2-1.9,1.2c-0.9,0-1.6-0.6-1.6-1.5c0-1.2,1.2-1.9,3.4-1.9v-0.4
		c0-0.8-0.3-1.2-1.2-1.2c-0.3,0-0.7,0.1-1.1,0.1c0,0.3-0.1,0.6-0.1,0.9h-0.7V379c0.6-0.2,1.2-0.3,1.9-0.3c1.6,0,2.1,0.8,2.1,1.9v3
		c0.3,0.1,0.7,0.1,0.9,0.1v0.6C413.4,384.4,412.6,384.4,412,384.4z M411.9,381.8c-1.8,0-2.4,0.5-2.4,1.1c0,0.5,0.3,0.9,0.9,0.9
		c0.9,0,1.5-0.9,1.5-1.8L411.9,381.8L411.9,381.8z"/>
	<path d="M414.3,384.4v-0.7c0.3-0.1,0.6-0.1,0.9-0.1v-6.7c-0.3-0.1-0.7-0.1-1-0.1v-0.6c0.6-0.1,1.3-0.1,2-0.1v7.5
		c0.3,0,0.7,0.1,0.9,0.1v0.6L414.3,384.4L414.3,384.4z"/>
</g>
<g enable-background="new    ">
	<path d="M387,398.1c-0.6,0-1.2-0.1-1.6-0.2V396h0.7c0.1,0.4,0.1,0.7,0.1,1c0.3,0.1,0.5,0.1,0.9,0.1c0.9,0,1.6-0.4,1.6-1.3
		c0-1.7-3.5-1.1-3.5-3.5c0-1.2,1-2.2,2.7-2.2c0.5,0,1,0.1,1.4,0.1v1.8h-0.7c-0.1-0.3-0.1-0.7-0.1-1c-0.2-0.1-0.5-0.1-0.7-0.1
		c-1,0-1.5,0.5-1.5,1.2c0,1.6,3.5,1.1,3.5,3.4C389.8,397.1,388.7,398.1,387,398.1z"/>
	<path d="M393.1,398.1c-1.2,0-1.5-0.5-1.5-1.7v-3.2h-1.2v-0.8h1.2v-1.8l1-0.3v2.1h1.6v0.8h-1.6v2.9c0,0.9,0.2,1.2,0.8,1.2
		c0.3,0,0.5-0.1,0.7-0.1l0.1,0.9C393.9,398,393.5,398.1,393.1,398.1z"/>
	<path d="M399.8,395.1h-3.7c-0.1,1.4,0.5,2.1,1.8,2.1c0.5,0,1.1-0.1,1.6-0.3l0.1,0.8c-0.6,0.2-1.2,0.3-2,0.3c-1.7,0-2.6-0.9-2.6-2.9
		c0-1.6,0.9-3,2.6-3c1.6,0,2.2,1.1,2.2,2.3C399.8,394.7,399.8,394.9,399.8,395.1z M397.5,393c-0.7,0-1.2,0.5-1.4,1.4h2.6
		C398.8,393.5,398.3,393,397.5,393z"/>
	<path d="M403.5,398c-0.4,0-0.6,0-1-0.1v2c0.3,0,0.7,0.1,1,0.1v0.6h-3v-0.6c0.3-0.1,0.6-0.1,0.9-0.1v-6.8c-0.3-0.1-0.6-0.1-0.9-0.1
		v-0.6c0.5-0.1,1.3-0.1,1.9-0.1c0,0.3-0.1,0.9-0.1,1.1l0,0c0.3-0.8,1-1.2,1.9-1.2c1.3,0,2,0.9,2,2.6
		C406.4,396.9,405.3,398,403.5,398z M404,393.1c-1,0-1.5,1.2-1.5,2.2v1.8c0.3,0.1,0.6,0.1,1,0.1c1.1,0,1.8-0.7,1.8-2.2
		C405.3,393.7,404.9,393.1,404,393.1z"/>
	<path d="M408.8,398.1c-0.5,0-0.9-0.1-1.3-0.1v-1.6h0.6c0.1,0.3,0.1,0.6,0.1,0.9c0.2,0.1,0.5,0.1,0.7,0.1c0.8,0,1.2-0.3,1.2-0.9
		c0-1.2-2.8-0.5-2.8-2.5c0-1,0.8-1.7,2.2-1.7c0.4,0,0.9,0.1,1.3,0.1v1.5h-0.6c-0.1-0.3-0.1-0.6-0.1-0.9c-0.2-0.1-0.4-0.1-0.7-0.1
		c-0.8,0-1.1,0.3-1.1,0.9c0,1.2,2.8,0.6,2.8,2.4C411.2,397.3,410.4,398.1,408.8,398.1z"/>
</g>
<g enable-background="new    ">
	<path d="M274.4,478.7v-0.6c0.3-0.1,0.6-0.1,0.9-0.1v-2.8h-3.9v2.8c0.3,0,0.7,0.1,0.9,0.1v0.6h-3v-0.6c0.3-0.1,0.7-0.1,1-0.1v-6.1
		c-0.3,0-0.7-0.1-1-0.1v-0.6h3v0.6c-0.3,0.1-0.6,0.1-0.9,0.1v2.5h3.9v-2.5c-0.3,0-0.7-0.1-0.9-0.1v-0.6h2.9v0.6
		c-0.3,0.1-0.7,0.1-1,0.1v6.1c0.3,0,0.7,0.1,1,0.1v0.6H274.4z"/>
	<path d="M280.6,478.8c-1.5,0-2.5-0.9-2.5-2.8c0-1.7,1.1-3,2.8-3c1.4,0,2.5,0.8,2.5,2.8C283.4,477.5,282.4,478.8,280.6,478.8z
		 M280.8,473.8c-0.9,0-1.6,0.6-1.6,2c0,1.3,0.5,2,1.6,2c0.9,0,1.6-0.7,1.6-2C282.4,474.5,281.8,473.8,280.8,473.8z"/>
	<path d="M288.1,473.9c-1.3-0.2-1.8,0.7-1.8,2.4v1.5c0.3,0,0.7,0.1,1,0.1v0.6h-3V478c0.3-0.1,0.7-0.1,1-0.1v-4.1
		c-0.3-0.1-0.7-0.1-1-0.1v-0.5c0.6-0.1,1.3-0.1,2-0.1c0,0.3-0.1,0.9-0.1,1.3l0,0c0.3-0.8,0.8-1.6,2-1.4L288.1,473.9z"/>
	<path d="M288.7,478.7v-0.6c0.3-0.1,0.7-0.1,1-0.1v-4.1c-0.3-0.1-0.7-0.1-1-0.1v-0.6c0.6-0.1,1.3-0.1,2-0.1v4.9
		c0.3,0,0.7,0.1,0.9,0.1v0.6L288.7,478.7L288.7,478.7z M290.2,472c-0.4,0-0.7-0.3-0.7-0.7c0-0.4,0.3-0.7,0.7-0.7
		c0.4,0,0.7,0.3,0.7,0.7C290.8,471.6,290.6,472,290.2,472z"/>
	<path d="M292.3,478.7v-0.7l2.9-4.1c-0.3,0-0.9,0-1.4,0h-0.7c-0.1,0.3-0.1,0.5-0.1,0.9h-0.7v-1.6h3.9v0.7l-2.8,4.1
		c0.3,0,0.9,0,1.4,0h0.7c0.1-0.3,0.1-0.6,0.1-0.9h0.7v1.7L292.3,478.7L292.3,478.7z"/>
	<path d="M299.8,478.8c-1.5,0-2.5-0.9-2.5-2.8c0-1.7,1.1-3,2.8-3c1.4,0,2.5,0.8,2.5,2.8C302.6,477.5,301.6,478.8,299.8,478.8z
		 M300,473.8c-0.9,0-1.6,0.6-1.6,2c0,1.3,0.5,2,1.6,2c0.9,0,1.6-0.7,1.6-2C301.6,474.5,301,473.8,300,473.8z"/>
	<path d="M307.9,478.7v-3.6c0-0.8-0.2-1.2-0.9-1.2c-0.9,0-1.6,0.9-1.6,2.2v1.9c0.3,0,0.7,0.1,0.9,0.1v0.6h-2.9V478
		c0.3-0.1,0.7-0.1,1-0.1v-4.1c-0.3-0.1-0.7-0.1-1-0.1v-0.5c0.6-0.1,1.3-0.1,2-0.1c0,0.3,0,0.9-0.1,1.2l0,0c0.3-0.8,1.1-1.3,2-1.3
		c1.2,0,1.7,0.8,1.7,1.8v3.2c0.3,0,0.7,0.1,0.9,0.1v0.6L307.9,478.7L307.9,478.7z"/>
	<path d="M312.7,478.7c-1.2,0-1.5-0.5-1.5-1.7v-3.2H310V473h1.2v-1.8l1-0.3v2.1h1.6v0.8h-1.6v2.9c0,0.9,0.2,1.2,0.8,1.2
		c0.3,0,0.5-0.1,0.7-0.1l0.1,0.9C313.5,478.7,313.1,478.7,312.7,478.7z"/>
	<path d="M318.1,478.7c0-0.4,0-0.8,0.1-1.1l0,0c-0.3,0.7-1,1.2-1.9,1.2c-0.9,0-1.6-0.6-1.6-1.5c0-1.2,1.2-1.9,3.4-1.9V475
		c0-0.8-0.3-1.2-1.2-1.2c-0.3,0-0.7,0.1-1.1,0.1c0,0.3-0.1,0.6-0.1,0.9H315v-1.5c0.6-0.2,1.2-0.3,1.9-0.3c1.6,0,2.1,0.8,2.1,1.9v3
		c0.3,0.1,0.7,0.1,0.9,0.1v0.6C319.5,478.7,318.7,478.7,318.1,478.7z M318.1,476.1c-1.8,0-2.4,0.5-2.4,1.1c0,0.5,0.3,0.9,0.9,0.9
		c0.9,0,1.5-0.9,1.5-1.8L318.1,476.1L318.1,476.1z"/>
	<path d="M320.4,478.7v-0.6c0.3-0.1,0.6-0.1,0.9-0.1v-6.7c-0.3-0.1-0.7-0.1-1-0.1v-0.6c0.6-0.1,1.3-0.1,2-0.1v7.5
		c0.3,0,0.7,0.1,0.9,0.1v0.6L320.4,478.7L320.4,478.7z"/>
</g>
<g enable-background="new    ">
	<path d="M285.1,492.3c-0.6,0-1.2-0.1-1.6-0.2v-1.8h0.7c0.1,0.4,0.1,0.7,0.1,1c0.3,0.1,0.5,0.1,0.9,0.1c0.9,0,1.6-0.4,1.6-1.3
		c0-1.7-3.5-1.1-3.5-3.5c0-1.2,1-2.2,2.7-2.2c0.5,0,1,0.1,1.4,0.1v1.8h-0.7c-0.1-0.3-0.1-0.7-0.1-1c-0.2-0.1-0.5-0.1-0.7-0.1
		c-1,0-1.5,0.5-1.5,1.2c0,1.6,3.5,1.1,3.5,3.4C287.9,491.4,286.9,492.3,285.1,492.3z"/>
	<path d="M291.2,492.3c-1.2,0-1.5-0.5-1.5-1.7v-3.2h-1.2v-0.8h1.2v-1.8l1-0.3v2.1h1.6v0.8h-1.6v2.9c0,0.9,0.2,1.2,0.8,1.2
		c0.3,0,0.5-0.1,0.7-0.1l0.1,0.9C292,492.3,291.6,492.3,291.2,492.3z"/>
	<path d="M297.9,489.5h-3.7c-0.1,1.4,0.5,2.1,1.8,2.1c0.5,0,1.1-0.1,1.6-0.3l0.1,0.8c-0.6,0.2-1.2,0.3-2,0.3c-1.7,0-2.6-0.9-2.6-2.9
		c0-1.6,0.9-3,2.6-3c1.6,0,2.2,1.1,2.2,2.3C297.9,489,297.9,489.2,297.9,489.5z M295.6,487.3c-0.7,0-1.2,0.5-1.4,1.4h2.6
		C297,487.9,296.4,487.3,295.6,487.3z"/>
	<path d="M301.6,492.3c-0.4,0-0.6,0-1-0.1v2c0.3,0,0.7,0.1,1,0.1v0.6h-3v-0.6c0.3-0.1,0.6-0.1,0.9-0.1v-6.8
		c-0.3-0.1-0.6-0.1-0.9-0.1v-0.6c0.5-0.1,1.3-0.1,1.9-0.1c0,0.3-0.1,0.9-0.1,1.1l0,0c0.3-0.8,1-1.2,1.9-1.2c1.3,0,2,0.9,2,2.6
		C304.5,491.2,303.4,492.3,301.6,492.3z M302.2,487.4c-1,0-1.5,1.2-1.5,2.2v1.8c0.3,0.1,0.6,0.1,1,0.1c1.1,0,1.8-0.7,1.8-2.2
		C303.5,488.1,303.1,487.4,302.2,487.4z"/>
	<path d="M306.9,492.3c-0.5,0-0.9-0.1-1.3-0.1v-1.6h0.6c0.1,0.3,0.1,0.6,0.1,0.9c0.2,0.1,0.5,0.1,0.7,0.1c0.8,0,1.2-0.3,1.2-0.9
		c0-1.2-2.8-0.5-2.8-2.5c0-1,0.8-1.7,2.2-1.7c0.4,0,0.9,0.1,1.3,0.1v1.5h-0.6c-0.1-0.3-0.1-0.6-0.1-0.9c-0.2-0.1-0.4-0.1-0.7-0.1
		c-0.8,0-1.1,0.3-1.1,0.9c0,1.2,2.8,0.6,2.8,2.4C309.4,491.6,308.5,492.3,306.9,492.3z"/>
</g>
<polyline fill="none" stroke="#999999" stroke-width="1.3" points="355.1,320.4 360.5,320.4 360.5,325.9 "/>
</svg>
