<?xml version="1.0" encoding="utf-8"?>
<!-- Generator: Adobe Illustrator 18.0.0, SVG Export Plug-In . SVG Version: 6.00 Build 0)  -->
<!DOCTYPE svg PUBLIC "-//W3C//DTD SVG 1.1//EN" "http://www.w3.org/Graphics/SVG/1.1/DTD/svg11.dtd">
<svg version="1.1" id="Layer_1" xmlns="http://www.w3.org/2000/svg" xmlns:xlink="http://www.w3.org/1999/xlink" x="0px" y="0px"
	 viewBox="-16.5 314.5 645 163" enable-background="new -16.5 314.5 645 163" xml:space="preserve">
<g enable-background="new    ">
	<path d="M184.7,396.5c-0.7,0-1.5-0.1-2.2-0.3l0.3-1.4c0.6,0.2,1.3,0.3,2.1,0.3c1.8,0,3-1,3-2.3s-1-2.1-2.8-2.1
		c-0.6,0-1.1,0-1.5,0.1v-1.3h0.4c2.5,0,3.7-0.7,3.7-2.1c0-1.1-0.8-1.7-2.1-1.7c-0.9,0-1.7,0.3-2.4,0.7l-0.3-1.3
		c0.9-0.4,1.8-0.6,3-0.6c2.3,0,3.5,1.1,3.5,2.8c0,1.3-0.8,2.3-2.1,2.7l0,0c1.4,0.2,2.5,1.4,2.5,2.8
		C189.6,394.9,187.6,396.5,184.7,396.5z"/>
</g>
<g enable-background="new    ">
	<path d="M248.9,453.6v2.9h-1.5v-2.9h-5.3l-0.1-1.3l4.8-7.6h2.2v7.5h2v1.4L248.9,453.6L248.9,453.6z M247.3,446.2L247.3,446.2
		l-3.9,6.1c1,0,3.2,0,3.9,0V446.2z"/>
</g>
<line fill="none" stroke="#999999" stroke-width="1.3" x1="211.8" y1="363" x2="284" y2="421.7"/>
<line fill="none" stroke="#000000" stroke-width="1.3" stroke-dasharray="20,5" x1="199.8" y1="430.1" x2="295" y2="430.1"/>
<line fill="none" stroke="#000000" stroke-width="1.3" stroke-dasharray="20,5" x1="200.2" y1="358.1" x2="200.2" y2="429.5"/>
<polyline fill="none" stroke="#999999" stroke-width="1.3" points="284.1,413.7 284,422.1 275.6,422.1 "/>
<g enable-background="new    ">
	<path fill="#999999" d="M237.7,407.1l-2.7,7.4h-1.9l-2.7-7.4c-0.4,0-0.8-0.1-1.1-0.2V406h4v0.9c-0.4,0.1-0.8,0.2-1.2,0.2l1.4,4.2
		c0.2,0.6,0.4,1.1,0.5,1.7l0,0c0.2-0.6,0.3-1.1,0.5-1.6l1.5-4.2c-0.4,0-0.8-0.1-1.2-0.2v-0.9h3.9v0.9
		C238.5,407,238.1,407,237.7,407.1z"/>
</g>
<polyline fill="#FFFFFF" stroke="#999999" stroke-width="1.3" points="238.1,394 242.3,398.2 238.1,402.4 "/>
<line fill="none" stroke="#999999" stroke-width="1.3" x1="242.3" y1="398.2" x2="226.4" y2="398.2"/>
<circle cx="296.6" cy="429.4" r="5.5"/>
<circle cx="201.2" cy="354.9" r="5.5"/>
<g enable-background="new    ">
	<path d="M292.8,365.7v-0.9c0.4-0.1,0.9-0.2,1.4-0.2v-4.2h-5.9v4.2c0.5,0,1,0.1,1.4,0.2v0.9h-4.5v-0.9c0.4-0.1,1-0.2,1.5-0.2v-9.3
		c-0.5,0-1-0.1-1.5-0.2v-0.9h4.5v0.9c-0.4,0.1-0.9,0.2-1.4,0.2v3.8h5.9v-3.8c-0.5,0-1-0.1-1.4-0.2v-0.9h4.4v0.9
		c-0.4,0.1-1,0.2-1.5,0.2v9.3c0.5,0,1.1,0.1,1.5,0.2v0.9L292.8,365.7L292.8,365.7z"/>
	<path d="M302.3,365.9c-2.3,0-3.8-1.3-3.8-4.3c0-2.6,1.6-4.6,4.2-4.6c2.2,0,3.8,1.2,3.8,4.3C306.5,363.9,304.9,365.9,302.3,365.9z
		 M302.5,358.4c-1.3,0-2.4,0.9-2.4,3.2c0,2,0.8,3.1,2.4,3.1c1.3,0,2.4-1,2.4-3.1C304.9,359.4,304.1,358.4,302.5,358.4z"/>
	<path d="M320.4,358.4l-2.3,7.4h-1.8l-1.7-5c-0.2-0.5-0.3-1.1-0.5-1.7l0,0c-0.2,0.8-0.4,1.4-0.6,2.2l-1.4,4.6h-1.8l-2.2-7.4
		c-0.4,0-0.8-0.1-1.1-0.2v-0.9h3.9v0.9c-0.4,0.1-0.8,0.2-1.2,0.2l1.1,3.8c0.2,0.7,0.4,1.4,0.5,1.9l0,0c0.2-0.7,0.4-1.4,0.6-2.1
		l1.5-4.8h1.6l1.5,4.8c0.3,1,0.5,1.5,0.6,2.1l0,0c0.2-0.6,0.3-1.1,0.5-1.9l1.1-3.9c-0.4,0-0.8-0.1-1.2-0.2v-0.9h3.8v0.9
		C321.1,358.2,320.7,358.4,320.4,358.4z"/>
	<path d="M325.6,365.7v-0.9c0.4-0.1,0.9-0.2,1.4-0.2v-10.2c-0.4-0.1-1-0.1-1.5-0.2v-0.9c0.9-0.1,2-0.2,3-0.1v11.4
		c0.5,0,1,0.1,1.4,0.2v0.9L325.6,365.7L325.6,365.7z"/>
	<path d="M334.8,365.9c-2.3,0-3.8-1.3-3.8-4.3c0-2.6,1.6-4.6,4.2-4.6c2.2,0,3.8,1.2,3.8,4.3C339,363.9,337.4,365.9,334.8,365.9z
		 M335,358.4c-1.3,0-2.4,0.9-2.4,3.2c0,2,0.8,3.1,2.4,3.1c1.3,0,2.4-1,2.4-3.1C337.4,359.4,336.5,358.4,335,358.4z"/>
	<path d="M347.1,365.7v-5.5c0-1.2-0.3-1.9-1.4-1.9c-1.4,0-2.4,1.4-2.4,3.3v2.9c0.5,0,1,0.1,1.4,0.2v0.9h-4.4v-0.9
		c0.4-0.1,1-0.2,1.5-0.2v-6.1c-0.4-0.1-1-0.1-1.5-0.2v-0.9c0.9-0.1,2-0.2,3-0.1c0,0.5,0,1.3-0.1,1.8l0,0c0.5-1.2,1.6-2,3-2
		c1.9,0,2.6,1.2,2.6,2.7v4.8c0.5,0,1,0.1,1.4,0.2v0.9L347.1,365.7L347.1,365.7z"/>
	<path d="M354.7,370.1c-2.2,0-3.6-0.9-3.6-2.6c0-1,0.7-1.8,1.4-2.3c-0.5-0.2-0.8-0.7-0.8-1.3s0.4-1.2,0.9-1.4
		c-0.8-0.5-1.3-1.2-1.3-2.4c0-1.7,1.3-3.2,3.6-3.2c0.5,0,0.8,0.1,1.2,0.2h2.9v1.2h-1.4c0.4,0.3,0.7,0.9,0.7,1.6
		c0,1.8-1.2,3.1-3.6,3.1c-0.3,0-0.6,0-0.9-0.1c-0.4,0.2-0.6,0.4-0.6,0.7c0,0.5,0.4,0.6,1.5,0.7l1.6,0.1c1.8,0.1,2.9,0.9,2.9,2.5
		C359.2,368.7,357.4,370.1,354.7,370.1z M355.9,365.7l-1.7-0.1c-0.2,0-0.4,0-0.5,0c-0.7,0.5-1.1,1-1.1,1.7c0,1,1,1.6,2.3,1.6
		c1.7,0,2.7-0.8,2.7-1.8C357.7,366.2,357.1,365.7,355.9,365.7z M354.9,358.2c-1.3,0-2,0.8-2,1.9c0,1.2,0.7,1.9,2,1.9
		c1.2,0,2-0.7,2-1.9S356.2,358.2,354.9,358.2z"/>
	<path d="M364,365.7v-0.9c0.4-0.1,1-0.2,1.5-0.2v-6.2c-0.4-0.1-1-0.1-1.5-0.2v-0.9c0.9-0.1,2-0.2,3-0.1v7.4c0.5,0,1,0.1,1.4,0.2v0.9
		L364,365.7L364,365.7z M366.3,355.5c-0.6,0-1-0.4-1-1s0.5-1,1-1c0.6,0,1,0.4,1,1C367.3,355,366.8,355.5,366.3,355.5z"/>
	<path d="M371.8,365.9c-0.7,0-1.4-0.1-2-0.2v-2.4h0.9c0.1,0.4,0.2,0.9,0.2,1.4c0.3,0.1,0.7,0.1,1,0.1c1.2,0,1.9-0.5,1.9-1.3
		c0-1.9-4.3-0.8-4.3-3.8c0-1.5,1.2-2.6,3.4-2.6c0.6,0,1.3,0.1,2,0.2v2.3H374c-0.1-0.4-0.2-0.9-0.2-1.3c-0.3-0.1-0.6-0.1-1-0.1
		c-1.2,0-1.7,0.5-1.7,1.3c0,1.9,4.3,0.9,4.3,3.7C375.4,364.7,374.1,365.9,371.8,365.9z"/>
	<path d="M384.1,365.9c-1.8,0-2.3-0.7-2.3-2.6v-4.9H380v-1.2h1.8v-2.8l1.5-0.4v3.2h2.4v1.2h-2.4v4.4c0,1.4,0.3,1.8,1.2,1.8
		c0.4,0,0.8-0.1,1.1-0.1l0.2,1.3C385.3,365.9,384.7,365.9,384.1,365.9z"/>
	<path d="M393.6,365.7v-5.5c0-1.2-0.3-1.9-1.5-1.9c-1.4,0-2.4,1.4-2.4,3.3v2.9c0.5,0,1,0.1,1.4,0.2v0.9h-4.4v-0.9
		c0.4-0.1,0.9-0.2,1.4-0.2v-10.1c-0.4-0.1-1-0.1-1.5-0.2v-0.9c0.9-0.1,2-0.2,3-0.1v4.1c0,0.6,0,1.2-0.2,1.7l0,0
		c0.5-1.2,1.5-1.9,3-1.9c1.9,0,2.6,1.2,2.6,2.7v4.8c0.5,0,1,0.1,1.4,0.2v0.9H393.6z"/>
	<path d="M404.8,361.4h-5.6c-0.1,2.2,0.8,3.2,2.7,3.2c0.8,0,1.7-0.2,2.4-0.5l0.2,1.2c-0.9,0.3-1.9,0.5-3,0.5c-2.6,0-4-1.4-4-4.4
		c0-2.5,1.4-4.5,3.9-4.5c2.4,0,3.4,1.6,3.4,3.5C404.8,360.7,404.8,361.1,404.8,361.4z M401.4,358.2c-1.1,0-1.9,0.8-2.1,2.1h4
		C403.3,359,402.6,358.2,401.4,358.2z"/>
	<path d="M417.8,358.4l-2.7,7.4h-1.9l-2.7-7.4c-0.4,0-0.8-0.1-1.1-0.2v-0.9h4v0.9c-0.4,0.1-0.8,0.2-1.2,0.2l1.4,4.2
		c0.2,0.6,0.4,1.1,0.5,1.7l0,0c0.2-0.6,0.3-1.1,0.5-1.6l1.5-4.2c-0.4,0-0.8-0.1-1.2-0.2v-0.9h3.9v0.9
		C418.6,358.2,418.2,358.4,417.8,358.4z"/>
	<path d="M426.6,361.4H421c-0.1,2.2,0.8,3.2,2.7,3.2c0.8,0,1.7-0.2,2.4-0.5l0.2,1.2c-0.9,0.3-1.9,0.5-3,0.5c-2.6,0-4-1.4-4-4.4
		c0-2.5,1.4-4.5,3.9-4.5c2.4,0,3.4,1.6,3.4,3.5C426.6,360.7,426.6,361.1,426.6,361.4z M423.1,358.2c-1.1,0-1.9,0.8-2.1,2.1h4
		C425.1,359,424.3,358.2,423.1,358.2z"/>
	<path d="M432,365.9c-2.1,0-3.9-1-3.9-4.1c0-2.8,1.4-4.7,4.3-4.7c0.7,0,1.5,0.1,2.1,0.3v2.5h-1c-0.1-0.5-0.2-1-0.2-1.4
		c-0.3-0.1-0.7-0.1-1.2-0.1c-1.5,0-2.4,1.3-2.4,3.2c0,1.7,0.6,3,2.6,3c0.7,0,1.5-0.2,2-0.4l0.3,1.3C434,365.6,433,365.9,432,365.9z"
		/>
	<path d="M439.2,365.9c-1.8,0-2.3-0.7-2.3-2.6v-4.9h-1.8v-1.2h1.8v-2.8l1.5-0.4v3.2h2.4v1.2h-2.4v4.4c0,1.4,0.3,1.8,1.2,1.8
		c0.4,0,0.8-0.1,1.1-0.1l0.2,1.3C440.4,365.9,439.7,365.9,439.2,365.9z"/>
	<path d="M446,365.9c-2.3,0-3.8-1.3-3.8-4.3c0-2.6,1.6-4.6,4.2-4.6c2.2,0,3.8,1.2,3.8,4.3C450.2,363.9,448.6,365.9,446,365.9z
		 M446.2,358.4c-1.3,0-2.4,0.9-2.4,3.2c0,2,0.8,3.1,2.4,3.1c1.3,0,2.4-1,2.4-3.1C448.6,359.4,447.8,358.4,446.2,358.4z"/>
	<path d="M457.3,358.6c-2-0.3-2.8,1-2.8,3.7v2.3c0.5,0,1,0.1,1.5,0.2v0.9h-4.5v-0.9c0.4-0.1,1-0.2,1.5-0.2v-6.2
		c-0.4-0.1-1-0.1-1.5-0.2v-0.9c0.9-0.1,2-0.2,3-0.1c0,0.5-0.1,1.3-0.2,2l0,0c0.4-1.2,1.2-2.4,3.1-2.2L457.3,358.6z"/>
	<path d="M461.7,362.9h-1.5c-1.1-3.4,2.4-3.8,2.4-5.8c0-1.1-1.3-2-3.5-2.1l0.2-1.4c3.2,0.1,5,1.6,5,3.3
		C464.3,359.7,460.7,359.7,461.7,362.9z M460.9,365.9c-0.6,0-1-0.4-1-1s0.4-1,1-1s1,0.4,1,1C462,365.4,461.5,365.9,460.9,365.9z"/>
</g>
<path fill="none" stroke="#808080" stroke-width="2" d="M208.9,362.2"/>
<polyline fill="none" stroke="#999999" stroke-width="1.3" stroke-dasharray="4,4" points="206.9,343.5 213.6,335.4 312.9,416 
	306.2,424.2 "/>
</svg>
