<?xml version="1.0" encoding="utf-8"?>
<!-- Generator: Adobe Illustrator 18.0.0, SVG Export Plug-In . SVG Version: 6.00 Build 0)  -->
<!DOCTYPE svg PUBLIC "-//W3C//DTD SVG 1.1//EN" "http://www.w3.org/Graphics/SVG/1.1/DTD/svg11.dtd">
<svg version="1.1" id="Layer_1" xmlns="http://www.w3.org/2000/svg" xmlns:xlink="http://www.w3.org/1999/xlink" x="0px" y="0px"
	 viewBox="-16.5 299.5 645 193" enable-background="new -16.5 299.5 645 193" xml:space="preserve">
<line fill="none" stroke="#999999" stroke-width="1.3" x1="163.5" y1="432.9" x2="365.8" y2="359.6"/>
<polyline fill="none" stroke="#999999" stroke-width="1.3" points="357.8,356.2 365.5,359.7 362,367.4 "/>
<circle cx="153.3" cy="435.9" r="5.5"/>
<circle cx="375.5" cy="356.4" r="5.5"/>
<g enable-background="new    ">
	<path d="M301.8,340.7c-2-3.2-2.5-6-2.5-8.5s0.6-5.5,2.5-8.6l1.1,0.5c-1.4,2.4-2.1,5.1-2.1,7.9c0,2.9,0.7,5.6,2.2,8L301.8,340.7z"/>
	<path d="M315.9,337.1v-5.5c0-1.2-0.3-1.9-1.4-1.9c-1.2,0-2.4,1.3-2.4,3.4v2.9c0.5,0,1,0.1,1.4,0.2v0.9h-2.9v-5.5
		c0-1.1-0.2-1.9-1.4-1.9c-1.3,0-2.4,1.4-2.4,3.4v2.9c0.5,0,1,0.1,1.4,0.2v0.9h-4.4v-0.9c0.4-0.1,1-0.2,1.5-0.2v-6.2
		c-0.4-0.1-1-0.1-1.5-0.2v-0.9c0.9-0.1,2.1-0.2,3-0.1c0,0.5-0.1,1.3-0.1,1.8l0,0c0.5-1.2,1.6-2,3-2c1.8,0,2.3,1.2,2.4,1.9
		c0.3-0.8,1.3-1.9,2.9-1.9s2.5,0.9,2.5,2.8v4.8c0.5,0,1,0.1,1.4,0.2v0.9L315.9,337.1L315.9,337.1z"/>
	<path d="M323.8,337.4c-2.3,0-3.8-1.3-3.8-4.3c0-2.6,1.6-4.6,4.2-4.6c2.2,0,3.8,1.2,3.8,4.3C328,335.4,326.4,337.4,323.8,337.4z
		 M324,329.7c-1.3,0-2.4,0.9-2.4,3.1c0,2,0.8,3.1,2.4,3.1c1.3,0,2.4-1,2.4-3.1C326.4,330.9,325.5,329.7,324,329.7z"/>
	<path d="M335.9,337.1c0-0.5,0-1.3,0.1-1.8l0,0c-0.5,1.2-1.5,2-3,2c-2,0-2.6-1.2-2.6-2.7v-4.8c-0.4-0.1-1-0.1-1.4-0.2v-0.9
		c0.8-0.1,2-0.2,3-0.1v5.5c0,1.2,0.3,1.9,1.5,1.9c1.4,0,2.4-1.4,2.4-3.3v-2.9c-0.4-0.1-0.9-0.1-1.4-0.2v-0.9c0.8-0.1,2-0.2,2.9-0.1
		v7.3c0.4,0.1,1,0.1,1.4,0.2v0.9C338,337.1,336.9,337.1,335.9,337.1z"/>
	<path d="M342.2,337.4c-0.7,0-1.4-0.1-2-0.2v-2.4h0.9c0.1,0.4,0.2,0.9,0.2,1.4c0.3,0.1,0.7,0.1,1,0.1c1.2,0,1.9-0.5,1.9-1.3
		c0-1.9-4.3-0.8-4.3-3.8c0-1.5,1.2-2.6,3.4-2.6c0.6,0,1.3,0.1,2,0.2v2.3h-0.9c-0.1-0.4-0.2-0.9-0.2-1.3c-0.3-0.1-0.6-0.1-1-0.1
		c-1.2,0-1.7,0.5-1.7,1.3c0,1.9,4.3,0.9,4.3,3.7C345.8,336.1,344.4,337.4,342.2,337.4z"/>
	<path d="M354.6,332.9H349c-0.1,2.2,0.8,3.2,2.7,3.2c0.8,0,1.7-0.2,2.4-0.5l0.2,1.2c-0.9,0.3-1.9,0.5-3,0.5c-2.6,0-4-1.4-4-4.4
		c0-2.5,1.4-4.5,3.9-4.5c2.4,0,3.4,1.6,3.4,3.5C354.6,332.1,354.6,332.4,354.6,332.9z M351.1,329.6c-1.1,0-1.9,0.8-2.1,2.1h4
		C353.1,330.4,352.3,329.6,351.1,329.6z"/>
	<path d="M362.4,337.1v-0.9c0.4-0.1,0.8-0.2,1.2-0.2l-2.5-3.8l-2.5,3.8c0.4,0,0.9,0.1,1.2,0.2v0.9h-4.3v-0.9
		c0.4-0.1,0.8-0.2,1.2-0.2l3.4-4.8l-3.3-4.6c-0.4,0-0.8-0.1-1.2-0.2v-0.9h4.5v0.9c-0.4,0.1-0.8,0.2-1.3,0.2l2.3,3.4l2.3-3.4
		c-0.4,0-0.9-0.1-1.2-0.2v-0.9h4.3v0.9c-0.4,0.1-0.8,0.2-1.2,0.2l-3.2,4.5l3.5,4.9c0.4,0,0.8,0.1,1.2,0.2v0.9L362.4,337.1
		L362.4,337.1z"/>
	<path d="M368.1,339.7l-0.7-0.6c1.1-1.2,1.1-2,0.7-2.5c-0.5-0.6-0.1-1.5,0.7-1.5C370.2,335.2,370.8,337.4,368.1,339.7z"/>
	<path d="M383.6,337.1v-5.5c0-1.2-0.3-1.9-1.4-1.9c-1.2,0-2.4,1.3-2.4,3.4v2.9c0.5,0,1,0.1,1.4,0.2v0.9h-2.9v-5.5
		c0-1.1-0.2-1.9-1.4-1.9c-1.3,0-2.4,1.4-2.4,3.4v2.9c0.5,0,1,0.1,1.4,0.2v0.9h-4.4v-0.9c0.4-0.1,1-0.2,1.5-0.2v-6.2
		c-0.4-0.1-1-0.1-1.5-0.2v-0.9c0.9-0.1,2.1-0.2,3-0.1c0,0.5-0.1,1.3-0.1,1.8l0,0c0.5-1.2,1.6-2,3-2c1.8,0,2.3,1.2,2.4,1.9
		c0.3-0.8,1.3-1.9,2.9-1.9s2.5,0.9,2.5,2.8v4.8c0.5,0,1,0.1,1.4,0.2v0.9L383.6,337.1L383.6,337.1z"/>
	<path d="M391.5,337.4c-2.3,0-3.8-1.3-3.8-4.3c0-2.6,1.6-4.6,4.2-4.6c2.2,0,3.8,1.2,3.8,4.3C395.6,335.4,394.1,337.4,391.5,337.4z
		 M391.7,329.7c-1.3,0-2.4,0.9-2.4,3.1c0,2,0.8,3.1,2.4,3.1c1.3,0,2.4-1,2.4-3.1C394,330.9,393.2,329.7,391.7,329.7z"/>
	<path d="M403.6,337.1c0-0.5,0-1.3,0.1-1.8l0,0c-0.5,1.2-1.5,2-3,2c-2,0-2.6-1.2-2.6-2.7v-4.8c-0.4-0.1-1-0.1-1.4-0.2v-0.9
		c0.8-0.1,2-0.2,3-0.1v5.5c0,1.2,0.3,1.9,1.5,1.9c1.4,0,2.4-1.4,2.4-3.3v-2.9c-0.4-0.1-0.9-0.1-1.4-0.2v-0.9c0.8-0.1,2-0.2,2.9-0.1
		v7.3c0.4,0.1,1,0.1,1.4,0.2v0.9C405.7,337.1,404.5,337.1,403.6,337.1z"/>
	<path d="M409.8,337.4c-0.7,0-1.4-0.1-2-0.2v-2.4h0.9c0.1,0.4,0.2,0.9,0.2,1.4c0.3,0.1,0.7,0.1,1,0.1c1.2,0,1.9-0.5,1.9-1.3
		c0-1.9-4.3-0.8-4.3-3.8c0-1.5,1.2-2.6,3.4-2.6c0.6,0,1.3,0.1,2,0.2v2.3H412c-0.1-0.4-0.2-0.9-0.2-1.3c-0.3-0.1-0.6-0.1-1-0.1
		c-1.2,0-1.7,0.5-1.7,1.3c0,1.9,4.3,0.9,4.3,3.7C413.5,336.1,412.1,337.4,409.8,337.4z"/>
	<path d="M422.2,332.9h-5.6c-0.1,2.2,0.8,3.2,2.7,3.2c0.8,0,1.7-0.2,2.4-0.5l0.2,1.2c-0.9,0.3-1.9,0.5-3,0.5c-2.6,0-4-1.4-4-4.4
		c0-2.5,1.4-4.5,3.9-4.5c2.4,0,3.4,1.6,3.4,3.5C422.3,332.1,422.3,332.4,422.2,332.9z M418.8,329.6c-1.1,0-1.9,0.8-2.1,2.1h4
		C420.7,330.4,420,329.6,418.8,329.6z"/>
	<path d="M432.2,326.6l-3.2,6.4v3c0.5,0,1,0.1,1.5,0.2v0.9h-4.6v-0.9c0.4-0.1,1-0.2,1.5-0.2v-2.9l-3.2-6.4c-0.3,0-0.8-0.1-1-0.2
		v-0.9h4.1v0.9c-0.4,0.1-0.8,0.2-1.3,0.2l1.4,3c0.3,0.6,0.6,1.3,0.8,1.9l0,0c0.3-0.7,0.6-1.4,0.9-2l1.4-2.9c-0.4,0-0.9-0.1-1.3-0.2
		v-0.9h4v0.9C432.9,326.6,432.5,326.6,432.2,326.6z"/>
	<path d="M434.9,340.7l-1.1-0.6c1.4-2.4,2.1-5.1,2.1-7.9c0-2.9-0.7-5.6-2.2-8l1.2-0.6c2,3.2,2.5,5.9,2.5,8.5
		C437.4,334.6,436.9,337.6,434.9,340.7z"/>
</g>
<g enable-background="new    ">
	<path d="M110.5,422.1c-2-3.2-2.5-6-2.5-8.5s0.6-5.5,2.5-8.6l1.1,0.5c-1.4,2.4-2.1,5.1-2.1,7.9c0,2.9,0.7,5.6,2.2,8L110.5,422.1z"/>
	<path d="M118.5,418.4l-1.9-3.2l-1.9,3.2h-2.6v-0.9c0.5-0.1,1-0.2,1.5-0.2l2.1-3.1l-2-3.1c-0.5,0-1-0.1-1.4-0.2V410h2.6l1.8,3.1
		l1.9-3.1h2.5v0.9c-0.5,0.1-1,0.2-1.5,0.2l-1.9,3l2.1,3.2c0.5,0,0.9,0.1,1.4,0.2v0.9L118.5,418.4L118.5,418.4z"/>
	<path d="M122.5,421.1l-0.7-0.6c1.1-1.2,1.1-2,0.7-2.5c-0.5-0.6-0.1-1.5,0.7-1.5C124.6,416.4,125.1,418.6,122.5,421.1z"/>
	<path d="M133.7,411.1l-3,8.3c-0.9,2.6-1.8,3.5-3.7,3.5c-0.3,0-0.8,0-1.2-0.1l0.1-1.4c0.4,0.1,0.7,0.2,1.1,0.2
		c0.9,0,1.5-0.5,2.1-2.1l0.4-1h-0.4l-2.6-7.4c-0.4,0-0.8-0.1-1.1-0.2v-0.9h3.9v0.9c-0.3,0.1-0.7,0.2-1.1,0.2l1.3,3.7
		c0.3,0.8,0.5,1.4,0.7,2.1l0,0c0.1-0.6,0.5-1.6,0.8-2.5l1.2-3.3c-0.4,0-0.8-0.1-1.1-0.2v-0.9h3.8v0.9
		C134.5,410.9,134.1,410.9,133.7,411.1z"/>
	<path d="M136.5,422.1l-1.1-0.6c1.4-2.4,2.1-5.1,2.1-7.9c0-2.9-0.7-5.6-2.2-8l1.2-0.6c2,3.2,2.5,5.9,2.5,8.5
		C139,415.9,138.5,418.9,136.5,422.1z"/>
</g>
<g enable-background="new    ">
	<path d="M402.2,405.9c0-0.5,0-1.2,0.1-1.7l0,0c-0.5,1.2-1.5,1.9-2.9,1.9c-2.1,0-3.1-1.5-3.1-4c0-3,1.7-4.8,4.4-4.8
		c0.5,0,0.9,0,1.4,0.1v-2.8c-0.4-0.1-1-0.1-1.5-0.2v-0.9c0.9-0.1,2-0.2,3-0.1v11.3c0.4,0.1,1,0.1,1.4,0.2v0.9
		C404.4,405.9,403.2,406.1,402.2,405.9z M402.2,398.7c-0.5-0.1-1-0.2-1.5-0.2c-1.6,0-2.7,1-2.7,3.4c0,1.8,0.6,2.9,1.9,2.9
		c1.5,0,2.3-1.8,2.3-3.3L402.2,398.7L402.2,398.7z"/>
	<path d="M413.4,398.6l-3,8.3c-0.9,2.6-1.8,3.5-3.7,3.5c-0.3,0-0.8,0-1.2-0.1l0.1-1.4c0.4,0.1,0.7,0.2,1.1,0.2
		c0.9,0,1.5-0.5,2.1-2.1l0.4-1h-0.4l-2.6-7.4c-0.4,0-0.8-0.1-1.1-0.2v-0.9h3.9v0.9c-0.3,0.1-0.7,0.2-1.1,0.2l1.3,3.7
		c0.3,0.8,0.5,1.4,0.7,2.1l0,0c0.1-0.6,0.5-1.6,0.8-2.5l1.2-3.3c-0.4,0-0.8-0.1-1.1-0.2v-0.9h3.8v0.9
		C414.1,398.4,413.8,398.6,413.4,398.6z"/>
	<path d="M419.3,400.1v-1.3h7.5v1.3H419.3z M419.3,402.9v-1.3h7.5v1.3H419.3z"/>
	<path d="M444.2,405.9v-5.5c0-1.2-0.3-1.9-1.4-1.9c-1.2,0-2.4,1.3-2.4,3.4v2.9c0.5,0,1,0.1,1.4,0.2v0.9h-2.9v-5.5
		c0-1.1-0.2-1.9-1.4-1.9c-1.3,0-2.4,1.4-2.4,3.4v2.9c0.5,0,1,0.1,1.4,0.2v0.9h-4.4v-0.9c0.4-0.1,1-0.2,1.5-0.2v-6.2
		c-0.4-0.1-1-0.1-1.5-0.2v-0.9c0.9-0.1,2.1-0.2,3-0.1c0,0.5-0.1,1.3-0.1,1.8l0,0c0.5-1.2,1.6-2,3-2c1.8,0,2.3,1.2,2.4,1.9
		c0.3-0.8,1.3-1.9,2.9-1.9s2.5,0.9,2.5,2.8v4.8c0.5,0,1,0.1,1.4,0.2v0.9L444.2,405.9L444.2,405.9z"/>
	<path d="M452.1,406.1c-2.3,0-3.8-1.3-3.8-4.3c0-2.6,1.6-4.6,4.2-4.6c2.2,0,3.8,1.2,3.8,4.3C456.3,404.1,454.7,406.1,452.1,406.1z
		 M452.3,398.6c-1.3,0-2.4,0.9-2.4,3.1c0,2,0.8,3.1,2.4,3.1c1.3,0,2.4-1,2.4-3.1C454.7,399.7,453.8,398.6,452.3,398.6z"/>
	<path d="M464.2,405.9c0-0.5,0-1.3,0.1-1.8l0,0c-0.5,1.2-1.5,2-3,2c-2,0-2.6-1.2-2.6-2.7v-4.8c-0.4-0.1-1-0.1-1.4-0.2v-0.9
		c0.8-0.1,2-0.2,3-0.1v5.5c0,1.2,0.3,1.9,1.5,1.9c1.4,0,2.4-1.4,2.4-3.3v-2.9c-0.4-0.1-0.9-0.1-1.4-0.2v-0.9c0.8-0.1,2-0.2,2.9-0.1
		v7.3c0.4,0.1,1,0.1,1.4,0.2v0.9C466.3,405.9,465.1,406.1,464.2,405.9z"/>
	<path d="M470.5,406.1c-0.7,0-1.4-0.1-2-0.2v-2.4h0.9c0.1,0.4,0.2,0.9,0.2,1.4c0.3,0.1,0.7,0.1,1,0.1c1.2,0,1.9-0.5,1.9-1.3
		c0-1.9-4.3-0.8-4.3-3.8c0-1.5,1.2-2.6,3.4-2.6c0.6,0,1.3,0.1,2,0.2v2.3h-0.9c-0.1-0.4-0.2-0.9-0.2-1.3c-0.3-0.1-0.6-0.1-1-0.1
		c-1.2,0-1.7,0.5-1.7,1.3c0,1.9,4.3,0.9,4.3,3.7C474.1,404.9,472.7,406.1,470.5,406.1z"/>
	<path d="M482.9,401.6h-5.6c-0.1,2.2,0.8,3.2,2.7,3.2c0.8,0,1.7-0.2,2.4-0.5l0.2,1.2c-0.9,0.3-1.9,0.5-3,0.5c-2.6,0-4-1.4-4-4.4
		c0-2.5,1.4-4.5,3.9-4.5c2.4,0,3.4,1.6,3.4,3.5C482.9,401.1,482.9,401.4,482.9,401.6z M479.4,398.4c-1.1,0-1.9,0.8-2.1,2.1h4
		C481.4,399.2,480.6,398.4,479.4,398.4z"/>
	<path d="M492.8,395.4l-3.2,6.4v3c0.5,0,1,0.1,1.5,0.2v0.9h-4.6v-0.9c0.4-0.1,1-0.2,1.5-0.2v-2.9l-3.1-6.4c-0.3,0-0.8-0.1-1-0.2
		v-0.9h4.1v0.9c-0.4,0.1-0.8,0.2-1.3,0.2l1.4,3c0.3,0.6,0.6,1.3,0.8,1.9l0,0c0.3-0.7,0.6-1.4,0.9-2l1.4-2.9c-0.4,0-0.9-0.1-1.3-0.2
		v-0.9h4v0.9C493.5,395.4,493.1,395.4,492.8,395.4z"/>
	<path d="M494,401.6v-1.3h4.1v1.3H494z"/>
	<path d="M507.3,398.6l-3,8.3c-0.9,2.6-1.8,3.5-3.7,3.5c-0.3,0-0.8,0-1.2-0.1l0.1-1.4c0.4,0.1,0.7,0.2,1.1,0.2
		c0.9,0,1.5-0.5,2.1-2.1l0.4-1h-0.4l-2.6-7.4c-0.4,0-0.8-0.1-1.1-0.2v-0.9h3.9v0.9c-0.3,0.1-0.7,0.2-1.1,0.2l1.3,3.7
		c0.3,0.8,0.5,1.4,0.7,2.1l0,0c0.1-0.6,0.5-1.6,0.8-2.5l1.2-3.3c-0.4,0-0.8-0.1-1.1-0.2v-0.9h3.8v0.9
		C508.1,398.4,507.7,398.6,507.3,398.6z"/>
</g>
<g enable-background="new    ">
	<path d="M211,468.1c0-0.5,0-1.2,0.1-1.7l0,0c-0.5,1.2-1.5,1.9-2.9,1.9c-2.1,0-3.1-1.5-3.1-4c0-3,1.7-4.8,4.4-4.8
		c0.5,0,0.9,0,1.4,0.1v-2.8c-0.4-0.1-1-0.1-1.5-0.2v-0.9c0.9-0.1,2-0.2,3-0.1v11.3c0.4,0.1,1,0.1,1.4,0.2v0.9
		C213.1,468.1,211.9,468.2,211,468.1z M210.9,460.9c-0.5-0.1-1-0.2-1.5-0.2c-1.6,0-2.7,1-2.7,3.4c0,1.8,0.6,2.9,1.9,2.9
		c1.5,0,2.3-1.8,2.3-3.3V460.9z"/>
	<path d="M220.9,468.1l-1.9-3.2l-1.9,3.2h-2.6v-0.9c0.5-0.1,1-0.2,1.5-0.2l2.1-3.1l-2-3.1c-0.5,0-1-0.1-1.4-0.2v-0.9h2.6l1.8,3.1
		l1.9-3.1h2.5v0.9c-0.5,0.1-1,0.2-1.5,0.2l-1.9,3l2.1,3.2c0.5,0,0.9,0.1,1.4,0.2v0.9L220.9,468.1L220.9,468.1z"/>
	<path d="M228.5,462.2v-1.3h7.5v1.3H228.5z M228.5,465.1v-1.3h7.5v1.3H228.5z"/>
	<path d="M253.4,468.1v-5.5c0-1.2-0.3-1.9-1.4-1.9c-1.2,0-2.4,1.3-2.4,3.4v2.9c0.5,0,1,0.1,1.4,0.2v0.9h-2.9v-5.5
		c0-1.1-0.2-1.9-1.4-1.9c-1.3,0-2.4,1.4-2.4,3.4v2.9c0.5,0,1,0.1,1.4,0.2v0.9h-4.4v-0.9c0.4-0.1,1-0.2,1.5-0.2v-6.2
		c-0.4-0.1-1-0.1-1.5-0.2v-0.9c0.9-0.1,2.1-0.2,3-0.1c0,0.5-0.1,1.3-0.1,1.8l0,0c0.5-1.2,1.6-2,3-2c1.8,0,2.3,1.2,2.4,1.9
		c0.3-0.8,1.3-1.9,2.9-1.9s2.5,0.9,2.5,2.8v4.8c0.5,0,1,0.1,1.4,0.2v0.9L253.4,468.1L253.4,468.1z"/>
	<path d="M261.3,468.4c-2.3,0-3.8-1.3-3.8-4.3c0-2.6,1.6-4.6,4.2-4.6c2.2,0,3.8,1.2,3.8,4.3C265.4,466.4,263.9,468.4,261.3,468.4z
		 M261.5,460.7c-1.3,0-2.4,0.9-2.4,3.1c0,2,0.8,3.1,2.4,3.1c1.3,0,2.4-1,2.4-3.1C263.8,461.9,263,460.7,261.5,460.7z"/>
	<path d="M273.4,468.1c0-0.5,0-1.3,0.1-1.8l0,0c-0.5,1.2-1.5,2-3,2c-2,0-2.6-1.2-2.6-2.7v-4.8c-0.4-0.1-1-0.1-1.4-0.2v-0.9
		c0.8-0.1,2-0.2,3-0.1v5.5c0,1.2,0.3,1.9,1.5,1.9c1.4,0,2.4-1.4,2.4-3.3v-2.9c-0.4-0.1-0.9-0.1-1.4-0.2v-0.9c0.8-0.1,2-0.2,2.9-0.1
		v7.3c0.4,0.1,1,0.1,1.4,0.2v0.9C275.5,468.1,274.3,468.2,273.4,468.1z"/>
	<path d="M279.6,468.4c-0.7,0-1.4-0.1-2-0.2v-2.4h0.9c0.1,0.4,0.2,0.9,0.2,1.4c0.3,0.1,0.7,0.1,1,0.1c1.2,0,1.9-0.5,1.9-1.3
		c0-1.9-4.3-0.8-4.3-3.8c0-1.5,1.2-2.6,3.4-2.6c0.6,0,1.3,0.1,2,0.2v2.3h-0.9c-0.1-0.4-0.2-0.9-0.2-1.3c-0.3-0.1-0.6-0.1-1-0.1
		c-1.2,0-1.7,0.5-1.7,1.3c0,1.9,4.3,0.9,4.3,3.7C283.3,467.1,281.9,468.4,279.6,468.4z"/>
	<path d="M292,463.9h-5.6c-0.1,2.2,0.8,3.2,2.7,3.2c0.8,0,1.7-0.2,2.4-0.5l0.2,1.2c-0.9,0.3-1.9,0.5-3,0.5c-2.6,0-4-1.4-4-4.4
		c0-2.5,1.4-4.5,3.9-4.5c2.4,0,3.4,1.6,3.4,3.5C292.1,463.1,292.1,463.6,292,463.9z M288.6,460.6c-1.1,0-1.9,0.8-2.1,2.1h4
		C290.5,461.4,289.8,460.6,288.6,460.6z"/>
	<path d="M299.9,468.1v-0.9c0.4-0.1,0.8-0.2,1.2-0.2l-2.5-3.8l-2.5,3.8c0.4,0,0.9,0.1,1.2,0.2v0.9H293v-0.9c0.4-0.1,0.8-0.2,1.2-0.2
		l3.4-4.8l-3.3-4.6c-0.4,0-0.8-0.1-1.2-0.2v-0.9h4.5v0.9c-0.4,0.1-0.8,0.2-1.3,0.2l2.3,3.4l2.3-3.4c-0.4,0-0.9-0.1-1.2-0.2v-0.9h4.3
		v0.9c-0.4,0.1-0.8,0.2-1.2,0.2l-3.1,4.5l3.5,4.9c0.4,0,0.8,0.1,1.2,0.2v0.9L299.9,468.1L299.9,468.1z"/>
	<path d="M304.8,463.9v-1.3h4.1v1.3H304.8z"/>
	<path d="M316.2,468.1l-1.9-3.2l-1.9,3.2h-2.6v-0.9c0.5-0.1,1-0.2,1.5-0.2l2.1-3.1l-2-3.1c-0.5,0-1-0.1-1.4-0.2v-0.9h2.6l1.8,3.1
		l1.9-3.1h2.5v0.9c-0.5,0.1-1,0.2-1.5,0.2l-1.9,3l2.1,3.2c0.5,0,0.9,0.1,1.4,0.2v0.9L316.2,468.1L316.2,468.1z"/>
</g>
<polyline fill="none" stroke="#000000" stroke-dasharray="20,5" points="376,358.6 376,436.6 153.7,436.6 "/>
</svg>
