<?xml version="1.0" encoding="utf-8"?>
<!-- Generator: Adobe Illustrator 18.0.0, SVG Export Plug-In . SVG Version: 6.00 Build 0)  -->
<!DOCTYPE svg PUBLIC "-//W3C//DTD SVG 1.1//EN" "http://www.w3.org/Graphics/SVG/1.1/DTD/svg11.dtd">
<svg version="1.1" id="Layer_1" xmlns="http://www.w3.org/2000/svg" xmlns:xlink="http://www.w3.org/1999/xlink" x="0px" y="0px"
	 viewBox="-16.5 296 645 200" enable-background="new -16.5 296 645 200" xml:space="preserve">
<line fill="none" stroke="#999999" stroke-width="1.3" x1="158.2" y1="428.6" x2="360.4" y2="355.4"/>
<polyline fill="none" stroke="#999999" stroke-width="1.3" points="352.5,352 360.2,355.5 356.7,363.1 "/>
<circle cx="147.9" cy="431.6" r="5.5"/>
<circle cx="370.2" cy="352.2" r="5.5"/>
<g enable-background="new    ">
	<path d="M356.8,313.8v-5.5c0-1.2-0.3-1.9-1.4-1.9c-1.2,0-2.4,1.3-2.4,3.4v2.9c0.5,0,1,0.1,1.4,0.2v0.9h-2.9v-5.5
		c0-1.1-0.2-1.9-1.4-1.9c-1.3,0-2.4,1.4-2.4,3.4v2.9c0.5,0,1,0.1,1.4,0.2v0.9h-4.5v-0.9c0.4-0.1,1-0.2,1.5-0.2v-6.2
		c-0.4-0.1-1-0.1-1.5-0.2v-0.9c0.9-0.1,2.1-0.2,3-0.1c0,0.5-0.1,1.3-0.1,1.8l0,0c0.5-1.2,1.6-2,3-2c1.8,0,2.3,1.2,2.4,1.9
		c0.3-0.8,1.3-1.9,2.9-1.9s2.5,0.9,2.5,2.8v4.8c0.5,0,1,0.1,1.4,0.2v0.9L356.8,313.8L356.8,313.8z"/>
	<path d="M364.7,313.9c-2.3,0-3.8-1.3-3.8-4.3c0-2.6,1.6-4.6,4.2-4.6c2.2,0,3.8,1.2,3.8,4.3C368.8,311.9,367.2,313.9,364.7,313.9z
		 M364.8,306.4c-1.3,0-2.4,0.9-2.4,3.1c0,2,0.8,3.1,2.4,3.1c1.3,0,2.4-1,2.4-3.1C367.2,307.5,366.4,306.4,364.8,306.4z"/>
	<path d="M376.8,313.8c0-0.5,0-1.3,0.1-1.8l0,0c-0.5,1.2-1.5,2-3,2c-2,0-2.6-1.2-2.6-2.7v-4.8c-0.4-0.1-1-0.1-1.4-0.2v-0.9
		c0.8-0.1,2-0.2,3-0.1v5.5c0,1.2,0.3,1.9,1.5,1.9c1.4,0,2.4-1.4,2.4-3.3v-2.9c-0.4-0.1-0.9-0.1-1.4-0.2v-0.9c0.8-0.1,2-0.2,2.9-0.1
		v7.3c0.4,0.1,1,0.1,1.4,0.2v0.9C378.9,313.8,377.7,313.8,376.8,313.8z"/>
	<path d="M383,313.9c-0.7,0-1.4-0.1-2-0.2v-2.4h0.9c0.1,0.4,0.2,0.9,0.2,1.4c0.3,0.1,0.7,0.1,1,0.1c1.2,0,1.9-0.5,1.9-1.3
		c0-1.9-4.3-0.8-4.3-3.8c0-1.5,1.2-2.6,3.4-2.6c0.6,0,1.3,0.1,2,0.2v2.3h-0.9c-0.1-0.4-0.2-0.9-0.2-1.3c-0.3-0.1-0.6-0.1-1-0.1
		c-1.2,0-1.7,0.5-1.7,1.3c0,1.9,4.3,0.9,4.3,3.7C386.7,312.7,385.3,313.9,383,313.9z"/>
	<path d="M395.4,309.5h-5.6c-0.1,2.2,0.8,3.2,2.7,3.2c0.8,0,1.7-0.2,2.4-0.5l0.2,1.2c-0.9,0.3-1.9,0.5-3,0.5c-2.6,0-4-1.4-4-4.4
		c0-2.5,1.4-4.5,3.9-4.5c2.4,0,3.4,1.6,3.4,3.5C395.5,308.8,395.4,309.1,395.4,309.5z M392,306.2c-1.1,0-1.9,0.8-2.1,2.1h4
		C393.9,307.1,393.2,306.2,392,306.2z"/>
</g>
<g enable-background="new    ">
	<path d="M338.9,334.4v-0.9c0.4-0.1,0.9-0.2,1.4-0.2v-10.2c-0.4-0.1-1-0.1-1.5-0.2V322c0.9-0.1,2-0.2,3-0.1v11.4
		c0.5,0,1,0.1,1.4,0.2v0.9H338.9z"/>
	<path d="M348.1,334.6c-2.3,0-3.8-1.3-3.8-4.3c0-2.6,1.6-4.6,4.2-4.6c2.2,0,3.8,1.2,3.8,4.3C352.2,332.6,350.6,334.6,348.1,334.6z
		 M348.3,327c-1.3,0-2.4,0.9-2.4,3.1c0,2,0.8,3.1,2.4,3.1c1.3,0,2.4-1,2.4-3.1C350.6,328.1,349.8,327,348.3,327z"/>
	<path d="M357.5,334.6c-2.1,0-3.9-1-3.9-4.1c0-2.8,1.4-4.7,4.3-4.7c0.7,0,1.5,0.1,2.1,0.3v2.5h-1c-0.1-0.5-0.2-1-0.2-1.4
		c-0.3-0.1-0.7-0.1-1.2-0.1c-1.5,0-2.4,1.3-2.4,3.2c0,1.7,0.6,3,2.6,3c0.7,0,1.5-0.2,2-0.4l0.3,1.3
		C359.5,334.3,358.5,334.6,357.5,334.6z"/>
	<path d="M366.6,334.4c0-0.6,0-1.2,0.1-1.7l0,0c-0.4,1-1.5,1.9-2.9,1.9s-2.4-0.9-2.4-2.3c0-1.8,1.9-2.9,5.1-2.9v-0.6
		c0-1.2-0.4-1.9-1.8-1.9c-0.5,0-1.1,0.1-1.6,0.2c0,0.4-0.1,0.9-0.2,1.4h-1v-2.3c0.9-0.3,1.9-0.5,2.9-0.5c2.5,0,3.2,1.2,3.2,2.9v4.6
		c0.4,0.1,1,0.1,1.4,0.2v0.9C368.7,334.4,367.5,334.5,366.6,334.4z M366.5,330.5c-2.7,0-3.6,0.7-3.6,1.6c0,0.7,0.5,1.3,1.3,1.3
		c1.4,0,2.3-1.4,2.3-2.7L366.5,330.5L366.5,330.5z"/>
	<path d="M373.7,334.6c-1.8,0-2.3-0.7-2.3-2.6v-4.9h-1.8v-1.2h1.8v-2.8l1.5-0.4v3.2h2.4v1.2h-2.4v4.4c0,1.4,0.3,1.8,1.2,1.8
		c0.4,0,0.8-0.1,1.1-0.1l0.2,1.3C374.9,334.5,374.2,334.6,373.7,334.6z"/>
	<path d="M376.5,334.4v-0.9c0.4-0.1,1-0.2,1.5-0.2v-6.2c-0.4-0.1-1-0.1-1.5-0.2V326c0.9-0.1,2-0.2,3-0.1v7.4c0.5,0,1,0.1,1.4,0.2
		v0.9H376.5z M378.8,324.2c-0.6,0-1-0.4-1-1s0.5-1,1-1c0.6,0,1,0.4,1,1C379.8,323.7,379.3,324.2,378.8,324.2z"/>
	<path d="M385.6,334.6c-2.3,0-3.8-1.3-3.8-4.3c0-2.6,1.6-4.6,4.2-4.6c2.2,0,3.8,1.2,3.8,4.3C389.8,332.6,388.2,334.6,385.6,334.6z
		 M385.8,327c-1.3,0-2.4,0.9-2.4,3.1c0,2,0.8,3.1,2.4,3.1c1.3,0,2.4-1,2.4-3.1C388.2,328.1,387.3,327,385.8,327z"/>
	<path d="M397.9,334.4v-5.5c0-1.2-0.3-1.9-1.4-1.9c-1.4,0-2.4,1.4-2.4,3.3v2.9c0.5,0,1,0.1,1.4,0.2v0.9h-4.4v-0.9
		c0.4-0.1,1-0.2,1.5-0.2V327c-0.4-0.1-1-0.1-1.5-0.2v-0.9c0.9-0.1,2-0.2,3-0.1c0,0.5,0,1.3-0.1,1.8l0,0c0.5-1.2,1.6-2,3-2
		c1.9,0,2.6,1.2,2.6,2.7v4.8c0.5,0,1,0.1,1.4,0.2v0.9h-3.1V334.4z"/>
</g>
<g enable-background="new    ">
	<path d="M133.8,462v-5.5c0-1.2-0.3-1.9-1.4-1.9c-1.2,0-2.4,1.3-2.4,3.4v2.9c0.5,0,1,0.1,1.4,0.2v0.9h-2.9v-5.5
		c0-1.1-0.2-1.9-1.4-1.9c-1.3,0-2.4,1.4-2.4,3.4v2.9c0.5,0,1,0.1,1.4,0.2v0.9h-4.4v-0.9c0.4-0.1,1-0.2,1.5-0.2v-6.2
		c-0.4-0.1-1-0.1-1.5-0.2v-0.9c0.9-0.1,2.1-0.2,3-0.1c0,0.5-0.1,1.3-0.1,1.8l0,0c0.5-1.2,1.6-2,3-2c1.8,0,2.3,1.2,2.4,1.9
		c0.3-0.8,1.3-1.9,2.9-1.9c1.6,0,2.5,0.9,2.5,2.8v4.8c0.5,0,1,0.1,1.4,0.2v0.9L133.8,462L133.8,462z"/>
	<path d="M141.7,462.1c-2.3,0-3.8-1.3-3.8-4.3c0-2.6,1.6-4.6,4.2-4.6c2.2,0,3.8,1.2,3.8,4.3C145.9,460.1,144.2,462.1,141.7,462.1z
		 M141.9,454.6c-1.3,0-2.4,0.9-2.4,3.1c0,2,0.8,3.1,2.4,3.1c1.3,0,2.4-1,2.4-3.1C144.2,455.7,143.4,454.6,141.9,454.6z"/>
	<path d="M154.4,454.6l-2.7,7.4h-1.9l-2.7-7.4c-0.4,0-0.8-0.1-1.1-0.2v-0.9h4v0.9c-0.4,0.1-0.8,0.2-1.2,0.2l1.4,4.2
		c0.2,0.6,0.4,1.1,0.5,1.7l0,0c0.2-0.6,0.3-1.1,0.5-1.6l1.5-4.2c-0.4,0-0.8-0.1-1.2-0.2v-0.9h3.9v0.9
		C155.2,454.5,154.9,454.5,154.4,454.6z"/>
	<path d="M163.2,457.7h-5.6c-0.1,2.2,0.8,3.2,2.7,3.2c0.8,0,1.7-0.2,2.4-0.5l0.2,1.2c-0.9,0.3-1.9,0.5-3,0.5c-2.6,0-4-1.4-4-4.4
		c0-2.5,1.4-4.5,3.9-4.5c2.4,0,3.4,1.6,3.4,3.5C163.2,457,163.2,457.3,163.2,457.7z M159.8,454.5c-1.1,0-1.9,0.8-2.1,2.1h4
		C161.8,455.3,161.1,454.5,159.8,454.5z"/>
	<path d="M170.4,454.8c-2-0.3-2.8,1-2.8,3.7v2.3c0.5,0,1,0.1,1.5,0.2v0.9h-4.6V461c0.4-0.1,1-0.2,1.5-0.2v-6.2
		c-0.4-0.1-1-0.1-1.5-0.2v-0.9c0.9-0.1,2-0.2,3-0.1c0,0.5-0.1,1.3-0.2,2l0,0c0.4-1.2,1.2-2.4,3.1-2.2L170.4,454.8z"/>
</g>
<g enable-background="new    ">
	<path d="M127.6,482.8c-2.3,0-3.8-1.3-3.8-4.3c0-2.6,1.6-4.6,4.2-4.6c2.2,0,3.8,1.2,3.8,4.3C131.8,480.8,130.2,482.8,127.6,482.8z
		 M127.8,475.2c-1.3,0-2.4,0.9-2.4,3.1c0,2,0.8,3.1,2.4,3.1c1.3,0,2.4-1,2.4-3.1C130.2,476.4,129.4,475.2,127.8,475.2z"/>
	<path d="M136.9,482.8c-1.2,0-2-0.1-2.9-0.3v-11.1c-0.4-0.1-1-0.1-1.5-0.2v-0.9c0.9-0.1,2-0.2,3-0.1v4.1c0,0.5-0.1,1.2-0.2,1.6l0,0
		c0.5-1.2,1.5-1.9,2.8-1.9c2,0,3.1,1.4,3.1,4C141.4,481,139.7,482.8,136.9,482.8z M137.9,475.2c-1.5,0-2.3,1.8-2.3,3.3v2.8
		c0.4,0.1,0.9,0.2,1.5,0.2c1.6,0,2.7-1,2.7-3.4C139.8,476.3,139.2,475.2,137.9,475.2z"/>
	<path d="M142.4,487c-0.3,0-0.8-0.1-1.2-0.2l0.1-1.3c0.3,0.1,0.7,0.2,1.1,0.2c1.1,0,1.4-0.4,1.4-2v-8.4c-0.4-0.1-1-0.1-1.4-0.2v-0.9
		c0.8-0.1,2-0.2,3-0.1v9.5C145.4,485.9,144.7,487,142.4,487z M144.7,472.4c-0.6,0-1-0.4-1-1s0.5-1,1-1s1,0.4,1,1
		C145.7,471.9,145.2,472.4,144.7,472.4z"/>
	<path d="M154.8,478.3h-5.6c-0.1,2.2,0.8,3.2,2.7,3.2c0.8,0,1.7-0.2,2.4-0.5l0.2,1.2c-0.9,0.3-1.9,0.5-3,0.5c-2.6,0-4-1.4-4-4.4
		c0-2.5,1.4-4.5,3.9-4.5c2.4,0,3.4,1.6,3.4,3.5C154.8,477.7,154.8,478,154.8,478.3z M151.2,475.1c-1.1,0-1.9,0.8-2.1,2.1h4
		C153.2,475.9,152.4,475.1,151.2,475.1z"/>
	<path d="M160.2,482.8c-2.1,0-3.9-1-3.9-4.1c0-2.8,1.4-4.7,4.3-4.7c0.7,0,1.5,0.1,2.1,0.3v2.5h-1c-0.1-0.5-0.2-1-0.2-1.4
		c-0.3-0.1-0.7-0.1-1.2-0.1c-1.5,0-2.4,1.3-2.4,3.2c0,1.7,0.6,3,2.6,3c0.7,0,1.5-0.2,2-0.4l0.3,1.3
		C162.2,482.6,161.2,482.8,160.2,482.8z"/>
	<path d="M167.4,482.8c-1.8,0-2.3-0.7-2.3-2.6v-4.9h-1.8v-1.2h1.8v-2.8l1.5-0.4v3.2h2.4v1.2h-2.4v4.4c0,1.4,0.3,1.8,1.2,1.8
		c0.4,0,0.8-0.1,1.1-0.1l0.2,1.3C168.6,482.7,167.9,482.8,167.4,482.8z"/>
</g>
<g enable-background="new    ">
	<path fill="#999999" d="M267.5,405.5c-0.1-0.7-0.2-1.2-0.2-1.6h-2.4v9.2c0.5,0,1,0.1,1.5,0.2v0.9h-4.6v-0.9c0.4-0.1,1-0.2,1.5-0.2
		v-9.2h-2.4c0,0.4-0.1,0.9-0.2,1.6h-1.1v-2.9h9v2.9H267.5z"/>
	<path fill="#999999" d="M276.1,414.2v-5.5c0-1.2-0.3-1.9-1.5-1.9c-1.4,0-2.4,1.4-2.4,3.3v2.9c0.5,0,1,0.1,1.4,0.2v0.9h-4.4v-0.9
		c0.4-0.1,0.9-0.2,1.4-0.2v-10.2c-0.4-0.1-1-0.1-1.5-0.2v-0.9c0.9-0.1,2-0.2,3-0.1v4.1c0,0.6,0,1.2-0.2,1.7l0,0
		c0.5-1.2,1.5-1.9,3-1.9c1.9,0,2.6,1.2,2.6,2.7v4.8c0.5,0,1,0.1,1.4,0.2v0.9h-2.8V414.2z"/>
	<path fill="#999999" d="M279.9,414.2v-0.9c0.4-0.1,1-0.2,1.5-0.2v-6.2c-0.4-0.1-1-0.1-1.5-0.2v-0.9c0.9-0.1,2-0.2,3-0.1v7.4
		c0.5,0,1,0.1,1.4,0.2v0.9H279.9z M282.2,403.9c-0.6,0-1-0.4-1-1s0.5-1,1-1c0.6,0,1,0.4,1,1S282.7,403.9,282.2,403.9z"/>
	<path fill="#999999" d="M287.7,414.3c-0.7,0-1.4-0.1-2-0.2v-2.4h0.9c0.1,0.4,0.2,0.9,0.2,1.4c0.3,0.1,0.7,0.1,1,0.1
		c1.2,0,1.9-0.5,1.9-1.3c0-1.9-4.3-0.8-4.3-3.8c0-1.5,1.2-2.6,3.4-2.6c0.6,0,1.3,0.1,2,0.2v2.3h-0.9c-0.1-0.4-0.2-0.9-0.2-1.3
		c-0.3-0.1-0.6-0.1-1-0.1c-1.2,0-1.7,0.5-1.7,1.3c0,1.9,4.3,0.9,4.3,3.7C291.4,413.1,290,414.3,287.7,414.3z"/>
	<path fill="#999999" d="M296.5,414.2v-0.9c0.4-0.1,1-0.2,1.5-0.2v-6.2c-0.4-0.1-1-0.1-1.5-0.2v-0.9c0.9-0.1,2-0.2,3-0.1v7.4
		c0.5,0,1,0.1,1.4,0.2v0.9H296.5z M298.8,403.9c-0.6,0-1-0.4-1-1s0.5-1,1-1c0.6,0,1,0.4,1,1S299.3,403.9,298.8,403.9z"/>
	<path fill="#999999" d="M304.3,414.3c-0.7,0-1.4-0.1-2-0.2v-2.4h0.9c0.1,0.4,0.2,0.9,0.2,1.4c0.3,0.1,0.7,0.1,1,0.1
		c1.2,0,1.9-0.5,1.9-1.3c0-1.9-4.3-0.8-4.3-3.8c0-1.5,1.2-2.6,3.4-2.6c0.6,0,1.3,0.1,2,0.2v2.3h-0.9c-0.1-0.4-0.2-0.9-0.2-1.3
		c-0.3-0.1-0.6-0.1-1-0.1c-1.2,0-1.7,0.5-1.7,1.3c0,1.9,4.3,0.9,4.3,3.7C307.9,413.1,306.5,414.3,304.3,414.3z"/>
	<path fill="#999999" d="M326.1,406.8l-2.3,7.4H322l-1.7-5c-0.2-0.5-0.3-1.1-0.5-1.7l0,0c-0.2,0.8-0.4,1.4-0.6,2.2l-1.4,4.6H316
		l-2.2-7.4c-0.4,0-0.8-0.1-1.1-0.2v-0.9h3.9v0.9c-0.4,0.1-0.8,0.2-1.2,0.2l1,3.8c0.2,0.7,0.4,1.4,0.5,1.9l0,0
		c0.2-0.7,0.4-1.4,0.6-2.1l1.5-4.8h1.6l1.5,4.8c0.3,1,0.5,1.5,0.6,2.1l0,0c0.2-0.6,0.3-1.1,0.5-1.9l1.1-3.9c-0.4,0-0.8-0.1-1.2-0.2
		v-0.9h3.8v0.9C326.8,406.7,326.4,406.7,326.1,406.8z"/>
	<path fill="#999999" d="M334.1,414.2v-5.5c0-1.2-0.3-1.9-1.5-1.9c-1.4,0-2.4,1.4-2.4,3.3v2.9c0.5,0,1,0.1,1.4,0.2v0.9h-4.4v-0.9
		c0.4-0.1,0.9-0.2,1.4-0.2v-10.2c-0.4-0.1-1-0.1-1.5-0.2v-0.9c0.9-0.1,2-0.2,3-0.1v4.1c0,0.6,0,1.2-0.2,1.7l0,0
		c0.5-1.2,1.5-1.9,3-1.9c1.9,0,2.6,1.2,2.6,2.7v4.8c0.5,0,1,0.1,1.4,0.2v0.9h-2.8V414.2z"/>
	<path fill="#999999" d="M343.3,414.2c0-0.6,0-1.2,0.1-1.7l0,0c-0.4,1-1.5,1.9-2.9,1.9s-2.4-0.9-2.4-2.3c0-1.8,1.9-2.9,5.1-2.9v-0.6
		c0-1.2-0.4-1.9-1.8-1.9c-0.5,0-1.1,0.1-1.6,0.2c0,0.4-0.1,0.9-0.2,1.4h-1v-2.4c0.9-0.3,1.9-0.5,2.9-0.5c2.5,0,3.2,1.2,3.2,2.9v4.6
		c0.4,0.1,1,0.1,1.4,0.2v0.9C345.4,414.2,344.2,414.2,343.3,414.2z M343.2,410.2c-2.7,0-3.6,0.7-3.6,1.6c0,0.7,0.5,1.3,1.3,1.3
		c1.4,0,2.3-1.4,2.3-2.7L343.2,410.2L343.2,410.2z"/>
	<path fill="#999999" d="M350.4,414.3c-1.8,0-2.3-0.7-2.3-2.6v-4.9h-1.8v-1.2h1.8v-2.7l1.5-0.4v3.2h2.4v1.2h-2.4v4.4
		c0,1.4,0.3,1.8,1.2,1.8c0.4,0,0.8-0.1,1.1-0.1l0.2,1.3C351.6,414.2,351,414.3,350.4,414.3z"/>
	<path fill="#999999" d="M370,406.8l-2.3,7.4h-1.8l-1.7-5c-0.2-0.5-0.3-1.1-0.5-1.7l0,0c-0.2,0.8-0.4,1.4-0.6,2.2l-1.4,4.6h-1.8
		l-2.2-7.4c-0.4,0-0.8-0.1-1.1-0.2v-0.9h3.9v0.9c-0.4,0.1-0.8,0.2-1.2,0.2l1,3.8c0.2,0.7,0.4,1.4,0.5,1.9l0,0
		c0.2-0.7,0.4-1.4,0.6-2.1l1.5-4.8h1.6l1.5,4.8c0.3,1,0.5,1.5,0.6,2.1l0,0c0.2-0.6,0.3-1.1,0.5-1.9l1.1-3.9c-0.4,0-0.8-0.1-1.2-0.2
		v-0.9h3.8v0.9C370.7,406.7,370.4,406.7,370,406.8z"/>
	<path fill="#999999" d="M378.8,409.9h-5.6c-0.1,2.2,0.8,3.2,2.7,3.2c0.8,0,1.7-0.2,2.4-0.5l0.2,1.2c-0.9,0.3-1.9,0.5-3,0.5
		c-2.6,0-4-1.4-4-4.4c0-2.5,1.4-4.5,3.9-4.5c2.4,0,3.4,1.6,3.4,3.5C378.8,409.2,378.8,409.5,378.8,409.9z M375.3,406.6
		c-1.1,0-1.9,0.8-2.1,2.1h4C377.3,407.5,376.5,406.6,375.3,406.6z"/>
	<path fill="#999999" d="M396.9,406.8l-2.3,7.4h-1.8l-1.7-5c-0.2-0.5-0.3-1.1-0.5-1.7l0,0c-0.2,0.8-0.4,1.4-0.6,2.2l-1.4,4.6h-1.8
		l-2.2-7.4c-0.4,0-0.8-0.1-1.1-0.2v-0.9h3.9v0.9c-0.4,0.1-0.8,0.2-1.2,0.2l1,3.8c0.2,0.7,0.4,1.4,0.5,1.9l0,0
		c0.2-0.7,0.4-1.4,0.6-2.1l1.5-4.8h1.6l1.5,4.8c0.3,1,0.5,1.5,0.6,2.1l0,0c0.2-0.6,0.3-1.1,0.5-1.9l1.1-3.9c-0.4,0-0.8-0.1-1.2-0.2
		v-0.9h3.8v0.9C397.7,406.7,397.3,406.7,396.9,406.8z"/>
	<path fill="#999999" d="M403.6,414.2c0-0.6,0-1.2,0.1-1.7l0,0c-0.4,1-1.5,1.9-2.9,1.9s-2.4-0.9-2.4-2.3c0-1.8,1.9-2.9,5.1-2.9v-0.6
		c0-1.2-0.4-1.9-1.8-1.9c-0.5,0-1.1,0.1-1.6,0.2c0,0.4-0.1,0.9-0.2,1.4h-1v-2.4c0.9-0.3,1.9-0.5,2.9-0.5c2.5,0,3.2,1.2,3.2,2.9v4.6
		c0.4,0.1,1,0.1,1.4,0.2v0.9C405.7,414.2,404.6,414.2,403.6,414.2z M403.5,410.2c-2.7,0-3.6,0.7-3.6,1.6c0,0.7,0.5,1.3,1.3,1.3
		c1.4,0,2.3-1.4,2.3-2.7L403.5,410.2L403.5,410.2z"/>
	<path fill="#999999" d="M414.3,414.2v-5.5c0-1.2-0.3-1.9-1.4-1.9c-1.4,0-2.4,1.4-2.4,3.3v2.9c0.5,0,1,0.1,1.4,0.2v0.9h-4.4v-0.9
		c0.4-0.1,1-0.2,1.5-0.2v-6.2c-0.4-0.1-1-0.1-1.5-0.2v-0.9c0.9-0.1,2-0.2,3-0.1c0,0.5,0,1.3-0.1,1.8l0,0c0.5-1.2,1.6-2,3-2
		c1.9,0,2.6,1.2,2.6,2.7v4.8c0.5,0,1,0.1,1.4,0.2v0.9h-3.1V414.2z"/>
	<path fill="#999999" d="M421.5,414.3c-1.8,0-2.3-0.7-2.3-2.6v-4.9h-1.8v-1.2h1.8v-2.7l1.5-0.4v3.2h2.4v1.2h-2.4v4.4
		c0,1.4,0.3,1.8,1.2,1.8c0.4,0,0.8-0.1,1.1-0.1l0.2,1.3C422.7,414.2,422,414.3,421.5,414.3z"/>
</g>
<g enable-background="new    ">
	<path fill="#999999" d="M263.8,437.3c-2.3,0-3.8-1.3-3.8-4.3c0-2.6,1.6-4.6,4.2-4.6c2.2,0,3.8,1.2,3.8,4.3
		C268,435.3,266.4,437.3,263.8,437.3z M264,429.7c-1.3,0-2.4,0.9-2.4,3.1c0,2,0.8,3.1,2.4,3.1c1.3,0,2.4-1,2.4-3.1
		C266.4,430.8,265.5,429.7,264,429.7z"/>
	<path fill="#999999" d="M275.9,437.1c0-0.5,0-1.3,0.1-1.8l0,0c-0.5,1.2-1.5,2-3,2c-2,0-2.6-1.2-2.6-2.7v-4.8
		c-0.4-0.1-1-0.1-1.4-0.2v-0.9c0.8-0.1,2-0.2,3-0.1v5.5c0,1.2,0.3,1.9,1.5,1.9c1.4,0,2.4-1.4,2.4-3.3v-2.9c-0.4-0.1-0.9-0.1-1.4-0.2
		v-0.9c0.8-0.1,2-0.2,2.9-0.1v7.3c0.4,0.1,1,0.1,1.4,0.2v0.9C278,437.1,276.9,437.2,275.9,437.1z"/>
	<path fill="#999999" d="M285.5,430c-2-0.3-2.8,1-2.8,3.7v2.3c0.5,0,1,0.1,1.5,0.2v0.9h-4.5v-0.9c0.4-0.1,1-0.2,1.5-0.2v-6.2
		c-0.4-0.1-1-0.1-1.5-0.2v-0.9c0.9-0.1,2-0.2,3-0.1c0,0.5-0.1,1.3-0.2,2l0,0c0.4-1.2,1.2-2.4,3.1-2.2L285.5,430z"/>
	<path fill="#999999" d="M295.6,437.1c0-0.6,0-1.2,0.1-1.7l0,0c-0.4,1-1.5,1.9-2.9,1.9s-2.4-0.9-2.4-2.3c0-1.8,1.9-2.9,5.1-2.9v-0.6
		c0-1.2-0.4-1.9-1.8-1.9c-0.5,0-1.1,0.1-1.6,0.2c0,0.4-0.1,0.9-0.2,1.4h-1v-2.3c0.9-0.3,1.9-0.5,2.9-0.5c2.5,0,3.2,1.2,3.2,2.9v4.6
		c0.4,0.1,1,0.1,1.4,0.2v0.9C297.8,437.1,296.6,437.2,295.6,437.1z M295.5,433.2c-2.7,0-3.6,0.7-3.6,1.6c0,0.7,0.5,1.3,1.3,1.3
		c1.4,0,2.3-1.4,2.3-2.7L295.5,433.2L295.5,433.2z"/>
	<path fill="#999999" d="M303.4,437.3c-2.1,0-3.9-1-3.9-4.1c0-2.8,1.4-4.7,4.3-4.7c0.7,0,1.5,0.1,2.1,0.3v2.5h-1
		c-0.1-0.5-0.2-1-0.2-1.4c-0.3-0.1-0.7-0.1-1.2-0.1c-1.5,0-2.4,1.3-2.4,3.2c0,1.7,0.6,3,2.6,3c0.7,0,1.5-0.2,2-0.4l0.3,1.3
		C305.4,437,304.5,437.3,303.4,437.3z"/>
	<path fill="#999999" d="M311.1,437.3c-2.1,0-3.9-1-3.9-4.1c0-2.8,1.4-4.7,4.3-4.7c0.7,0,1.5,0.1,2.1,0.3v2.5h-1
		c-0.1-0.5-0.2-1-0.2-1.4c-0.3-0.1-0.7-0.1-1.2-0.1c-1.5,0-2.4,1.3-2.4,3.2c0,1.7,0.6,3,2.6,3c0.7,0,1.5-0.2,2-0.4l0.3,1.3
		C313.1,437,312.1,437.3,311.1,437.3z"/>
	<path fill="#999999" d="M322.1,432.8h-5.6c-0.1,2.2,0.8,3.2,2.7,3.2c0.8,0,1.7-0.2,2.4-0.5l0.2,1.2c-0.9,0.3-1.9,0.5-3,0.5
		c-2.6,0-4-1.4-4-4.4c0-2.5,1.4-4.5,3.9-4.5c2.4,0,3.4,1.6,3.4,3.5C322.2,432.1,322.1,432.5,322.1,432.8z M318.7,429.6
		c-1.1,0-1.9,0.8-2.1,2.1h4C320.6,430.4,319.9,429.6,318.7,429.6z"/>
	<path fill="#999999" d="M323.3,437.1v-0.9c0.4-0.1,0.9-0.2,1.4-0.2v-10.2c-0.4-0.1-1-0.1-1.5-0.2v-0.9c0.9-0.1,2-0.2,3-0.1V436
		c0.5,0,1,0.1,1.4,0.2v0.9H323.3z"/>
	<path fill="#999999" d="M335.8,432.8h-5.6c-0.1,2.2,0.8,3.2,2.7,3.2c0.8,0,1.7-0.2,2.4-0.5l0.2,1.2c-0.9,0.3-1.9,0.5-3,0.5
		c-2.6,0-4-1.4-4-4.4c0-2.5,1.4-4.5,3.9-4.5c2.4,0,3.4,1.6,3.4,3.5C335.9,432.1,335.8,432.5,335.8,432.8z M332.4,429.6
		c-1.1,0-1.9,0.8-2.1,2.1h4C334.3,430.4,333.6,429.6,332.4,429.6z"/>
	<path fill="#999999" d="M343,430c-2-0.3-2.8,1-2.8,3.7v2.3c0.5,0,1,0.1,1.5,0.2v0.9h-4.5v-0.9c0.4-0.1,1-0.2,1.5-0.2v-6.2
		c-0.4-0.1-1-0.1-1.5-0.2v-0.9c0.9-0.1,2-0.2,3-0.1c0,0.5-0.1,1.3-0.2,2l0,0c0.4-1.2,1.2-2.4,3.1-2.2L343,430z"/>
	<path fill="#999999" d="M349.1,437.1c0-0.6,0-1.2,0.1-1.7l0,0c-0.4,1-1.5,1.9-2.9,1.9s-2.4-0.9-2.4-2.3c0-1.8,1.9-2.9,5.1-2.9v-0.6
		c0-1.2-0.4-1.9-1.8-1.9c-0.5,0-1.1,0.1-1.6,0.2c0,0.4-0.1,0.9-0.2,1.4h-1v-2.3c0.9-0.3,1.9-0.5,2.9-0.5c2.5,0,3.2,1.2,3.2,2.9v4.6
		c0.4,0.1,1,0.1,1.4,0.2v0.9C351.2,437.1,350,437.2,349.1,437.1z M349,433.2c-2.7,0-3.6,0.7-3.6,1.6c0,0.7,0.5,1.3,1.3,1.3
		c1.4,0,2.3-1.4,2.3-2.7L349,433.2L349,433.2z"/>
	<path fill="#999999" d="M356.2,437.3c-1.8,0-2.3-0.7-2.3-2.6v-4.9h-1.8v-1.2h1.8v-2.8l1.5-0.4v3.2h2.4v1.2h-2.4v4.4
		c0,1.4,0.3,1.8,1.2,1.8c0.4,0,0.8-0.1,1.1-0.1l0.2,1.3C357.4,437.2,356.8,437.3,356.2,437.3z"/>
	<path fill="#999999" d="M359,437.1v-0.9c0.4-0.1,1-0.2,1.5-0.2v-6.2c-0.4-0.1-1-0.1-1.5-0.2v-0.9c0.9-0.1,2-0.2,3-0.1v7.4
		c0.5,0,1,0.1,1.4,0.2v0.9H359z M361.3,426.9c-0.6,0-1-0.4-1-1s0.5-1,1-1c0.6,0,1,0.4,1,1C362.3,426.4,361.8,426.9,361.3,426.9z"/>
	<path fill="#999999" d="M368.1,437.3c-2.3,0-3.8-1.3-3.8-4.3c0-2.6,1.6-4.6,4.2-4.6c2.2,0,3.8,1.2,3.8,4.3
		C372.3,435.3,370.7,437.3,368.1,437.3z M368.3,429.7c-1.3,0-2.4,0.9-2.4,3.1c0,2,0.8,3.1,2.4,3.1c1.3,0,2.4-1,2.4-3.1
		C370.7,430.8,369.9,429.7,368.3,429.7z"/>
	<path fill="#999999" d="M380.4,437.1v-5.5c0-1.2-0.3-1.9-1.4-1.9c-1.4,0-2.4,1.4-2.4,3.3v2.9c0.5,0,1,0.1,1.4,0.2v0.9h-4.4v-0.9
		c0.4-0.1,1-0.2,1.5-0.2v-6.2c-0.4-0.1-1-0.1-1.5-0.2v-0.9c0.9-0.1,2-0.2,3-0.1c0,0.5,0,1.3-0.1,1.8l0,0c0.5-1.2,1.6-2,3-2
		c1.9,0,2.6,1.2,2.6,2.7v4.8c0.5,0,1,0.1,1.4,0.2v0.9h-3.1V437.1z"/>
	<path fill="#999999" d="M395.9,429.7l-2.7,7.4h-1.9l-2.7-7.4c-0.4,0-0.8-0.1-1.1-0.2v-0.9h4v0.9c-0.4,0.1-0.8,0.2-1.2,0.2l1.4,4.2
		c0.2,0.6,0.4,1.1,0.5,1.7l0,0c0.2-0.6,0.3-1.1,0.5-1.6l1.5-4.2c-0.4,0-0.8-0.1-1.2-0.2v-0.9h3.9v0.9
		C396.7,429.6,396.3,429.7,395.9,429.7z"/>
	<path fill="#999999" d="M404.6,432.8H399c-0.1,2.2,0.8,3.2,2.7,3.2c0.8,0,1.7-0.2,2.4-0.5l0.2,1.2c-0.9,0.3-1.9,0.5-3,0.5
		c-2.6,0-4-1.4-4-4.4c0-2.5,1.4-4.5,3.9-4.5c2.4,0,3.4,1.6,3.4,3.5C404.7,432.1,404.7,432.5,404.6,432.8z M401.2,429.6
		c-1.1,0-1.9,0.8-2.1,2.1h4C403.1,430.4,402.4,429.6,401.2,429.6z"/>
	<path fill="#999999" d="M410.1,437.3c-2.1,0-3.9-1-3.9-4.1c0-2.8,1.4-4.7,4.3-4.7c0.7,0,1.5,0.1,2.1,0.3v2.5h-1
		c-0.1-0.5-0.2-1-0.2-1.4c-0.3-0.1-0.7-0.1-1.2-0.1c-1.5,0-2.4,1.3-2.4,3.2c0,1.7,0.6,3,2.6,3c0.7,0,1.5-0.2,2-0.4l0.3,1.3
		C412,437,411.1,437.3,410.1,437.3z"/>
	<path fill="#999999" d="M417.3,437.3c-1.8,0-2.3-0.7-2.3-2.6v-4.9h-1.8v-1.2h1.8v-2.8l1.5-0.4v3.2h2.4v1.2h-2.4v4.4
		c0,1.4,0.3,1.8,1.2,1.8c0.4,0,0.8-0.1,1.1-0.1l0.2,1.3C418.5,437.2,417.8,437.3,417.3,437.3z"/>
	<path fill="#999999" d="M424.1,437.3c-2.3,0-3.8-1.3-3.8-4.3c0-2.6,1.6-4.6,4.2-4.6c2.2,0,3.8,1.2,3.8,4.3
		C428.3,435.3,426.7,437.3,424.1,437.3z M424.3,429.7c-1.3,0-2.4,0.9-2.4,3.1c0,2,0.8,3.1,2.4,3.1c1.3,0,2.4-1,2.4-3.1
		C426.7,430.8,425.8,429.7,424.3,429.7z"/>
	<path fill="#999999" d="M435.3,430c-2-0.3-2.8,1-2.8,3.7v2.3c0.5,0,1,0.1,1.5,0.2v0.9h-4.5v-0.9c0.4-0.1,1-0.2,1.5-0.2v-6.2
		c-0.4-0.1-1-0.1-1.5-0.2v-0.9c0.9-0.1,2-0.2,3-0.1c0,0.5-0.1,1.3-0.2,2l0,0c0.4-1.2,1.2-2.4,3.1-2.2L435.3,430z"/>
</g>
<g enable-background="new    ">
	<path fill="#999999" d="M263.4,460.2c-1.8,0-2.3-0.7-2.3-2.6v-4.9h-1.8v-1.2h1.8v-2.8l1.5-0.4v3.2h2.4v1.2h-2.4v4.4
		c0,1.4,0.3,1.8,1.2,1.8c0.4,0,0.8-0.1,1.1-0.1l0.2,1.3C264.6,460.1,263.9,460.2,263.4,460.2z"/>
	<path fill="#999999" d="M270.2,460.2c-2.3,0-3.8-1.3-3.8-4.3c0-2.6,1.6-4.6,4.2-4.6c2.2,0,3.8,1.2,3.8,4.3
		C274.4,458.2,272.8,460.2,270.2,460.2z M270.4,452.7c-1.3,0-2.4,0.9-2.4,3.1c0,2,0.8,3.1,2.4,3.1c1.3,0,2.4-1,2.4-3.1
		C272.8,453.8,271.9,452.7,270.4,452.7z"/>
	<path fill="#999999" d="M279.1,460.1v-0.9c0.4-0.1,0.9-0.2,1.4-0.2v-10.2c-0.4-0.1-1-0.1-1.5-0.2v-0.9c0.9-0.1,2-0.2,3-0.1v11.3
		c0.5,0,1,0.1,1.4,0.2v0.9L279.1,460.1L279.1,460.1z"/>
	<path fill="#999999" d="M288.3,460.2c-2.3,0-3.8-1.3-3.8-4.3c0-2.6,1.6-4.6,4.2-4.6c2.2,0,3.8,1.2,3.8,4.3
		C292.5,458.2,290.9,460.2,288.3,460.2z M288.5,452.7c-1.3,0-2.4,0.9-2.4,3.1c0,2,0.8,3.1,2.4,3.1c1.3,0,2.4-1,2.4-3.1
		C290.9,453.8,290,452.7,288.5,452.7z"/>
	<path fill="#999999" d="M297.7,460.2c-2.3,0-3.8-1.3-3.8-4.3c0-2.6,1.6-4.6,4.2-4.6c2.2,0,3.8,1.2,3.8,4.3
		C301.9,458.2,300.3,460.2,297.7,460.2z M297.9,452.7c-1.3,0-2.4,0.9-2.4,3.1c0,2,0.8,3.1,2.4,3.1c1.3,0,2.4-1,2.4-3.1
		C300.3,453.8,299.5,452.7,297.9,452.7z"/>
	<path fill="#999999" d="M309,460.1l-3.3-4.5v3.3c0.5,0,0.9,0.1,1.3,0.2v0.9h-4.3v-0.9c0.4-0.1,0.9-0.2,1.4-0.2v-10.2
		c-0.4-0.1-1-0.1-1.5-0.2v-0.9c0.9-0.1,2-0.2,3-0.1v7.9l2.5-2.8c-0.4-0.1-0.8-0.1-1-0.2v-0.9h4.1v0.9c-0.4,0.1-0.8,0.2-1.2,0.2
		l-2.6,2.8l2.7,3.5c0.4,0,0.9,0.1,1.4,0.2v0.9L309,460.1L309,460.1z"/>
	<path fill="#999999" d="M315.9,460.1v-0.9c0.4-0.1,0.9-0.2,1.4-0.2v-10.2c-0.4-0.1-1-0.1-1.5-0.2v-0.9c0.9-0.1,2-0.2,3-0.1v11.3
		c0.5,0,1,0.1,1.4,0.2v0.9L315.9,460.1L315.9,460.1z"/>
	<path fill="#999999" d="M321.2,460.1v-0.9c0.4-0.1,1-0.2,1.5-0.2v-6.2c-0.4-0.1-1-0.1-1.5-0.2v-0.9c0.9-0.1,2-0.2,3-0.1v7.4
		c0.5,0,1,0.1,1.4,0.2v0.9H321.2z M323.5,449.8c-0.6,0-1-0.4-1-1s0.5-1,1-1c0.6,0,1,0.4,1,1S324,449.8,323.5,449.8z"/>
	<path fill="#999999" d="M332.6,460.1l-3.3-4.5v3.3c0.5,0,0.9,0.1,1.3,0.2v0.9h-4.3v-0.9c0.4-0.1,0.9-0.2,1.4-0.2v-10.2
		c-0.4-0.1-1-0.1-1.5-0.2v-0.9c0.9-0.1,2-0.2,3-0.1v7.9l2.5-2.8c-0.4-0.1-0.8-0.1-1-0.2v-0.9h4.1v0.9c-0.4,0.1-0.8,0.2-1.2,0.2
		l-2.6,2.8l2.7,3.5c0.4,0,0.9,0.1,1.4,0.2v0.9L332.6,460.1L332.6,460.1z"/>
	<path fill="#999999" d="M343,455.8h-5.6c-0.1,2.2,0.8,3.2,2.7,3.2c0.8,0,1.7-0.2,2.4-0.5l0.2,1.2c-0.9,0.3-1.9,0.5-3,0.5
		c-2.6,0-4-1.4-4-4.4c0-2.5,1.4-4.5,3.9-4.5c2.4,0,3.4,1.6,3.4,3.5C343.1,455.1,343.1,455.4,343,455.8z M339.6,452.5
		c-1.1,0-1.9,0.8-2.1,2.1h4C341.5,453.4,340.8,452.5,339.6,452.5z"/>
	<path fill="#999999" d="M351.3,463.7c-2-3.2-2.5-6-2.5-8.5s0.6-5.5,2.5-8.6l1.1,0.5c-1.4,2.4-2.1,5.1-2.1,7.9c0,2.9,0.7,5.6,2.2,8
		L351.3,463.7z"/>
	<path fill="#999999" d="M357.4,460.2c-2.3,0-3.8-1.3-3.8-4.3c0-2.6,1.6-4.6,4.2-4.6c2.2,0,3.8,1.2,3.8,4.3
		C361.5,458.2,360,460.2,357.4,460.2z M357.6,452.7c-1.3,0-2.4,0.9-2.4,3.1c0,2,0.8,3.1,2.4,3.1c1.3,0,2.4-1,2.4-3.1
		C359.9,453.8,359.1,452.7,357.6,452.7z"/>
	<path fill="#999999" d="M369.7,460.1v-5.5c0-1.2-0.3-1.9-1.4-1.9c-1.4,0-2.4,1.4-2.4,3.3v2.9c0.5,0,1,0.1,1.4,0.2v0.9h-4.4v-0.9
		c0.4-0.1,1-0.2,1.5-0.2v-6.2c-0.4-0.1-1-0.1-1.5-0.2v-0.9c0.9-0.1,2-0.2,3-0.1c0,0.5,0,1.3-0.1,1.8l0,0c0.5-1.2,1.6-2,3-2
		c1.9,0,2.6,1.2,2.6,2.7v4.8c0.5,0,1,0.1,1.4,0.2v0.9h-3.1V460.1z"/>
	<path fill="#999999" d="M373.3,460.1v-0.9c0.4-0.1,0.9-0.2,1.4-0.2v-10.2c-0.4-0.1-1-0.1-1.5-0.2v-0.9c0.9-0.1,2-0.2,3-0.1v11.3
		c0.5,0,1,0.1,1.4,0.2v0.9L373.3,460.1L373.3,460.1z"/>
	<path fill="#999999" d="M385.9,452.7l-3,8.3c-0.9,2.6-1.8,3.5-3.7,3.5c-0.3,0-0.8,0-1.2-0.1l0.1-1.4c0.4,0.1,0.7,0.2,1.1,0.2
		c0.9,0,1.5-0.5,2.1-2.1l0.4-1h-0.4l-2.6-7.4c-0.4,0-0.8-0.1-1.1-0.2v-0.9h3.9v0.9c-0.3,0.1-0.7,0.2-1.1,0.2l1.3,3.7
		c0.3,0.8,0.5,1.4,0.7,2.1l0,0c0.1-0.6,0.5-1.6,0.8-2.5l1.2-3.3c-0.4,0-0.8-0.1-1.1-0.2v-0.9h3.8v0.9
		C386.7,452.6,386.3,452.6,385.9,452.7z"/>
	<path fill="#999999" d="M398.3,460.1v-5.5c0-1.2-0.3-1.9-1.4-1.9c-1.4,0-2.4,1.4-2.4,3.3v2.9c0.5,0,1,0.1,1.4,0.2v0.9h-4.4v-0.9
		c0.4-0.1,1-0.2,1.5-0.2v-6.2c-0.4-0.1-1-0.1-1.5-0.2v-0.9c0.9-0.1,2-0.2,3-0.1c0,0.5,0,1.3-0.1,1.8l0,0c0.5-1.2,1.6-2,3-2
		c1.9,0,2.6,1.2,2.6,2.7v4.8c0.5,0,1,0.1,1.4,0.2v0.9h-3.1V460.1z"/>
	<path fill="#999999" d="M406.2,460.2c-2.3,0-3.8-1.3-3.8-4.3c0-2.6,1.6-4.6,4.2-4.6c2.2,0,3.8,1.2,3.8,4.3
		C410.3,458.2,408.7,460.2,406.2,460.2z M406.3,452.7c-1.3,0-2.4,0.9-2.4,3.1c0,2,0.8,3.1,2.4,3.1c1.3,0,2.4-1,2.4-3.1
		C408.7,453.8,407.9,452.7,406.3,452.7z"/>
	<path fill="#999999" d="M415.1,460.2c-1.8,0-2.3-0.7-2.3-2.6v-4.9H411v-1.2h1.8v-2.8l1.5-0.4v3.2h2.4v1.2h-2.4v4.4
		c0,1.4,0.3,1.8,1.2,1.8c0.4,0,0.8-0.1,1.1-0.1l0.2,1.3C416.3,460.1,415.7,460.2,415.1,460.2z"/>
	<path fill="#999999" d="M425.3,460.2c-1.8,0-2.3-0.7-2.3-2.6v-4.9h-1.8v-1.2h1.8v-2.8l1.5-0.4v3.2h2.4v1.2h-2.4v4.4
		c0,1.4,0.3,1.8,1.2,1.8c0.4,0,0.8-0.1,1.1-0.1l0.2,1.3C426.5,460.1,425.8,460.2,425.3,460.2z"/>
	<path fill="#999999" d="M434.7,460.1v-5.5c0-1.2-0.3-1.9-1.5-1.9c-1.4,0-2.4,1.4-2.4,3.3v2.9c0.5,0,1,0.1,1.4,0.2v0.9h-4.4v-0.9
		c0.4-0.1,0.9-0.2,1.4-0.2v-10.2c-0.4-0.1-1-0.1-1.5-0.2v-0.9c0.9-0.1,2-0.2,3-0.1v4.1c0,0.6,0,1.2-0.2,1.7l0,0
		c0.5-1.2,1.5-1.9,3-1.9c1.9,0,2.6,1.2,2.6,2.7v4.8c0.5,0,1,0.1,1.4,0.2v0.9h-2.8V460.1z"/>
	<path fill="#999999" d="M438.5,460.1v-0.9c0.4-0.1,1-0.2,1.5-0.2v-6.2c-0.4-0.1-1-0.1-1.5-0.2v-0.9c0.9-0.1,2-0.2,3-0.1v7.4
		c0.5,0,1,0.1,1.4,0.2v0.9H438.5z M440.8,449.8c-0.6,0-1-0.4-1-1s0.5-1,1-1c0.6,0,1,0.4,1,1S441.4,449.8,440.8,449.8z"/>
	<path fill="#999999" d="M446.3,460.2c-0.7,0-1.4-0.1-2-0.2v-2.4h0.9c0.1,0.4,0.2,0.9,0.2,1.4c0.3,0.1,0.7,0.1,1,0.1
		c1.2,0,1.9-0.5,1.9-1.3c0-1.9-4.3-0.8-4.3-3.8c0-1.5,1.2-2.6,3.4-2.6c0.6,0,1.3,0.1,2,0.2v2.3h-0.8c-0.1-0.4-0.2-0.9-0.2-1.3
		c-0.3-0.1-0.6-0.1-1-0.1c-1.2,0-1.7,0.5-1.7,1.3c0,1.9,4.3,0.9,4.3,3.7C450,459,448.6,460.2,446.3,460.2z"/>
	<path fill="#999999" d="M459,460.2c-1.2,0-2-0.1-2.9-0.3v-11.1c-0.4-0.1-1-0.1-1.5-0.2v-0.9c0.9-0.1,2-0.2,3-0.1v4.1
		c0,0.5-0.1,1.2-0.2,1.6l0,0c0.5-1.2,1.5-1.9,2.8-1.9c2,0,3.2,1.4,3.2,4C463.5,458.4,461.8,460.2,459,460.2z M460,452.6
		c-1.5,0-2.3,1.8-2.3,3.3v2.8c0.4,0.1,0.9,0.2,1.5,0.2c1.6,0,2.7-1,2.7-3.4C461.9,453.7,461.3,452.6,460,452.6z"/>
	<path fill="#999999" d="M464.7,460.1v-0.9c0.4-0.1,1-0.2,1.5-0.2v-6.2c-0.4-0.1-1-0.1-1.5-0.2v-0.9c0.9-0.1,2-0.2,3-0.1v7.4
		c0.5,0,1,0.1,1.4,0.2v0.9H464.7z M467,449.8c-0.6,0-1-0.4-1-1s0.5-1,1-1c0.6,0,1,0.4,1,1S467.6,449.8,467,449.8z"/>
	<path fill="#999999" d="M473.8,464.5c-2.2,0-3.6-0.9-3.6-2.6c0-1,0.7-1.8,1.4-2.3c-0.5-0.2-0.8-0.7-0.8-1.3s0.4-1.2,0.9-1.4
		c-0.8-0.5-1.3-1.2-1.3-2.4c0-1.7,1.3-3.2,3.6-3.2c0.5,0,0.8,0.1,1.2,0.2h2.9v1.2h-1.4c0.4,0.3,0.7,0.9,0.7,1.6
		c0,1.8-1.2,3.1-3.6,3.1c-0.3,0-0.6,0-0.9-0.1c-0.4,0.2-0.6,0.4-0.6,0.7c0,0.5,0.4,0.6,1.5,0.7l1.6,0.1c1.8,0.1,2.9,0.9,2.9,2.5
		C478.3,463,476.5,464.5,473.8,464.5z M475,460l-1.7-0.1c-0.2,0-0.4,0-0.5,0c-0.7,0.5-1.1,1-1.1,1.7c0,1,1,1.6,2.3,1.6
		c1.7,0,2.7-0.8,2.7-1.8C476.8,460.6,476.2,460.1,475,460z M474,452.5c-1.3,0-2,0.8-2,1.9c0,1.2,0.7,1.9,2,1.9c1.2,0,2-0.7,2-1.9
		C476,453.3,475.3,452.5,474,452.5z"/>
	<path fill="#999999" d="M480.4,463.7l-1.1-0.6c1.4-2.4,2.1-5.1,2.1-7.9c0-2.9-0.7-5.6-2.2-8l1.2-0.6c2,3.2,2.5,5.9,2.5,8.5
		C482.9,457.6,482.4,460.6,480.4,463.7z"/>
	<path fill="#999999" d="M486,460.2c-0.6,0-1.1-0.5-1.1-1.1s0.5-1.1,1.1-1.1s1.1,0.5,1.1,1.1S486.6,460.2,486,460.2z"/>
</g>
</svg>
