<?xml version="1.0" encoding="utf-8"?>
<!-- Generator: Adobe Illustrator 18.0.0, SVG Export Plug-In . SVG Version: 6.00 Build 0)  -->
<!DOCTYPE svg PUBLIC "-//W3C//DTD SVG 1.1//EN" "http://www.w3.org/Graphics/SVG/1.1/DTD/svg11.dtd">
<svg version="1.1" id="Layer_1" xmlns="http://www.w3.org/2000/svg" xmlns:xlink="http://www.w3.org/1999/xlink" x="0px" y="0px"
	 viewBox="-16.5 221 645 350" enable-background="new -16.5 221 645 350" xml:space="preserve">
<circle cx="51.6" cy="362.6" r="5.5"/>
<g enable-background="new    ">
	<path fill="#999999" d="M97.6,326.6c0-0.5,0-1.3,0.1-1.8l0,0c-0.5,1.2-1.5,2-3,2c-2,0-2.6-1.2-2.6-2.7v-4.8c-0.4-0.1-1-0.1-1.4-0.2
		v-0.9c0.8-0.1,2-0.2,3-0.1v5.5c0,1.2,0.3,1.9,1.5,1.9c1.4,0,2.4-1.4,2.4-3.3v-2.9c-0.4-0.1-0.9-0.1-1.4-0.2v-0.9
		c0.8-0.1,2-0.2,2.9-0.1v7.3c0.4,0.1,1,0.1,1.4,0.2v0.9C99.7,326.6,98.6,326.6,97.6,326.6z"/>
</g>
<g enable-background="new    ">
	<path d="M62,265.1v-1.4h5.4v1.4H62z"/>
	<path d="M73.7,271.2c-0.7,0-1.5-0.1-2.2-0.3l0.3-1.4c0.6,0.2,1.3,0.3,2.1,0.3c1.8,0,3-1,3-2.3c0-1.3-1-2.1-2.8-2.1
		c-0.6,0-1,0-1.5,0.1v-1.3H73c2.5,0,3.7-0.7,3.7-2.1c0-1.1-0.8-1.7-2.1-1.7c-0.9,0-1.7,0.3-2.4,0.7l-0.3-1.3c0.9-0.4,1.8-0.6,3-0.6
		c2.3,0,3.5,1.1,3.5,2.8c0,1.3-0.8,2.3-2.1,2.7l0,0c1.4,0.2,2.5,1.4,2.5,2.8C78.6,269.6,76.6,271.2,73.7,271.2z"/>
</g>
<polyline fill="#FFFFFF" stroke="#999999" stroke-width="1.3" points="99.2,306.1 103.3,310.3 99.2,314.5 "/>
<line fill="none" stroke="#999999" stroke-width="1.3" x1="103.3" y1="310.3" x2="87.5" y2="310.3"/>
<g enable-background="new    ">
	<path d="M34.8,324.3H33c1-3.7,2.6-7.3,4.2-10.3c-0.6,0-4.2,0-5.9,0v-1.5H39v1.3C37.2,317.1,35.6,320.8,34.8,324.3z"/>
</g>
<line fill="none" stroke="#999999" stroke-width="1.3" x1="83.3" y1="291.4" x2="57.6" y2="353.3"/>
<polyline fill="none" stroke="#999999" stroke-width="1.3" points="65.4,350.6 57.6,353.2 54.8,345.3 "/>
<g enable-background="new    ">
	<path fill="#999999" d="M501,386.7l-2.3,7.4H497l-1.7-5c-0.2-0.5-0.3-1.1-0.5-1.7l0,0c-0.2,0.8-0.4,1.4-0.6,2.2l-1.4,4.6H491
		l-2.2-7.4c-0.4,0-0.8-0.1-1.1-0.2v-0.9h3.9v0.9c-0.4,0.1-0.8,0.2-1.2,0.2l1,3.8c0.2,0.7,0.4,1.4,0.5,1.9l0,0
		c0.2-0.7,0.4-1.4,0.6-2.1l1.5-4.8h1.6l1.5,4.8c0.3,1,0.5,1.5,0.6,2.1l0,0c0.2-0.6,0.3-1.1,0.5-1.9l1.1-3.9c-0.4,0-0.8-0.1-1.2-0.2
		v-0.9h3.8v0.9C501.8,386.6,501.4,386.7,501,386.7z"/>
</g>
<polyline fill="#FFFFFF" stroke="#999999" stroke-width="1.3" points="498.2,373.7 502.4,377.9 498.2,382.1 "/>
<line fill="none" stroke="#999999" stroke-width="1.3" x1="502.4" y1="377.9" x2="486.5" y2="377.9"/>
<g enable-background="new    ">
	<path fill="#999999" d="M327.9,402l-2.3,7.4h-1.8l-1.7-5c-0.2-0.5-0.3-1.1-0.5-1.7l0,0c-0.2,0.8-0.4,1.4-0.6,2.2l-1.4,4.6h-1.8
		l-2.2-7.4c-0.4,0-0.8-0.1-1.1-0.2V401h3.9v0.9c-0.4,0.1-0.8,0.2-1.2,0.2l1,3.8c0.2,0.7,0.4,1.4,0.5,1.9l0,0
		c0.2-0.7,0.4-1.4,0.6-2.1l1.5-4.8h1.6l1.5,4.8c0.3,1,0.5,1.5,0.6,2.1l0,0c0.2-0.6,0.3-1.1,0.5-1.9l1.1-3.9c-0.4,0-0.8-0.1-1.2-0.2
		v-0.9h3.8v0.9C328.8,401.9,328.4,402,327.9,402z"/>
</g>
<polyline fill="#FFFFFF" stroke="#999999" stroke-width="1.3" points="325.1,389 329.4,393.2 325.1,397.4 "/>
<line fill="none" stroke="#999999" stroke-width="1.3" x1="329.4" y1="393.2" x2="313.4" y2="393.2"/>
<g enable-background="new    ">
	<path fill="#999999" d="M549,394.5c0-0.5,0-1.3,0.1-1.8l0,0c-0.5,1.2-1.5,2-3,2c-2,0-2.6-1.2-2.6-2.7v-4.8c-0.4-0.1-1-0.1-1.4-0.2
		v-0.9c0.8-0.1,2-0.2,3-0.1v5.5c0,1.2,0.3,1.9,1.5,1.9c1.4,0,2.4-1.4,2.4-3.3v-2.9c-0.4-0.1-0.9-0.1-1.4-0.2v-0.9
		c0.8-0.1,2-0.2,2.9-0.1v7.3c0.4,0.1,1,0.1,1.4,0.2v0.9C551.1,394.5,549.9,394.5,549,394.5z"/>
</g>
<polyline fill="#FFFFFF" stroke="#999999" stroke-width="1.3" points="550.6,374 554.8,378.2 550.6,382.4 "/>
<line fill="none" stroke="#999999" stroke-width="1.3" x1="554.8" y1="378.2" x2="538.9" y2="378.2"/>
<g enable-background="new    ">
	<path d="M591.2,388.2c0,1.3-0.9,2.4-2.2,2.9l0,0c1.5,0.3,2.4,1.4,2.4,2.8c0,2.3-1.9,3.9-4.7,3.9c-0.5,0-1.1-0.1-1.5-0.2l0.2-1.4
		c0.4,0.1,1,0.2,1.5,0.2c1.7,0,2.9-0.9,2.9-2.3c0-1.7-1.6-2.3-4-2v-1.3c2.4,0,3.8-0.9,3.8-2.4c0-1.1-0.7-1.8-1.9-1.8
		c-0.4,0-0.8,0.1-1.1,0.2c0,0.4-0.1,0.9-0.2,1.4h-0.9v-2.4c0.7-0.3,1.5-0.5,2.5-0.5C590.2,385.4,591.2,386.6,591.2,388.2z"/>
</g>
<text transform="matrix(1 0 0 1 518.1393 395.1157)" font-family="'TheSerif-HP5Plain'" font-size="17.2125">=</text>
<text transform="matrix(1 0 0 1 565.5533 395.1157)" font-family="'TheSerif-HP5Plain'" font-size="17.2125">*</text>
<line fill="none" stroke="#000000" stroke-width="1.3" stroke-dasharray="6,6" x1="53.7" y1="283.2" x2="87.8" y2="283.2"/>
<line fill="none" stroke="#000000" stroke-width="1.3" stroke-dasharray="6,6" x1="51.3" y1="283.1" x2="51.3" y2="366.1"/>
<circle cx="242.8" cy="523.3" r="5.5"/>
<g enable-background="new    ">
	<path d="M283.9,267.1v-1.4h5.4v1.4H283.9z"/>
	<path d="M294.8,273.2c-0.5,0-1,0-1.5-0.1l0.1-1.4c0.5,0.1,1.1,0.2,1.6,0.2c2.2,0,3.6-1.4,4-3.6c0.1-0.3,0.1-0.6,0.1-0.8l0,0
		c-0.6,0.8-1.5,1.3-2.7,1.3c-2.2,0-3.4-1.4-3.4-3.6c0-2.4,1.6-4,3.9-4c2.2,0,3.9,1.4,3.9,4.9C300.8,271,298.1,273.2,294.8,273.2z
		 M296.8,262.4c-1.3,0-2.2,1.1-2.2,2.5c0,1.4,0.8,2.4,2.2,2.4c1.5,0,2.3-1.1,2.3-2.3C298.9,263.5,298.1,262.4,296.8,262.4z"/>
</g>
<g enable-background="new    ">
	<path d="M213.4,409v-1.3l2.5-2.2c2.2-1.8,2.7-2.6,2.7-3.7c0-1.1-0.7-1.9-2.1-1.9c-1,0-1.9,0.5-2.5,0.9l-0.3-1.4
		c0.9-0.6,1.9-0.9,3.1-0.9c2.3,0,3.5,1.3,3.5,3.1c0,1.5-0.8,2.6-2.7,4.2l-2.1,1.8h-0.1c0.8-0.1,2.7-0.1,5.2-0.1v1.5H213.4z"/>
	<path d="M224.1,409v-1.4h3.1v-7.2l-3,1.9l-0.6-1.3l3.8-2.3h1.3v9h2.7v1.4h-7.3V409z"/>
</g>
<circle cx="345.8" cy="283.2" r="5.5"/>
<line fill="none" stroke="#999999" stroke-width="1.3" x1="342.2" y1="291.8" x2="250.3" y2="513.3"/>
<polyline fill="none" stroke="#999999" stroke-width="1.3" points="258.4,510.7 250.4,513.4 247.8,505.5 "/>
<polyline fill="none" stroke="#999999" stroke-width="1.3" points="318.9,363.1 310.9,365.8 308.2,357.9 "/>
<polyline fill="none" stroke="#999999" stroke-width="1.3" points="288.5,437.3 280.6,440 277.9,432 "/>
<line fill="none" stroke="#000000" stroke-width="1.3" stroke-dasharray="6,6" x1="244.8" y1="283.2" x2="345.6" y2="283.2"/>
<line fill="none" stroke="#000000" stroke-width="1.3" stroke-dasharray="6,6" x1="242.5" y1="283.1" x2="242.5" y2="516.7"/>
<circle cx="85.7" cy="283.2" r="5.5"/>
</svg>
