<?xml version="1.0" encoding="utf-8"?>
<!-- Generator: Adobe Illustrator 18.0.0, SVG Export Plug-In . SVG Version: 6.00 Build 0)  -->
<!DOCTYPE svg PUBLIC "-//W3C//DTD SVG 1.1//EN" "http://www.w3.org/Graphics/SVG/1.1/DTD/svg11.dtd">
<svg version="1.1" id="Layer_1" xmlns="http://www.w3.org/2000/svg" xmlns:xlink="http://www.w3.org/1999/xlink" x="0px" y="0px"
	 viewBox="-16.5 320.5 645 151" enable-background="new -16.5 320.5 645 151" xml:space="preserve">
<g enable-background="new    ">
	<path d="M18.2,391.9c-0.7,0-1.5-0.1-2.2-0.3l0.3-1.4c0.6,0.2,1.3,0.3,2.1,0.3c1.8,0,3-1,3-2.3s-1-2.1-2.8-2.1c-0.6,0-1.1,0-1.5,0.1
		v-1.3h0.4c2.5,0,3.7-0.7,3.7-2.1c0-1.1-0.8-1.7-2.1-1.7c-0.9,0-1.7,0.3-2.4,0.7l-0.3-1.3c0.9-0.4,1.8-0.6,3-0.6
		c2.3,0,3.5,1.1,3.5,2.8c0,1.3-0.8,2.3-2.1,2.7l0,0c1.4,0.2,2.5,1.4,2.5,2.8C23.1,390.2,21.1,391.9,18.2,391.9z"/>
</g>
<g enable-background="new    ">
	<path d="M82.4,444.2v2.9h-1.5v-2.9h-5.3l-0.1-1.3l4.8-7.6h2.2v7.5h2v1.4L82.4,444.2L82.4,444.2z M80.9,436.8L80.9,436.8l-3.9,6.1
		c1,0,3.2,0,3.9,0V436.8z"/>
</g>
<g enable-background="new    ">
	<path fill="#999999" d="M102.1,378.5c-0.6,0-1.3-0.1-1.9-0.2l0.1-1.4c0.6,0.2,1.4,0.2,1.9,0.2c2.1,0,3.2-1.2,3.2-2.6
		c0-1.5-1.2-2.3-3.1-2.3c-0.7,0-1.3,0.1-1.8,0.1v-5.9h6.1v1.5H102v3c0.3,0,0.6,0,0.8,0c2.8,0,4.3,1.5,4.3,3.3
		C107.2,376.7,105.2,378.5,102.1,378.5z"/>
	<path fill="#999999" d="M122.9,380.5c-2-3.2-2.5-6-2.5-8.5s0.6-5.5,2.5-8.6l1.1,0.5c-1.4,2.4-2.1,5.1-2.1,7.9c0,2.9,0.7,5.6,2.2,8
		L122.9,380.5z"/>
	<path fill="#999999" d="M137,376.9v-5.5c0-1.2-0.3-1.9-1.4-1.9c-1.2,0-2.4,1.3-2.4,3.4v2.9c0.5,0,1,0.1,1.4,0.2v0.9h-2.9v-5.5
		c0-1.1-0.2-1.9-1.4-1.9c-1.3,0-2.4,1.4-2.4,3.4v2.9c0.5,0,1,0.1,1.4,0.2v0.9h-4.4V376c0.4-0.1,1-0.2,1.5-0.2v-6.2
		c-0.4-0.1-1-0.1-1.5-0.2v-0.9c0.9-0.1,2.1-0.2,3-0.1c0,0.5-0.1,1.3-0.1,1.8l0,0c0.5-1.2,1.6-2,3-2c1.8,0,2.3,1.2,2.4,1.9
		c0.3-0.8,1.3-1.9,2.9-1.9c1.6,0,2.5,0.9,2.5,2.8v4.8c0.5,0,1,0.1,1.4,0.2v0.9L137,376.9L137,376.9z"/>
	<path fill="#999999" d="M146.2,376.9c0-0.6,0-1.2,0.1-1.7l0,0c-0.4,1-1.5,1.9-2.9,1.9s-2.4-0.9-2.4-2.3c0-1.8,1.9-2.9,5.1-2.9v-0.6
		c0-1.2-0.4-1.9-1.8-1.9c-0.5,0-1.1,0.1-1.6,0.2c0,0.4-0.1,0.9-0.2,1.4h-1v-2.3c0.9-0.3,1.9-0.5,2.9-0.5c2.5,0,3.2,1.2,3.2,2.9v4.6
		c0.4,0.1,1,0.1,1.4,0.2v0.9C148.3,376.9,147.1,376.9,146.2,376.9z M146.1,372.9c-2.7,0-3.6,0.7-3.6,1.6c0,0.7,0.5,1.3,1.3,1.3
		c1.4,0,2.3-1.4,2.3-2.7V372.9z"/>
	<path fill="#999999" d="M153.7,381.2c-2.2,0-3.6-0.9-3.6-2.6c0-1,0.7-1.8,1.4-2.3c-0.5-0.2-0.8-0.7-0.8-1.3s0.4-1.2,0.9-1.4
		c-0.8-0.5-1.3-1.2-1.3-2.4c0-1.7,1.3-3.2,3.6-3.2c0.5,0,0.8,0.1,1.2,0.2h2.9v1.2h-1.4c0.4,0.3,0.7,0.9,0.7,1.6
		c0,1.8-1.2,3.1-3.6,3.1c-0.3,0-0.6,0-0.9-0.1c-0.4,0.2-0.6,0.4-0.6,0.7c0,0.5,0.4,0.6,1.5,0.7l1.6,0.1c1.8,0.1,2.9,0.9,2.9,2.5
		C158.3,379.8,156.4,381.2,153.7,381.2z M154.9,376.8l-1.7-0.1c-0.2,0-0.4,0-0.5,0c-0.7,0.5-1.1,1-1.1,1.7c0,1,1,1.6,2.3,1.6
		c1.7,0,2.7-0.8,2.7-1.8C156.7,377.4,156.1,376.9,154.9,376.8z M154,369.2c-1.3,0-2,0.8-2,1.9c0,1.2,0.7,1.9,2,1.9
		c1.2,0,2-0.7,2-1.9C155.9,370.1,155.2,369.2,154,369.2z"/>
	<path fill="#999999" d="M166.2,376.9v-5.5c0-1.2-0.3-1.9-1.4-1.9c-1.4,0-2.4,1.4-2.4,3.3v2.9c0.5,0,1,0.1,1.4,0.2v0.9h-4.4v-0.9
		c0.4-0.1,1-0.2,1.5-0.2v-6.2c-0.4-0.1-1-0.1-1.5-0.2v-0.9c0.9-0.1,2-0.2,3-0.1c0,0.5,0,1.3-0.1,1.8l0,0c0.5-1.2,1.6-2,3-2
		c1.9,0,2.6,1.2,2.6,2.7v4.8c0.5,0,1,0.1,1.4,0.2v0.9h-3.1V376.9z"/>
	<path fill="#999999" d="M170,376.9V376c0.4-0.1,1-0.2,1.5-0.2v-6.2c-0.4-0.1-1-0.1-1.5-0.2v-0.9c0.9-0.1,2-0.2,3-0.1v7.4
		c0.5,0,1,0.1,1.4,0.2v0.9H170z M172.3,366.6c-0.6,0-1-0.4-1-1s0.5-1,1-1c0.6,0,1,0.4,1,1S172.8,366.6,172.3,366.6z"/>
	<path fill="#999999" d="M178.8,377c-1.8,0-2.3-0.7-2.3-2.6v-4.9h-1.8v-1.2h1.8v-2.8l1.5-0.4v3.2h2.4v1.2H178v4.4
		c0,1.4,0.3,1.8,1.2,1.8c0.4,0,0.8-0.1,1.1-0.1l0.2,1.3C180,376.9,179.3,377,178.8,377z"/>
	<path fill="#999999" d="M188.3,376.9c0-0.5,0-1.3,0.1-1.8l0,0c-0.5,1.2-1.5,2-3,2c-2,0-2.6-1.2-2.6-2.7v-4.8
		c-0.4-0.1-1-0.1-1.4-0.2v-0.9c0.8-0.1,2-0.2,3-0.1v5.5c0,1.2,0.3,1.9,1.5,1.9c1.4,0,2.4-1.4,2.4-3.3v-2.9c-0.4-0.1-0.9-0.1-1.4-0.2
		v-0.9c0.8-0.1,2-0.2,2.9-0.1v7.3c0.4,0.1,1,0.1,1.4,0.2v0.9C190.4,376.9,189.2,376.9,188.3,376.9z"/>
	<path fill="#999999" d="M198.2,376.9c0-0.5,0-1.2,0.1-1.7l0,0c-0.5,1.2-1.5,1.9-2.9,1.9c-2.1,0-3.1-1.5-3.1-4c0-3,1.7-4.8,4.4-4.8
		c0.5,0,0.9,0,1.4,0.1v-2.8c-0.4-0.1-1-0.1-1.5-0.2v-0.9c0.9-0.1,2-0.2,3-0.1v11.3c0.4,0.1,1,0.1,1.4,0.2v0.9
		C200.3,376.9,199.1,376.9,198.2,376.9z M198.1,369.6c-0.5-0.1-1-0.2-1.5-0.2c-1.6,0-2.7,1-2.7,3.4c0,1.8,0.6,2.9,1.9,2.9
		c1.5,0,2.3-1.8,2.3-3.3V369.6z"/>
	<path fill="#999999" d="M209.2,372.6h-5.6c-0.1,2.2,0.8,3.2,2.7,3.2c0.8,0,1.7-0.2,2.4-0.5l0.2,1.2c-0.9,0.3-1.9,0.5-3,0.5
		c-2.6,0-4-1.4-4-4.4c0-2.5,1.4-4.5,3.9-4.5c2.4,0,3.4,1.6,3.4,3.5C209.3,371.9,209.3,372.2,209.2,372.6z M205.8,369.2
		c-1.1,0-1.9,0.8-2.1,2.1h4C207.7,370.2,207,369.2,205.8,369.2z"/>
	<path fill="#999999" d="M211.6,380.5l-1.1-0.6c1.4-2.4,2.1-5.1,2.1-7.9c0-2.9-0.7-5.6-2.2-8l1.2-0.6c2,3.2,2.5,5.9,2.5,8.5
		C214.2,374.4,213.6,377.4,211.6,380.5z"/>
</g>
<line fill="none" stroke="#999999" stroke-width="1.3" x1="45.3" y1="358.2" x2="117.5" y2="417.1"/>
<line fill="none" stroke="#000000" stroke-width="1.3" x1="32.4" y1="425.5" x2="127.5" y2="425.5"/>
<polyline fill="none" stroke="#999999" stroke-width="1.3" points="117.6,409.1 117.5,417.5 109.1,417.4 "/>
<circle cx="34.7" cy="350.2" r="5.5"/>
<line fill="none" stroke="#000000" stroke-width="1.3" x1="32.7" y1="353.5" x2="32.7" y2="424.9"/>
<polyline fill="none" stroke="#000000" stroke-width="1.3" points="49.7,425.5 49.7,409.1 33.3,409.1 "/>
<circle cx="126.1" cy="425.2" r="5.5"/>
<g enable-background="new    ">
	<path d="M462.1,393.8c-0.7,0-1.5-0.1-2.2-0.3l0.3-1.4c0.6,0.2,1.3,0.3,2.1,0.3c1.8,0,3-1,3-2.3s-1-2.1-2.8-2.1
		c-0.6,0-1.1,0-1.5,0.1v-1.3h0.4c2.5,0,3.7-0.7,3.7-2.1c0-1.1-0.8-1.7-2.1-1.7c-0.9,0-1.7,0.3-2.4,0.7l-0.3-1.3
		c0.9-0.4,1.8-0.6,3-0.6c2.3,0,3.5,1.1,3.5,2.8c0,1.3-0.8,2.3-2.1,2.7l0,0c1.4,0.2,2.5,1.4,2.5,2.8C467,392.2,465,393.8,462.1,393.8
		z"/>
	<path d="M471.2,394.2l-1.3-0.5l6.7-15.2l1.3,0.5L471.2,394.2z"/>
	<path d="M482.7,393.8c-0.6,0-1.3-0.1-1.9-0.2l0.1-1.4c0.6,0.2,1.4,0.2,1.9,0.2c2.1,0,3.2-1.2,3.2-2.6c0-1.5-1.2-2.3-3.1-2.3
		c-0.7,0-1.3,0.1-1.8,0.1v-5.9h6.1v1.5h-4.6v3c0.3,0,0.6,0,0.8,0c2.8,0,4.3,1.5,4.3,3.3C487.7,392,485.7,393.8,482.7,393.8z"/>
</g>
<g enable-background="new    ">
	<path d="M538.7,444.2v2.9h-1.5v-2.9h-5.3l-0.1-1.3l4.8-7.6h2.2v7.5h2v1.4L538.7,444.2L538.7,444.2z M537.2,436.8L537.2,436.8
		l-3.9,6.1c1,0,3.2,0,3.9,0V436.8z"/>
	<path d="M543.9,447.8l-1.3-0.5l6.7-15.2l1.3,0.5L543.9,447.8z"/>
	<path d="M555.4,447.2c-0.6,0-1.3-0.1-1.9-0.2l0.1-1.4c0.6,0.2,1.4,0.2,1.9,0.2c2.1,0,3.2-1.2,3.2-2.6c0-1.5-1.2-2.3-3.1-2.3
		c-0.7,0-1.3,0.1-1.8,0.1v-5.9h6.1v1.5h-4.6v3c0.3,0,0.6,0,0.8,0c2.8,0,4.3,1.5,4.3,3.3C560.5,445.5,558.4,447.2,555.4,447.2z"/>
</g>
<g enable-background="new    ">
	<path fill="#999999" d="M557.3,396.6c-0.6,0-1.3-0.1-1.9-0.2l0.1-1.4c0.6,0.2,1.4,0.2,1.9,0.2c2.1,0,3.2-1.2,3.2-2.6
		c0-1.5-1.2-2.3-3.1-2.3c-0.7,0-1.3,0.1-1.8,0.1v-5.7h6.1v1.5h-4.6v3c0.3,0,0.6,0,0.8,0c2.8,0,4.3,1.5,4.3,3.3
		C562.4,394.8,560.3,396.6,557.3,396.6z"/>
	<path fill="#999999" d="M566.5,397.1l-1.3-0.5l6.7-15.2l1.3,0.5L566.5,397.1z"/>
	<path fill="#999999" d="M578,396.6c-0.6,0-1.3-0.1-1.9-0.2l0.1-1.4c0.6,0.2,1.4,0.2,1.9,0.2c2.1,0,3.2-1.2,3.2-2.6
		c0-1.5-1.2-2.3-3.1-2.3c-0.7,0-1.3,0.1-1.8,0.1v-5.7h6.1v1.5h-4.6v3c0.3,0,0.6,0,0.8,0c2.8,0,4.3,1.5,4.3,3.3
		C583,394.8,581,396.6,578,396.6z"/>
	<path fill="#999999" d="M586,389v-1.3h7.6v1.3H586z M586,391.9v-1.2h7.6v1.3L586,391.9L586,391.9z"/>
	<path fill="#999999" d="M596.8,395v-1.4h3.2v-7.2l-3,1.9l-0.6-1.3l3.8-2.3h1.3v9h2.7v1.4h-7.4V395z"/>
</g>
<line fill="none" stroke="#999999" stroke-width="1.3" x1="511.3" y1="384.2" x2="555.6" y2="420.1"/>
<line fill="none" stroke="#000000" stroke-width="1.3" x1="501" y1="425.5" x2="562" y2="425.5"/>
<polyline fill="none" stroke="#999999" stroke-width="1.3" points="555.6,412 555.5,420.4 547,420.2 "/>
<circle cx="503.2" cy="379" r="5.5"/>
<line fill="none" stroke="#000000" stroke-width="1.3" x1="501.1" y1="379.2" x2="501.1" y2="425.1"/>
<polyline fill="none" stroke="#000000" stroke-width="1.3" points="512,425.5 512,415 501.5,415 "/>
<circle cx="566" cy="425.2" r="5.5"/>
<g enable-background="new    ">
	<path d="M277.5,383.2v10.4h-2.1l-4.5-7.3c-0.5-0.8-1-1.7-1.3-2.5c0.1,2,0.1,5,0.1,8.7c0.5,0,1,0.1,1.4,0.2v0.9h-4.4v-0.9
		c0.4-0.1,1-0.2,1.5-0.2v-9.3c-0.5,0-1-0.1-1.5-0.2V382h3.6l4.4,7.2c0.5,0.8,1,1.7,1.4,2.5c-0.1-2-0.1-5-0.1-8.6
		c-0.5,0-0.9-0.1-1.3-0.2V382h4.1v0.9C278.3,383,277.9,383.1,277.5,383.2z"/>
	<path d="M283.7,393.8c-2.3,0-3.8-1.3-3.8-4.3c0-2.6,1.6-4.6,4.2-4.6c2.2,0,3.8,1.2,3.8,4.3C287.9,391.8,286.3,393.8,283.7,393.8z
		 M283.9,386.2c-1.3,0-2.4,0.9-2.4,3.1c0,2,0.8,3.1,2.4,3.1c1.3,0,2.4-1,2.4-3.1C286.3,387.4,285.4,386.2,283.9,386.2z"/>
	<path d="M295,386.5c-2-0.3-2.8,1-2.8,3.7v2.3c0.5,0,1.1,0.1,1.5,0.2v0.9h-4.5v-0.9c0.4-0.1,1-0.2,1.5-0.2v-6.2
		c-0.4-0.1-1-0.1-1.5-0.2v-0.9c0.9-0.1,2-0.2,3-0.1c0,0.5-0.1,1.3-0.2,2l0,0c0.4-1.2,1.2-2.4,3.1-2.2L295,386.5z"/>
	<path d="M308,393.6v-5.5c0-1.2-0.3-1.9-1.4-1.9c-1.2,0-2.4,1.3-2.4,3.4v2.9c0.5,0,1,0.1,1.4,0.2v0.9h-2.9v-5.5
		c0-1.1-0.2-1.9-1.4-1.9c-1.3,0-2.4,1.4-2.4,3.4v2.9c0.5,0,1,0.1,1.4,0.2v0.9h-4.4v-0.9c0.4-0.1,1-0.2,1.5-0.2v-6.2
		c-0.4-0.1-1-0.1-1.5-0.2v-0.9c0.9-0.1,2.1-0.2,3-0.1c0,0.5-0.1,1.3-0.1,1.8l0,0c0.5-1.2,1.6-2,3-2c1.8,0,2.3,1.2,2.4,1.9
		c0.3-0.8,1.3-1.9,2.9-1.9s2.5,0.9,2.5,2.8v4.8c0.5,0,1,0.1,1.4,0.2v0.9L308,393.6L308,393.6z"/>
	<path d="M317.2,393.6c0-0.6,0-1.2,0.1-1.7l0,0c-0.4,1-1.5,1.9-2.9,1.9s-2.4-0.9-2.4-2.3c0-1.8,1.9-2.9,5.1-2.9V388
		c0-1.2-0.4-1.9-1.8-1.9c-0.5,0-1.1,0.1-1.6,0.2c0,0.4-0.1,0.9-0.2,1.4h-1v-2.3c0.9-0.3,1.9-0.5,2.9-0.5c2.5,0,3.2,1.2,3.2,2.9v4.6
		c0.4,0.1,1,0.1,1.4,0.2v0.9C319.3,393.6,318.1,393.7,317.2,393.6z M317.1,389.7c-2.7,0-3.6,0.7-3.6,1.6c0,0.7,0.5,1.3,1.3,1.3
		c1.4,0,2.3-1.4,2.3-2.7L317.1,389.7L317.1,389.7z"/>
	<path d="M320.7,393.6v-0.9c0.4-0.1,0.9-0.2,1.4-0.2v-10.2c-0.4-0.1-1-0.1-1.5-0.2v-0.9c0.9-0.1,2-0.2,3-0.1v11.4
		c0.5,0,1,0.1,1.4,0.2v0.9H320.7z"/>
	<path d="M326,393.6v-0.9c0.4-0.1,1-0.2,1.5-0.2v-6.2c-0.4-0.1-1-0.1-1.5-0.2v-0.9c0.9-0.1,2-0.2,3-0.1v7.4c0.5,0,1,0.1,1.4,0.2v0.9
		H326z M328.2,383.4c-0.6,0-1-0.4-1-1s0.5-1,1-1c0.6,0,1,0.4,1,1C329.3,382.9,328.8,383.4,328.2,383.4z"/>
	<path d="M331.5,393.6v-1.1l4.4-6.2c-0.5,0-1.3,0-2.1,0h-1c-0.1,0.4-0.1,0.8-0.2,1.3h-1v-2.5h6v1.1l-4.3,6.2c0.5,0,1.4,0,2.1,0h1.1
		c0.1-0.4,0.1-0.9,0.2-1.3h1v2.6L331.5,393.6L331.5,393.6z"/>
	<path d="M344.5,393.6c0-0.6,0-1.2,0.1-1.7l0,0c-0.4,1-1.5,1.9-2.9,1.9s-2.4-0.9-2.4-2.3c0-1.8,1.9-2.9,5.1-2.9V388
		c0-1.2-0.4-1.9-1.8-1.9c-0.5,0-1.1,0.1-1.6,0.2c0,0.4-0.1,0.9-0.2,1.4h-1v-2.3c0.9-0.3,1.9-0.5,2.9-0.5c2.5,0,3.2,1.2,3.2,2.9v4.6
		c0.4,0.1,1,0.1,1.4,0.2v0.9C346.6,393.6,345.4,393.7,344.5,393.6z M344.4,389.7c-2.7,0-3.6,0.7-3.6,1.6c0,0.7,0.5,1.3,1.3,1.3
		c1.4,0,2.3-1.4,2.3-2.7L344.4,389.7L344.4,389.7z"/>
	<path d="M351.6,393.8c-1.8,0-2.3-0.7-2.3-2.6v-4.9h-1.8V385h1.8v-2.8l1.5-0.4v3.2h2.4v1.2h-2.3v4.4c0,1.4,0.3,1.8,1.2,1.8
		c0.4,0,0.8-0.1,1.1-0.1l0.2,1.3C352.8,393.7,352.1,393.8,351.6,393.8z"/>
	<path d="M354.4,393.6v-0.9c0.4-0.1,1-0.2,1.5-0.2v-6.2c-0.4-0.1-1-0.1-1.5-0.2v-0.9c0.9-0.1,2-0.2,3-0.1v7.4c0.5,0,1,0.1,1.4,0.2
		v0.9H354.4z M356.7,383.4c-0.6,0-1-0.4-1-1s0.5-1,1-1c0.6,0,1,0.4,1,1C357.7,382.9,357.2,383.4,356.7,383.4z"/>
	<path d="M363.5,393.8c-2.3,0-3.8-1.3-3.8-4.3c0-2.6,1.6-4.6,4.2-4.6c2.2,0,3.8,1.2,3.8,4.3C367.7,391.8,366.1,393.8,363.5,393.8z
		 M363.7,386.2c-1.3,0-2.4,0.9-2.4,3.1c0,2,0.8,3.1,2.4,3.1c1.3,0,2.4-1,2.4-3.1C366.1,387.4,365.2,386.2,363.7,386.2z"/>
	<path d="M375.8,393.6v-5.5c0-1.2-0.3-1.9-1.4-1.9c-1.4,0-2.4,1.4-2.4,3.3v2.9c0.5,0,1,0.1,1.4,0.2v0.9h-4.5v-0.8
		c0.4-0.1,1-0.2,1.5-0.2v-6.2c-0.4-0.1-1-0.1-1.5-0.2v-0.9c0.9-0.1,2-0.2,3-0.1c0,0.5,0,1.3-0.1,1.8l0,0c0.5-1.2,1.6-2,3-2
		c1.9,0,2.6,1.2,2.6,2.7v4.8c0.5,0,1,0.1,1.4,0.2v0.9h-3V393.6z"/>
</g>
<g enable-background="new    ">
	<path fill="#999999" d="M237.6,417.9c-2-3.2-2.5-6-2.5-8.5s0.6-5.5,2.5-8.6l1.1,0.5c-1.4,2.4-2.1,5.1-2.1,7.9c0,2.9,0.7,5.6,2.2,8
		L237.6,417.9z"/>
	<path fill="#999999" d="M244,414.4c-1.2,0-2.3-0.1-2.9-0.1h-1.5v-0.9c0.4-0.1,1-0.2,1.5-0.2v-9.3c-0.5,0-1.1-0.1-1.5-0.2v-1h1.5
		c0.9,0,2.2-0.1,3.5-0.1c3.7,0,6,1.7,6,5.7C250.4,412.2,247.8,414.4,244,414.4z M244.4,403.9c-0.6,0-1.3,0-1.8,0.1v9
		c0.4,0.1,1.1,0.1,1.5,0.1c2.7,0,4.6-1.4,4.6-4.6C248.8,405.5,247.4,403.9,244.4,403.9z"/>
	<path fill="#999999" d="M251.7,414.2v-0.9c0.4-0.1,1-0.2,1.5-0.2v-6.2c-0.4-0.1-1-0.1-1.5-0.2v-0.9c0.9-0.1,2-0.2,3-0.1v7.4
		c0.5,0,1,0.1,1.4,0.2v0.9H251.7z M254,404c-0.6,0-1-0.4-1-1s0.5-1,1-1c0.6,0,1,0.4,1,1C255,403.6,254.6,404,254,404z"/>
	<path fill="#999999" d="M264.2,406.9l-2.7,7.4h-1.9l-2.7-7.4c-0.4,0-0.8-0.1-1.1-0.2v-1h4v0.9c-0.4,0.1-0.8,0.2-1.2,0.2l1.4,4.2
		c0.2,0.6,0.4,1.1,0.5,1.7l0,0c0.2-0.6,0.3-1.1,0.5-1.6l1.5-4.2c-0.4,0-0.8-0.1-1.2-0.2v-1h3.9v0.9
		C265,406.8,264.6,406.8,264.2,406.9z"/>
	<path fill="#999999" d="M265.9,414.2v-0.9c0.4-0.1,1-0.2,1.5-0.2v-6.2c-0.4-0.1-1-0.1-1.5-0.2v-0.9c0.9-0.1,2-0.2,3-0.1v7.4
		c0.5,0,1,0.1,1.4,0.2v0.9H265.9z M268.2,404c-0.6,0-1-0.4-1-1s0.5-1,1-1c0.6,0,1,0.4,1,1C269.2,403.6,268.7,404,268.2,404z"/>
	<path fill="#999999" d="M277.3,414.2c0-0.5,0-1.2,0.1-1.7l0,0c-0.5,1.2-1.5,1.9-2.9,1.9c-2.1,0-3.1-1.5-3.1-4c0-3,1.7-4.8,4.4-4.8
		c0.5,0,0.9,0,1.4,0.1V403c-0.4-0.1-1-0.1-1.5-0.2v-0.9c0.9-0.1,2-0.2,3-0.1V413c0.4,0.1,1,0.1,1.4,0.2v0.9
		C279.5,414.2,278.3,414.2,277.3,414.2z M277.3,407c-0.5-0.1-1-0.2-1.5-0.2c-1.6,0-2.7,1-2.7,3.4c0,1.8,0.6,2.9,1.9,2.9
		c1.5,0,2.3-1.8,2.3-3.3L277.3,407L277.3,407z"/>
	<path fill="#999999" d="M288.4,410h-5.6c-0.1,2.2,0.8,3.2,2.7,3.2c0.8,0,1.7-0.2,2.4-0.5l0.2,1.2c-0.9,0.3-1.9,0.5-3,0.5
		c-2.6,0-4-1.4-4-4.4c0-2.5,1.4-4.5,3.9-4.5c2.4,0,3.4,1.6,3.4,3.5C288.4,409.2,288.4,409.6,288.4,410z M285,406.8
		c-1.1,0-1.9,0.8-2.1,2.1h4C286.9,407.6,286.2,406.8,285,406.8z"/>
	<path fill="#999999" d="M297.4,414.4c-1.2,0-2-0.1-2.9-0.3V403c-0.4-0.1-1-0.1-1.5-0.2v-0.9c0.9-0.1,2-0.2,3-0.1v4.1
		c0,0.5-0.1,1.2-0.2,1.6l0,0c0.5-1.2,1.5-1.9,2.8-1.9c2,0,3.1,1.4,3.1,4C301.9,412.6,300.2,414.4,297.4,414.4z M298.4,406.9
		c-1.5,0-2.3,1.8-2.3,3.3v2.8c0.4,0.1,0.9,0.2,1.5,0.2c1.6,0,2.7-1,2.7-3.4C300.3,407.9,299.7,406.9,298.4,406.9z"/>
	<path fill="#999999" d="M311.1,406.9l-3,8.3c-0.9,2.6-1.8,3.5-3.7,3.5c-0.3,0-0.8,0-1.2-0.1l0.1-1.4c0.4,0.1,0.7,0.2,1.1,0.2
		c0.9,0,1.5-0.5,2.1-2.1l0.4-1h-0.4l-2.6-7.4c-0.4,0-0.8-0.1-1.1-0.2v-1h3.9v0.9c-0.3,0.1-0.7,0.2-1.1,0.2l1.3,3.7
		c0.3,0.8,0.5,1.4,0.7,2.1l0,0c0.1-0.6,0.5-1.6,0.8-2.5l1.2-3.3c-0.4,0-0.8-0.1-1.1-0.2v-0.9h3.8v0.9
		C311.8,406.8,311.4,406.8,311.1,406.9z"/>
	<path fill="#999999" d="M328.7,414.2v-5.5c0-1.2-0.3-1.9-1.4-1.9c-1.2,0-2.4,1.3-2.4,3.4v2.9c0.5,0,1,0.1,1.4,0.2v0.9h-2.9v-5.5
		c0-1.1-0.2-1.9-1.4-1.9c-1.3,0-2.4,1.4-2.4,3.4v2.9c0.5,0,1,0.1,1.4,0.2v0.9h-4.4v-0.9c0.4-0.1,1-0.2,1.5-0.2V407
		c-0.4-0.1-1-0.1-1.5-0.2v-0.9c0.9-0.1,2.1-0.2,3-0.1c0,0.5-0.1,1.3-0.1,1.8l0,0c0.5-1.2,1.6-2,3-2c1.8,0,2.3,1.2,2.4,1.9
		c0.3-0.8,1.3-1.9,2.9-1.9s2.5,0.9,2.5,2.8v4.8c0.5,0,1,0.1,1.4,0.2v0.9L328.7,414.2L328.7,414.2z"/>
	<path fill="#999999" d="M337.9,414.2c0-0.6,0-1.2,0.1-1.7l0,0c-0.4,1-1.5,1.9-2.9,1.9s-2.4-0.9-2.4-2.3c0-1.8,1.9-2.9,5.1-2.9v-0.6
		c0-1.2-0.4-1.9-1.8-1.9c-0.5,0-1.1,0.1-1.6,0.2c0,0.4-0.1,0.9-0.2,1.4h-1v-2.3c0.9-0.3,1.9-0.5,2.9-0.5c2.5,0,3.2,1.2,3.2,2.9v4.6
		c0.4,0.1,1,0.1,1.4,0.2v0.9C340,414.2,338.8,414.2,337.9,414.2z M337.8,410.2c-2.7,0-3.6,0.7-3.6,1.6c0,0.7,0.5,1.3,1.3,1.3
		c1.4,0,2.3-1.4,2.3-2.7L337.8,410.2L337.8,410.2z"/>
	<path fill="#999999" d="M345.4,418.7c-2.2,0-3.6-0.9-3.6-2.6c0-1,0.7-1.8,1.4-2.3c-0.5-0.2-0.8-0.7-0.8-1.3s0.4-1.2,0.9-1.4
		c-0.8-0.5-1.3-1.2-1.3-2.4c0-1.7,1.3-3.2,3.6-3.2c0.5,0,0.8,0.1,1.2,0.2h2.9v1.2h-1.4c0.4,0.3,0.7,0.9,0.7,1.6
		c0,1.8-1.2,3.1-3.6,3.1c-0.3,0-0.6,0-0.9-0.1c-0.4,0.2-0.6,0.4-0.6,0.7c0,0.5,0.4,0.6,1.5,0.7l1.6,0.1c1.8,0.1,2.9,0.9,2.9,2.5
		C349.9,417.2,348.1,418.7,345.4,418.7z M346.6,414.2l-1.7-0.1c-0.2,0-0.4,0-0.5,0c-0.7,0.5-1.1,1-1.1,1.7c0,1,1,1.6,2.3,1.6
		c1.7,0,2.7-0.8,2.7-1.8C348.3,414.8,347.8,414.2,346.6,414.2z M345.6,406.7c-1.3,0-2,0.8-2,1.9c0,1.2,0.7,1.9,2,1.9
		c1.2,0,2-0.7,2-1.9C347.6,407.5,346.9,406.7,345.6,406.7z"/>
	<path fill="#999999" d="M357.9,414.2v-5.5c0-1.2-0.3-1.9-1.4-1.9c-1.4,0-2.4,1.4-2.4,3.3v2.9c0.5,0,1,0.1,1.4,0.2v0.9h-4.6v-0.9
		c0.4-0.1,1-0.2,1.5-0.2v-6.2c-0.4-0.1-1-0.1-1.5-0.2v-0.9c0.9-0.1,2-0.2,3-0.1c0,0.5,0,1.3-0.1,1.8l0,0c0.5-1.2,1.6-2,3-2
		c1.9,0,2.6,1.2,2.6,2.7v4.8c0.5,0,1,0.1,1.4,0.2v0.9h-2.9V414.2z"/>
	<path fill="#999999" d="M361.6,414.2v-0.9c0.4-0.1,1-0.2,1.5-0.2v-6.2c-0.4-0.1-1-0.1-1.5-0.2v-0.9c0.9-0.1,2-0.2,3-0.1v7.4
		c0.5,0,1,0.1,1.4,0.2v0.9H361.6z M363.9,404c-0.6,0-1-0.4-1-1s0.5-1,1-1c0.6,0,1,0.4,1,1C364.9,403.6,364.5,404,363.9,404z"/>
	<path fill="#999999" d="M370.4,414.4c-1.8,0-2.3-0.7-2.3-2.6v-4.9h-1.8v-1.2h1.8v-2.8l1.5-0.4v3.2h2.4v1.2h-2.4v4.4
		c0,1.4,0.3,1.8,1.2,1.8c0.4,0,0.8-0.1,1.1-0.1l0.2,1.3C371.7,414.4,371,414.4,370.4,414.4z"/>
	<path fill="#999999" d="M380,414.2c0-0.5,0-1.3,0.1-1.8l0,0c-0.5,1.2-1.5,2-3,2c-2,0-2.6-1.2-2.6-2.7V407c-0.4-0.1-1-0.1-1.4-0.2
		v-0.9c0.8-0.1,2-0.2,3-0.1v5.5c0,1.2,0.3,1.9,1.5,1.9c1.4,0,2.4-1.4,2.4-3.3V407c-0.4-0.1-0.9-0.1-1.4-0.2v-0.9
		c0.8-0.1,2-0.2,2.9-0.1v7.3c0.4,0.1,1,0.1,1.4,0.2v0.9C382.1,414.2,380.9,414.2,380,414.2z"/>
	<path fill="#999999" d="M389.8,414.2c0-0.5,0-1.2,0.1-1.7l0,0c-0.5,1.2-1.5,1.9-2.9,1.9c-2.1,0-3.2-1.5-3.2-4c0-3,1.7-4.8,4.4-4.8
		c0.5,0,0.9,0,1.4,0.1V403c-0.4-0.1-1-0.1-1.5-0.2v-0.9c0.9-0.1,2-0.2,3-0.1V413c0.4,0.1,1,0.1,1.4,0.2v0.9
		C392,414.2,390.8,414.2,389.8,414.2z M389.8,407c-0.5-0.1-1-0.2-1.5-0.2c-1.6,0-2.7,1-2.7,3.4c0,1.8,0.6,2.9,1.9,2.9
		c1.5,0,2.3-1.8,2.3-3.3L389.8,407L389.8,407z"/>
	<path fill="#999999" d="M400.9,410h-5.6c-0.1,2.2,0.8,3.2,2.7,3.2c0.8,0,1.7-0.2,2.4-0.5l0.2,1.2c-0.9,0.3-1.9,0.5-3,0.5
		c-2.6,0-4-1.4-4-4.4c0-2.5,1.4-4.5,3.9-4.5c2.4,0,3.4,1.6,3.4,3.5C400.9,409.2,400.9,409.6,400.9,410z M397.5,406.8
		c-1.1,0-1.9,0.8-2.1,2.1h4C399.4,407.6,398.7,406.8,397.5,406.8z"/>
	<path fill="#999999" d="M403.7,414.4c-0.6,0-1.1-0.5-1.1-1.1s0.5-1.1,1.1-1.1s1.1,0.5,1.1,1.1S404.3,414.4,403.7,414.4z"/>
	<path fill="#999999" d="M407.2,417.9l-1.1-0.6c1.4-2.4,2.1-5.1,2.1-7.9c0-2.9-0.7-5.6-2.2-8l1.2-0.6c2,3.2,2.5,5.9,2.5,8.5
		C409.8,411.8,409.2,414.8,407.2,417.9z"/>
</g>
<line fill="none" stroke="#000000" stroke-width="2" x1="339.2" y1="363.2" x2="303.8" y2="363.2"/>
<line fill="none" stroke="#000000" stroke-width="2" x1="339.2" y1="351.8" x2="303.8" y2="351.8"/>
<polyline fill="none" stroke="#000000" stroke-width="2" points="332,344.2 344.7,357.4 331.7,370.1 "/>
</svg>
