<?xml version="1.0" encoding="utf-8"?>
<!-- Generator: Adobe Illustrator 18.0.0, SVG Export Plug-In . SVG Version: 6.00 Build 0)  -->
<!DOCTYPE svg PUBLIC "-//W3C//DTD SVG 1.1//EN" "http://www.w3.org/Graphics/SVG/1.1/DTD/svg11.dtd">
<svg version="1.1" id="Layer_1" xmlns="http://www.w3.org/2000/svg" xmlns:xlink="http://www.w3.org/1999/xlink" x="0px" y="0px"
	 viewBox="-16.5 271.5 645 249" enable-background="new -16.5 271.5 645 249" xml:space="preserve">
<line fill="none" stroke="#999999" stroke-width="1.3" x1="39.3" y1="509.5" x2="181.7" y2="439.6"/>
<polyline fill="none" stroke="#999999" stroke-width="1.3" points="174.1,437 182.1,439.5 179.6,447.5 "/>
<g enable-background="new    ">
	<path d="M40.2,295.4c-0.1-0.7-0.2-1.2-0.2-1.6h-2.4v9.2c0.5,0,1,0.1,1.5,0.2v0.9h-4.6v-0.9c0.4-0.1,1-0.2,1.5-0.2v-9.2h-2.4
		c0,0.4-0.1,0.9-0.2,1.6h-1.1v-2.9h9v2.9H40.2z"/>
	<path d="M48.8,304.1v-5.5c0-1.2-0.3-1.9-1.5-1.9c-1.4,0-2.4,1.4-2.4,3.3v2.9c0.5,0,1,0.1,1.4,0.2v0.9h-4.4v-0.9
		c0.4-0.1,0.9-0.2,1.4-0.2v-10.2c-0.4-0.1-1-0.1-1.5-0.2v-0.9c0.9-0.1,2-0.2,3-0.1v4.1c0,0.6,0,1.2-0.2,1.7l0,0
		c0.5-1.2,1.5-1.9,3-1.9c1.9,0,2.6,1.2,2.6,2.7v4.8c0.5,0,1,0.1,1.4,0.2v0.9h-2.8V304.1z"/>
	<path d="M52.6,304.1v-0.9c0.4-0.1,1-0.2,1.5-0.2v-6.2c-0.4-0.1-1-0.1-1.5-0.2v-0.9c0.9-0.1,2-0.2,3-0.1v7.4c0.5,0,1,0.1,1.4,0.2
		v0.9L52.6,304.1L52.6,304.1z M54.9,293.9c-0.6,0-1-0.4-1-1s0.5-1,1-1c0.6,0,1,0.4,1,1C55.9,293.4,55.4,293.9,54.9,293.9z"/>
	<path d="M60.4,304.3c-0.7,0-1.4-0.1-2-0.2v-2.4h0.9c0.1,0.4,0.2,0.9,0.2,1.4c0.3,0.1,0.7,0.1,1,0.1c1.2,0,1.9-0.5,1.9-1.3
		c0-1.9-4.3-0.8-4.3-3.8c0-1.5,1.2-2.6,3.4-2.6c0.6,0,1.3,0.1,2,0.2v2.3h-0.8c-0.1-0.4-0.2-0.9-0.2-1.3c-0.3-0.1-0.6-0.1-1-0.1
		c-1.2,0-1.7,0.5-1.7,1.3c0,1.9,4.3,0.9,4.3,3.7C64.1,303.1,62.7,304.3,60.4,304.3z"/>
	<path d="M77.1,296.8l-2.7,7.4h-1.9l-2.7-7.4c-0.4,0-0.8-0.1-1.1-0.2v-0.9h4v0.9c-0.4,0.1-0.8,0.2-1.2,0.2l1.4,4.2
		c0.2,0.6,0.4,1.1,0.5,1.7l0,0c0.2-0.6,0.3-1.1,0.5-1.6l1.5-4.2c-0.4,0-0.8-0.1-1.2-0.2v-0.9h3.9v0.9
		C77.8,296.6,77.5,296.8,77.1,296.8z"/>
	<path d="M85.8,299.8h-5.6c-0.1,2.2,0.8,3.2,2.7,3.2c0.8,0,1.7-0.2,2.4-0.5l0.2,1.2c-0.9,0.3-1.9,0.5-3,0.5c-2.6,0-4-1.4-4-4.4
		c0-2.5,1.4-4.5,3.9-4.5c2.4,0,3.4,1.6,3.4,3.5C85.9,299.1,85.9,299.5,85.8,299.8z M82.4,296.6c-1.1,0-1.9,0.8-2.1,2.1h4
		C84.3,297.4,83.6,296.6,82.4,296.6z"/>
	<path d="M91.2,304.3c-2.1,0-3.9-1-3.9-4.1c0-2.8,1.4-4.7,4.3-4.7c0.7,0,1.5,0.1,2.1,0.3v2.5h-1c-0.1-0.5-0.2-1-0.2-1.4
		c-0.3-0.1-0.7-0.1-1.2-0.1c-1.5,0-2.4,1.3-2.4,3.2c0,1.7,0.6,3,2.6,3c0.7,0,1.5-0.2,2-0.4l0.3,1.3C93.2,304,92.3,304.3,91.2,304.3z
		"/>
	<path d="M98.4,304.3c-1.8,0-2.3-0.7-2.3-2.6v-4.9h-1.8v-1.2h1.8v-2.8l1.5-0.4v3.2h2.4v1.2h-2.3v4.4c0,1.4,0.3,1.8,1.2,1.8
		c0.4,0,0.8-0.1,1.1-0.1l0.2,1.3C99.7,304.2,99,304.3,98.4,304.3z"/>
	<path d="M105.3,304.3c-2.3,0-3.8-1.3-3.8-4.3c0-2.6,1.6-4.6,4.2-4.6c2.2,0,3.8,1.2,3.8,4.3C109.4,302.3,107.9,304.3,105.3,304.3z
		 M105.5,296.8c-1.3,0-2.4,0.9-2.4,3.1c0,2,0.8,3.1,2.4,3.1c1.3,0,2.4-1,2.4-3.1C107.8,297.8,107,296.8,105.5,296.8z"/>
	<path d="M116.5,297c-2-0.3-2.8,1-2.8,3.7v2.3c0.5,0,1,0.1,1.5,0.2v0.9h-4.5v-0.9c0.4-0.1,1-0.2,1.5-0.2v-6.2
		c-0.4-0.1-1-0.1-1.5-0.2v-0.9c0.9-0.1,2-0.2,3-0.1c0,0.5-0.1,1.3-0.2,2l0,0c0.4-1.2,1.2-2.4,3.1-2.2L116.5,297z"/>
</g>
<g enable-background="new    ">
	<path d="M39.1,327.1v-5.5c0-1.2-0.3-1.9-1.5-1.9c-1.4,0-2.4,1.4-2.4,3.3v2.9c0.5,0,1,0.1,1.4,0.2v0.9h-4.4v-0.9
		c0.4-0.1,0.9-0.2,1.4-0.2v-10.2c-0.4-0.1-1-0.1-1.5-0.2v-0.9c0.9-0.1,2-0.2,3-0.1v4.1c0,0.6,0,1.2-0.2,1.7l0,0
		c0.5-1.2,1.5-1.9,3-1.9c1.9,0,2.6,1.2,2.6,2.7v4.8c0.5,0,1,0.1,1.4,0.2v0.9h-2.8V327.1z"/>
	<path d="M48.3,327.1c0-0.6,0-1.2,0.1-1.7l0,0c-0.4,1-1.5,1.9-2.9,1.9s-2.4-0.9-2.4-2.3c0-1.8,1.9-2.9,5.1-2.9v-0.6
		c0-1.2-0.4-1.9-1.8-1.9c-0.5,0-1.1,0.1-1.6,0.2c0,0.4-0.1,0.9-0.2,1.4h-1V319c0.9-0.3,1.9-0.5,2.9-0.5c2.5,0,3.2,1.2,3.2,2.9v4.6
		c0.4,0.1,1,0.1,1.4,0.2v0.9C50.4,327.1,49.2,327.1,48.3,327.1z M48.2,323.1c-2.7,0-3.6,0.7-3.6,1.6c0,0.7,0.5,1.3,1.3,1.3
		c1.4,0,2.3-1.4,2.3-2.7V323.1z"/>
	<path d="M54.5,327.2c-0.7,0-1.4-0.1-2-0.2v-2.4h0.9c0.1,0.4,0.2,0.9,0.2,1.4c0.3,0.1,0.7,0.1,1,0.1c1.2,0,1.9-0.5,1.9-1.3
		c0-1.9-4.3-0.8-4.3-3.8c0-1.5,1.2-2.6,3.4-2.6c0.6,0,1.3,0.1,2,0.2v2.3h-0.9c-0.1-0.4-0.2-0.9-0.2-1.3c-0.3-0.1-0.6-0.1-1-0.1
		c-1.2,0-1.7,0.5-1.7,1.3c0,1.9,4.3,0.9,4.3,3.7C58.2,326,56.8,327.2,54.5,327.2z"/>
	<path d="M68.8,327.1c0-0.6,0-1.2,0.1-1.7l0,0c-0.4,1-1.5,1.9-2.9,1.9s-2.4-0.9-2.4-2.3c0-1.8,1.9-2.9,5.1-2.9v-0.6
		c0-1.2-0.4-1.9-1.8-1.9c-0.5,0-1.1,0.1-1.6,0.2c0,0.4-0.1,0.9-0.2,1.4h-1V319c0.9-0.3,1.9-0.5,2.9-0.5c2.5,0,3.2,1.2,3.2,2.9v4.6
		c0.4,0.1,1,0.1,1.4,0.2v0.9C70.9,327.1,69.7,327.1,68.8,327.1z M68.7,323.1c-2.7,0-3.6,0.7-3.6,1.6c0,0.7,0.5,1.3,1.3,1.3
		c1.4,0,2.3-1.4,2.3-2.7V323.1z"/>
	<path d="M76,327.1v-0.9c0.4-0.1,0.9-0.2,1.4-0.2v-10.2c-0.4-0.1-1-0.1-1.5-0.2v-0.9c0.9-0.1,2-0.2,3-0.1V326c0.5,0,1,0.1,1.4,0.2
		v0.9L76,327.1L76,327.1z"/>
	<path d="M88.6,322.8H83c-0.1,2.2,0.8,3.2,2.7,3.2c0.8,0,1.7-0.2,2.4-0.5l0.2,1.2c-0.9,0.3-1.9,0.5-3,0.5c-2.6,0-4-1.4-4-4.4
		c0-2.5,1.4-4.5,3.9-4.5c2.4,0,3.4,1.6,3.4,3.5C88.6,322.1,88.6,322.4,88.6,322.8z M85.1,319.5c-1.1,0-1.9,0.8-2.1,2.1h4
		C87.1,320.4,86.3,319.5,85.1,319.5z"/>
	<path d="M96.9,327.1v-5.5c0-1.2-0.3-1.9-1.4-1.9c-1.4,0-2.4,1.4-2.4,3.3v2.9c0.5,0,1,0.1,1.4,0.2v0.9h-4.4v-0.9
		c0.4-0.1,1-0.2,1.5-0.2v-6.2c-0.4-0.1-1-0.1-1.5-0.2v-0.9c0.9-0.1,2-0.2,3-0.1c0,0.5,0,1.3-0.1,1.8l0,0c0.5-1.2,1.6-2,3-2
		c1.9,0,2.6,1.2,2.6,2.7v4.8c0.5,0,1,0.1,1.4,0.2v0.9h-3.1V327.1z"/>
	<path d="M104.4,331.5c-2.2,0-3.6-0.9-3.6-2.6c0-1,0.7-1.8,1.4-2.3c-0.5-0.2-0.8-0.7-0.8-1.3c0-0.6,0.4-1.2,0.9-1.4
		c-0.8-0.5-1.3-1.2-1.3-2.4c0-1.7,1.3-3.2,3.6-3.2c0.5,0,0.8,0.1,1.2,0.2h2.9v1.2h-1.4c0.4,0.3,0.7,0.9,0.7,1.6
		c0,1.8-1.2,3.1-3.6,3.1c-0.3,0-0.6,0-0.9-0.1c-0.4,0.2-0.6,0.4-0.6,0.7c0,0.5,0.4,0.6,1.5,0.7l1.6,0.1c1.8,0.1,2.9,0.9,2.9,2.5
		C109,330,107.1,331.5,104.4,331.5z M105.6,327l-1.7-0.1c-0.2,0-0.4,0-0.5,0c-0.7,0.5-1.1,1-1.1,1.7c0,1,1,1.6,2.3,1.6
		c1.7,0,2.7-0.8,2.7-1.8C107.4,327.6,106.8,327.1,105.6,327z M104.7,319.5c-1.3,0-2,0.8-2,1.9c0,1.2,0.7,1.9,2,1.9
		c1.2,0,2-0.7,2-1.9C106.6,320.3,105.9,319.5,104.7,319.5z"/>
	<path d="M113.6,327.2c-1.8,0-2.3-0.7-2.3-2.6v-4.9h-1.8v-1.2h1.8v-2.8l1.5-0.4v3.2h2.4v1.2h-2.4v4.4c0,1.4,0.3,1.8,1.2,1.8
		c0.4,0,0.8-0.1,1.1-0.1l0.2,1.3C114.8,327.1,114.1,327.2,113.6,327.2z"/>
	<path d="M123,327.1v-5.5c0-1.2-0.3-1.9-1.5-1.9c-1.4,0-2.4,1.4-2.4,3.3v2.9c0.5,0,1,0.1,1.4,0.2v0.9h-4.4v-0.9
		c0.4-0.1,0.9-0.2,1.4-0.2v-10.2c-0.4-0.1-1-0.1-1.5-0.2v-0.9c0.9-0.1,2-0.2,3-0.1v4.1c0,0.6,0,1.2-0.2,1.7l0,0
		c0.5-1.2,1.5-1.9,3-1.9c1.9,0,2.6,1.2,2.6,2.7v4.8c0.5,0,1,0.1,1.4,0.2v0.9H123V327.1z"/>
	<path d="M134.6,327.2c-2.3,0-3.8-1.3-3.8-4.3c0-2.6,1.6-4.6,4.2-4.6c2.2,0,3.8,1.2,3.8,4.3C138.8,325.2,137.2,327.2,134.6,327.2z
		 M134.8,319.8c-1.3,0-2.4,0.9-2.4,3.2c0,2,0.8,3.1,2.4,3.1c1.3,0,2.4-1,2.4-3.1C137.2,320.8,136.4,319.8,134.8,319.8z"/>
	<path d="M146.2,315.9c-0.4-0.1-0.9-0.2-1.3-0.2c-1.2,0-1.8,0.7-1.8,2.2v0.7h2.4v1.2h-2.4v6.2c0.5,0,1,0.1,1.5,0.2v0.9h-4.5v-0.9
		c0.4-0.1,1-0.2,1.5-0.2v-6.2h-1.9v-1.2h1.9V318c0-2.4,1.2-3.5,3.3-3.5c0.5,0,0.9,0.1,1.4,0.2L146.2,315.9z"/>
	<path d="M150.2,327.1v-0.9c0.6-0.1,1.2-0.2,1.9-0.2v-6.4l-1.9,0.8l-0.3-1.3l2.5-1h1.3v7.8c0.5,0,1,0.1,1.5,0.2v0.9h-5V327.1z"/>
	<path d="M160.9,327.2c-2.4,0-4.2-1.4-4.2-4.6c0-2.9,2.1-4.7,4.6-4.7c2.8,0,4.2,1.8,4.2,4.5C165.5,325.5,163.3,327.2,160.9,327.2z
		 M161.1,319.3c-1.6,0-2.9,1.2-2.9,3.3c0,1.9,0.8,3.4,2.8,3.4c1.6,0,2.9-1.2,2.9-3.3C163.9,320.8,163,319.3,161.1,319.3z"/>
	<path d="M168.3,327.2c-0.6,0-1.1-0.5-1.1-1.1s0.5-1.1,1.1-1.1s1.1,0.5,1.1,1.1C169.4,326.8,168.9,327.2,168.3,327.2z"/>
</g>
<g enable-background="new    ">
	<path fill="#999999" d="M129.6,297l-2.7,7.4H125l-2.7-7.4c-0.4,0-0.8-0.1-1.1-0.2v-0.9h4v0.9c-0.4,0.1-0.8,0.2-1.2,0.2l1.4,4.2
		c0.2,0.6,0.4,1.1,0.5,1.7l0,0c0.2-0.6,0.3-1.1,0.5-1.6l1.5-4.2c-0.4,0-0.8-0.1-1.2-0.2V296h3.9v0.9C130.4,296.9,130,297,129.6,297z
		"/>
</g>
<polyline fill="#FFFFFF" stroke="#999999" stroke-width="1.3" points="130,284 134.3,288.2 130,292.4 "/>
<line fill="none" stroke="#999999" stroke-width="1.3" x1="134.3" y1="288.2" x2="118.3" y2="288.2"/>
<g enable-background="new    ">
	<path d="M451.4,295.4c-0.1-0.7-0.2-1.2-0.2-1.6h-2.4v9.2c0.5,0,1,0.1,1.5,0.2v0.9h-4.6v-0.9c0.4-0.1,1-0.2,1.5-0.2v-9.2h-2.4
		c0,0.4-0.1,0.9-0.2,1.6h-1.1v-2.9h9v2.9H451.4z"/>
	<path d="M460,304.1v-5.5c0-1.2-0.3-1.9-1.5-1.9c-1.4,0-2.4,1.4-2.4,3.3v2.9c0.5,0,1,0.1,1.4,0.2v0.9h-4.4v-0.9
		c0.4-0.1,0.9-0.2,1.4-0.2v-10.2c-0.4-0.1-1-0.1-1.5-0.2v-0.9c0.9-0.1,2-0.2,3-0.1v4.1c0,0.6,0,1.2-0.2,1.7l0,0
		c0.5-1.2,1.5-1.9,3-1.9c1.9,0,2.6,1.2,2.6,2.7v4.8c0.5,0,1,0.1,1.4,0.2v0.9H460V304.1z"/>
	<path d="M463.8,304.1v-0.9c0.4-0.1,1-0.2,1.5-0.2v-6.2c-0.4-0.1-1-0.1-1.5-0.2v-0.9c0.9-0.1,2-0.2,3-0.1v7.4c0.5,0,1,0.1,1.4,0.2
		v0.9L463.8,304.1L463.8,304.1z M466.1,293.9c-0.6,0-1-0.4-1-1s0.5-1,1-1c0.6,0,1,0.4,1,1C467.1,293.4,466.6,293.9,466.1,293.9z"/>
	<path d="M471.6,304.3c-0.7,0-1.4-0.1-2-0.2v-2.4h0.9c0.1,0.4,0.2,0.9,0.2,1.4c0.3,0.1,0.7,0.1,1,0.1c1.2,0,1.9-0.5,1.9-1.3
		c0-1.9-4.3-0.8-4.3-3.8c0-1.5,1.2-2.6,3.4-2.6c0.6,0,1.3,0.1,2,0.2v2.3h-0.9c-0.1-0.4-0.2-0.9-0.2-1.3c-0.3-0.1-0.6-0.1-1-0.1
		c-1.2,0-1.7,0.5-1.7,1.3c0,1.9,4.3,0.9,4.3,3.7C475.2,303.1,473.9,304.3,471.6,304.3z"/>
	<path d="M488.3,296.8l-2.7,7.4h-1.9l-2.7-7.4c-0.4,0-0.8-0.1-1.1-0.2v-0.9h4v0.9c-0.4,0.1-0.8,0.2-1.2,0.2l1.4,4.2
		c0.2,0.6,0.4,1.1,0.5,1.7l0,0c0.2-0.6,0.3-1.1,0.5-1.6l1.5-4.2c-0.4,0-0.8-0.1-1.2-0.2v-0.9h3.9v0.9
		C489,296.6,488.6,296.8,488.3,296.8z"/>
	<path d="M497,299.8h-5.6c-0.1,2.2,0.8,3.2,2.7,3.2c0.8,0,1.7-0.2,2.4-0.5l0.2,1.2c-0.9,0.3-1.9,0.5-3,0.5c-2.6,0-4-1.4-4-4.4
		c0-2.5,1.4-4.5,3.9-4.5c2.4,0,3.4,1.6,3.4,3.5C497.1,299.1,497,299.5,497,299.8z M493.6,296.6c-1.1,0-1.9,0.8-2.1,2.1h4
		C495.5,297.4,494.8,296.6,493.6,296.6z"/>
	<path d="M502.4,304.3c-2.1,0-3.9-1-3.9-4.1c0-2.8,1.4-4.7,4.3-4.7c0.7,0,1.5,0.1,2.1,0.3v2.5h-1c-0.1-0.5-0.2-1-0.2-1.4
		c-0.3-0.1-0.7-0.1-1.2-0.1c-1.5,0-2.4,1.3-2.4,3.2c0,1.7,0.6,3,2.6,3c0.7,0,1.5-0.2,2-0.4l0.3,1.3
		C504.4,304,503.5,304.3,502.4,304.3z"/>
	<path d="M509.6,304.3c-1.8,0-2.3-0.7-2.3-2.6v-4.9h-1.8v-1.2h1.8v-2.8l1.5-0.4v3.2h2.4v1.2h-2.4v4.4c0,1.4,0.3,1.8,1.2,1.8
		c0.4,0,0.8-0.1,1.1-0.1l0.2,1.3C510.9,304.2,510.2,304.3,509.6,304.3z"/>
	<path d="M516.5,304.3c-2.3,0-3.8-1.3-3.8-4.3c0-2.6,1.6-4.6,4.2-4.6c2.2,0,3.8,1.2,3.8,4.3C520.6,302.3,519,304.3,516.5,304.3z
		 M516.7,296.8c-1.3,0-2.4,0.9-2.4,3.1c0,2,0.8,3.1,2.4,3.1c1.3,0,2.4-1,2.4-3.1C519,297.8,518.2,296.8,516.7,296.8z"/>
	<path d="M527.7,297c-2-0.3-2.8,1-2.8,3.7v2.3c0.5,0,1,0.1,1.5,0.2v0.9h-4.5v-0.9c0.4-0.1,1-0.2,1.5-0.2v-6.2
		c-0.4-0.1-1-0.1-1.5-0.2v-0.9c0.9-0.1,2-0.2,3-0.1c0,0.5-0.1,1.3-0.2,2l0,0c0.4-1.2,1.2-2.4,3.1-2.2L527.7,297z"/>
</g>
<g enable-background="new    ">
	<path d="M447.9,327.2c-0.6,0-0.9,0-1.5-0.1v3.1c0.5,0,1.1,0.1,1.5,0.2v0.9h-4.5v-0.9c0.4-0.1,0.9-0.2,1.4-0.2v-10.4
		c-0.4-0.1-0.9-0.1-1.4-0.2v-0.9c0.8-0.1,2-0.2,2.9-0.1c0,0.5-0.1,1.3-0.1,1.7l0,0c0.5-1.2,1.5-1.9,2.9-1.9c2,0,3.2,1.4,3.2,4
		C452.3,325.4,450.7,327.2,447.9,327.2z M448.8,319.6c-1.5,0-2.3,1.8-2.3,3.3v2.8c0.5,0.1,0.9,0.2,1.5,0.2c1.6,0,2.7-1,2.7-3.4
		C450.7,320.8,450.1,319.6,448.8,319.6z"/>
	<path d="M457.6,327.2c-2.3,0-3.8-1.3-3.8-4.3c0-2.6,1.6-4.6,4.2-4.6c2.2,0,3.8,1.2,3.8,4.3C461.8,325.2,460.2,327.2,457.6,327.2z
		 M457.8,319.8c-1.3,0-2.4,0.9-2.4,3.2c0,2,0.8,3.1,2.4,3.1c1.3,0,2.4-1,2.4-3.1C460.2,320.8,459.4,319.8,457.8,319.8z"/>
	<path d="M463,327.1v-0.9c0.4-0.1,1-0.2,1.5-0.2v-6.2c-0.4-0.1-1-0.1-1.5-0.2v-0.9c0.9-0.1,2-0.2,3-0.1v7.4c0.5,0,1,0.1,1.4,0.2v0.9
		L463,327.1L463,327.1z M465.3,316.8c-0.6,0-1-0.4-1-1s0.5-1,1-1c0.6,0,1,0.4,1,1S465.8,316.8,465.3,316.8z"/>
	<path d="M475.2,327.1v-5.5c0-1.2-0.3-1.9-1.4-1.9c-1.4,0-2.4,1.4-2.4,3.3v2.9c0.5,0,1,0.1,1.4,0.2v0.9h-4.4v-0.9
		c0.4-0.1,1-0.2,1.5-0.2v-6.2c-0.4-0.1-1-0.1-1.5-0.2v-0.9c0.9-0.1,2-0.2,3-0.1c0,0.5,0,1.3-0.1,1.8l0,0c0.5-1.2,1.6-2,3-2
		c1.9,0,2.6,1.2,2.6,2.7v4.8c0.5,0,1,0.1,1.4,0.2v0.9h-3.1V327.1z"/>
	<path d="M482.4,327.2c-1.8,0-2.3-0.7-2.3-2.6v-4.9h-1.8v-1.2h1.8v-2.8l1.5-0.4v3.2h2.4v1.2h-2.3v4.4c0,1.4,0.3,1.8,1.2,1.8
		c0.4,0,0.8-0.1,1.1-0.1l0.2,1.3C483.7,327.1,483,327.2,482.4,327.2z"/>
	<path d="M487.7,327.2c-0.7,0-1.4-0.1-2-0.2v-2.4h0.9c0.1,0.4,0.2,0.9,0.2,1.4c0.3,0.1,0.7,0.1,1,0.1c1.2,0,1.9-0.5,1.9-1.3
		c0-1.9-4.3-0.8-4.3-3.8c0-1.5,1.2-2.6,3.4-2.6c0.6,0,1.3,0.1,2,0.2v2.3h-0.9c-0.1-0.4-0.2-0.9-0.2-1.3c-0.3-0.1-0.6-0.1-1-0.1
		c-1.2,0-1.7,0.5-1.7,1.3c0,1.9,4.3,0.9,4.3,3.7C491.4,326,490,327.2,487.7,327.2z"/>
	<path d="M496.5,327.1v-0.9c0.4-0.1,1-0.2,1.5-0.2v-6.2c-0.4-0.1-1-0.1-1.5-0.2v-0.9c0.9-0.1,2-0.2,3-0.1v7.4c0.5,0,1,0.1,1.4,0.2
		v0.9L496.5,327.1L496.5,327.1z M498.8,316.8c-0.6,0-1-0.4-1-1s0.5-1,1-1c0.6,0,1,0.4,1,1S499.3,316.8,498.8,316.8z"/>
	<path d="M508.7,327.1v-5.5c0-1.2-0.3-1.9-1.4-1.9c-1.4,0-2.4,1.4-2.4,3.3v2.9c0.5,0,1,0.1,1.4,0.2v0.9h-4.4v-0.9
		c0.4-0.1,1-0.2,1.5-0.2v-6.2c-0.4-0.1-1-0.1-1.5-0.2v-0.9c0.9-0.1,2-0.2,3-0.1c0,0.5,0,1.3-0.1,1.8l0,0c0.5-1.2,1.6-2,3-2
		c1.9,0,2.6,1.2,2.6,2.7v4.8c0.5,0,1,0.1,1.4,0.2v0.9h-3.1V327.1z"/>
	<path d="M519.9,327.2c-1.8,0-2.3-0.7-2.3-2.6v-4.9h-1.8v-1.2h1.8v-2.8l1.5-0.4v3.2h2.4v1.2h-2.4v4.4c0,1.4,0.3,1.8,1.2,1.8
		c0.4,0,0.8-0.1,1.1-0.1l0.2,1.3C521.1,327.1,520.4,327.2,519.9,327.2z"/>
	<path d="M529.3,327.1v-5.5c0-1.2-0.3-1.9-1.5-1.9c-1.4,0-2.4,1.4-2.4,3.3v2.9c0.5,0,1,0.1,1.4,0.2v0.9h-4.4v-0.9
		c0.4-0.1,0.9-0.2,1.4-0.2v-10.2c-0.4-0.1-1-0.1-1.5-0.2v-0.9c0.9-0.1,2-0.2,3-0.1v4.1c0,0.6,0,1.2-0.2,1.7l0,0
		c0.5-1.2,1.5-1.9,3-1.9c1.9,0,2.6,1.2,2.6,2.7v4.8c0.5,0,1,0.1,1.4,0.2v0.9h-2.8V327.1z"/>
	<path d="M540.5,322.8h-5.6c-0.1,2.2,0.8,3.2,2.7,3.2c0.8,0,1.7-0.2,2.4-0.5l0.2,1.2c-0.9,0.3-1.9,0.5-3,0.5c-2.6,0-4-1.4-4-4.4
		c0-2.5,1.4-4.5,3.9-4.5c2.4,0,3.4,1.6,3.4,3.5C540.6,322.1,540.6,322.4,540.5,322.8z M537.1,319.5c-1.1,0-1.9,0.8-2.1,2.1h4
		C539,320.4,538.3,319.5,537.1,319.5z"/>
	<path d="M548.1,327.2c-0.7,0-1.4-0.1-2-0.2v-2.4h0.9c0.1,0.4,0.2,0.9,0.2,1.4c0.3,0.1,0.7,0.1,1,0.1c1.2,0,1.9-0.5,1.9-1.3
		c0-1.9-4.3-0.8-4.3-3.8c0-1.5,1.2-2.6,3.4-2.6c0.6,0,1.3,0.1,2,0.2v2.3h-0.9c-0.1-0.4-0.2-0.9-0.2-1.3c-0.3-0.1-0.6-0.1-1-0.1
		c-1.2,0-1.7,0.5-1.7,1.3c0,1.9,4.3,0.9,4.3,3.7C551.8,326,550.4,327.2,548.1,327.2z"/>
	<path d="M558.6,327.1c0-0.6,0-1.2,0.1-1.7l0,0c-0.4,1-1.5,1.9-2.9,1.9s-2.4-0.9-2.4-2.3c0-1.8,1.9-2.9,5.1-2.9v-0.6
		c0-1.2-0.4-1.9-1.8-1.9c-0.5,0-1.1,0.1-1.6,0.2c0,0.4-0.1,0.9-0.2,1.4h-1V319c0.9-0.3,1.9-0.5,2.9-0.5c2.5,0,3.2,1.2,3.2,2.9v4.6
		c0.4,0.1,1,0.1,1.4,0.2v0.9C560.7,327.1,559.5,327.1,558.6,327.1z M558.5,323.1c-2.7,0-3.6,0.7-3.6,1.6c0,0.7,0.5,1.3,1.3,1.3
		c1.4,0,2.3-1.4,2.3-2.7V323.1z"/>
	<path d="M574.5,327.1v-5.5c0-1.2-0.3-1.9-1.4-1.9c-1.2,0-2.4,1.3-2.4,3.4v2.9c0.5,0,1,0.1,1.4,0.2v0.9h-2.9v-5.5
		c0-1.1-0.2-1.9-1.4-1.9c-1.3,0-2.4,1.4-2.4,3.4v2.9c0.5,0,1,0.1,1.4,0.2v0.9h-4.4v-0.9c0.4-0.1,1-0.2,1.5-0.2v-6.2
		c-0.4-0.1-1-0.1-1.5-0.2v-0.9c0.9-0.1,2.1-0.2,3-0.1c0,0.5-0.1,1.3-0.1,1.8l0,0c0.5-1.2,1.6-2,3-2c1.8,0,2.3,1.2,2.4,1.9
		c0.3-0.8,1.3-1.9,2.9-1.9c1.6,0,2.5,0.9,2.5,2.8v4.8c0.5,0,1,0.1,1.4,0.2v0.9L574.5,327.1L574.5,327.1z"/>
	<path d="M585.7,322.8h-5.6c-0.1,2.2,0.8,3.2,2.7,3.2c0.8,0,1.7-0.2,2.4-0.5l0.2,1.2c-0.9,0.3-1.9,0.5-3,0.5c-2.6,0-4-1.4-4-4.4
		c0-2.5,1.4-4.5,3.9-4.5c2.4,0,3.4,1.6,3.4,3.5C585.8,322.1,585.7,322.4,585.7,322.8z M582.3,319.5c-1.1,0-1.9,0.8-2.1,2.1h4
		C584.2,320.4,583.5,319.5,582.3,319.5z"/>
</g>
<g enable-background="new    ">
	<path d="M449.8,350c0-0.5,0-1.2,0.1-1.7l0,0c-0.5,1.2-1.5,1.9-2.9,1.9c-2.1,0-3.2-1.5-3.2-4c0-3,1.7-4.8,4.4-4.8
		c0.5,0,0.9,0,1.4,0.1v-2.8c-0.4-0.1-1-0.1-1.5-0.2v-0.9c0.9-0.1,2-0.2,3-0.1v11.3c0.4,0.1,1,0.1,1.4,0.2v0.9
		C451.9,350,450.7,350.1,449.8,350z M449.7,342.8c-0.5-0.1-1-0.2-1.5-0.2c-1.6,0-2.7,1-2.7,3.4c0,1.8,0.6,2.9,1.9,2.9
		c1.5,0,2.3-1.8,2.3-3.3L449.7,342.8L449.7,342.8z"/>
	<path d="M453.5,350v-0.9c0.4-0.1,1-0.2,1.5-0.2v-6.2c-0.4-0.1-1-0.1-1.5-0.2v-0.9c0.9-0.1,2-0.2,3-0.1v7.4c0.5,0,1,0.1,1.4,0.2v0.9
		H453.5z M455.8,339.8c-0.6,0-1-0.4-1-1s0.5-1,1-1c0.6,0,1,0.4,1,1C456.8,339.3,456.4,339.8,455.8,339.8z"/>
	<path d="M464.7,342.9c-2-0.3-2.8,1-2.8,3.7v2.3c0.5,0,1,0.1,1.5,0.2v0.9h-4.5v-0.9c0.4-0.1,1-0.2,1.5-0.2v-6.2
		c-0.4-0.1-1-0.1-1.5-0.2v-0.9c0.9-0.1,2-0.2,3-0.1c0,0.5-0.1,1.3-0.2,2l0,0c0.4-1.2,1.2-2.4,3.1-2.2L464.7,342.9z"/>
	<path d="M473,345.8h-5.6c-0.1,2.2,0.8,3.2,2.7,3.2c0.8,0,1.7-0.2,2.4-0.5l0.2,1.2c-0.9,0.3-1.9,0.5-3,0.5c-2.6,0-4-1.4-4-4.4
		c0-2.5,1.4-4.5,3.9-4.5c2.4,0,3.4,1.6,3.4,3.5C473,345,473,345.5,473,345.8z M469.5,342.5c-1.1,0-1.9,0.8-2.1,2.1h4
		C471.5,343.3,470.7,342.5,469.5,342.5z"/>
	<path d="M478.4,350.2c-2.1,0-3.9-1-3.9-4.1c0-2.8,1.4-4.7,4.3-4.7c0.7,0,1.5,0.1,2.1,0.3v2.5h-1c-0.1-0.5-0.2-1-0.2-1.4
		c-0.3-0.1-0.7-0.1-1.2-0.1c-1.5,0-2.4,1.3-2.4,3.2c0,1.7,0.6,3,2.6,3c0.7,0,1.5-0.2,2-0.4l0.3,1.3
		C480.4,350,479.4,350.2,478.4,350.2z"/>
	<path d="M485.6,350.2c-1.8,0-2.3-0.7-2.3-2.6v-4.9h-1.8v-1.2h1.8v-2.8l1.5-0.4v3.2h2.4v1.2h-2.4v4.4c0,1.4,0.3,1.8,1.2,1.8
		c0.4,0,0.8-0.1,1.1-0.1l0.2,1.3C486.8,350.1,486.2,350.2,485.6,350.2z"/>
	<path d="M488.4,350v-0.9c0.4-0.1,1-0.2,1.5-0.2v-6.2c-0.4-0.1-1-0.1-1.5-0.2v-0.9c0.9-0.1,2-0.2,3-0.1v7.4c0.5,0,1,0.1,1.4,0.2v0.9
		H488.4z M490.7,339.8c-0.6,0-1-0.4-1-1s0.5-1,1-1c0.6,0,1,0.4,1,1C491.7,339.3,491.2,339.8,490.7,339.8z"/>
	<path d="M497.5,350.2c-2.3,0-3.8-1.3-3.8-4.3c0-2.6,1.6-4.6,4.2-4.6c2.2,0,3.8,1.2,3.8,4.3C501.7,348.2,500.1,350.2,497.5,350.2z
		 M497.7,342.6c-1.3,0-2.4,0.9-2.4,3.1c0,2,0.8,3.1,2.4,3.1c1.3,0,2.4-1,2.4-3.1C500.1,343.8,499.3,342.6,497.7,342.6z"/>
	<path d="M509.8,350v-5.5c0-1.2-0.3-1.9-1.4-1.9c-1.4,0-2.4,1.4-2.4,3.3v2.9c0.5,0,1,0.1,1.4,0.2v0.9H503v-0.9
		c0.4-0.1,1-0.2,1.5-0.2v-6.2c-0.4-0.1-1-0.1-1.5-0.2v-0.9c0.9-0.1,2-0.2,3-0.1c0,0.5,0,1.3-0.1,1.8l0,0c0.5-1.2,1.6-2,3-2
		c1.9,0,2.6,1.2,2.6,2.7v4.8c0.5,0,1,0.1,1.4,0.2v0.9h-3.1V350z"/>
	<path d="M522.8,350c0-0.6,0-1.2,0.1-1.7l0,0c-0.4,1-1.5,1.9-2.9,1.9s-2.4-0.9-2.4-2.3c0-1.8,1.9-2.9,5.1-2.9v-0.6
		c0-1.2-0.4-1.9-1.8-1.9c-0.5,0-1.1,0.1-1.6,0.2c0,0.4-0.1,0.9-0.2,1.4h-1v-2.3c0.9-0.3,1.9-0.5,2.9-0.5c2.5,0,3.2,1.2,3.2,2.9v4.6
		c0.4,0.1,1,0.1,1.4,0.2v0.9C524.9,350,523.8,350.1,522.8,350z M522.7,346.1c-2.7,0-3.6,0.7-3.6,1.6c0,0.7,0.5,1.3,1.3,1.3
		c1.4,0,2.3-1.4,2.3-2.7V346.1z"/>
	<path d="M533.5,350v-5.5c0-1.2-0.3-1.9-1.4-1.9c-1.4,0-2.4,1.4-2.4,3.3v2.9c0.5,0,1,0.1,1.4,0.2v0.9h-4.4v-0.9
		c0.4-0.1,1-0.2,1.5-0.2v-6.2c-0.4-0.1-1-0.1-1.5-0.2v-0.9c0.9-0.1,2-0.2,3-0.1c0,0.5,0,1.3-0.1,1.8l0,0c0.5-1.2,1.6-2,3-2
		c1.9,0,2.6,1.2,2.6,2.7v4.8c0.5,0,1,0.1,1.4,0.2v0.9h-3.1V350z"/>
	<path d="M543.4,350c0-0.5,0-1.2,0.1-1.7l0,0c-0.5,1.2-1.5,1.9-2.9,1.9c-2.1,0-3.2-1.5-3.2-4c0-3,1.7-4.8,4.4-4.8
		c0.5,0,0.9,0,1.4,0.1v-2.8c-0.4-0.1-1-0.1-1.5-0.2v-0.9c0.9-0.1,2-0.2,3-0.1v11.3c0.4,0.1,1,0.1,1.4,0.2v0.9
		C545.5,350,544.3,350.1,543.4,350z M543.4,342.8c-0.5-0.1-1-0.2-1.5-0.2c-1.6,0-2.7,1-2.7,3.4c0,1.8,0.6,2.9,1.9,2.9
		c1.5,0,2.3-1.8,2.3-3.3V342.8z"/>
	<path d="M557.9,350v-5.5c0-1.2-0.3-1.9-1.4-1.9c-1.4,0-2.4,1.4-2.4,3.3v2.9c0.5,0,1,0.1,1.4,0.2v0.9h-4.4v-0.9
		c0.4-0.1,1-0.2,1.5-0.2v-6.2c-0.4-0.1-1-0.1-1.5-0.2v-0.9c0.9-0.1,2-0.2,3-0.1c0,0.5,0,1.3-0.1,1.8l0,0c0.5-1.2,1.6-2,3-2
		c1.9,0,2.6,1.2,2.6,2.7v4.8c0.5,0,1,0.1,1.4,0.2v0.9h-3.1V350z"/>
	<path d="M565.7,350.2c-2.3,0-3.8-1.3-3.8-4.3c0-2.6,1.6-4.6,4.2-4.6c2.2,0,3.8,1.2,3.8,4.3C569.9,348.2,568.3,350.2,565.7,350.2z
		 M565.9,342.6c-1.3,0-2.4,0.9-2.4,3.1c0,2,0.8,3.1,2.4,3.1c1.3,0,2.4-1,2.4-3.1C568.3,343.8,567.4,342.6,565.9,342.6z"/>
	<path d="M583.7,342.6l-2.3,7.4h-1.8l-1.7-5c-0.2-0.5-0.3-1.1-0.5-1.7l0,0c-0.2,0.8-0.4,1.4-0.6,2.2l-1.4,4.6h-1.8l-2.2-7.4
		c-0.4,0-0.8-0.1-1.1-0.2v-0.9h3.9v0.9c-0.4,0.1-0.8,0.2-1.2,0.2l1,3.8c0.2,0.7,0.4,1.4,0.5,1.9l0,0c0.2-0.7,0.4-1.4,0.6-2.1
		l1.5-4.8h1.6l1.5,4.8c0.3,1,0.5,1.5,0.6,2.1l0,0c0.2-0.6,0.3-1.1,0.5-1.9l1.1-3.9c-0.4,0-0.8-0.1-1.2-0.2v-0.9h3.8v0.9
		C584.5,342.5,584.1,342.6,583.7,342.6z"/>
</g>
<g enable-background="new    ">
	<path d="M450.3,373v-5.5c0-1.2-0.3-1.9-1.5-1.9c-1.4,0-2.4,1.4-2.4,3.3v2.9c0.5,0,1,0.1,1.4,0.2v0.9h-4.4V372
		c0.4-0.1,0.9-0.2,1.4-0.2v-10.2c-0.4-0.1-1-0.1-1.5-0.2v-0.9c0.9-0.1,2-0.2,3-0.1v4.1c0,0.6,0,1.2-0.2,1.7l0,0
		c0.5-1.2,1.5-1.9,3-1.9c1.9,0,2.6,1.2,2.6,2.7v4.8c0.5,0,1,0.1,1.4,0.2v0.9h-2.8V373z"/>
	<path d="M459.5,373c0-0.6,0-1.2,0.1-1.7l0,0c-0.4,1-1.5,1.9-2.9,1.9s-2.4-0.9-2.4-2.3c0-1.8,1.9-2.9,5.1-2.9v-0.6
		c0-1.2-0.4-1.9-1.8-1.9c-0.5,0-1.1,0.1-1.6,0.2c0,0.4-0.1,0.9-0.2,1.4h-1v-2.3c0.9-0.3,1.9-0.5,2.9-0.5c2.5,0,3.2,1.2,3.2,2.9v4.6
		c0.4,0.1,1,0.1,1.4,0.2v0.9C461.6,373,460.4,373,459.5,373z M459.4,369c-2.7,0-3.6,0.7-3.6,1.6c0,0.7,0.5,1.3,1.3,1.3
		c1.4,0,2.3-1.4,2.3-2.7L459.4,369L459.4,369z"/>
	<path d="M465.7,373.1c-0.7,0-1.4-0.1-2-0.2v-2.4h0.9c0.1,0.4,0.2,0.9,0.2,1.4c0.3,0.1,0.7,0.1,1,0.1c1.2,0,1.9-0.5,1.9-1.3
		c0-1.9-4.3-0.8-4.3-3.8c0-1.5,1.2-2.6,3.4-2.6c0.6,0,1.3,0.1,2,0.2v2.3h-0.9c-0.1-0.4-0.2-0.9-0.2-1.3c-0.3-0.1-0.6-0.1-1-0.1
		c-1.2,0-1.7,0.5-1.7,1.3c0,1.9,4.3,0.9,4.3,3.7C469.4,372,468,373.1,465.7,373.1z"/>
	<path d="M479.9,373c0-0.6,0-1.2,0.1-1.7l0,0c-0.4,1-1.5,1.9-2.9,1.9s-2.4-0.9-2.4-2.3c0-1.8,1.9-2.9,5.1-2.9v-0.6
		c0-1.2-0.4-1.9-1.8-1.9c-0.5,0-1.1,0.1-1.6,0.2c0,0.4-0.1,0.9-0.2,1.4h-1v-2.3c0.9-0.3,1.9-0.5,2.9-0.5c2.5,0,3.2,1.2,3.2,2.9v4.6
		c0.4,0.1,1,0.1,1.4,0.2v0.9C482.1,373,480.9,373,479.9,373z M479.9,369c-2.7,0-3.6,0.7-3.6,1.6c0,0.7,0.5,1.3,1.3,1.3
		c1.4,0,2.3-1.4,2.3-2.7L479.9,369L479.9,369z"/>
	<path d="M487.2,373v-1c0.4-0.1,0.9-0.2,1.4-0.2v-10.2c-0.4-0.1-1-0.1-1.5-0.2v-0.9c0.9-0.1,2-0.2,3-0.1v11.4c0.5,0,1,0.1,1.4,0.2
		v0.9L487.2,373L487.2,373z"/>
	<path d="M499.8,368.8h-5.6c-0.1,2.2,0.8,3.2,2.7,3.2c0.8,0,1.7-0.2,2.4-0.5l0.2,1.2c-0.9,0.3-1.9,0.5-3,0.5c-2.6,0-4-1.4-4-4.4
		c0-2.5,1.4-4.5,3.9-4.5c2.4,0,3.4,1.6,3.4,3.5C499.8,368,499.8,368.3,499.8,368.8z M496.3,365.5c-1.1,0-1.9,0.8-2.1,2.1h4
		C498.3,366.3,497.5,365.5,496.3,365.5z"/>
	<path d="M508,373v-5.5c0-1.2-0.3-1.9-1.4-1.9c-1.4,0-2.4,1.4-2.4,3.3v2.9c0.5,0,1,0.1,1.4,0.2v0.9h-4.4V372c0.4-0.1,1-0.2,1.5-0.2
		v-6.2c-0.4-0.1-1-0.1-1.5-0.2v-0.9c0.9-0.1,2-0.2,3-0.1c0,0.5,0,1.3-0.1,1.8l0,0c0.5-1.2,1.6-2,3-2c1.9,0,2.6,1.2,2.6,2.7v4.8
		c0.5,0,1,0.1,1.4,0.2v0.9H508V373z"/>
	<path d="M515.6,377.5c-2.2,0-3.6-0.9-3.6-2.6c0-1,0.7-1.8,1.4-2.3c-0.5-0.2-0.8-0.7-0.8-1.3s0.4-1.2,0.9-1.4
		c-0.8-0.5-1.3-1.2-1.3-2.4c0-1.7,1.3-3.2,3.6-3.2c0.5,0,0.8,0.1,1.2,0.2h2.9v1.2h-1.4c0.4,0.3,0.7,0.9,0.7,1.6
		c0,1.8-1.2,3.1-3.6,3.1c-0.3,0-0.6,0-0.9-0.1c-0.4,0.2-0.6,0.4-0.6,0.7c0,0.5,0.4,0.6,1.5,0.7l1.6,0.1c1.8,0.1,2.9,0.9,2.9,2.5
		C520.1,376,518.3,377.5,515.6,377.5z M516.8,373l-1.7-0.1c-0.2,0-0.4,0-0.5,0c-0.7,0.5-1.1,1-1.1,1.7c0,1,1,1.6,2.3,1.6
		c1.7,0,2.7-0.8,2.7-1.8C518.6,373.5,518,373,516.8,373z M515.9,365.5c-1.3,0-2,0.8-2,1.9c0,1.2,0.7,1.9,2,1.9c1.2,0,2-0.7,2-1.9
		C517.8,366.2,517.1,365.5,515.9,365.5z"/>
	<path d="M524.7,373.1c-1.8,0-2.3-0.7-2.3-2.6v-4.9h-1.7v-1.2h1.8v-2.8l1.5-0.4v3.2h2.4v1.2H524v4.4c0,1.4,0.3,1.8,1.2,1.8
		c0.4,0,0.8-0.1,1.1-0.1l0.2,1.3C526,373,525.3,373.1,524.7,373.1z"/>
	<path d="M534.2,373v-5.5c0-1.2-0.3-1.9-1.5-1.9c-1.4,0-2.4,1.4-2.4,3.3v2.9c0.5,0,1,0.1,1.4,0.2v0.9h-4.4V372
		c0.4-0.1,0.9-0.2,1.4-0.2v-10.2c-0.4-0.1-1-0.1-1.5-0.2v-0.9c0.9-0.1,2-0.2,3-0.1v4.1c0,0.6,0,1.2-0.2,1.7l0,0
		c0.5-1.2,1.5-1.9,3-1.9c1.9,0,2.6,1.2,2.6,2.7v4.8c0.5,0,1,0.1,1.4,0.2v0.9h-2.8V373z"/>
	<path d="M545.8,373.1c-2.3,0-3.8-1.3-3.8-4.3c0-2.6,1.6-4.6,4.2-4.6c2.2,0,3.8,1.2,3.8,4.3C550,371.1,548.4,373.1,545.8,373.1z
		 M546,365.6c-1.3,0-2.4,0.9-2.4,3.1c0,2,0.8,3.1,2.4,3.1c1.3,0,2.4-1,2.4-3.1C548.4,366.8,547.5,365.6,546,365.6z"/>
	<path d="M557.3,361.8c-0.4-0.1-0.9-0.2-1.3-0.2c-1.2,0-1.8,0.7-1.8,2.2v0.7h2.4v1.2h-2.4v6.2c0.5,0,1,0.1,1.5,0.2v0.9h-4.5v-1
		c0.4-0.1,1-0.2,1.5-0.2v-6.2h-1.9v-1.2h1.9v-0.6c0-2.4,1.2-3.5,3.3-3.5c0.5,0,0.9,0.1,1.4,0.2L557.3,361.8z"/>
	<path d="M561.4,373v-1c0.6-0.1,1.2-0.2,1.9-0.2v-6.4l-1.9,0.8l-0.3-1.3l2.5-1h1.3v7.8c0.5,0,1,0.1,1.5,0.2v0.9h-5V373z"/>
	<path d="M568.9,373.1c-0.6,0-1.1-0.5-1.1-1.1s0.5-1.1,1.1-1.1s1.1,0.5,1.1,1.1S569.5,373.1,568.9,373.1z"/>
</g>
<g enable-background="new    ">
	<path fill="#999999" d="M446.9,399.5c-2-3.2-2.5-6-2.5-8.5s0.6-5.5,2.5-8.6l1.1,0.5c-1.4,2.4-2.1,5.1-2.1,7.9c0,2.9,0.7,5.6,2.2,8
		L446.9,399.5z"/>
	<path fill="#999999" d="M455.6,396c0-0.5,0-1.3,0.1-1.8l0,0c-0.5,1.2-1.5,2-3,2c-2,0-2.6-1.2-2.6-2.7v-4.8c-0.4-0.1-1-0.1-1.4-0.2
		v-0.9c0.8-0.1,2-0.2,3-0.1v5.5c0,1.2,0.3,1.9,1.5,1.9c1.4,0,2.4-1.4,2.4-3.3v-2.9c-0.4-0.1-0.9-0.1-1.4-0.2v-0.9
		c0.8-0.1,2-0.2,2.9-0.1v7.3c0.4,0.1,1,0.1,1.4,0.2v0.9C457.7,396,456.5,396,455.6,396z"/>
	<path fill="#999999" d="M466.3,396v-5.5c0-1.2-0.3-1.9-1.4-1.9c-1.4,0-2.4,1.4-2.4,3.3v2.9c0.5,0,1,0.1,1.4,0.2v0.9h-4.4V395
		c0.4-0.1,1-0.2,1.5-0.2v-6.2c-0.4-0.1-1-0.1-1.5-0.2v-0.9c0.9-0.1,2-0.2,3-0.1c0,0.5,0,1.3-0.1,1.8l0,0c0.5-1.2,1.6-2,3-2
		c1.9,0,2.6,1.2,2.6,2.7v4.8c0.5,0,1,0.1,1.4,0.2v0.9h-3.1V396z"/>
	<path fill="#999999" d="M470.1,396V395c0.4-0.1,1-0.2,1.5-0.2v-6.2c-0.4-0.1-1-0.1-1.5-0.2v-0.9c0.9-0.1,2-0.2,3-0.1v7.4
		c0.5,0,1,0.1,1.4,0.2v0.9H470.1z M472.3,385.8c-0.6,0-1-0.4-1-1s0.5-1,1-1c0.6,0,1,0.4,1,1C473.4,385.2,472.9,385.8,472.3,385.8z"
		/>
	<path fill="#999999" d="M478.9,396.1c-1.8,0-2.3-0.7-2.3-2.6v-4.9h-1.8v-1.2h1.8v-2.8l1.5-0.4v3.2h2.4v1.2h-2.4v4.4
		c0,1.4,0.3,1.8,1.2,1.8c0.4,0,0.8-0.1,1.1-0.1l0.2,1.3C480.1,396,479.4,396.1,478.9,396.1z"/>
	<path fill="#999999" d="M493.3,388.5l-2.7,7.4h-1.9l-2.7-7.4c-0.4,0-0.8-0.1-1.1-0.2v-0.9h4v0.9c-0.4,0.1-0.8,0.2-1.2,0.2l1.4,4.2
		c0.2,0.6,0.4,1.1,0.5,1.7l0,0c0.2-0.6,0.3-1.1,0.5-1.6l1.5-4.2c-0.4,0-0.8-0.1-1.2-0.2v-0.9h3.9v0.9
		C494.1,388.5,493.7,388.5,493.3,388.5z"/>
	<path fill="#999999" d="M502.1,391.6h-5.6c-0.1,2.2,0.8,3.2,2.7,3.2c0.8,0,1.7-0.2,2.4-0.5l0.2,1.2c-0.9,0.3-1.9,0.5-3,0.5
		c-2.6,0-4-1.4-4-4.4c0-2.5,1.4-4.5,3.9-4.5c2.4,0,3.4,1.6,3.4,3.5C502.1,391,502.1,391.3,502.1,391.6z M498.6,388.5
		c-1.1,0-1.9,0.8-2.1,2.1h4C500.6,389.2,499.8,388.5,498.6,388.5z"/>
	<path fill="#999999" d="M507.5,396.1c-2.1,0-3.9-1-3.9-4.1c0-2.8,1.4-4.7,4.3-4.7c0.7,0,1.5,0.1,2.1,0.3v2.5h-1
		c-0.1-0.5-0.2-1-0.2-1.4c-0.3-0.1-0.7-0.1-1.2-0.1c-1.5,0-2.4,1.3-2.4,3.2c0,1.7,0.6,3,2.6,3c0.7,0,1.5-0.2,2-0.4l0.3,1.3
		C509.5,395.8,508.5,396.1,507.5,396.1z"/>
	<path fill="#999999" d="M514.7,396.1c-1.8,0-2.3-0.7-2.3-2.6v-4.9h-1.8v-1.2h1.8v-2.8l1.5-0.4v3.2h2.4v1.2h-2.4v4.4
		c0,1.4,0.3,1.8,1.2,1.8c0.4,0,0.8-0.1,1.1-0.1l0.2,1.3C515.9,396,515.2,396.1,514.7,396.1z"/>
	<path fill="#999999" d="M521.5,396.1c-2.3,0-3.8-1.3-3.8-4.3c0-2.6,1.6-4.6,4.2-4.6c2.2,0,3.8,1.2,3.8,4.3
		C525.7,394.1,524.1,396.1,521.5,396.1z M521.7,388.5c-1.3,0-2.4,0.9-2.4,3.1c0,2,0.8,3.1,2.4,3.1c1.3,0,2.4-1,2.4-3.1
		C524.1,389.6,523.3,388.5,521.7,388.5z"/>
	<path fill="#999999" d="M532.8,388.8c-2-0.3-2.8,1-2.8,3.7v2.3c0.5,0,1,0.1,1.5,0.2v0.9H527V395c0.4-0.1,1-0.2,1.5-0.2v-6.2
		c-0.4-0.1-1-0.1-1.5-0.2v-0.9c0.9-0.1,2-0.2,3-0.1c0,0.5-0.1,1.3-0.2,2l0,0c0.4-1.2,1.2-2.4,3.1-2.2L532.8,388.8z"/>
	<path fill="#999999" d="M534.7,399.5l-1.1-0.6c1.4-2.4,2.1-5.1,2.1-7.9c0-2.9-0.7-5.6-2.2-8l1.2-0.6c2,3.2,2.5,5.9,2.5,8.5
		S536.7,396.5,534.7,399.5z"/>
</g>
<g enable-background="new    ">
	<path fill="#999999" d="M540.8,297l-2.7,7.4h-1.9l-2.7-7.4c-0.4,0-0.8-0.1-1.1-0.2v-0.9h4v0.9c-0.4,0.1-0.8,0.2-1.2,0.2l1.4,4.2
		c0.2,0.6,0.4,1.1,0.5,1.7l0,0c0.2-0.6,0.3-1.1,0.5-1.6l1.5-4.2c-0.4,0-0.8-0.1-1.2-0.2V296h3.9v0.9
		C541.6,296.9,541.2,297,540.8,297z"/>
</g>
<polyline fill="#FFFFFF" stroke="#999999" stroke-width="1.3" points="541.2,284 545.5,288.2 541.2,292.4 "/>
<line fill="none" stroke="#999999" stroke-width="1.3" x1="545.5" y1="288.2" x2="529.5" y2="288.2"/>
<line fill="none" stroke="#000000" stroke-width="2" x1="324.6" y1="455.5" x2="289.2" y2="455.5"/>
<line fill="none" stroke="#000000" stroke-width="2" x1="324.6" y1="444" x2="289.2" y2="444"/>
<polyline fill="none" stroke="#000000" stroke-width="1.3" stroke-dasharray="4,4" points="35.4,501.5 30.8,492 173.9,423.1 
	178.5,432.6 "/>
<g enable-background="new    ">
	<path d="M86.3,446.6v-1.4h3.1V438l-3,1.9l-0.6-1.3l3.8-2.3h1.3v9h2.7v1.4h-7.3V446.6z"/>
	<path d="M99.9,446.8c-2.3,0-4.3-1.3-4.3-5.3c0-3.4,2.1-5.4,4.5-5.4c2.2,0,4.3,1.3,4.3,5.3C104.4,445,102.3,446.8,99.9,446.8z
		 M100,437.5c-1.4,0-2.7,1.2-2.7,4c0,2.9,1.1,4.1,2.7,4.1c1.4,0,2.7-1.2,2.7-4C102.8,438.8,101.7,437.5,100,437.5z"/>
</g>
<line fill="none" stroke="#999999" stroke-width="1.3" x1="491" y1="507.5" x2="538.2" y2="484.3"/>
<polyline fill="none" stroke="#999999" stroke-width="1.3" points="530.3,481.8 538.2,484.3 535.7,492.2 "/>
<polyline fill="none" stroke="#000000" stroke-width="1.3" stroke-dasharray="4,4" points="487.7,502.5 483.1,493 532.2,469.5 
	536.7,478.8 "/>
<g enable-background="new    ">
	<path d="M500.4,468.6v-1.4h3.2V460l-3,1.9l-0.6-1.3l3.8-2.3h1.3v9h2.7v1.4h-7.4V468.6z"/>
</g>
<g enable-background="new    ">
	<path d="M275.7,482.8c-0.5,0-0.9,0-1.2-0.1v2.9c0.5,0,1,0.1,1.5,0.2v0.9h-4.6v-0.9c0.4-0.1,1-0.2,1.5-0.2v-9.3
		c-0.5,0-1-0.1-1.5-0.2v-0.9h1.5c0.5,0,1.9-0.1,3-0.1c3.1,0,4.4,1.7,4.4,3.6C280.3,481.1,278.5,482.8,275.7,482.8z M275.7,476.5
		c-0.4,0-0.9,0-1.3,0v5c0.3,0.1,0.8,0.1,1.4,0.1c1.9,0,2.9-1.2,2.9-2.6C278.7,477.6,278,476.5,275.7,476.5z"/>
	<path d="M287.1,479.6c-2-0.3-2.8,1-2.8,3.7v2.3c0.5,0,1,0.1,1.5,0.2v0.9h-4.5v-0.9c0.4-0.1,1-0.2,1.5-0.2v-6.2
		c-0.4-0.1-1-0.1-1.5-0.2v-0.9c0.9-0.1,2-0.2,3-0.1c0,0.5-0.1,1.3-0.2,2l0,0c0.4-1.2,1.2-2.4,3.1-2.2L287.1,479.6z"/>
	<path d="M292,487c-2.3,0-3.8-1.3-3.8-4.3c0-2.6,1.6-4.6,4.2-4.6c2.2,0,3.8,1.2,3.8,4.3C296.2,485,294.6,487,292,487z M292.2,479.5
		c-1.3,0-2.4,0.9-2.4,3.1c0,2,0.8,3.1,2.4,3.1c1.3,0,2.4-1,2.4-3.1C294.6,480.5,293.8,479.5,292.2,479.5z"/>
	<path d="M301.5,487c-2.1,0-3.9-1-3.9-4.1c0-2.8,1.4-4.7,4.3-4.7c0.7,0,1.5,0.1,2.1,0.3v2.5h-1c-0.1-0.5-0.2-1-0.2-1.4
		c-0.3-0.1-0.7-0.1-1.2-0.1c-1.5,0-2.4,1.3-2.4,3.2c0,1.7,0.6,3,2.6,3c0.7,0,1.5-0.2,2-0.4l0.3,1.3C303.5,486.8,302.5,487,301.5,487
		z"/>
	<path d="M312.5,482.5h-5.6c-0.1,2.2,0.8,3.2,2.7,3.2c0.8,0,1.7-0.2,2.4-0.5l0.2,1.2c-0.9,0.3-1.9,0.5-3,0.5c-2.6,0-4-1.4-4-4.4
		c0-2.5,1.4-4.5,3.9-4.5c2.4,0,3.4,1.6,3.4,3.5C312.5,481.8,312.5,482.1,312.5,482.5z M309,479.2c-1.1,0-1.9,0.8-2.1,2.1h4
		C311,480.1,310.2,479.2,309,479.2z"/>
	<path d="M316.3,487c-0.7,0-1.4-0.1-2-0.2v-2.4h0.9c0.1,0.4,0.2,0.9,0.2,1.4c0.3,0.1,0.7,0.1,1,0.1c1.2,0,1.9-0.5,1.9-1.3
		c0-1.9-4.3-0.8-4.3-3.8c0-1.5,1.2-2.6,3.4-2.6c0.6,0,1.3,0.1,2,0.2v2.3h-0.9c-0.1-0.4-0.2-0.9-0.2-1.3c-0.3-0.1-0.6-0.1-1-0.1
		c-1.2,0-1.7,0.5-1.7,1.3c0,1.9,4.3,0.9,4.3,3.7C320,485.8,318.6,487,316.3,487z"/>
	<path d="M323.8,487c-0.7,0-1.4-0.1-2-0.2v-2.4h0.9c0.1,0.4,0.2,0.9,0.2,1.4c0.3,0.1,0.7,0.1,1,0.1c1.2,0,1.9-0.5,1.9-1.3
		c0-1.9-4.3-0.8-4.3-3.8c0-1.5,1.2-2.6,3.4-2.6c0.6,0,1.3,0.1,2,0.2v2.3H326c-0.1-0.4-0.2-0.9-0.2-1.3c-0.3-0.1-0.6-0.1-1-0.1
		c-1.2,0-1.7,0.5-1.7,1.3c0,1.9,4.3,0.9,4.3,3.7C327.5,485.8,326.1,487,323.8,487z"/>
	<path d="M336.6,487c-2.3,0-3.8-1.3-3.8-4.3c0-2.6,1.6-4.6,4.2-4.6c2.2,0,3.8,1.2,3.8,4.3C340.8,485,339.2,487,336.6,487z
		 M336.8,479.5c-1.3,0-2.4,0.9-2.4,3.1c0,2,0.8,3.1,2.4,3.1c1.3,0,2.4-1,2.4-3.1C339.2,480.5,338.4,479.5,336.8,479.5z"/>
	<path d="M348.2,475.5c-0.4-0.1-0.9-0.2-1.3-0.2c-1.2,0-1.8,0.7-1.8,2.2v0.7h2.4v1.2h-2.4v6.2c0.5,0,1,0.1,1.5,0.2v0.9h-4.5v-0.9
		c0.4-0.1,1-0.2,1.5-0.2v-6.2h-1.9v-1.2h1.9v-0.6c0-2.4,1.2-3.5,3.3-3.5c0.5,0,0.9,0.1,1.4,0.2L348.2,475.5z"/>
</g>
<g enable-background="new    ">
	<path d="M265.8,499.3v10.4h-2.1l-4.5-7.3c-0.5-0.8-1-1.7-1.3-2.5c0.1,2,0.1,5,0.1,8.7c0.5,0,1,0.1,1.4,0.2v0.9H255v-0.9
		c0.4-0.1,1-0.2,1.5-0.2v-9.3c-0.5,0-1-0.1-1.5-0.2v-0.9h3.6l4.4,7.2c0.5,0.8,1,1.7,1.4,2.5c-0.1-2-0.1-5-0.1-8.6
		c-0.5,0-0.9-0.1-1.3-0.2v-0.9h4.1v0.9C266.6,499.1,266.2,499.2,265.8,499.3z"/>
	<path d="M272,510c-2.3,0-3.8-1.3-3.8-4.3c0-2.6,1.6-4.6,4.2-4.6c2.2,0,3.8,1.2,3.8,4.3C276.2,508,274.6,510,272,510z M272.2,502.3
		c-1.3,0-2.4,0.9-2.4,3.1c0,2,0.8,3.1,2.4,3.1c1.3,0,2.4-1,2.4-3.1C274.6,503.5,273.7,502.3,272.2,502.3z"/>
	<path d="M283.3,502.5c-2-0.3-2.8,1-2.8,3.7v2.3c0.5,0,1.1,0.1,1.5,0.2v0.9h-4.5v-0.9c0.4-0.1,1-0.2,1.5-0.2v-6.2
		c-0.4-0.1-1-0.1-1.5-0.2v-0.9c0.9-0.1,2-0.2,3-0.1c0,0.5-0.1,1.3-0.2,2l0,0c0.4-1.2,1.2-2.4,3.1-2.2L283.3,502.5z"/>
	<path d="M296.3,509.8v-5.5c0-1.2-0.3-1.9-1.4-1.9c-1.2,0-2.4,1.3-2.4,3.4v2.9c0.5,0,1,0.1,1.4,0.2v0.9H291v-5.5
		c0-1.1-0.2-1.9-1.4-1.9c-1.3,0-2.4,1.4-2.4,3.4v2.9c0.5,0,1,0.1,1.4,0.2v0.9h-4.4v-0.9c0.4-0.1,1-0.2,1.5-0.2v-6.2
		c-0.4-0.1-1-0.1-1.5-0.2v-0.9c0.9-0.1,2.1-0.2,3-0.1c0,0.5-0.1,1.3-0.1,1.8l0,0c0.5-1.2,1.6-2,3-2c1.8,0,2.3,1.2,2.4,1.9
		c0.3-0.8,1.3-1.9,2.9-1.9s2.5,0.9,2.5,2.8v4.8c0.5,0,1,0.1,1.4,0.2v0.9L296.3,509.8L296.3,509.8z"/>
	<path d="M305.5,509.8c0-0.6,0-1.2,0.1-1.7l0,0c-0.4,1-1.5,1.9-2.9,1.9s-2.4-0.9-2.4-2.3c0-1.8,1.9-2.9,5.1-2.9v-0.6
		c0-1.2-0.4-1.9-1.8-1.9c-0.5,0-1.1,0.1-1.6,0.2c0,0.4-0.1,0.9-0.2,1.4h-1v-2.3c0.9-0.3,1.9-0.5,2.9-0.5c2.5,0,3.2,1.2,3.2,2.9v4.6
		c0.4,0.1,1,0.1,1.4,0.2v0.9C307.6,509.8,306.4,509.8,305.5,509.8z M305.4,505.8c-2.7,0-3.6,0.7-3.6,1.6c0,0.7,0.5,1.3,1.3,1.3
		c1.4,0,2.3-1.4,2.3-2.7L305.4,505.8L305.4,505.8z"/>
	<path d="M309,509.8v-0.9c0.4-0.1,0.9-0.2,1.4-0.2v-10.2c-0.4-0.1-1-0.1-1.5-0.2v-0.9c0.9-0.1,2-0.2,3-0.1v11.4c0.5,0,1,0.1,1.4,0.2
		v0.9H309z"/>
	<path d="M314.3,509.8v-0.9c0.4-0.1,1-0.2,1.5-0.2v-6.2c-0.4-0.1-1-0.1-1.5-0.2v-0.9c0.9-0.1,2-0.2,3-0.1v7.4c0.5,0,1,0.1,1.4,0.2
		v0.9H314.3z M316.5,499.5c-0.6,0-1-0.4-1-1s0.5-1,1-1c0.6,0,1,0.4,1,1C317.6,499,317.1,499.5,316.5,499.5z"/>
	<path d="M319.8,509.8v-1.1l4.4-6.2c-0.5,0-1.3,0-2.1,0h-1c-0.1,0.4-0.1,0.8-0.2,1.3h-1v-2.5h6v1.1l-4.3,6.2c0.5,0,1.4,0,2.1,0h1.1
		c0.1-0.4,0.1-0.9,0.2-1.3h1v2.6L319.8,509.8L319.8,509.8z"/>
	<path d="M332.8,509.8c0-0.6,0-1.2,0.1-1.7l0,0c-0.4,1-1.5,1.9-2.9,1.9s-2.4-0.9-2.4-2.3c0-1.8,1.9-2.9,5.1-2.9v-0.6
		c0-1.2-0.4-1.9-1.8-1.9c-0.5,0-1.1,0.1-1.6,0.2c0,0.4-0.1,0.9-0.2,1.4h-1v-2.3c0.9-0.3,1.9-0.5,2.9-0.5c2.5,0,3.2,1.2,3.2,2.9v4.6
		c0.4,0.1,1,0.1,1.4,0.2v0.9C334.9,509.8,333.7,509.8,332.8,509.8z M332.7,505.8c-2.7,0-3.6,0.7-3.6,1.6c0,0.7,0.5,1.3,1.3,1.3
		c1.4,0,2.3-1.4,2.3-2.7L332.7,505.8L332.7,505.8z"/>
	<path d="M339.9,510c-1.8,0-2.3-0.7-2.3-2.6v-4.9h-1.8v-1.2h1.8v-2.8l1.5-0.4v3.2h2.4v1.2h-2.4v4.4c0,1.4,0.3,1.8,1.2,1.8
		c0.4,0,0.8-0.1,1.1-0.1l0.2,1.3C341.1,509.8,340.5,510,339.9,510z"/>
	<path d="M342.7,509.8v-0.9c0.4-0.1,1-0.2,1.5-0.2v-6.2c-0.4-0.1-1-0.1-1.5-0.2v-0.9c0.9-0.1,2-0.2,3-0.1v7.4c0.5,0,1,0.1,1.4,0.2
		v0.9H342.7z M345,499.5c-0.6,0-1-0.4-1-1s0.5-1,1-1c0.6,0,1,0.4,1,1C346,499,345.5,499.5,345,499.5z"/>
	<path d="M351.8,510c-2.3,0-3.8-1.3-3.8-4.3c0-2.6,1.6-4.6,4.2-4.6c2.2,0,3.8,1.2,3.8,4.3C356,508,354.4,510,351.8,510z M352,502.3
		c-1.3,0-2.4,0.9-2.4,3.1c0,2,0.8,3.1,2.4,3.1c1.3,0,2.4-1,2.4-3.1C354.4,503.5,353.6,502.3,352,502.3z"/>
	<path d="M364.1,509.8v-5.5c0-1.2-0.3-1.9-1.4-1.9c-1.4,0-2.4,1.4-2.4,3.3v2.9c0.5,0,1,0.1,1.4,0.2v0.9h-4.4v-0.9
		c0.4-0.1,1-0.2,1.5-0.2v-6.2c-0.4-0.1-1-0.1-1.5-0.2v-0.9c0.9-0.1,2-0.2,3-0.1c0,0.5,0,1.3-0.1,1.8l0,0c0.5-1.2,1.6-2,3-2
		c1.9,0,2.6,1.2,2.6,2.7v4.8c0.5,0,1,0.1,1.4,0.2v0.9h-3.1V509.8z"/>
</g>
<polyline fill="none" stroke="#000000" stroke-width="2" points="317.4,436.5 330.1,449.6 317.1,462.3 "/>
</svg>
