<?xml version="1.0" encoding="utf-8"?>
<!-- Generator: Adobe Illustrator 18.0.0, SVG Export Plug-In . SVG Version: 6.00 Build 0)  -->
<!DOCTYPE svg PUBLIC "-//W3C//DTD SVG 1.1//EN" "http://www.w3.org/Graphics/SVG/1.1/DTD/svg11.dtd">
<svg version="1.1" id="Layer_1" xmlns="http://www.w3.org/2000/svg" xmlns:xlink="http://www.w3.org/1999/xlink" x="0px" y="0px"
	 viewBox="-16.5 314.5 645 163" enable-background="new -16.5 314.5 645 163" xml:space="preserve">
<g enable-background="new    ">
	<path d="M97.9,389.7c-1.2,0-2-0.1-2.9-0.3v-11.1c-0.4-0.1-1-0.1-1.5-0.2v-0.9c0.9-0.1,2-0.2,3-0.1v4.1c0,0.5-0.1,1.2-0.2,1.6l0,0
		c0.5-1.2,1.5-1.9,2.8-1.9c2,0,3.1,1.4,3.1,4C102.4,387.8,100.7,389.7,97.9,389.7z M98.8,382c-1.5,0-2.3,1.8-2.3,3.3v2.8
		c0.4,0.1,0.9,0.2,1.5,0.2c1.6,0,2.7-1,2.7-3.4C100.7,383.2,100.1,382,98.8,382z"/>
</g>
<g enable-background="new    ">
	<path d="M238.9,453c0-0.6,0-1.2,0.1-1.7l0,0c-0.4,1-1.5,1.9-2.9,1.9s-2.4-0.9-2.4-2.3c0-1.8,1.9-2.9,5.1-2.9v-0.6
		c0-1.2-0.4-1.9-1.8-1.9c-0.5,0-1.1,0.1-1.6,0.2c0,0.4-0.1,0.9-0.2,1.4h-1v-2.3c0.9-0.3,1.9-0.5,2.9-0.5c2.5,0,3.2,1.2,3.2,2.9v4.6
		c0.4,0.1,1,0.1,1.4,0.2v0.9C241,453,239.8,453,238.9,453z M238.8,449c-2.7,0-3.6,0.7-3.6,1.6c0,0.7,0.5,1.3,1.3,1.3
		c1.4,0,2.3-1.4,2.3-2.7L238.8,449L238.8,449z"/>
</g>
<g enable-background="new    ">
	<path d="M392.1,375.2c0-0.6,0-1.2,0.1-1.8l0,0c-0.5,1.1-1.7,1.9-3.2,1.9c-1.6,0-2.5-0.8-2.5-2.2c0-1.9,1.9-3,5.6-3v-0.6
		c0-1.2-0.6-1.8-2.1-1.8c-0.9,0-2,0.2-2.8,0.7l-0.2-1.3c0.9-0.4,1.9-0.6,3.1-0.6c2.6,0,3.5,1.2,3.5,2.9v3.4c0,0.8,0,1.7,0,2.5h-1.5
		V375.2z M392,371.2L392,371.2c-3.3,0-4,0.7-4,1.7c0,0.8,0.6,1.2,1.5,1.2c1.5,0,2.6-1.4,2.6-2.7v-0.2H392z"/>
</g>
<g enable-background="new    ">
	<path d="M395.5,370.3v-1l1.9-1.7c1.7-1.4,2.1-2,2.1-2.9s-0.5-1.5-1.6-1.5c-0.8,0-1.5,0.4-1.9,0.7l-0.3-1.1c0.7-0.4,1.5-0.7,2.4-0.7
		c1.8,0,2.7,1,2.7,2.4c0,1.1-0.6,2-2.1,3.3l-1.6,1.4H397c0.6-0.1,2.1-0.1,4.1-0.1v1.2L395.5,370.3L395.5,370.3z"/>
</g>
<g enable-background="new    ">
	<path d="M417.1,370.5v3.6h-1.5v-3.6h-3.5v-1.3h3.5v-3.6h1.5v3.6h3.5v1.3H417.1z"/>
	<path d="M436.4,375.2c-1.2,0-2-0.1-2.9-0.3v-12.3h1.5v3.7c0,0.8-0.1,1.5-0.2,2.2l0,0c0.5-1.4,1.5-2.1,2.9-2.1c2,0,3.3,1.4,3.3,4
		C441.1,373.5,439.2,375.2,436.4,375.2z M437.4,367.7c-1.5,0-2.3,1.9-2.3,3.4v2.7c0.4,0.1,0.9,0.2,1.5,0.2c1.6,0,2.9-1,2.9-3.5
		C439.5,368.8,438.7,367.7,437.4,367.7z"/>
</g>
<g enable-background="new    ">
	<path d="M443.1,370.3v-1l1.9-1.7c1.7-1.4,2.1-2,2.1-2.9s-0.5-1.5-1.6-1.5c-0.8,0-1.5,0.4-1.9,0.7l-0.3-1.1c0.7-0.4,1.5-0.7,2.4-0.7
		c1.8,0,2.7,1,2.7,2.4c0,1.1-0.6,2-2.1,3.3l-1.6,1.4h-0.1c0.6-0.1,2.1-0.1,4.1-0.1v1.2L443.1,370.3L443.1,370.3z"/>
</g>
<g enable-background="new    ">
	<path d="M455.6,369v-1.3h7.7v1.3H455.6z M455.6,372v-1.3h7.7v1.3H455.6z"/>
	<path d="M480.8,375.2c-2.8,0-4.3-1.6-4.3-4.1c0-2.8,1.7-4.7,4.8-4.7c0.9,0,1.9,0.2,2.6,0.4l-0.3,1.4c-0.6-0.3-1.5-0.5-2.3-0.5
		c-1.9,0-3.1,1.3-3.1,3.2c0,1.7,1,3,3,3c0.9,0,1.8-0.2,2.5-0.5l0.3,1.3C483.1,375,481.9,375.2,480.8,375.2z"/>
</g>
<g enable-background="new    ">
	<path d="M486.1,370.3v-1l1.9-1.7c1.7-1.4,2.1-2,2.1-2.9s-0.5-1.5-1.6-1.5c-0.8,0-1.5,0.4-1.9,0.7l-0.3-1.1c0.7-0.4,1.5-0.7,2.4-0.7
		c1.8,0,2.7,1,2.7,2.4c0,1.1-0.6,2-2.1,3.3l-1.5,1.4h-0.1c0.6-0.1,2.1-0.1,4.1-0.1v1.2L486.1,370.3L486.1,370.3z"/>
</g>
<polygon fill="none" stroke="#000000" stroke-width="1.3" points="357.5,433.5 113.6,433.5 113.6,338.8 "/>
<polyline fill="none" stroke="#000000" stroke-width="1.3" points="133.2,433.5 133.2,413.8 113.6,413.8 "/>
<g enable-background="new    ">
	<path d="M236.2,375.2c-2.1,0-3.9-1-3.9-4.1c0-2.8,1.4-4.7,4.3-4.7c0.7,0,1.5,0.1,2.1,0.3v2.5h-1c-0.1-0.5-0.2-1-0.2-1.4
		c-0.3-0.1-0.7-0.1-1.2-0.1c-1.5,0-2.4,1.3-2.4,3.2c0,1.7,0.6,3,2.6,3c0.7,0,1.5-0.2,2-0.4l0.3,1.3
		C238.2,375,237.3,375.2,236.2,375.2z"/>
</g>
</svg>
