<?xml version="1.0" encoding="utf-8"?>
<!-- Generator: Adobe Illustrator 18.0.0, SVG Export Plug-In . SVG Version: 6.00 Build 0)  -->
<!DOCTYPE svg PUBLIC "-//W3C//DTD SVG 1.1//EN" "http://www.w3.org/Graphics/SVG/1.1/DTD/svg11.dtd">
<svg version="1.1" id="Layer_1" xmlns="http://www.w3.org/2000/svg" xmlns:xlink="http://www.w3.org/1999/xlink" x="0px" y="0px"
	 viewBox="-16.5 46 645 700" enable-background="new -16.5 46 645 700" xml:space="preserve">
<line fill="none" stroke="#000000" stroke-width="1.3" stroke-dasharray="20,5" x1="240.1" y1="174.7" x2="240.1" y2="259.2"/>
<line fill="none" stroke="#000000" stroke-width="1.3" stroke-dasharray="20,5" x1="225.7" y1="612.6" x2="225.7" y2="661.8"/>
<g enable-background="new    ">
	<path d="M202.2,270.8c0,0.8-0.5,1.4-1.3,1.7l0,0c0.9,0.2,1.4,0.8,1.4,1.6c0,1.3-1.1,2.3-2.7,2.3c-0.3,0-0.6,0-0.9-0.1l0.1-0.8
		c0.2,0.1,0.6,0.1,0.9,0.1c1,0,1.7-0.5,1.7-1.4c0-1-0.9-1.3-2.3-1.2v-0.7c1.4,0,2.2-0.5,2.2-1.4c0-0.6-0.4-1-1.1-1
		c-0.2,0-0.5,0.1-0.7,0.1c0,0.3-0.1,0.5-0.1,0.8h-0.5v-1.4c0.4-0.2,0.9-0.3,1.4-0.3C201.6,269.2,202.2,269.9,202.2,270.8z"/>
	<path d="M207.1,274.6c-0.5,0-1-0.1-1.4-0.2v-1.6h0.7c0.1,0.3,0.1,0.6,0.1,0.9c0.2,0,0.5,0.1,0.7,0.1c0.8,0,1.4-0.3,1.4-1.2
		c0-1.5-3.1-0.9-3.1-3.1c0-1.1,0.9-1.9,2.4-1.9c0.5,0,0.9,0,1.3,0.1v1.5h-0.7c-0.1-0.3-0.1-0.6-0.1-0.9c-0.1,0-0.4-0.1-0.6-0.1
		c-0.9,0-1.4,0.4-1.4,1.1c0,1.5,3.1,0.9,3.1,3C209.6,273.7,208.6,274.6,207.1,274.6z"/>
	<path d="M212.5,274.6c-1,0-1.3-0.4-1.3-1.5v-2.9h-1v-0.7h1v-1.6l0.9-0.2v1.9h1.4v0.7H212v2.5c0,0.8,0.2,1,0.7,1
		c0.2,0,0.4,0,0.6-0.1l0.1,0.7C213.2,274.5,212.8,274.6,212.5,274.6z"/>
	<path d="M218.4,272h-3.2c0,1.3,0.5,1.9,1.6,1.9c0.5,0,1-0.1,1.4-0.3l0.1,0.7c-0.5,0.2-1.1,0.3-1.7,0.3c-1.5,0-2.3-0.8-2.3-2.5
		c0-1.5,0.8-2.6,2.2-2.6s2,0.9,2,2C218.4,271.6,218.4,271.8,218.4,272z M216.4,270.1c-0.6,0-1.1,0.5-1.2,1.2h2.3
		C217.5,270.6,217.1,270.1,216.4,270.1z"/>
	<path d="M221.6,274.5c-0.3,0-0.5,0-0.8-0.1v1.8c0.3,0,0.6,0.1,0.9,0.1v0.5H219v-0.5c0.3-0.1,0.5-0.1,0.8-0.1v-6
		c-0.2,0-0.5-0.1-0.8-0.1v-0.5c0.5-0.1,1.2-0.1,1.7-0.1c0,0.3,0,0.7-0.1,1l0,0c0.3-0.7,0.9-1.1,1.7-1.1c1.2,0,1.8,0.8,1.8,2.3
		C224.2,273.5,223.2,274.5,221.6,274.5z M222.1,270.2c-0.9,0-1.4,1-1.4,1.9v1.6c0.3,0.1,0.5,0.1,0.9,0.1c0.9,0,1.6-0.6,1.6-2
		C223.2,270.8,222.9,270.2,222.1,270.2z"/>
	<path d="M226.3,274.6c-0.4,0-0.8,0-1.2-0.1V273h0.5c0.1,0.2,0.1,0.5,0.1,0.8c0.2,0,0.4,0,0.6,0c0.7,0,1.1-0.3,1.1-0.8
		c0-1.1-2.5-0.4-2.5-2.2c0-0.8,0.7-1.5,2-1.5c0.3,0,0.8,0,1.1,0.1v1.4h-0.5c-0.1-0.2-0.1-0.5-0.1-0.8c-0.2,0-0.4-0.1-0.6-0.1
		c-0.7,0-1,0.3-1,0.7c0,1.1,2.5,0.5,2.5,2.1C228.5,273.9,227.7,274.6,226.3,274.6z"/>
</g>
<g enable-background="new    ">
	<path d="M205,286.5V286c0.3-0.1,0.6-0.1,0.9-0.1v-5.4c-0.3,0-0.6-0.1-0.9-0.1v-0.5h4.4v1.6h-0.6c-0.1-0.3-0.1-0.6-0.1-0.8h-1.8v2.2
		h1.4c0-0.2,0.1-0.5,0.1-0.7h0.6v2h-0.6c-0.1-0.2-0.1-0.5-0.1-0.7h-1.4v2.4h1.8c0-0.3,0.1-0.6,0.1-0.9h0.6v1.6H205V286.5z"/>
	<path d="M213.5,286.5c0-0.3,0-0.7,0.1-1l0,0c-0.2,0.6-0.9,1.1-1.7,1.1s-1.4-0.5-1.4-1.3c0-1.1,1.1-1.7,3-1.7v-0.4
		c0-0.7-0.2-1.1-1-1.1c-0.3,0-0.6,0-0.9,0.1c0,0.2-0.1,0.5-0.1,0.8h-0.6v-1.4c0.5-0.2,1.1-0.3,1.7-0.3c1.5,0,1.9,0.7,1.9,1.7v2.7
		c0.2,0,0.6,0.1,0.8,0.1v0.5C214.7,286.4,214,286.5,213.5,286.5z M213.4,284.2c-1.6,0-2.1,0.4-2.1,0.9c0,0.4,0.3,0.7,0.8,0.7
		C212.9,285.8,213.4,285,213.4,284.2L213.4,284.2z"/>
	<path d="M217.1,286.5c-0.4,0-0.8,0-1.2-0.1V285h0.5c0.1,0.2,0.1,0.5,0.1,0.8c0.2,0,0.4,0,0.6,0c0.7,0,1.1-0.3,1.1-0.8
		c0-1.1-2.5-0.4-2.5-2.2c0-0.8,0.7-1.5,2-1.5c0.3,0,0.8,0,1.1,0.1v1.4h-0.5c-0.1-0.2-0.1-0.5-0.1-0.8c-0.2,0-0.4-0.1-0.6-0.1
		c-0.7,0-1,0.3-1,0.7c0,1.1,2.5,0.5,2.5,2.1C219.2,285.8,218.4,286.5,217.1,286.5z"/>
	<path d="M222.1,286.5c-1,0-1.3-0.4-1.3-1.5v-2.9h-1v-0.7h1v-1.6l0.9-0.2v1.9h1.4v0.7h-1.4v2.5c0,0.8,0.2,1,0.7,1
		c0.2,0,0.4,0,0.6-0.1l0.1,0.7C222.8,286.5,222.4,286.5,222.1,286.5z"/>
</g>
<g enable-background="new    ">
	<path d="M344.8,683.8v-0.5c0.3-0.1,0.7-0.1,1.1-0.1v-3.7l-1.1,0.5l-0.1-0.8l1.5-0.6h0.7v4.5c0.3,0,0.6,0.1,0.9,0.1v0.5L344.8,683.8
		L344.8,683.8z"/>
	<path d="M349.3,685.7c-0.3,0-0.5,0-0.7,0l0.1-0.8c0.2,0,0.5,0.1,0.7,0.1c1.2,0,1.9-0.6,1.9-1.5s-0.7-1.4-1.9-1.4
		c-0.2,0-0.4,0-0.6,0v-3.4h3.2v0.9h-2.3v1.8c1.7,0,2.6,0.9,2.6,2.1C352.2,684.7,351,685.7,349.3,685.7z"/>
	<path d="M356.9,683.9c-0.5,0-1-0.1-1.4-0.2v-1.6h0.7c0.1,0.3,0.1,0.6,0.1,0.9c0.2,0,0.5,0.1,0.7,0.1c0.8,0,1.4-0.3,1.4-1.2
		c0-1.5-3.1-0.9-3.1-3.1c0-1.1,0.9-1.9,2.4-1.9c0.5,0,0.9,0,1.3,0.1v1.5h-0.7c-0.1-0.3-0.1-0.6-0.1-0.9c-0.2,0-0.4-0.1-0.6-0.1
		c-0.9,0-1.4,0.4-1.4,1.1c0,1.5,3.1,0.9,3.1,3C359.4,683,358.5,683.9,356.9,683.9z"/>
	<path d="M362.3,683.9c-1,0-1.3-0.4-1.3-1.5v-2.9h-1v-0.7h1v-1.6l0.9-0.2v1.9h1.4v0.7h-1.4v2.5c0,0.8,0.2,1,0.7,1
		c0.2,0,0.4,0,0.6-0.1l0.1,0.7C363,683.8,362.6,683.9,362.3,683.9z"/>
	<path d="M368.2,681.3H365c0,1.3,0.5,1.9,1.6,1.9c0.5,0,1-0.1,1.4-0.3l0.1,0.7c-0.5,0.2-1.1,0.3-1.7,0.3c-1.5,0-2.3-0.8-2.3-2.5
		c0-1.5,0.8-2.6,2.2-2.6c1.4,0,2,0.9,2,2C368.2,680.9,368.2,681.1,368.2,681.3z M366.2,679.4c-0.6,0-1.1,0.5-1.2,1.2h2.3
		C367.3,679.9,366.9,679.4,366.2,679.4z"/>
	<path d="M371.4,683.9c-0.3,0-0.5,0-0.8-0.1v1.8c0.3,0,0.6,0.1,0.9,0.1v0.5h-2.6v-0.5c0.3-0.1,0.5-0.1,0.8-0.1v-6
		c-0.2,0-0.5-0.1-0.8-0.1V679c0.5-0.1,1.2-0.1,1.7-0.1c0,0.3,0,0.7-0.1,1l0,0c0.3-0.7,0.9-1.1,1.7-1.1c1.2,0,1.8,0.8,1.8,2.3
		C374,682.9,373,683.9,371.4,683.9z M372,679.5c-0.9,0-1.4,1-1.4,1.9v1.6c0.3,0.1,0.5,0.1,0.9,0.1c0.9,0,1.6-0.6,1.6-2
		C373.1,680.1,372.7,679.5,372,679.5z"/>
	<path d="M376.2,683.9c-0.4,0-0.8,0-1.2-0.1v-1.4h0.5c0,0.2,0.1,0.5,0.1,0.8c0.2,0,0.4,0,0.6,0c0.7,0,1.1-0.3,1.1-0.8
		c0-1.1-2.5-0.4-2.5-2.2c0-0.8,0.7-1.5,2-1.5c0.3,0,0.8,0,1.1,0.1v1.4h-0.5c-0.1-0.2-0.1-0.5-0.1-0.8c-0.2,0-0.4-0.1-0.6-0.1
		c-0.7,0-1,0.3-1,0.7c0,1.1,2.5,0.5,2.5,2.1C378.3,683.2,377.5,683.9,376.2,683.9z"/>
</g>
<g enable-background="new    ">
	<path d="M360.5,689.7l-1.5,6.1h-1.2l-1.3-4.4c-0.1-0.4-0.2-0.8-0.3-1.2l0,0c-0.1,0.4-0.1,0.8-0.2,1.2l-1.3,4.4h-1.2l-1.5-6.1
		c-0.2,0-0.4-0.1-0.6-0.1V689h2.3v0.5c-0.2,0-0.5,0.1-0.8,0.1l0.9,3.8c0.1,0.5,0.2,0.9,0.3,1.3l0,0c0.1-0.4,0.2-0.9,0.3-1.3l1.3-4.5
		h0.9l1.4,4.6c0.1,0.4,0.2,0.8,0.3,1.2l0,0c0-0.4,0.1-0.8,0.2-1.1l0.9-4c-0.3,0-0.5-0.1-0.8-0.1V689h2.3v0.5
		C361,689.6,360.7,689.7,360.5,689.7z"/>
	<path d="M365.3,693.3H362c0,1.3,0.5,1.9,1.6,1.9c0.5,0,1-0.1,1.4-0.3l0.1,0.7c-0.5,0.2-1.1,0.3-1.7,0.3c-1.5,0-2.3-0.8-2.3-2.5
		c0-1.5,0.8-2.6,2.2-2.6c1.4,0,2,0.9,2,2C365.3,692.9,365.3,693.1,365.3,693.3z M363.3,691.4c-0.6,0-1.1,0.5-1.2,1.2h2.3
		C364.4,691.9,364,691.4,363.3,691.4z"/>
	<path d="M367.5,695.9c-0.4,0-0.8,0-1.2-0.1v-1.4h0.5c0,0.2,0.1,0.5,0.1,0.8c0.2,0,0.4,0,0.6,0c0.7,0,1.1-0.3,1.1-0.8
		c0-1.1-2.5-0.4-2.5-2.2c0-0.8,0.7-1.5,2-1.5c0.3,0,0.8,0,1.1,0.1v1.4h-0.5c-0.1-0.2-0.1-0.5-0.1-0.8c-0.2,0-0.4-0.1-0.6-0.1
		c-0.7,0-1,0.3-1,0.7c0,1.1,2.5,0.5,2.5,2.1C369.6,695.2,368.8,695.9,367.5,695.9z"/>
	<path d="M372.5,695.8c-1,0-1.3-0.4-1.3-1.5v-2.9h-1v-0.7h1v-1.6l0.9-0.2v1.9h1.4v0.7H372v2.5c0,0.8,0.2,1,0.7,1
		c0.2,0,0.4,0,0.6-0.1l0.1,0.7C373.2,695.8,372.8,695.8,372.5,695.8z"/>
</g>
<line fill="none" stroke="#000000" stroke-width="1.3" stroke-dasharray="20,5" x1="184.5" y1="258.8" x2="237.2" y2="258.8"/>
<line fill="none" stroke="#000000" stroke-width="1.3" stroke-dasharray="20,5" x1="184" y1="429.8" x2="217.8" y2="429.8"/>
<line fill="none" stroke="#000000" stroke-width="1.3" stroke-dasharray="20,5" x1="230" y1="661.4" x2="495" y2="661.4"/>
<polyline fill="#FFFFFF" stroke="#000000" stroke-width="1.3" points="488.9,150.9 492,154 488.9,157.2 "/>
<line fill="none" stroke="#000000" stroke-width="1.3" x1="492" y1="154" x2="442.4" y2="154"/>
<polyline fill="none" stroke="#000000" stroke-width="1.3" points="445.6,157.2 442.4,154 445.6,150.9 "/>
<polyline fill="#FFFFFF" stroke="#000000" stroke-width="1.3" points="470.7,175.3 467.6,178.5 464.5,175.3 "/>
<line fill="none" stroke="#000000" stroke-width="1.3" x1="467.6" y1="178.5" x2="467.6" y2="128.9"/>
<polyline fill="none" stroke="#000000" stroke-width="1.3" points="464.5,132 467.6,128.9 470.7,132 "/>
<g enable-background="new    ">
	<path d="M470.4,115.9v6.1h-1.2l-2.6-4.2c-0.3-0.5-0.6-1-0.8-1.5c0.1,1.2,0.1,2.9,0.1,5c0.3,0,0.6,0.1,0.8,0.1v0.5h-2.6v-0.5
		c0.3-0.1,0.6-0.1,0.9-0.1v-5.4c-0.3,0-0.6-0.1-0.9-0.1v-0.5h2.1l2.6,4.2c0.3,0.5,0.6,1,0.8,1.5c-0.1-1.2-0.1-2.9-0.1-5
		c-0.3,0-0.5-0.1-0.8-0.1v-0.5h2.4v0.5C470.9,115.8,470.6,115.9,470.4,115.9z"/>
</g>
<g enable-background="new    ">
	<path d="M436.6,150.8l-1.5,6.1h-1.2l-1.3-4.4c-0.1-0.4-0.2-0.8-0.3-1.2l0,0c-0.1,0.4-0.1,0.8-0.2,1.2l-1.3,4.4h-1.2l-1.5-6.1
		c-0.2,0-0.4-0.1-0.6-0.1v-0.5h2.3v0.5c-0.2,0-0.5,0.1-0.8,0.1l0.9,3.8c0.1,0.5,0.2,0.9,0.3,1.3l0,0c0.1-0.4,0.2-0.9,0.3-1.3
		l1.3-4.5h0.9l1.4,4.6c0.1,0.4,0.2,0.8,0.3,1.2l0,0c0-0.4,0.1-0.8,0.2-1.1l0.9-4c-0.3,0-0.5-0.1-0.8-0.1v-0.5h2.3v0.5
		C437,150.7,436.7,150.8,436.6,150.8z"/>
</g>
<g enable-background="new    ">
	<path d="M500.4,156.9v-0.5c0.3-0.1,0.6-0.1,0.9-0.1v-5.4c-0.3,0-0.6-0.1-0.9-0.1v-0.5h4.4v1.6h-0.6c-0.1-0.3-0.1-0.6-0.1-0.8h-1.8
		v2.2h1.4c0-0.2,0.1-0.5,0.1-0.7h0.6v2h-0.6c-0.1-0.2-0.1-0.5-0.1-0.7h-1.4v2.4h1.8c0-0.3,0.1-0.6,0.1-0.9h0.6v1.6h-4.4V156.9z"/>
</g>
<g enable-background="new    ">
	<path d="M467.3,194.7c-0.5,0-1-0.1-1.4-0.2V193h0.7c0.1,0.3,0.1,0.6,0.1,0.9c0.2,0,0.5,0.1,0.7,0.1c0.8,0,1.4-0.3,1.4-1.2
		c0-1.5-3.1-0.9-3.1-3.1c0-1.1,0.9-1.9,2.4-1.9c0.5,0,0.9,0,1.3,0.1v1.5h-0.7c-0.1-0.3-0.1-0.6-0.1-0.9c-0.1,0-0.4-0.1-0.6-0.1
		c-0.9,0-1.4,0.4-1.4,1.1c0,1.5,3.1,0.9,3.1,3C469.8,193.9,468.8,194.7,467.3,194.7z"/>
</g>
<polyline fill="#FFFFFF" stroke="#999999" points="235.9,618.4 232.8,613.4 237.8,610.3 "/>
<line fill="none" stroke="#999999" x1="485.5" y1="658.7" x2="232.8" y2="613.6"/>
<line fill="none" stroke="#999999" stroke-width="1.3" x1="189" y1="253.4" x2="235.5" y2="182"/>
<g enable-background="new    ">
	<path d="M248,243.6c-0.3,0-0.5,0-0.7,0l0.1-0.8c0.2,0,0.5,0.1,0.7,0.1c1.2,0,1.9-0.6,1.9-1.5s-0.7-1.4-1.9-1.4c-0.2,0-0.4,0-0.6,0
		v-3.4h3.2v0.9h-2.3v1.8c1.7,0,2.6,0.9,2.6,2.1C250.9,242.6,249.7,243.6,248,243.6z"/>
	<path d="M255.6,241.8c-0.5,0-1-0.1-1.4-0.2V240h0.7c0.1,0.3,0.1,0.6,0.1,0.9c0.2,0,0.5,0.1,0.7,0.1c0.8,0,1.4-0.3,1.4-1.2
		c0-1.5-3.1-0.9-3.1-3.1c0-1.1,0.9-1.9,2.4-1.9c0.5,0,0.9,0,1.3,0.1v1.5H257c-0.1-0.3-0.1-0.6-0.1-0.9c-0.1,0-0.4-0.1-0.6-0.1
		c-0.9,0-1.4,0.4-1.4,1.1c0,1.5,3.1,0.9,3.1,3C258.1,240.9,257.2,241.8,255.6,241.8z"/>
	<path d="M261,241.8c-1,0-1.3-0.4-1.3-1.5v-2.9h-1v-0.7h1v-1.6l0.9-0.2v1.9h1.4v0.7h-1.4v2.5c0,0.8,0.2,1,0.7,1c0.2,0,0.4,0,0.6-0.1
		l0.1,0.7C261.7,241.7,261.3,241.8,261,241.8z"/>
	<path d="M266.9,239.2h-3.2c0,1.3,0.5,1.9,1.6,1.9c0.5,0,1-0.1,1.4-0.3l0.1,0.7c-0.5,0.2-1.1,0.3-1.7,0.3c-1.5,0-2.3-0.8-2.3-2.5
		c0-1.5,0.8-2.6,2.2-2.6c1.4,0,2,0.9,2,2C266.9,238.8,266.9,239,266.9,239.2z M264.9,237.3c-0.6,0-1.1,0.5-1.2,1.2h2.3
		C266,237.8,265.6,237.3,264.9,237.3z"/>
	<path d="M270.1,241.8c-0.3,0-0.5,0-0.8-0.1v1.8c0.3,0,0.6,0.1,0.9,0.1v0.5h-2.6v-0.5c0.3-0.1,0.5-0.1,0.8-0.1v-6
		c-0.2,0-0.5-0.1-0.8-0.1v-0.5c0.5-0.1,1.2-0.1,1.7-0.1c0,0.3,0,0.7-0.1,1l0,0c0.3-0.7,0.9-1.1,1.7-1.1c1.2,0,1.8,0.8,1.8,2.3
		C272.7,240.8,271.7,241.8,270.1,241.8z M270.7,237.4c-0.9,0-1.4,1-1.4,1.9v1.6c0.3,0.1,0.5,0.1,0.9,0.1c0.9,0,1.6-0.6,1.6-2
		C271.7,238,271.4,237.4,270.7,237.4z"/>
	<path d="M274.9,241.8c-0.4,0-0.8,0-1.2-0.1v-1.4h0.5c0.1,0.2,0.1,0.5,0.1,0.8c0.2,0,0.4,0,0.6,0c0.7,0,1.1-0.3,1.1-0.8
		c0-1.1-2.5-0.4-2.5-2.2c0-0.8,0.7-1.5,2-1.5c0.3,0,0.8,0,1.1,0.1v1.4h-0.5c-0.1-0.2-0.1-0.5-0.1-0.8c-0.2,0-0.4-0.1-0.6-0.1
		c-0.7,0-1,0.3-1,0.7c0,1.1,2.5,0.5,2.5,2.1C277,241.1,276.2,241.8,274.9,241.8z"/>
</g>
<g enable-background="new    ">
	<path d="M255.7,247.6v6.1h-1.2l-2.6-4.2c-0.3-0.5-0.6-1-0.8-1.5c0.1,1.2,0.1,2.9,0.1,5c0.3,0,0.6,0.1,0.8,0.1v0.5h-2.6v-0.5
		c0.3-0.1,0.6-0.1,0.9-0.1v-5.4c-0.3,0-0.6-0.1-0.9-0.1V247h2.1l2.6,4.2c0.3,0.5,0.6,1,0.8,1.5c-0.1-1.2-0.1-2.9-0.1-5
		c-0.3,0-0.5-0.1-0.8-0.1v-0.5h2.4v0.5C256.2,247.5,255.9,247.6,255.7,247.6z"/>
	<path d="M259.3,253.8c-1.4,0-2.2-0.8-2.2-2.5c0-1.5,0.9-2.6,2.4-2.6c1.3,0,2.2,0.7,2.2,2.5C261.7,252.6,260.8,253.8,259.3,253.8z
		 M259.4,249.4c-0.7,0-1.4,0.5-1.4,1.8c0,1.1,0.5,1.8,1.4,1.8c0.7,0,1.4-0.6,1.4-1.8S260.3,249.4,259.4,249.4z"/>
	<path d="M265.8,249.5c-1.1-0.2-1.6,0.6-1.6,2.2v1.3c0.3,0,0.6,0.1,0.9,0.1v0.5h-2.6v-0.5c0.3-0.1,0.6-0.1,0.9-0.1v-3.6
		c-0.2,0-0.6-0.1-0.9-0.1v-0.5c0.5-0.1,1.2-0.1,1.7-0.1c0,0.3,0,0.8-0.1,1.2l0,0c0.2-0.7,0.7-1.4,1.8-1.3L265.8,249.5z"/>
	<path d="M268.4,253.8c-1,0-1.3-0.4-1.3-1.5v-2.9h-1v-0.7h1v-1.6l0.9-0.2v1.9h1.4v0.7H268v2.5c0,0.8,0.2,1,0.7,1
		c0.2,0,0.4,0,0.6-0.1l0.1,0.7C269.2,253.7,268.8,253.8,268.4,253.8z"/>
	<path d="M273.9,253.7v-3.2c0-0.7-0.2-1.1-0.8-1.1c-0.8,0-1.4,0.8-1.4,1.9v1.7c0.3,0,0.6,0.1,0.8,0.1v0.5H270v-0.5
		c0.2-0.1,0.5-0.1,0.8-0.1v-5.9c-0.2,0-0.6-0.1-0.9-0.1v-0.5c0.5-0.1,1.2-0.1,1.8-0.1v2.4c0,0.3,0,0.7-0.1,1l0,0
		c0.3-0.7,0.9-1.1,1.7-1.1c1.1,0,1.5,0.7,1.5,1.6v2.8c0.3,0,0.6,0.1,0.8,0.1v0.5L273.9,253.7L273.9,253.7z"/>
</g>
<g enable-background="new    ">
	<path d="M183.2,629.9c0,0.8-0.5,1.4-1.3,1.7l0,0c0.9,0.2,1.4,0.8,1.4,1.6c0,1.3-1.1,2.3-2.7,2.3c-0.3,0-0.6,0-0.9-0.1l0.1-0.8
		c0.2,0.1,0.6,0.1,0.9,0.1c1,0,1.7-0.5,1.7-1.4c0-1-0.9-1.3-2.3-1.2v-0.7c1.4,0,2.2-0.5,2.2-1.4c0-0.6-0.4-1-1.1-1
		c-0.2,0-0.5,0.1-0.7,0.1c0,0.3-0.1,0.5-0.1,0.8h-0.5v-1.4c0.4-0.2,0.9-0.3,1.4-0.3C182.7,628.3,183.2,629,183.2,629.9z"/>
	<path d="M188.1,633.7c-0.5,0-1-0.1-1.4-0.2v-1.6h0.7c0.1,0.3,0.1,0.6,0.1,0.9c0.2,0,0.5,0.1,0.7,0.1c0.8,0,1.4-0.3,1.4-1.2
		c0-1.5-3.1-0.9-3.1-3.1c0-1.1,0.9-1.9,2.4-1.9c0.5,0,0.9,0,1.3,0.1v1.5h-0.7c-0.1-0.3-0.1-0.6-0.1-0.9c-0.1,0-0.4-0.1-0.6-0.1
		c-0.9,0-1.4,0.4-1.4,1.1c0,1.5,3.1,0.9,3.1,3C190.6,632.8,189.7,633.7,188.1,633.7z"/>
	<path d="M193.5,633.7c-1,0-1.3-0.4-1.3-1.5v-2.9h-1v-0.7h1V627l0.9-0.2v1.9h1.4v0.7h-1.4v2.5c0,0.8,0.2,1,0.7,1
		c0.2,0,0.4,0,0.6-0.1l0.1,0.7C194.2,633.6,193.8,633.7,193.5,633.7z"/>
	<path d="M199.4,631.1h-3.2c0,1.3,0.5,1.9,1.6,1.9c0.5,0,1-0.1,1.4-0.3l0.1,0.7c-0.5,0.2-1.1,0.3-1.7,0.3c-1.5,0-2.3-0.8-2.3-2.5
		c0-1.5,0.8-2.6,2.2-2.6s2,0.9,2,2C199.4,630.7,199.4,630.9,199.4,631.1z M197.4,629.2c-0.6,0-1.1,0.5-1.2,1.2h2.3
		C198.5,629.7,198.1,629.2,197.4,629.2z"/>
	<path d="M202.7,633.6c-0.3,0-0.5,0-0.8-0.1v1.8c0.3,0,0.6,0.1,0.9,0.1v0.5h-2.6v-0.5c0.3-0.1,0.5-0.1,0.8-0.1v-6
		c-0.2,0-0.5-0.1-0.8-0.1v-0.5c0.5-0.1,1.2-0.1,1.7-0.1c0,0.3,0,0.7-0.1,1l0,0c0.3-0.7,0.9-1.1,1.7-1.1c1.2,0,1.8,0.8,1.8,2.3
		C205.2,632.6,204.3,633.6,202.7,633.6z M203.2,629.3c-0.9,0-1.4,1-1.4,1.9v1.6c0.3,0.1,0.5,0.1,0.9,0.1c0.9,0,1.6-0.6,1.6-2
		C204.3,629.9,203.9,629.3,203.2,629.3z"/>
	<path d="M207.4,633.7c-0.4,0-0.8,0-1.2-0.1v-1.4h0.5c0.1,0.2,0.1,0.5,0.1,0.8c0.2,0,0.4,0,0.6,0c0.7,0,1.1-0.3,1.1-0.8
		c0-1.1-2.5-0.4-2.5-2.2c0-0.8,0.7-1.5,2-1.5c0.3,0,0.8,0,1.1,0.1v1.4h-0.5c-0.1-0.2-0.1-0.5-0.1-0.8c-0.2,0-0.4-0.1-0.6-0.1
		c-0.7,0-1,0.3-1,0.7c0,1.1,2.5,0.5,2.5,2.1C209.5,633,208.7,633.7,207.4,633.7z"/>
</g>
<g enable-background="new    ">
	<path d="M188.3,644.6v6.1H187l-2.6-4.2c-0.3-0.5-0.6-1-0.8-1.5c0.1,1.2,0.1,2.9,0.1,5c0.3,0,0.6,0.1,0.8,0.1v0.5H182v-0.5
		c0.3-0.1,0.6-0.1,0.9-0.1v-5.4c-0.3,0-0.6-0.1-0.9-0.1V644h2.1l2.6,4.2c0.3,0.5,0.6,1,0.8,1.5c-0.1-1.2-0.1-2.9-0.1-5
		c-0.3,0-0.5-0.1-0.8-0.1v-0.5h2.4v0.5C188.8,644.5,188.5,644.6,188.3,644.6z"/>
	<path d="M191.9,650.8c-1.4,0-2.2-0.8-2.2-2.5c0-1.5,0.9-2.6,2.4-2.6c1.3,0,2.2,0.7,2.2,2.5C194.3,649.6,193.4,650.8,191.9,650.8z
		 M192,646.4c-0.7,0-1.4,0.5-1.4,1.8c0,1.1,0.5,1.8,1.4,1.8c0.7,0,1.4-0.6,1.4-1.8S192.9,646.4,192,646.4z"/>
	<path d="M198.4,646.5c-1.1-0.2-1.6,0.6-1.6,2.2v1.3c0.3,0,0.6,0.1,0.9,0.1v0.5H195v-0.5c0.3-0.1,0.6-0.1,0.9-0.1v-3.6
		c-0.2,0-0.6-0.1-0.9-0.1v-0.5c0.5-0.1,1.2-0.1,1.7-0.1c0,0.3,0,0.8-0.1,1.2l0,0c0.2-0.7,0.7-1.4,1.8-1.3V646.5z"/>
	<path d="M201,650.8c-1,0-1.3-0.4-1.3-1.5v-2.9h-1v-0.7h1v-1.6l0.9-0.2v1.9h1.4v0.7h-1.4v2.5c0,0.8,0.2,1,0.7,1c0.2,0,0.4,0,0.6-0.1
		l0.1,0.7C201.7,650.7,201.4,650.8,201,650.8z"/>
	<path d="M206.5,650.7v-3.2c0-0.7-0.2-1.1-0.8-1.1c-0.8,0-1.4,0.8-1.4,1.9v1.7c0.3,0,0.6,0.1,0.8,0.1v0.5h-2.5v-0.5
		c0.2-0.1,0.5-0.1,0.8-0.1v-5.9c-0.2,0-0.6-0.1-0.9-0.1v-0.5c0.5-0.1,1.2-0.1,1.8-0.1v2.4c0,0.3,0,0.7-0.1,1l0,0
		c0.3-0.7,0.9-1.1,1.7-1.1c1.1,0,1.5,0.7,1.5,1.6v2.8c0.3,0,0.6,0.1,0.8,0.1v0.5L206.5,650.7L206.5,650.7z"/>
</g>
<circle cx="184.6" cy="258.4" r="4.1"/>
<line fill="none" stroke="#000000" stroke-width="1.3" stroke-dasharray="20,5" x1="215.6" y1="433" x2="215.6" y2="449.2"/>
<polyline fill="none" stroke="#999999" stroke-width="1.3" points="230,183 235.7,181.8 236.9,187.3 "/>
<g enable-background="new    ">
	<path d="M185.2,410.6v-0.7l1.3-1.1c0.8-0.7,1.3-1.2,1.3-1.7c0-0.6-0.4-1-1-1c-0.3,0-0.5,0.1-0.8,0.1c0,0.3-0.1,0.6-0.1,0.8h-0.5
		v-1.4c0.4-0.2,1-0.3,1.6-0.3c1.2,0,1.9,0.7,1.9,1.6c0,0.7-0.4,1.3-1.3,2l-1,0.9l0,0c0.5,0,1.5,0,2.6,0v0.8L185.2,410.6L185.2,410.6
		z"/>
	<path d="M193.7,410.7c-0.5,0-1-0.1-1.4-0.2v-1.6h0.7c0.1,0.3,0.1,0.6,0.1,0.9c0.2,0,0.5,0.1,0.7,0.1c0.8,0,1.4-0.3,1.4-1.2
		c0-1.5-3.1-0.9-3.1-3.1c0-1.1,0.9-1.9,2.4-1.9c0.5,0,0.9,0,1.3,0.1v1.5h-0.7c-0.1-0.3-0.1-0.6-0.1-0.9c-0.1,0-0.4-0.1-0.6-0.1
		c-0.9,0-1.4,0.4-1.4,1.1c0,1.5,3.1,0.9,3.1,3C196.2,409.8,195.3,410.7,193.7,410.7z"/>
	<path d="M199.1,410.7c-1,0-1.3-0.4-1.3-1.5v-2.9h-1v-0.7h1V404l0.9-0.2v1.9h1.4v0.7h-1.4v2.5c0,0.8,0.2,1,0.7,1
		c0.2,0,0.4,0,0.6-0.1l0.1,0.7C199.8,410.6,199.4,410.7,199.1,410.7z"/>
	<path d="M205,408.1h-3.2c0,1.3,0.5,1.9,1.6,1.9c0.5,0,1-0.1,1.4-0.3l0.1,0.7c-0.5,0.2-1.1,0.3-1.7,0.3c-1.5,0-2.3-0.8-2.3-2.5
		c0-1.5,0.8-2.6,2.2-2.6s2,0.9,2,2C205,407.7,205,407.9,205,408.1z M203,406.2c-0.6,0-1.1,0.5-1.2,1.2h2.3
		C204.1,406.7,203.7,406.2,203,406.2z"/>
	<path d="M208.3,410.6c-0.3,0-0.5,0-0.8-0.1v1.8c0.3,0,0.6,0.1,0.9,0.1v0.5h-2.6v-0.5c0.3-0.1,0.5-0.1,0.8-0.1v-6
		c-0.2,0-0.5-0.1-0.8-0.1v-0.5c0.5-0.1,1.2-0.1,1.7-0.1c0,0.3,0,0.7-0.1,1l0,0c0.3-0.7,0.9-1.1,1.7-1.1c1.2,0,1.8,0.8,1.8,2.3
		C210.8,409.6,209.9,410.6,208.3,410.6z M208.8,406.3c-0.9,0-1.4,1-1.4,1.9v1.6c0.3,0.1,0.5,0.1,0.9,0.1c0.9,0,1.6-0.6,1.6-2
		C209.9,406.9,209.5,406.3,208.8,406.3z"/>
	<path d="M213,410.7c-0.4,0-0.8,0-1.2-0.1v-1.4h0.5c0.1,0.2,0.1,0.5,0.1,0.8c0.2,0,0.4,0,0.6,0c0.7,0,1.1-0.3,1.1-0.8
		c0-1.1-2.5-0.4-2.5-2.2c0-0.8,0.7-1.5,2-1.5c0.3,0,0.8,0,1.1,0.1v1.4h-0.5c-0.1-0.2-0.1-0.5-0.1-0.8c-0.2,0-0.4-0.1-0.6-0.1
		c-0.7,0-1,0.3-1,0.7c0,1.1,2.5,0.5,2.5,2.1C215.1,410,214.3,410.7,213,410.7z"/>
</g>
<g enable-background="new    ">
	<path d="M191.5,422.6V422c0.3-0.1,0.6-0.1,0.9-0.1v-5.4c-0.3,0-0.6-0.1-0.9-0.1v-0.5h4.4v1.6h-0.6c-0.1-0.3-0.1-0.6-0.1-0.8h-1.8
		v2.2h1.4c0-0.2,0.1-0.5,0.1-0.7h0.6v2h-0.6c-0.1-0.2-0.1-0.5-0.1-0.7h-1.4v2.4h1.8c0-0.3,0.1-0.6,0.1-0.9h0.6v1.6H191.5z"/>
	<path d="M199.9,422.6c0-0.3,0-0.7,0.1-1l0,0c-0.2,0.6-0.9,1.1-1.7,1.1s-1.4-0.5-1.4-1.3c0-1.1,1.1-1.7,3-1.7v-0.4
		c0-0.7-0.2-1.1-1-1.1c-0.3,0-0.6,0-0.9,0.1c0,0.2-0.1,0.5-0.1,0.8h-0.6v-1.4c0.5-0.2,1.1-0.3,1.7-0.3c1.5,0,1.9,0.7,1.9,1.7v2.7
		c0.2,0,0.6,0.1,0.8,0.1v0.5C201.2,422.5,200.5,422.6,199.9,422.6z M199.9,420.3c-1.6,0-2.1,0.4-2.1,0.9c0,0.4,0.3,0.7,0.8,0.7
		C199.4,421.9,199.9,421.1,199.9,420.3L199.9,420.3z"/>
	<path d="M203.6,422.6c-0.4,0-0.8,0-1.2-0.1v-1.4h0.5c0.1,0.2,0.1,0.5,0.1,0.8c0.2,0,0.4,0,0.6,0c0.7,0,1.1-0.3,1.1-0.8
		c0-1.1-2.5-0.4-2.5-2.2c0-0.8,0.7-1.5,2-1.5c0.3,0,0.8,0,1.1,0.1v1.4h-0.5c-0.1-0.2-0.1-0.5-0.1-0.8c-0.2,0-0.4-0.1-0.6-0.1
		c-0.7,0-1,0.3-1,0.7c0,1.1,2.5,0.5,2.5,2.1C205.7,421.9,204.9,422.6,203.6,422.6z"/>
	<path d="M208.5,422.6c-1,0-1.3-0.4-1.3-1.5v-2.9h-1v-0.7h1V416l0.9-0.2v1.9h1.4v0.7h-1.4v2.5c0,0.8,0.2,1,0.7,1
		c0.2,0,0.4,0,0.6-0.1l0.1,0.7C209.2,422.6,208.8,422.6,208.5,422.6z"/>
</g>
<g enable-background="new    ">
	<path d="M222.9,434.8v-0.5c0.3-0.1,0.7-0.1,1.1-0.1v-3.7l-1.1,0.5l-0.1-0.8l1.5-0.6h0.7v4.5c0.3,0,0.6,0.1,0.9,0.1v0.5h-3V434.8z"
		/>
	<path d="M230.4,434.9c-0.5,0-1-0.1-1.4-0.2v-1.6h0.7c0.1,0.3,0.1,0.6,0.1,0.9c0.2,0,0.5,0.1,0.7,0.1c0.8,0,1.4-0.3,1.4-1.2
		c0-1.5-3.1-0.9-3.1-3.1c0-1.1,0.9-1.9,2.4-1.9c0.5,0,0.9,0,1.3,0.1v1.5h-0.7c-0.1-0.3-0.1-0.6-0.1-0.9c-0.1,0-0.4-0.1-0.6-0.1
		c-0.9,0-1.4,0.4-1.4,1.1c0,1.5,3.1,0.9,3.1,3C232.9,434,231.9,434.9,230.4,434.9z"/>
	<path d="M235.7,434.9c-1,0-1.3-0.4-1.3-1.5v-2.9h-1v-0.7h1v-1.6l0.9-0.2v1.9h1.4v0.7h-1.4v2.5c0,0.8,0.2,1,0.7,1
		c0.2,0,0.4,0,0.6-0.1l0.1,0.7C236.4,434.8,236.1,434.9,235.7,434.9z"/>
	<path d="M241.6,432.3h-3.2c0,1.3,0.5,1.9,1.6,1.9c0.5,0,1-0.1,1.4-0.3l0.1,0.7c-0.5,0.2-1.1,0.3-1.7,0.3c-1.5,0-2.3-0.8-2.3-2.5
		c0-1.5,0.8-2.6,2.2-2.6s2,0.9,2,2C241.7,431.9,241.7,432.1,241.6,432.3z M239.6,430.4c-0.6,0-1.1,0.5-1.2,1.2h2.3
		C240.8,430.9,240.3,430.4,239.6,430.4z"/>
	<path d="M244.9,434.9c-0.3,0-0.5,0-0.8-0.1v1.8c0.3,0,0.6,0.1,0.9,0.1v0.5h-2.6v-0.5c0.3-0.1,0.5-0.1,0.8-0.1v-6
		c-0.2,0-0.5-0.1-0.8-0.1V430c0.5-0.1,1.2-0.1,1.7-0.1c0,0.3,0,0.7-0.1,1l0,0c0.3-0.7,0.9-1.1,1.7-1.1c1.2,0,1.8,0.8,1.8,2.3
		C247.5,433.9,246.5,434.9,244.9,434.9z M245.4,430.5c-0.9,0-1.4,1-1.4,1.9v1.6c0.3,0.1,0.5,0.1,0.9,0.1c0.9,0,1.6-0.6,1.6-2
		C246.5,431.1,246.2,430.5,245.4,430.5z"/>
</g>
<g enable-background="new    ">
	<path d="M225,446.9c-0.5,0-1-0.1-1.4-0.2v-1.6h0.7c0.1,0.3,0.1,0.6,0.1,0.9c0.2,0,0.5,0.1,0.7,0.1c0.8,0,1.4-0.3,1.4-1.2
		c0-1.5-3.1-0.9-3.1-3.1c0-1.1,0.9-1.9,2.4-1.9c0.5,0,0.9,0,1.3,0.1v1.5h-0.7c-0.1-0.3-0.1-0.6-0.1-0.9c-0.1,0-0.4-0.1-0.6-0.1
		c-0.9,0-1.4,0.4-1.4,1.1c0,1.5,3.1,0.9,3.1,3C227.5,446,226.5,446.9,225,446.9z"/>
	<path d="M230.6,446.9c-1.4,0-2.2-0.8-2.2-2.5c0-1.5,0.9-2.6,2.4-2.6c1.3,0,2.2,0.7,2.2,2.5C233,445.7,232.1,446.9,230.6,446.9z
		 M230.7,442.5c-0.7,0-1.4,0.5-1.4,1.8c0,1.1,0.5,1.8,1.4,1.8c0.7,0,1.4-0.6,1.4-1.8C232.1,443.1,231.6,442.5,230.7,442.5z"/>
	<path d="M237.6,446.8c0-0.3,0-0.7,0.1-1l0,0c-0.3,0.7-0.9,1.1-1.7,1.1c-1.1,0-1.5-0.7-1.5-1.6v-2.8c-0.2,0-0.6-0.1-0.8-0.1v-0.5
		c0.5-0.1,1.1-0.1,1.7-0.1v3.2c0,0.7,0.2,1.1,0.8,1.1c0.8,0,1.4-0.8,1.4-1.9v-1.7c-0.2,0-0.5-0.1-0.8-0.1v-0.5
		c0.5-0.1,1.1-0.1,1.7-0.1v4.3c0.2,0,0.6,0.1,0.8,0.1v0.5C238.9,446.8,238.2,446.8,237.6,446.8z"/>
	<path d="M241.8,446.9c-1,0-1.3-0.4-1.3-1.5v-2.9h-1v-0.7h1v-1.6l0.9-0.2v1.9h1.4v0.7h-1.4v2.5c0,0.8,0.2,1,0.7,1
		c0.2,0,0.4,0,0.6-0.1l0.1,0.7C242.5,446.8,242.1,446.9,241.8,446.9z"/>
	<path d="M247.3,446.8v-3.2c0-0.7-0.2-1.1-0.8-1.1c-0.8,0-1.4,0.8-1.4,1.9v1.7c0.3,0,0.6,0.1,0.8,0.1v0.5h-2.5v-0.5
		c0.2-0.1,0.5-0.1,0.8-0.1v-5.9c-0.2,0-0.6-0.1-0.9-0.1v-0.5c0.5-0.1,1.2-0.1,1.8-0.1v2.4c0,0.3,0,0.7-0.1,1l0,0
		c0.3-0.7,0.9-1.1,1.7-1.1c1.1,0,1.5,0.7,1.5,1.6v2.8c0.3,0,0.6,0.1,0.8,0.1v0.5L247.3,446.8L247.3,446.8z"/>
</g>
<line fill="none" stroke="#999999" x1="189.8" y1="433.6" x2="208.3" y2="443.8"/>
<polyline fill="none" stroke="#999999" points="207.2,440.3 208.4,443.9 204.9,445.1 "/>
<circle cx="184.1" cy="428.7" r="4.1"/>
<circle cx="493.8" cy="661.2" r="4.1"/>
<circle fill="#999999" cx="240.1" cy="175.1" r="4.1"/>
<circle fill="#999999" cx="215.9" cy="446.9" r="4.1"/>
<circle fill="#999999" cx="225.4" cy="612.8" r="4.1"/>
<g enable-background="new    ">
	<path fill="#999999" d="M104.2,127c-2.2-2-3.2-4-3.2-6.5c0-2.6,1.3-4.8,3.2-6.5l0.7,0.7c-1.7,1.7-2.7,3.7-2.7,5.8
		c0,2.2,0.9,4.1,2.7,5.9L104.2,127z"/>
	<path fill="#999999" d="M109.5,125.3c-0.5,0-1.1-0.1-1.6-0.2l0.2-1c0.4,0.2,1,0.3,1.6,0.3c1.4,0,2.2-0.8,2.2-1.7
		c0-1-0.8-1.6-2.1-1.6c-0.4,0-0.8,0-1.1,0v-1h0.3c1.8,0,2.7-0.5,2.7-1.6c0-0.8-0.6-1.3-1.6-1.3c-0.7,0-1.3,0.2-1.8,0.5l-0.2-1
		c0.7-0.3,1.4-0.4,2.2-0.4c1.7,0,2.6,0.8,2.6,2.1c0,1-0.6,1.7-1.6,2l0,0c1.1,0.1,1.8,1,1.8,2.1C113.1,124.1,111.6,125.3,109.5,125.3
		z"/>
	<path fill="#999999" d="M116.1,125.8c1.3-0.4,1.7-1,1.7-1.4c0-0.8-0.7-0.8-0.7-1.5c0-0.5,0.4-0.9,0.9-0.9c0.8,0,1.2,0.8,1.2,1.6
		c0,1.6-1.1,2.5-3,3L116.1,125.8z"/>
	<path fill="#999999" d="M124.8,125.3c-0.4,0-1,0-1.4-0.1l0.1-1c0.4,0.1,1,0.2,1.5,0.2c1.6,0,2.4-0.9,2.4-1.9c0-1.1-0.9-1.7-2.3-1.7
		c-0.5,0-1,0-1.3,0.1v-4.4h4.5v1.1h-3.4v2.3c0.2,0,0.5,0,0.6,0c2.1,0,3.2,1.1,3.2,2.5C128.6,124,127,125.3,124.8,125.3z"/>
	<path fill="#999999" d="M132.3,114c2.2,2,3.2,4,3.2,6.5c0,2.6-1.3,4.8-3.2,6.5l-0.7-0.7c1.7-1.7,2.7-3.7,2.7-5.8
		c0-2.2-0.9-4.1-2.7-5.9L132.3,114z"/>
</g>
<g enable-background="new    ">
	<path d="M160.4,120.9v-1h3v1H160.4z"/>
	<path d="M164.7,120.9v-1h3v1H164.7z"/>
	<path d="M170.4,123.9l-0.7-0.7l3.3-2.9l-3.3-2.8l0.7-0.8l4.1,3.6L170.4,123.9z"/>
	<path d="M189.8,116.3l-1.9,7.8h-1.5l-1.7-5.6c-0.1-0.5-0.3-1-0.3-1.5l0,0c-0.1,0.5-0.2,1-0.3,1.5l-1.6,5.6H181l-1.9-7.8
		c-0.2,0-0.6-0.1-0.8-0.1v-0.7h3v0.7c-0.3,0.1-0.7,0.1-1,0.2l1.2,4.9c0.1,0.6,0.2,1.2,0.3,1.7l0,0c0.1-0.6,0.2-1.1,0.4-1.7l1.7-5.8
		h1.1l1.8,5.9c0.1,0.5,0.3,1,0.4,1.6l0,0c0.1-0.5,0.1-1,0.2-1.5l1.2-5.2c-0.3,0-0.7-0.1-1-0.2v-0.7h2.9v0.7
		C190.3,116.2,190,116.3,189.8,116.3z"/>
	<path d="M194.5,124.1c0-0.4,0-0.9,0.1-1.3l0,0c-0.3,0.8-1.1,1.4-2.2,1.4s-1.8-0.7-1.8-1.7c0-1.4,1.4-2.2,3.8-2.2v-0.5
		c0-0.9-0.3-1.4-1.3-1.4c-0.4,0-0.8,0.1-1.2,0.2c0,0.3-0.1,0.7-0.2,1H191V118c0.6-0.2,1.4-0.4,2.2-0.4c1.9,0,2.4,0.9,2.4,2.1v3.5
		c0.3,0.1,0.7,0.1,1.1,0.1v0.7C196.1,124.1,195.2,124.1,194.5,124.1z M194.4,121.2c-2,0-2.7,0.5-2.7,1.2c0,0.6,0.4,0.9,1,0.9
		C193.7,123.3,194.4,122.3,194.4,121.2L194.4,121.2z"/>
	<path d="M197.1,124.1v-0.7c0.3-0.1,0.7-0.1,1.1-0.2v-7.6c-0.3-0.1-0.7-0.1-1.1-0.1v-0.7c0.7-0.1,1.5-0.1,2.3-0.1v8.5
		c0.4,0,0.8,0.1,1.1,0.2v0.7H197.1z"/>
	<path d="M205.6,124.1l-2.5-3.3v2.5c0.3,0,0.7,0.1,1,0.2v0.7h-3.2v-0.7c0.3-0.1,0.7-0.1,1.1-0.2v-7.6c-0.3-0.1-0.7-0.1-1.1-0.1v-0.7
		c0.6-0.1,1.5-0.1,2.3-0.1v5.9l1.8-2.1c-0.3,0-0.6-0.1-0.8-0.2v-0.7h3.1v0.7c-0.3,0.1-0.6,0.1-0.9,0.2l-1.9,2.1l2,2.6
		c0.3,0,0.7,0.1,1,0.2v0.7h-1.9V124.1z"/>
	<path d="M213.6,124.2c-1.3,0-1.7-0.5-1.7-1.9v-3.7h-1.3v-0.9h1.3v-2.1l1.2-0.3v2.4h1.8v0.9H213v3.3c0,1.1,0.2,1.3,0.9,1.3
		c0.3,0,0.6,0,0.8-0.1l0.1,1C214.5,124.2,214,124.2,213.6,124.2z"/>
	<path d="M220.6,124.1V120c0-0.9-0.2-1.4-1.1-1.4c-1.1,0-1.8,1.1-1.8,2.5v2.2c0.3,0,0.7,0.1,1,0.2v0.7h-3.3v-0.7
		c0.3-0.1,0.7-0.1,1.1-0.2v-7.6c-0.3-0.1-0.7-0.1-1.1-0.1v-0.7c0.6-0.1,1.5-0.1,2.3-0.1v3c0,0.4,0,0.9-0.1,1.3l0,0
		c0.4-0.9,1.2-1.4,2.2-1.4c1.5,0,1.9,0.9,1.9,2v3.6c0.4,0,0.7,0.1,1.1,0.2v0.7h-2.2V124.1z"/>
	<path d="M227.8,118.8c-1.5-0.2-2.1,0.7-2.1,2.8v1.7c0.4,0,0.8,0.1,1.1,0.2v0.7h-3.4v-0.7c0.3-0.1,0.7-0.1,1.1-0.2v-4.6
		c-0.3-0.1-0.7-0.1-1.1-0.1v-0.7c0.6-0.1,1.5-0.1,2.2-0.1c0,0.4,0,1-0.1,1.5l0,0c0.3-0.9,0.9-1.8,2.3-1.6V118.8z"/>
	<path d="M234,120.9h-4.2c-0.1,1.7,0.6,2.4,2,2.4c0.6,0,1.3-0.1,1.8-0.4l0.2,0.9c-0.6,0.3-1.4,0.4-2.2,0.4c-1.9,0-3-1-3-3.3
		c0-1.9,1.1-3.3,2.9-3.3c1.8,0,2.5,1.2,2.5,2.6C234,120.4,234,120.6,234,120.9z M231.4,118.5c-0.8,0-1.4,0.6-1.6,1.6h3
		C232.9,119.1,232.3,118.5,231.4,118.5z"/>
	<path d="M240.5,120.9h-4.2c-0.1,1.7,0.6,2.4,2,2.4c0.6,0,1.3-0.1,1.8-0.4l0.2,0.9c-0.6,0.3-1.4,0.4-2.2,0.4c-1.9,0-3-1-3-3.3
		c0-1.9,1.1-3.3,2.9-3.3c1.8,0,2.5,1.2,2.5,2.6C240.5,120.4,240.5,120.6,240.5,120.9z M237.9,118.5c-0.8,0-1.4,0.6-1.6,1.6h3
		C239.4,119.1,238.8,118.5,237.9,118.5z"/>
	<path d="M246.2,124.2c-0.5,0-1.1-0.1-1.5-0.2v-1.8h0.7c0.1,0.3,0.1,0.7,0.2,1c0.2,0.1,0.5,0.1,0.8,0.1c0.9,0,1.5-0.4,1.5-1
		c0-1.4-3.2-0.6-3.2-2.8c0-1.1,0.9-1.9,2.6-1.9c0.4,0,1,0.1,1.5,0.2v1.7h-0.7c-0.1-0.3-0.1-0.7-0.2-1c-0.2-0.1-0.5-0.1-0.7-0.1
		c-0.9,0-1.3,0.4-1.3,0.9c0,1.4,3.2,0.6,3.2,2.8C248.9,123.3,247.9,124.2,246.2,124.2z"/>
	<path d="M252.6,124.2c-1.3,0-1.7-0.5-1.7-1.9v-3.7h-1.3v-0.9h1.3v-2.1l1.2-0.3v2.4h1.8v0.9H252v3.3c0,1.1,0.2,1.3,0.9,1.3
		c0.3,0,0.6,0,0.8-0.1l0.1,1C253.5,124.2,253,124.2,252.6,124.2z"/>
	<path d="M260.2,120.9H256c-0.1,1.7,0.6,2.4,2,2.4c0.6,0,1.3-0.1,1.8-0.4l0.2,0.9c-0.6,0.3-1.4,0.4-2.2,0.4c-1.9,0-3-1-3-3.3
		c0-1.9,1.1-3.3,2.9-3.3s2.5,1.2,2.5,2.6C260.2,120.4,260.2,120.6,260.2,120.9z M257.6,118.5c-0.8,0-1.4,0.6-1.6,1.6h3
		C259,119.1,258.5,118.5,257.6,118.5z"/>
	<path d="M264.4,124.2c-0.4,0-0.7,0-1.1-0.1v2.3c0.4,0,0.8,0.1,1.1,0.2v0.7H261v-0.7c0.3-0.1,0.7-0.1,1.1-0.2v-7.8
		c-0.3-0.1-0.7-0.1-1.1-0.1v-0.7c0.6-0.1,1.5-0.1,2.2-0.1c0,0.4,0,0.9-0.1,1.3l0,0c0.4-0.9,1.1-1.4,2.1-1.4c1.5,0,2.3,1.1,2.3,3
		C267.6,122.9,266.4,124.2,264.4,124.2z M265,118.6c-1.2,0-1.7,1.3-1.7,2.5v2.1c0.3,0.1,0.7,0.2,1.1,0.2c1.2,0,2-0.7,2-2.6
		C266.4,119.3,266,118.6,265,118.6z"/>
	<path d="M270.4,124.2c-0.5,0-1.1-0.1-1.5-0.2v-1.8h0.7c0.1,0.3,0.1,0.7,0.2,1c0.2,0.1,0.5,0.1,0.8,0.1c0.9,0,1.5-0.4,1.5-1
		c0-1.4-3.2-0.6-3.2-2.8c0-1.1,0.9-1.9,2.6-1.9c0.4,0,1,0.1,1.5,0.2v1.7h-0.7c-0.1-0.3-0.1-0.7-0.2-1c-0.2-0.1-0.5-0.1-0.7-0.1
		c-0.9,0-1.3,0.4-1.3,0.9c0,1.4,3.2,0.6,3.2,2.8C273.2,123.3,272.1,124.2,270.4,124.2z"/>
	<path d="M276.9,124.1v-0.7c0.3-0.1,0.7-0.1,1.1-0.2v-6.9c-0.4,0-0.8-0.1-1.1-0.2v-0.7h5.6v2h-0.8c-0.1-0.4-0.1-0.8-0.2-1.1h-2.3
		v2.8h1.8c0.1-0.3,0.1-0.6,0.2-0.9h0.7v2.6h-0.7c-0.1-0.3-0.1-0.6-0.2-0.9h-1.8v3.1h2.3c0-0.3,0.1-0.7,0.2-1.1h0.8v2.1L276.9,124.1
		L276.9,124.1z"/>
	<path d="M287.8,124.1c0-0.4,0-0.9,0.1-1.3l0,0c-0.3,0.8-1.1,1.4-2.2,1.4s-1.8-0.7-1.8-1.7c0-1.4,1.4-2.2,3.8-2.2v-0.5
		c0-0.9-0.3-1.4-1.3-1.4c-0.4,0-0.8,0.1-1.2,0.2c0,0.3-0.1,0.7-0.2,1h-0.7V118c0.6-0.2,1.4-0.4,2.2-0.4c1.9,0,2.4,0.9,2.4,2.1v3.5
		c0.3,0.1,0.7,0.1,1.1,0.1v0.7C289.4,124.1,288.5,124.1,287.8,124.1z M287.8,121.2c-2,0-2.7,0.5-2.7,1.2c0,0.6,0.4,0.9,1,0.9
		C287.1,123.3,287.8,122.3,287.8,121.2L287.8,121.2z"/>
	<path d="M292.5,124.2c-0.5,0-1.1-0.1-1.5-0.2v-1.8h0.7c0.1,0.3,0.1,0.7,0.2,1c0.2,0.1,0.5,0.1,0.8,0.1c0.9,0,1.5-0.4,1.5-1
		c0-1.4-3.2-0.6-3.2-2.8c0-1.1,0.9-1.9,2.6-1.9c0.4,0,1,0.1,1.5,0.2v1.7h-0.7c-0.1-0.3-0.1-0.7-0.2-1c-0.2-0.1-0.5-0.1-0.7-0.1
		c-0.9,0-1.3,0.4-1.3,0.9c0,1.4,3.2,0.6,3.2,2.8C295.2,123.3,294.2,124.2,292.5,124.2z"/>
	<path d="M298.9,124.2c-1.3,0-1.7-0.5-1.7-1.9v-3.7h-1.3v-0.9h1.3v-2.1l1.2-0.3v2.4h1.8v0.9h-1.8v3.3c0,1.1,0.2,1.3,0.9,1.3
		c0.3,0,0.6,0,0.8-0.1l0.1,1C299.8,124.2,299.3,124.2,298.9,124.2z"/>
	<path d="M301.4,126.1l-0.5-0.4c0.8-0.9,0.8-1.5,0.6-1.8c-0.4-0.4-0.1-1.1,0.6-1.1C303,122.7,303.4,124.3,301.4,126.1z"/>
</g>
<text transform="matrix(1 0 0 1 98.9922 141.2104)" font-family="'ArialMT'" font-size="12.8259" letter-spacing="20">   </text>
<g enable-background="new    ">
	<path d="M181.8,141.3c-1.3,0-1.7-0.5-1.7-1.9v-3.7h-1.3v-0.9h1.3v-2.1l1.2-0.3v2.4h1.8v0.9h-1.8v3.3c0,1.1,0.2,1.3,0.9,1.3
		c0.3,0,0.6,0,0.8-0.1l0.1,1C182.7,141.3,182.2,141.3,181.8,141.3z"/>
	<path d="M188.9,141.2c0-0.4,0-0.9,0.1-1.3l0,0c-0.4,0.9-1.2,1.5-2.2,1.5c-1.5,0-1.9-0.9-1.9-2v-3.5c-0.3-0.1-0.7-0.1-1.1-0.1v-0.7
		c0.6-0.1,1.5-0.1,2.2-0.1v4.1c0,0.9,0.3,1.4,1.1,1.4c1.1,0,1.8-1.1,1.8-2.5v-2.2c-0.3,0-0.7-0.1-1-0.1V135c0.6-0.1,1.5-0.1,2.2-0.1
		v5.5c0.3,0.1,0.7,0.1,1.1,0.1v0.7C190.5,141.2,189.6,141.2,188.9,141.2z"/>
	<path d="M196.1,135.9c-1.5-0.2-2.1,0.7-2.1,2.8v1.7c0.4,0,0.8,0.1,1.1,0.2v0.7h-3.4v-0.7c0.3-0.1,0.7-0.1,1.1-0.2v-4.6
		c-0.3-0.1-0.7-0.1-1.1-0.1V135c0.6-0.1,1.5-0.1,2.2-0.1c0,0.4,0,1-0.1,1.5l0,0c0.3-0.9,0.9-1.8,2.3-1.6V135.9z"/>
	<path d="M201.9,141.2v-4.1c0-0.9-0.2-1.4-1.1-1.4c-1.1,0-1.8,1.1-1.8,2.5v2.2c0.3,0,0.7,0.1,1,0.2v0.7h-3.3v-0.7
		c0.3-0.1,0.7-0.1,1.1-0.2v-4.6c-0.3-0.1-0.7-0.1-1.1-0.1V135c0.6-0.1,1.5-0.1,2.2-0.1c0,0.4,0,1-0.1,1.3l0,0
		c0.4-0.9,1.2-1.5,2.3-1.5c1.5,0,1.9,0.9,1.9,2v3.6c0.4,0,0.8,0.1,1.1,0.2v0.7L201.9,141.2L201.9,141.2z"/>
	<path d="M211.6,141.2c0-0.4,0-0.9,0.1-1.3l0,0c-0.3,0.8-1.1,1.4-2.2,1.4s-1.8-0.7-1.8-1.7c0-1.4,1.4-2.2,3.8-2.2V137
		c0-0.9-0.3-1.4-1.3-1.4c-0.4,0-0.8,0.1-1.2,0.2c0,0.3-0.1,0.7-0.2,1h-0.7v-1.7c0.6-0.2,1.4-0.4,2.2-0.4c1.9,0,2.4,0.9,2.4,2.1v3.5
		c0.3,0.1,0.7,0.1,1.1,0.1v0.7C213.2,141.2,212.3,141.2,211.6,141.2z M211.5,138.3c-2,0-2.7,0.5-2.7,1.2c0,0.6,0.4,0.9,1,0.9
		C210.8,140.4,211.5,139.4,211.5,138.3L211.5,138.3z"/>
	<path d="M219.5,141.2v-4.1c0-0.9-0.2-1.4-1.1-1.4c-1.1,0-1.8,1.1-1.8,2.5v2.2c0.3,0,0.7,0.1,1,0.2v0.7h-3.3v-0.7
		c0.3-0.1,0.7-0.1,1.1-0.2v-4.6c-0.3-0.1-0.7-0.1-1.1-0.1V135c0.6-0.1,1.5-0.1,2.2-0.1c0,0.4,0,1-0.1,1.3l0,0
		c0.4-0.9,1.2-1.5,2.3-1.5c1.5,0,1.9,0.9,1.9,2v3.6c0.4,0,0.8,0.1,1.1,0.2v0.7L219.5,141.2L219.5,141.2z"/>
	<path d="M226.9,141.2c0-0.4,0-0.9,0.1-1.3l0,0c-0.4,0.9-1.1,1.4-2.1,1.4c-1.6,0-2.3-1.1-2.3-3c0-2.2,1.3-3.6,3.3-3.6
		c0.3,0,0.7,0,1.1,0.1v-2.1c-0.3-0.1-0.7-0.1-1.1-0.1v-0.7c0.6-0.1,1.5-0.1,2.3-0.1v8.5c0.3,0.1,0.7,0.1,1.1,0.1v0.7
		C228.5,141.2,227.6,141.2,226.9,141.2z M226.9,135.8c-0.4-0.1-0.8-0.1-1.1-0.1c-1.2,0-2,0.7-2,2.6c0,1.4,0.4,2.2,1.4,2.2
		c1.2,0,1.7-1.3,1.7-2.5L226.9,135.8L226.9,135.8z"/>
	<path d="M242.2,135.7l-1.7,5.5h-1.3l-1.3-3.8c-0.1-0.4-0.3-0.8-0.4-1.3l0,0c-0.1,0.6-0.3,1.1-0.5,1.6l-1.1,3.4h-1.3l-1.6-5.5
		c-0.3,0-0.6-0.1-0.8-0.2v-0.7h2.9v0.7c-0.3,0.1-0.6,0.1-0.9,0.2l0.8,2.8c0.1,0.5,0.3,1,0.4,1.4l0,0c0.1-0.5,0.3-1.1,0.4-1.6
		l1.1-3.6h1.2l1.2,3.6c0.2,0.8,0.3,1.1,0.4,1.6l0,0c0.1-0.4,0.2-0.8,0.4-1.4l0.8-2.9c-0.3,0-0.6-0.1-0.9-0.2v-0.7h2.9v0.7
		C242.8,135.6,242.5,135.7,242.2,135.7z"/>
	<path d="M247.2,141.2c0-0.4,0-0.9,0.1-1.3l0,0c-0.3,0.8-1.1,1.4-2.2,1.4s-1.8-0.7-1.8-1.7c0-1.4,1.4-2.2,3.8-2.2V137
		c0-0.9-0.3-1.4-1.3-1.4c-0.4,0-0.8,0.1-1.2,0.2c0,0.3-0.1,0.7-0.2,1h-0.7v-1.7c0.6-0.2,1.4-0.4,2.2-0.4c1.9,0,2.4,0.9,2.4,2.1v3.5
		c0.3,0.1,0.7,0.1,1.1,0.1v0.7C248.8,141.2,247.9,141.2,247.2,141.2z M247.2,138.3c-2,0-2.7,0.5-2.7,1.2c0,0.6,0.4,0.9,1,0.9
		C246.5,140.4,247.2,139.4,247.2,138.3L247.2,138.3z"/>
	<path d="M249.9,141.2v-0.7c0.3-0.1,0.7-0.1,1.1-0.2v-7.6c-0.3-0.1-0.7-0.1-1.1-0.1v-0.7c0.7-0.1,1.5-0.1,2.3-0.1v8.5
		c0.4,0,0.8,0.1,1.1,0.2v0.7L249.9,141.2L249.9,141.2z"/>
	<path d="M258.3,141.2l-2.5-3.3v2.5c0.3,0,0.7,0.1,1,0.2v0.7h-3.2v-0.7c0.3-0.1,0.7-0.1,1.1-0.2v-7.6c-0.3-0.1-0.7-0.1-1.1-0.1V132
		c0.6-0.1,1.5-0.1,2.3-0.1v5.9l1.8-2.1c-0.3,0-0.6-0.1-0.8-0.2v-0.7h3.1v0.7c-0.3,0.1-0.6,0.1-0.9,0.2l-1.9,2.1l2,2.6
		c0.3,0,0.7,0.1,1,0.2v0.7L258.3,141.2L258.3,141.2z"/>
	<path d="M267.9,141.2v-0.7c0.3-0.1,0.7-0.1,1-0.2v-4.6h-3v4.6c0.3,0,0.7,0.1,1,0.2v0.7h-3.3v-0.7c0.3-0.1,0.7-0.1,1.1-0.2v-4.6
		h-1.4v-0.9h1.4v-0.3c0-1.9,1.2-2.8,3.1-2.8c0.6,0,1.3,0.1,1.9,0.2l-0.2,1c-0.5-0.2-1.2-0.3-1.7-0.3c-1.4,0-1.9,0.6-1.9,1.7v0.4h4.1
		v5.5c0.4,0,0.8,0.1,1.1,0.2v0.7h-3.2V141.2z"/>
	<path d="M277.7,135.7l-2,5.5h-1.4l-2-5.5c-0.3,0-0.6-0.1-0.8-0.2v-0.7h3v0.7c-0.3,0.1-0.6,0.1-0.9,0.2l1.1,3.1
		c0.1,0.4,0.3,0.8,0.4,1.3l0,0c0.1-0.4,0.2-0.8,0.4-1.2l1.1-3.1c-0.3,0-0.6-0.1-0.9-0.2v-0.7h2.9v0.7
		C278.2,135.6,278,135.7,277.7,135.7z"/>
	<path d="M284.2,138H280c-0.1,1.7,0.6,2.4,2,2.4c0.6,0,1.3-0.1,1.8-0.4l0.2,0.9c-0.6,0.3-1.4,0.4-2.2,0.4c-1.9,0-3-1-3-3.3
		c0-1.9,1.1-3.3,2.9-3.3s2.5,1.2,2.5,2.6C284.2,137.5,284.2,137.7,284.2,138z M281.6,135.6c-0.8,0-1.4,0.6-1.6,1.6h3
		C283.1,136.2,282.5,135.6,281.6,135.6z"/>
	<path d="M289.9,141.3c-0.5,0-1.1-0.1-1.5-0.2v-1.8h0.7c0.1,0.3,0.1,0.7,0.2,1c0.2,0.1,0.5,0.1,0.8,0.1c0.9,0,1.5-0.4,1.5-1
		c0-1.4-3.2-0.6-3.2-2.8c0-1.1,0.9-1.9,2.6-1.9c0.4,0,1,0.1,1.5,0.2v1.7h-0.7c-0.1-0.3-0.1-0.7-0.2-1c-0.2-0.1-0.5-0.1-0.7-0.1
		c-0.9,0-1.3,0.4-1.3,0.9c0,1.4,3.2,0.6,3.2,2.8C292.6,140.4,291.5,141.3,289.9,141.3z"/>
	<path d="M296.3,141.3c-1.3,0-1.7-0.5-1.7-1.9v-3.7h-1.3v-0.9h1.3v-2.1l1.2-0.3v2.4h1.8v0.9h-1.8v3.3c0,1.1,0.2,1.3,0.9,1.3
		c0.3,0,0.6,0,0.8-0.1l0.1,1C297.2,141.3,296.7,141.3,296.3,141.3z"/>
	<path d="M303.8,138h-4.2c-0.1,1.7,0.6,2.4,2,2.4c0.6,0,1.3-0.1,1.8-0.4l0.2,0.9c-0.6,0.3-1.4,0.4-2.2,0.4c-1.9,0-3-1-3-3.3
		c0-1.9,1.1-3.3,2.9-3.3s2.5,1.2,2.5,2.6C303.9,137.5,303.9,137.7,303.8,138z M301.3,135.6c-0.8,0-1.4,0.6-1.6,1.6h3
		C302.7,136.2,302.2,135.6,301.3,135.6z"/>
	<path d="M308,141.3c-0.4,0-0.7,0-1.1-0.1v2.3c0.4,0,0.8,0.1,1.1,0.2v0.7h-3.3v-0.7c0.3-0.1,0.7-0.1,1.1-0.2v-7.8
		c-0.3-0.1-0.7-0.1-1.1-0.1v-0.7c0.6-0.1,1.5-0.1,2.2-0.1c0,0.4,0,0.9-0.1,1.3l0,0c0.4-0.9,1.1-1.4,2.1-1.4c1.5,0,2.3,1.1,2.3,3
		C311.3,140,310.1,141.3,308,141.3z M308.7,135.7c-1.2,0-1.7,1.3-1.7,2.5v2.1c0.3,0.1,0.7,0.2,1.1,0.2c1.2,0,2-0.7,2-2.6
		C310.1,136.4,309.7,135.7,308.7,135.7z"/>
	<path d="M314.1,141.3c-0.5,0-1.1-0.1-1.5-0.2v-1.8h0.7c0.1,0.3,0.1,0.7,0.2,1c0.2,0.1,0.5,0.1,0.8,0.1c0.9,0,1.5-0.4,1.5-1
		c0-1.4-3.2-0.6-3.2-2.8c0-1.1,0.9-1.9,2.6-1.9c0.4,0,1,0.1,1.5,0.2v1.7H316c-0.1-0.3-0.1-0.7-0.2-1c-0.2-0.1-0.5-0.1-0.7-0.1
		c-0.9,0-1.3,0.4-1.3,0.9c0,1.4,3.2,0.6,3.2,2.8C316.8,140.4,315.8,141.3,314.1,141.3z"/>
	<path d="M328.7,133.4v7.8h-1.6l-3.3-5.4c-0.4-0.6-0.7-1.3-1-1.9c0.1,1.5,0.1,3.7,0.1,6.5c0.3,0,0.7,0.1,1,0.2v0.7h-3.3v-0.7
		c0.3-0.1,0.7-0.2,1.1-0.2v-6.9c-0.4,0-0.8-0.1-1.1-0.2v-0.7h2.7l3.3,5.4c0.4,0.6,0.7,1.3,1,1.9c-0.1-1.5-0.1-3.7-0.1-6.4
		c-0.3,0-0.7-0.1-1-0.2v-0.7h3v0.7C329.3,133.3,329,133.4,328.7,133.4z"/>
	<path d="M333.3,141.3c-1.7,0-2.9-1-2.9-3.2c0-1.9,1.2-3.4,3.1-3.4c1.6,0,2.9,0.9,2.9,3.2C336.4,139.8,335.3,141.3,333.3,141.3z
		 M333.5,135.7c-0.9,0-1.8,0.7-1.8,2.3c0,1.5,0.6,2.3,1.8,2.3c1,0,1.8-0.7,1.8-2.3C335.2,136.5,334.6,135.7,333.5,135.7z"/>
	<path d="M341.7,135.9c-1.5-0.2-2.1,0.7-2.1,2.8v1.7c0.4,0,0.8,0.1,1.1,0.2v0.7h-3.4v-0.7c0.3-0.1,0.7-0.1,1.1-0.2v-4.6
		c-0.3-0.1-0.7-0.1-1.1-0.1V135c0.6-0.1,1.5-0.1,2.2-0.1c0,0.4,0,1-0.1,1.5l0,0c0.3-0.9,0.9-1.8,2.3-1.6V135.9z"/>
	<path d="M345.1,141.3c-1.3,0-1.7-0.5-1.7-1.9v-3.7h-1.3v-0.9h1.3v-2.1l1.2-0.3v2.4h1.8v0.9h-1.8v3.3c0,1.1,0.2,1.3,0.9,1.3
		c0.3,0,0.6,0,0.8-0.1l0.1,1C346,141.3,345.5,141.3,345.1,141.3z"/>
	<path d="M352.2,141.2v-4.1c0-0.9-0.2-1.4-1.1-1.4c-1.1,0-1.8,1.1-1.8,2.5v2.2c0.3,0,0.7,0.1,1,0.2v0.7H347v-0.7
		c0.3-0.1,0.7-0.1,1.1-0.2v-7.6c-0.3-0.1-0.7-0.1-1.1-0.1V132c0.6-0.1,1.5-0.1,2.3-0.1v3c0,0.4,0,0.9-0.1,1.3l0,0
		c0.4-0.9,1.2-1.4,2.2-1.4c1.5,0,1.9,0.9,1.9,2v3.6c0.4,0,0.7,0.1,1.1,0.2v0.7L352.2,141.2L352.2,141.2z"/>
	<path d="M356.1,141.3c-0.4,0-0.8-0.4-0.8-0.8c0-0.4,0.4-0.8,0.8-0.8s0.8,0.4,0.8,0.8C356.9,141,356.5,141.3,356.1,141.3z"/>
</g>
<g enable-background="new    ">
	<path fill="#999999" d="M105.7,355c-2.2-2-3.2-4-3.2-6.5c0-2.6,1.3-4.8,3.2-6.5l0.7,0.7c-1.7,1.7-2.7,3.7-2.7,5.8
		c0,2.2,0.9,4.1,2.7,5.9L105.7,355z"/>
	<path fill="#999999" d="M109.2,352.1v-0.9l1.8-1.7c1.6-1.4,2-1.9,2-2.8c0-0.8-0.5-1.4-1.6-1.4c-0.7,0-1.5,0.3-1.9,0.7l-0.3-1
		c0.7-0.4,1.4-0.7,2.3-0.7c1.7,0,2.6,1,2.6,2.3c0,1.1-0.6,1.9-2,3.1l-1.5,1.3h-0.1c0.6-0.1,2-0.1,3.9-0.1v1.1h-5.2V352.1z"/>
	<path fill="#999999" d="M117.6,353.8c1.3-0.4,1.7-1,1.7-1.4c0-0.8-0.7-0.8-0.7-1.5c0-0.5,0.4-0.9,0.9-0.9c0.8,0,1.2,0.8,1.2,1.6
		c0,1.6-1.1,2.5-3,3L117.6,353.8z"/>
	<path fill="#999999" d="M125.3,348.8v-1.1h4v1.1H125.3z"/>
	<path fill="#999999" d="M132.5,352.1v-1h2.3v-5.4l-2.2,1.5l-0.4-1l2.8-1.7h1v6.7h2v1h-5.5V352.1z"/>
	<path fill="#999999" d="M141.4,342c2.2,2,3.2,4,3.2,6.5c0,2.6-1.3,4.8-3.2,6.5l-0.7-0.7c1.7-1.7,2.7-3.7,2.7-5.8
		c0-2.2-0.9-4.1-2.7-5.9L141.4,342z"/>
</g>
<g enable-background="new    ">
	<path d="M161.2,348.9v-1h3v1H161.2z"/>
	<path d="M165.4,348.9v-1h3v1H165.4z"/>
	<path d="M171.1,351.9l-0.7-0.7l3.3-2.9l-3.3-2.8l0.7-0.8l4.1,3.6L171.1,351.9z"/>
	<path d="M190.5,344.3l-1.9,7.8h-1.5l-1.7-5.6c-0.1-0.5-0.3-1-0.3-1.5l0,0c-0.1,0.5-0.2,1-0.3,1.5l-1.6,5.6h-1.5l-1.9-7.8
		c-0.2,0-0.6-0.1-0.8-0.1v-0.7h3v0.7c-0.3,0.1-0.7,0.1-1,0.2l1.2,4.9c0.1,0.6,0.2,1.2,0.3,1.7l0,0c0.1-0.6,0.2-1.1,0.4-1.7l1.7-5.8
		h1.1l1.8,5.9c0.1,0.5,0.3,1,0.4,1.6l0,0c0.1-0.5,0.1-1,0.2-1.5l1.2-5.2c-0.3,0-0.7-0.1-1-0.2v-0.7h2.9v0.7
		C191.1,344.2,190.7,344.3,190.5,344.3z"/>
	<path d="M195.2,352.1c0-0.4,0-0.9,0.1-1.3l0,0c-0.3,0.8-1.1,1.4-2.2,1.4s-1.8-0.7-1.8-1.7c0-1.4,1.4-2.2,3.8-2.2v-0.5
		c0-0.9-0.3-1.4-1.3-1.4c-0.4,0-0.8,0.1-1.2,0.2c0,0.3-0.1,0.7-0.2,1h-0.7V346c0.6-0.2,1.4-0.4,2.2-0.4c1.9,0,2.4,0.9,2.4,2.1v3.5
		c0.3,0.1,0.7,0.1,1.1,0.1v0.7C196.8,352.1,195.9,352.2,195.2,352.1z M195.2,349.2c-2,0-2.7,0.5-2.7,1.2c0,0.6,0.4,0.9,1,0.9
		c1,0,1.7-1,1.7-2V349.2z"/>
	<path d="M197.9,352.1v-0.7c0.3-0.1,0.7-0.1,1.1-0.2v-7.6c-0.3-0.1-0.7-0.1-1.1-0.1v-0.7c0.7-0.1,1.5-0.1,2.3-0.1v8.5
		c0.4,0,0.8,0.1,1.1,0.2v0.7L197.9,352.1L197.9,352.1z"/>
	<path d="M206.3,352.1l-2.5-3.3v2.5c0.3,0,0.7,0.1,1,0.2v0.7h-3.2v-0.7c0.3-0.1,0.7-0.1,1.1-0.2v-7.6c-0.3-0.1-0.7-0.1-1.1-0.1v-0.7
		c0.6-0.1,1.5-0.1,2.3-0.1v5.9l1.8-2.1c-0.3,0-0.6-0.1-0.8-0.2v-0.7h3.1v0.7c-0.3,0.1-0.6,0.1-0.9,0.2l-1.9,2.1l2,2.6
		c0.3,0,0.7,0.1,1,0.2v0.7h-1.9V352.1z"/>
	<path d="M214.3,352.2c-1.3,0-1.7-0.5-1.7-1.9v-3.7h-1.3v-0.9h1.3v-2.1l1.2-0.3v2.4h1.8v0.9h-1.8v3.3c0,1.1,0.2,1.3,0.9,1.3
		c0.3,0,0.6,0,0.8-0.1l0.1,1C215.2,352.2,214.7,352.2,214.3,352.2z"/>
	<path d="M226.1,346.6l-1.7,5.5H223l-1.3-3.8c-0.1-0.4-0.3-0.8-0.4-1.3l0,0c-0.1,0.6-0.3,1.1-0.5,1.6l-1.1,3.4h-1.3l-1.6-5.5
		c-0.3,0-0.6-0.1-0.8-0.2v-0.7h2.9v0.7c-0.3,0.1-0.6,0.1-0.9,0.2l0.8,2.8c0.1,0.5,0.3,1,0.4,1.4l0,0c0.1-0.5,0.3-1.1,0.4-1.6
		l1.1-3.6h1.2l1.2,3.6c0.2,0.8,0.3,1.1,0.4,1.6l0,0c0.1-0.4,0.2-0.8,0.4-1.4l0.8-2.9c-0.3,0-0.6-0.1-0.9-0.2v-0.7h2.9v0.7
		C226.7,346.5,226.4,346.6,226.1,346.6z"/>
	<path d="M230.4,352.2c-1.7,0-2.9-1-2.9-3.2c0-1.9,1.2-3.4,3.1-3.4c1.6,0,2.9,0.9,2.9,3.2C233.5,350.8,232.3,352.2,230.4,352.2z
		 M230.5,346.6c-0.9,0-1.8,0.7-1.8,2.3c0,1.5,0.6,2.3,1.8,2.3c0.9,0,1.8-0.7,1.8-2.3C232.3,347.4,231.7,346.6,230.5,346.6z"/>
	<path d="M239,352.2c-0.5,0-1.1-0.1-1.5-0.2v-1.8h0.7c0.1,0.3,0.1,0.7,0.2,1c0.2,0.1,0.5,0.1,0.8,0.1c0.9,0,1.5-0.4,1.5-1
		c0-1.4-3.2-0.6-3.2-2.8c0-1.1,0.9-1.9,2.6-1.9c0.4,0,1,0.1,1.5,0.2v1.7h-0.7c-0.1-0.3-0.1-0.7-0.2-1c-0.2-0.1-0.5-0.1-0.7-0.1
		c-0.9,0-1.3,0.4-1.3,0.9c0,1.4,3.2,0.6,3.2,2.8C241.8,351.3,240.7,352.2,239,352.2z"/>
	<path d="M245.4,352.2c-1.3,0-1.7-0.5-1.7-1.9v-3.7h-1.3v-0.9h1.3v-2.1l1.2-0.3v2.4h1.8v0.9h-1.8v3.3c0,1.1,0.2,1.3,0.9,1.3
		c0.3,0,0.6,0,0.8-0.1l0.1,1C246.3,352.2,245.8,352.2,245.4,352.2z"/>
	<path d="M253,348.9h-4.2c-0.1,1.7,0.6,2.4,2,2.4c0.6,0,1.3-0.1,1.8-0.4l0.2,0.9c-0.6,0.3-1.4,0.4-2.2,0.4c-1.9,0-3-1-3-3.3
		c0-1.9,1.1-3.3,2.9-3.3c1.8,0,2.5,1.2,2.5,2.6C253.1,348.4,253.1,348.7,253,348.9z M250.5,346.5c-0.8,0-1.4,0.6-1.6,1.6h3
		C251.9,347.1,251.4,346.5,250.5,346.5z"/>
	<path d="M257.2,352.2c-0.4,0-0.7,0-1.1-0.1v2.3c0.4,0,0.8,0.1,1.1,0.2v0.7h-3.3v-0.7c0.3-0.1,0.7-0.1,1.1-0.2v-7.8
		c-0.3-0.1-0.7-0.1-1.1-0.1v-0.7c0.6-0.1,1.5-0.1,2.2-0.1c0,0.4,0,0.9-0.1,1.3l0,0c0.4-0.9,1.1-1.4,2.1-1.4c1.5,0,2.3,1.1,2.3,3
		C260.5,350.9,259.3,352.2,257.2,352.2z M257.9,346.6c-1.2,0-1.7,1.3-1.7,2.5v2.1c0.3,0.1,0.7,0.2,1.1,0.2c1.2,0,2-0.7,2-2.6
		C259.3,347.4,258.9,346.6,257.9,346.6z"/>
	<path d="M263.3,352.2c-0.5,0-1.1-0.1-1.5-0.2v-1.8h0.7c0.1,0.3,0.1,0.7,0.2,1c0.2,0.1,0.5,0.1,0.8,0.1c0.9,0,1.5-0.4,1.5-1
		c0-1.4-3.2-0.6-3.2-2.8c0-1.1,0.9-1.9,2.6-1.9c0.4,0,1,0.1,1.5,0.2v1.7H265c-0.1-0.3-0.1-0.7-0.2-1c-0.2-0.1-0.5-0.1-0.7-0.1
		c-0.9,0-1.3,0.4-1.3,0.9c0,1.4,3.2,0.6,3.2,2.8C266,351.3,265,352.2,263.3,352.2z"/>
	<path d="M269.8,352.1v-0.7c0.3-0.1,0.7-0.1,1.1-0.2v-6.9c-0.4,0-0.8-0.1-1.1-0.2v-0.7h5.6v2h-0.8c-0.1-0.4-0.1-0.8-0.2-1.1h-2.3
		v2.8h1.8c0.1-0.3,0.1-0.6,0.2-0.9h0.7v2.6h-0.7c-0.1-0.3-0.1-0.6-0.2-0.9h-1.8v3.1h2.3c0-0.3,0.1-0.7,0.2-1.1h0.8v2.1h-5.6V352.1z"
		/>
	<path d="M280.7,352.1c0-0.4,0-0.9,0.1-1.3l0,0c-0.3,0.8-1.1,1.4-2.2,1.4s-1.8-0.7-1.8-1.7c0-1.4,1.4-2.2,3.8-2.2v-0.5
		c0-0.9-0.3-1.4-1.3-1.4c-0.4,0-0.8,0.1-1.2,0.2c0,0.3-0.1,0.7-0.2,1h-0.7V346c0.6-0.2,1.4-0.4,2.2-0.4c1.9,0,2.4,0.9,2.4,2.1v3.5
		c0.3,0.1,0.7,0.1,1.1,0.1v0.7C282.3,352.1,281.4,352.2,280.7,352.1z M280.6,349.2c-2,0-2.7,0.5-2.7,1.2c0,0.6,0.4,0.9,1,0.9
		c1,0,1.7-1,1.7-2V349.2z"/>
	<path d="M285.4,352.2c-0.5,0-1.1-0.1-1.5-0.2v-1.8h0.7c0.1,0.3,0.1,0.7,0.2,1c0.2,0.1,0.5,0.1,0.8,0.1c0.9,0,1.5-0.4,1.5-1
		c0-1.4-3.2-0.6-3.2-2.8c0-1.1,0.9-1.9,2.6-1.9c0.4,0,1,0.1,1.5,0.2v1.7h-1c-0.1-0.3-0.1-0.7-0.2-1c-0.2-0.1-0.5-0.1-0.7-0.1
		c-0.9,0-1.3,0.4-1.3,0.9c0,1.4,3.2,0.6,3.2,2.8C288.1,351.3,287,352.2,285.4,352.2z"/>
	<path d="M291.8,352.2c-1.3,0-1.7-0.5-1.7-1.9v-3.7h-1.3v-0.9h1.3v-2.1l1.2-0.3v2.4h1.8v0.9h-1.8v3.3c0,1.1,0.2,1.3,0.9,1.3
		c0.3,0,0.6,0,0.8-0.1l0.1,1C292.7,352.2,292.2,352.2,291.8,352.2z"/>
	<path d="M294.3,354.1l-0.5-0.4c0.8-0.9,0.8-1.5,0.6-1.8c-0.4-0.4-0.1-1.1,0.6-1.1C295.8,350.7,296.3,352.3,294.3,354.1z"/>
</g>
<text transform="matrix(1 0 0 1 100.417 369.2266)" font-family="'ArialMT'" font-size="12.8259" letter-spacing="20">   </text>
<g enable-background="new    ">
	<path d="M180.4,369.3c-1.3,0-1.7-0.5-1.7-1.9v-3.7h-1.3v-0.9h1.3v-2.1l1.2-0.3v2.4h1.8v0.9h-1.8v3.3c0,1.1,0.2,1.3,0.9,1.3
		c0.3,0,0.6,0,0.8-0.1l0.1,1C181.3,369.3,180.8,369.3,180.4,369.3z"/>
	<path d="M187.5,369.2c0-0.4,0-0.9,0.1-1.3l0,0c-0.4,0.9-1.2,1.5-2.2,1.5c-1.5,0-1.9-0.9-1.9-2v-3.5c-0.3-0.1-0.7-0.1-1.1-0.1v-0.7
		c0.6-0.1,1.5-0.1,2.2-0.1v4.1c0,0.9,0.3,1.4,1.1,1.4c1.1,0,1.8-1.1,1.8-2.5v-2.2c-0.3,0-0.7-0.1-1-0.1V363c0.6-0.1,1.5-0.1,2.2-0.1
		v5.5c0.3,0.1,0.7,0.1,1.1,0.1v0.7C189.1,369.2,188.2,369.3,187.5,369.2z"/>
	<path d="M194.7,363.9c-1.5-0.2-2.1,0.7-2.1,2.8v1.7c0.4,0,0.8,0.1,1.1,0.2v0.7h-3.4v-0.7c0.3-0.1,0.7-0.1,1.1-0.2v-4.6
		c-0.3-0.1-0.7-0.1-1.1-0.1V363c0.6-0.1,1.5-0.1,2.2-0.1c0,0.4,0,1-0.1,1.5l0,0c0.3-0.9,0.9-1.8,2.3-1.6V363.9z"/>
	<path d="M200.5,369.2v-4.1c0-0.9-0.2-1.4-1.1-1.4c-1.1,0-1.8,1.1-1.8,2.5v2.2c0.3,0,0.7,0.1,1,0.2v0.7h-3.3v-0.7
		c0.3-0.1,0.7-0.1,1.1-0.2v-4.6c-0.3-0.1-0.7-0.1-1.1-0.1V363c0.6-0.1,1.5-0.1,2.2-0.1c0,0.4,0,1-0.1,1.3l0,0
		c0.4-0.9,1.2-1.5,2.3-1.5c1.5,0,1.9,0.9,1.9,2v3.6c0.4,0,0.8,0.1,1.1,0.2v0.7H200.5z"/>
	<path d="M210.2,369.2c0-0.4,0-0.9,0.1-1.3l0,0c-0.3,0.8-1.1,1.4-2.2,1.4s-1.8-0.7-1.8-1.7c0-1.4,1.4-2.2,3.8-2.2V365
		c0-0.9-0.3-1.4-1.3-1.4c-0.4,0-0.8,0.1-1.2,0.2c0,0.3-0.1,0.7-0.2,1h-0.7v-1.7c0.6-0.2,1.4-0.4,2.2-0.4c1.9,0,2.4,0.9,2.4,2.1v3.5
		c0.3,0.1,0.7,0.1,1.1,0.1v0.7C211.8,369.2,210.9,369.3,210.2,369.2z M210.1,366.3c-2,0-2.7,0.5-2.7,1.2c0,0.6,0.4,0.9,1,0.9
		c1,0,1.7-1,1.7-2V366.3z"/>
	<path d="M218.1,369.2v-4.1c0-0.9-0.2-1.4-1.1-1.4c-1.1,0-1.8,1.1-1.8,2.5v2.2c0.3,0,0.7,0.1,1,0.2v0.7H213v-0.7
		c0.3-0.1,0.7-0.1,1.1-0.2v-4.6c-0.3-0.1-0.7-0.1-1.1-0.1V363c0.6-0.1,1.5-0.1,2.2-0.1c0,0.4,0,1-0.1,1.3l0,0
		c0.4-0.9,1.2-1.5,2.3-1.5c1.5,0,1.9,0.9,1.9,2v3.6c0.4,0,0.8,0.1,1.1,0.2v0.7H218.1z"/>
	<path d="M225.5,369.2c0-0.4,0-0.9,0.1-1.3l0,0c-0.4,0.9-1.1,1.4-2.1,1.4c-1.6,0-2.3-1.1-2.3-3c0-2.2,1.3-3.6,3.3-3.6
		c0.3,0,0.7,0,1.1,0.1v-2.1c-0.3-0.1-0.7-0.1-1.1-0.1v-0.7c0.6-0.1,1.5-0.1,2.3-0.1v8.5c0.3,0.1,0.7,0.1,1.1,0.1v0.7
		C227.1,369.2,226.2,369.3,225.5,369.2z M225.5,363.8c-0.4-0.1-0.8-0.1-1.1-0.1c-1.2,0-2,0.7-2,2.6c0,1.4,0.4,2.2,1.4,2.2
		c1.2,0,1.7-1.3,1.7-2.5L225.5,363.8L225.5,363.8z"/>
	<path d="M240.9,363.7l-1.7,5.5h-1.3l-1.3-3.8c-0.1-0.4-0.3-0.8-0.4-1.3l0,0c-0.1,0.6-0.3,1.1-0.5,1.6l-1.1,3.4h-1.3l-1.6-5.5
		c-0.3,0-0.6-0.1-0.8-0.2v-0.7h2.9v0.7c-0.3,0.1-0.6,0.1-0.9,0.2l0.8,2.8c0.1,0.5,0.3,1,0.4,1.4l0,0c0.1-0.5,0.3-1.1,0.4-1.6
		l1.1-3.6h1.2l1.2,3.6c0.2,0.8,0.3,1.1,0.4,1.6l0,0c0.1-0.4,0.2-0.8,0.4-1.4l0.8-2.9c-0.3,0-0.6-0.1-0.9-0.2v-0.7h2.9v0.7
		C241.4,363.6,241.1,363.7,240.9,363.7z"/>
	<path d="M245.9,369.2c0-0.4,0-0.9,0.1-1.3l0,0c-0.3,0.8-1.1,1.4-2.2,1.4s-1.8-0.7-1.8-1.7c0-1.4,1.4-2.2,3.8-2.2V365
		c0-0.9-0.3-1.4-1.3-1.4c-0.4,0-0.8,0.1-1.2,0.2c0,0.3-0.1,0.7-0.2,1h-0.7v-1.7c0.6-0.2,1.4-0.4,2.2-0.4c1.9,0,2.4,0.9,2.4,2.1v3.5
		c0.3,0.1,0.7,0.1,1.1,0.1v0.7C247.4,369.2,246.6,369.3,245.9,369.2z M245.8,366.3c-2,0-2.7,0.5-2.7,1.2c0,0.6,0.4,0.9,1,0.9
		c1,0,1.7-1,1.7-2V366.3z"/>
	<path d="M248.5,369.2v-0.7c0.3-0.1,0.7-0.1,1.1-0.2v-7.6c-0.3-0.1-0.7-0.1-1.1-0.1v-0.7c0.7-0.1,1.5-0.1,2.3-0.1v8.5
		c0.4,0,0.8,0.1,1.1,0.2v0.7L248.5,369.2L248.5,369.2z"/>
	<path d="M257,369.2l-2.5-3.3v2.5c0.3,0,0.7,0.1,1,0.2v0.7h-3.2v-0.7c0.3-0.1,0.7-0.1,1.1-0.2v-7.6c-0.3-0.1-0.7-0.1-1.1-0.1V360
		c0.6-0.1,1.5-0.1,2.3-0.1v5.9l1.8-2.1c-0.3,0-0.6-0.1-0.8-0.2v-0.7h3.1v0.7c-0.3,0.1-0.6,0.1-0.9,0.2l-1.9,2.1l2,2.6
		c0.3,0,0.7,0.1,1,0.2v0.7H257V369.2z"/>
	<path d="M265.3,369.3c-1.7,0-2.9-1-2.9-3.2c0-1.9,1.2-3.4,3.1-3.4c1.6,0,2.9,0.9,2.9,3.2C268.4,367.9,267.2,369.3,265.3,369.3z
		 M265.4,363.7c-0.9,0-1.8,0.7-1.8,2.3c0,1.5,0.6,2.3,1.8,2.3c0.9,0,1.8-0.7,1.8-2.3C267.2,364.5,266.6,363.7,265.4,363.7z"/>
	<path d="M274.4,369.2v-4.1c0-0.9-0.2-1.4-1.1-1.4c-1.1,0-1.8,1.1-1.8,2.5v2.2c0.3,0,0.7,0.1,1,0.2v0.7h-3.3v-0.7
		c0.3-0.1,0.7-0.1,1.1-0.2v-4.6c-0.3-0.1-0.7-0.1-1.1-0.1V363c0.6-0.1,1.5-0.1,2.2-0.1c0,0.4,0,1-0.1,1.3l0,0
		c0.4-0.9,1.2-1.5,2.3-1.5c1.5,0,1.9,0.9,1.9,2v3.6c0.4,0,0.8,0.1,1.1,0.2v0.7H274.4z"/>
	<path d="M282.8,366h-4.2c-0.1,1.7,0.6,2.4,2,2.4c0.6,0,1.3-0.1,1.8-0.4l0.2,0.9c-0.6,0.3-1.4,0.4-2.2,0.4c-1.9,0-3-1-3-3.3
		c0-1.9,1.1-3.3,2.9-3.3s2.5,1.2,2.5,2.6C282.8,365.5,282.8,365.8,282.8,366z M280.2,363.6c-0.8,0-1.4,0.6-1.6,1.6h3
		C281.6,364.2,281.1,363.6,280.2,363.6z"/>
	<path d="M288.4,369.3c-0.5,0-1.1-0.1-1.5-0.2v-1.8h0.7c0.1,0.3,0.1,0.7,0.2,1c0.2,0.1,0.5,0.1,0.8,0.1c0.9,0,1.5-0.4,1.5-1
		c0-1.4-3.2-0.6-3.2-2.8c0-1.1,0.9-1.9,2.6-1.9c0.4,0,1,0.1,1.5,0.2v1.7h-0.7c-0.1-0.3-0.1-0.7-0.2-1c-0.2-0.1-0.5-0.1-0.7-0.1
		c-0.9,0-1.3,0.4-1.3,0.9c0,1.4,3.2,0.6,3.2,2.8C291.2,368.4,290.1,369.3,288.4,369.3z"/>
	<path d="M294.8,369.3c-1.3,0-1.7-0.5-1.7-1.9v-3.7h-1.3v-0.9h1.3v-2.1l1.2-0.3v2.4h1.8v0.9h-1.8v3.3c0,1.1,0.2,1.3,0.9,1.3
		c0.3,0,0.6,0,0.8-0.1l0.1,1C295.7,369.3,295.2,369.3,294.8,369.3z"/>
	<path d="M302.4,366h-4.2c-0.1,1.7,0.6,2.4,2,2.4c0.6,0,1.3-0.1,1.8-0.4l0.2,0.9c-0.6,0.3-1.4,0.4-2.2,0.4c-1.9,0-3-1-3-3.3
		c0-1.9,1.1-3.3,2.9-3.3s2.5,1.2,2.5,2.6C302.5,365.5,302.5,365.8,302.4,366z M299.9,363.6c-0.8,0-1.4,0.6-1.6,1.6h3
		C301.3,364.2,300.8,363.6,299.9,363.6z"/>
	<path d="M306.6,369.3c-0.4,0-0.7,0-1.1-0.1v2.3c0.4,0,0.8,0.1,1.1,0.2v0.7h-3.3v-0.7c0.3-0.1,0.7-0.1,1.1-0.2v-7.8
		c-0.3-0.1-0.7-0.1-1.1-0.1v-0.7c0.6-0.1,1.5-0.1,2.2-0.1c0,0.4,0,0.9-0.1,1.3l0,0c0.4-0.9,1.1-1.4,2.1-1.4c1.5,0,2.3,1.1,2.3,3
		C309.9,368,308.7,369.3,306.6,369.3z M307.3,363.7c-1.2,0-1.7,1.3-1.7,2.5v2.1c0.3,0.1,0.7,0.2,1.1,0.2c1.2,0,2-0.7,2-2.6
		C308.7,364.5,308.2,363.7,307.3,363.7z"/>
	<path d="M315.9,369.3c-0.7,0-1.3-0.1-1.8-0.2V367h0.8c0.1,0.4,0.1,0.8,0.2,1.2c0.3,0.1,0.6,0.1,0.9,0.1c1,0,1.9-0.4,1.9-1.5
		c0-2-4-1.2-4-4c0-1.4,1.1-2.5,3.1-2.5c0.6,0,1.1,0.1,1.7,0.2v2h-0.8c-0.1-0.4-0.1-0.8-0.2-1.1c-0.2,0-0.5-0.1-0.8-0.1
		c-1.1,0-1.7,0.6-1.7,1.4c0,1.9,4,1.2,4,3.9C319.1,368.2,317.9,369.3,315.9,369.3z"/>
	<path d="M323.1,369.3c-1.7,0-2.9-1-2.9-3.2c0-1.9,1.2-3.4,3.1-3.4c1.6,0,2.9,0.9,2.9,3.2C326.2,367.9,325,369.3,323.1,369.3z
		 M323.3,363.7c-0.9,0-1.8,0.7-1.8,2.3c0,1.5,0.6,2.3,1.8,2.3c1,0,1.8-0.7,1.8-2.3C325,364.5,324.4,363.7,323.3,363.7z"/>
	<path d="M332.1,369.2c0-0.4,0-0.9,0.1-1.3l0,0c-0.4,0.9-1.2,1.5-2.2,1.5c-1.5,0-1.9-0.9-1.9-2v-3.5c-0.3-0.1-0.7-0.1-1.1-0.1v-0.7
		c0.6-0.1,1.5-0.1,2.2-0.1v4.1c0,0.9,0.3,1.4,1.1,1.4c1.1,0,1.8-1.1,1.8-2.5v-2.2c-0.3,0-0.7-0.1-1-0.1V363c0.6-0.1,1.5-0.1,2.2-0.1
		v5.5c0.3,0.1,0.7,0.1,1.1,0.1v0.7C333.7,369.2,332.8,369.3,332.1,369.2z"/>
	<path d="M337.5,369.3c-1.3,0-1.7-0.5-1.7-1.9v-3.7h-1.3v-0.9h1.3v-2.1l1.2-0.3v2.4h1.8v0.9H337v3.3c0,1.1,0.2,1.3,0.9,1.3
		c0.3,0,0.6,0,0.8-0.1l0.1,1C338.4,369.3,337.9,369.3,337.5,369.3z"/>
	<path d="M344.6,369.2v-4.1c0-0.9-0.2-1.4-1.1-1.4c-1.1,0-1.8,1.1-1.8,2.5v2.2c0.3,0,0.7,0.1,1,0.2v0.7h-3.3v-0.7
		c0.3-0.1,0.7-0.1,1.1-0.2v-7.6c-0.3-0.1-0.7-0.1-1.1-0.1V360c0.6-0.1,1.5-0.1,2.3-0.1v3c0,0.4,0,0.9-0.1,1.3l0,0
		c0.4-0.9,1.2-1.4,2.2-1.4c1.5,0,1.9,0.9,1.9,2v3.6c0.4,0,0.7,0.1,1.1,0.2v0.7h-2.2V369.2z"/>
	<path d="M348.5,369.3c-0.4,0-0.8-0.4-0.8-0.8s0.4-0.8,0.8-0.8s0.8,0.4,0.8,0.8C349.3,369,348.9,369.3,348.5,369.3z"/>
</g>
<g enable-background="new    ">
	<path fill="#999999" d="M105.7,540.3c-2.2-2-3.2-4-3.2-6.5c0-2.6,1.3-4.8,3.2-6.5l0.7,0.7c-1.7,1.7-2.7,3.7-2.7,5.8
		c0,2.2,0.9,4.1,2.7,5.9L105.7,540.3z"/>
	<path fill="#999999" d="M109.9,534v-1h4v1.1L109.9,534L109.9,534z"/>
	<path fill="#999999" d="M117.1,537.4v-1h2.3V531l-2.2,1.5l-0.4-1l2.8-1.7h1v6.7h2v1L117.1,537.4L117.1,537.4z"/>
	<path fill="#999999" d="M126.2,538.6c-0.4,0-1,0-1.4-0.1l0.1-1c0.4,0.1,1,0.2,1.5,0.2c1.6,0,2.4-0.9,2.4-1.9c0-1.1-0.9-1.7-2.3-1.7
		c-0.5,0-1,0-1.3,0.1v-4.4h4.5v1.1h-3.4v2.3c0.2,0,0.5,0,0.6,0c2.1,0,3.2,1.1,3.2,2.5C130,537.2,128.5,538.6,126.2,538.6z"/>
	<path fill="#999999" d="M132.9,539.1c1.3-0.4,1.7-1,1.7-1.4c0-0.8-0.7-0.8-0.7-1.5c0-0.5,0.4-0.9,0.9-0.9c0.8,0,1.2,0.8,1.2,1.6
		c0,1.6-1.1,2.5-3,3L132.9,539.1z"/>
	<path fill="#999999" d="M141.7,538.6c-0.5,0-1.1-0.1-1.6-0.2l0.2-1c0.4,0.2,1,0.3,1.6,0.3c1.4,0,2.2-0.8,2.2-1.7
		c0-1-0.8-1.6-2.1-1.6c-0.4,0-0.8,0-1.1,0v-1h0.3c1.8,0,2.7-0.5,2.7-1.6c0-0.8-0.6-1.3-1.6-1.3c-0.7,0-1.3,0.2-1.8,0.5l-0.2-1
		c0.7-0.3,1.4-0.4,2.2-0.4c1.7,0,2.6,0.8,2.6,2.1c0,1-0.6,1.7-1.6,2l0,0c1.1,0.1,1.8,1,1.8,2.1C145.3,537.4,143.8,538.6,141.7,538.6
		z"/>
	<path fill="#999999" d="M149.1,527.3c2.2,2,3.2,4,3.2,6.5c0,2.6-1.3,4.8-3.2,6.5l-0.7-0.7c1.7-1.7,2.7-3.7,2.7-5.8
		c0-2.2-0.9-4.1-2.7-5.9L149.1,527.3z"/>
</g>
<g enable-background="new    ">
	<path d="M160.5,534.2v-1h3v1H160.5z"/>
	<path d="M164.7,534.2v-1h3v1H164.7z"/>
	<path d="M170.4,537.1l-0.7-0.7l3.3-2.9l-3.3-2.8l0.7-0.8l4.1,3.6L170.4,537.1z"/>
	<path d="M189.8,529.6l-1.9,7.8h-1.5l-1.7-5.6c-0.1-0.5-0.3-1-0.3-1.5l0,0c-0.1,0.5-0.2,1-0.3,1.5l-1.6,5.6H181l-1.9-7.8
		c-0.2,0-0.6-0.1-0.8-0.1v-0.7h3v0.7c-0.3,0.1-0.7,0.1-1,0.2l1.2,4.9c0.1,0.6,0.2,1.2,0.3,1.7l0,0c0.1-0.6,0.2-1.1,0.4-1.7l1.7-5.8
		h1.1l1.8,5.9c0.1,0.5,0.3,1,0.4,1.6l0,0c0.1-0.5,0.1-1,0.2-1.5l1.2-5.2c-0.3,0-0.7-0.1-1-0.2v-0.7h2.9v0.7
		C190.4,529.5,190,529.5,189.8,529.6z"/>
	<path d="M194.5,537.4c0-0.4,0-0.9,0.1-1.3l0,0c-0.3,0.8-1.1,1.4-2.2,1.4s-1.8-0.7-1.8-1.7c0-1.4,1.4-2.2,3.8-2.2v-0.5
		c0-0.9-0.3-1.4-1.3-1.4c-0.4,0-0.8,0.1-1.2,0.2c0,0.3-0.1,0.7-0.2,1H191v-1.7c0.6-0.2,1.4-0.4,2.2-0.4c1.9,0,2.4,0.9,2.4,2.1v3.5
		c0.3,0.1,0.7,0.1,1.1,0.1v0.7C196.1,537.4,195.2,537.4,194.5,537.4z M194.5,534.4c-2,0-2.7,0.5-2.7,1.2c0,0.6,0.4,0.9,1,0.9
		c1,0,1.7-1,1.7-2V534.4z"/>
	<path d="M197.2,537.4v-0.7c0.3-0.1,0.7-0.1,1.1-0.2v-7.6c-0.3-0.1-0.7-0.1-1.1-0.1v-0.7c0.7-0.1,1.5-0.1,2.3-0.1v8.5
		c0.4,0,0.8,0.1,1.1,0.2v0.7L197.2,537.4L197.2,537.4z"/>
	<path d="M205.6,537.4l-2.5-3.3v2.5c0.3,0,0.7,0.1,1,0.2v0.7h-3.2v-0.7c0.3-0.1,0.7-0.1,1.1-0.2V529c-0.3-0.1-0.7-0.1-1.1-0.1v-0.7
		c0.6-0.1,1.5-0.1,2.3-0.1v5.9l1.8-2.1c-0.3,0-0.6-0.1-0.8-0.2V531h3.1v0.7c-0.3,0.1-0.6,0.1-0.9,0.2l-1.9,2.1l2,2.6
		c0.3,0,0.7,0.1,1,0.2v0.7L205.6,537.4L205.6,537.4z"/>
	<path d="M215.2,537.4v-0.7c0.3-0.1,0.7-0.1,1-0.2v-4.6h-3v4.6c0.3,0,0.7,0.1,1,0.2v0.7h-3.3v-0.7c0.3-0.1,0.7-0.1,1.1-0.2v-4.6
		h-1.4V531h1.4v-0.3c0-1.9,1.2-2.8,3.1-2.8c0.6,0,1.3,0.1,1.9,0.2l-0.2,1c-0.5-0.2-1.2-0.3-1.7-0.3c-1.4,0-1.9,0.6-1.9,1.7v0.4h4.1
		v5.5c0.4,0,0.8,0.1,1.1,0.2v0.7L215.2,537.4L215.2,537.4z"/>
	<path d="M223.6,529c-0.3-0.1-0.7-0.1-1-0.1c-0.9,0-1.3,0.5-1.3,1.6v0.5h1.8v0.9h-1.8v4.6c0.4,0,0.8,0.1,1.1,0.2v0.7H219v-0.7
		c0.3-0.1,0.7-0.1,1.1-0.2v-4.6h-1.4V531h1.4v-0.5c0-1.8,0.9-2.6,2.5-2.6c0.4,0,0.7,0,1.1,0.1L223.6,529z"/>
	<path d="M226.4,537.5c-1.3,0-1.7-0.5-1.7-1.9v-3.7h-1.3V531h1.3v-2.1l1.2-0.3v2.4h1.8v0.9h-1.8v3.3c0,1.1,0.2,1.3,0.9,1.3
		c0.3,0,0.6,0,0.8-0.1l0.1,1C227.3,537.4,226.8,537.5,226.4,537.5z"/>
	<path d="M233.9,534.2h-4.2c-0.1,1.7,0.6,2.4,2,2.4c0.6,0,1.3-0.1,1.8-0.4l0.2,0.9c-0.6,0.3-1.4,0.4-2.2,0.4c-1.9,0-3-1-3-3.3
		c0-1.9,1.1-3.3,2.9-3.3c1.8,0,2.5,1.2,2.5,2.6C234,533.7,234,533.9,233.9,534.2z M231.4,531.8c-0.8,0-1.4,0.6-1.6,1.6h3
		C232.8,532.4,232.3,531.8,231.4,531.8z"/>
	<path d="M240.5,534.2h-4.2c-0.1,1.7,0.6,2.4,2,2.4c0.6,0,1.3-0.1,1.8-0.4l0.2,0.9c-0.6,0.3-1.4,0.4-2.2,0.4c-1.9,0-3-1-3-3.3
		c0-1.9,1.1-3.3,2.9-3.3c1.8,0,2.5,1.2,2.5,2.6C240.5,533.7,240.5,533.9,240.5,534.2z M237.9,531.8c-0.8,0-1.4,0.6-1.6,1.6h3
		C239.3,532.4,238.8,531.8,237.9,531.8z"/>
	<path d="M246.6,537.4v-4.1c0-0.9-0.2-1.4-1.1-1.4c-1.1,0-1.8,1.1-1.8,2.5v2.2c0.3,0,0.7,0.1,1,0.2v0.7h-3.3v-0.7
		c0.3-0.1,0.7-0.1,1.1-0.2V532c-0.3-0.1-0.7-0.1-1.1-0.1v-0.7c0.6-0.1,1.5-0.1,2.2-0.1c0,0.4,0,1-0.1,1.3l0,0
		c0.4-0.9,1.2-1.5,2.3-1.5c1.5,0,1.9,0.9,1.9,2v3.6c0.4,0,0.8,0.1,1.1,0.2v0.7L246.6,537.4L246.6,537.4z"/>
	<path d="M254.1,537.5c-0.5,0-1.1-0.1-1.5-0.2v-1.8h0.7c0.1,0.3,0.1,0.7,0.2,1c0.2,0.1,0.5,0.1,0.8,0.1c0.9,0,1.5-0.4,1.5-1
		c0-1.4-3.2-0.6-3.2-2.8c0-1.1,0.9-1.9,2.6-1.9c0.4,0,1,0.1,1.5,0.2v1.7H256c-0.1-0.3-0.1-0.7-0.2-1c-0.2-0.1-0.5-0.1-0.7-0.1
		c-0.9,0-1.3,0.4-1.3,0.9c0,1.4,3.2,0.6,3.2,2.8C256.8,536.6,255.8,537.5,254.1,537.5z"/>
	<path d="M260.5,537.5c-1.3,0-1.7-0.5-1.7-1.9v-3.7h-1.3V531h1.3v-2.1l1.2-0.3v2.4h1.8v0.9H260v3.3c0,1.1,0.2,1.3,0.9,1.3
		c0.3,0,0.6,0,0.8-0.1l0.1,1C261.4,537.4,260.9,537.5,260.5,537.5z"/>
	<path d="M268.1,534.2h-4.2c-0.1,1.7,0.6,2.4,2,2.4c0.6,0,1.3-0.1,1.8-0.4l0.2,0.9c-0.6,0.3-1.4,0.4-2.2,0.4c-1.9,0-3-1-3-3.3
		c0-1.9,1.1-3.3,2.9-3.3s2.5,1.2,2.5,2.6C268.2,533.7,268.1,533.9,268.1,534.2z M265.5,531.8c-0.8,0-1.4,0.6-1.6,1.6h3
		C267,532.4,266.4,531.8,265.5,531.8z"/>
	<path d="M272.3,537.5c-0.4,0-0.7,0-1.1-0.1v2.3c0.4,0,0.8,0.1,1.1,0.2v0.7H269v-0.7c0.3-0.1,0.7-0.1,1.1-0.2v-7.8
		c-0.3-0.1-0.7-0.1-1.1-0.1v-0.7c0.6-0.1,1.5-0.1,2.2-0.1c0,0.4,0,0.9-0.1,1.3l0,0c0.4-0.9,1.1-1.4,2.1-1.4c1.5,0,2.3,1.1,2.3,3
		C275.6,536.2,274.4,537.5,272.3,537.5z M273,531.8c-1.2,0-1.7,1.3-1.7,2.5v2.1c0.3,0.1,0.7,0.2,1.1,0.2c1.2,0,2-0.7,2-2.6
		C274.4,532.6,273.9,531.8,273,531.8z"/>
	<path d="M278.4,537.5c-0.5,0-1.1-0.1-1.5-0.2v-1.8h0.7c0.1,0.3,0.1,0.7,0.2,1c0.2,0.1,0.5,0.1,0.8,0.1c0.9,0,1.5-0.4,1.5-1
		c0-1.4-3.2-0.6-3.2-2.8c0-1.1,0.9-1.9,2.6-1.9c0.4,0,1,0.1,1.5,0.2v1.7h-0.7c-0.1-0.3-0.1-0.7-0.2-1c-0.2-0.1-0.5-0.1-0.7-0.1
		c-0.9,0-1.3,0.4-1.3,0.9c0,1.4,3.2,0.6,3.2,2.8C281.1,536.6,280.1,537.5,278.4,537.5z"/>
	<path d="M296.1,529.6l-1.9,7.8h-1.5l-1.7-5.6c-0.1-0.5-0.3-1-0.3-1.5l0,0c-0.1,0.5-0.2,1-0.3,1.5l-1.6,5.6h-1.5l-1.9-7.8
		c-0.2,0-0.6-0.1-0.8-0.1v-0.7h3v0.7c-0.3,0.1-0.7,0.1-1,0.2l1.2,4.9c0.1,0.6,0.2,1.2,0.3,1.7l0,0c0.1-0.6,0.2-1.1,0.4-1.7l1.7-5.8
		h1.1l1.8,5.9c0.1,0.5,0.3,1,0.4,1.6l0,0c0.1-0.5,0.1-1,0.2-1.5l1.2-5.2c-0.3,0-0.7-0.1-1-0.2v-0.7h2.9v0.7
		C296.7,529.5,296.4,529.5,296.1,529.6z"/>
	<path d="M302.2,534.2H298c-0.1,1.7,0.6,2.4,2,2.4c0.6,0,1.3-0.1,1.8-0.4l0.2,0.9c-0.6,0.3-1.4,0.4-2.2,0.4c-1.9,0-3-1-3-3.3
		c0-1.9,1.1-3.3,2.9-3.3s2.5,1.2,2.5,2.6C302.2,533.7,302.2,533.9,302.2,534.2z M299.6,531.8c-0.8,0-1.4,0.6-1.6,1.6h3
		C301.1,532.4,300.5,531.8,299.6,531.8z"/>
	<path d="M305.1,537.5c-0.5,0-1.1-0.1-1.5-0.2v-1.8h0.7c0.1,0.3,0.1,0.7,0.2,1c0.2,0.1,0.5,0.1,0.8,0.1c0.9,0,1.5-0.4,1.5-1
		c0-1.4-3.2-0.6-3.2-2.8c0-1.1,0.9-1.9,2.6-1.9c0.4,0,1,0.1,1.5,0.2v1.7H307c-0.1-0.3-0.1-0.7-0.2-1c-0.2-0.1-0.5-0.1-0.7-0.1
		c-0.9,0-1.3,0.4-1.3,0.9c0,1.4,3.2,0.6,3.2,2.8C307.8,536.6,306.8,537.5,305.1,537.5z"/>
	<path d="M311.5,537.5c-1.3,0-1.7-0.5-1.7-1.9v-3.7h-1.3V531h1.3v-2.1l1.2-0.3v2.4h1.8v0.9H311v3.3c0,1.1,0.2,1.3,0.9,1.3
		c0.3,0,0.6,0,0.8-0.1l0.1,1C312.4,537.4,311.9,537.5,311.5,537.5z"/>
	<path d="M314,539.4l-0.5-0.4c0.8-0.9,0.8-1.5,0.6-1.8c-0.4-0.4-0.1-1.1,0.6-1.1C315.6,535.9,316,537.6,314,539.4z"/>
</g>
<g enable-background="new    ">
	<path d="M180.4,554.6c-1.3,0-1.7-0.5-1.7-1.9V549h-1.3v-0.9h1.3V546l1.2-0.3v2.4h1.8v0.9h-1.8v3.3c0,1.1,0.2,1.3,0.9,1.3
		c0.3,0,0.6,0,0.8-0.1l0.1,1C181.3,554.5,180.8,554.6,180.4,554.6z"/>
	<path d="M187.5,554.5c0-0.4,0-0.9,0.1-1.3l0,0c-0.4,0.9-1.2,1.5-2.2,1.5c-1.5,0-1.9-0.9-1.9-2V549c-0.3-0.1-0.7-0.1-1.1-0.1v-0.7
		c0.6-0.1,1.5-0.1,2.2-0.1v4.1c0,0.9,0.3,1.4,1.1,1.4c1.1,0,1.8-1.1,1.8-2.5V549c-0.3,0-0.7-0.1-1-0.1v-0.7c0.6-0.1,1.5-0.1,2.2-0.1
		v5.5c0.3,0.1,0.7,0.1,1.1,0.1v0.7C189.1,554.5,188.2,554.5,187.5,554.5z"/>
	<path d="M194.7,549.1c-1.5-0.2-2.1,0.7-2.1,2.8v1.7c0.4,0,0.8,0.1,1.1,0.2v0.7h-3.4v-0.7c0.3-0.1,0.7-0.1,1.1-0.2V549
		c-0.3-0.1-0.7-0.1-1.1-0.1v-0.7c0.6-0.1,1.5-0.1,2.2-0.1c0,0.4,0,1-0.1,1.5l0,0c0.3-0.9,0.9-1.8,2.3-1.6V549.1z"/>
	<path d="M200.5,554.5v-4.1c0-0.9-0.2-1.4-1.1-1.4c-1.1,0-1.8,1.1-1.8,2.5v2.2c0.3,0,0.7,0.1,1,0.2v0.7h-3.3v-0.7
		c0.3-0.1,0.7-0.1,1.1-0.2V549c-0.3-0.1-0.7-0.1-1.1-0.1v-0.7c0.6-0.1,1.5-0.1,2.2-0.1c0,0.4,0,1-0.1,1.3l0,0
		c0.4-0.9,1.2-1.5,2.3-1.5c1.5,0,1.9,0.9,1.9,2v3.6c0.4,0,0.8,0.1,1.1,0.2v0.7L200.5,554.5L200.5,554.5z"/>
	<path d="M210.2,554.5c0-0.4,0-0.9,0.1-1.3l0,0c-0.3,0.8-1.1,1.4-2.2,1.4s-1.8-0.7-1.8-1.7c0-1.4,1.4-2.2,3.8-2.2v-0.5
		c0-0.9-0.3-1.4-1.3-1.4c-0.4,0-0.8,0.1-1.2,0.2c0,0.3-0.1,0.7-0.2,1h-0.7v-1.7c0.6-0.2,1.4-0.4,2.2-0.4c1.9,0,2.4,0.9,2.4,2.1v3.5
		c0.3,0.1,0.7,0.1,1.1,0.1v0.7C211.8,554.5,210.9,554.5,210.2,554.5z M210.1,551.5c-2,0-2.7,0.5-2.7,1.2c0,0.6,0.4,0.9,1,0.9
		c1,0,1.7-1,1.7-2V551.5z"/>
	<path d="M218.1,554.5v-4.1c0-0.9-0.2-1.4-1.1-1.4c-1.1,0-1.8,1.1-1.8,2.5v2.2c0.3,0,0.7,0.1,1,0.2v0.7H213v-0.7
		c0.3-0.1,0.7-0.1,1.1-0.2V549c-0.3-0.1-0.7-0.1-1.1-0.1v-0.7c0.6-0.1,1.5-0.1,2.2-0.1c0,0.4,0,1-0.1,1.3l0,0
		c0.4-0.9,1.2-1.5,2.3-1.5c1.5,0,1.9,0.9,1.9,2v3.6c0.4,0,0.8,0.1,1.1,0.2v0.7L218.1,554.5L218.1,554.5z"/>
	<path d="M225.5,554.5c0-0.4,0-0.9,0.1-1.3l0,0c-0.4,0.9-1.1,1.4-2.1,1.4c-1.6,0-2.3-1.1-2.3-3c0-2.2,1.3-3.6,3.3-3.6
		c0.3,0,0.7,0,1.1,0.1V546c-0.3-0.1-0.7-0.1-1.1-0.1v-0.7c0.6-0.1,1.5-0.1,2.3-0.1v8.5c0.3,0.1,0.7,0.1,1.1,0.1v0.7
		C227.1,554.5,226.2,554.5,225.5,554.5z M225.5,549.1c-0.4-0.1-0.8-0.1-1.1-0.1c-1.2,0-2,0.7-2,2.6c0,1.4,0.4,2.2,1.4,2.2
		c1.2,0,1.7-1.3,1.7-2.5L225.5,549.1L225.5,549.1z"/>
	<path d="M240.9,549l-1.7,5.5h-1.3l-1.3-3.8c-0.1-0.4-0.3-0.8-0.4-1.3l0,0c-0.1,0.6-0.3,1.1-0.5,1.6l-1.1,3.4h-1.3l-1.6-5.5
		c-0.3,0-0.6-0.1-0.8-0.2V548h2.9v0.7c-0.3,0.1-0.6,0.1-0.9,0.2l0.8,2.8c0.1,0.5,0.3,1,0.4,1.4l0,0c0.1-0.5,0.3-1.1,0.4-1.6l1.1-3.6
		h1.2l1.2,3.6c0.2,0.8,0.3,1.1,0.4,1.6l0,0c0.1-0.4,0.2-0.8,0.4-1.4l0.8-2.9c-0.3,0-0.6-0.1-0.9-0.2v-0.7h2.9v0.7
		C241.4,548.9,241.1,548.9,240.9,549z"/>
	<path d="M245.9,554.5c0-0.4,0-0.9,0.1-1.3l0,0c-0.3,0.8-1.1,1.4-2.2,1.4s-1.8-0.7-1.8-1.7c0-1.4,1.4-2.2,3.8-2.2v-0.5
		c0-0.9-0.3-1.4-1.3-1.4c-0.4,0-0.8,0.1-1.2,0.2c0,0.3-0.1,0.7-0.2,1h-0.7v-1.7c0.6-0.2,1.4-0.4,2.2-0.4c1.9,0,2.4,0.9,2.4,2.1v3.5
		c0.3,0.1,0.7,0.1,1.1,0.1v0.7C247.4,554.5,246.6,554.5,245.9,554.5z M245.8,551.5c-2,0-2.7,0.5-2.7,1.2c0,0.6,0.4,0.9,1,0.9
		c1,0,1.7-1,1.7-2V551.5z"/>
	<path d="M248.5,554.5v-0.7c0.3-0.1,0.7-0.1,1.1-0.2V546c-0.3-0.1-0.7-0.1-1.1-0.1v-0.7c0.7-0.1,1.5-0.1,2.3-0.1v8.5
		c0.4,0,0.8,0.1,1.1,0.2v0.7L248.5,554.5L248.5,554.5z"/>
	<path d="M257,554.5l-2.5-3.3v2.5c0.3,0,0.7,0.1,1,0.2v0.7h-3.2v-0.7c0.3-0.1,0.7-0.1,1.1-0.2V546c-0.3-0.1-0.7-0.1-1.1-0.1v-0.7
		c0.6-0.1,1.5-0.1,2.3-0.1v5.9l1.8-2.1c-0.3,0-0.6-0.1-0.8-0.2V548h3.1v0.7c-0.3,0.1-0.6,0.1-0.9,0.2l-1.9,2.1l2,2.6
		c0.3,0,0.7,0.1,1,0.2v0.7L257,554.5L257,554.5z"/>
	<path d="M264.9,554.6c-1.3,0-1.7-0.5-1.7-1.9V549h-1.3v-0.9h1.3V546l1.2-0.3v2.4h1.8v0.9h-1.8v3.3c0,1.1,0.2,1.3,0.9,1.3
		c0.3,0,0.6,0,0.8-0.1l0.1,1C265.8,554.5,265.3,554.6,264.9,554.6z"/>
	<path d="M272,554.5v-4.1c0-0.9-0.2-1.4-1.1-1.4c-1.1,0-1.8,1.1-1.8,2.5v2.2c0.3,0,0.7,0.1,1,0.2v0.7h-3.3v-0.7
		c0.3-0.1,0.7-0.1,1.1-0.2V546c-0.3-0.1-0.7-0.1-1.1-0.1v-0.7c0.6-0.1,1.5-0.1,2.3-0.1v3c0,0.4,0,0.9-0.1,1.3l0,0
		c0.4-0.9,1.2-1.4,2.2-1.4c1.5,0,1.9,0.9,1.9,2v3.6c0.4,0,0.7,0.1,1.1,0.2v0.7H272z"/>
	<path d="M279.2,549.1c-1.5-0.2-2.1,0.7-2.1,2.8v1.7c0.4,0,0.8,0.1,1.1,0.2v0.7h-3.4v-0.7c0.3-0.1,0.7-0.1,1.1-0.2V549
		c-0.3-0.1-0.7-0.1-1.1-0.1v-0.7c0.6-0.1,1.5-0.1,2.2-0.1c0,0.4,0,1-0.1,1.5l0,0c0.3-0.9,0.9-1.8,2.3-1.6V549.1z"/>
	<path d="M285.4,551.3h-4.2c-0.1,1.7,0.6,2.4,2,2.4c0.6,0,1.3-0.1,1.8-0.4l0.2,0.9c-0.6,0.3-1.4,0.4-2.2,0.4c-1.9,0-3-1-3-3.3
		c0-1.9,1.1-3.3,2.9-3.3s2.5,1.2,2.5,2.6C285.4,550.8,285.4,551,285.4,551.3z M282.8,548.9c-0.8,0-1.4,0.6-1.6,1.6h3
		C284.2,549.5,283.7,548.9,282.8,548.9z"/>
	<path d="M291.9,551.3h-4.2c-0.1,1.7,0.6,2.4,2,2.4c0.6,0,1.3-0.1,1.8-0.4l0.2,0.9c-0.6,0.3-1.4,0.4-2.2,0.4c-1.9,0-3-1-3-3.3
		c0-1.9,1.1-3.3,2.9-3.3s2.5,1.2,2.5,2.6C291.9,550.8,291.9,551,291.9,551.3z M289.3,548.9c-0.8,0-1.4,0.6-1.6,1.6h3
		C290.8,549.5,290.2,548.9,289.3,548.9z"/>
	<path d="M297.5,554.6c-0.5,0-1.1-0.1-1.5-0.2v-1.8h0.7c0.1,0.3,0.1,0.7,0.2,1c0.2,0.1,0.5,0.1,0.8,0.1c0.9,0,1.5-0.4,1.5-1
		c0-1.4-3.2-0.6-3.2-2.8c0-1.1,0.9-1.9,2.6-1.9c0.4,0,1,0.1,1.5,0.2v1.7h-0.7c-0.1-0.3-0.1-0.7-0.2-1c-0.2-0.1-0.5-0.1-0.7-0.1
		c-0.9,0-1.3,0.4-1.3,0.9c0,1.4,3.2,0.6,3.2,2.8C300.3,553.7,299.2,554.6,297.5,554.6z"/>
	<path d="M303.9,554.6c-1.3,0-1.7-0.5-1.7-1.9V549h-1.3v-0.9h1.3V546l1.2-0.3v2.4h1.8v0.9h-1.8v3.3c0,1.1,0.2,1.3,0.9,1.3
		c0.3,0,0.6,0,0.8-0.1l0.1,1C304.8,554.5,304.3,554.6,303.9,554.6z"/>
	<path d="M311.5,551.3h-4.2c-0.1,1.7,0.6,2.4,2,2.4c0.6,0,1.3-0.1,1.8-0.4l0.2,0.9c-0.6,0.3-1.4,0.4-2.2,0.4c-1.9,0-3-1-3-3.3
		c0-1.9,1.1-3.3,2.9-3.3s2.5,1.2,2.5,2.6C311.6,550.8,311.6,551,311.5,551.3z M309,548.9c-0.8,0-1.4,0.6-1.6,1.6h3
		C310.4,549.5,309.9,548.9,309,548.9z"/>
	<path d="M315.7,554.6c-0.4,0-0.7,0-1.1-0.1v2.3c0.4,0,0.8,0.1,1.1,0.2v0.7h-3.3V557c0.3-0.1,0.7-0.1,1.1-0.2V549
		c-0.3-0.1-0.7-0.1-1.1-0.1v-0.7c0.6-0.1,1.5-0.1,2.2-0.1c0,0.4,0,0.9-0.1,1.3l0,0c0.4-0.9,1.1-1.4,2.1-1.4c1.5,0,2.3,1.1,2.3,3
		C319,553.3,317.8,554.6,315.7,554.6z M316.4,548.9c-1.2,0-1.7,1.3-1.7,2.5v2.1c0.3,0.1,0.7,0.2,1.1,0.2c1.2,0,2-0.7,2-2.6
		C317.8,549.7,317.4,548.9,316.4,548.9z"/>
	<path d="M321.8,554.6c-0.5,0-1.1-0.1-1.5-0.2v-1.8h0.7c0.1,0.3,0.1,0.7,0.2,1c0.2,0.1,0.5,0.1,0.8,0.1c0.9,0,1.5-0.4,1.5-1
		c0-1.4-3.2-0.6-3.2-2.8c0-1.1,0.9-1.9,2.6-1.9c0.4,0,1,0.1,1.5,0.2v1.7h-0.7c-0.1-0.3-0.1-0.7-0.2-1c-0.2-0.1-0.5-0.1-0.7-0.1
		c-0.9,0-1.3,0.4-1.3,0.9c0,1.4,3.2,0.6,3.2,2.8C324.5,553.7,323.5,554.6,321.8,554.6z"/>
	<path d="M336.4,546.7v7.8h-1.6l-3.3-5.4c-0.4-0.6-0.7-1.3-1-1.9c0.1,1.5,0.1,3.7,0.1,6.5c0.3,0,0.7,0.1,1,0.2v0.7h-3.3v-0.7
		c0.3-0.1,0.7-0.2,1.1-0.2v-6.9c-0.4,0-0.8-0.1-1.1-0.2v-0.7h2.7l3.3,5.4c0.4,0.6,0.7,1.3,1,1.9c-0.1-1.5-0.1-3.7-0.1-6.4
		c-0.3,0-0.7-0.1-1-0.2v-0.7h3v0.7C337,546.6,336.7,546.7,336.4,546.7z"/>
	<path d="M341,554.6c-1.7,0-2.9-1-2.9-3.2c0-1.9,1.2-3.4,3.1-3.4c1.6,0,2.9,0.9,2.9,3.2C344.1,553.1,342.9,554.6,341,554.6z
		 M341.2,549c-0.9,0-1.8,0.7-1.8,2.3c0,1.5,0.6,2.3,1.8,2.3c1,0,1.8-0.7,1.8-2.3C342.9,549.8,342.3,549,341.2,549z"/>
	<path d="M349.4,549.1c-1.5-0.2-2.1,0.7-2.1,2.8v1.7c0.4,0,0.8,0.1,1.1,0.2v0.7H345v-0.7c0.3-0.1,0.7-0.1,1.1-0.2V549
		c-0.3-0.1-0.7-0.1-1.1-0.1v-0.7c0.6-0.1,1.5-0.1,2.2-0.1c0,0.4,0,1-0.1,1.5l0,0c0.3-0.9,0.9-1.8,2.3-1.6V549.1z"/>
	<path d="M352.8,554.6c-1.3,0-1.7-0.5-1.7-1.9V549h-1.3v-0.9h1.3V546l1.2-0.3v2.4h1.8v0.9h-1.8v3.3c0,1.1,0.2,1.3,0.9,1.3
		c0.3,0,0.6,0,0.8-0.1l0.1,1C353.7,554.5,353.2,554.6,352.8,554.6z"/>
	<path d="M359.9,554.5v-4.1c0-0.9-0.2-1.4-1.1-1.4c-1.1,0-1.8,1.1-1.8,2.5v2.2c0.3,0,0.7,0.1,1,0.2v0.7h-3.3v-0.7
		c0.3-0.1,0.7-0.1,1.1-0.2V546c-0.3-0.1-0.7-0.1-1.1-0.1v-0.7c0.6-0.1,1.5-0.1,2.3-0.1v3c0,0.4,0,0.9-0.1,1.3l0,0
		c0.4-0.9,1.2-1.4,2.2-1.4c1.5,0,1.9,0.9,1.9,2v3.6c0.4,0,0.7,0.1,1.1,0.2v0.7H359.9z"/>
	<path d="M363.8,554.6c-0.4,0-0.8-0.4-0.8-0.8c0-0.4,0.4-0.8,0.8-0.8s0.8,0.4,0.8,0.8C364.6,554.2,364.2,554.6,363.8,554.6z"/>
</g>
<g enable-background="new    ">
	<path fill="#999999" d="M254,181.4c-2.2-2-3.2-4-3.2-6.5c0-2.6,1.3-4.8,3.2-6.5l0.7,0.7c-1.7,1.7-2.7,3.7-2.7,5.8
		c0,2.2,0.9,4.1,2.7,5.9L254,181.4z"/>
	<path fill="#999999" d="M259.3,179.7c-0.5,0-1.1-0.1-1.6-0.2l0.2-1c0.4,0.2,1,0.3,1.6,0.3c1.4,0,2.2-0.8,2.2-1.7
		c0-1-0.8-1.6-2.1-1.6c-0.4,0-0.8,0-1.1,0v-1h0.3c1.8,0,2.7-0.5,2.7-1.6c0-0.8-0.6-1.3-1.6-1.3c-0.7,0-1.3,0.2-1.8,0.5l-0.2-1
		c0.7-0.3,1.4-0.4,2.2-0.4c1.7,0,2.6,0.8,2.6,2.1c0,1-0.6,1.7-1.6,2l0,0c1.1,0.1,1.8,1,1.8,2.1C262.9,178.5,261.4,179.7,259.3,179.7
		z"/>
	<path fill="#999999" d="M265.9,180.2c1.3-0.4,1.7-1,1.7-1.4c0-0.8-0.7-0.8-0.7-1.5c0-0.5,0.4-0.9,0.9-0.9c0.8,0,1.2,0.8,1.2,1.6
		c0,1.6-1.1,2.5-3,3L265.9,180.2z"/>
	<path fill="#999999" d="M274.6,179.7c-0.4,0-1,0-1.4-0.1l0.1-1c0.4,0.1,1,0.2,1.5,0.2c1.6,0,2.4-0.9,2.4-1.9c0-1.1-0.9-1.7-2.3-1.7
		c-0.5,0-1,0-1.3,0.1v-4.4h4.5v1.1h-3.4v2.3c0.2,0,0.5,0,0.6,0c2.1,0,3.2,1.1,3.2,2.5C278.4,178.3,276.9,179.7,274.6,179.7z"/>
	<path fill="#999999" d="M282.1,168.4c2.2,2,3.2,4,3.2,6.5c0,2.6-1.3,4.8-3.2,6.5l-0.7-0.7c1.7-1.7,2.7-3.7,2.7-5.8
		c0-2.2-0.9-4.1-2.7-5.9L282.1,168.4z"/>
</g>
<g enable-background="new    ">
	<path fill="#999999" d="M224.8,469.2c-2.2-2-3.2-4-3.2-6.5c0-2.6,1.3-4.8,3.2-6.5l0.7,0.7c-1.7,1.7-2.7,3.7-2.7,5.8
		c0,2.2,0.9,4.1,2.7,5.9L224.8,469.2z"/>
	<path fill="#999999" d="M228.3,466.4v-0.9l1.8-1.7c1.6-1.4,2-1.9,2-2.8c0-0.8-0.5-1.4-1.6-1.4c-0.7,0-1.5,0.3-1.9,0.7l-0.3-1
		c0.7-0.4,1.4-0.7,2.3-0.7c1.7,0,2.6,1,2.6,2.3c0,1.1-0.6,1.9-2,3.1l-1.5,1.3h-0.1c0.6-0.1,2-0.1,3.9-0.1v1.1h-5.2V466.4z"/>
	<path fill="#999999" d="M236.7,468.1c1.3-0.4,1.7-1,1.7-1.4c0-0.8-0.7-0.8-0.7-1.5c0-0.5,0.4-0.9,0.9-0.9c0.8,0,1.2,0.8,1.2,1.6
		c0,1.6-1.1,2.5-3,3L236.7,468.1z"/>
	<path fill="#999999" d="M244.5,463v-1.1h4v1.1H244.5z"/>
	<path fill="#999999" d="M251.7,466.4v-1h2.3V460l-2.2,1.5l-0.4-1l2.8-1.7h1v6.7h2v1h-5.5V466.4z"/>
	<path fill="#999999" d="M260.6,456.2c2.2,2,3.2,4,3.2,6.5c0,2.6-1.3,4.8-3.2,6.5l-0.7-0.7c1.7-1.7,2.7-3.7,2.7-5.8
		c0-2.2-0.9-4.1-2.7-5.9L260.6,456.2z"/>
</g>
<g enable-background="new    ">
	<path fill="#999999" d="M230.5,601.8c-2.2-2-3.2-4-3.2-6.5c0-2.6,1.3-4.8,3.2-6.5l0.7,0.7c-1.7,1.7-2.7,3.7-2.7,5.8
		c0,2.2,0.9,4.1,2.7,5.9L230.5,601.8z"/>
	<path fill="#999999" d="M234.8,595.5v-1.1h4v1.1H234.8z"/>
	<path fill="#999999" d="M242,598.9v-1h2.3v-5.4l-2.2,1.5l-0.4-1l2.8-1.7h1v6.7h2v1L242,598.9L242,598.9z"/>
	<path fill="#999999" d="M251.1,600.1c-0.4,0-1,0-1.4-0.1l0.1-1c0.4,0.1,1,0.2,1.5,0.2c1.6,0,2.4-0.9,2.4-1.9c0-1.1-0.9-1.7-2.3-1.7
		c-0.5,0-1,0-1.3,0.1v-4.4h4.5v1.1h-3.4v2.3c0.2,0,0.5,0,0.6,0c2.1,0,3.2,1.1,3.2,2.5C254.9,598.7,253.3,600.1,251.1,600.1z"/>
	<path fill="#999999" d="M257.8,600.6c1.3-0.4,1.7-1,1.7-1.4c0-0.8-0.7-0.8-0.7-1.5c0-0.5,0.4-0.9,0.9-0.9c0.8,0,1.2,0.8,1.2,1.6
		c0,1.6-1.1,2.5-3,3L257.8,600.6z"/>
	<path fill="#999999" d="M266.5,600.1c-0.5,0-1.1-0.1-1.6-0.2l0.2-1c0.4,0.2,1,0.3,1.6,0.3c1.4,0,2.2-0.8,2.2-1.7
		c0-1-0.8-1.6-2.1-1.6c-0.4,0-0.8,0-1.1,0v-1h0.3c1.8,0,2.7-0.5,2.7-1.6c0-0.8-0.6-1.3-1.6-1.3c-0.7,0-1.3,0.2-1.8,0.5l-0.2-1
		c0.7-0.3,1.4-0.4,2.2-0.4c1.7,0,2.6,0.8,2.6,2.1c0,1-0.6,1.7-1.6,2l0,0c1.1,0.1,1.8,1,1.8,2.1C270.2,598.9,268.7,600.1,266.5,600.1
		z"/>
	<path fill="#999999" d="M274,588.8c2.2,2,3.2,4,3.2,6.5c0,2.6-1.3,4.8-3.2,6.5l-0.7-0.7c1.7-1.7,2.7-3.7,2.7-5.8
		c0-2.2-0.9-4.1-2.7-5.9L274,588.8z"/>
</g>
</svg>
