<?xml version="1.0" encoding="utf-8"?>
<!-- Generator: Adobe Illustrator 18.0.0, SVG Export Plug-In . SVG Version: 6.00 Build 0)  -->
<!DOCTYPE svg PUBLIC "-//W3C//DTD SVG 1.1//EN" "http://www.w3.org/Graphics/SVG/1.1/DTD/svg11.dtd">
<svg version="1.1" id="Layer_1" xmlns="http://www.w3.org/2000/svg" xmlns:xlink="http://www.w3.org/1999/xlink" x="0px" y="0px"
	 viewBox="-16.5 295 645 202" enable-background="new -16.5 295 645 202" xml:space="preserve">
<circle cx="90.6" cy="330.6" r="5.5"/>
<g enable-background="new    ">
	<path fill="#999999" d="M94.5,433.1c0-0.5,0-1.3,0.1-1.8l0,0c-0.5,1.2-1.5,2-3,2c-2,0-2.6-1.2-2.6-2.7v-4.8c-0.4-0.1-1-0.1-1.4-0.2
		v-0.9c0.8-0.1,2-0.2,3-0.1v5.5c0,1.2,0.3,1.9,1.5,1.9c1.4,0,2.4-1.4,2.4-3.3v-2.9c-0.4-0.1-0.9-0.1-1.4-0.2v-0.9
		c0.8-0.1,2-0.2,2.9-0.1v7.3c0.4,0.1,1,0.1,1.4,0.2v0.9C96.7,433.1,95.5,433.1,94.5,433.1z"/>
</g>
<line fill="none" stroke="#000000" stroke-width="1.3" stroke-dasharray="20,5" x1="42.5" y1="330.4" x2="88.6" y2="330.4"/>
<line fill="none" stroke="#000000" stroke-width="1.3" stroke-dasharray="20,5" x1="42.6" y1="336.1" x2="42.6" y2="382.1"/>
<g enable-background="new    ">
	<path d="M59.9,322.8v-1.3l2.5-2.2c2.2-1.8,2.7-2.6,2.7-3.7c0-1.1-0.7-1.9-2.1-1.9c-1,0-1.9,0.5-2.5,0.9l-0.3-1.4
		c0.9-0.6,1.9-0.9,3.1-0.9c2.3,0,3.5,1.3,3.5,3.1c0,1.5-0.8,2.6-2.7,4.2l-2.1,1.8h-0.1c0.8-0.1,2.7-0.1,5.2-0.1v1.5L59.9,322.8
		L59.9,322.8z"/>
</g>
<polyline fill="#FFFFFF" stroke="#999999" stroke-width="1.3" points="96.1,412.6 100.3,416.8 96.1,420.9 "/>
<line fill="none" stroke="#999999" stroke-width="1.3" x1="100.3" y1="416.8" x2="84.5" y2="416.8"/>
<g enable-background="new    ">
	<path fill="#999999" d="M138.5,373.3V372h4.1v1.3H138.5z"/>
	<path fill="#999999" d="M151.8,370.1l-2.7,7.4h-1.9l-2.7-7.4c-0.4,0-0.8-0.1-1.1-0.2V369h4v0.9c-0.4,0.1-0.8,0.2-1.2,0.2l1.4,4.2
		c0.2,0.6,0.4,1.1,0.5,1.7l0,0c0.2-0.6,0.3-1.1,0.5-1.6l1.5-4.2c-0.4,0-0.8-0.1-1.2-0.2v-0.9h3.9v0.9
		C152.5,370.1,152.2,370.1,151.8,370.1z"/>
</g>
<polyline fill="#FFFFFF" stroke="#999999" stroke-width="1.3" points="149.3,357.1 153.6,361.3 149.3,365.4 "/>
<line fill="none" stroke="#999999" stroke-width="1.3" x1="153.6" y1="361.3" x2="137.6" y2="361.3"/>
<g enable-background="new    ">
	<path fill="#999999" d="M198.6,449.6v3.5h-1.5v-3.5h-3.3v-1.3h3.3v-3.5h1.5v3.4h3.3v1.3L198.6,449.6L198.6,449.6z"/>
	<path fill="#999999" d="M211,446.6l-2.7,7.4h-1.9l-2.7-7.4c-0.4,0-0.8-0.1-1.1-0.2v-0.9h4v0.9c-0.4,0.1-0.8,0.2-1.2,0.2l1.4,4.2
		c0.2,0.6,0.4,1.1,0.5,1.7l0,0c0.2-0.6,0.3-1.1,0.5-1.6l1.5-4.2c-0.4,0-0.8-0.1-1.2-0.2v-0.9h3.9v0.9
		C211.8,446.6,211.4,446.6,211,446.6z"/>
</g>
<polyline fill="#FFFFFF" stroke="#999999" stroke-width="1.3" points="206.7,433.6 211,437.8 206.7,441.9 "/>
<line fill="none" stroke="#999999" stroke-width="1.3" x1="211" y1="437.8" x2="195" y2="437.8"/>
<g enable-background="new    ">
	<path d="M17.9,354.1v-1.4h5.4v1.4H17.9z"/>
	<path d="M27.2,358.6v-1.3l2.5-2.2c2.2-1.8,2.7-2.6,2.7-3.7c0-1.1-0.7-1.9-2.1-1.9c-1,0-1.9,0.5-2.5,0.9l-0.3-1.4
		c0.9-0.6,1.9-0.9,3.1-0.9c2.3,0,3.5,1.3,3.5,3.1c0,1.5-0.8,2.6-2.7,4.2l-2.1,1.8h-0.1c0.8-0.1,2.7-0.1,5.2-0.1v1.5L27.2,358.6
		L27.2,358.6z"/>
</g>
<circle cx="42.1" cy="381.3" r="5.5"/>
<line fill="none" stroke="#999999" stroke-width="1.3" x1="95.2" y1="339.3" x2="159" y2="423.4"/>
<line fill="none" stroke="#999999" stroke-width="1.3" stroke-dasharray="4,4" x1="159.9" y1="424.4" x2="203.4" y2="481.8"/>
<polyline fill="none" stroke="#999999" stroke-width="1.3" points="93.8,347.4 95.1,339.1 103.3,340.4 "/>
<line fill="none" stroke="#999999" stroke-width="1.3" x1="47.7" y1="376.9" x2="84.4" y2="338.1"/>
<g enable-background="new    ">
	<path fill="#999999" d="M87.8,371.8l-2.3,7.4h-1.8l-1.7-5c-0.2-0.5-0.3-1.1-0.5-1.7l0,0c-0.2,0.8-0.4,1.4-0.6,2.2l-1.4,4.6h-1.9
		l-2.2-7.4c-0.4,0-0.8-0.1-1.1-0.2v-0.9h3.9v0.9c-0.4,0.1-0.8,0.2-1.2,0.2l1,3.8c0.2,0.7,0.4,1.4,0.5,1.9l0,0
		c0.2-0.7,0.4-1.4,0.6-2.1l1.5-4.8h1.6l1.5,4.8c0.3,1,0.5,1.5,0.6,2.1l0,0c0.2-0.6,0.3-1.1,0.5-1.9l1.1-3.9c-0.4,0-0.8-0.1-1.2-0.2
		v-0.9h3.8v0.9C88.5,371.6,88.2,371.8,87.8,371.8z"/>
</g>
<polyline fill="none" stroke="#999999" stroke-width="1.3" points="76.5,338.6 84.8,337.6 85.8,345.9 "/>
<polyline fill="#FFFFFF" stroke="#999999" stroke-width="1.3" points="84.9,358.8 89.1,362.9 84.9,367.1 "/>
<line fill="none" stroke="#999999" stroke-width="1.3" x1="89.1" y1="362.9" x2="73.3" y2="362.9"/>
<g enable-background="new    ">
	<path fill="#999999" d="M486.5,388.1l-2.3,7.4h-1.8l-1.7-5c-0.2-0.5-0.3-1.1-0.5-1.7l0,0c-0.2,0.8-0.4,1.4-0.6,2.2l-1.4,4.6h-1.8
		l-2.2-7.4c-0.4,0-0.8-0.1-1.1-0.2v-1.1h3.9v0.9c-0.4,0.1-0.8,0.2-1.2,0.2l1,3.8c0.2,0.7,0.4,1.4,0.5,1.9l0,0
		c0.2-0.7,0.4-1.4,0.6-2.1l1.5-4.8h1.6l1.5,4.8c0.3,1,0.5,1.5,0.6,2.1l0,0c0.2-0.6,0.3-1.1,0.5-1.9l1.1-3.9c-0.4,0-0.8-0.1-1.2-0.2
		v-0.8h3.8v0.9C487.3,387.9,486.9,387.9,486.5,388.1z"/>
</g>
<polyline fill="#FFFFFF" stroke="#999999" stroke-width="1.3" points="483.7,374.9 487.9,379.1 483.7,383.4 "/>
<line fill="none" stroke="#999999" stroke-width="1.3" x1="487.9" y1="379.1" x2="472" y2="379.1"/>
<g enable-background="new    ">
	<path fill="#999999" d="M534.4,395.8c0-0.5,0-1.3,0.1-1.8l0,0c-0.5,1.2-1.5,2-3,2c-2,0-2.6-1.2-2.6-2.7v-4.8
		c-0.4-0.1-1-0.1-1.4-0.2v-0.9c0.8-0.1,2-0.2,3-0.1v5.5c0,1.2,0.3,1.9,1.5,1.9c1.4,0,2.4-1.4,2.4-3.3v-2.9c-0.4-0.1-0.9-0.1-1.4-0.2
		v-0.9c0.8-0.1,2-0.2,2.9-0.1v7.3c0.4,0.1,1,0.1,1.4,0.2v0.9C536.5,395.8,535.3,395.8,534.4,395.8z"/>
</g>
<polyline fill="#FFFFFF" stroke="#999999" stroke-width="1.3" points="536,375.3 540.2,379.4 536,383.6 "/>
<line fill="none" stroke="#999999" stroke-width="1.3" x1="540.2" y1="379.4" x2="524.3" y2="379.4"/>
<g enable-background="new    ">
	<path fill="#999999" d="M578.3,388.4l-2.7,7.4h-1.9l-2.7-7.4c-0.4,0-0.8-0.1-1.1-0.2v-0.9h4v0.9c-0.4,0.1-0.8,0.2-1.2,0.2l1.4,4.2
		c0.2,0.6,0.4,1.1,0.5,1.7l0,0c0.2-0.6,0.3-1.1,0.5-1.6l1.5-4.2c-0.4,0-0.8-0.1-1.2-0.2v-0.9h3.9v0.9
		C579.1,388.3,578.7,388.3,578.3,388.4z"/>
</g>
<polyline fill="#FFFFFF" stroke="#999999" stroke-width="1.3" points="578.6,375.3 583,379.4 578.6,383.6 "/>
<line fill="none" stroke="#999999" stroke-width="1.3" x1="583" y1="379.4" x2="567" y2="379.4"/>
<text transform="matrix(1 0 0 1 503.6322 396.3847)" font-family="'ArialMT'" font-size="17.2125">=</text>
<text transform="matrix(1 0 0 1 551.4261 396.3847)" font-family="'ArialMT'" font-size="17.2125">-</text>
<line fill="none" stroke="#999999" stroke-width="1.3" x1="51.9" y1="386.9" x2="160.7" y2="424.1"/>
<polyline fill="none" stroke="#999999" stroke-width="1.3" points="157.3,416.4 160.3,424.1 152.5,427.1 "/>
<polyline fill="none" stroke="#999999" stroke-width="1.3" points="215.3,710 214,718.3 205.7,717 "/>
</svg>
