<?xml version="1.0" encoding="utf-8"?>
<!-- Generator: Adobe Illustrator 18.0.0, SVG Export Plug-In . SVG Version: 6.00 Build 0)  -->
<!DOCTYPE svg PUBLIC "-//W3C//DTD SVG 1.1//EN" "http://www.w3.org/Graphics/SVG/1.1/DTD/svg11.dtd">
<svg version="1.1" id="Layer_1" xmlns="http://www.w3.org/2000/svg" xmlns:xlink="http://www.w3.org/1999/xlink" x="0px" y="0px"
	 viewBox="-16.5 321 645 150" enable-background="new -16.5 321 645 150" xml:space="preserve">
<circle cx="103.9" cy="360.3" r="5.5"/>
<line fill="none" stroke="#999999" stroke-width="1.3" x1="111.3" y1="366.1" x2="220.1" y2="403.4"/>
<g enable-background="new    ">
	<path fill="#999999" d="M161.7,416.6c0-0.5,0-1.3,0.1-1.8l0,0c-0.5,1.2-1.5,2-3,2c-2,0-2.6-1.2-2.6-2.7v-4.8
		c-0.4-0.1-1-0.1-1.4-0.2v-0.9c0.8-0.1,2-0.2,3-0.1v5.5c0,1.2,0.3,1.9,1.5,1.9c1.4,0,2.4-1.4,2.4-3.3v-2.9c-0.4-0.1-0.9-0.1-1.4-0.2
		v-0.9c0.8-0.1,2-0.2,2.9-0.1v7.3c0.4,0.1,1,0.1,1.4,0.2v0.9C163.8,416.6,162.6,416.6,161.7,416.6z"/>
</g>
<line fill="none" stroke="#000000" stroke-width="1.3" stroke-dasharray="20,5" x1="115" y1="360.1" x2="231.9" y2="360.1"/>
<line fill="none" stroke="#000000" stroke-width="1.3" stroke-dasharray="20,5" x1="230" y1="365" x2="230" y2="411.3"/>
<circle cx="230" cy="407.6" r="5.5"/>
<g enable-background="new    ">
	<path d="M243.9,386v-1.3l2.5-2.2c2.2-1.8,2.7-2.6,2.7-3.7c0-1.1-0.7-1.9-2.1-1.9c-1,0-1.9,0.5-2.5,0.9l-0.3-1.4
		c0.9-0.6,1.9-0.9,3.1-0.9c2.3,0,3.5,1.3,3.5,3.1c0,1.5-0.8,2.6-2.7,4.2l-2.1,1.8h-0.1c0.8-0.1,2.7-0.1,5.2-0.1v1.5L243.9,386
		L243.9,386z"/>
</g>
<polyline fill="none" stroke="#999999" stroke-width="1.3" points="216.8,395.6 219.8,403.4 212,406.5 "/>
<polyline fill="#FFFFFF" stroke="#999999" stroke-width="1.3" points="163.2,396.1 167.4,400.3 163.2,404.6 "/>
<line fill="none" stroke="#999999" stroke-width="1.3" x1="167.4" y1="400.3" x2="151.6" y2="400.3"/>
<g enable-background="new    ">
	<path fill="#999999" d="M421.1,419.6l-2.7,7.4h-1.9l-2.7-7.4c-0.4,0-0.8-0.1-1.1-0.2v-0.9h4v0.9c-0.4,0.1-0.8,0.2-1.2,0.2l1.4,4.2
		c0.2,0.6,0.4,1.1,0.5,1.7l0,0c0.2-0.6,0.3-1.1,0.5-1.6l1.5-4.2c-0.4,0-0.8-0.1-1.2-0.2v-0.9h3.9v0.9
		C421.8,419.6,421.4,419.6,421.1,419.6z"/>
</g>
<polyline fill="#FFFFFF" stroke="#999999" stroke-width="1.3" points="421.4,406.6 425.6,410.9 421.4,415.1 "/>
<line fill="none" stroke="#999999" stroke-width="1.3" x1="425.6" y1="410.9" x2="409.8" y2="410.9"/>
<g enable-background="new    ">
	<path d="M169.6,342.6c-0.6,0-1.3-0.1-1.9-0.2l0.1-1.4c0.6,0.2,1.4,0.2,1.9,0.2c2.1,0,3.2-1.2,3.2-2.6c0-1.5-1.2-2.3-3.1-2.3
		c-0.7,0-1.3,0.1-1.8,0.1v-5.9h6.1v1.5h-4.6v3c0.3,0,0.6,0,0.8,0c2.8,0,4.3,1.5,4.3,3.3C174.7,340.9,172.6,342.6,169.6,342.6z"/>
</g>
<circle cx="400.3" cy="360.3" r="5.5"/>
<line fill="none" stroke="#999999" stroke-width="1.3" x1="407.8" y1="366.1" x2="471.5" y2="450.3"/>
<line fill="none" stroke="#000000" stroke-width="1.3" stroke-dasharray="20,5" x1="411.5" y1="360.1" x2="481.5" y2="360.1"/>
<line fill="none" stroke="#000000" stroke-width="1.3" stroke-dasharray="20,5" x1="478.6" y1="365" x2="478.6" y2="459.1"/>
<circle cx="479.6" cy="456" r="5.5"/>
<g enable-background="new    ">
	<path d="M498.6,413.1v2.9h-1.5v-2.9h-5.3l-0.1-1.3l4.8-7.6h2.2v7.5h2v1.4L498.6,413.1L498.6,413.1z M497.1,405.8L497.1,405.8
		l-3.9,6.1c1,0,3.2,0,3.9,0V405.8z"/>
</g>
<polyline fill="none" stroke="#999999" stroke-width="1.3" points="472.9,442.1 471.5,450.5 463.3,449.1 "/>
<g enable-background="new    ">
	<path d="M437.4,342.6c-0.7,0-1.5-0.1-2.2-0.3l0.3-1.4c0.6,0.2,1.3,0.3,2.1,0.3c1.8,0,3-1,3-2.3s-1-2.1-2.8-2.1
		c-0.6,0-1.1,0-1.5,0.1v-1.3h0.4c2.5,0,3.7-0.7,3.7-2.1c0-1.1-0.8-1.7-2.1-1.7c-0.9,0-1.7,0.3-2.4,0.7l-0.3-1.3
		c0.9-0.4,1.8-0.6,3-0.6c2.3,0,3.5,1.1,3.5,2.8c0,1.3-0.8,2.3-2.1,2.7l0,0c1.4,0.2,2.5,1.4,2.5,2.8
		C442.3,341,440.3,342.6,437.4,342.6z"/>
</g>
</svg>
