<?xml version="1.0" encoding="utf-8"?>
<!-- Generator: Adobe Illustrator 16.0.4, SVG Export Plug-In . SVG Version: 6.00 Build 0)  -->
<!DOCTYPE svg PUBLIC "-//W3C//DTD SVG 1.1//EN" "http://www.w3.org/Graphics/SVG/1.1/DTD/svg11.dtd">
<svg version="1.1" id="Layer_1" xmlns="http://www.w3.org/2000/svg" xmlns:xlink="http://www.w3.org/1999/xlink" x="0px" y="0px"
	 width="650px" height="100px" viewBox="-19 0 650 100" enable-background="new -19 0 650 100" xml:space="preserve">
<line fill="none" stroke="#010101" stroke-width="0.6" stroke-linecap="round" x1="27.41" y1="22.614" x2="280.014" y2="22.614"/>
<line fill="none" stroke="#CDCCCC" stroke-width="0.6" x1="27.41" y1="10.106" x2="27.41" y2="41.963"/>
<line fill="none" stroke="#CDCCCC" stroke-width="0.6" x1="27.518" y1="41.535" x2="279.907" y2="41.535"/>
<g>
	<g enable-background="new    ">
		<path d="M255.957,48.845v6.526h-0.672v-6.526h-2.214v-0.557h5.099v0.557H255.957z"/>
		<path d="M259.821,55.371v-0.536h2.024v-4.154h-1.868v-0.524h2.529v4.679h1.752v0.536H259.821z M262.769,48.488
			c0,0.356-0.283,0.65-0.65,0.65c-0.356,0-0.65-0.294-0.65-0.65s0.294-0.641,0.65-0.641
			C262.485,47.848,262.769,48.132,262.769,48.488z"/>
		<path d="M270.169,55.371v-3.452c0-0.934-0.095-1.343-0.524-1.343c-0.546,0-1.134,1.018-1.134,2.276v2.519h-0.587v-3.4
			c0-0.985-0.137-1.395-0.566-1.395c-0.536,0-1.092,1.018-1.092,2.276v2.519h-0.598v-5.215h0.566c0,0.451-0.031,0.85-0.084,1.312
			l0.011,0.011c0.199-0.84,0.66-1.406,1.343-1.406c0.692,0,0.934,0.556,0.892,1.385c0.21-0.829,0.672-1.385,1.364-1.385
			c0.724,0,1.007,0.588,1.007,1.637v3.662H270.169z"/>
		<path d="M276.709,52.632h-3.851c-0.011,0.042-0.011,0.085-0.011,0.137c0,1.532,0.787,2.13,1.951,2.13
			c0.546,0,1.302-0.157,1.679-0.346l0.063,0.576c-0.472,0.199-1.196,0.337-1.857,0.337c-1.563,0-2.518-0.851-2.518-2.687
			c0-1.553,0.976-2.718,2.392-2.718c1.428,0,2.172,1.07,2.172,2.183C276.729,52.328,276.729,52.485,276.709,52.632z M274.517,50.576
			c-0.776,0-1.479,0.556-1.605,1.542h3.115C276.026,51.164,275.366,50.576,274.517,50.576z"/>
	</g>
</g>
<g>
	<g enable-background="new    ">
		<path fill="#010101" d="M29.057,89.598c-0.815,0-1.596-0.048-2.039-0.048h-1.044v-0.648c0.312-0.071,0.684-0.131,1.044-0.155
			v-6.489c-0.36-0.023-0.732-0.083-1.044-0.155v-0.647h1.02c0.636,0,1.56-0.036,2.435-0.036c2.603,0,4.149,1.212,4.149,3.994
			C33.577,88.182,31.707,89.598,29.057,89.598z M29.332,82.318c-0.432,0-0.911,0.023-1.223,0.035v6.236
			c0.312,0.048,0.743,0.072,1.079,0.072c1.906,0,3.226-0.984,3.226-3.178C32.414,83.421,31.431,82.318,29.332,82.318z"/>
		<path fill="#010101" d="M34.482,89.55v-0.648c0.312-0.071,0.683-0.131,1.043-0.155V84.44c-0.288-0.048-0.695-0.097-1.043-0.12
			v-0.647c0.6-0.071,1.427-0.12,2.123-0.083v5.156c0.347,0.024,0.707,0.084,1.007,0.155v0.648H34.482z M36.077,82.401
			c-0.396,0-0.72-0.3-0.72-0.695s0.323-0.708,0.72-0.708c0.384,0,0.708,0.312,0.708,0.708C36.785,82.09,36.461,82.401,36.077,82.401
			z"/>
		<path fill="#010101" d="M42.279,84.548c-1.367-0.228-1.979,0.696-1.979,2.603v1.596c0.359,0.024,0.731,0.084,1.043,0.155v0.648
			h-3.166v-0.648c0.312-0.071,0.684-0.131,1.043-0.155V84.44c-0.288-0.048-0.695-0.097-1.043-0.12v-0.647
			c0.6-0.071,1.427-0.12,2.087-0.083c0,0.371-0.036,0.923-0.12,1.414h0.012c0.264-0.827,0.864-1.654,2.171-1.523L42.279,84.548z"/>
		<path fill="#010101" d="M48.039,86.551h-3.897c-0.048,1.56,0.588,2.231,1.883,2.231c0.575,0,1.175-0.12,1.703-0.349l0.155,0.853
			c-0.599,0.24-1.319,0.371-2.062,0.371c-1.811,0-2.795-0.96-2.795-3.059c0-1.774,0.996-3.118,2.687-3.118
			c1.667,0,2.363,1.115,2.363,2.447C48.075,86.071,48.063,86.312,48.039,86.551z M45.641,84.296c-0.779,0-1.332,0.577-1.464,1.487
			h2.795C46.995,84.873,46.479,84.296,45.641,84.296z"/>
		<path fill="#010101" d="M51.82,89.646c-1.476,0-2.699-0.683-2.699-2.878c0-1.92,0.972-3.274,2.963-3.274
			c0.504,0,1.043,0.083,1.463,0.216v1.739h-0.672c-0.071-0.349-0.12-0.685-0.155-0.972c-0.204-0.06-0.48-0.096-0.804-0.096
			c-1.067,0-1.667,0.899-1.667,2.206c0,1.212,0.396,2.124,1.799,2.124c0.516,0,1.02-0.109,1.427-0.289l0.18,0.9
			C53.199,89.49,52.54,89.646,51.82,89.646z"/>
		<path fill="#010101" d="M56.836,89.646c-1.223,0-1.595-0.504-1.595-1.787v-3.43h-1.224V83.59h1.224v-1.932l1.079-0.3v2.231h1.667
			v0.839H56.32v3.046c0,0.984,0.192,1.248,0.852,1.248c0.275,0,0.54-0.037,0.756-0.097l0.107,0.888
			C57.688,89.598,57.22,89.646,56.836,89.646z"/>
		<path fill="#010101" d="M65.283,89.657c-2.446,0-3.705-1.511-3.705-3.957c0-2.483,1.295-4.342,3.945-4.342
			c0.66,0,1.319,0.096,1.931,0.24v1.978h-0.779c-0.084-0.407-0.12-0.754-0.156-1.091c-0.42-0.107-0.804-0.155-1.188-0.155
			c-1.727,0-2.566,1.391-2.566,3.189c0,1.932,0.876,3.154,2.759,3.154c0.66,0,1.379-0.167,1.883-0.407l0.192,0.923
			C66.938,89.453,66.111,89.657,65.283,89.657z"/>
		<path fill="#010101" d="M73.166,89.55c0-0.36,0.024-0.888,0.085-1.26h-0.024c-0.348,0.815-1.08,1.367-2.099,1.367
			c-1.367,0-1.787-0.852-1.787-1.906V84.44c-0.288-0.048-0.684-0.097-1.008-0.12v-0.647c0.563-0.071,1.379-0.12,2.075-0.083v3.838
			c0,0.839,0.24,1.343,1.02,1.343c0.983,0,1.703-1.008,1.703-2.327v-2.015c-0.276-0.036-0.647-0.085-0.972-0.108v-0.647
			c0.588-0.071,1.379-0.12,2.039-0.083v5.107c0.288,0.049,0.684,0.097,1.007,0.121v0.646C74.642,89.538,73.814,89.586,73.166,89.55z
			"/>
		<path fill="#010101" d="M79.875,84.548c-1.368-0.228-1.979,0.696-1.979,2.603v1.596c0.359,0.024,0.73,0.084,1.043,0.155v0.648
			h-3.166v-0.648c0.312-0.071,0.683-0.131,1.043-0.155V84.44c-0.288-0.048-0.695-0.097-1.043-0.12v-0.647
			c0.6-0.071,1.427-0.12,2.086-0.083c0,0.371-0.035,0.923-0.12,1.414h0.013c0.264-0.827,0.863-1.654,2.171-1.523L79.875,84.548z"/>
		<path fill="#010101" d="M84.579,84.548C83.211,84.32,82.6,85.244,82.6,87.15v1.596c0.36,0.024,0.731,0.084,1.043,0.155v0.648
			h-3.165v-0.648c0.312-0.071,0.683-0.131,1.043-0.155V84.44c-0.288-0.048-0.696-0.097-1.043-0.12v-0.647
			c0.599-0.071,1.427-0.12,2.086-0.083c0,0.371-0.035,0.923-0.12,1.414h0.013c0.264-0.827,0.863-1.654,2.171-1.523L84.579,84.548z"
			/>
		<path fill="#010101" d="M90.339,86.551H86.44c-0.048,1.56,0.588,2.231,1.883,2.231c0.576,0,1.176-0.12,1.703-0.349l0.156,0.853
			c-0.6,0.24-1.319,0.371-2.063,0.371c-1.811,0-2.794-0.96-2.794-3.059c0-1.774,0.995-3.118,2.687-3.118
			c1.667,0,2.363,1.115,2.363,2.447C90.375,86.071,90.362,86.312,90.339,86.551z M87.939,84.296c-0.779,0-1.331,0.577-1.463,1.487
			h2.794C89.295,84.873,88.779,84.296,87.939,84.296z"/>
		<path fill="#010101" d="M96.11,89.55v-3.838c0-0.839-0.228-1.343-1.008-1.343c-0.983,0-1.702,1.006-1.702,2.326v2.051
			c0.323,0.024,0.671,0.072,0.959,0.155v0.648h-3.082v-0.648c0.312-0.071,0.683-0.131,1.043-0.155V84.44
			c-0.288-0.048-0.695-0.097-1.043-0.12v-0.647c0.6-0.071,1.427-0.12,2.086-0.083c0,0.347-0.023,0.898-0.083,1.258h0.012
			c0.348-0.815,1.091-1.367,2.11-1.367c1.355,0,1.787,0.852,1.787,1.908v3.357c0.348,0.024,0.708,0.084,0.996,0.155v0.648H96.11z"/>
		<path fill="#010101" d="M101.14,89.646c-1.224,0-1.596-0.504-1.596-1.787v-3.43H98.32V83.59h1.224v-1.932l1.079-0.3v2.231h1.668
			v0.839h-1.668v3.046c0,0.984,0.192,1.248,0.853,1.248c0.275,0,0.539-0.037,0.755-0.097l0.108,0.888
			C101.991,89.598,101.523,89.646,101.14,89.646z"/>
		<path fill="#010101" d="M107.943,92.057c-1.415-2.243-1.751-4.15-1.751-5.914c0-1.75,0.408-3.812,1.764-5.96l0.779,0.372
			c-0.972,1.667-1.487,3.574-1.487,5.528c0,2.051,0.491,3.886,1.499,5.577L107.943,92.057z"/>
		<path fill="#010101" d="M112.407,89.598c-0.815,0-1.596-0.048-2.039-0.048h-1.044v-0.648c0.312-0.071,0.685-0.131,1.044-0.155
			v-6.489c-0.359-0.023-0.731-0.083-1.044-0.155v-0.647h1.02c0.636,0,1.56-0.036,2.435-0.036c2.604,0,4.15,1.212,4.15,3.994
			C116.929,88.182,115.058,89.598,112.407,89.598z M112.683,82.318c-0.432,0-0.911,0.023-1.223,0.035v6.236
			c0.312,0.048,0.743,0.072,1.079,0.072c1.906,0,3.227-0.984,3.227-3.178C115.766,83.421,114.781,82.318,112.683,82.318z"/>
		<path fill="#010101" d="M121.719,89.657c-2.446,0-3.706-1.511-3.706-3.957c0-2.483,1.295-4.342,3.946-4.342
			c0.659,0,1.318,0.096,1.931,0.24v1.978h-0.779c-0.084-0.407-0.12-0.754-0.156-1.091c-0.42-0.107-0.804-0.155-1.188-0.155
			c-1.727,0-2.566,1.391-2.566,3.189c0,1.932,0.875,3.154,2.759,3.154c0.659,0,1.379-0.167,1.882-0.407l0.192,0.923
			C123.374,89.453,122.546,89.657,121.719,89.657z"/>
		<path fill="#010101" d="M125.645,92.057l-0.78-0.385c0.983-1.666,1.487-3.573,1.487-5.516c0-2.051-0.492-3.887-1.499-5.59
			l0.815-0.384c1.403,2.231,1.739,4.138,1.739,5.9C127.407,87.834,127.011,89.897,125.645,92.057z"/>
	</g>
</g>
<line fill="none" stroke="#CDCCCC" stroke-width="0.6" x1="27.41" y1="10.106" x2="27.41" y2="41.963"/>
<line fill="none" stroke="#CDCCCC" stroke-width="0.6" x1="27.41" y1="41.001" x2="27.41" y2="72.856"/>
<line fill="none" stroke="#CDCCCC" stroke-width="0.6" x1="356.981" y1="10.106" x2="356.981" y2="41.963"/>
<line fill="none" stroke="#CDCCCC" stroke-width="0.6" x1="356.981" y1="41.535" x2="609.479" y2="41.535"/>
<g>
	<path fill="none" stroke="#010101" stroke-width="0.6" d="M577.943,10.106c2.352,0,13.148-0.748,31.748,31.643"/>
</g>
<g>
	<g enable-background="new    ">
		<path d="M585.562,48.651v6.72h-0.691v-6.72h-2.28v-0.572h5.251v0.572H585.562z"/>
		<path d="M589.537,55.371V54.82h2.084v-4.279h-1.923v-0.539h2.604v4.818h1.803v0.551H589.537z M592.572,48.284
			c0,0.367-0.292,0.669-0.67,0.669c-0.367,0-0.67-0.302-0.67-0.669c0-0.368,0.303-0.659,0.67-0.659
			C592.28,47.625,592.572,47.916,592.572,48.284z"/>
		<path d="M600.186,55.371v-3.555c0-0.962-0.098-1.383-0.54-1.383c-0.562,0-1.166,1.048-1.166,2.345v2.593h-0.606V51.87
			c0-1.016-0.139-1.437-0.582-1.437c-0.551,0-1.124,1.048-1.124,2.345v2.593h-0.616v-5.369h0.584c0,0.464-0.032,0.875-0.086,1.35
			l0.011,0.012c0.205-0.864,0.681-1.448,1.383-1.448c0.712,0,0.961,0.572,0.917,1.426c0.217-0.854,0.691-1.426,1.405-1.426
			c0.745,0,1.037,0.605,1.037,1.686v3.771H600.186z"/>
		<path d="M606.914,52.551h-3.964c-0.011,0.044-0.011,0.087-0.011,0.141c0,1.578,0.81,2.193,2.01,2.193
			c0.562,0,1.34-0.162,1.729-0.356l0.064,0.594c-0.486,0.205-1.231,0.346-1.912,0.346c-1.609,0-2.593-0.875-2.593-2.766
			c0-1.599,1.005-2.798,2.464-2.798c1.468,0,2.235,1.102,2.235,2.247C606.937,52.237,606.937,52.4,606.914,52.551z M604.657,50.434
			c-0.8,0-1.523,0.572-1.653,1.588h3.209C606.213,51.039,605.531,50.434,604.657,50.434z"/>
	</g>
</g>
<g>
	<g enable-background="new    ">
		<path d="M339.986,54.98v0.799l-7.293,2.594v-0.801l5.003-1.706c0.442-0.151,1.025-0.356,1.577-0.519v-0.011
			c-0.529-0.141-1.08-0.346-1.631-0.54l-4.949-1.761v-0.735L339.986,54.98z"/>
		<path d="M340.083,48.965c0,1.438-0.886,2.452-2.766,2.452c-1.501,0-2.798-1.005-2.798-2.646c0-1.264,0.703-2.452,2.701-2.452
			C338.787,46.318,340.083,47.366,340.083,48.965z M335.082,48.856c0,0.93,0.68,1.848,2.182,1.848c1.426,0,2.246-0.713,2.246-1.857
			c0-0.93-0.68-1.826-2.257-1.826C335.902,47.021,335.082,47.69,335.082,48.856z"/>
		<path d="M332.64,42.625v2.032h-0.54v-2.712h7.336v-2.031h0.551v4.743h-0.551v-2.032H332.64z"/>
		<path d="M340.072,35.119c0,1.037-0.529,1.783-1.794,1.783h-3.111v1.804h-0.551v-1.804h-1.813l-0.185-0.682h1.998v-2.474h0.551
			v2.474h2.875c1.058,0,1.437-0.539,1.437-1.285c0-0.367-0.043-0.843-0.141-1.177l0.572-0.076
			C340.019,34.104,340.072,34.698,340.072,35.119z"/>
		<path d="M340.083,29.698c0,0.724-0.087,1.394-0.281,1.891l-0.681-0.141c0.25-0.497,0.4-1.123,0.4-1.869
			c0-0.734-0.303-1.501-0.951-1.501c-1.49,0-0.562,3.381-2.538,3.381c-0.843,0-1.523-0.734-1.523-2.149
			c0-0.562,0.087-1.156,0.194-1.588l0.584,0.107c-0.174,0.519-0.249,1.026-0.249,1.556c0,0.918,0.399,1.361,0.896,1.361
			c1.416,0,0.54-3.392,2.538-3.392C339.576,27.354,340.083,28.521,340.083,29.698z"/>
	</g>
</g>
<g>
	<g enable-background="new    ">
		<path fill="#010101" d="M360.454,89.55v-0.648c0.287-0.06,0.623-0.119,0.935-0.143l-0.467-1.331h-3.383l-0.467,1.331
			c0.312,0.023,0.659,0.083,0.946,0.143v0.648h-2.807v-0.648c0.217-0.06,0.516-0.119,0.732-0.131l2.663-7.316h1.343l2.674,7.316
			c0.216,0.012,0.516,0.071,0.732,0.131v0.648H360.454z M359.613,83.685c-0.143-0.42-0.264-0.779-0.371-1.176h-0.023
			c-0.096,0.385-0.217,0.756-0.348,1.164l-1.045,2.878h2.82L359.613,83.685z"/>
		<path fill="#010101" d="M363.648,89.55v-0.648c0.3-0.071,0.66-0.131,1.008-0.155v-7.1c-0.288-0.048-0.684-0.096-1.031-0.121
			v-0.646c0.611-0.072,1.414-0.121,2.11-0.084v7.951c0.349,0.024,0.708,0.084,1.008,0.155v0.648H363.648z"/>
		<path fill="#010101" d="M369.6,89.646c-1.224,0-1.596-0.504-1.596-1.787v-3.43h-1.223V83.59h1.223v-1.932l1.08-0.3v2.231h1.666
			v0.839h-1.666v3.046c0,0.984,0.19,1.248,0.851,1.248c0.276,0,0.54-0.037,0.756-0.097l0.107,0.888
			C370.45,89.598,369.982,89.646,369.6,89.646z"/>
		<path fill="#010101" d="M376.702,86.551h-3.899c-0.048,1.56,0.589,2.231,1.884,2.231c0.575,0,1.175-0.12,1.702-0.349l0.157,0.853
			c-0.6,0.24-1.319,0.371-2.063,0.371c-1.811,0-2.794-0.96-2.794-3.059c0-1.774,0.995-3.118,2.687-3.118
			c1.667,0,2.362,1.115,2.362,2.447C376.737,86.071,376.726,86.312,376.702,86.551z M374.303,84.296
			c-0.78,0-1.331,0.577-1.463,1.487h2.795C375.658,84.873,375.143,84.296,374.303,84.296z"/>
		<path fill="#010101" d="M381.742,84.548c-1.367-0.228-1.979,0.696-1.979,2.603v1.596c0.36,0.024,0.732,0.084,1.044,0.155v0.648
			h-3.166v-0.648c0.312-0.071,0.684-0.131,1.043-0.155V84.44c-0.287-0.048-0.695-0.097-1.043-0.12v-0.647
			c0.6-0.071,1.428-0.12,2.087-0.083c0,0.371-0.036,0.923-0.12,1.414h0.012c0.265-0.827,0.863-1.654,2.171-1.523L381.742,84.548z"/>
		<path fill="#010101" d="M387.178,89.55v-3.838c0-0.839-0.228-1.343-1.007-1.343c-0.984,0-1.704,1.006-1.704,2.326v2.051
			c0.324,0.024,0.672,0.072,0.96,0.155v0.648h-3.082v-0.648c0.312-0.071,0.683-0.131,1.043-0.155V84.44
			c-0.287-0.048-0.695-0.097-1.043-0.12v-0.647c0.6-0.071,1.427-0.12,2.087-0.083c0,0.347-0.024,0.898-0.084,1.258h0.012
			c0.348-0.815,1.091-1.367,2.11-1.367c1.355,0,1.787,0.852,1.787,1.908v3.357c0.348,0.024,0.708,0.084,0.996,0.155v0.648H387.178z"
			/>
		<path fill="#010101" d="M393.562,89.55c0-0.42,0.013-0.853,0.073-1.188h-0.025c-0.287,0.731-1.043,1.295-2.025,1.295
			c-0.984,0-1.656-0.611-1.656-1.571c0-1.283,1.331-2.038,3.574-2.038v-0.444c0-0.84-0.3-1.308-1.247-1.308
			c-0.359,0-0.779,0.062-1.115,0.169c-0.023,0.299-0.085,0.635-0.145,0.972h-0.671v-1.632c0.6-0.191,1.319-0.336,2.027-0.336
			c1.75,0,2.241,0.804,2.241,1.991v3.237c0.288,0.049,0.685,0.097,1.008,0.121v0.646C395.037,89.538,394.21,89.586,393.562,89.55z
			 M393.502,86.791c-1.87,0-2.519,0.468-2.519,1.127c0,0.516,0.36,0.888,0.912,0.888c0.958,0,1.606-0.947,1.606-1.882V86.791z"/>
		<path fill="#010101" d="M398.519,89.646c-1.224,0-1.595-0.504-1.595-1.787v-3.43H395.7V83.59h1.224v-1.932l1.079-0.3v2.231h1.667
			v0.839h-1.667v3.046c0,0.984,0.191,1.248,0.851,1.248c0.277,0,0.541-0.037,0.756-0.097l0.108,0.888
			C399.369,89.598,398.902,89.646,398.519,89.646z"/>
		<path fill="#010101" d="M400.464,89.55v-0.648c0.312-0.071,0.684-0.131,1.043-0.155V84.44c-0.287-0.048-0.694-0.097-1.043-0.12
			v-0.647c0.601-0.071,1.428-0.12,2.122-0.083v5.156c0.349,0.024,0.708,0.084,1.008,0.155v0.648H400.464z M402.059,82.401
			c-0.396,0-0.719-0.3-0.719-0.695s0.323-0.708,0.719-0.708c0.384,0,0.708,0.312,0.708,0.708
			C402.767,82.09,402.442,82.401,402.059,82.401z"/>
		<path fill="#010101" d="M408.993,89.55v-3.838c0-0.839-0.228-1.343-1.007-1.343c-0.984,0-1.704,1.006-1.704,2.326v2.051
			c0.325,0.024,0.672,0.072,0.96,0.155v0.648h-3.082v-0.648c0.312-0.071,0.684-0.131,1.043-0.155V84.44
			c-0.287-0.048-0.695-0.097-1.043-0.12v-0.647c0.6-0.071,1.428-0.12,2.087-0.083c0,0.347-0.024,0.898-0.084,1.258h0.012
			c0.348-0.815,1.091-1.367,2.11-1.367c1.355,0,1.787,0.852,1.787,1.908v3.357c0.348,0.024,0.708,0.084,0.996,0.155v0.648H408.993z"
			/>
		<path fill="#010101" d="M414.273,92.62c-1.535,0-2.507-0.636-2.507-1.787c0-0.696,0.456-1.283,0.996-1.583
			c-0.359-0.156-0.588-0.491-0.588-0.888c0-0.419,0.264-0.815,0.659-1.008c-0.539-0.323-0.875-0.863-0.875-1.643
			c0-1.199,0.9-2.231,2.531-2.231c0.323,0,0.539,0.036,0.839,0.109h2.027v0.851h-0.984c0.3,0.24,0.48,0.636,0.48,1.104
			c0,1.224-0.827,2.159-2.519,2.159c-0.24,0-0.42-0.025-0.636-0.085c-0.252,0.121-0.384,0.312-0.384,0.504
			c0,0.337,0.299,0.444,1.02,0.468l1.092,0.036c1.283,0.048,2.002,0.648,2.002,1.728C417.428,91.612,416.145,92.62,414.273,92.62z
			 M415.113,89.526l-1.151-0.048c-0.108,0-0.252,0-0.349-0.014c-0.467,0.325-0.768,0.72-0.768,1.176
			c0,0.708,0.673,1.127,1.608,1.127c1.212,0,1.883-0.551,1.883-1.283C416.337,89.909,415.953,89.55,415.113,89.526z M414.442,84.284
			c-0.9,0-1.416,0.575-1.416,1.331c0,0.828,0.492,1.309,1.38,1.309c0.852,0,1.379-0.48,1.379-1.309
			C415.785,84.8,415.306,84.284,414.442,84.284z"/>
		<path fill="#010101" d="M424.629,89.657c-2.446,0-3.706-1.511-3.706-3.957c0-2.483,1.296-4.342,3.945-4.342
			c0.66,0,1.319,0.096,1.932,0.24v1.978h-0.779c-0.085-0.407-0.12-0.754-0.156-1.091c-0.419-0.107-0.804-0.155-1.187-0.155
			c-1.728,0-2.566,1.391-2.566,3.189c0,1.932,0.875,3.154,2.757,3.154c0.66,0,1.38-0.167,1.884-0.407l0.191,0.923
			C426.284,89.453,425.457,89.657,424.629,89.657z"/>
		<path fill="#010101" d="M432.513,89.55c0-0.36,0.023-0.888,0.083-1.26h-0.023c-0.348,0.815-1.079,1.367-2.099,1.367
			c-1.368,0-1.787-0.852-1.787-1.906V84.44c-0.288-0.048-0.684-0.097-1.008-0.12v-0.647c0.563-0.071,1.379-0.12,2.075-0.083v3.838
			c0,0.839,0.239,1.343,1.02,1.343c0.983,0,1.703-1.008,1.703-2.327v-2.015c-0.275-0.036-0.648-0.085-0.972-0.108v-0.647
			c0.587-0.071,1.379-0.12,2.039-0.083v5.107c0.287,0.049,0.683,0.097,1.008,0.121v0.646
			C433.986,89.538,433.159,89.586,432.513,89.55z"/>
		<path fill="#010101" d="M439.222,84.548c-1.368-0.228-1.979,0.696-1.979,2.603v1.596c0.359,0.024,0.732,0.084,1.044,0.155v0.648
			h-3.166v-0.648c0.312-0.071,0.683-0.131,1.043-0.155V84.44c-0.287-0.048-0.695-0.097-1.043-0.12v-0.647
			c0.6-0.071,1.427-0.12,2.087-0.083c0,0.371-0.036,0.923-0.121,1.414h0.012c0.266-0.827,0.864-1.654,2.172-1.523L439.222,84.548z"
			/>
		<path fill="#010101" d="M443.926,84.548c-1.368-0.228-1.979,0.696-1.979,2.603v1.596c0.359,0.024,0.732,0.084,1.044,0.155v0.648
			h-3.166v-0.648c0.312-0.071,0.683-0.131,1.043-0.155V84.44c-0.287-0.048-0.695-0.097-1.043-0.12v-0.647
			c0.6-0.071,1.427-0.12,2.087-0.083c0,0.371-0.036,0.923-0.121,1.414h0.012c0.265-0.827,0.864-1.654,2.172-1.523L443.926,84.548z"
			/>
		<path fill="#010101" d="M449.686,86.551h-3.899c-0.048,1.56,0.589,2.231,1.884,2.231c0.575,0,1.175-0.12,1.702-0.349l0.157,0.853
			c-0.6,0.24-1.319,0.371-2.063,0.371c-1.811,0-2.794-0.96-2.794-3.059c0-1.774,0.995-3.118,2.686-3.118
			c1.668,0,2.363,1.115,2.363,2.447C449.721,86.071,449.709,86.312,449.686,86.551z M447.286,84.296
			c-0.78,0-1.331,0.577-1.464,1.487h2.795C448.641,84.873,448.125,84.296,447.286,84.296z"/>
		<path fill="#010101" d="M455.457,89.55v-3.838c0-0.839-0.228-1.343-1.007-1.343c-0.984,0-1.704,1.006-1.704,2.326v2.051
			c0.324,0.024,0.672,0.072,0.96,0.155v0.648h-3.082v-0.648c0.312-0.071,0.683-0.131,1.043-0.155V84.44
			c-0.287-0.048-0.695-0.097-1.043-0.12v-0.647c0.6-0.071,1.427-0.12,2.087-0.083c0,0.347-0.024,0.898-0.084,1.258h0.012
			c0.348-0.815,1.092-1.367,2.11-1.367c1.355,0,1.787,0.852,1.787,1.908v3.357c0.348,0.024,0.708,0.084,0.996,0.155v0.648H455.457z"
			/>
		<path fill="#010101" d="M460.486,89.646c-1.224,0-1.595-0.504-1.595-1.787v-3.43h-1.224V83.59h1.224v-1.932l1.079-0.3v2.231h1.666
			v0.839h-1.666v3.046c0,0.984,0.191,1.248,0.851,1.248c0.276,0,0.54-0.037,0.756-0.097l0.108,0.888
			C461.337,89.598,460.869,89.646,460.486,89.646z"/>
		<path fill="#010101" d="M467.29,92.057c-1.415-2.243-1.752-4.15-1.752-5.914c0-1.75,0.408-3.812,1.764-5.96l0.779,0.372
			c-0.972,1.667-1.487,3.574-1.487,5.528c0,2.051,0.492,3.886,1.499,5.577L467.29,92.057z"/>
		<path fill="#010101" d="M473.647,89.55v-0.648c0.287-0.06,0.624-0.119,0.936-0.143l-0.468-1.331h-3.382l-0.468,1.331
			c0.312,0.023,0.66,0.083,0.947,0.143v0.648h-2.807v-0.648c0.217-0.06,0.516-0.119,0.732-0.131l2.662-7.316h1.343l2.675,7.316
			c0.215,0.012,0.516,0.071,0.732,0.131v0.648H473.647z M472.808,83.685c-0.144-0.42-0.264-0.779-0.372-1.176h-0.023
			c-0.096,0.385-0.217,0.756-0.348,1.164l-1.044,2.878h2.819L472.808,83.685z"/>
		<path fill="#010101" d="M480.705,89.657c-2.447,0-3.707-1.511-3.707-3.957c0-2.483,1.296-4.342,3.945-4.342
			c0.66,0,1.32,0.096,1.932,0.24v1.978h-0.779c-0.084-0.407-0.119-0.754-0.156-1.091c-0.419-0.107-0.804-0.155-1.187-0.155
			c-1.728,0-2.566,1.391-2.566,3.189c0,1.932,0.875,3.154,2.757,3.154c0.66,0,1.38-0.167,1.884-0.407l0.192,0.923
			C482.359,89.453,481.532,89.657,480.705,89.657z"/>
		<path fill="#010101" d="M484.629,92.057l-0.779-0.385c0.983-1.666,1.487-3.573,1.487-5.516c0-2.051-0.491-3.887-1.499-5.59
			l0.816-0.384c1.402,2.231,1.738,4.138,1.738,5.9C486.393,87.834,485.997,89.897,484.629,92.057z"/>
	</g>
</g>
<line fill="none" stroke="#CDCCCC" stroke-width="0.6" x1="356.981" y1="10.106" x2="356.981" y2="41.963"/>
<line fill="none" stroke="#CDCCCC" stroke-width="0.6" x1="356.981" y1="41.535" x2="356.981" y2="73.391"/>
<g>
	<path fill="none" stroke="#010101" stroke-width="0.6" stroke-linecap="round" d="M356.981,41.749
		c18.174,31.535,27.901,31.535,31.429,31.535"/>
	<path fill="none" stroke="#010101" stroke-width="0.6" stroke-linecap="round" d="M388.304,73.178
		c2.352,0,13.148,0.747,31.748-31.643C438.226,10,447.953,10,451.48,10"/>
	<path fill="none" stroke="#010101" stroke-width="0.6" stroke-linecap="round" d="M577.837,10.106
		c-2.353,0-13.149-0.748-31.75,31.643c-18.173,31.535-27.901,31.535-31.429,31.535"/>
	<path fill="none" stroke="#010101" stroke-width="0.6" stroke-linecap="round" d="M514.658,73.178
		c-2.352,0-13.148,0.747-31.749-31.643C464.736,10,455.009,10.106,451.48,10.106"/>
</g>
<g>
	<g enable-background="new    ">
		<path d="M349.287,45.185c-1.312,0-2.538-0.787-2.538-3.222c0-2.119,1.227-3.263,2.675-3.263c1.301,0,2.539,0.776,2.539,3.2
			C351.963,44.04,350.735,45.185,349.287,45.185z M349.351,39.246c-0.977,0-1.89,0.86-1.89,2.644c0,1.847,0.725,2.738,1.9,2.738
			c0.986,0,1.889-0.85,1.889-2.633C351.25,40.158,350.525,39.246,349.351,39.246z"/>
	</g>
</g>
<g>
	<g enable-background="new    ">
		<path d="M10.195,54.98v0.799l-7.292,2.594v-0.801l5.001-1.706c0.443-0.151,1.027-0.356,1.578-0.519v-0.011
			c-0.529-0.141-1.081-0.346-1.632-0.54l-4.947-1.761v-0.735L10.195,54.98z"/>
		<path d="M10.292,48.965c0,1.438-0.886,2.452-2.766,2.452c-1.501,0-2.798-1.005-2.798-2.646c0-1.264,0.702-2.452,2.701-2.452
			C8.996,46.318,10.292,47.366,10.292,48.965z M5.29,48.856c0,0.93,0.681,1.848,2.183,1.848c1.426,0,2.247-0.713,2.247-1.857
			c0-0.93-0.681-1.826-2.258-1.826C6.111,47.021,5.29,47.69,5.29,48.856z"/>
		<path d="M2.85,42.625v2.032H2.309v-2.712h7.336v-2.031h0.551v4.743H9.645v-2.032H2.85z"/>
		<path d="M10.281,35.119c0,1.037-0.529,1.783-1.793,1.783H5.377v1.804H4.826v-1.804H3.011l-0.184-0.682h1.999v-2.474h0.551v2.474
			H8.25c1.06,0,1.438-0.539,1.438-1.285c0-0.367-0.043-0.843-0.141-1.177l0.572-0.076C10.228,34.104,10.281,34.698,10.281,35.119z"
			/>
		<path d="M10.292,29.698c0,0.724-0.086,1.394-0.28,1.891l-0.681-0.141c0.248-0.497,0.399-1.123,0.399-1.869
			c0-0.734-0.303-1.501-0.95-1.501c-1.491,0-0.562,3.381-2.539,3.381c-0.843,0-1.523-0.734-1.523-2.149
			c0-0.562,0.087-1.156,0.194-1.588l0.584,0.107c-0.173,0.519-0.249,1.026-0.249,1.556c0,0.918,0.4,1.361,0.896,1.361
			c1.415,0,0.541-3.392,2.539-3.392C9.784,27.354,10.292,28.521,10.292,29.698z"/>
	</g>
</g>
<g>
	<g enable-background="new    ">
		<path d="M19.494,45.185c-1.312,0-2.539-0.787-2.539-3.222c0-2.119,1.228-3.263,2.676-3.263c1.301,0,2.539,0.776,2.539,3.2
			C22.17,44.04,20.942,45.185,19.494,45.185z M19.558,39.246c-0.976,0-1.889,0.86-1.889,2.644c0,1.847,0.724,2.738,1.898,2.738
			c0.986,0,1.889-0.85,1.889-2.633C21.456,40.158,20.732,39.246,19.558,39.246z"/>
	</g>
</g>
</svg>
