<?xml version="1.0" encoding="utf-8"?>
<!-- Generator: Adobe Illustrator 16.0.4, SVG Export Plug-In . SVG Version: 6.00 Build 0)  -->
<!DOCTYPE svg PUBLIC "-//W3C//DTD SVG 1.1//EN" "http://www.w3.org/Graphics/SVG/1.1/DTD/svg11.dtd">
<svg version="1.1" id="Layer_1" xmlns="http://www.w3.org/2000/svg" xmlns:xlink="http://www.w3.org/1999/xlink" x="0px" y="0px"
	 width="650px" height="310px" viewBox="-19 0 650 310" enable-background="new -19 0 650 310" xml:space="preserve">
<g>
	<g>
		<g>
			<rect x="366.832" y="85.369" fill="none" stroke="#CDCCCC" stroke-width="0.66" width="3.057" height="3.058"/>
			<rect x="366.832" y="93.482" fill="none" stroke="#CDCCCC" stroke-width="0.66" width="3.057" height="3.058"/>
			<rect x="366.832" y="101.596" fill="none" stroke="#CDCCCC" stroke-width="0.66" width="3.057" height="3.057"/>
			<rect x="366.832" y="109.474" fill="none" stroke="#CDCCCC" stroke-width="0.66" width="3.057" height="3.058"/>
			<rect x="366.832" y="117.47" fill="none" stroke="#CDCCCC" stroke-width="0.66" width="3.057" height="3.058"/>
		</g>
		<g>
			<rect x="374.945" y="85.369" fill="none" stroke="#CDCCCC" stroke-width="0.66" width="3.058" height="3.058"/>
			<rect x="374.945" y="93.482" fill="none" stroke="#CDCCCC" stroke-width="0.66" width="3.058" height="3.058"/>
			<rect x="374.945" y="101.596" fill="none" stroke="#CDCCCC" stroke-width="0.66" width="3.058" height="3.057"/>
			<rect x="374.945" y="109.474" fill="none" stroke="#CDCCCC" stroke-width="0.66" width="3.058" height="3.058"/>
			<rect x="374.945" y="117.47" fill="none" stroke="#CDCCCC" stroke-width="0.66" width="3.058" height="3.058"/>
		</g>
		<g>
			<rect x="383.059" y="85.369" fill="none" stroke="#CDCCCC" stroke-width="0.66" width="3.058" height="3.058"/>
			<rect x="383.059" y="93.482" fill="none" stroke="#CDCCCC" stroke-width="0.66" width="3.058" height="3.058"/>
			<rect x="383.059" y="101.596" fill="none" stroke="#CDCCCC" stroke-width="0.66" width="3.058" height="3.057"/>
			<rect x="383.059" y="109.474" fill="none" stroke="#CDCCCC" stroke-width="0.66" width="3.058" height="3.058"/>
			<rect x="383.059" y="117.47" fill="none" stroke="#CDCCCC" stroke-width="0.66" width="3.058" height="3.058"/>
		</g>
		<g>
			<rect x="391.407" y="85.369" fill="none" stroke="#CDCCCC" stroke-width="0.66" width="3.058" height="3.058"/>
			<rect x="391.407" y="93.482" fill="none" stroke="#CDCCCC" stroke-width="0.66" width="3.058" height="3.058"/>
			<rect x="391.407" y="101.596" fill="none" stroke="#CDCCCC" stroke-width="0.66" width="3.058" height="3.057"/>
			<rect x="391.407" y="109.474" fill="none" stroke="#CDCCCC" stroke-width="0.66" width="3.058" height="3.058"/>
			<rect x="391.407" y="117.47" fill="none" stroke="#CDCCCC" stroke-width="0.66" width="3.058" height="3.058"/>
		</g>
		<g>
			<rect x="399.522" y="85.369" fill="none" stroke="#CDCCCC" stroke-width="0.66" width="3.056" height="3.058"/>
			<rect x="399.522" y="93.482" fill="none" stroke="#CDCCCC" stroke-width="0.66" width="3.056" height="3.058"/>
			<rect x="399.522" y="101.596" fill="none" stroke="#CDCCCC" stroke-width="0.66" width="3.056" height="3.057"/>
			<rect x="399.522" y="109.474" fill="none" stroke="#CDCCCC" stroke-width="0.66" width="3.056" height="3.058"/>
			<rect x="399.522" y="117.47" fill="none" stroke="#CDCCCC" stroke-width="0.66" width="3.056" height="3.058"/>
		</g>
		<g>
			<rect x="407.636" y="85.369" fill="none" stroke="#CDCCCC" stroke-width="0.66" width="3.058" height="3.058"/>
			<rect x="407.636" y="93.482" fill="none" stroke="#CDCCCC" stroke-width="0.66" width="3.058" height="3.058"/>
			<rect x="407.636" y="101.596" fill="none" stroke="#CDCCCC" stroke-width="0.66" width="3.058" height="3.057"/>
			<rect x="407.636" y="109.474" fill="none" stroke="#CDCCCC" stroke-width="0.66" width="3.058" height="3.058"/>
			<rect x="407.636" y="117.47" fill="none" stroke="#CDCCCC" stroke-width="0.66" width="3.058" height="3.058"/>
		</g>
		<g>
			<rect x="415.749" y="85.369" fill="none" stroke="#CDCCCC" stroke-width="0.66" width="3.058" height="3.058"/>
			<rect x="415.749" y="93.482" fill="none" stroke="#CDCCCC" stroke-width="0.66" width="3.058" height="3.058"/>
			<rect x="415.749" y="101.596" fill="none" stroke="#CDCCCC" stroke-width="0.66" width="3.058" height="3.057"/>
			<rect x="415.749" y="109.474" fill="none" stroke="#CDCCCC" stroke-width="0.66" width="3.058" height="3.058"/>
			<rect x="415.749" y="117.47" fill="none" stroke="#CDCCCC" stroke-width="0.66" width="3.058" height="3.058"/>
		</g>
		<g>
			<rect x="423.862" y="85.369" fill="none" stroke="#CDCCCC" stroke-width="0.66" width="3.058" height="3.058"/>
			<rect x="423.862" y="93.482" fill="none" stroke="#CDCCCC" stroke-width="0.66" width="3.058" height="3.058"/>
			<rect x="423.862" y="101.596" fill="none" stroke="#CDCCCC" stroke-width="0.66" width="3.058" height="3.057"/>
			<rect x="423.862" y="109.474" fill="none" stroke="#CDCCCC" stroke-width="0.66" width="3.058" height="3.058"/>
			<rect x="423.862" y="117.47" fill="none" stroke="#CDCCCC" stroke-width="0.66" width="3.058" height="3.058"/>
		</g>
		<g>
			<rect x="431.976" y="85.369" fill="none" stroke="#CDCCCC" stroke-width="0.66" width="3.059" height="3.058"/>
			<rect x="431.976" y="93.482" fill="none" stroke="#CDCCCC" stroke-width="0.66" width="3.059" height="3.058"/>
			<rect x="431.976" y="101.596" fill="none" stroke="#CDCCCC" stroke-width="0.66" width="3.059" height="3.057"/>
			<rect x="431.976" y="109.474" fill="none" stroke="#CDCCCC" stroke-width="0.66" width="3.059" height="3.058"/>
			<rect x="431.976" y="117.47" fill="none" stroke="#CDCCCC" stroke-width="0.66" width="3.059" height="3.058"/>
		</g>
		<g>
			<rect x="440.089" y="85.369" fill="none" stroke="#CDCCCC" stroke-width="0.66" width="3.058" height="3.058"/>
			<rect x="440.089" y="93.482" fill="none" stroke="#CDCCCC" stroke-width="0.66" width="3.058" height="3.058"/>
			<rect x="440.089" y="101.596" fill="none" stroke="#CDCCCC" stroke-width="0.66" width="3.058" height="3.057"/>
			<rect x="440.089" y="109.474" fill="none" stroke="#CDCCCC" stroke-width="0.66" width="3.058" height="3.058"/>
			<rect x="440.089" y="117.47" fill="none" stroke="#CDCCCC" stroke-width="0.66" width="3.058" height="3.058"/>
		</g>
		<g>
			<rect x="448.203" y="85.369" fill="none" stroke="#CDCCCC" stroke-width="0.66" width="3.057" height="3.058"/>
			<rect x="448.203" y="93.482" fill="none" stroke="#CDCCCC" stroke-width="0.66" width="3.057" height="3.058"/>
			<rect x="448.203" y="101.596" fill="none" stroke="#CDCCCC" stroke-width="0.66" width="3.057" height="3.057"/>
			<rect x="448.203" y="109.474" fill="none" stroke="#CDCCCC" stroke-width="0.66" width="3.057" height="3.058"/>
			<rect x="448.203" y="117.47" fill="none" stroke="#CDCCCC" stroke-width="0.66" width="3.057" height="3.058"/>
		</g>
		<g>
			<rect x="456.318" y="85.369" fill="none" stroke="#CDCCCC" stroke-width="0.66" width="3.055" height="3.058"/>
			<rect x="456.318" y="93.482" fill="none" stroke="#CDCCCC" stroke-width="0.66" width="3.055" height="3.058"/>
			<rect x="456.318" y="101.596" fill="none" stroke="#CDCCCC" stroke-width="0.66" width="3.055" height="3.057"/>
			<rect x="456.318" y="109.474" fill="none" stroke="#CDCCCC" stroke-width="0.66" width="3.055" height="3.058"/>
			<rect x="456.318" y="117.47" fill="none" stroke="#CDCCCC" stroke-width="0.66" width="3.055" height="3.058"/>
		</g>
		<g>
			<rect x="464.666" y="85.369" fill="none" stroke="#CDCCCC" stroke-width="0.66" width="3.059" height="3.058"/>
			<rect x="464.666" y="93.482" fill="none" stroke="#CDCCCC" stroke-width="0.66" width="3.059" height="3.058"/>
			<rect x="464.666" y="101.596" fill="none" stroke="#CDCCCC" stroke-width="0.66" width="3.059" height="3.057"/>
			<rect x="464.666" y="109.474" fill="none" stroke="#CDCCCC" stroke-width="0.66" width="3.059" height="3.058"/>
			<rect x="464.666" y="117.47" fill="none" stroke="#CDCCCC" stroke-width="0.66" width="3.059" height="3.058"/>
		</g>
		<g>
			<rect x="472.779" y="85.369" fill="none" stroke="#CDCCCC" stroke-width="0.66" width="3.058" height="3.058"/>
			<rect x="472.779" y="93.482" fill="none" stroke="#CDCCCC" stroke-width="0.66" width="3.058" height="3.058"/>
			<rect x="472.779" y="101.596" fill="none" stroke="#CDCCCC" stroke-width="0.66" width="3.058" height="3.057"/>
			<rect x="472.779" y="109.474" fill="none" stroke="#CDCCCC" stroke-width="0.66" width="3.058" height="3.058"/>
			<rect x="472.779" y="117.47" fill="none" stroke="#CDCCCC" stroke-width="0.66" width="3.058" height="3.058"/>
		</g>
		<g>
			<rect x="480.894" y="85.369" fill="none" stroke="#CDCCCC" stroke-width="0.66" width="3.057" height="3.058"/>
			<rect x="480.894" y="93.482" fill="none" stroke="#CDCCCC" stroke-width="0.66" width="3.057" height="3.058"/>
			<rect x="480.894" y="101.596" fill="none" stroke="#CDCCCC" stroke-width="0.66" width="3.057" height="3.057"/>
			<rect x="480.894" y="109.474" fill="none" stroke="#CDCCCC" stroke-width="0.66" width="3.057" height="3.058"/>
			<rect x="480.894" y="117.47" fill="none" stroke="#CDCCCC" stroke-width="0.66" width="3.057" height="3.058"/>
		</g>
		<g>
			<rect x="489.007" y="85.369" fill="none" stroke="#CDCCCC" stroke-width="0.66" width="3.058" height="3.058"/>
			<rect x="489.007" y="93.482" fill="none" stroke="#CDCCCC" stroke-width="0.66" width="3.058" height="3.058"/>
			<rect x="489.007" y="101.596" fill="none" stroke="#CDCCCC" stroke-width="0.66" width="3.058" height="3.057"/>
			<rect x="489.007" y="109.474" fill="none" stroke="#CDCCCC" stroke-width="0.66" width="3.058" height="3.058"/>
			<rect x="489.007" y="117.47" fill="none" stroke="#CDCCCC" stroke-width="0.66" width="3.058" height="3.058"/>
		</g>
		<g>
			<rect x="497.119" y="85.369" fill="none" stroke="#CDCCCC" stroke-width="0.66" width="3.059" height="3.058"/>
			<rect x="497.119" y="93.482" fill="none" stroke="#CDCCCC" stroke-width="0.66" width="3.059" height="3.058"/>
			<rect x="497.119" y="101.596" fill="none" stroke="#CDCCCC" stroke-width="0.66" width="3.059" height="3.057"/>
			<rect x="497.119" y="109.474" fill="none" stroke="#CDCCCC" stroke-width="0.66" width="3.059" height="3.058"/>
			<rect x="497.119" y="117.47" fill="none" stroke="#CDCCCC" stroke-width="0.66" width="3.059" height="3.058"/>
		</g>
		<g>
			<rect x="505.236" y="85.369" fill="none" stroke="#CDCCCC" stroke-width="0.66" width="3.055" height="3.058"/>
			<rect x="505.236" y="93.482" fill="none" stroke="#CDCCCC" stroke-width="0.66" width="3.055" height="3.058"/>
			<rect x="505.236" y="101.596" fill="none" stroke="#CDCCCC" stroke-width="0.66" width="3.055" height="3.057"/>
			<rect x="505.236" y="109.474" fill="none" stroke="#CDCCCC" stroke-width="0.66" width="3.055" height="3.058"/>
			<rect x="505.236" y="117.47" fill="none" stroke="#CDCCCC" stroke-width="0.66" width="3.055" height="3.058"/>
		</g>
		<g>
			<rect x="513.349" y="85.369" fill="none" stroke="#CDCCCC" stroke-width="0.66" width="3.059" height="3.058"/>
			<rect x="513.349" y="93.482" fill="none" stroke="#CDCCCC" stroke-width="0.66" width="3.059" height="3.058"/>
			<rect x="513.349" y="101.596" fill="none" stroke="#CDCCCC" stroke-width="0.66" width="3.059" height="3.057"/>
			<rect x="513.349" y="109.474" fill="none" stroke="#CDCCCC" stroke-width="0.66" width="3.059" height="3.058"/>
			<rect x="513.349" y="117.47" fill="none" stroke="#CDCCCC" stroke-width="0.66" width="3.059" height="3.058"/>
		</g>
		<g>
			<rect x="521.462" y="85.369" fill="none" stroke="#CDCCCC" stroke-width="0.66" width="3.059" height="3.058"/>
			<rect x="521.462" y="93.482" fill="none" stroke="#CDCCCC" stroke-width="0.66" width="3.059" height="3.058"/>
			<rect x="521.462" y="101.596" fill="none" stroke="#CDCCCC" stroke-width="0.66" width="3.059" height="3.057"/>
			<rect x="521.462" y="109.474" fill="none" stroke="#CDCCCC" stroke-width="0.66" width="3.059" height="3.058"/>
			<rect x="521.462" y="117.47" fill="none" stroke="#CDCCCC" stroke-width="0.66" width="3.059" height="3.058"/>
		</g>
		<g>
			<rect x="529.81" y="85.369" fill="none" stroke="#CDCCCC" stroke-width="0.66" width="3.059" height="3.058"/>
			<rect x="529.81" y="93.482" fill="none" stroke="#CDCCCC" stroke-width="0.66" width="3.059" height="3.058"/>
			<rect x="529.81" y="101.596" fill="none" stroke="#CDCCCC" stroke-width="0.66" width="3.059" height="3.057"/>
			<rect x="529.81" y="109.474" fill="none" stroke="#CDCCCC" stroke-width="0.66" width="3.059" height="3.058"/>
			<rect x="529.81" y="117.47" fill="none" stroke="#CDCCCC" stroke-width="0.66" width="3.059" height="3.058"/>
		</g>
		<g>
			<rect x="537.924" y="85.369" fill="none" stroke="#CDCCCC" stroke-width="0.66" width="3.058" height="3.058"/>
			<rect x="537.924" y="93.482" fill="none" stroke="#CDCCCC" stroke-width="0.66" width="3.058" height="3.058"/>
			<rect x="537.924" y="101.596" fill="none" stroke="#CDCCCC" stroke-width="0.66" width="3.058" height="3.057"/>
			<rect x="537.924" y="109.474" fill="none" stroke="#CDCCCC" stroke-width="0.66" width="3.058" height="3.058"/>
			<rect x="537.924" y="117.47" fill="none" stroke="#CDCCCC" stroke-width="0.66" width="3.058" height="3.058"/>
		</g>
		<g>
			<rect x="546.037" y="85.369" fill="none" stroke="#CDCCCC" stroke-width="0.66" width="3.058" height="3.058"/>
			<rect x="546.037" y="93.482" fill="none" stroke="#CDCCCC" stroke-width="0.66" width="3.058" height="3.058"/>
			<rect x="546.037" y="101.596" fill="none" stroke="#CDCCCC" stroke-width="0.66" width="3.058" height="3.057"/>
			<rect x="546.037" y="109.474" fill="none" stroke="#CDCCCC" stroke-width="0.66" width="3.058" height="3.058"/>
			<rect x="546.037" y="117.47" fill="none" stroke="#CDCCCC" stroke-width="0.66" width="3.058" height="3.058"/>
		</g>
		<g>
			<rect x="334.377" y="85.369" fill="none" stroke="#CDCCCC" stroke-width="0.66" width="3.057" height="3.058"/>
			<rect x="334.377" y="93.482" fill="none" stroke="#CDCCCC" stroke-width="0.66" width="3.057" height="3.058"/>
			<rect x="334.377" y="101.596" fill="none" stroke="#CDCCCC" stroke-width="0.66" width="3.057" height="3.057"/>
			<rect x="334.377" y="109.474" fill="none" stroke="#CDCCCC" stroke-width="0.66" width="3.057" height="3.058"/>
			<rect x="334.377" y="117.47" fill="none" stroke="#CDCCCC" stroke-width="0.66" width="3.057" height="3.058"/>
		</g>
		<g>
			<rect x="342.49" y="85.369" fill="none" stroke="#CDCCCC" stroke-width="0.66" width="3.058" height="3.058"/>
			<rect x="342.49" y="93.482" fill="none" stroke="#CDCCCC" stroke-width="0.66" width="3.058" height="3.058"/>
			<rect x="342.49" y="101.596" fill="none" stroke="#CDCCCC" stroke-width="0.66" width="3.058" height="3.057"/>
			<rect x="342.49" y="109.474" fill="none" stroke="#CDCCCC" stroke-width="0.66" width="3.058" height="3.058"/>
			<rect x="342.49" y="117.47" fill="none" stroke="#CDCCCC" stroke-width="0.66" width="3.058" height="3.058"/>
		</g>
		<g>
			<rect x="350.604" y="85.369" fill="none" stroke="#CDCCCC" stroke-width="0.66" width="3.058" height="3.058"/>
			<rect x="350.604" y="93.482" fill="none" stroke="#CDCCCC" stroke-width="0.66" width="3.058" height="3.058"/>
			<rect x="350.604" y="101.596" fill="none" stroke="#CDCCCC" stroke-width="0.66" width="3.058" height="3.057"/>
			<rect x="350.604" y="109.474" fill="none" stroke="#CDCCCC" stroke-width="0.66" width="3.058" height="3.058"/>
			<rect x="350.604" y="117.47" fill="none" stroke="#CDCCCC" stroke-width="0.66" width="3.058" height="3.058"/>
		</g>
		<g>
			<rect x="358.718" y="85.369" fill="none" stroke="#CDCCCC" stroke-width="0.66" width="3.059" height="3.058"/>
			<rect x="358.718" y="93.482" fill="none" stroke="#CDCCCC" stroke-width="0.66" width="3.059" height="3.058"/>
			<rect x="358.718" y="101.596" fill="none" stroke="#CDCCCC" stroke-width="0.66" width="3.059" height="3.057"/>
			<rect x="358.718" y="109.474" fill="none" stroke="#CDCCCC" stroke-width="0.66" width="3.059" height="3.058"/>
			<rect x="358.718" y="117.47" fill="none" stroke="#CDCCCC" stroke-width="0.66" width="3.059" height="3.058"/>
		</g>
		<g>
			<rect x="309.802" y="85.369" fill="none" stroke="#CDCCCC" stroke-width="0.66" width="3.056" height="3.058"/>
			<rect x="309.802" y="93.482" fill="none" stroke="#CDCCCC" stroke-width="0.66" width="3.056" height="3.058"/>
			<rect x="309.802" y="101.596" fill="none" stroke="#CDCCCC" stroke-width="0.66" width="3.056" height="3.057"/>
			<rect x="309.802" y="109.474" fill="none" stroke="#CDCCCC" stroke-width="0.66" width="3.056" height="3.058"/>
			<rect x="309.802" y="117.47" fill="none" stroke="#CDCCCC" stroke-width="0.66" width="3.056" height="3.058"/>
		</g>
		<g>
			<rect x="318.268" y="85.369" fill="none" stroke="#CDCCCC" stroke-width="0.66" width="3.057" height="3.058"/>
			<rect x="318.268" y="93.482" fill="none" stroke="#CDCCCC" stroke-width="0.66" width="3.057" height="3.058"/>
			<rect x="318.268" y="101.596" fill="none" stroke="#CDCCCC" stroke-width="0.66" width="3.057" height="3.057"/>
			<rect x="318.268" y="109.474" fill="none" stroke="#CDCCCC" stroke-width="0.66" width="3.057" height="3.058"/>
			<rect x="318.268" y="117.47" fill="none" stroke="#CDCCCC" stroke-width="0.66" width="3.057" height="3.058"/>
		</g>
		<g>
			<rect x="326.381" y="85.369" fill="none" stroke="#CDCCCC" stroke-width="0.66" width="3.058" height="3.058"/>
			<rect x="326.381" y="93.482" fill="none" stroke="#CDCCCC" stroke-width="0.66" width="3.058" height="3.058"/>
			<rect x="326.381" y="101.596" fill="none" stroke="#CDCCCC" stroke-width="0.66" width="3.058" height="3.057"/>
			<rect x="326.381" y="109.474" fill="none" stroke="#CDCCCC" stroke-width="0.66" width="3.058" height="3.058"/>
			<rect x="326.381" y="117.47" fill="none" stroke="#CDCCCC" stroke-width="0.66" width="3.058" height="3.058"/>
		</g>
	</g>
	<g>
		<g>
			<rect x="366.832" y="140.989" fill="none" stroke="#CDCCCC" stroke-width="0.66" width="3.057" height="3.057"/>
			<rect x="366.832" y="149.102" fill="none" stroke="#CDCCCC" stroke-width="0.66" width="3.057" height="3.058"/>
			<rect x="366.832" y="156.864" fill="none" stroke="#CDCCCC" stroke-width="0.66" width="3.057" height="3.056"/>
			<rect x="366.832" y="164.977" fill="none" stroke="#CDCCCC" stroke-width="0.66" width="3.057" height="3.057"/>
			<rect x="366.832" y="172.737" fill="none" stroke="#CDCCCC" stroke-width="0.66" width="3.057" height="3.058"/>
		</g>
		<g>
			<rect x="374.945" y="140.989" fill="none" stroke="#CDCCCC" stroke-width="0.66" width="3.058" height="3.057"/>
			<rect x="374.945" y="149.102" fill="none" stroke="#CDCCCC" stroke-width="0.66" width="3.058" height="3.058"/>
			<rect x="374.945" y="156.864" fill="none" stroke="#CDCCCC" stroke-width="0.66" width="3.058" height="3.056"/>
			<rect x="374.945" y="164.977" fill="none" stroke="#CDCCCC" stroke-width="0.66" width="3.058" height="3.057"/>
			<rect x="374.945" y="172.737" fill="none" stroke="#CDCCCC" stroke-width="0.66" width="3.058" height="3.058"/>
		</g>
		<g>
			<rect x="383.059" y="140.989" fill="none" stroke="#CDCCCC" stroke-width="0.66" width="3.058" height="3.057"/>
			<rect x="383.059" y="149.102" fill="none" stroke="#CDCCCC" stroke-width="0.66" width="3.058" height="3.058"/>
			<rect x="383.059" y="156.864" fill="none" stroke="#CDCCCC" stroke-width="0.66" width="3.058" height="3.056"/>
			<rect x="383.059" y="164.977" fill="none" stroke="#CDCCCC" stroke-width="0.66" width="3.058" height="3.057"/>
			<rect x="383.059" y="172.737" fill="none" stroke="#CDCCCC" stroke-width="0.66" width="3.058" height="3.058"/>
		</g>
		<g>
			<rect x="391.407" y="140.989" fill="none" stroke="#CDCCCC" stroke-width="0.66" width="3.058" height="3.057"/>
			<rect x="391.407" y="149.102" fill="none" stroke="#CDCCCC" stroke-width="0.66" width="3.058" height="3.058"/>
			<rect x="391.407" y="156.864" fill="none" stroke="#CDCCCC" stroke-width="0.66" width="3.058" height="3.056"/>
			<rect x="391.407" y="164.977" fill="none" stroke="#CDCCCC" stroke-width="0.66" width="3.058" height="3.057"/>
			<rect x="391.407" y="172.737" fill="none" stroke="#CDCCCC" stroke-width="0.66" width="3.058" height="3.058"/>
		</g>
		<g>
			<rect x="399.522" y="140.989" fill="none" stroke="#CDCCCC" stroke-width="0.66" width="3.056" height="3.057"/>
			<rect x="399.522" y="149.102" fill="none" stroke="#CDCCCC" stroke-width="0.66" width="3.056" height="3.058"/>
			<rect x="399.522" y="156.864" fill="none" stroke="#CDCCCC" stroke-width="0.66" width="3.056" height="3.056"/>
			<rect x="399.522" y="164.977" fill="none" stroke="#CDCCCC" stroke-width="0.66" width="3.056" height="3.057"/>
			<rect x="399.522" y="172.737" fill="none" stroke="#CDCCCC" stroke-width="0.66" width="3.056" height="3.058"/>
		</g>
		<g>
			<rect x="407.636" y="140.989" fill="none" stroke="#CDCCCC" stroke-width="0.66" width="3.058" height="3.057"/>
			<rect x="407.636" y="149.102" fill="none" stroke="#CDCCCC" stroke-width="0.66" width="3.058" height="3.058"/>
			<rect x="407.636" y="156.864" fill="none" stroke="#CDCCCC" stroke-width="0.66" width="3.058" height="3.056"/>
			<rect x="407.636" y="164.977" fill="none" stroke="#CDCCCC" stroke-width="0.66" width="3.058" height="3.057"/>
			<rect x="407.636" y="172.737" fill="none" stroke="#CDCCCC" stroke-width="0.66" width="3.058" height="3.058"/>
		</g>
		<g>
			<rect x="415.749" y="140.989" fill="none" stroke="#CDCCCC" stroke-width="0.66" width="3.058" height="3.057"/>
			<rect x="415.749" y="149.102" fill="none" stroke="#CDCCCC" stroke-width="0.66" width="3.058" height="3.058"/>
			<rect x="415.749" y="156.864" fill="none" stroke="#CDCCCC" stroke-width="0.66" width="3.058" height="3.056"/>
			<rect x="415.749" y="164.977" fill="none" stroke="#CDCCCC" stroke-width="0.66" width="3.058" height="3.057"/>
			<rect x="415.749" y="172.737" fill="none" stroke="#CDCCCC" stroke-width="0.66" width="3.058" height="3.058"/>
		</g>
		<g>
			<rect x="423.862" y="140.989" fill="none" stroke="#CDCCCC" stroke-width="0.66" width="3.058" height="3.057"/>
			<rect x="423.862" y="149.102" fill="none" stroke="#CDCCCC" stroke-width="0.66" width="3.058" height="3.058"/>
			<rect x="423.862" y="156.864" fill="none" stroke="#CDCCCC" stroke-width="0.66" width="3.058" height="3.056"/>
			<rect x="423.862" y="164.977" fill="none" stroke="#CDCCCC" stroke-width="0.66" width="3.058" height="3.057"/>
			<rect x="423.862" y="172.737" fill="none" stroke="#CDCCCC" stroke-width="0.66" width="3.058" height="3.058"/>
		</g>
		<g>
			<rect x="431.976" y="140.989" fill="none" stroke="#CDCCCC" stroke-width="0.66" width="3.059" height="3.057"/>
			<rect x="431.976" y="149.102" fill="none" stroke="#CDCCCC" stroke-width="0.66" width="3.059" height="3.058"/>
			<rect x="431.976" y="156.864" fill="none" stroke="#CDCCCC" stroke-width="0.66" width="3.059" height="3.056"/>
			<rect x="431.976" y="164.977" fill="none" stroke="#CDCCCC" stroke-width="0.66" width="3.059" height="3.057"/>
			<rect x="431.976" y="172.737" fill="none" stroke="#CDCCCC" stroke-width="0.66" width="3.059" height="3.058"/>
		</g>
		<g>
			<rect x="440.089" y="140.989" fill="none" stroke="#CDCCCC" stroke-width="0.66" width="3.058" height="3.057"/>
			<rect x="440.089" y="149.102" fill="none" stroke="#CDCCCC" stroke-width="0.66" width="3.058" height="3.058"/>
			<rect x="440.089" y="156.864" fill="none" stroke="#CDCCCC" stroke-width="0.66" width="3.058" height="3.056"/>
			<rect x="440.089" y="164.977" fill="none" stroke="#CDCCCC" stroke-width="0.66" width="3.058" height="3.057"/>
			<rect x="440.089" y="172.737" fill="none" stroke="#CDCCCC" stroke-width="0.66" width="3.058" height="3.058"/>
		</g>
		<g>
			<rect x="448.203" y="140.989" fill="none" stroke="#CDCCCC" stroke-width="0.66" width="3.057" height="3.057"/>
			<rect x="448.203" y="149.102" fill="none" stroke="#CDCCCC" stroke-width="0.66" width="3.057" height="3.058"/>
			<rect x="448.203" y="156.864" fill="none" stroke="#CDCCCC" stroke-width="0.66" width="3.057" height="3.056"/>
			<rect x="448.203" y="164.977" fill="none" stroke="#CDCCCC" stroke-width="0.66" width="3.057" height="3.057"/>
			<rect x="448.203" y="172.737" fill="none" stroke="#CDCCCC" stroke-width="0.66" width="3.057" height="3.058"/>
		</g>
		<g>
			<rect x="456.318" y="140.989" fill="none" stroke="#CDCCCC" stroke-width="0.66" width="3.055" height="3.057"/>
			<rect x="456.318" y="149.102" fill="none" stroke="#CDCCCC" stroke-width="0.66" width="3.055" height="3.058"/>
			<rect x="456.318" y="156.864" fill="none" stroke="#CDCCCC" stroke-width="0.66" width="3.055" height="3.056"/>
			<rect x="456.318" y="164.977" fill="none" stroke="#CDCCCC" stroke-width="0.66" width="3.055" height="3.057"/>
			<rect x="456.318" y="172.737" fill="none" stroke="#CDCCCC" stroke-width="0.66" width="3.055" height="3.058"/>
		</g>
		<g>
			<rect x="464.666" y="140.989" fill="none" stroke="#CDCCCC" stroke-width="0.66" width="3.059" height="3.057"/>
			<rect x="464.666" y="149.102" fill="none" stroke="#CDCCCC" stroke-width="0.66" width="3.059" height="3.058"/>
			<rect x="464.666" y="156.864" fill="none" stroke="#CDCCCC" stroke-width="0.66" width="3.059" height="3.056"/>
			<rect x="464.666" y="164.977" fill="none" stroke="#CDCCCC" stroke-width="0.66" width="3.059" height="3.057"/>
			<rect x="464.666" y="172.737" fill="none" stroke="#CDCCCC" stroke-width="0.66" width="3.059" height="3.058"/>
		</g>
		<g>
			<rect x="472.779" y="140.989" fill="none" stroke="#CDCCCC" stroke-width="0.66" width="3.058" height="3.057"/>
			<rect x="472.779" y="149.102" fill="none" stroke="#CDCCCC" stroke-width="0.66" width="3.058" height="3.058"/>
			<rect x="472.779" y="156.864" fill="none" stroke="#CDCCCC" stroke-width="0.66" width="3.058" height="3.056"/>
			<rect x="472.779" y="164.977" fill="none" stroke="#CDCCCC" stroke-width="0.66" width="3.058" height="3.057"/>
			<rect x="472.779" y="172.737" fill="none" stroke="#CDCCCC" stroke-width="0.66" width="3.058" height="3.058"/>
		</g>
		<g>
			<rect x="480.894" y="140.989" fill="none" stroke="#CDCCCC" stroke-width="0.66" width="3.057" height="3.057"/>
			<rect x="480.894" y="149.102" fill="none" stroke="#CDCCCC" stroke-width="0.66" width="3.057" height="3.058"/>
			<rect x="480.894" y="156.864" fill="none" stroke="#CDCCCC" stroke-width="0.66" width="3.057" height="3.056"/>
			<rect x="480.894" y="164.977" fill="none" stroke="#CDCCCC" stroke-width="0.66" width="3.057" height="3.057"/>
			<rect x="480.894" y="172.737" fill="none" stroke="#CDCCCC" stroke-width="0.66" width="3.057" height="3.058"/>
		</g>
		<g>
			<rect x="489.007" y="140.989" fill="none" stroke="#CDCCCC" stroke-width="0.66" width="3.058" height="3.057"/>
			<rect x="489.007" y="149.102" fill="none" stroke="#CDCCCC" stroke-width="0.66" width="3.058" height="3.058"/>
			<rect x="489.007" y="156.864" fill="none" stroke="#CDCCCC" stroke-width="0.66" width="3.058" height="3.056"/>
			<rect x="489.007" y="164.977" fill="none" stroke="#CDCCCC" stroke-width="0.66" width="3.058" height="3.057"/>
			<rect x="489.007" y="172.737" fill="none" stroke="#CDCCCC" stroke-width="0.66" width="3.058" height="3.058"/>
		</g>
		<rect x="497.119" y="140.989" fill="none" stroke="#CDCCCC" stroke-width="0.66" width="3.059" height="3.057"/>
		<rect x="497.119" y="149.102" fill="none" stroke="#CDCCCC" stroke-width="0.66" width="3.059" height="3.058"/>
		<rect x="497.119" y="156.864" fill="none" stroke="#CDCCCC" stroke-width="0.66" width="3.059" height="3.056"/>
		<rect x="497.119" y="164.977" fill="none" stroke="#CDCCCC" stroke-width="0.66" width="3.059" height="3.057"/>
		<rect x="497.119" y="172.737" fill="none" stroke="#CDCCCC" stroke-width="0.66" width="3.059" height="3.058"/>
		<rect x="505.236" y="140.989" fill="none" stroke="#CDCCCC" stroke-width="0.66" width="3.055" height="3.057"/>
		<rect x="505.236" y="149.102" fill="none" stroke="#CDCCCC" stroke-width="0.66" width="3.055" height="3.058"/>
		<rect x="505.236" y="156.864" fill="none" stroke="#CDCCCC" stroke-width="0.66" width="3.055" height="3.056"/>
		<rect x="505.236" y="164.977" fill="none" stroke="#CDCCCC" stroke-width="0.66" width="3.055" height="3.057"/>
		<rect x="505.236" y="172.737" fill="none" stroke="#CDCCCC" stroke-width="0.66" width="3.055" height="3.058"/>
		<rect x="513.349" y="140.989" fill="none" stroke="#CDCCCC" stroke-width="0.66" width="3.059" height="3.057"/>
		<rect x="513.349" y="149.102" fill="none" stroke="#CDCCCC" stroke-width="0.66" width="3.059" height="3.058"/>
		<rect x="513.349" y="156.864" fill="none" stroke="#CDCCCC" stroke-width="0.66" width="3.059" height="3.056"/>
		<rect x="513.349" y="164.977" fill="none" stroke="#CDCCCC" stroke-width="0.66" width="3.059" height="3.057"/>
		<rect x="513.349" y="172.737" fill="none" stroke="#CDCCCC" stroke-width="0.66" width="3.059" height="3.058"/>
		<rect x="521.462" y="140.989" fill="none" stroke="#CDCCCC" stroke-width="0.66" width="3.059" height="3.057"/>
		<rect x="521.462" y="149.102" fill="none" stroke="#CDCCCC" stroke-width="0.66" width="3.059" height="3.058"/>
		<rect x="521.462" y="156.864" fill="none" stroke="#CDCCCC" stroke-width="0.66" width="3.059" height="3.056"/>
		<rect x="521.462" y="164.977" fill="none" stroke="#CDCCCC" stroke-width="0.66" width="3.059" height="3.057"/>
		<rect x="521.462" y="172.737" fill="none" stroke="#CDCCCC" stroke-width="0.66" width="3.059" height="3.058"/>
		<rect x="529.81" y="140.989" fill="none" stroke="#CDCCCC" stroke-width="0.66" width="3.059" height="3.057"/>
		<rect x="529.81" y="149.102" fill="none" stroke="#CDCCCC" stroke-width="0.66" width="3.059" height="3.058"/>
		<rect x="529.81" y="156.864" fill="none" stroke="#CDCCCC" stroke-width="0.66" width="3.059" height="3.056"/>
		<rect x="529.81" y="164.977" fill="none" stroke="#CDCCCC" stroke-width="0.66" width="3.059" height="3.057"/>
		<rect x="529.81" y="172.737" fill="none" stroke="#CDCCCC" stroke-width="0.66" width="3.059" height="3.058"/>
		<rect x="537.924" y="140.989" fill="none" stroke="#CDCCCC" stroke-width="0.66" width="3.058" height="3.057"/>
		<rect x="537.924" y="149.102" fill="none" stroke="#CDCCCC" stroke-width="0.66" width="3.058" height="3.058"/>
		<rect x="537.924" y="156.864" fill="none" stroke="#CDCCCC" stroke-width="0.66" width="3.058" height="3.056"/>
		<rect x="537.924" y="164.977" fill="none" stroke="#CDCCCC" stroke-width="0.66" width="3.058" height="3.057"/>
		<rect x="537.924" y="172.737" fill="none" stroke="#CDCCCC" stroke-width="0.66" width="3.058" height="3.058"/>
		<rect x="546.037" y="140.989" fill="none" stroke="#CDCCCC" stroke-width="0.66" width="3.058" height="3.057"/>
		<rect x="546.037" y="149.102" fill="none" stroke="#CDCCCC" stroke-width="0.66" width="3.058" height="3.058"/>
		<rect x="546.037" y="156.864" fill="none" stroke="#CDCCCC" stroke-width="0.66" width="3.058" height="3.056"/>
		<rect x="546.037" y="164.977" fill="none" stroke="#CDCCCC" stroke-width="0.66" width="3.058" height="3.057"/>
		<rect x="546.037" y="172.737" fill="none" stroke="#CDCCCC" stroke-width="0.66" width="3.058" height="3.058"/>
		<g>
			<rect x="334.377" y="140.989" fill="none" stroke="#CDCCCC" stroke-width="0.66" width="3.057" height="3.057"/>
			<rect x="334.377" y="149.102" fill="none" stroke="#CDCCCC" stroke-width="0.66" width="3.057" height="3.058"/>
			<rect x="334.377" y="156.864" fill="none" stroke="#CDCCCC" stroke-width="0.66" width="3.057" height="3.056"/>
			<rect x="334.377" y="164.977" fill="none" stroke="#CDCCCC" stroke-width="0.66" width="3.057" height="3.057"/>
			<rect x="334.377" y="172.737" fill="none" stroke="#CDCCCC" stroke-width="0.66" width="3.057" height="3.058"/>
		</g>
		<g>
			<rect x="342.49" y="140.989" fill="none" stroke="#CDCCCC" stroke-width="0.66" width="3.058" height="3.057"/>
			<rect x="342.49" y="149.102" fill="none" stroke="#CDCCCC" stroke-width="0.66" width="3.058" height="3.058"/>
			<rect x="342.49" y="156.864" fill="none" stroke="#CDCCCC" stroke-width="0.66" width="3.058" height="3.056"/>
			<rect x="342.49" y="164.977" fill="none" stroke="#CDCCCC" stroke-width="0.66" width="3.058" height="3.057"/>
			<rect x="342.49" y="172.737" fill="none" stroke="#CDCCCC" stroke-width="0.66" width="3.058" height="3.058"/>
		</g>
		<g>
			<rect x="350.604" y="140.989" fill="none" stroke="#CDCCCC" stroke-width="0.66" width="3.058" height="3.057"/>
			<rect x="350.604" y="149.102" fill="none" stroke="#CDCCCC" stroke-width="0.66" width="3.058" height="3.058"/>
			<rect x="350.604" y="156.864" fill="none" stroke="#CDCCCC" stroke-width="0.66" width="3.058" height="3.056"/>
			<rect x="350.604" y="164.977" fill="none" stroke="#CDCCCC" stroke-width="0.66" width="3.058" height="3.057"/>
			<rect x="350.604" y="172.737" fill="none" stroke="#CDCCCC" stroke-width="0.66" width="3.058" height="3.058"/>
		</g>
		<g>
			<rect x="358.718" y="140.989" fill="none" stroke="#CDCCCC" stroke-width="0.66" width="3.059" height="3.057"/>
			<rect x="358.718" y="149.102" fill="none" stroke="#CDCCCC" stroke-width="0.66" width="3.059" height="3.058"/>
			<rect x="358.718" y="156.864" fill="none" stroke="#CDCCCC" stroke-width="0.66" width="3.059" height="3.056"/>
			<rect x="358.718" y="164.977" fill="none" stroke="#CDCCCC" stroke-width="0.66" width="3.059" height="3.057"/>
			<rect x="358.718" y="172.737" fill="none" stroke="#CDCCCC" stroke-width="0.66" width="3.059" height="3.058"/>
		</g>
		<g>
			<rect x="309.802" y="140.989" fill="none" stroke="#CDCCCC" stroke-width="0.66" width="3.056" height="3.057"/>
			<rect x="309.802" y="149.102" fill="none" stroke="#CDCCCC" stroke-width="0.66" width="3.056" height="3.058"/>
			<rect x="309.802" y="156.864" fill="none" stroke="#CDCCCC" stroke-width="0.66" width="3.056" height="3.056"/>
			<rect x="309.802" y="164.977" fill="none" stroke="#CDCCCC" stroke-width="0.66" width="3.056" height="3.057"/>
			<rect x="309.802" y="172.737" fill="none" stroke="#CDCCCC" stroke-width="0.66" width="3.056" height="3.058"/>
		</g>
		<g>
			<rect x="318.268" y="140.989" fill="none" stroke="#CDCCCC" stroke-width="0.66" width="3.057" height="3.057"/>
			<rect x="318.268" y="149.102" fill="none" stroke="#CDCCCC" stroke-width="0.66" width="3.057" height="3.058"/>
			<rect x="318.268" y="156.864" fill="none" stroke="#CDCCCC" stroke-width="0.66" width="3.057" height="3.056"/>
			<rect x="318.268" y="164.977" fill="none" stroke="#CDCCCC" stroke-width="0.66" width="3.057" height="3.057"/>
			<rect x="318.268" y="172.737" fill="none" stroke="#CDCCCC" stroke-width="0.66" width="3.057" height="3.058"/>
		</g>
		<g>
			<rect x="326.381" y="140.989" fill="none" stroke="#CDCCCC" stroke-width="0.66" width="3.058" height="3.057"/>
			<rect x="326.381" y="149.102" fill="none" stroke="#CDCCCC" stroke-width="0.66" width="3.058" height="3.058"/>
			<rect x="326.381" y="156.864" fill="none" stroke="#CDCCCC" stroke-width="0.66" width="3.058" height="3.056"/>
			<rect x="326.381" y="164.977" fill="none" stroke="#CDCCCC" stroke-width="0.66" width="3.058" height="3.057"/>
			<rect x="326.381" y="172.737" fill="none" stroke="#CDCCCC" stroke-width="0.66" width="3.058" height="3.058"/>
		</g>
	</g>
	<g>
		<g>
			<g>
				<rect x="341.902" y="53.032" fill="none" stroke="#CDCCCC" stroke-width="0.66" width="3.059" height="3.057"/>
				<rect x="333.789" y="53.032" fill="none" stroke="#CDCCCC" stroke-width="0.66" width="3.057" height="3.057"/>
				<rect x="326.028" y="53.032" fill="none" stroke="#CDCCCC" stroke-width="0.66" width="3.058" height="3.057"/>
				<rect x="317.914" y="53.032" fill="none" stroke="#CDCCCC" stroke-width="0.66" width="3.058" height="3.057"/>
				<rect x="309.802" y="53.032" fill="none" stroke="#CDCCCC" stroke-width="0.66" width="3.056" height="3.057"/>
			</g>
			<g>
				<rect x="309.802" y="61.145" fill="none" stroke="#CDCCCC" stroke-width="0.66" width="3.056" height="3.058"/>
				<rect x="317.914" y="61.145" fill="none" stroke="#CDCCCC" stroke-width="0.66" width="3.058" height="3.058"/>
				<rect x="326.028" y="61.145" fill="none" stroke="#CDCCCC" stroke-width="0.66" width="3.058" height="3.058"/>
				<rect x="333.789" y="61.145" fill="none" stroke="#CDCCCC" stroke-width="0.66" width="3.057" height="3.058"/>
				<rect x="341.902" y="61.145" fill="none" stroke="#CDCCCC" stroke-width="0.66" width="3.059" height="3.058"/>
			</g>
		</g>
		<g>
			<g>
				<rect x="390.82" y="53.032" fill="none" stroke="#CDCCCC" stroke-width="0.66" width="3.057" height="3.057"/>
				<rect x="382.706" y="53.032" fill="none" stroke="#CDCCCC" stroke-width="0.66" width="3.057" height="3.057"/>
				<rect x="374.71" y="53.032" fill="none" stroke="#CDCCCC" stroke-width="0.66" width="3.059" height="3.057"/>
				<rect x="366.832" y="53.032" fill="none" stroke="#CDCCCC" stroke-width="0.66" width="3.057" height="3.057"/>
				<rect x="358.718" y="53.032" fill="none" stroke="#CDCCCC" stroke-width="0.66" width="3.059" height="3.057"/>
			</g>
			<g>
				<rect x="358.718" y="61.145" fill="none" stroke="#CDCCCC" stroke-width="0.66" width="3.059" height="3.058"/>
				<rect x="366.832" y="61.145" fill="none" stroke="#CDCCCC" stroke-width="0.66" width="3.057" height="3.058"/>
				<rect x="374.71" y="61.145" fill="none" stroke="#CDCCCC" stroke-width="0.66" width="3.059" height="3.058"/>
				<rect x="382.706" y="61.145" fill="none" stroke="#CDCCCC" stroke-width="0.66" width="3.057" height="3.058"/>
				<rect x="390.82" y="61.145" fill="none" stroke="#CDCCCC" stroke-width="0.66" width="3.057" height="3.058"/>
			</g>
		</g>
		<g>
			<g>
				<rect x="439.502" y="53.032" fill="none" stroke="#CDCCCC" stroke-width="0.66" width="3.057" height="3.057"/>
				<rect x="431.741" y="53.032" fill="none" stroke="#CDCCCC" stroke-width="0.66" width="3.058" height="3.057"/>
				<rect x="423.628" y="53.032" fill="none" stroke="#CDCCCC" stroke-width="0.66" width="3.057" height="3.057"/>
				<rect x="415.515" y="53.032" fill="none" stroke="#CDCCCC" stroke-width="0.66" width="3.058" height="3.057"/>
				<rect x="407.636" y="53.032" fill="none" stroke="#CDCCCC" stroke-width="0.66" width="3.058" height="3.057"/>
			</g>
			<g>
				<rect x="407.636" y="61.145" fill="none" stroke="#CDCCCC" stroke-width="0.66" width="3.058" height="3.058"/>
				<rect x="415.515" y="61.145" fill="none" stroke="#CDCCCC" stroke-width="0.66" width="3.058" height="3.058"/>
				<rect x="423.628" y="61.145" fill="none" stroke="#CDCCCC" stroke-width="0.66" width="3.057" height="3.058"/>
				<rect x="431.741" y="61.145" fill="none" stroke="#CDCCCC" stroke-width="0.66" width="3.058" height="3.058"/>
				<rect x="439.502" y="61.145" fill="none" stroke="#CDCCCC" stroke-width="0.66" width="3.057" height="3.058"/>
			</g>
		</g>
		<g>
			<g>
				<rect x="488.418" y="53.032" fill="none" stroke="#CDCCCC" stroke-width="0.66" width="3.059" height="3.057"/>
				<rect x="480.306" y="53.032" fill="none" stroke="#CDCCCC" stroke-width="0.66" width="3.058" height="3.057"/>
				<rect x="472.546" y="53.032" fill="none" stroke="#CDCCCC" stroke-width="0.66" width="3.057" height="3.057"/>
				<rect x="464.432" y="53.032" fill="none" stroke="#CDCCCC" stroke-width="0.66" width="3.058" height="3.057"/>
				<rect x="456.318" y="53.032" fill="none" stroke="#CDCCCC" stroke-width="0.66" width="3.055" height="3.057"/>
			</g>
			<g>
				<rect x="456.318" y="61.145" fill="none" stroke="#CDCCCC" stroke-width="0.66" width="3.055" height="3.058"/>
				<rect x="464.432" y="61.145" fill="none" stroke="#CDCCCC" stroke-width="0.66" width="3.058" height="3.058"/>
				<rect x="472.546" y="61.145" fill="none" stroke="#CDCCCC" stroke-width="0.66" width="3.057" height="3.058"/>
				<rect x="480.306" y="61.145" fill="none" stroke="#CDCCCC" stroke-width="0.66" width="3.058" height="3.058"/>
				<rect x="488.418" y="61.145" fill="none" stroke="#CDCCCC" stroke-width="0.66" width="3.059" height="3.058"/>
			</g>
		</g>
		<g>
			<g>
				<rect x="537.336" y="53.032" fill="none" stroke="#CDCCCC" stroke-width="0.66" width="3.058" height="3.057"/>
				<rect x="529.223" y="53.032" fill="none" stroke="#CDCCCC" stroke-width="0.66" width="3.058" height="3.057"/>
				<rect x="521.108" y="53.032" fill="none" stroke="#CDCCCC" stroke-width="0.66" width="3.059" height="3.057"/>
				<rect x="513.349" y="53.032" fill="none" stroke="#CDCCCC" stroke-width="0.66" width="3.059" height="3.057"/>
				<rect x="505.236" y="53.032" fill="none" stroke="#CDCCCC" stroke-width="0.66" width="3.055" height="3.057"/>
			</g>
			<g>
				<rect x="505.236" y="61.145" fill="none" stroke="#CDCCCC" stroke-width="0.66" width="3.055" height="3.058"/>
				<rect x="513.349" y="61.145" fill="none" stroke="#CDCCCC" stroke-width="0.66" width="3.059" height="3.058"/>
				<rect x="521.108" y="61.145" fill="none" stroke="#CDCCCC" stroke-width="0.66" width="3.059" height="3.058"/>
				<rect x="529.223" y="61.145" fill="none" stroke="#CDCCCC" stroke-width="0.66" width="3.058" height="3.058"/>
				<rect x="537.336" y="61.145" fill="none" stroke="#CDCCCC" stroke-width="0.66" width="3.058" height="3.058"/>
			</g>
		</g>
	</g>
	<g>
		<g>
			<g>
				<rect x="341.902" y="198.608" fill="none" stroke="#CDCCCC" stroke-width="0.66" width="3.059" height="3.057"/>
				<rect x="333.789" y="198.608" fill="none" stroke="#CDCCCC" stroke-width="0.66" width="3.057" height="3.057"/>
				<rect x="326.028" y="198.608" fill="none" stroke="#CDCCCC" stroke-width="0.66" width="3.058" height="3.057"/>
				<rect x="317.914" y="198.608" fill="none" stroke="#CDCCCC" stroke-width="0.66" width="3.058" height="3.057"/>
				<rect x="309.802" y="198.608" fill="none" stroke="#CDCCCC" stroke-width="0.66" width="3.056" height="3.057"/>
			</g>
			<g>
				<rect x="309.802" y="206.72" fill="none" stroke="#CDCCCC" stroke-width="0.66" width="3.056" height="3.058"/>
				<rect x="317.914" y="206.72" fill="none" stroke="#CDCCCC" stroke-width="0.66" width="3.058" height="3.058"/>
				<rect x="326.028" y="206.72" fill="none" stroke="#CDCCCC" stroke-width="0.66" width="3.058" height="3.058"/>
				<rect x="333.789" y="206.72" fill="none" stroke="#CDCCCC" stroke-width="0.66" width="3.057" height="3.058"/>
				<rect x="341.902" y="206.72" fill="none" stroke="#CDCCCC" stroke-width="0.66" width="3.059" height="3.058"/>
			</g>
		</g>
		<g>
			<g>
				<rect x="390.82" y="198.608" fill="none" stroke="#CDCCCC" stroke-width="0.66" width="3.057" height="3.057"/>
				<rect x="382.706" y="198.608" fill="none" stroke="#CDCCCC" stroke-width="0.66" width="3.057" height="3.057"/>
				<rect x="374.71" y="198.608" fill="none" stroke="#CDCCCC" stroke-width="0.66" width="3.059" height="3.057"/>
				<rect x="366.832" y="198.608" fill="none" stroke="#CDCCCC" stroke-width="0.66" width="3.057" height="3.057"/>
				<rect x="358.718" y="198.608" fill="none" stroke="#CDCCCC" stroke-width="0.66" width="3.059" height="3.057"/>
			</g>
			<g>
				<rect x="358.718" y="206.72" fill="none" stroke="#CDCCCC" stroke-width="0.66" width="3.059" height="3.058"/>
				<rect x="366.832" y="206.72" fill="none" stroke="#CDCCCC" stroke-width="0.66" width="3.057" height="3.058"/>
				<rect x="374.71" y="206.72" fill="none" stroke="#CDCCCC" stroke-width="0.66" width="3.059" height="3.058"/>
				<rect x="382.706" y="206.72" fill="none" stroke="#CDCCCC" stroke-width="0.66" width="3.057" height="3.058"/>
				<rect x="390.82" y="206.72" fill="none" stroke="#CDCCCC" stroke-width="0.66" width="3.057" height="3.058"/>
			</g>
		</g>
		<g>
			<g>
				<rect x="439.502" y="198.608" fill="none" stroke="#CDCCCC" stroke-width="0.66" width="3.057" height="3.057"/>
				<rect x="431.741" y="198.608" fill="none" stroke="#CDCCCC" stroke-width="0.66" width="3.058" height="3.057"/>
				<rect x="423.628" y="198.608" fill="none" stroke="#CDCCCC" stroke-width="0.66" width="3.057" height="3.057"/>
				<rect x="415.515" y="198.608" fill="none" stroke="#CDCCCC" stroke-width="0.66" width="3.058" height="3.057"/>
				<rect x="407.636" y="198.608" fill="none" stroke="#CDCCCC" stroke-width="0.66" width="3.058" height="3.057"/>
			</g>
			<g>
				<rect x="407.636" y="206.72" fill="none" stroke="#CDCCCC" stroke-width="0.66" width="3.058" height="3.058"/>
				<rect x="415.515" y="206.72" fill="none" stroke="#CDCCCC" stroke-width="0.66" width="3.058" height="3.058"/>
				<rect x="423.628" y="206.72" fill="none" stroke="#CDCCCC" stroke-width="0.66" width="3.057" height="3.058"/>
				<rect x="431.741" y="206.72" fill="none" stroke="#CDCCCC" stroke-width="0.66" width="3.058" height="3.058"/>
				<rect x="439.502" y="206.72" fill="none" stroke="#CDCCCC" stroke-width="0.66" width="3.057" height="3.058"/>
			</g>
		</g>
		<g>
			<g>
				<rect x="488.418" y="198.608" fill="none" stroke="#CDCCCC" stroke-width="0.66" width="3.059" height="3.057"/>
				<rect x="480.306" y="198.608" fill="none" stroke="#CDCCCC" stroke-width="0.66" width="3.058" height="3.057"/>
				<rect x="472.546" y="198.608" fill="none" stroke="#CDCCCC" stroke-width="0.66" width="3.057" height="3.057"/>
				<rect x="464.432" y="198.608" fill="none" stroke="#CDCCCC" stroke-width="0.66" width="3.058" height="3.057"/>
				<rect x="456.318" y="198.608" fill="none" stroke="#CDCCCC" stroke-width="0.66" width="3.055" height="3.057"/>
			</g>
			<g>
				<rect x="456.318" y="206.72" fill="none" stroke="#CDCCCC" stroke-width="0.66" width="3.055" height="3.058"/>
				<rect x="464.432" y="206.72" fill="none" stroke="#CDCCCC" stroke-width="0.66" width="3.058" height="3.058"/>
				<rect x="472.546" y="206.72" fill="none" stroke="#CDCCCC" stroke-width="0.66" width="3.057" height="3.058"/>
				<rect x="480.306" y="206.72" fill="none" stroke="#CDCCCC" stroke-width="0.66" width="3.058" height="3.058"/>
				<rect x="488.418" y="206.72" fill="none" stroke="#CDCCCC" stroke-width="0.66" width="3.059" height="3.058"/>
			</g>
		</g>
		<g>
			<g>
				<rect x="537.336" y="198.608" fill="none" stroke="#CDCCCC" stroke-width="0.66" width="3.058" height="3.057"/>
				<rect x="529.223" y="198.608" fill="none" stroke="#CDCCCC" stroke-width="0.66" width="3.058" height="3.057"/>
				<rect x="521.108" y="198.608" fill="none" stroke="#CDCCCC" stroke-width="0.66" width="3.059" height="3.057"/>
				<rect x="513.349" y="198.608" fill="none" stroke="#CDCCCC" stroke-width="0.66" width="3.059" height="3.057"/>
				<rect x="505.236" y="198.608" fill="none" stroke="#CDCCCC" stroke-width="0.66" width="3.055" height="3.057"/>
			</g>
			<g>
				<rect x="505.236" y="206.72" fill="none" stroke="#CDCCCC" stroke-width="0.66" width="3.055" height="3.058"/>
				<rect x="513.349" y="206.72" fill="none" stroke="#CDCCCC" stroke-width="0.66" width="3.059" height="3.058"/>
				<rect x="521.108" y="206.72" fill="none" stroke="#CDCCCC" stroke-width="0.66" width="3.059" height="3.058"/>
				<rect x="529.223" y="206.72" fill="none" stroke="#CDCCCC" stroke-width="0.66" width="3.058" height="3.058"/>
				<rect x="537.336" y="206.72" fill="none" stroke="#CDCCCC" stroke-width="0.66" width="3.058" height="3.058"/>
			</g>
		</g>
	</g>
	<rect x="292.396" y="44.917" fill="none" stroke="#CDCCCC" stroke-width="0.66" width="273.75" height="170.74"/>
</g>
<line fill="none" stroke="#010101" stroke-width="0.66" x1="156.699" y1="57.5" x2="156.699" y2="118.764"/>
<line fill="none" stroke="#010101" stroke-width="0.66" x1="156.699" y1="149.69" x2="156.699" y2="215.423"/>
<line fill="none" stroke="#010101" stroke-width="0.66" x1="48.986" y1="135.579" x2="132.123" y2="135.579"/>
<rect x="131.77" y="119" fill="none" stroke="#010101" stroke-width="0.66" width="49.506" height="30.926"/>
<g>
	<g enable-background="new    ">
		<path fill="#010101" d="M144.716,137.01c-0.554,0-1.086-0.064-1.534-0.181v-1.704h0.703c0.064,0.352,0.106,0.682,0.139,0.959
			c0.234,0.053,0.511,0.096,0.788,0.096c0.852,0,1.544-0.341,1.544-1.235c0-1.619-3.281-0.969-3.281-3.281
			c0-1.182,0.938-2.034,2.546-2.034c0.5,0,0.916,0.053,1.384,0.139v1.651h-0.703c-0.064-0.33-0.106-0.671-0.128-0.938
			c-0.16-0.032-0.405-0.064-0.628-0.064c-0.948,0-1.449,0.458-1.449,1.129c0,1.576,3.281,0.99,3.281,3.248
			C147.378,136.083,146.366,137.01,144.716,137.01z"/>
		<path fill="#010101" d="M152.797,134.251h-3.461c-0.042,1.385,0.522,1.981,1.672,1.981c0.511,0,1.044-0.106,1.513-0.309
			l0.138,0.756c-0.532,0.213-1.171,0.33-1.832,0.33c-1.608,0-2.482-0.852-2.482-2.716c0-1.576,0.884-2.769,2.386-2.769
			c1.48,0,2.098,0.99,2.098,2.173C152.829,133.825,152.819,134.039,152.797,134.251z M150.667,132.249
			c-0.692,0-1.182,0.511-1.299,1.321h2.482C151.871,132.76,151.413,132.249,150.667,132.249z"/>
		<path fill="#010101" d="M157.269,132.473c-1.214-0.202-1.757,0.618-1.757,2.311v1.417c0.32,0.021,0.65,0.074,0.927,0.138v0.575
			h-2.812v-0.575c0.277-0.064,0.607-0.117,0.926-0.138v-3.824c-0.255-0.042-0.618-0.085-0.926-0.106v-0.575
			c0.532-0.064,1.267-0.106,1.853-0.075c0,0.33-0.032,0.82-0.106,1.257h0.011c0.234-0.735,0.767-1.47,1.928-1.353L157.269,132.473z"
			/>
		<path fill="#010101" d="M162.71,132.324l-1.672,4.59h-1.15l-1.64-4.59c-0.234-0.021-0.469-0.064-0.682-0.128v-0.575h2.46v0.575
			c-0.234,0.064-0.49,0.106-0.746,0.128l0.884,2.577c0.117,0.352,0.224,0.682,0.319,1.044h0.011
			c0.096-0.341,0.203-0.692,0.309-1.012l0.905-2.609c-0.256-0.021-0.511-0.064-0.746-0.128v-0.575h2.428v0.575
			C163.179,132.26,162.944,132.302,162.71,132.324z"/>
		<path fill="#010101" d="M166.01,137.01c-1.448,0-2.375-0.831-2.375-2.663c0-1.587,0.98-2.822,2.578-2.822
			c1.342,0,2.375,0.735,2.375,2.663C168.587,135.774,167.607,137.01,166.01,137.01z M166.127,132.324
			c-0.777,0-1.501,0.586-1.501,1.949c0,1.225,0.511,1.928,1.491,1.928c0.788,0,1.48-0.618,1.48-1.938
			C167.597,133.026,167.086,132.324,166.127,132.324z"/>
	</g>
</g>
<g>
	<g enable-background="new    ">
		<path fill="#010101" d="M150.654,46.143v2.141h-0.916v-2.141h-2.023v-0.799h2.023v-2.13h0.916v2.13h2.024v0.799H150.654z"/>
		<path fill="#010101" d="M154.529,50.979c-0.277,0-0.543-0.021-0.788-0.053l0.085-0.884c0.213,0.053,0.5,0.085,0.767,0.085
			c1.31,0,1.992-0.671,1.992-1.555s-0.713-1.534-2.023-1.534c-0.203,0-0.394,0-0.607,0.011v-3.675h3.398v0.938h-2.482v1.906
			c1.79,0,2.759,0.938,2.759,2.205C157.629,49.903,156.308,50.979,154.529,50.979z"/>
		<path fill="#010101" d="M164.635,42.415l-2.375,6.497h-1.097l-2.312-6.497c-0.202-0.01-0.468-0.064-0.649-0.117v-0.575h2.577
			v0.575c-0.255,0.053-0.564,0.107-0.852,0.128l1.331,3.919c0.149,0.416,0.33,0.969,0.479,1.491h0.01
			c0.128-0.49,0.309-1.012,0.49-1.565l1.384-3.845c-0.287-0.021-0.585-0.075-0.841-0.128v-0.575h2.492v0.575
			C165.104,42.351,164.827,42.405,164.635,42.415z"/>
	</g>
</g>
<polygon fill="none" stroke="#010101" stroke-width="0.66" points="42.049,127.701 49.575,135.814 42.049,144.281 22.529,144.281 
	22.529,127.701 "/>
<g>
	<g>
		<polyline fill="none" stroke="#010101" stroke-width="0.66" points="145.057,215.658 169.047,215.658 149.174,215.658 		"/>
		<line fill="none" stroke="#010101" stroke-width="0.66" x1="149.525" y1="222.007" x2="164.226" y2="222.007"/>
		<line fill="none" stroke="#010101" stroke-width="0.66" x1="154.347" y1="228.004" x2="159.757" y2="228.004"/>
	</g>
	<g>
		<polyline fill="none" stroke="#020202" stroke-width="0.594" points="145.057,215.658 169.047,215.658 149.174,215.658 		"/>
		<line fill="none" stroke="#020202" stroke-width="0.594" x1="149.525" y1="222.007" x2="164.226" y2="222.007"/>
		<line fill="none" stroke="#020202" stroke-width="0.594" x1="154.347" y1="228.004" x2="159.757" y2="228.004"/>
	</g>
</g>
<g>
	<g enable-background="new    ">
		<path fill="#ACACAC" d="M169.888,94.5l-1.917-3.206h-0.554v2.493c0.267,0.021,0.554,0.063,0.799,0.138V94.5h-2.694v-0.575
			c0.277-0.064,0.607-0.117,0.926-0.138v-5.762c-0.319-0.021-0.649-0.075-0.926-0.139v-0.575h0.831c0.277,0,1.204-0.043,1.981-0.043
			c1.513,0,2.535,0.501,2.535,1.917c0,1.118-0.81,1.789-1.917,1.959c0.16,0.192,0.331,0.447,0.469,0.66l1.225,1.971
			c0.234,0.032,0.521,0.074,0.82,0.138V94.5H169.888z M168.162,88.046c-0.213,0-0.543,0.01-0.746,0.032v2.481h0.82
			c1.054,0,1.608-0.49,1.608-1.278C169.845,88.387,169.302,88.046,168.162,88.046z"/>
		<path fill="#ACACAC" d="M176.563,91.837h-3.461c-0.042,1.385,0.522,1.981,1.672,1.981c0.511,0,1.044-0.106,1.513-0.309
			l0.138,0.756c-0.532,0.213-1.171,0.33-1.832,0.33c-1.608,0-2.482-0.852-2.482-2.716c0-1.576,0.884-2.769,2.386-2.769
			c1.48,0,2.098,0.99,2.098,2.173C176.595,91.411,176.585,91.625,176.563,91.837z M174.433,89.835c-0.692,0-1.182,0.511-1.299,1.321
			h2.482C175.637,90.346,175.179,89.835,174.433,89.835z"/>
		<path fill="#ACACAC" d="M181.184,94.5c0-0.298,0.021-0.767,0.085-1.076l-0.021-0.011c-0.298,0.714-0.948,1.182-1.779,1.182
			c-1.299,0-1.949-0.948-1.949-2.492c0-1.853,1.065-2.971,2.737-2.971c0.288,0,0.575,0.021,0.895,0.053v-1.704
			c-0.255-0.043-0.618-0.085-0.926-0.107V86.8c0.532-0.064,1.267-0.107,1.885-0.075v7.019c0.256,0.043,0.607,0.085,0.895,0.106
			v0.575C182.505,94.489,181.77,94.532,181.184,94.5z M181.152,90.005c-0.319-0.075-0.639-0.117-0.937-0.117
			c-1.012,0-1.683,0.607-1.683,2.13c0,1.14,0.373,1.789,1.171,1.789c0.958,0,1.448-1.118,1.448-2.045V90.005z"/>
		<path fill="#ACACAC" d="M193.908,89.91l-1.448,4.59h-1.097l-1.043-3.121c-0.117-0.33-0.213-0.682-0.298-1.055h-0.011
			c-0.117,0.469-0.245,0.884-0.383,1.332l-0.884,2.844h-1.107l-1.363-4.59c-0.234-0.021-0.469-0.064-0.682-0.128v-0.575h2.439v0.575
			c-0.224,0.064-0.469,0.106-0.735,0.128l0.649,2.364c0.117,0.437,0.245,0.863,0.331,1.204h0.01
			c0.096-0.447,0.224-0.884,0.362-1.299l0.948-2.972h0.991l0.958,2.972c0.192,0.628,0.288,0.937,0.373,1.299h0.01
			c0.096-0.373,0.192-0.682,0.331-1.161l0.692-2.407c-0.245-0.021-0.511-0.064-0.735-0.128v-0.575h2.375v0.575
			C194.377,89.846,194.143,89.888,193.908,89.91z"/>
		<path fill="#ACACAC" d="M194.96,94.5v-0.575c0.277-0.064,0.607-0.117,0.926-0.138v-3.824c-0.255-0.042-0.618-0.085-0.926-0.106
			v-0.575c0.532-0.064,1.267-0.106,1.885-0.075v4.58c0.309,0.021,0.628,0.074,0.895,0.138V94.5H194.96z M196.376,88.152
			c-0.352,0-0.639-0.267-0.639-0.618c0-0.352,0.288-0.628,0.639-0.628c0.341,0,0.628,0.277,0.628,0.628
			C197.005,87.875,196.717,88.152,196.376,88.152z"/>
		<path fill="#ACACAC" d="M201.881,90.059c-1.214-0.202-1.757,0.618-1.757,2.311v1.417c0.32,0.021,0.65,0.074,0.927,0.138V94.5
			h-2.812v-0.575c0.277-0.064,0.607-0.117,0.926-0.138v-3.824c-0.255-0.042-0.618-0.085-0.926-0.106v-0.575
			c0.532-0.064,1.267-0.106,1.853-0.075c0,0.33-0.032,0.82-0.106,1.257h0.011c0.234-0.735,0.767-1.47,1.928-1.353L201.881,90.059z"
			/>
		<path fill="#ACACAC" d="M206.993,91.837h-3.461c-0.042,1.385,0.522,1.981,1.672,1.981c0.511,0,1.044-0.106,1.513-0.309
			l0.138,0.756c-0.532,0.213-1.171,0.33-1.832,0.33c-1.608,0-2.482-0.852-2.482-2.716c0-1.576,0.884-2.769,2.386-2.769
			c1.48,0,2.098,0.99,2.098,2.173C207.024,91.411,207.014,91.625,206.993,91.837z M204.862,89.835c-0.692,0-1.182,0.511-1.299,1.321
			h2.482C206.066,90.346,205.608,89.835,204.862,89.835z"/>
	</g>
</g>
<g>
	<g enable-background="new    ">
		<path fill="#ACACAC" d="M330.609,263.843l-1.917-3.206h-0.554v2.493c0.266,0.021,0.554,0.063,0.799,0.138v0.575h-2.695v-0.575
			c0.277-0.064,0.607-0.117,0.927-0.138v-5.762c-0.319-0.021-0.649-0.075-0.927-0.139v-0.575h0.831c0.277,0,1.203-0.043,1.981-0.043
			c1.512,0,2.534,0.501,2.534,1.917c0,1.118-0.81,1.789-1.917,1.959c0.16,0.192,0.33,0.447,0.469,0.66l1.225,1.971
			c0.234,0.032,0.522,0.074,0.82,0.138v0.586H330.609z M328.884,257.389c-0.213,0-0.543,0.01-0.745,0.032v2.481h0.819
			c1.055,0,1.608-0.49,1.608-1.278C330.566,257.729,330.023,257.389,328.884,257.389z"/>
		<path fill="#ACACAC" d="M337.285,261.18h-3.462c-0.042,1.385,0.522,1.981,1.673,1.981c0.511,0,1.044-0.106,1.512-0.309
			l0.139,0.756c-0.532,0.213-1.172,0.33-1.832,0.33c-1.608,0-2.481-0.852-2.481-2.716c0-1.576,0.884-2.769,2.386-2.769
			c1.48,0,2.099,0.99,2.099,2.173C337.317,260.754,337.307,260.967,337.285,261.18z M335.155,259.178
			c-0.692,0-1.183,0.511-1.3,1.321h2.481C336.358,259.689,335.9,259.178,335.155,259.178z"/>
		<path fill="#ACACAC" d="M341.905,263.843c0-0.298,0.021-0.767,0.085-1.076l-0.021-0.011c-0.298,0.714-0.947,1.182-1.778,1.182
			c-1.3,0-1.949-0.948-1.949-2.492c0-1.853,1.065-2.971,2.737-2.971c0.288,0,0.575,0.021,0.895,0.053v-1.704
			c-0.256-0.043-0.617-0.085-0.927-0.107v-0.575c0.533-0.064,1.268-0.107,1.886-0.075v7.019c0.256,0.043,0.606,0.085,0.895,0.106
			v0.575C343.226,263.832,342.491,263.875,341.905,263.843z M341.873,259.348c-0.319-0.075-0.639-0.117-0.938-0.117
			c-1.012,0-1.683,0.607-1.683,2.13c0,1.14,0.373,1.789,1.172,1.789c0.958,0,1.448-1.118,1.448-2.045V259.348z"/>
		<path fill="#ACACAC" d="M354.63,259.252l-1.448,4.59h-1.097l-1.044-3.121c-0.117-0.33-0.213-0.682-0.299-1.055h-0.01
			c-0.117,0.469-0.245,0.884-0.384,1.332l-0.884,2.844h-1.108l-1.363-4.59c-0.233-0.021-0.468-0.064-0.682-0.128v-0.575h2.439v0.575
			c-0.224,0.064-0.469,0.106-0.735,0.128l0.65,2.364c0.117,0.437,0.245,0.863,0.33,1.204h0.011c0.096-0.447,0.224-0.884,0.362-1.299
			l0.947-2.972h0.99l0.959,2.972c0.191,0.628,0.287,0.937,0.373,1.299h0.011c0.096-0.373,0.191-0.682,0.33-1.161l0.692-2.407
			c-0.245-0.021-0.512-0.064-0.735-0.128v-0.575h2.375v0.575C355.099,259.188,354.864,259.231,354.63,259.252z"/>
		<path fill="#ACACAC" d="M355.682,263.843v-0.575c0.277-0.064,0.607-0.117,0.927-0.138v-3.824
			c-0.256-0.042-0.617-0.085-0.927-0.106v-0.575c0.533-0.064,1.268-0.106,1.886-0.075v4.58c0.309,0.021,0.628,0.074,0.895,0.138
			v0.575H355.682z M357.099,257.495c-0.352,0-0.64-0.267-0.64-0.618c0-0.352,0.288-0.628,0.64-0.628
			c0.341,0,0.628,0.277,0.628,0.628C357.727,257.218,357.439,257.495,357.099,257.495z"/>
		<path fill="#ACACAC" d="M362.604,259.401c-1.214-0.202-1.757,0.618-1.757,2.311v1.417c0.319,0.021,0.649,0.074,0.927,0.138v0.575
			h-2.812v-0.575c0.277-0.064,0.607-0.117,0.927-0.138v-3.824c-0.256-0.042-0.617-0.085-0.927-0.106v-0.575
			c0.533-0.064,1.268-0.106,1.854-0.075c0,0.33-0.032,0.82-0.106,1.257h0.011c0.234-0.735,0.767-1.47,1.928-1.353L362.604,259.401z"
			/>
		<path fill="#ACACAC" d="M367.714,261.18h-3.462c-0.042,1.385,0.522,1.981,1.673,1.981c0.511,0,1.044-0.106,1.512-0.309
			l0.139,0.756c-0.532,0.213-1.171,0.33-1.832,0.33c-1.608,0-2.481-0.852-2.481-2.716c0-1.576,0.884-2.769,2.386-2.769
			c1.48,0,2.099,0.99,2.099,2.173C367.746,260.754,367.735,260.967,367.714,261.18z M365.584,259.178
			c-0.692,0-1.183,0.511-1.3,1.321h2.481C366.787,259.689,366.329,259.178,365.584,259.178z"/>
	</g>
</g>
<g>
	<g enable-background="new    ">
		<path fill="#ACACAC" d="M167.281,185.489c-0.405,0-1.076-0.032-1.843-0.032h-0.926v-0.575c0.277-0.064,0.607-0.117,0.926-0.138
			v-5.762c-0.319-0.021-0.649-0.075-0.926-0.139v-0.575h0.905c0.511,0,1.204-0.032,2.066-0.032c1.544,0,2.301,0.65,2.301,1.726
			c0,0.756-0.405,1.406-1.182,1.672v0.021c1.001,0.17,1.459,0.905,1.459,1.651C170.061,184.168,169.528,185.489,167.281,185.489z
			 M167.313,179.024c-0.33,0-0.607,0.011-0.905,0.021v2.322c0.213,0.011,0.394,0.011,0.661,0.011c1.182,0,1.693-0.469,1.693-1.257
			C168.762,179.482,168.432,179.024,167.313,179.024z M167.089,182.113c-0.127,0-0.511,0-0.682,0.011v2.513
			c0.192,0.032,0.511,0.053,0.938,0.053c1.171,0,1.683-0.575,1.683-1.353C169.028,182.411,168.187,182.113,167.089,182.113z"/>
		<path fill="#ACACAC" d="M170.783,185.457v-0.575c0.266-0.064,0.585-0.117,0.895-0.138v-6.305
			c-0.256-0.043-0.607-0.085-0.916-0.107v-0.575c0.543-0.064,1.257-0.107,1.875-0.075v7.062c0.309,0.021,0.628,0.074,0.895,0.138
			v0.575H170.783z"/>
		<path fill="#ACACAC" d="M177.417,185.457c0-0.373,0.011-0.756,0.064-1.054h-0.021c-0.255,0.649-0.927,1.15-1.8,1.15
			c-0.874,0-1.47-0.543-1.47-1.395c0-1.14,1.182-1.811,3.174-1.811v-0.394c0-0.746-0.266-1.161-1.108-1.161
			c-0.319,0-0.692,0.053-0.99,0.149c-0.021,0.267-0.075,0.565-0.128,0.863h-0.596v-1.448c0.532-0.17,1.171-0.298,1.8-0.298
			c1.555,0,1.992,0.714,1.992,1.768v2.875c0.255,0.043,0.607,0.085,0.895,0.106v0.575
			C178.728,185.446,177.993,185.489,177.417,185.457z M177.364,183.007c-1.662,0-2.237,0.416-2.237,1.001
			c0,0.458,0.32,0.789,0.81,0.789c0.852,0,1.427-0.842,1.427-1.672V183.007z"/>
		<path fill="#ACACAC" d="M182.24,185.542c-1.31,0-2.396-0.607-2.396-2.557c0-1.704,0.863-2.907,2.631-2.907
			c0.447,0,0.927,0.074,1.299,0.191v1.544h-0.596c-0.064-0.309-0.106-0.607-0.139-0.863c-0.181-0.053-0.426-0.085-0.713-0.085
			c-0.948,0-1.48,0.799-1.48,1.959c0,1.076,0.351,1.885,1.598,1.885c0.458,0,0.905-0.096,1.267-0.255l0.16,0.799
			C183.465,185.404,182.879,185.542,182.24,185.542z"/>
		<path fill="#ACACAC" d="M188.246,185.457l-2.045-2.769v2.056c0.288,0.021,0.564,0.063,0.799,0.138v0.575h-2.652v-0.575
			c0.266-0.064,0.585-0.117,0.895-0.138v-6.305c-0.256-0.043-0.607-0.085-0.916-0.107v-0.575c0.533-0.064,1.257-0.107,1.875-0.075
			v4.899l1.534-1.715c-0.245-0.032-0.479-0.064-0.628-0.128v-0.575h2.535v0.575c-0.224,0.064-0.49,0.106-0.756,0.139l-1.598,1.704
			l1.672,2.151c0.245,0.021,0.554,0.074,0.852,0.138v0.586H188.246z"/>
		<path fill="#ACACAC" d="M200.704,180.867l-1.448,4.59h-1.097l-1.043-3.121c-0.117-0.33-0.213-0.682-0.298-1.055h-0.011
			c-0.117,0.469-0.245,0.884-0.383,1.332l-0.884,2.844h-1.107l-1.363-4.59c-0.234-0.021-0.469-0.064-0.682-0.128v-0.575h2.439v0.575
			c-0.224,0.064-0.469,0.106-0.735,0.128l0.649,2.364c0.117,0.437,0.245,0.863,0.331,1.204h0.01
			c0.096-0.447,0.224-0.884,0.362-1.299l0.948-2.972h0.991l0.958,2.972c0.192,0.628,0.288,0.937,0.373,1.299h0.011
			c0.096-0.373,0.192-0.682,0.33-1.161l0.692-2.407c-0.245-0.021-0.511-0.064-0.735-0.128v-0.575h2.375v0.575
			C201.172,180.803,200.938,180.845,200.704,180.867z"/>
		<path fill="#ACACAC" d="M201.755,185.457v-0.575c0.277-0.064,0.607-0.117,0.926-0.138v-3.824
			c-0.255-0.042-0.618-0.085-0.926-0.106v-0.575c0.532-0.064,1.267-0.106,1.885-0.075v4.58c0.309,0.021,0.628,0.074,0.895,0.138
			v0.575H201.755z M203.172,179.109c-0.352,0-0.639-0.267-0.639-0.618c0-0.352,0.288-0.628,0.639-0.628
			c0.341,0,0.628,0.277,0.628,0.628C203.8,178.833,203.513,179.109,203.172,179.109z"/>
		<path fill="#ACACAC" d="M208.677,181.016c-1.214-0.202-1.757,0.618-1.757,2.311v1.417c0.32,0.021,0.65,0.074,0.927,0.138v0.575
			h-2.812v-0.575c0.277-0.064,0.607-0.117,0.926-0.138v-3.824c-0.255-0.042-0.618-0.085-0.926-0.106v-0.575
			c0.532-0.064,1.267-0.106,1.853-0.075c0,0.33-0.032,0.82-0.106,1.257h0.011c0.234-0.735,0.767-1.47,1.928-1.353L208.677,181.016z"
			/>
		<path fill="#ACACAC" d="M213.788,182.794h-3.461c-0.042,1.385,0.522,1.981,1.672,1.981c0.511,0,1.044-0.106,1.513-0.309
			l0.138,0.756c-0.532,0.213-1.171,0.33-1.832,0.33c-1.608,0-2.482-0.852-2.482-2.716c0-1.576,0.884-2.769,2.386-2.769
			c1.48,0,2.098,0.99,2.098,2.173C213.82,182.368,213.81,182.582,213.788,182.794z M211.658,180.792
			c-0.692,0-1.182,0.511-1.299,1.321h2.482C212.861,181.303,212.403,180.792,211.658,180.792z"/>
	</g>
</g>
<g>
	<g enable-background="new    ">
		<path fill="#ACACAC" d="M367.548,78.512c-0.404,0-1.076-0.032-1.843-0.032h-0.927v-0.575c0.277-0.064,0.607-0.117,0.927-0.138
			v-5.762c-0.319-0.021-0.649-0.075-0.927-0.139v-0.575h0.905c0.512,0,1.204-0.032,2.066-0.032c1.545,0,2.301,0.65,2.301,1.726
			c0,0.756-0.404,1.406-1.183,1.672v0.021c1.002,0.17,1.46,0.905,1.46,1.651C370.328,77.192,369.795,78.512,367.548,78.512z
			 M367.58,72.047c-0.33,0-0.607,0.011-0.905,0.021v2.322c0.213,0.011,0.394,0.011,0.66,0.011c1.182,0,1.693-0.469,1.693-1.257
			C369.028,72.505,368.698,72.047,367.58,72.047z M367.356,75.136c-0.128,0-0.512,0-0.682,0.011v2.513
			c0.191,0.032,0.511,0.053,0.937,0.053c1.172,0,1.684-0.575,1.684-1.353C369.295,75.435,368.453,75.136,367.356,75.136z"/>
		<path fill="#ACACAC" d="M371.05,78.48v-0.575c0.267-0.064,0.586-0.117,0.895-0.138v-6.305c-0.255-0.043-0.606-0.085-0.915-0.107
			V70.78c0.543-0.064,1.256-0.107,1.874-0.075v7.062c0.309,0.021,0.628,0.074,0.895,0.138v0.575H371.05z"/>
		<path fill="#ACACAC" d="M377.684,78.48c0-0.373,0.011-0.756,0.064-1.054h-0.021c-0.256,0.649-0.927,1.15-1.8,1.15
			s-1.47-0.543-1.47-1.395c0-1.14,1.182-1.811,3.174-1.811v-0.394c0-0.746-0.267-1.161-1.107-1.161c-0.32,0-0.692,0.053-0.991,0.149
			c-0.021,0.267-0.074,0.565-0.127,0.863h-0.597v-1.448c0.532-0.17,1.171-0.298,1.8-0.298c1.555,0,1.991,0.714,1.991,1.768v2.875
			c0.256,0.043,0.607,0.085,0.896,0.106v0.575C378.994,78.47,378.259,78.512,377.684,78.48z M377.631,76.031
			c-1.661,0-2.236,0.416-2.236,1.001c0,0.458,0.319,0.789,0.809,0.789c0.853,0,1.428-0.842,1.428-1.672V76.031z"/>
		<path fill="#ACACAC" d="M382.507,78.566c-1.31,0-2.396-0.607-2.396-2.557c0-1.704,0.863-2.907,2.631-2.907
			c0.447,0,0.927,0.074,1.3,0.191v1.544h-0.597c-0.064-0.309-0.106-0.607-0.139-0.863c-0.181-0.053-0.426-0.085-0.714-0.085
			c-0.947,0-1.48,0.799-1.48,1.959c0,1.076,0.352,1.885,1.598,1.885c0.458,0,0.905-0.096,1.268-0.255l0.16,0.799
			C383.731,78.427,383.146,78.566,382.507,78.566z"/>
		<path fill="#ACACAC" d="M388.513,78.48l-2.045-2.769v2.056c0.287,0.021,0.564,0.063,0.799,0.138v0.575h-2.652v-0.575
			c0.267-0.064,0.586-0.117,0.895-0.138v-6.305c-0.255-0.043-0.606-0.085-0.915-0.107V70.78c0.532-0.064,1.256-0.107,1.874-0.075
			v4.899l1.534-1.715c-0.245-0.032-0.479-0.064-0.629-0.128v-0.575h2.535v0.575c-0.224,0.064-0.49,0.106-0.757,0.139l-1.598,1.704
			l1.673,2.151c0.245,0.021,0.554,0.074,0.852,0.138v0.586H388.513z"/>
		<path fill="#ACACAC" d="M400.971,73.89l-1.448,4.59h-1.097l-1.044-3.121c-0.117-0.33-0.213-0.682-0.299-1.055h-0.01
			c-0.117,0.469-0.245,0.884-0.384,1.332l-0.884,2.844h-1.108l-1.363-4.59c-0.234-0.021-0.468-0.064-0.682-0.128v-0.575h2.439v0.575
			c-0.224,0.064-0.469,0.106-0.735,0.128l0.65,2.364c0.117,0.437,0.245,0.863,0.33,1.204h0.011c0.096-0.447,0.224-0.884,0.362-1.299
			l0.947-2.972h0.99l0.959,2.972c0.191,0.628,0.288,0.937,0.373,1.299h0.011c0.096-0.373,0.191-0.682,0.33-1.161l0.692-2.407
			c-0.245-0.021-0.512-0.064-0.735-0.128v-0.575h2.375v0.575C401.439,73.826,401.205,73.869,400.971,73.89z"/>
		<path fill="#ACACAC" d="M402.021,78.48v-0.575c0.277-0.064,0.607-0.117,0.927-0.138v-3.824c-0.256-0.042-0.617-0.085-0.927-0.106
			v-0.575c0.533-0.064,1.268-0.106,1.886-0.075v4.58c0.309,0.021,0.628,0.074,0.895,0.138v0.575H402.021z M403.438,72.133
			c-0.352,0-0.64-0.267-0.64-0.618c0-0.352,0.288-0.628,0.64-0.628c0.341,0,0.628,0.277,0.628,0.628
			C404.066,71.856,403.779,72.133,403.438,72.133z"/>
		<path fill="#ACACAC" d="M408.943,74.039c-1.214-0.202-1.757,0.618-1.757,2.311v1.417c0.319,0.021,0.649,0.074,0.927,0.138v0.575
			h-2.812v-0.575c0.277-0.064,0.607-0.117,0.927-0.138v-3.824c-0.256-0.042-0.617-0.085-0.927-0.106v-0.575
			c0.533-0.064,1.268-0.106,1.854-0.075c0,0.33-0.032,0.82-0.106,1.257h0.011c0.234-0.735,0.767-1.47,1.928-1.353L408.943,74.039z"
			/>
		<path fill="#ACACAC" d="M414.055,75.818h-3.462c-0.042,1.385,0.522,1.981,1.673,1.981c0.511,0,1.044-0.106,1.512-0.309
			l0.139,0.756c-0.532,0.213-1.172,0.33-1.832,0.33c-1.608,0-2.481-0.852-2.481-2.716c0-1.576,0.884-2.769,2.386-2.769
			c1.48,0,2.099,0.99,2.099,2.173C414.087,75.392,414.076,75.605,414.055,75.818z M411.925,73.815c-0.692,0-1.183,0.511-1.3,1.321
			h2.481C413.128,74.327,412.67,73.815,411.925,73.815z"/>
	</g>
</g>
<g>
	<g enable-background="new    ">
		<path fill="#ACACAC" d="M62.827,144.66l-1.992,3.952v1.832c0.319,0.021,0.65,0.074,0.927,0.138v0.575h-2.823v-0.575
			c0.277-0.064,0.607-0.117,0.927-0.138v-1.821l-1.949-3.962c-0.191-0.01-0.468-0.064-0.649-0.117v-0.575h2.524v0.575
			c-0.245,0.064-0.511,0.107-0.777,0.128l0.852,1.885c0.181,0.383,0.373,0.81,0.522,1.193h0.011c0.16-0.405,0.373-0.874,0.564-1.268
			l0.841-1.811c-0.277-0.021-0.554-0.064-0.788-0.128v-0.575h2.45v0.575C63.295,144.596,63.019,144.65,62.827,144.66z"/>
		<path fill="#ACACAC" d="M67.554,148.495h-3.461c-0.042,1.385,0.522,1.981,1.672,1.981c0.511,0,1.044-0.106,1.513-0.309
			l0.138,0.756c-0.532,0.213-1.171,0.33-1.832,0.33c-1.608,0-2.482-0.852-2.482-2.716c0-1.576,0.884-2.769,2.386-2.769
			c1.48,0,2.098,0.99,2.098,2.173C67.585,148.068,67.575,148.282,67.554,148.495z M65.423,146.492c-0.692,0-1.182,0.511-1.299,1.321
			h2.482C66.627,147.003,66.169,146.492,65.423,146.492z"/>
		<path fill="#ACACAC" d="M68.266,151.157v-0.575c0.266-0.064,0.585-0.117,0.895-0.138v-6.305c-0.256-0.043-0.607-0.085-0.916-0.107
			v-0.575c0.543-0.064,1.257-0.107,1.875-0.075v7.062c0.309,0.021,0.628,0.074,0.895,0.138v0.575H68.266z"/>
		<path fill="#ACACAC" d="M71.396,151.157v-0.575c0.266-0.064,0.585-0.117,0.895-0.138v-6.305c-0.256-0.043-0.607-0.085-0.916-0.107
			v-0.575c0.543-0.064,1.257-0.107,1.875-0.075v7.062c0.309,0.021,0.628,0.074,0.895,0.138v0.575H71.396z"/>
		<path fill="#ACACAC" d="M77.071,151.253c-1.448,0-2.375-0.831-2.375-2.663c0-1.587,0.98-2.822,2.578-2.822
			c1.342,0,2.375,0.735,2.375,2.663C79.649,150.018,78.669,151.253,77.071,151.253z M77.188,146.567
			c-0.777,0-1.501,0.586-1.501,1.949c0,1.225,0.511,1.928,1.491,1.928c0.788,0,1.48-0.618,1.48-1.938
			C78.659,147.27,78.147,146.567,77.188,146.567z"/>
		<path fill="#ACACAC" d="M88.242,146.567l-1.448,4.59h-1.097l-1.043-3.121c-0.117-0.33-0.213-0.682-0.298-1.055h-0.011
			c-0.117,0.469-0.245,0.884-0.383,1.332l-0.884,2.844h-1.107l-1.363-4.59c-0.234-0.021-0.469-0.064-0.682-0.128v-0.575h2.439v0.575
			c-0.224,0.064-0.469,0.106-0.735,0.128l0.649,2.364c0.117,0.437,0.245,0.863,0.331,1.204h0.01
			c0.096-0.447,0.224-0.884,0.362-1.299l0.948-2.972h0.991l0.958,2.972c0.192,0.628,0.288,0.937,0.373,1.299h0.01
			c0.096-0.373,0.192-0.682,0.331-1.161l0.692-2.407c-0.245-0.021-0.511-0.064-0.735-0.128v-0.575h2.375v0.575
			C88.711,146.503,88.477,146.545,88.242,146.567z"/>
		<path fill="#ACACAC" d="M99.688,146.567l-1.448,4.59h-1.097l-1.043-3.121c-0.117-0.33-0.213-0.682-0.298-1.055H95.79
			c-0.117,0.469-0.245,0.884-0.383,1.332l-0.884,2.844h-1.107l-1.363-4.59c-0.234-0.021-0.469-0.064-0.682-0.128v-0.575h2.439v0.575
			c-0.224,0.064-0.469,0.106-0.735,0.128l0.649,2.364c0.117,0.437,0.245,0.863,0.331,1.204h0.01
			c0.096-0.447,0.224-0.884,0.362-1.299l0.948-2.972h0.991l0.958,2.972c0.192,0.628,0.288,0.937,0.373,1.299h0.01
			c0.096-0.373,0.192-0.682,0.331-1.161l0.692-2.407c-0.245-0.021-0.511-0.064-0.735-0.128v-0.575h2.375v0.575
			C100.156,146.503,99.922,146.545,99.688,146.567z"/>
		<path fill="#ACACAC" d="M100.739,151.157v-0.575c0.277-0.064,0.607-0.117,0.926-0.138v-3.824
			c-0.255-0.042-0.618-0.085-0.926-0.106v-0.575c0.532-0.064,1.267-0.106,1.885-0.075v4.58c0.309,0.021,0.628,0.074,0.895,0.138
			v0.575H100.739z M102.156,144.81c-0.352,0-0.639-0.267-0.639-0.618c0-0.352,0.288-0.628,0.639-0.628
			c0.341,0,0.628,0.277,0.628,0.628C102.784,144.533,102.497,144.81,102.156,144.81z"/>
		<path fill="#ACACAC" d="M107.661,146.716c-1.214-0.202-1.757,0.618-1.757,2.311v1.417c0.32,0.021,0.65,0.074,0.927,0.138v0.575
			h-2.812v-0.575c0.277-0.064,0.607-0.117,0.926-0.138v-3.824c-0.255-0.042-0.618-0.085-0.926-0.106v-0.575
			c0.532-0.064,1.267-0.106,1.853-0.075c0,0.33-0.032,0.82-0.106,1.257h0.011c0.234-0.735,0.767-1.47,1.928-1.353L107.661,146.716z"
			/>
		<path fill="#ACACAC" d="M112.772,148.495h-3.461c-0.042,1.385,0.522,1.981,1.672,1.981c0.511,0,1.044-0.106,1.513-0.309
			l0.138,0.756c-0.532,0.213-1.171,0.33-1.832,0.33c-1.608,0-2.482-0.852-2.482-2.716c0-1.576,0.884-2.769,2.386-2.769
			c1.48,0,2.098,0.99,2.098,2.173C112.804,148.068,112.793,148.282,112.772,148.495z M110.642,146.492
			c-0.692,0-1.182,0.511-1.299,1.321h2.482C111.845,147.003,111.387,146.492,110.642,146.492z"/>
	</g>
</g>
<g>
	<g enable-background="new    ">
		<path fill="#ACACAC" d="M418.742,224.262l-1.991,3.952v1.832c0.319,0.021,0.649,0.074,0.927,0.138v0.575h-2.822v-0.575
			c0.276-0.064,0.606-0.117,0.927-0.138v-1.821l-1.949-3.962c-0.192-0.01-0.469-0.064-0.65-0.117v-0.575h2.524v0.575
			c-0.245,0.064-0.511,0.107-0.777,0.128l0.853,1.885c0.181,0.383,0.372,0.81,0.521,1.193h0.011
			c0.159-0.405,0.373-0.874,0.564-1.268l0.842-1.811c-0.277-0.021-0.555-0.064-0.789-0.128v-0.575h2.45v0.575
			C419.211,224.198,418.935,224.251,418.742,224.262z"/>
		<path fill="#ACACAC" d="M423.47,228.096h-3.462c-0.042,1.385,0.522,1.981,1.673,1.981c0.511,0,1.044-0.106,1.512-0.309
			l0.139,0.756c-0.532,0.213-1.171,0.33-1.832,0.33c-1.608,0-2.481-0.852-2.481-2.716c0-1.576,0.884-2.769,2.386-2.769
			c1.48,0,2.099,0.99,2.099,2.173C423.502,227.67,423.491,227.883,423.47,228.096z M421.34,226.094c-0.692,0-1.183,0.511-1.3,1.321
			h2.481C422.543,226.605,422.085,226.094,421.34,226.094z"/>
		<path fill="#ACACAC" d="M424.182,230.759v-0.575c0.267-0.064,0.586-0.117,0.895-0.138v-6.305
			c-0.255-0.043-0.606-0.085-0.916-0.107v-0.575c0.544-0.064,1.257-0.107,1.875-0.075v7.062c0.309,0.021,0.628,0.074,0.895,0.138
			v0.575H424.182z"/>
		<path fill="#ACACAC" d="M427.312,230.759v-0.575c0.267-0.064,0.586-0.117,0.895-0.138v-6.305
			c-0.255-0.043-0.606-0.085-0.915-0.107v-0.575c0.543-0.064,1.256-0.107,1.874-0.075v7.062c0.309,0.021,0.628,0.074,0.895,0.138
			v0.575H427.312z"/>
		<path fill="#ACACAC" d="M432.987,230.854c-1.448,0-2.375-0.831-2.375-2.663c0-1.587,0.98-2.822,2.577-2.822
			c1.343,0,2.376,0.735,2.376,2.663C435.565,229.619,434.585,230.854,432.987,230.854z M433.104,226.168
			c-0.777,0-1.502,0.586-1.502,1.949c0,1.225,0.512,1.928,1.491,1.928c0.788,0,1.48-0.618,1.48-1.938
			C434.574,226.871,434.063,226.168,433.104,226.168z"/>
		<path fill="#ACACAC" d="M444.158,226.168l-1.448,4.59h-1.097l-1.044-3.121c-0.117-0.33-0.213-0.682-0.299-1.055h-0.01
			c-0.117,0.469-0.245,0.884-0.384,1.332l-0.884,2.844h-1.108l-1.363-4.59c-0.234-0.021-0.468-0.064-0.682-0.128v-0.575h2.439v0.575
			c-0.224,0.064-0.469,0.106-0.735,0.128l0.65,2.364c0.117,0.437,0.245,0.863,0.33,1.204h0.011c0.096-0.447,0.224-0.884,0.362-1.299
			l0.947-2.972h0.99l0.959,2.972c0.191,0.628,0.288,0.937,0.373,1.299h0.011c0.096-0.373,0.191-0.682,0.33-1.161l0.692-2.407
			c-0.245-0.021-0.512-0.064-0.735-0.128v-0.575h2.375v0.575C444.627,226.104,444.393,226.147,444.158,226.168z"/>
		<path fill="#ACACAC" d="M455.604,226.168l-1.448,4.59h-1.097l-1.044-3.121c-0.117-0.33-0.213-0.682-0.299-1.055h-0.01
			c-0.117,0.469-0.245,0.884-0.384,1.332l-0.884,2.844h-1.108l-1.363-4.59c-0.234-0.021-0.468-0.064-0.682-0.128v-0.575h2.439v0.575
			c-0.224,0.064-0.469,0.106-0.735,0.128l0.65,2.364c0.117,0.437,0.245,0.863,0.33,1.204h0.011c0.096-0.447,0.224-0.884,0.362-1.299
			l0.947-2.972h0.99l0.959,2.972c0.191,0.628,0.288,0.937,0.373,1.299h0.011c0.096-0.373,0.191-0.682,0.33-1.161l0.692-2.407
			c-0.245-0.021-0.512-0.064-0.735-0.128v-0.575h2.375v0.575C456.072,226.104,455.838,226.147,455.604,226.168z"/>
		<path fill="#ACACAC" d="M456.654,230.759v-0.575c0.277-0.064,0.607-0.117,0.927-0.138v-3.824
			c-0.256-0.042-0.617-0.085-0.927-0.106v-0.575c0.533-0.064,1.268-0.106,1.886-0.075v4.58c0.309,0.021,0.628,0.074,0.895,0.138
			v0.575H456.654z M458.071,224.411c-0.352,0-0.64-0.267-0.64-0.618c0-0.352,0.288-0.628,0.64-0.628
			c0.341,0,0.628,0.277,0.628,0.628C458.699,224.134,458.412,224.411,458.071,224.411z"/>
		<path fill="#ACACAC" d="M463.576,226.317c-1.214-0.202-1.757,0.618-1.757,2.311v1.417c0.319,0.021,0.649,0.074,0.927,0.138v0.575
			h-2.812v-0.575c0.277-0.064,0.607-0.117,0.927-0.138v-3.824c-0.256-0.042-0.617-0.085-0.927-0.106v-0.575
			c0.533-0.064,1.268-0.106,1.854-0.075c0,0.33-0.032,0.82-0.106,1.257h0.011c0.234-0.735,0.767-1.47,1.928-1.353L463.576,226.317z"
			/>
		<path fill="#ACACAC" d="M468.688,228.096h-3.462c-0.042,1.385,0.522,1.981,1.673,1.981c0.511,0,1.044-0.106,1.512-0.309
			l0.139,0.756c-0.532,0.213-1.172,0.33-1.832,0.33c-1.608,0-2.481-0.852-2.481-2.716c0-1.576,0.884-2.769,2.386-2.769
			c1.48,0,2.099,0.99,2.099,2.173C468.72,227.67,468.709,227.883,468.688,228.096z M466.558,226.094c-0.692,0-1.183,0.511-1.3,1.321
			h2.481C467.761,226.605,467.303,226.094,466.558,226.094z"/>
	</g>
</g>
<g>
	<g enable-background="new    ">
		<path fill="#010101" d="M182.124,221.105v2.631c-0.713,0.266-1.587,0.415-2.375,0.415c-2.173,0-3.568-1.32-3.568-3.546
			c0-2.215,1.395-3.834,3.834-3.834c0.682,0,1.332,0.096,1.971,0.256v1.693h-0.703c-0.064-0.352-0.106-0.66-0.138-0.948
			c-0.394-0.106-0.82-0.16-1.214-0.16c-1.523,0-2.705,0.948-2.705,2.876c0,1.789,1.043,2.812,2.663,2.812
			c0.479,0,0.884-0.074,1.267-0.191v-2.002c-0.319-0.021-0.649-0.075-0.916-0.139v-0.575h2.588v0.585
			C182.603,221.031,182.369,221.074,182.124,221.105z"/>
		<path fill="#010101" d="M187.074,219.614c-1.214-0.202-1.757,0.618-1.757,2.311v1.417c0.32,0.021,0.65,0.074,0.927,0.138v0.575
			h-2.812v-0.575c0.277-0.064,0.607-0.117,0.926-0.138v-3.824c-0.255-0.042-0.618-0.085-0.926-0.106v-0.575
			c0.532-0.064,1.267-0.106,1.853-0.075c0,0.33-0.032,0.82-0.106,1.257h0.011c0.234-0.735,0.767-1.47,1.928-1.353L187.074,219.614z"
			/>
		<path fill="#010101" d="M190.107,224.151c-1.448,0-2.375-0.831-2.375-2.663c0-1.587,0.98-2.822,2.578-2.822
			c1.342,0,2.375,0.735,2.375,2.663C192.685,222.916,191.705,224.151,190.107,224.151z M190.225,219.465
			c-0.777,0-1.501,0.586-1.501,1.949c0,1.225,0.511,1.928,1.491,1.928c0.788,0,1.48-0.618,1.48-1.938
			C191.695,220.168,191.184,219.465,190.225,219.465z"/>
		<path fill="#010101" d="M197.604,224.056c0-0.319,0.021-0.788,0.075-1.118h-0.021c-0.309,0.724-0.958,1.214-1.864,1.214
			c-1.214,0-1.587-0.756-1.587-1.693v-2.939c-0.256-0.042-0.607-0.085-0.895-0.106v-0.575c0.5-0.064,1.225-0.106,1.842-0.075v3.408
			c0,0.746,0.213,1.193,0.905,1.193c0.874,0,1.513-0.895,1.513-2.066v-1.79c-0.245-0.032-0.575-0.075-0.863-0.096v-0.575
			c0.522-0.064,1.225-0.106,1.811-0.075v4.537c0.255,0.043,0.607,0.085,0.895,0.106v0.575
			C198.914,224.045,198.179,224.087,197.604,224.056z"/>
		<path fill="#010101" d="M204.205,224.056v-3.408c0-0.746-0.202-1.193-0.895-1.193c-0.874,0-1.513,0.895-1.513,2.066v1.821
			c0.288,0.021,0.597,0.063,0.852,0.138v0.575h-2.737v-0.575c0.277-0.064,0.607-0.117,0.926-0.138v-3.824
			c-0.255-0.042-0.618-0.085-0.926-0.106v-0.575c0.532-0.064,1.267-0.106,1.853-0.075c0,0.309-0.021,0.799-0.075,1.118h0.011
			c0.309-0.724,0.969-1.214,1.875-1.214c1.204,0,1.587,0.756,1.587,1.693v2.982c0.309,0.021,0.628,0.074,0.884,0.138v0.575H204.205z
			"/>
		<path fill="#010101" d="M210.337,224.056c0-0.298,0.021-0.767,0.085-1.076l-0.021-0.011c-0.298,0.714-0.948,1.182-1.779,1.182
			c-1.299,0-1.949-0.948-1.949-2.492c0-1.853,1.065-2.971,2.737-2.971c0.288,0,0.575,0.021,0.895,0.053v-1.704
			c-0.255-0.043-0.618-0.085-0.926-0.107v-0.575c0.532-0.064,1.267-0.107,1.885-0.075v7.019c0.256,0.043,0.607,0.085,0.895,0.106
			v0.575C211.658,224.045,210.923,224.087,210.337,224.056z M210.305,219.561c-0.319-0.075-0.639-0.117-0.937-0.117
			c-1.012,0-1.683,0.607-1.683,2.13c0,1.14,0.373,1.789,1.171,1.789c0.958,0,1.448-1.118,1.448-2.045V219.561z"/>
	</g>
</g>
<path fill="none" stroke="#231F20" stroke-width="1.9896" d="M457.847,53.854"/>
<path fill="none" stroke="#231F20" stroke-width="1.9896" d="M521.697,175.207"/>
<path fill="none" stroke="#7E8387" stroke-width="0.6494" d="M449.381,147.809"/>
<path fill="none" stroke="#818181" stroke-width="1.32" stroke-linecap="round" d="M450.319,110.884
	c0,0,19.168-11.758,26.106-35.395c4.468-15.286,3.291-46.211,3.291-46.211"/>
<g>
	<g>
		<g>
			<path fill="#020202" d="M548.742,285.271c-3.646,0-6.938-3.059-6.938-6.585c0-3.646,3.059-6.586,6.938-6.586
				c1.528,0,2.704,0.354,3.645,1.177v-9.878c-1.175,0.588-2.352,1.177-3.645,1.177c-3.646,0-6.938-3.059-6.938-6.585
				c0-3.528,3.059-6.587,6.938-6.587c1.528,0,2.704,0.354,3.645,1.177v-5.761h-14.109v-6.938h-84.9v6.938h-14.463v5.761h14.463
				v31.866h-14.463v5.998h14.109v7.525h85.254v-7.525h14.109v-5.763C551.446,285.035,549.919,285.271,548.742,285.271z"/>
		</g>
	</g>
	<path fill="#FFFFFF" stroke="#CACDD3" stroke-width="0.6494" d="M460.552,243.409c13.768,0,24.928,11.267,24.928,25.165
		c0,13.896-11.16,25.163-24.928,25.163c-13.771,0-24.931-11.267-24.931-25.163C435.621,254.675,446.781,243.409,460.552,243.409z"/>
	<ellipse fill="#FFFFFF" stroke="#CACDD3" stroke-width="0.6494" cx="460.552" cy="268.572" rx="9.877" ry="9.877"/>
	<ellipse fill="#FFFFFF" stroke="#CACDD3" stroke-width="0.6494" cx="478.188" cy="268.573" rx="3.881" ry="3.881"/>
	<ellipse fill="#FFFFFF" stroke="#CACDD3" stroke-width="0.6494" cx="472.779" cy="256.226" rx="3.881" ry="3.881"/>
	<ellipse fill="#FFFFFF" stroke="#CACDD3" stroke-width="0.6494" cx="460.552" cy="251.052" rx="3.881" ry="3.881"/>
	<ellipse fill="#FFFFFF" stroke="#CACDD3" stroke-width="0.6494" cx="448.203" cy="256.226" rx="3.881" ry="3.881"/>
	<path fill="#FFFFFF" stroke="#CACDD3" stroke-width="0.6494" d="M443.382,272.688c-2.117,0-3.88-1.763-3.88-3.88
		c0-2.116,1.763-3.881,3.88-3.881c2.116,0,3.882,1.765,3.882,3.881C447.264,270.572,445.498,272.688,443.382,272.688z"/>
	<ellipse fill="#FFFFFF" stroke="#CACDD3" stroke-width="0.6494" cx="448.203" cy="280.802" rx="3.88" ry="3.88"/>
	<ellipse fill="#FFFFFF" stroke="#CACDD3" stroke-width="0.6494" cx="460.552" cy="286.211" rx="3.881" ry="3.881"/>
	<ellipse fill="#FFFFFF" stroke="#CACDD3" stroke-width="0.6494" cx="472.779" cy="281.155" rx="3.88" ry="3.88"/>
</g>
<path fill="none" stroke="#ACACAC" stroke-width="1.32" stroke-linecap="round" d="M435.034,262.811
	c0,0-42.568-13.523-37.276-58.795c5.291-45.271,52.211-85.252,52.211-85.252"/>
<path fill="none" stroke="#010101" stroke-width="1.32" stroke-linecap="round" d="M434.445,266.104c0,0-73.258,6.938-61.498-81.96
	c11.405-85.841-29.163-129.702-29.163-129.702"/>
<path fill="none" stroke="#414141" stroke-width="1.32" stroke-linecap="round" d="M434.445,271.159
	c0,0-70.553,18.934-93.953-82.547c-11.054-48.329,13.758-101.715-5.057-125.468"/>
<path fill="none" stroke="#414141" stroke-width="1.32" stroke-linecap="round" d="M286.988,28.102c0,0-7.525,18.932,24.576,33.866"
	/>
<path fill="none" stroke="#010101" stroke-width="1.32" stroke-linecap="round" d="M306.508,28.102c0,0-7.173,5.41,4.821,27.046"/>
<g>
	<g enable-background="new    ">
		<path fill="#010101" d="M275.492,16.148v2.141h-0.916v-2.141h-2.023v-0.799h2.023v-2.13h0.916v2.13h2.024v0.799H275.492z"/>
		<path fill="#010101" d="M279.367,20.983c-0.277,0-0.543-0.021-0.788-0.053l0.085-0.884c0.213,0.053,0.5,0.085,0.767,0.085
			c1.31,0,1.992-0.671,1.992-1.555s-0.713-1.534-2.023-1.534c-0.203,0-0.394,0-0.607,0.011v-3.675h3.398v0.938h-2.482v1.906
			c1.79,0,2.759,0.938,2.759,2.205C282.467,19.908,281.146,20.983,279.367,20.983z"/>
		<path fill="#010101" d="M289.473,12.42l-2.375,6.497h-1.097l-2.312-6.497c-0.202-0.01-0.468-0.064-0.649-0.117v-0.575h2.577v0.575
			c-0.255,0.053-0.564,0.107-0.852,0.128l1.331,3.919c0.149,0.416,0.33,0.969,0.479,1.491h0.01c0.128-0.49,0.309-1.012,0.49-1.565
			l1.384-3.845c-0.287-0.021-0.585-0.075-0.841-0.128v-0.575h2.492v0.575C289.941,12.356,289.665,12.41,289.473,12.42z"/>
	</g>
</g>
<g>
	<g enable-background="new    ">
		<path fill="#010101" d="M310.256,15.967v2.631c-0.713,0.266-1.586,0.415-2.375,0.415c-2.172,0-3.567-1.32-3.567-3.546
			c0-2.215,1.395-3.834,3.834-3.834c0.682,0,1.331,0.096,1.971,0.256v1.693h-0.703c-0.063-0.352-0.106-0.66-0.138-0.948
			c-0.395-0.106-0.82-0.16-1.215-0.16c-1.523,0-2.705,0.948-2.705,2.876c0,1.789,1.043,2.812,2.662,2.812
			c0.479,0,0.885-0.074,1.268-0.191v-2.002c-0.319-0.021-0.649-0.075-0.916-0.139v-0.575h2.588v0.585
			C310.736,15.892,310.502,15.935,310.256,15.967z"/>
		<path fill="#010101" d="M315.207,14.476c-1.215-0.202-1.758,0.618-1.758,2.311v1.417c0.32,0.021,0.65,0.074,0.927,0.138v0.575
			h-2.812v-0.575c0.277-0.064,0.607-0.117,0.926-0.138V14.38c-0.255-0.042-0.617-0.085-0.926-0.106v-0.575
			c0.532-0.064,1.268-0.106,1.854-0.075c0,0.33-0.032,0.82-0.107,1.257h0.012c0.233-0.735,0.766-1.47,1.928-1.353L315.207,14.476z"
			/>
		<path fill="#010101" d="M318.24,19.013c-1.448,0-2.375-0.831-2.375-2.663c0-1.587,0.98-2.822,2.578-2.822
			c1.342,0,2.375,0.735,2.375,2.663C320.818,17.777,319.838,19.013,318.24,19.013z M318.357,14.327
			c-0.777,0-1.502,0.586-1.502,1.949c0,1.225,0.512,1.928,1.492,1.928c0.787,0,1.48-0.618,1.48-1.938
			C319.828,15.029,319.316,14.327,318.357,14.327z"/>
		<path fill="#010101" d="M325.737,18.917c0-0.319,0.021-0.788,0.074-1.118h-0.021c-0.309,0.724-0.958,1.214-1.864,1.214
			c-1.214,0-1.587-0.756-1.587-1.693V14.38c-0.255-0.042-0.606-0.085-0.895-0.106v-0.575c0.501-0.064,1.226-0.106,1.843-0.075v3.408
			c0,0.746,0.213,1.193,0.905,1.193c0.873,0,1.513-0.895,1.513-2.066v-1.79c-0.245-0.032-0.575-0.075-0.863-0.096v-0.575
			c0.522-0.064,1.226-0.106,1.811-0.075v4.537c0.256,0.043,0.607,0.085,0.896,0.106v0.575
			C327.047,18.906,326.312,18.949,325.737,18.917z"/>
		<path fill="#010101" d="M332.338,18.917v-3.408c0-0.746-0.203-1.193-0.896-1.193c-0.873,0-1.512,0.895-1.512,2.066v1.821
			c0.287,0.021,0.596,0.063,0.852,0.138v0.575h-2.737v-0.575c0.277-0.064,0.607-0.117,0.927-0.138V14.38
			c-0.256-0.042-0.617-0.085-0.927-0.106v-0.575c0.533-0.064,1.268-0.106,1.854-0.075c0,0.309-0.021,0.799-0.074,1.118h0.011
			c0.309-0.724,0.969-1.214,1.874-1.214c1.203,0,1.587,0.756,1.587,1.693v2.982c0.309,0.021,0.629,0.074,0.884,0.138v0.575H332.338z
			"/>
		<path fill="#010101" d="M338.471,18.917c0-0.298,0.021-0.767,0.085-1.076l-0.021-0.011c-0.298,0.714-0.947,1.182-1.778,1.182
			c-1.3,0-1.949-0.948-1.949-2.492c0-1.853,1.065-2.971,2.737-2.971c0.288,0,0.575,0.021,0.895,0.053v-1.704
			c-0.256-0.043-0.617-0.085-0.927-0.107v-0.575c0.533-0.064,1.268-0.107,1.886-0.075v7.019c0.255,0.043,0.606,0.085,0.895,0.106
			v0.575C339.791,18.906,339.057,18.949,338.471,18.917z M338.438,14.422c-0.319-0.075-0.639-0.117-0.938-0.117
			c-1.012,0-1.683,0.607-1.683,2.13c0,1.14,0.373,1.789,1.172,1.789c0.959,0,1.448-1.118,1.448-2.045V14.422z"/>
	</g>
</g>
<g>
	<g enable-background="new    ">
		<path fill="#010101" d="M441.606,18.959c-0.724,0-1.416-0.042-1.811-0.042h-0.927v-0.575c0.277-0.064,0.607-0.117,0.927-0.138
			v-5.762c-0.319-0.021-0.649-0.075-0.927-0.139v-0.575h0.905c0.564,0,1.385-0.032,2.162-0.032c2.312,0,3.686,1.076,3.686,3.547
			C445.622,17.703,443.961,18.959,441.606,18.959z M441.852,12.495c-0.383,0-0.81,0.021-1.086,0.032v5.538
			c0.276,0.042,0.66,0.064,0.958,0.064c1.693,0,2.865-0.874,2.865-2.822C444.589,13.475,443.716,12.495,441.852,12.495z"/>
		<path fill="#010101" d="M446.418,18.917v-0.575c0.277-0.064,0.607-0.117,0.927-0.138V14.38c-0.256-0.042-0.617-0.085-0.927-0.106
			v-0.575c0.533-0.064,1.268-0.106,1.886-0.075v4.58c0.309,0.021,0.628,0.074,0.895,0.138v0.575H446.418z M447.835,12.569
			c-0.352,0-0.64-0.267-0.64-0.618c0-0.352,0.288-0.628,0.64-0.628c0.341,0,0.628,0.277,0.628,0.628
			C448.463,12.292,448.176,12.569,447.835,12.569z"/>
		<path fill="#010101" d="M452.041,21.644c-1.363,0-2.227-0.564-2.227-1.587c0-0.618,0.405-1.14,0.884-1.406
			c-0.319-0.139-0.521-0.437-0.521-0.788c0-0.373,0.234-0.725,0.586-0.895c-0.479-0.288-0.777-0.767-0.777-1.459
			c0-1.065,0.799-1.981,2.247-1.981c0.287,0,0.479,0.032,0.745,0.096h1.801v0.756h-0.874c0.267,0.213,0.426,0.564,0.426,0.98
			c0,1.086-0.734,1.917-2.236,1.917c-0.213,0-0.373-0.021-0.564-0.075c-0.224,0.106-0.341,0.277-0.341,0.447
			c0,0.298,0.267,0.394,0.905,0.416l0.97,0.032c1.14,0.043,1.778,0.575,1.778,1.534C454.842,20.749,453.702,21.644,452.041,21.644z
			 M452.786,18.896l-1.022-0.042c-0.096,0-0.224,0-0.309-0.011c-0.416,0.288-0.682,0.639-0.682,1.044
			c0,0.628,0.597,1.001,1.427,1.001c1.076,0,1.673-0.49,1.673-1.14C453.873,19.236,453.532,18.917,452.786,18.896z M452.189,14.241
			c-0.799,0-1.257,0.511-1.257,1.182c0,0.735,0.438,1.161,1.226,1.161c0.756,0,1.225-0.426,1.225-1.161
			C453.383,14.699,452.957,14.241,452.189,14.241z"/>
		<path fill="#010101" d="M455.457,18.917v-0.575c0.277-0.064,0.607-0.117,0.927-0.138V14.38c-0.256-0.042-0.617-0.085-0.927-0.106
			v-0.575c0.533-0.064,1.268-0.106,1.886-0.075v4.58c0.309,0.021,0.628,0.074,0.895,0.138v0.575H455.457z M456.874,12.569
			c-0.352,0-0.64-0.267-0.64-0.618c0-0.352,0.288-0.628,0.64-0.628c0.341,0,0.628,0.277,0.628,0.628
			C457.502,12.292,457.215,12.569,456.874,12.569z"/>
		<path fill="#010101" d="M460.899,19.002c-1.087,0-1.417-0.448-1.417-1.587v-3.046h-1.086v-0.746h1.086v-1.715l0.959-0.266v1.981
			h1.48v0.746h-1.48v2.705c0,0.874,0.17,1.108,0.756,1.108c0.245,0,0.479-0.032,0.671-0.085l0.096,0.789
			C461.655,18.959,461.24,19.002,460.899,19.002z"/>
		<path fill="#010101" d="M466.01,18.917c0-0.373,0.011-0.756,0.064-1.054h-0.021c-0.256,0.649-0.927,1.15-1.8,1.15
			s-1.47-0.543-1.47-1.395c0-1.14,1.182-1.811,3.174-1.811v-0.394c0-0.746-0.267-1.161-1.107-1.161c-0.32,0-0.692,0.053-0.991,0.149
			c-0.021,0.267-0.074,0.565-0.127,0.863h-0.597v-1.448c0.532-0.17,1.171-0.298,1.8-0.298c1.555,0,1.991,0.714,1.991,1.768v2.875
			c0.256,0.043,0.607,0.085,0.896,0.106v0.575C467.32,18.906,466.585,18.949,466.01,18.917z M465.957,16.467
			c-1.661,0-2.236,0.416-2.236,1.001c0,0.458,0.319,0.789,0.809,0.789c0.853,0,1.428-0.842,1.428-1.672V16.467z"/>
		<path fill="#010101" d="M468.191,18.917v-0.575c0.267-0.064,0.586-0.117,0.895-0.138v-6.305c-0.255-0.043-0.606-0.085-0.916-0.107
			v-0.575c0.544-0.064,1.257-0.107,1.875-0.075v7.062c0.309,0.021,0.628,0.074,0.895,0.138v0.575H468.191z"/>
		<path fill="#010101" d="M473.748,18.917v-0.575c0.277-0.064,0.607-0.117,0.927-0.138v-5.762c-0.319-0.021-0.649-0.075-0.927-0.139
			v-0.575h2.823v0.575c-0.277,0.064-0.607,0.117-0.927,0.139v5.762c0.319,0.021,0.649,0.074,0.927,0.138v0.575H473.748z"/>
		<path fill="#010101" d="M477.816,20.632H476.9l3.728-9.777h0.916L477.816,20.632z"/>
		<path fill="#010101" d="M485.185,19.023c-2.12,0-3.206-1.438-3.206-3.61c0-2.407,1.534-3.792,3.408-3.792
			c2.109,0,3.206,1.438,3.206,3.611C488.593,17.639,487.048,19.023,485.185,19.023z M485.291,12.484c-1.289,0-2.29,0.98-2.29,2.78
			c0,1.726,0.756,2.897,2.279,2.897c1.278,0,2.279-0.979,2.279-2.78C487.56,13.656,486.804,12.484,485.291,12.484z"/>
		<path fill="#010101" d="M494.309,16.446c-0.298,0-0.564-0.021-0.756-0.042v1.8c0.319,0.021,0.649,0.074,0.927,0.138v0.575h-2.823
			v-0.575c0.277-0.064,0.607-0.117,0.927-0.138v-5.762c-0.319-0.021-0.649-0.075-0.927-0.139v-0.575h0.927
			c0.319,0,1.193-0.043,1.864-0.043c1.938,0,2.737,1.022,2.737,2.248C497.185,15.392,496.066,16.446,494.309,16.446z
			 M494.341,12.484c-0.277,0-0.575,0-0.788,0.021v3.078c0.191,0.032,0.489,0.064,0.841,0.064c1.204,0,1.779-0.714,1.779-1.587
			C496.173,13.262,495.735,12.484,494.341,12.484z"/>
		<path fill="#010101" d="M497.747,18.917v-0.575c0.277-0.064,0.607-0.117,0.927-0.138V14.38c-0.256-0.042-0.617-0.085-0.927-0.106
			v-0.575c0.533-0.064,1.268-0.106,1.886-0.075v4.58c0.309,0.021,0.628,0.074,0.895,0.138v0.575H497.747z M499.164,12.569
			c-0.352,0-0.64-0.267-0.64-0.618c0-0.352,0.288-0.628,0.64-0.628c0.341,0,0.628,0.277,0.628,0.628
			C499.792,12.292,499.505,12.569,499.164,12.569z"/>
		<path fill="#010101" d="M505.318,18.917v-3.408c0-0.746-0.202-1.193-0.895-1.193c-0.873,0-1.512,0.895-1.512,2.066v1.821
			c0.287,0.021,0.596,0.063,0.852,0.138v0.575h-2.737v-0.575c0.277-0.064,0.607-0.117,0.927-0.138V14.38
			c-0.256-0.042-0.617-0.085-0.927-0.106v-0.575c0.533-0.064,1.268-0.106,1.854-0.075c0,0.309-0.021,0.799-0.074,1.118h0.011
			c0.309-0.724,0.969-1.214,1.874-1.214c1.203,0,1.587,0.756,1.587,1.693v2.982c0.309,0.021,0.629,0.074,0.884,0.138v0.575H505.318z
			"/>
		<path fill="#010101" d="M512.835,19.023c-1.491,0-2.62-0.863-2.62-2.822c0-1.821,1.3-2.929,2.844-2.929
			c1.747,0,2.62,1.14,2.62,2.801C515.679,17.937,514.369,19.023,512.835,19.023z M512.984,14.082c-1.001,0-1.8,0.767-1.8,2.056
			c0,1.171,0.521,2.077,1.735,2.077c0.991,0,1.79-0.767,1.79-2.066C514.71,14.987,514.177,14.082,512.984,14.082z"/>
	</g>
</g>
<g>
	<g enable-background="new    ">
		<path fill="#010101" d="M24.036,117.71c-0.725,0-1.417-0.042-1.811-0.042h-0.926v-0.575c0.277-0.064,0.607-0.117,0.926-0.138
			v-5.762c-0.319-0.021-0.649-0.075-0.926-0.139v-0.575h0.905c0.564,0,1.384-0.032,2.162-0.032c2.311,0,3.685,1.076,3.685,3.547
			C28.051,116.454,26.389,117.71,24.036,117.71z M24.28,111.246c-0.383,0-0.81,0.021-1.086,0.032v5.538
			c0.277,0.042,0.661,0.064,0.958,0.064c1.694,0,2.865-0.874,2.865-2.822C27.018,112.226,26.144,111.246,24.28,111.246z"/>
		<path fill="#010101" d="M28.847,117.668v-0.575c0.277-0.064,0.607-0.117,0.926-0.138v-3.824c-0.255-0.042-0.618-0.085-0.926-0.106
			v-0.575c0.532-0.064,1.267-0.106,1.885-0.075v4.58c0.309,0.021,0.628,0.074,0.895,0.138v0.575H28.847z M30.264,111.32
			c-0.352,0-0.639-0.267-0.639-0.618c0-0.352,0.288-0.628,0.639-0.628c0.341,0,0.628,0.277,0.628,0.628
			C30.892,111.043,30.604,111.32,30.264,111.32z"/>
		<path fill="#010101" d="M34.469,120.395c-1.363,0-2.226-0.564-2.226-1.587c0-0.618,0.405-1.14,0.884-1.406
			c-0.319-0.139-0.522-0.437-0.522-0.788c0-0.373,0.234-0.725,0.586-0.895c-0.479-0.288-0.777-0.767-0.777-1.459
			c0-1.065,0.798-1.981,2.247-1.981c0.288,0,0.479,0.032,0.746,0.096h1.8v0.756h-0.874c0.267,0.213,0.426,0.564,0.426,0.98
			c0,1.086-0.735,1.917-2.237,1.917c-0.213,0-0.373-0.021-0.564-0.075c-0.224,0.106-0.341,0.277-0.341,0.447
			c0,0.298,0.267,0.394,0.905,0.416l0.969,0.032c1.14,0.043,1.779,0.575,1.779,1.534C37.271,119.5,36.131,120.395,34.469,120.395z
			 M35.215,117.646l-1.022-0.042c-0.096,0-0.224,0-0.309-0.011c-0.416,0.288-0.682,0.639-0.682,1.044
			c0,0.628,0.596,1.001,1.427,1.001c1.076,0,1.672-0.49,1.672-1.14C36.301,117.987,35.96,117.668,35.215,117.646z M34.619,112.992
			c-0.799,0-1.257,0.511-1.257,1.182c0,0.735,0.437,1.161,1.225,1.161c0.756,0,1.225-0.426,1.225-1.161
			C35.812,113.45,35.385,112.992,34.619,112.992z"/>
		<path fill="#010101" d="M37.886,117.668v-0.575c0.277-0.064,0.607-0.117,0.926-0.138v-3.824c-0.255-0.042-0.618-0.085-0.926-0.106
			v-0.575c0.532-0.064,1.267-0.106,1.885-0.075v4.58c0.309,0.021,0.628,0.074,0.895,0.138v0.575H37.886z M39.303,111.32
			c-0.352,0-0.639-0.267-0.639-0.618c0-0.352,0.288-0.628,0.639-0.628c0.341,0,0.628,0.277,0.628,0.628
			C39.931,111.043,39.644,111.32,39.303,111.32z"/>
		<path fill="#010101" d="M43.328,117.753c-1.086,0-1.417-0.448-1.417-1.587v-3.046h-1.086v-0.746h1.086v-1.715l0.958-0.266v1.981
			h1.48v0.746h-1.48v2.705c0,0.874,0.17,1.108,0.756,1.108c0.245,0,0.479-0.032,0.671-0.085l0.096,0.789
			C44.084,117.71,43.668,117.753,43.328,117.753z"/>
		<path fill="#010101" d="M48.438,117.668c0-0.373,0.011-0.756,0.064-1.054h-0.021c-0.255,0.649-0.926,1.15-1.8,1.15
			s-1.47-0.543-1.47-1.395c0-1.14,1.182-1.811,3.174-1.811v-0.394c0-0.746-0.266-1.161-1.108-1.161c-0.319,0-0.692,0.053-0.99,0.149
			c-0.021,0.267-0.075,0.565-0.128,0.863h-0.596v-1.448c0.532-0.17,1.171-0.298,1.8-0.298c1.555,0,1.992,0.714,1.992,1.768v2.875
			c0.255,0.043,0.607,0.085,0.895,0.106v0.575C49.749,117.657,49.014,117.7,48.438,117.668z M48.385,115.218
			c-1.662,0-2.237,0.416-2.237,1.001c0,0.458,0.32,0.789,0.81,0.789c0.852,0,1.427-0.842,1.427-1.672V115.218z"/>
		<path fill="#010101" d="M50.62,117.668v-0.575c0.266-0.064,0.585-0.117,0.895-0.138v-6.305c-0.256-0.043-0.607-0.085-0.916-0.107
			v-0.575c0.543-0.064,1.257-0.107,1.875-0.075v7.062c0.309,0.021,0.628,0.074,0.895,0.138v0.575H50.62z"/>
		<path fill="#010101" d="M56.178,117.668v-0.575c0.277-0.064,0.607-0.117,0.926-0.138v-5.762c-0.319-0.021-0.649-0.075-0.926-0.139
			v-0.575H59v0.575c-0.277,0.064-0.607,0.117-0.927,0.139v5.762c0.32,0.021,0.65,0.074,0.927,0.138v0.575H56.178z"/>
		<path fill="#010101" d="M60.245,119.383h-0.916l3.728-9.777h0.916L60.245,119.383z"/>
		<path fill="#010101" d="M67.614,117.774c-2.12,0-3.206-1.438-3.206-3.61c0-2.407,1.534-3.792,3.408-3.792
			c2.109,0,3.206,1.438,3.206,3.611C71.022,116.39,69.478,117.774,67.614,117.774z M67.72,111.235c-1.289,0-2.29,0.98-2.29,2.78
			c0,1.726,0.756,2.897,2.279,2.897c1.278,0,2.279-0.979,2.279-2.78C69.989,112.407,69.232,111.235,67.72,111.235z"/>
		<path fill="#010101" d="M76.738,115.197c-0.298,0-0.564-0.021-0.756-0.042v1.8c0.32,0.021,0.65,0.074,0.927,0.138v0.575h-2.822
			v-0.575c0.277-0.064,0.607-0.117,0.926-0.138v-5.762c-0.319-0.021-0.649-0.075-0.926-0.139v-0.575h0.926
			c0.32,0,1.193-0.043,1.864-0.043c1.938,0,2.737,1.022,2.737,2.248C79.613,114.143,78.495,115.197,76.738,115.197z M76.77,111.235
			c-0.277,0-0.575,0-0.788,0.021v3.078c0.192,0.032,0.49,0.064,0.842,0.064c1.203,0,1.778-0.714,1.778-1.587
			C78.602,112.013,78.165,111.235,76.77,111.235z"/>
		<path fill="#010101" d="M80.176,117.668v-0.575c0.277-0.064,0.607-0.117,0.926-0.138v-3.824c-0.255-0.042-0.618-0.085-0.926-0.106
			v-0.575c0.532-0.064,1.267-0.106,1.885-0.075v4.58c0.309,0.021,0.628,0.074,0.895,0.138v0.575H80.176z M81.592,111.32
			c-0.352,0-0.639-0.267-0.639-0.618c0-0.352,0.288-0.628,0.639-0.628c0.341,0,0.628,0.277,0.628,0.628
			C82.221,111.043,81.933,111.32,81.592,111.32z"/>
		<path fill="#010101" d="M87.747,117.668v-3.408c0-0.746-0.202-1.193-0.895-1.193c-0.874,0-1.513,0.895-1.513,2.066v1.821
			c0.288,0.021,0.597,0.063,0.852,0.138v0.575h-2.737v-0.575c0.277-0.064,0.607-0.117,0.926-0.138v-3.824
			c-0.255-0.042-0.618-0.085-0.926-0.106v-0.575c0.532-0.064,1.267-0.106,1.853-0.075c0,0.309-0.021,0.799-0.075,1.118h0.011
			c0.309-0.724,0.969-1.214,1.875-1.214c1.204,0,1.587,0.756,1.587,1.693v2.982c0.309,0.021,0.628,0.074,0.884,0.138v0.575H87.747z"
			/>
		<path fill="#010101" d="M95.263,117.774c-1.491,0-2.62-0.863-2.62-2.822c0-1.821,1.3-2.929,2.844-2.929
			c1.747,0,2.62,1.14,2.62,2.801C98.107,116.688,96.797,117.774,95.263,117.774z M95.413,112.833c-1.001,0-1.8,0.767-1.8,2.056
			c0,1.171,0.522,2.077,1.736,2.077c0.99,0,1.789-0.767,1.789-2.066C97.138,113.738,96.605,112.833,95.413,112.833z"/>
	</g>
</g>
</svg>
