<?xml version="1.0" encoding="utf-8"?>
<!-- Generator: Adobe Illustrator 16.0.4, SVG Export Plug-In . SVG Version: 6.00 Build 0)  -->
<!DOCTYPE svg PUBLIC "-//W3C//DTD SVG 1.1//EN" "http://www.w3.org/Graphics/SVG/1.1/DTD/svg11.dtd">
<svg version="1.1" id="Layer_1" xmlns="http://www.w3.org/2000/svg" xmlns:xlink="http://www.w3.org/1999/xlink" x="0px" y="0px"
	 width="650px" height="240px" viewBox="-19 0 650 240" enable-background="new -19 0 650 240" xml:space="preserve">
<g enable-background="new    ">
	<path fill="#010101" d="M376.463,19.157v-0.591c0.263-0.055,0.569-0.109,0.854-0.131l-0.427-1.214h-3.085l-0.427,1.214
		c0.284,0.022,0.602,0.077,0.864,0.131v0.591h-2.561v-0.591c0.197-0.055,0.471-0.109,0.668-0.12l2.429-6.674h1.225l2.44,6.674
		c0.196,0.011,0.47,0.065,0.667,0.12v0.591H376.463z M375.697,13.807c-0.132-0.383-0.241-0.711-0.34-1.072h-0.021
		c-0.088,0.35-0.197,0.689-0.317,1.061l-0.951,2.625h2.57L375.697,13.807z"/>
	<path fill="#010101" d="M383.898,19.157v-3.501c0-0.766-0.208-1.226-0.919-1.226c-0.897,0-1.554,0.919-1.554,2.123v1.871
		c0.295,0.022,0.612,0.065,0.875,0.142v0.591h-2.812v-0.591c0.284-0.065,0.623-0.12,0.952-0.142v-3.928
		c-0.263-0.044-0.635-0.087-0.952-0.109v-0.591c0.547-0.066,1.302-0.109,1.903-0.077c0,0.317-0.021,0.821-0.076,1.149h0.011
		c0.317-0.744,0.996-1.248,1.926-1.248c1.236,0,1.63,0.777,1.63,1.74v3.063c0.317,0.022,0.646,0.077,0.908,0.142v0.591H383.898z"/>
	<path fill="#010101" d="M389.714,19.157c0-0.383,0.012-0.777,0.066-1.083h-0.022c-0.263,0.667-0.951,1.182-1.849,1.182
		s-1.51-0.558-1.51-1.434c0-1.17,1.214-1.86,3.26-1.86v-0.405c0-0.766-0.273-1.192-1.138-1.192c-0.328,0-0.711,0.055-1.018,0.153
		c-0.021,0.273-0.076,0.58-0.131,0.886h-0.612v-1.488c0.547-0.175,1.203-0.306,1.849-0.306c1.598,0,2.046,0.733,2.046,1.816v2.954
		c0.263,0.044,0.624,0.087,0.919,0.109v0.591C391.06,19.146,390.305,19.19,389.714,19.157z M389.659,16.641
		c-1.706,0-2.297,0.426-2.297,1.028c0,0.47,0.328,0.81,0.831,0.81c0.876,0,1.466-0.864,1.466-1.718V16.641z"/>
	<path fill="#010101" d="M391.954,19.157v-0.591c0.273-0.065,0.602-0.12,0.919-0.142v-6.477c-0.263-0.043-0.624-0.087-0.941-0.109
		v-0.591c0.559-0.065,1.291-0.109,1.926-0.077v7.254c0.317,0.022,0.646,0.077,0.919,0.142v0.591H391.954z"/>
	<path fill="#010101" d="M397.784,19.256c-1.488,0-2.44-0.854-2.44-2.735c0-1.63,1.007-2.899,2.647-2.899
		c1.379,0,2.44,0.755,2.44,2.735C400.432,17.987,399.425,19.256,397.784,19.256z M397.904,14.442c-0.799,0-1.543,0.602-1.543,2.002
		c0,1.258,0.525,1.98,1.532,1.98c0.81,0,1.521-0.635,1.521-1.991C399.414,15.164,398.889,14.442,397.904,14.442z"/>
	<path fill="#010101" d="M403.601,21.958c-1.4,0-2.287-0.58-2.287-1.63c0-0.634,0.416-1.17,0.908-1.444
		c-0.328-0.142-0.536-0.449-0.536-0.81c0-0.383,0.241-0.744,0.602-0.919c-0.492-0.295-0.799-0.788-0.799-1.499
		c0-1.094,0.821-2.035,2.309-2.035c0.296,0,0.492,0.033,0.766,0.099h1.85v0.777h-0.897c0.273,0.219,0.438,0.58,0.438,1.006
		c0,1.116-0.755,1.969-2.297,1.969c-0.219,0-0.384-0.021-0.58-0.076c-0.229,0.109-0.351,0.284-0.351,0.459
		c0,0.306,0.273,0.405,0.931,0.427l0.995,0.033c1.171,0.043,1.827,0.591,1.827,1.575C406.478,21.039,405.307,21.958,403.601,21.958z
		 M404.366,19.135l-1.051-0.043c-0.099,0-0.229,0-0.317-0.011c-0.427,0.295-0.7,0.657-0.7,1.072c0,0.646,0.613,1.028,1.467,1.028
		c1.104,0,1.718-0.503,1.718-1.17C405.482,19.485,405.132,19.157,404.366,19.135z M403.753,14.354c-0.82,0-1.291,0.525-1.291,1.214
		c0,0.755,0.449,1.192,1.259,1.192c0.776,0,1.258-0.438,1.258-1.192C404.979,14.825,404.541,14.354,403.753,14.354z"/>
	<path fill="#010101" d="M409.481,19.157v-0.591c0.284-0.065,0.623-0.12,0.951-0.142v-5.919c-0.328-0.022-0.667-0.077-0.951-0.142
		v-0.591h2.899v0.591c-0.285,0.065-0.624,0.12-0.952,0.142v5.919c0.328,0.022,0.667,0.077,0.952,0.142v0.591H409.481z"/>
	<path fill="#010101" d="M417.411,19.157v-3.501c0-0.766-0.208-1.226-0.919-1.226c-0.897,0-1.554,0.919-1.554,2.123v1.871
		c0.295,0.022,0.612,0.065,0.875,0.142v0.591h-2.812v-0.591c0.284-0.065,0.623-0.12,0.952-0.142v-3.928
		c-0.263-0.044-0.635-0.087-0.952-0.109v-0.591c0.547-0.066,1.302-0.109,1.903-0.077c0,0.317-0.021,0.821-0.076,1.149h0.011
		c0.317-0.744,0.995-1.248,1.926-1.248c1.236,0,1.63,0.777,1.63,1.74v3.063c0.317,0.022,0.646,0.077,0.908,0.142v0.591H417.411z"/>
	<path fill="#010101" d="M424.911,16.619c-0.306,0-0.58-0.022-0.776-0.044v1.849c0.328,0.022,0.667,0.077,0.952,0.142v0.591h-2.899
		v-0.591c0.284-0.065,0.623-0.12,0.951-0.142v-5.919c-0.328-0.022-0.667-0.077-0.951-0.142v-0.591h0.951
		c0.328,0,1.226-0.044,1.915-0.044c1.991,0,2.812,1.05,2.812,2.309C427.865,15.536,426.717,16.619,424.911,16.619z M424.944,12.549
		c-0.284,0-0.591,0-0.81,0.021v3.162c0.196,0.033,0.503,0.065,0.864,0.065c1.236,0,1.827-0.733,1.827-1.63
		C426.826,13.348,426.377,12.549,424.944,12.549z"/>
	<path fill="#010101" d="M428.441,19.157v-0.591c0.284-0.065,0.623-0.12,0.952-0.142v-3.928c-0.263-0.044-0.635-0.087-0.952-0.109
		v-0.591c0.547-0.066,1.302-0.109,1.937-0.077v4.705c0.317,0.022,0.646,0.077,0.919,0.142v0.591H428.441z M429.896,12.637
		c-0.361,0-0.656-0.273-0.656-0.635c0-0.361,0.295-0.646,0.656-0.646c0.35,0,0.646,0.285,0.646,0.646
		C430.542,12.352,430.246,12.637,429.896,12.637z"/>
	<path fill="#010101" d="M436.218,19.157v-3.501c0-0.766-0.208-1.226-0.919-1.226c-0.897,0-1.554,0.919-1.554,2.123v1.871
		c0.295,0.022,0.612,0.065,0.875,0.142v0.591h-2.812v-0.591c0.284-0.065,0.623-0.12,0.952-0.142v-3.928
		c-0.263-0.044-0.635-0.087-0.952-0.109v-0.591c0.547-0.066,1.302-0.109,1.903-0.077c0,0.317-0.021,0.821-0.076,1.149h0.011
		c0.317-0.744,0.995-1.248,1.926-1.248c1.236,0,1.63,0.777,1.63,1.74v3.063c0.317,0.022,0.646,0.077,0.908,0.142v0.591H436.218z"/>
	<path fill="#010101" d="M443.937,19.267c-1.531,0-2.691-0.886-2.691-2.899c0-1.871,1.335-3.008,2.922-3.008
		c1.794,0,2.691,1.17,2.691,2.877C446.858,18.151,445.513,19.267,443.937,19.267z M444.09,14.19c-1.028,0-1.849,0.788-1.849,2.111
		c0,1.204,0.536,2.133,1.783,2.133c1.018,0,1.838-0.788,1.838-2.123C445.862,15.12,445.315,14.19,444.09,14.19z"/>
</g>
<g enable-background="new    ">
	<path fill="#010101" d="M309.752,16.312v2.199h-0.941v-2.199h-2.078v-0.82h2.078v-2.188h0.941v2.188h2.078v0.82H309.752z"/>
	<path fill="#010101" d="M313.73,21.28c-0.285,0-0.559-0.022-0.81-0.055l0.087-0.908c0.219,0.055,0.515,0.087,0.788,0.087
		c1.346,0,2.046-0.689,2.046-1.597s-0.732-1.576-2.078-1.576c-0.209,0-0.405,0-0.624,0.011v-3.774h3.489v0.962h-2.549v1.958
		c1.838,0,2.834,0.963,2.834,2.265C316.914,20.175,315.557,21.28,313.73,21.28z"/>
	<path fill="#010101" d="M324.109,12.483l-2.439,6.674h-1.127l-2.374-6.674c-0.208-0.011-0.481-0.065-0.667-0.12v-0.591h2.647v0.591
		c-0.263,0.055-0.58,0.109-0.875,0.131l1.367,4.026c0.153,0.427,0.339,0.996,0.492,1.532h0.011c0.132-0.503,0.317-1.04,0.504-1.608
		l1.422-3.949c-0.295-0.022-0.602-0.077-0.864-0.131v-0.591h2.561v0.591C324.591,12.418,324.307,12.473,324.109,12.483z"/>
</g>
<g enable-background="new    ">
	<path fill="#010101" d="M519.135,16.126v2.703c-0.733,0.273-1.63,0.427-2.439,0.427c-2.232,0-3.665-1.357-3.665-3.644
		c0-2.275,1.433-3.938,3.938-3.938c0.7,0,1.367,0.099,2.023,0.263v1.739h-0.722c-0.065-0.361-0.109-0.678-0.143-0.974
		c-0.404-0.109-0.842-0.164-1.247-0.164c-1.564,0-2.778,0.974-2.778,2.954c0,1.838,1.072,2.888,2.734,2.888
		c0.493,0,0.908-0.077,1.303-0.197v-2.057c-0.328-0.021-0.668-0.076-0.941-0.142v-0.591h2.658v0.602
		C519.627,16.05,519.387,16.094,519.135,16.126z"/>
	<path fill="#010101" d="M524.218,14.595c-1.247-0.208-1.805,0.634-1.805,2.374v1.455c0.328,0.022,0.667,0.077,0.952,0.142v0.591
		h-2.889v-0.591c0.284-0.065,0.623-0.12,0.952-0.142v-3.928c-0.263-0.044-0.635-0.087-0.952-0.109v-0.591
		c0.547-0.066,1.302-0.109,1.903-0.077c0,0.339-0.032,0.842-0.109,1.291h0.011c0.241-0.755,0.788-1.51,1.98-1.39L524.218,14.595z"/>
	<path fill="#010101" d="M527.334,19.256c-1.488,0-2.44-0.854-2.44-2.735c0-1.63,1.007-2.899,2.647-2.899
		c1.379,0,2.44,0.755,2.44,2.735C529.981,17.987,528.975,19.256,527.334,19.256z M527.454,14.442c-0.799,0-1.543,0.602-1.543,2.002
		c0,1.258,0.525,1.98,1.532,1.98c0.81,0,1.521-0.635,1.521-1.991C528.964,15.164,528.438,14.442,527.454,14.442z"/>
	<path fill="#010101" d="M535.032,19.157c0-0.328,0.021-0.81,0.076-1.149h-0.021c-0.317,0.744-0.985,1.248-1.915,1.248
		c-1.247,0-1.63-0.777-1.63-1.74v-3.02c-0.263-0.044-0.624-0.087-0.919-0.109v-0.591c0.514-0.066,1.258-0.109,1.893-0.077v3.501
		c0,0.766,0.219,1.226,0.93,1.226c0.897,0,1.554-0.919,1.554-2.123v-1.838c-0.252-0.033-0.591-0.077-0.887-0.099v-0.591
		c0.536-0.066,1.259-0.109,1.86-0.077v4.661c0.263,0.044,0.624,0.087,0.919,0.109v0.591
		C536.378,19.146,535.622,19.19,535.032,19.157z"/>
	<path fill="#010101" d="M541.812,19.157v-3.501c0-0.766-0.208-1.226-0.919-1.226c-0.897,0-1.554,0.919-1.554,2.123v1.871
		c0.295,0.022,0.612,0.065,0.875,0.142v0.591h-2.812v-0.591c0.284-0.065,0.623-0.12,0.952-0.142v-3.928
		c-0.263-0.044-0.635-0.087-0.952-0.109v-0.591c0.547-0.066,1.302-0.109,1.903-0.077c0,0.317-0.021,0.821-0.076,1.149h0.011
		c0.317-0.744,0.995-1.248,1.926-1.248c1.236,0,1.63,0.777,1.63,1.74v3.063c0.317,0.022,0.646,0.077,0.908,0.142v0.591H541.812z"/>
	<path fill="#010101" d="M548.108,19.157c0-0.306,0.022-0.788,0.088-1.105l-0.022-0.011c-0.306,0.733-0.974,1.214-1.827,1.214
		c-1.334,0-2.002-0.974-2.002-2.56c0-1.904,1.095-3.053,2.812-3.053c0.295,0,0.59,0.022,0.919,0.055v-1.75
		c-0.263-0.043-0.635-0.087-0.952-0.109v-0.591c0.547-0.065,1.302-0.109,1.937-0.077v7.21c0.263,0.044,0.623,0.087,0.919,0.109
		v0.591C549.465,19.146,548.71,19.19,548.108,19.157z M548.076,14.541c-0.329-0.077-0.657-0.121-0.963-0.121
		c-1.04,0-1.729,0.624-1.729,2.188c0,1.171,0.383,1.838,1.203,1.838c0.984,0,1.488-1.149,1.488-2.101V14.541z"/>
</g>
<polyline fill="none" stroke="#010101" stroke-width="0.6897" points="158.381,34.402 158.381,69.916 153.097,72.743 
	165.753,77.289 152.114,81.466 164.401,86.873 152.114,90.068 159.118,92.895 159.118,129.514 152.605,131.848 165.753,136.395 
	152.605,141.801 165.999,145.979 152.605,151.017 158.627,153.351 158.627,179.525 "/>
<line fill="none" stroke="#010101" stroke-width="0.6897" x1="63.147" y1="117.84" x2="159.118" y2="117.84"/>
<circle fill="none" stroke="#010101" stroke-width="0.6897" cx="157.889" cy="81.713" r="18.063"/>
<g enable-background="new    ">
	<path fill="#010101" d="M149.397,26.26v2.199h-0.941V26.26h-2.079v-0.82h2.079v-2.188h0.941v2.188h2.079v0.82H149.397z"/>
	<path fill="#010101" d="M153.376,31.227c-0.285,0-0.558-0.022-0.81-0.055l0.087-0.908c0.219,0.055,0.514,0.087,0.788,0.087
		c1.346,0,2.046-0.689,2.046-1.597s-0.733-1.576-2.079-1.576c-0.208,0-0.405,0-0.624,0.011v-3.774h3.49v0.962h-2.549v1.958
		c1.838,0,2.833,0.963,2.833,2.265C156.56,30.122,155.203,31.227,153.376,31.227z"/>
	<path fill="#010101" d="M163.756,22.431l-2.44,6.674h-1.127l-2.374-6.674c-0.208-0.011-0.481-0.065-0.667-0.12V21.72h2.648v0.591
		c-0.263,0.055-0.58,0.109-0.875,0.131l1.368,4.026c0.153,0.427,0.339,0.996,0.492,1.532h0.011c0.131-0.503,0.317-1.04,0.503-1.608
		l1.422-3.949c-0.295-0.022-0.602-0.077-0.864-0.131V21.72h2.56v0.591C164.237,22.365,163.953,22.42,163.756,22.431z"/>
</g>
<g enable-background="new    ">
	<path fill="#010101" d="M25.847,99.33v-0.591c0.263-0.055,0.569-0.109,0.854-0.131l-0.427-1.214h-3.085l-0.427,1.214
		c0.285,0.022,0.602,0.077,0.865,0.131v0.591h-2.561v-0.591c0.197-0.055,0.471-0.109,0.667-0.12l2.429-6.674h1.226l2.44,6.674
		c0.197,0.011,0.47,0.065,0.667,0.12v0.591H25.847z M25.081,93.98c-0.131-0.383-0.241-0.711-0.339-1.072H24.72
		c-0.087,0.35-0.197,0.689-0.317,1.061l-0.952,2.625h2.571L25.081,93.98z"/>
	<path fill="#010101" d="M33.282,99.33v-3.501c0-0.766-0.208-1.226-0.919-1.226c-0.897,0-1.553,0.919-1.553,2.123v1.871
		c0.295,0.022,0.612,0.065,0.875,0.142v0.591h-2.812v-0.591c0.284-0.065,0.624-0.12,0.952-0.142v-3.928
		c-0.263-0.044-0.634-0.087-0.952-0.109v-0.591c0.547-0.066,1.302-0.109,1.903-0.077c0,0.317-0.021,0.821-0.076,1.149h0.011
		c0.317-0.744,0.996-1.248,1.926-1.248c1.236,0,1.63,0.777,1.63,1.74v3.063c0.317,0.022,0.646,0.077,0.908,0.142v0.591H33.282z"/>
	<path fill="#010101" d="M39.098,99.33c0-0.383,0.011-0.777,0.065-1.083h-0.021c-0.263,0.667-0.952,1.182-1.849,1.182
		s-1.51-0.558-1.51-1.434c0-1.17,1.214-1.86,3.26-1.86V95.73c0-0.766-0.273-1.192-1.138-1.192c-0.329,0-0.711,0.055-1.018,0.153
		c-0.022,0.273-0.077,0.58-0.131,0.886h-0.613v-1.488c0.547-0.175,1.204-0.306,1.849-0.306c1.597,0,2.046,0.733,2.046,1.816v2.954
		c0.263,0.044,0.624,0.087,0.919,0.109v0.591C40.444,99.319,39.689,99.363,39.098,99.33z M39.043,96.814
		c-1.707,0-2.297,0.426-2.297,1.028c0,0.47,0.328,0.81,0.831,0.81c0.875,0,1.466-0.864,1.466-1.718V96.814z"/>
	<path fill="#010101" d="M41.337,99.33v-0.591c0.273-0.065,0.602-0.12,0.919-0.142V92.12c-0.262-0.043-0.624-0.087-0.941-0.109
		V91.42c0.558-0.065,1.291-0.109,1.926-0.077v7.254c0.317,0.022,0.646,0.077,0.919,0.142v0.591H41.337z"/>
	<path fill="#010101" d="M47.167,99.429c-1.488,0-2.439-0.854-2.439-2.735c0-1.63,1.006-2.899,2.647-2.899
		c1.378,0,2.44,0.755,2.44,2.735C49.815,98.16,48.808,99.429,47.167,99.429z M47.288,94.615c-0.799,0-1.543,0.602-1.543,2.002
		c0,1.258,0.525,1.98,1.532,1.98c0.81,0,1.521-0.635,1.521-1.991C48.797,95.337,48.272,94.615,47.288,94.615z"/>
	<path fill="#010101" d="M52.984,102.131c-1.4,0-2.287-0.58-2.287-1.63c0-0.634,0.416-1.17,0.908-1.444
		c-0.328-0.142-0.536-0.449-0.536-0.81c0-0.383,0.241-0.744,0.602-0.919c-0.492-0.295-0.798-0.788-0.798-1.499
		c0-1.094,0.82-2.035,2.308-2.035c0.295,0,0.493,0.033,0.766,0.099h1.849v0.777h-0.897c0.273,0.219,0.438,0.58,0.438,1.006
		c0,1.116-0.755,1.969-2.297,1.969c-0.219,0-0.383-0.021-0.58-0.076c-0.23,0.109-0.35,0.284-0.35,0.459
		c0,0.306,0.273,0.405,0.93,0.427l0.996,0.033c1.171,0.043,1.827,0.591,1.827,1.575C55.861,101.212,54.691,102.131,52.984,102.131z
		 M53.75,99.308l-1.05-0.043c-0.099,0-0.23,0-0.317-0.011c-0.427,0.295-0.7,0.657-0.7,1.072c0,0.646,0.613,1.028,1.466,1.028
		c1.105,0,1.718-0.503,1.718-1.17C54.866,99.658,54.516,99.33,53.75,99.308z M53.137,94.527c-0.821,0-1.291,0.525-1.291,1.214
		c0,0.755,0.449,1.192,1.258,1.192c0.776,0,1.258-0.438,1.258-1.192C54.362,94.998,53.925,94.527,53.137,94.527z"/>
	<path fill="#010101" d="M58.865,99.33v-0.591c0.285-0.065,0.624-0.12,0.952-0.142v-5.919c-0.328-0.022-0.667-0.077-0.952-0.142
		v-0.591h2.899v0.591c-0.285,0.065-0.624,0.12-0.952,0.142v5.919c0.328,0.022,0.667,0.077,0.952,0.142v0.591H58.865z"/>
	<path fill="#010101" d="M66.795,99.33v-3.501c0-0.766-0.208-1.226-0.919-1.226c-0.897,0-1.553,0.919-1.553,2.123v1.871
		c0.295,0.022,0.612,0.065,0.875,0.142v0.591h-2.812v-0.591c0.284-0.065,0.624-0.12,0.952-0.142v-3.928
		c-0.263-0.044-0.634-0.087-0.952-0.109v-0.591c0.547-0.066,1.302-0.109,1.903-0.077c0,0.317-0.021,0.821-0.076,1.149h0.011
		c0.317-0.744,0.996-1.248,1.926-1.248c1.236,0,1.63,0.777,1.63,1.74v3.063c0.317,0.022,0.646,0.077,0.908,0.142v0.591H66.795z"/>
	<path fill="#010101" d="M74.295,96.792c-0.307,0-0.58-0.022-0.777-0.044v1.849c0.328,0.022,0.667,0.077,0.952,0.142v0.591H71.57
		v-0.591c0.285-0.065,0.624-0.12,0.952-0.142v-5.919c-0.328-0.022-0.667-0.077-0.952-0.142v-0.591h0.952
		c0.328,0,1.225-0.044,1.915-0.044c1.991,0,2.812,1.05,2.812,2.309C77.249,95.709,76.1,96.792,74.295,96.792z M74.328,92.722
		c-0.285,0-0.591,0-0.81,0.021v3.162c0.197,0.033,0.503,0.065,0.864,0.065c1.236,0,1.827-0.733,1.827-1.63
		C76.209,93.521,75.761,92.722,74.328,92.722z"/>
	<path fill="#010101" d="M77.825,99.33v-0.591c0.284-0.065,0.624-0.12,0.952-0.142v-3.928c-0.263-0.044-0.634-0.087-0.952-0.109
		v-0.591c0.547-0.066,1.302-0.109,1.937-0.077v4.705c0.317,0.022,0.646,0.077,0.919,0.142v0.591H77.825z M79.28,92.81
		c-0.361,0-0.657-0.273-0.657-0.635c0-0.361,0.295-0.646,0.657-0.646c0.35,0,0.646,0.285,0.646,0.646
		C79.926,92.525,79.63,92.81,79.28,92.81z"/>
	<path fill="#010101" d="M85.602,99.33v-3.501c0-0.766-0.208-1.226-0.919-1.226c-0.897,0-1.553,0.919-1.553,2.123v1.871
		c0.295,0.022,0.612,0.065,0.875,0.142v0.591h-2.812v-0.591c0.284-0.065,0.624-0.12,0.952-0.142v-3.928
		c-0.263-0.044-0.634-0.087-0.952-0.109v-0.591c0.547-0.066,1.302-0.109,1.903-0.077c0,0.317-0.021,0.821-0.076,1.149h0.011
		c0.317-0.744,0.996-1.248,1.926-1.248c1.236,0,1.63,0.777,1.63,1.74v3.063c0.317,0.022,0.646,0.077,0.908,0.142v0.591H85.602z"/>
	<path fill="#010101" d="M93.32,99.439c-1.532,0-2.691-0.886-2.691-2.899c0-1.871,1.334-3.008,2.921-3.008
		c1.794,0,2.691,1.17,2.691,2.877C96.241,98.324,94.896,99.439,93.32,99.439z M93.473,94.363c-1.028,0-1.849,0.788-1.849,2.111
		c0,1.204,0.536,2.133,1.783,2.133c1.018,0,1.838-0.788,1.838-2.123C95.246,95.293,94.699,94.363,93.473,94.363z"/>
</g>
<polygon fill="none" stroke="#010101" stroke-width="0.6897" points="56.388,109.729 64.007,118.085 56.388,126.44 36.482,126.44 
	36.482,109.729 "/>
<g>
	<polyline fill="none" stroke="#010101" stroke-width="0.6897" points="146.092,179.525 170.669,179.525 150.515,179.525 	"/>
	<line fill="none" stroke="#010101" stroke-width="0.6897" x1="150.761" y1="186.285" x2="165.999" y2="186.285"/>
	<line fill="none" stroke="#010101" stroke-width="0.6897" x1="155.431" y1="192.551" x2="161.207" y2="192.551"/>
</g>
<g enable-background="new    ">
	<path fill="#010101" d="M182.592,196.271v2.703c-0.733,0.273-1.63,0.427-2.439,0.427c-2.232,0-3.666-1.357-3.666-3.644
		c0-2.275,1.434-3.938,3.939-3.938c0.7,0,1.367,0.099,2.024,0.263v1.739h-0.722c-0.065-0.361-0.109-0.678-0.142-0.974
		c-0.405-0.109-0.842-0.164-1.248-0.164c-1.564,0-2.779,0.974-2.779,2.954c0,1.838,1.072,2.888,2.735,2.888
		c0.492,0,0.908-0.077,1.302-0.197v-2.057c-0.328-0.021-0.667-0.076-0.941-0.142v-0.591h2.659v0.602
		C183.084,196.195,182.844,196.238,182.592,196.271z"/>
	<path fill="#010101" d="M187.675,194.74c-1.248-0.208-1.805,0.634-1.805,2.374v1.455c0.328,0.022,0.667,0.077,0.952,0.142v0.591
		h-2.888v-0.591c0.284-0.065,0.624-0.12,0.952-0.142v-3.928c-0.263-0.044-0.634-0.087-0.952-0.109v-0.591
		c0.547-0.066,1.302-0.109,1.903-0.077c0,0.339-0.033,0.842-0.109,1.291h0.011c0.241-0.755,0.788-1.51,1.98-1.39L187.675,194.74z"/>
	<path fill="#010101" d="M190.79,199.4c-1.488,0-2.439-0.854-2.439-2.735c0-1.63,1.006-2.899,2.647-2.899
		c1.378,0,2.44,0.755,2.44,2.735C193.438,198.131,192.431,199.4,190.79,199.4z M190.911,194.586c-0.799,0-1.543,0.602-1.543,2.002
		c0,1.258,0.525,1.98,1.532,1.98c0.81,0,1.521-0.635,1.521-1.991C192.42,195.309,191.895,194.586,190.911,194.586z"/>
	<path fill="#010101" d="M198.489,199.302c0-0.328,0.022-0.81,0.077-1.149h-0.022c-0.317,0.744-0.984,1.248-1.915,1.248
		c-1.247,0-1.63-0.777-1.63-1.74v-3.02c-0.262-0.044-0.624-0.087-0.919-0.109v-0.591c0.514-0.066,1.258-0.109,1.893-0.077v3.501
		c0,0.766,0.219,1.226,0.93,1.226c0.897,0,1.554-0.919,1.554-2.123v-1.838c-0.252-0.033-0.591-0.077-0.886-0.099v-0.591
		c0.536-0.066,1.258-0.109,1.86-0.077v4.661c0.263,0.044,0.624,0.087,0.919,0.109v0.591
		C199.835,199.291,199.08,199.334,198.489,199.302z"/>
	<path fill="#010101" d="M205.269,199.302v-3.501c0-0.766-0.208-1.226-0.919-1.226c-0.897,0-1.553,0.919-1.553,2.123v1.871
		c0.295,0.022,0.612,0.065,0.875,0.142v0.591h-2.812v-0.591c0.284-0.065,0.624-0.12,0.952-0.142v-3.928
		c-0.263-0.044-0.634-0.087-0.952-0.109v-0.591c0.547-0.066,1.302-0.109,1.903-0.077c0,0.317-0.021,0.821-0.076,1.149h0.011
		c0.317-0.744,0.996-1.248,1.926-1.248c1.236,0,1.63,0.777,1.63,1.74v3.063c0.317,0.022,0.646,0.077,0.908,0.142v0.591H205.269z"/>
	<path fill="#010101" d="M211.566,199.302c0-0.306,0.022-0.788,0.088-1.105l-0.022-0.011c-0.307,0.733-0.974,1.214-1.827,1.214
		c-1.335,0-2.002-0.974-2.002-2.56c0-1.904,1.094-3.053,2.812-3.053c0.295,0,0.591,0.022,0.919,0.055v-1.75
		c-0.263-0.043-0.634-0.087-0.952-0.109v-0.591c0.547-0.065,1.302-0.109,1.937-0.077v7.21c0.262,0.044,0.624,0.087,0.919,0.109
		v0.591C212.923,199.291,212.168,199.334,211.566,199.302z M211.533,194.685c-0.328-0.077-0.656-0.121-0.963-0.121
		c-1.039,0-1.729,0.624-1.729,2.188c0,1.171,0.383,1.838,1.204,1.838c0.985,0,1.488-1.149,1.488-2.101V194.685z"/>
</g>
<g enable-background="new    ">
	<path fill="#010101" d="M178.311,143.795v-0.602c0.361-0.066,0.777-0.121,1.192-0.143v-4.037l-1.236,0.525l-0.164-0.832
		l1.619-0.624h0.799v4.967c0.306,0.022,0.646,0.077,0.985,0.143v0.602H178.311z"/>
	<path fill="#010101" d="M186.077,143.795v-0.591c0.219-0.055,0.459-0.099,0.689-0.12l-2.68-2.998v2.976
		c0.251,0.022,0.569,0.065,0.82,0.142v0.591h-2.768v-0.591c0.285-0.065,0.624-0.12,0.952-0.142v-5.919
		c-0.328-0.022-0.667-0.077-0.952-0.142v-0.591h2.768v0.591c-0.251,0.077-0.569,0.12-0.82,0.142v2.812l2.637-2.822
		c-0.241-0.022-0.525-0.066-0.755-0.131v-0.591h2.746v0.591c-0.23,0.055-0.515,0.109-0.766,0.131l-2.713,2.833l2.877,3.107
		c0.252,0.022,0.536,0.077,0.766,0.131v0.591H186.077z"/>
</g>
<g>
	<g>
		<polygon fill="#010101" points="171.65,63.403 175.583,55.293 179.517,59.471 		"/>
		<line fill="none" stroke="#010101" stroke-width="0.6897" x1="175.583" y1="59.471" x2="185.537" y2="49.518"/>
	</g>
	<g>
		<polygon fill="#010101" points="176.935,68.81 180.867,60.822 185.046,64.755 		"/>
		<line fill="none" stroke="#010101" stroke-width="0.6897" x1="180.867" y1="64.755" x2="190.821" y2="54.801"/>
	</g>
</g>
<g>
	<g>
		<g>
			<rect x="372.562" y="91.665" fill="none" stroke="#CDCCCC" stroke-width="0.6897" width="3.073" height="3.073"/>
			<rect x="372.562" y="99.776" fill="none" stroke="#CDCCCC" stroke-width="0.6897" width="3.073" height="3.072"/>
			<rect x="372.562" y="108.131" fill="none" stroke="#CDCCCC" stroke-width="0.6897" width="3.073" height="3.073"/>
			<rect x="372.562" y="116.243" fill="none" stroke="#CDCCCC" stroke-width="0.6897" width="3.073" height="3.071"/>
			<rect x="372.562" y="124.598" fill="none" stroke="#CDCCCC" stroke-width="0.6897" width="3.073" height="3.072"/>
		</g>
		<g>
			<rect x="380.917" y="91.665" fill="none" stroke="#CDCCCC" stroke-width="0.6897" width="3.072" height="3.073"/>
			<rect x="380.917" y="99.776" fill="none" stroke="#CDCCCC" stroke-width="0.6897" width="3.072" height="3.072"/>
			<rect x="380.917" y="108.131" fill="none" stroke="#CDCCCC" stroke-width="0.6897" width="3.072" height="3.073"/>
			<rect x="380.917" y="116.243" fill="none" stroke="#CDCCCC" stroke-width="0.6897" width="3.072" height="3.071"/>
			<rect x="380.917" y="124.598" fill="none" stroke="#CDCCCC" stroke-width="0.6897" width="3.072" height="3.072"/>
		</g>
		<g>
			<rect x="389.272" y="91.665" fill="none" stroke="#CDCCCC" stroke-width="0.6897" width="3.074" height="3.073"/>
			<rect x="389.272" y="99.776" fill="none" stroke="#CDCCCC" stroke-width="0.6897" width="3.074" height="3.072"/>
			<rect x="389.272" y="108.131" fill="none" stroke="#CDCCCC" stroke-width="0.6897" width="3.074" height="3.073"/>
			<rect x="389.272" y="116.243" fill="none" stroke="#CDCCCC" stroke-width="0.6897" width="3.074" height="3.071"/>
			<rect x="389.272" y="124.598" fill="none" stroke="#CDCCCC" stroke-width="0.6897" width="3.074" height="3.072"/>
		</g>
		<g>
			<rect x="397.63" y="91.665" fill="none" stroke="#CDCCCC" stroke-width="0.6897" width="3.07" height="3.073"/>
			<rect x="397.63" y="99.776" fill="none" stroke="#CDCCCC" stroke-width="0.6897" width="3.07" height="3.072"/>
			<rect x="397.63" y="108.131" fill="none" stroke="#CDCCCC" stroke-width="0.6897" width="3.07" height="3.073"/>
			<rect x="397.63" y="116.243" fill="none" stroke="#CDCCCC" stroke-width="0.6897" width="3.07" height="3.071"/>
			<rect x="397.63" y="124.598" fill="none" stroke="#CDCCCC" stroke-width="0.6897" width="3.07" height="3.072"/>
		</g>
		<g>
			<rect x="405.986" y="91.665" fill="none" stroke="#CDCCCC" stroke-width="0.6897" width="3.073" height="3.073"/>
			<rect x="405.986" y="99.776" fill="none" stroke="#CDCCCC" stroke-width="0.6897" width="3.073" height="3.072"/>
			<rect x="405.986" y="108.131" fill="none" stroke="#CDCCCC" stroke-width="0.6897" width="3.073" height="3.073"/>
			<rect x="405.986" y="116.243" fill="none" stroke="#CDCCCC" stroke-width="0.6897" width="3.073" height="3.071"/>
			<rect x="405.986" y="124.598" fill="none" stroke="#CDCCCC" stroke-width="0.6897" width="3.073" height="3.072"/>
		</g>
		<g>
			<rect x="414.341" y="91.665" fill="none" stroke="#CDCCCC" stroke-width="0.6897" width="3.071" height="3.073"/>
			<rect x="414.341" y="99.776" fill="none" stroke="#CDCCCC" stroke-width="0.6897" width="3.071" height="3.072"/>
			<rect x="414.341" y="108.131" fill="none" stroke="#CDCCCC" stroke-width="0.6897" width="3.071" height="3.073"/>
			<rect x="414.341" y="116.243" fill="none" stroke="#CDCCCC" stroke-width="0.6897" width="3.071" height="3.071"/>
			<rect x="414.341" y="124.598" fill="none" stroke="#CDCCCC" stroke-width="0.6897" width="3.071" height="3.072"/>
		</g>
		<g>
			<rect x="422.819" y="91.665" fill="none" stroke="#CDCCCC" stroke-width="0.6897" width="3.072" height="3.073"/>
			<rect x="422.819" y="99.776" fill="none" stroke="#CDCCCC" stroke-width="0.6897" width="3.072" height="3.072"/>
			<rect x="422.819" y="108.131" fill="none" stroke="#CDCCCC" stroke-width="0.6897" width="3.072" height="3.073"/>
			<rect x="422.819" y="116.243" fill="none" stroke="#CDCCCC" stroke-width="0.6897" width="3.072" height="3.071"/>
			<rect x="422.819" y="124.598" fill="none" stroke="#CDCCCC" stroke-width="0.6897" width="3.072" height="3.072"/>
		</g>
		<g>
			<rect x="431.177" y="91.665" fill="none" stroke="#CDCCCC" stroke-width="0.6897" width="3.072" height="3.073"/>
			<rect x="431.177" y="99.776" fill="none" stroke="#CDCCCC" stroke-width="0.6897" width="3.072" height="3.072"/>
			<rect x="431.177" y="108.131" fill="none" stroke="#CDCCCC" stroke-width="0.6897" width="3.072" height="3.073"/>
			<rect x="431.177" y="116.243" fill="none" stroke="#CDCCCC" stroke-width="0.6897" width="3.072" height="3.071"/>
			<rect x="431.177" y="124.598" fill="none" stroke="#CDCCCC" stroke-width="0.6897" width="3.072" height="3.072"/>
		</g>
		<g>
			<rect x="439.286" y="91.665" fill="none" stroke="#CDCCCC" stroke-width="0.6897" width="3.071" height="3.073"/>
			<rect x="439.286" y="99.776" fill="none" stroke="#CDCCCC" stroke-width="0.6897" width="3.071" height="3.072"/>
			<rect x="439.286" y="108.131" fill="none" stroke="#CDCCCC" stroke-width="0.6897" width="3.071" height="3.073"/>
			<rect x="439.286" y="116.243" fill="none" stroke="#CDCCCC" stroke-width="0.6897" width="3.071" height="3.071"/>
			<rect x="439.286" y="124.598" fill="none" stroke="#CDCCCC" stroke-width="0.6897" width="3.071" height="3.072"/>
		</g>
		<g>
			<rect x="447.888" y="91.665" fill="none" stroke="#CDCCCC" stroke-width="0.6897" width="3.073" height="3.073"/>
			<rect x="447.888" y="99.776" fill="none" stroke="#CDCCCC" stroke-width="0.6897" width="3.073" height="3.072"/>
			<rect x="447.888" y="108.131" fill="none" stroke="#CDCCCC" stroke-width="0.6897" width="3.073" height="3.073"/>
			<rect x="447.888" y="116.243" fill="none" stroke="#CDCCCC" stroke-width="0.6897" width="3.073" height="3.071"/>
			<rect x="447.888" y="124.598" fill="none" stroke="#CDCCCC" stroke-width="0.6897" width="3.073" height="3.072"/>
		</g>
		<g>
			<rect x="456.241" y="91.665" fill="none" stroke="#CDCCCC" stroke-width="0.6897" width="3.073" height="3.073"/>
			<rect x="456.241" y="99.776" fill="none" stroke="#CDCCCC" stroke-width="0.6897" width="3.073" height="3.072"/>
			<rect x="456.241" y="108.131" fill="none" stroke="#CDCCCC" stroke-width="0.6897" width="3.073" height="3.073"/>
			<rect x="456.241" y="116.243" fill="none" stroke="#CDCCCC" stroke-width="0.6897" width="3.073" height="3.071"/>
			<rect x="456.241" y="124.598" fill="none" stroke="#CDCCCC" stroke-width="0.6897" width="3.073" height="3.072"/>
		</g>
		<g>
			<rect x="464.601" y="91.665" fill="none" stroke="#CDCCCC" stroke-width="0.6897" width="3.07" height="3.073"/>
			<rect x="464.601" y="99.776" fill="none" stroke="#CDCCCC" stroke-width="0.6897" width="3.07" height="3.072"/>
			<rect x="464.601" y="108.131" fill="none" stroke="#CDCCCC" stroke-width="0.6897" width="3.07" height="3.073"/>
			<rect x="464.601" y="116.243" fill="none" stroke="#CDCCCC" stroke-width="0.6897" width="3.07" height="3.071"/>
			<rect x="464.601" y="124.598" fill="none" stroke="#CDCCCC" stroke-width="0.6897" width="3.07" height="3.072"/>
		</g>
		<g>
			<rect x="472.956" y="91.665" fill="none" stroke="#CDCCCC" stroke-width="0.6897" width="3.072" height="3.073"/>
			<rect x="472.956" y="99.776" fill="none" stroke="#CDCCCC" stroke-width="0.6897" width="3.072" height="3.072"/>
			<rect x="472.956" y="108.131" fill="none" stroke="#CDCCCC" stroke-width="0.6897" width="3.072" height="3.073"/>
			<rect x="472.956" y="116.243" fill="none" stroke="#CDCCCC" stroke-width="0.6897" width="3.072" height="3.071"/>
			<rect x="472.956" y="124.598" fill="none" stroke="#CDCCCC" stroke-width="0.6897" width="3.072" height="3.072"/>
		</g>
		<g>
			<rect x="481.312" y="91.665" fill="none" stroke="#CDCCCC" stroke-width="0.6897" width="3.072" height="3.073"/>
			<rect x="481.312" y="99.776" fill="none" stroke="#CDCCCC" stroke-width="0.6897" width="3.072" height="3.072"/>
			<rect x="481.312" y="108.131" fill="none" stroke="#CDCCCC" stroke-width="0.6897" width="3.072" height="3.073"/>
			<rect x="481.312" y="116.243" fill="none" stroke="#CDCCCC" stroke-width="0.6897" width="3.072" height="3.071"/>
			<rect x="481.312" y="124.598" fill="none" stroke="#CDCCCC" stroke-width="0.6897" width="3.072" height="3.072"/>
		</g>
		<g>
			<rect x="489.668" y="91.665" fill="none" stroke="#CDCCCC" stroke-width="0.6897" width="3.073" height="3.073"/>
			<rect x="489.668" y="99.776" fill="none" stroke="#CDCCCC" stroke-width="0.6897" width="3.073" height="3.072"/>
			<rect x="489.668" y="108.131" fill="none" stroke="#CDCCCC" stroke-width="0.6897" width="3.073" height="3.073"/>
			<rect x="489.668" y="116.243" fill="none" stroke="#CDCCCC" stroke-width="0.6897" width="3.073" height="3.071"/>
			<rect x="489.668" y="124.598" fill="none" stroke="#CDCCCC" stroke-width="0.6897" width="3.073" height="3.072"/>
		</g>
		<g>
			<rect x="498.024" y="91.665" fill="none" stroke="#CDCCCC" stroke-width="0.6897" width="3.071" height="3.073"/>
			<rect x="498.024" y="99.776" fill="none" stroke="#CDCCCC" stroke-width="0.6897" width="3.071" height="3.072"/>
			<rect x="498.024" y="108.131" fill="none" stroke="#CDCCCC" stroke-width="0.6897" width="3.071" height="3.073"/>
			<rect x="498.024" y="116.243" fill="none" stroke="#CDCCCC" stroke-width="0.6897" width="3.071" height="3.071"/>
			<rect x="498.024" y="124.598" fill="none" stroke="#CDCCCC" stroke-width="0.6897" width="3.071" height="3.072"/>
		</g>
		<g>
			<rect x="506.378" y="91.665" fill="none" stroke="#CDCCCC" stroke-width="0.6897" width="3.073" height="3.073"/>
			<rect x="506.378" y="99.776" fill="none" stroke="#CDCCCC" stroke-width="0.6897" width="3.073" height="3.072"/>
			<rect x="506.378" y="108.131" fill="none" stroke="#CDCCCC" stroke-width="0.6897" width="3.073" height="3.073"/>
			<rect x="506.378" y="116.243" fill="none" stroke="#CDCCCC" stroke-width="0.6897" width="3.073" height="3.071"/>
			<rect x="506.378" y="124.598" fill="none" stroke="#CDCCCC" stroke-width="0.6897" width="3.073" height="3.072"/>
		</g>
		<g>
			<rect x="514.735" y="91.665" fill="none" stroke="#CDCCCC" stroke-width="0.6897" width="3.072" height="3.073"/>
			<rect x="514.735" y="99.776" fill="none" stroke="#CDCCCC" stroke-width="0.6897" width="3.072" height="3.072"/>
			<rect x="514.735" y="108.131" fill="none" stroke="#CDCCCC" stroke-width="0.6897" width="3.072" height="3.073"/>
			<rect x="514.735" y="116.243" fill="none" stroke="#CDCCCC" stroke-width="0.6897" width="3.072" height="3.071"/>
			<rect x="514.735" y="124.598" fill="none" stroke="#CDCCCC" stroke-width="0.6897" width="3.072" height="3.072"/>
		</g>
		<g>
			<rect x="522.968" y="91.665" fill="none" stroke="#CDCCCC" stroke-width="0.6897" width="3.072" height="3.073"/>
			<rect x="522.968" y="99.776" fill="none" stroke="#CDCCCC" stroke-width="0.6897" width="3.072" height="3.072"/>
			<rect x="522.968" y="108.131" fill="none" stroke="#CDCCCC" stroke-width="0.6897" width="3.072" height="3.073"/>
			<rect x="522.968" y="116.243" fill="none" stroke="#CDCCCC" stroke-width="0.6897" width="3.072" height="3.071"/>
			<rect x="522.968" y="124.598" fill="none" stroke="#CDCCCC" stroke-width="0.6897" width="3.072" height="3.072"/>
		</g>
		<g>
			<rect x="531.325" y="91.665" fill="none" stroke="#CDCCCC" stroke-width="0.6897" width="3.07" height="3.073"/>
			<rect x="531.325" y="99.776" fill="none" stroke="#CDCCCC" stroke-width="0.6897" width="3.07" height="3.072"/>
			<rect x="531.325" y="108.131" fill="none" stroke="#CDCCCC" stroke-width="0.6897" width="3.07" height="3.073"/>
			<rect x="531.325" y="116.243" fill="none" stroke="#CDCCCC" stroke-width="0.6897" width="3.07" height="3.071"/>
			<rect x="531.325" y="124.598" fill="none" stroke="#CDCCCC" stroke-width="0.6897" width="3.07" height="3.072"/>
		</g>
		<g>
			<rect x="539.681" y="91.665" fill="none" stroke="#CDCCCC" stroke-width="0.6897" width="3.072" height="3.073"/>
			<rect x="539.681" y="99.776" fill="none" stroke="#CDCCCC" stroke-width="0.6897" width="3.072" height="3.072"/>
			<rect x="539.681" y="108.131" fill="none" stroke="#CDCCCC" stroke-width="0.6897" width="3.072" height="3.073"/>
			<rect x="539.681" y="116.243" fill="none" stroke="#CDCCCC" stroke-width="0.6897" width="3.072" height="3.071"/>
			<rect x="539.681" y="124.598" fill="none" stroke="#CDCCCC" stroke-width="0.6897" width="3.072" height="3.072"/>
		</g>
		<g>
			<rect x="548.28" y="91.665" fill="none" stroke="#CDCCCC" stroke-width="0.6897" width="3.074" height="3.073"/>
			<rect x="548.28" y="99.776" fill="none" stroke="#CDCCCC" stroke-width="0.6897" width="3.074" height="3.072"/>
			<rect x="548.28" y="108.131" fill="none" stroke="#CDCCCC" stroke-width="0.6897" width="3.074" height="3.073"/>
			<rect x="548.28" y="116.243" fill="none" stroke="#CDCCCC" stroke-width="0.6897" width="3.074" height="3.071"/>
			<rect x="548.28" y="124.598" fill="none" stroke="#CDCCCC" stroke-width="0.6897" width="3.074" height="3.072"/>
		</g>
		<g>
			<rect x="556.393" y="91.665" fill="none" stroke="#CDCCCC" stroke-width="0.6897" width="3.071" height="3.073"/>
			<rect x="556.393" y="99.776" fill="none" stroke="#CDCCCC" stroke-width="0.6897" width="3.071" height="3.072"/>
			<rect x="556.393" y="108.131" fill="none" stroke="#CDCCCC" stroke-width="0.6897" width="3.071" height="3.073"/>
			<rect x="556.393" y="116.243" fill="none" stroke="#CDCCCC" stroke-width="0.6897" width="3.071" height="3.071"/>
			<rect x="556.393" y="124.598" fill="none" stroke="#CDCCCC" stroke-width="0.6897" width="3.071" height="3.072"/>
		</g>
		<g>
			<rect x="339.138" y="91.665" fill="none" stroke="#CDCCCC" stroke-width="0.6897" width="3.072" height="3.073"/>
			<rect x="339.138" y="99.776" fill="none" stroke="#CDCCCC" stroke-width="0.6897" width="3.072" height="3.072"/>
			<rect x="339.138" y="108.131" fill="none" stroke="#CDCCCC" stroke-width="0.6897" width="3.072" height="3.073"/>
			<rect x="339.138" y="116.243" fill="none" stroke="#CDCCCC" stroke-width="0.6897" width="3.072" height="3.071"/>
			<rect x="339.138" y="124.598" fill="none" stroke="#CDCCCC" stroke-width="0.6897" width="3.072" height="3.072"/>
		</g>
		<g>
			<rect x="347.495" y="91.665" fill="none" stroke="#CDCCCC" stroke-width="0.6897" width="3.07" height="3.073"/>
			<rect x="347.495" y="99.776" fill="none" stroke="#CDCCCC" stroke-width="0.6897" width="3.07" height="3.072"/>
			<rect x="347.495" y="108.131" fill="none" stroke="#CDCCCC" stroke-width="0.6897" width="3.07" height="3.073"/>
			<rect x="347.495" y="116.243" fill="none" stroke="#CDCCCC" stroke-width="0.6897" width="3.07" height="3.071"/>
			<rect x="347.495" y="124.598" fill="none" stroke="#CDCCCC" stroke-width="0.6897" width="3.07" height="3.072"/>
		</g>
		<g>
			<rect x="355.85" y="91.665" fill="none" stroke="#CDCCCC" stroke-width="0.6897" width="3.073" height="3.073"/>
			<rect x="355.85" y="99.776" fill="none" stroke="#CDCCCC" stroke-width="0.6897" width="3.073" height="3.072"/>
			<rect x="355.85" y="108.131" fill="none" stroke="#CDCCCC" stroke-width="0.6897" width="3.073" height="3.073"/>
			<rect x="355.85" y="116.243" fill="none" stroke="#CDCCCC" stroke-width="0.6897" width="3.073" height="3.071"/>
			<rect x="355.85" y="124.598" fill="none" stroke="#CDCCCC" stroke-width="0.6897" width="3.073" height="3.072"/>
		</g>
		<g>
			<rect x="364.206" y="91.665" fill="none" stroke="#CDCCCC" stroke-width="0.6897" width="3.071" height="3.073"/>
			<rect x="364.206" y="99.776" fill="none" stroke="#CDCCCC" stroke-width="0.6897" width="3.071" height="3.072"/>
			<rect x="364.206" y="108.131" fill="none" stroke="#CDCCCC" stroke-width="0.6897" width="3.071" height="3.073"/>
			<rect x="364.206" y="116.243" fill="none" stroke="#CDCCCC" stroke-width="0.6897" width="3.071" height="3.071"/>
			<rect x="364.206" y="124.598" fill="none" stroke="#CDCCCC" stroke-width="0.6897" width="3.071" height="3.072"/>
		</g>
		<g>
			<rect x="314.193" y="91.665" fill="none" stroke="#CDCCCC" stroke-width="0.6897" width="3.072" height="3.073"/>
			<rect x="314.193" y="99.776" fill="none" stroke="#CDCCCC" stroke-width="0.6897" width="3.072" height="3.072"/>
			<rect x="314.193" y="108.131" fill="none" stroke="#CDCCCC" stroke-width="0.6897" width="3.072" height="3.073"/>
			<rect x="314.193" y="116.243" fill="none" stroke="#CDCCCC" stroke-width="0.6897" width="3.072" height="3.071"/>
			<rect x="314.193" y="124.598" fill="none" stroke="#CDCCCC" stroke-width="0.6897" width="3.072" height="3.072"/>
		</g>
		<g>
			<rect x="322.55" y="91.665" fill="none" stroke="#CDCCCC" stroke-width="0.6897" width="3.07" height="3.073"/>
			<rect x="322.55" y="99.776" fill="none" stroke="#CDCCCC" stroke-width="0.6897" width="3.07" height="3.072"/>
			<rect x="322.55" y="108.131" fill="none" stroke="#CDCCCC" stroke-width="0.6897" width="3.07" height="3.073"/>
			<rect x="322.55" y="116.243" fill="none" stroke="#CDCCCC" stroke-width="0.6897" width="3.07" height="3.071"/>
			<rect x="322.55" y="124.598" fill="none" stroke="#CDCCCC" stroke-width="0.6897" width="3.07" height="3.072"/>
		</g>
		<g>
			<rect x="330.905" y="91.665" fill="none" stroke="#CDCCCC" stroke-width="0.6897" width="3.072" height="3.073"/>
			<rect x="330.905" y="99.776" fill="none" stroke="#CDCCCC" stroke-width="0.6897" width="3.072" height="3.072"/>
			<rect x="330.905" y="108.131" fill="none" stroke="#CDCCCC" stroke-width="0.6897" width="3.072" height="3.073"/>
			<rect x="330.905" y="116.243" fill="none" stroke="#CDCCCC" stroke-width="0.6897" width="3.072" height="3.071"/>
			<rect x="330.905" y="124.598" fill="none" stroke="#CDCCCC" stroke-width="0.6897" width="3.072" height="3.072"/>
		</g>
	</g>
	<g>
		<g>
			<rect x="372.562" y="148.438" fill="none" stroke="#CDCCCC" stroke-width="0.6897" width="3.073" height="3.071"/>
			<rect x="372.562" y="156.793" fill="none" stroke="#CDCCCC" stroke-width="0.6897" width="3.073" height="3.072"/>
			<rect x="372.562" y="164.901" fill="none" stroke="#CDCCCC" stroke-width="0.6897" width="3.073" height="3.073"/>
			<rect x="372.562" y="173.258" fill="none" stroke="#CDCCCC" stroke-width="0.6897" width="3.073" height="3.072"/>
			<rect x="372.562" y="181.369" fill="none" stroke="#CDCCCC" stroke-width="0.6897" width="3.073" height="3.072"/>
		</g>
		<g>
			<rect x="380.917" y="148.438" fill="none" stroke="#CDCCCC" stroke-width="0.6897" width="3.072" height="3.071"/>
			<rect x="380.917" y="156.793" fill="none" stroke="#CDCCCC" stroke-width="0.6897" width="3.072" height="3.072"/>
			<rect x="380.917" y="164.901" fill="none" stroke="#CDCCCC" stroke-width="0.6897" width="3.072" height="3.073"/>
			<rect x="380.917" y="173.258" fill="none" stroke="#CDCCCC" stroke-width="0.6897" width="3.072" height="3.072"/>
			<rect x="380.917" y="181.369" fill="none" stroke="#CDCCCC" stroke-width="0.6897" width="3.072" height="3.072"/>
		</g>
		<g>
			<rect x="389.272" y="148.438" fill="none" stroke="#CDCCCC" stroke-width="0.6897" width="3.074" height="3.071"/>
			<rect x="389.272" y="156.793" fill="none" stroke="#CDCCCC" stroke-width="0.6897" width="3.074" height="3.072"/>
			<rect x="389.272" y="164.901" fill="none" stroke="#CDCCCC" stroke-width="0.6897" width="3.074" height="3.073"/>
			<rect x="389.272" y="173.258" fill="none" stroke="#CDCCCC" stroke-width="0.6897" width="3.074" height="3.072"/>
			<rect x="389.272" y="181.369" fill="none" stroke="#CDCCCC" stroke-width="0.6897" width="3.074" height="3.072"/>
		</g>
		<g>
			<rect x="397.63" y="148.438" fill="none" stroke="#CDCCCC" stroke-width="0.6897" width="3.07" height="3.071"/>
			<rect x="397.63" y="156.793" fill="none" stroke="#CDCCCC" stroke-width="0.6897" width="3.07" height="3.072"/>
			<rect x="397.63" y="164.901" fill="none" stroke="#CDCCCC" stroke-width="0.6897" width="3.07" height="3.073"/>
			<rect x="397.63" y="173.258" fill="none" stroke="#CDCCCC" stroke-width="0.6897" width="3.07" height="3.072"/>
			<rect x="397.63" y="181.369" fill="none" stroke="#CDCCCC" stroke-width="0.6897" width="3.07" height="3.072"/>
		</g>
		<g>
			<rect x="405.986" y="148.438" fill="none" stroke="#CDCCCC" stroke-width="0.6897" width="3.073" height="3.071"/>
			<rect x="405.986" y="156.793" fill="none" stroke="#CDCCCC" stroke-width="0.6897" width="3.073" height="3.072"/>
			<rect x="405.986" y="164.901" fill="none" stroke="#CDCCCC" stroke-width="0.6897" width="3.073" height="3.073"/>
			<rect x="405.986" y="173.258" fill="none" stroke="#CDCCCC" stroke-width="0.6897" width="3.073" height="3.072"/>
			<rect x="405.986" y="181.369" fill="none" stroke="#CDCCCC" stroke-width="0.6897" width="3.073" height="3.072"/>
		</g>
		<g>
			<rect x="414.341" y="148.438" fill="none" stroke="#CDCCCC" stroke-width="0.6897" width="3.071" height="3.071"/>
			<rect x="414.341" y="156.793" fill="none" stroke="#CDCCCC" stroke-width="0.6897" width="3.071" height="3.072"/>
			<rect x="414.341" y="164.901" fill="none" stroke="#CDCCCC" stroke-width="0.6897" width="3.071" height="3.073"/>
			<rect x="414.341" y="173.258" fill="none" stroke="#CDCCCC" stroke-width="0.6897" width="3.071" height="3.072"/>
			<rect x="414.341" y="181.369" fill="none" stroke="#CDCCCC" stroke-width="0.6897" width="3.071" height="3.072"/>
		</g>
		<g>
			<rect x="422.819" y="148.438" fill="none" stroke="#CDCCCC" stroke-width="0.6897" width="3.072" height="3.071"/>
			<rect x="422.819" y="156.793" fill="none" stroke="#CDCCCC" stroke-width="0.6897" width="3.072" height="3.072"/>
			<rect x="422.819" y="164.901" fill="none" stroke="#CDCCCC" stroke-width="0.6897" width="3.072" height="3.073"/>
			<rect x="422.819" y="173.258" fill="none" stroke="#CDCCCC" stroke-width="0.6897" width="3.072" height="3.072"/>
			<rect x="422.819" y="181.369" fill="none" stroke="#CDCCCC" stroke-width="0.6897" width="3.072" height="3.072"/>
		</g>
		<g>
			<rect x="431.177" y="148.438" fill="none" stroke="#CDCCCC" stroke-width="0.6897" width="3.072" height="3.071"/>
			<rect x="431.177" y="156.793" fill="none" stroke="#CDCCCC" stroke-width="0.6897" width="3.072" height="3.072"/>
			<rect x="431.177" y="164.901" fill="none" stroke="#CDCCCC" stroke-width="0.6897" width="3.072" height="3.073"/>
			<rect x="431.177" y="173.258" fill="none" stroke="#CDCCCC" stroke-width="0.6897" width="3.072" height="3.072"/>
			<rect x="431.177" y="181.369" fill="none" stroke="#CDCCCC" stroke-width="0.6897" width="3.072" height="3.072"/>
		</g>
		<g>
			<rect x="439.286" y="148.438" fill="none" stroke="#CDCCCC" stroke-width="0.6897" width="3.071" height="3.071"/>
			<rect x="439.286" y="156.793" fill="none" stroke="#CDCCCC" stroke-width="0.6897" width="3.071" height="3.072"/>
			<rect x="439.286" y="164.901" fill="none" stroke="#CDCCCC" stroke-width="0.6897" width="3.071" height="3.073"/>
			<rect x="439.286" y="173.258" fill="none" stroke="#CDCCCC" stroke-width="0.6897" width="3.071" height="3.072"/>
			<rect x="439.286" y="181.369" fill="none" stroke="#CDCCCC" stroke-width="0.6897" width="3.071" height="3.072"/>
		</g>
		<g>
			<rect x="447.888" y="148.438" fill="none" stroke="#CDCCCC" stroke-width="0.6897" width="3.073" height="3.071"/>
			<rect x="447.888" y="156.793" fill="none" stroke="#CDCCCC" stroke-width="0.6897" width="3.073" height="3.072"/>
			<rect x="447.888" y="164.901" fill="none" stroke="#CDCCCC" stroke-width="0.6897" width="3.073" height="3.073"/>
			<rect x="447.888" y="173.258" fill="none" stroke="#CDCCCC" stroke-width="0.6897" width="3.073" height="3.072"/>
			<rect x="447.888" y="181.369" fill="none" stroke="#CDCCCC" stroke-width="0.6897" width="3.073" height="3.072"/>
		</g>
		<g>
			<rect x="456.241" y="148.438" fill="none" stroke="#CDCCCC" stroke-width="0.6897" width="3.073" height="3.071"/>
			<rect x="456.241" y="156.793" fill="none" stroke="#CDCCCC" stroke-width="0.6897" width="3.073" height="3.072"/>
			<rect x="456.241" y="164.901" fill="none" stroke="#CDCCCC" stroke-width="0.6897" width="3.073" height="3.073"/>
			<rect x="456.241" y="173.258" fill="none" stroke="#CDCCCC" stroke-width="0.6897" width="3.073" height="3.072"/>
			<rect x="456.241" y="181.369" fill="none" stroke="#CDCCCC" stroke-width="0.6897" width="3.073" height="3.072"/>
		</g>
		<g>
			<rect x="464.601" y="148.438" fill="none" stroke="#CDCCCC" stroke-width="0.6897" width="3.07" height="3.071"/>
			<rect x="464.601" y="156.793" fill="none" stroke="#CDCCCC" stroke-width="0.6897" width="3.07" height="3.072"/>
			<rect x="464.601" y="164.901" fill="none" stroke="#CDCCCC" stroke-width="0.6897" width="3.07" height="3.073"/>
			<rect x="464.601" y="173.258" fill="none" stroke="#CDCCCC" stroke-width="0.6897" width="3.07" height="3.072"/>
			<rect x="464.601" y="181.369" fill="none" stroke="#CDCCCC" stroke-width="0.6897" width="3.07" height="3.072"/>
		</g>
		<g>
			<rect x="472.956" y="148.438" fill="none" stroke="#CDCCCC" stroke-width="0.6897" width="3.072" height="3.071"/>
			<rect x="472.956" y="156.793" fill="none" stroke="#CDCCCC" stroke-width="0.6897" width="3.072" height="3.072"/>
			<rect x="472.956" y="164.901" fill="none" stroke="#CDCCCC" stroke-width="0.6897" width="3.072" height="3.073"/>
			<rect x="472.956" y="173.258" fill="none" stroke="#CDCCCC" stroke-width="0.6897" width="3.072" height="3.072"/>
			<rect x="472.956" y="181.369" fill="none" stroke="#CDCCCC" stroke-width="0.6897" width="3.072" height="3.072"/>
		</g>
		<g>
			<rect x="481.312" y="148.438" fill="none" stroke="#CDCCCC" stroke-width="0.6897" width="3.072" height="3.071"/>
			<rect x="481.312" y="156.793" fill="none" stroke="#CDCCCC" stroke-width="0.6897" width="3.072" height="3.072"/>
			<rect x="481.312" y="164.901" fill="none" stroke="#CDCCCC" stroke-width="0.6897" width="3.072" height="3.073"/>
			<rect x="481.312" y="173.258" fill="none" stroke="#CDCCCC" stroke-width="0.6897" width="3.072" height="3.072"/>
			<rect x="481.312" y="181.369" fill="none" stroke="#CDCCCC" stroke-width="0.6897" width="3.072" height="3.072"/>
		</g>
		<g>
			<rect x="489.668" y="148.438" fill="none" stroke="#CDCCCC" stroke-width="0.6897" width="3.073" height="3.071"/>
			<rect x="489.668" y="156.793" fill="none" stroke="#CDCCCC" stroke-width="0.6897" width="3.073" height="3.072"/>
			<rect x="489.668" y="164.901" fill="none" stroke="#CDCCCC" stroke-width="0.6897" width="3.073" height="3.073"/>
			<rect x="489.668" y="173.258" fill="none" stroke="#CDCCCC" stroke-width="0.6897" width="3.073" height="3.072"/>
			<rect x="489.668" y="181.369" fill="none" stroke="#CDCCCC" stroke-width="0.6897" width="3.073" height="3.072"/>
		</g>
		<g>
			<rect x="498.024" y="148.438" fill="none" stroke="#CDCCCC" stroke-width="0.6897" width="3.071" height="3.071"/>
			<rect x="498.024" y="156.793" fill="none" stroke="#CDCCCC" stroke-width="0.6897" width="3.071" height="3.072"/>
			<rect x="498.024" y="164.901" fill="none" stroke="#CDCCCC" stroke-width="0.6897" width="3.071" height="3.073"/>
			<rect x="498.024" y="173.258" fill="none" stroke="#CDCCCC" stroke-width="0.6897" width="3.071" height="3.072"/>
			<rect x="498.024" y="181.369" fill="none" stroke="#CDCCCC" stroke-width="0.6897" width="3.071" height="3.072"/>
		</g>
		<rect x="506.378" y="148.438" fill="none" stroke="#CDCCCC" stroke-width="0.6897" width="3.073" height="3.071"/>
		<rect x="506.378" y="156.793" fill="none" stroke="#CDCCCC" stroke-width="0.6897" width="3.073" height="3.072"/>
		<rect x="506.378" y="164.901" fill="none" stroke="#CDCCCC" stroke-width="0.6897" width="3.073" height="3.073"/>
		<rect x="506.378" y="173.258" fill="none" stroke="#CDCCCC" stroke-width="0.6897" width="3.073" height="3.072"/>
		<rect x="506.378" y="181.369" fill="none" stroke="#CDCCCC" stroke-width="0.6897" width="3.073" height="3.072"/>
		<rect x="514.735" y="148.438" fill="none" stroke="#CDCCCC" stroke-width="0.6897" width="3.072" height="3.071"/>
		<rect x="514.735" y="156.793" fill="none" stroke="#CDCCCC" stroke-width="0.6897" width="3.072" height="3.072"/>
		<rect x="514.735" y="164.901" fill="none" stroke="#CDCCCC" stroke-width="0.6897" width="3.072" height="3.073"/>
		<rect x="514.735" y="173.258" fill="none" stroke="#CDCCCC" stroke-width="0.6897" width="3.072" height="3.072"/>
		<rect x="514.735" y="181.369" fill="none" stroke="#CDCCCC" stroke-width="0.6897" width="3.072" height="3.072"/>
		<rect x="522.968" y="148.438" fill="none" stroke="#CDCCCC" stroke-width="0.6897" width="3.072" height="3.071"/>
		<rect x="522.968" y="156.793" fill="none" stroke="#CDCCCC" stroke-width="0.6897" width="3.072" height="3.072"/>
		<rect x="522.968" y="164.901" fill="none" stroke="#CDCCCC" stroke-width="0.6897" width="3.072" height="3.073"/>
		<rect x="522.968" y="173.258" fill="none" stroke="#CDCCCC" stroke-width="0.6897" width="3.072" height="3.072"/>
		<rect x="522.968" y="181.369" fill="none" stroke="#CDCCCC" stroke-width="0.6897" width="3.072" height="3.072"/>
		<rect x="531.325" y="148.438" fill="none" stroke="#CDCCCC" stroke-width="0.6897" width="3.07" height="3.071"/>
		<rect x="531.325" y="156.793" fill="none" stroke="#CDCCCC" stroke-width="0.6897" width="3.07" height="3.072"/>
		<rect x="531.325" y="164.901" fill="none" stroke="#CDCCCC" stroke-width="0.6897" width="3.07" height="3.073"/>
		<rect x="531.325" y="173.258" fill="none" stroke="#CDCCCC" stroke-width="0.6897" width="3.07" height="3.072"/>
		<rect x="531.325" y="181.369" fill="none" stroke="#CDCCCC" stroke-width="0.6897" width="3.07" height="3.072"/>
		<rect x="539.681" y="148.438" fill="none" stroke="#CDCCCC" stroke-width="0.6897" width="3.072" height="3.071"/>
		<rect x="539.681" y="156.793" fill="none" stroke="#CDCCCC" stroke-width="0.6897" width="3.072" height="3.072"/>
		<rect x="539.681" y="164.901" fill="none" stroke="#CDCCCC" stroke-width="0.6897" width="3.072" height="3.073"/>
		<rect x="539.681" y="173.258" fill="none" stroke="#CDCCCC" stroke-width="0.6897" width="3.072" height="3.072"/>
		<rect x="539.681" y="181.369" fill="none" stroke="#CDCCCC" stroke-width="0.6897" width="3.072" height="3.072"/>
		<rect x="548.28" y="148.438" fill="none" stroke="#CDCCCC" stroke-width="0.6897" width="3.074" height="3.071"/>
		<rect x="548.28" y="156.793" fill="none" stroke="#CDCCCC" stroke-width="0.6897" width="3.074" height="3.072"/>
		<rect x="548.28" y="164.901" fill="none" stroke="#CDCCCC" stroke-width="0.6897" width="3.074" height="3.073"/>
		<rect x="548.28" y="173.258" fill="none" stroke="#CDCCCC" stroke-width="0.6897" width="3.074" height="3.072"/>
		<rect x="548.28" y="181.369" fill="none" stroke="#CDCCCC" stroke-width="0.6897" width="3.074" height="3.072"/>
		<rect x="556.393" y="148.438" fill="none" stroke="#CDCCCC" stroke-width="0.6897" width="3.071" height="3.071"/>
		<rect x="556.393" y="156.793" fill="none" stroke="#CDCCCC" stroke-width="0.6897" width="3.071" height="3.072"/>
		<rect x="556.393" y="164.901" fill="none" stroke="#CDCCCC" stroke-width="0.6897" width="3.071" height="3.073"/>
		<rect x="556.393" y="173.258" fill="none" stroke="#CDCCCC" stroke-width="0.6897" width="3.071" height="3.072"/>
		<rect x="556.393" y="181.369" fill="none" stroke="#CDCCCC" stroke-width="0.6897" width="3.071" height="3.072"/>
		<g>
			<rect x="339.138" y="148.438" fill="none" stroke="#CDCCCC" stroke-width="0.6897" width="3.072" height="3.071"/>
			<rect x="339.138" y="156.793" fill="none" stroke="#CDCCCC" stroke-width="0.6897" width="3.072" height="3.072"/>
			<rect x="339.138" y="164.901" fill="none" stroke="#CDCCCC" stroke-width="0.6897" width="3.072" height="3.073"/>
			<rect x="339.138" y="173.258" fill="none" stroke="#CDCCCC" stroke-width="0.6897" width="3.072" height="3.072"/>
			<rect x="339.138" y="181.369" fill="none" stroke="#CDCCCC" stroke-width="0.6897" width="3.072" height="3.072"/>
		</g>
		<g>
			<rect x="347.495" y="148.438" fill="none" stroke="#CDCCCC" stroke-width="0.6897" width="3.07" height="3.071"/>
			<rect x="347.495" y="156.793" fill="none" stroke="#CDCCCC" stroke-width="0.6897" width="3.07" height="3.072"/>
			<rect x="347.495" y="164.901" fill="none" stroke="#CDCCCC" stroke-width="0.6897" width="3.07" height="3.073"/>
			<rect x="347.495" y="173.258" fill="none" stroke="#CDCCCC" stroke-width="0.6897" width="3.07" height="3.072"/>
			<rect x="347.495" y="181.369" fill="none" stroke="#CDCCCC" stroke-width="0.6897" width="3.07" height="3.072"/>
		</g>
		<g>
			<rect x="355.85" y="148.438" fill="none" stroke="#CDCCCC" stroke-width="0.6897" width="3.073" height="3.071"/>
			<rect x="355.85" y="156.793" fill="none" stroke="#CDCCCC" stroke-width="0.6897" width="3.073" height="3.072"/>
			<rect x="355.85" y="164.901" fill="none" stroke="#CDCCCC" stroke-width="0.6897" width="3.073" height="3.073"/>
			<rect x="355.85" y="173.258" fill="none" stroke="#CDCCCC" stroke-width="0.6897" width="3.073" height="3.072"/>
			<rect x="355.85" y="181.369" fill="none" stroke="#CDCCCC" stroke-width="0.6897" width="3.073" height="3.072"/>
		</g>
		<g>
			<rect x="364.206" y="148.438" fill="none" stroke="#CDCCCC" stroke-width="0.6897" width="3.071" height="3.071"/>
			<rect x="364.206" y="156.793" fill="none" stroke="#CDCCCC" stroke-width="0.6897" width="3.071" height="3.072"/>
			<rect x="364.206" y="164.901" fill="none" stroke="#CDCCCC" stroke-width="0.6897" width="3.071" height="3.073"/>
			<rect x="364.206" y="173.258" fill="none" stroke="#CDCCCC" stroke-width="0.6897" width="3.071" height="3.072"/>
			<rect x="364.206" y="181.369" fill="none" stroke="#CDCCCC" stroke-width="0.6897" width="3.071" height="3.072"/>
		</g>
		<g>
			<rect x="314.193" y="148.438" fill="none" stroke="#CDCCCC" stroke-width="0.6897" width="3.072" height="3.071"/>
			<rect x="314.193" y="156.793" fill="none" stroke="#CDCCCC" stroke-width="0.6897" width="3.072" height="3.072"/>
			<rect x="314.193" y="164.901" fill="none" stroke="#CDCCCC" stroke-width="0.6897" width="3.072" height="3.073"/>
			<rect x="314.193" y="173.258" fill="none" stroke="#CDCCCC" stroke-width="0.6897" width="3.072" height="3.072"/>
			<rect x="314.193" y="181.369" fill="none" stroke="#CDCCCC" stroke-width="0.6897" width="3.072" height="3.072"/>
		</g>
		<g>
			<rect x="322.55" y="148.438" fill="none" stroke="#CDCCCC" stroke-width="0.6897" width="3.07" height="3.071"/>
			<rect x="322.55" y="156.793" fill="none" stroke="#CDCCCC" stroke-width="0.6897" width="3.07" height="3.072"/>
			<rect x="322.55" y="164.901" fill="none" stroke="#CDCCCC" stroke-width="0.6897" width="3.07" height="3.073"/>
			<rect x="322.55" y="173.258" fill="none" stroke="#CDCCCC" stroke-width="0.6897" width="3.07" height="3.072"/>
			<rect x="322.55" y="181.369" fill="none" stroke="#CDCCCC" stroke-width="0.6897" width="3.07" height="3.072"/>
		</g>
		<g>
			<rect x="330.905" y="148.438" fill="none" stroke="#CDCCCC" stroke-width="0.6897" width="3.072" height="3.071"/>
			<rect x="330.905" y="156.793" fill="none" stroke="#CDCCCC" stroke-width="0.6897" width="3.072" height="3.072"/>
			<rect x="330.905" y="164.901" fill="none" stroke="#CDCCCC" stroke-width="0.6897" width="3.072" height="3.073"/>
			<rect x="330.905" y="173.258" fill="none" stroke="#CDCCCC" stroke-width="0.6897" width="3.072" height="3.072"/>
			<rect x="330.905" y="181.369" fill="none" stroke="#CDCCCC" stroke-width="0.6897" width="3.072" height="3.072"/>
		</g>
	</g>
	<g>
		<g>
			<g>
				<rect x="346.88" y="58.611" fill="none" stroke="#CDCCCC" stroke-width="0.6897" width="3.073" height="3.072"/>
				<rect x="338.769" y="58.611" fill="none" stroke="#CDCCCC" stroke-width="0.6897" width="3.072" height="3.072"/>
				<rect x="330.413" y="58.611" fill="none" stroke="#CDCCCC" stroke-width="0.6897" width="3.072" height="3.072"/>
				<rect x="322.305" y="58.611" fill="none" stroke="#CDCCCC" stroke-width="0.6897" width="3.071" height="3.072"/>
				<rect x="314.193" y="58.611" fill="none" stroke="#CDCCCC" stroke-width="0.6897" width="3.072" height="3.072"/>
			</g>
			<g>
				<rect x="314.193" y="66.72" fill="none" stroke="#CDCCCC" stroke-width="0.6897" width="3.072" height="3.074"/>
				<rect x="322.305" y="66.72" fill="none" stroke="#CDCCCC" stroke-width="0.6897" width="3.071" height="3.074"/>
				<rect x="330.413" y="66.72" fill="none" stroke="#CDCCCC" stroke-width="0.6897" width="3.072" height="3.074"/>
				<rect x="338.769" y="66.72" fill="none" stroke="#CDCCCC" stroke-width="0.6897" width="3.072" height="3.074"/>
				<rect x="346.88" y="66.72" fill="none" stroke="#CDCCCC" stroke-width="0.6897" width="3.073" height="3.074"/>
			</g>
		</g>
		<g>
			<g>
				<rect x="396.891" y="58.611" fill="none" stroke="#CDCCCC" stroke-width="0.6897" width="3.075" height="3.072"/>
				<rect x="388.782" y="58.611" fill="none" stroke="#CDCCCC" stroke-width="0.6897" width="3.07" height="3.072"/>
				<rect x="380.673" y="58.611" fill="none" stroke="#CDCCCC" stroke-width="0.6897" width="3.07" height="3.072"/>
				<rect x="372.315" y="58.611" fill="none" stroke="#CDCCCC" stroke-width="0.6897" width="3.074" height="3.072"/>
				<rect x="364.206" y="58.611" fill="none" stroke="#CDCCCC" stroke-width="0.6897" width="3.071" height="3.072"/>
			</g>
			<g>
				<rect x="364.206" y="66.72" fill="none" stroke="#CDCCCC" stroke-width="0.6897" width="3.071" height="3.074"/>
				<rect x="372.315" y="66.72" fill="none" stroke="#CDCCCC" stroke-width="0.6897" width="3.074" height="3.074"/>
				<rect x="380.673" y="66.72" fill="none" stroke="#CDCCCC" stroke-width="0.6897" width="3.07" height="3.074"/>
				<rect x="388.782" y="66.72" fill="none" stroke="#CDCCCC" stroke-width="0.6897" width="3.07" height="3.074"/>
				<rect x="396.891" y="66.72" fill="none" stroke="#CDCCCC" stroke-width="0.6897" width="3.075" height="3.074"/>
			</g>
		</g>
		<g>
			<g>
				<rect x="447.274" y="58.611" fill="none" stroke="#CDCCCC" stroke-width="0.6897" width="3.072" height="3.072"/>
				<rect x="439.162" y="58.611" fill="none" stroke="#CDCCCC" stroke-width="0.6897" width="3.075" height="3.072"/>
				<rect x="430.808" y="58.611" fill="none" stroke="#CDCCCC" stroke-width="0.6897" width="3.072" height="3.072"/>
				<rect x="422.696" y="58.611" fill="none" stroke="#CDCCCC" stroke-width="0.6897" width="3.073" height="3.072"/>
				<rect x="414.341" y="58.611" fill="none" stroke="#CDCCCC" stroke-width="0.6897" width="3.071" height="3.072"/>
			</g>
			<g>
				<rect x="414.341" y="66.72" fill="none" stroke="#CDCCCC" stroke-width="0.6897" width="3.071" height="3.074"/>
				<rect x="422.696" y="66.72" fill="none" stroke="#CDCCCC" stroke-width="0.6897" width="3.073" height="3.074"/>
				<rect x="430.808" y="66.72" fill="none" stroke="#CDCCCC" stroke-width="0.6897" width="3.072" height="3.074"/>
				<rect x="439.162" y="66.72" fill="none" stroke="#CDCCCC" stroke-width="0.6897" width="3.075" height="3.074"/>
				<rect x="447.274" y="66.72" fill="none" stroke="#CDCCCC" stroke-width="0.6897" width="3.072" height="3.074"/>
			</g>
		</g>
		<g>
			<g>
				<rect x="497.284" y="58.611" fill="none" stroke="#CDCCCC" stroke-width="0.6897" width="3.073" height="3.072"/>
				<rect x="489.177" y="58.611" fill="none" stroke="#CDCCCC" stroke-width="0.6897" width="3.072" height="3.072"/>
				<rect x="481.067" y="58.611" fill="none" stroke="#CDCCCC" stroke-width="0.6897" width="3.071" height="3.072"/>
				<rect x="472.709" y="58.611" fill="none" stroke="#CDCCCC" stroke-width="0.6897" width="3.073" height="3.072"/>
				<rect x="464.601" y="58.611" fill="none" stroke="#CDCCCC" stroke-width="0.6897" width="3.07" height="3.072"/>
			</g>
			<g>
				<rect x="464.601" y="66.72" fill="none" stroke="#CDCCCC" stroke-width="0.6897" width="3.07" height="3.074"/>
				<rect x="472.709" y="66.72" fill="none" stroke="#CDCCCC" stroke-width="0.6897" width="3.073" height="3.074"/>
				<rect x="481.067" y="66.72" fill="none" stroke="#CDCCCC" stroke-width="0.6897" width="3.071" height="3.074"/>
				<rect x="489.177" y="66.72" fill="none" stroke="#CDCCCC" stroke-width="0.6897" width="3.072" height="3.074"/>
				<rect x="497.284" y="66.72" fill="none" stroke="#CDCCCC" stroke-width="0.6897" width="3.073" height="3.074"/>
			</g>
		</g>
		<g>
			<g>
				<rect x="547.421" y="58.611" fill="none" stroke="#CDCCCC" stroke-width="0.6897" width="3.071" height="3.072"/>
				<rect x="539.187" y="58.611" fill="none" stroke="#CDCCCC" stroke-width="0.6897" width="3.076" height="3.072"/>
				<rect x="531.078" y="58.611" fill="none" stroke="#CDCCCC" stroke-width="0.6897" width="3.071" height="3.072"/>
				<rect x="522.846" y="58.611" fill="none" stroke="#CDCCCC" stroke-width="0.6897" width="3.071" height="3.072"/>
				<rect x="514.735" y="58.611" fill="none" stroke="#CDCCCC" stroke-width="0.6897" width="3.072" height="3.072"/>
			</g>
			<g>
				<rect x="514.735" y="66.72" fill="none" stroke="#CDCCCC" stroke-width="0.6897" width="3.072" height="3.074"/>
				<rect x="522.846" y="66.72" fill="none" stroke="#CDCCCC" stroke-width="0.6897" width="3.071" height="3.074"/>
				<rect x="531.078" y="66.72" fill="none" stroke="#CDCCCC" stroke-width="0.6897" width="3.071" height="3.074"/>
				<rect x="539.187" y="66.72" fill="none" stroke="#CDCCCC" stroke-width="0.6897" width="3.076" height="3.074"/>
				<rect x="547.421" y="66.72" fill="none" stroke="#CDCCCC" stroke-width="0.6897" width="3.071" height="3.074"/>
			</g>
		</g>
	</g>
	<g>
		<g>
			<g>
				<rect x="346.88" y="207.788" fill="none" stroke="#CDCCCC" stroke-width="0.6897" width="3.073" height="3.073"/>
				<rect x="338.769" y="207.788" fill="none" stroke="#CDCCCC" stroke-width="0.6897" width="3.072" height="3.073"/>
				<rect x="330.413" y="207.788" fill="none" stroke="#CDCCCC" stroke-width="0.6897" width="3.072" height="3.073"/>
				<rect x="322.305" y="207.788" fill="none" stroke="#CDCCCC" stroke-width="0.6897" width="3.071" height="3.073"/>
				<rect x="314.193" y="207.788" fill="none" stroke="#CDCCCC" stroke-width="0.6897" width="3.072" height="3.073"/>
			</g>
			<g>
				<rect x="314.193" y="216.145" fill="none" stroke="#CDCCCC" stroke-width="0.6897" width="3.072" height="3.072"/>
				<rect x="322.305" y="216.145" fill="none" stroke="#CDCCCC" stroke-width="0.6897" width="3.071" height="3.072"/>
				<rect x="330.413" y="216.145" fill="none" stroke="#CDCCCC" stroke-width="0.6897" width="3.072" height="3.072"/>
				<rect x="338.769" y="216.145" fill="none" stroke="#CDCCCC" stroke-width="0.6897" width="3.072" height="3.072"/>
				<rect x="346.88" y="216.145" fill="none" stroke="#CDCCCC" stroke-width="0.6897" width="3.073" height="3.072"/>
			</g>
		</g>
		<g>
			<g>
				<rect x="396.891" y="207.788" fill="none" stroke="#CDCCCC" stroke-width="0.6897" width="3.075" height="3.073"/>
				<rect x="388.782" y="207.788" fill="none" stroke="#CDCCCC" stroke-width="0.6897" width="3.07" height="3.073"/>
				<rect x="380.673" y="207.788" fill="none" stroke="#CDCCCC" stroke-width="0.6897" width="3.07" height="3.073"/>
				<rect x="372.315" y="207.788" fill="none" stroke="#CDCCCC" stroke-width="0.6897" width="3.074" height="3.073"/>
				<rect x="364.206" y="207.788" fill="none" stroke="#CDCCCC" stroke-width="0.6897" width="3.071" height="3.073"/>
			</g>
			<g>
				<rect x="364.206" y="216.145" fill="none" stroke="#CDCCCC" stroke-width="0.6897" width="3.071" height="3.072"/>
				<rect x="372.315" y="216.145" fill="none" stroke="#CDCCCC" stroke-width="0.6897" width="3.074" height="3.072"/>
				<rect x="380.673" y="216.145" fill="none" stroke="#CDCCCC" stroke-width="0.6897" width="3.07" height="3.072"/>
				<rect x="388.782" y="216.145" fill="none" stroke="#CDCCCC" stroke-width="0.6897" width="3.07" height="3.072"/>
				<rect x="396.891" y="216.145" fill="none" stroke="#CDCCCC" stroke-width="0.6897" width="3.075" height="3.072"/>
			</g>
		</g>
		<g>
			<g>
				<rect x="447.274" y="207.788" fill="none" stroke="#CDCCCC" stroke-width="0.6897" width="3.072" height="3.073"/>
				<rect x="439.162" y="207.788" fill="none" stroke="#CDCCCC" stroke-width="0.6897" width="3.075" height="3.073"/>
				<rect x="430.808" y="207.788" fill="none" stroke="#CDCCCC" stroke-width="0.6897" width="3.072" height="3.073"/>
				<rect x="422.696" y="207.788" fill="none" stroke="#CDCCCC" stroke-width="0.6897" width="3.073" height="3.073"/>
				<rect x="414.341" y="207.788" fill="none" stroke="#CDCCCC" stroke-width="0.6897" width="3.071" height="3.073"/>
			</g>
			<g>
				<rect x="414.341" y="216.145" fill="none" stroke="#CDCCCC" stroke-width="0.6897" width="3.071" height="3.072"/>
				<rect x="422.696" y="216.145" fill="none" stroke="#CDCCCC" stroke-width="0.6897" width="3.073" height="3.072"/>
				<rect x="430.808" y="216.145" fill="none" stroke="#CDCCCC" stroke-width="0.6897" width="3.072" height="3.072"/>
				<rect x="439.162" y="216.145" fill="none" stroke="#CDCCCC" stroke-width="0.6897" width="3.075" height="3.072"/>
				<rect x="447.274" y="216.145" fill="none" stroke="#CDCCCC" stroke-width="0.6897" width="3.072" height="3.072"/>
			</g>
		</g>
		<g>
			<g>
				<rect x="497.284" y="207.788" fill="none" stroke="#CDCCCC" stroke-width="0.6897" width="3.073" height="3.073"/>
				<rect x="489.177" y="207.788" fill="none" stroke="#CDCCCC" stroke-width="0.6897" width="3.072" height="3.073"/>
				<rect x="481.067" y="207.788" fill="none" stroke="#CDCCCC" stroke-width="0.6897" width="3.071" height="3.073"/>
				<rect x="472.709" y="207.788" fill="none" stroke="#CDCCCC" stroke-width="0.6897" width="3.073" height="3.073"/>
				<rect x="464.601" y="207.788" fill="none" stroke="#CDCCCC" stroke-width="0.6897" width="3.07" height="3.073"/>
			</g>
			<g>
				<rect x="464.601" y="216.145" fill="none" stroke="#CDCCCC" stroke-width="0.6897" width="3.07" height="3.072"/>
				<rect x="472.709" y="216.145" fill="none" stroke="#CDCCCC" stroke-width="0.6897" width="3.073" height="3.072"/>
				<rect x="481.067" y="216.145" fill="none" stroke="#CDCCCC" stroke-width="0.6897" width="3.071" height="3.072"/>
				<rect x="489.177" y="216.145" fill="none" stroke="#CDCCCC" stroke-width="0.6897" width="3.072" height="3.072"/>
				<rect x="497.284" y="216.145" fill="none" stroke="#CDCCCC" stroke-width="0.6897" width="3.073" height="3.072"/>
			</g>
		</g>
		<g>
			<g>
				<rect x="547.421" y="207.788" fill="none" stroke="#CDCCCC" stroke-width="0.6897" width="3.071" height="3.073"/>
				<rect x="539.187" y="207.788" fill="none" stroke="#CDCCCC" stroke-width="0.6897" width="3.076" height="3.073"/>
				<rect x="531.078" y="207.788" fill="none" stroke="#CDCCCC" stroke-width="0.6897" width="3.071" height="3.073"/>
				<rect x="522.846" y="207.788" fill="none" stroke="#CDCCCC" stroke-width="0.6897" width="3.071" height="3.073"/>
				<rect x="514.735" y="207.788" fill="none" stroke="#CDCCCC" stroke-width="0.6897" width="3.072" height="3.073"/>
			</g>
			<g>
				<rect x="514.735" y="216.145" fill="none" stroke="#CDCCCC" stroke-width="0.6897" width="3.072" height="3.072"/>
				<rect x="522.846" y="216.145" fill="none" stroke="#CDCCCC" stroke-width="0.6897" width="3.071" height="3.072"/>
				<rect x="531.078" y="216.145" fill="none" stroke="#CDCCCC" stroke-width="0.6897" width="3.071" height="3.072"/>
				<rect x="539.187" y="216.145" fill="none" stroke="#CDCCCC" stroke-width="0.6897" width="3.076" height="3.072"/>
				<rect x="547.421" y="216.145" fill="none" stroke="#CDCCCC" stroke-width="0.6897" width="3.071" height="3.072"/>
			</g>
		</g>
	</g>
	<rect x="295.884" y="50.009" fill="none" stroke="#CDCCCC" stroke-width="0.6897" width="281.15" height="175.475"/>
</g>
<g>
	<line fill="none" stroke="#010101" stroke-width="1.3794" x1="399.966" y1="117.47" x2="349.337" y2="145.488"/>
	<line fill="none" stroke="#010101" stroke-width="1.3794" x1="424.786" y1="117.47" x2="374.406" y2="145.488"/>
	<path fill="#CDCCCC" d="M352.165,131.602h20.15c0,0,4.178,4.423,3.934,13.025c-0.247,8.848-3.688,12.78-3.688,12.78h-20.152
		c0,0-4.425-1.843-4.425-13.394C347.984,132.463,352.165,131.602,352.165,131.602z"/>
	<path fill="none" stroke="#7D8287" stroke-width="1.0346" d="M370.473,144.997"/>
	<polyline fill="none" stroke="#010101" stroke-width="1.0346" points="352.901,134.551 371.701,134.551 371.701,136.887 
		352.901,136.887 352.901,139.221 371.701,139.221 371.701,141.556 352.901,141.556 352.901,144.38 371.701,144.38 371.701,146.347 
		352.901,146.347 352.901,148.929 371.701,148.929 371.701,151.509 352.901,151.509 352.901,153.843 371.701,153.843 	"/>
	<path fill="#899196" d="M350.32,144.75c0,0.492-0.491,0.983-0.983,0.983c-0.49,0-0.983-0.492-0.983-0.983
		c0-0.493,0.493-0.983,0.983-0.983C350.075,143.891,350.32,144.38,350.32,144.75z"/>
	<path fill="#899196" d="M374.406,143.767c0.54,0,0.983,0.441,0.983,0.983c0,0.543-0.443,0.983-0.983,0.983
		c-0.544,0-0.983-0.44-0.983-0.983C373.423,144.208,373.862,143.767,374.406,143.767z"/>
</g>
<g>
	<line fill="none" stroke="#010101" stroke-width="1.3474" x1="499.622" y1="110.221" x2="473.692" y2="110.221"/>
	<line fill="none" stroke="#010101" stroke-width="1.3474" x1="424.294" y1="110.221" x2="448.38" y2="110.221"/>
	<rect x="448.134" y="106.781" fill="#CDCCCC" width="25.685" height="7.003"/>
	<rect x="450.47" y="106.535" fill="#818181" width="3.439" height="7.126"/>
	<rect x="455.507" y="106.535" fill="#010101" width="3.441" height="7.126"/>
	<rect x="460.422" y="106.535" fill="#4E4E4E" width="3.44" height="7.126"/>
	<rect x="467.427" y="106.535" fill="#B4B4B4" width="3.441" height="7.126"/>
</g>
<path fill="none" stroke="#010101" stroke-width="1.3794" stroke-linecap="round" d="M499.376,93.507
	c0,0,15.974-3.071,23.223-27.525c4.67-15.483,5.529-37.723,5.529-37.723"/>
<path fill="none" stroke="#818181" stroke-width="1.3794" stroke-linecap="round" d="M399.228,109.729
	c0,0-51.243-9.093-71.394-29.614c-20.152-20.89-8.603-51.732-8.603-51.732"/>
<path fill="none" stroke="#414141" stroke-width="1.3794" stroke-linecap="round" d="M424.294,101.619
	c0,0-16.465-4.669-23.47-29.246c-4.668-15.483,8.357-43.991,8.357-43.991"/>
</svg>
