<?xml version="1.0" encoding="utf-8"?>
<!-- Generator: Adobe Illustrator 16.0.4, SVG Export Plug-In . SVG Version: 6.00 Build 0)  -->
<!DOCTYPE svg PUBLIC "-//W3C//DTD SVG 1.1//EN" "http://www.w3.org/Graphics/SVG/1.1/DTD/svg11.dtd">
<svg version="1.1" id="Layer_1" xmlns="http://www.w3.org/2000/svg" xmlns:xlink="http://www.w3.org/1999/xlink" x="0px" y="0px"
	 width="650px" height="110px" viewBox="-19 0 650 110" enable-background="new -19 0 650 110" xml:space="preserve">
<line fill="none" stroke="#CCCCCC" stroke-width="0.6" x1="348.162" y1="5.001" x2="348.162" y2="70.532"/>
<line fill="none" stroke="#CCCCCC" stroke-width="0.6" x1="348.269" y1="70.21" x2="604.399" y2="70.21"/>
<g>
	<g enable-background="new    ">
		<path d="M582.329,75.83v6.672h-0.687V75.83h-2.264v-0.568h5.214v0.568H582.329z"/>
		<path d="M586.275,82.502v-0.547h2.07v-4.248h-1.909v-0.536h2.585v4.784h1.792v0.547H586.275z M589.29,75.465
			c0,0.365-0.29,0.665-0.665,0.665c-0.364,0-0.665-0.3-0.665-0.665c0-0.364,0.301-0.654,0.665-0.654
			C589,74.811,589.29,75.101,589.29,75.465z"/>
		<path d="M596.852,82.502v-3.529c0-0.954-0.096-1.373-0.536-1.373c-0.558,0-1.158,1.041-1.158,2.328v2.574h-0.601v-3.476
			c0-1.008-0.14-1.427-0.579-1.427c-0.548,0-1.116,1.041-1.116,2.328v2.574h-0.611v-5.331h0.579c0,0.461-0.032,0.868-0.086,1.341
			l0.011,0.011c0.204-0.858,0.676-1.438,1.373-1.438c0.708,0,0.955,0.568,0.912,1.416c0.215-0.848,0.687-1.416,1.395-1.416
			c0.74,0,1.03,0.601,1.03,1.673v3.744H596.852z"/>
		<path d="M603.534,79.702h-3.937c-0.011,0.043-0.011,0.086-0.011,0.14c0,1.566,0.805,2.178,1.995,2.178
			c0.558,0,1.33-0.161,1.716-0.354l0.064,0.59c-0.482,0.204-1.223,0.344-1.898,0.344c-1.599,0-2.574-0.869-2.574-2.746
			c0-1.588,0.997-2.778,2.445-2.778c1.459,0,2.221,1.094,2.221,2.231C603.556,79.392,603.556,79.552,603.534,79.702z M601.292,77.6
			c-0.794,0-1.512,0.568-1.641,1.577h3.186C602.837,78.2,602.161,77.6,601.292,77.6z"/>
	</g>
</g>
<g>
	<g enable-background="new    ">
		<path d="M342.195,34.017v0.794l-7.24,2.575v-0.794l4.966-1.695c0.44-0.15,1.02-0.354,1.566-0.515v-0.011
			c-0.525-0.139-1.072-0.343-1.62-0.536l-4.912-1.749v-0.729L342.195,34.017z"/>
		<path d="M342.292,28.043c0,1.427-0.88,2.435-2.746,2.435c-1.491,0-2.778-0.998-2.778-2.628c0-1.255,0.697-2.435,2.682-2.435
			C341.005,25.415,342.292,26.456,342.292,28.043z M337.325,27.936c0,0.923,0.676,1.834,2.167,1.834
			c1.416,0,2.231-0.708,2.231-1.845c0-0.922-0.676-1.812-2.242-1.812C338.141,26.112,337.325,26.777,337.325,27.936z"/>
		<path d="M334.901,21.747v2.017h-0.537v-2.692h7.284v-2.017h0.547v4.709h-0.547v-2.017H334.901z"/>
		<path d="M342.281,14.292c0,1.03-0.525,1.77-1.781,1.77h-3.089v1.791h-0.547v-1.791h-1.803l-0.182-0.676h1.984V12.93h0.547v2.456
			h2.854c1.051,0,1.427-0.536,1.427-1.276c0-0.365-0.043-0.836-0.14-1.169l0.568-0.075
			C342.228,13.284,342.281,13.874,342.281,14.292z"/>
		<path d="M342.292,8.908c0,0.718-0.086,1.384-0.279,1.877l-0.676-0.139c0.247-0.494,0.397-1.116,0.397-1.856
			c0-0.729-0.301-1.491-0.944-1.491c-1.48,0-0.558,3.358-2.521,3.358c-0.837,0-1.513-0.729-1.513-2.135
			c0-0.558,0.086-1.148,0.193-1.577l0.579,0.107c-0.172,0.515-0.247,1.019-0.247,1.545c0,0.912,0.397,1.352,0.891,1.352
			c1.405,0,0.536-3.369,2.521-3.369C341.788,6.58,342.292,7.738,342.292,8.908z"/>
	</g>
</g>
<g>
	<g enable-background="new    ">
		<path fill="#010101" d="M351.719,94.471c-0.852,0-1.665-0.05-2.128-0.05h-1.088v-0.676c0.325-0.075,0.713-0.138,1.088-0.162v-6.77
			c-0.375-0.025-0.763-0.088-1.088-0.163v-0.675h1.063c0.663,0,1.626-0.038,2.54-0.038c2.715,0,4.329,1.264,4.329,4.167
			C356.436,92.994,354.483,94.471,351.719,94.471z M352.006,86.876c-0.45,0-0.95,0.025-1.276,0.038v6.506
			c0.326,0.05,0.776,0.075,1.127,0.075c1.989,0,3.365-1.026,3.365-3.315C355.222,88.027,354.195,86.876,352.006,86.876z"/>
		<path fill="#010101" d="M357.375,94.421v-0.676c0.325-0.075,0.713-0.138,1.088-0.162v-4.492c-0.3-0.05-0.726-0.101-1.088-0.125
			V88.29c0.625-0.075,1.488-0.125,2.214-0.088v5.381c0.363,0.024,0.738,0.087,1.052,0.162v0.676H357.375z M359.039,86.964
			c-0.413,0-0.751-0.313-0.751-0.726c0-0.413,0.338-0.738,0.751-0.738c0.4,0,0.738,0.325,0.738,0.738
			C359.777,86.639,359.439,86.964,359.039,86.964z"/>
		<path fill="#010101" d="M363.981,97.624c-1.602,0-2.615-0.663-2.615-1.864c0-0.726,0.476-1.339,1.039-1.651
			c-0.375-0.163-0.613-0.514-0.613-0.926c0-0.438,0.275-0.852,0.688-1.052c-0.563-0.338-0.913-0.9-0.913-1.714
			c0-1.251,0.938-2.327,2.64-2.327c0.338,0,0.563,0.037,0.876,0.112h2.114v0.889h-1.026c0.313,0.25,0.501,0.663,0.501,1.151
			c0,1.275-0.863,2.252-2.628,2.252c-0.25,0-0.438-0.025-0.663-0.088c-0.263,0.125-0.4,0.325-0.4,0.525
			c0,0.351,0.313,0.463,1.063,0.488l1.139,0.037c1.339,0.051,2.09,0.676,2.09,1.802C367.272,96.573,365.934,97.624,363.981,97.624z
			 M364.857,94.396l-1.201-0.05c-0.112,0-0.263,0-0.362-0.013c-0.488,0.338-0.801,0.751-0.801,1.227c0,0.738,0.7,1.176,1.676,1.176
			c1.265,0,1.965-0.575,1.965-1.339C366.134,94.796,365.733,94.421,364.857,94.396z M364.157,88.928
			c-0.938,0-1.477,0.601-1.477,1.389c0,0.864,0.513,1.364,1.438,1.364c0.889,0,1.439-0.5,1.439-1.364
			C365.559,89.466,365.058,88.928,364.157,88.928z"/>
		<path fill="#010101" d="M367.999,94.421v-0.676c0.325-0.075,0.713-0.138,1.088-0.162v-4.492c-0.3-0.05-0.726-0.101-1.088-0.125
			V88.29c0.625-0.075,1.488-0.125,2.214-0.088v5.381c0.363,0.024,0.738,0.087,1.052,0.162v0.676H367.999z M369.663,86.964
			c-0.413,0-0.751-0.313-0.751-0.726c0-0.413,0.338-0.738,0.751-0.738c0.4,0,0.738,0.325,0.738,0.738
			C370.401,86.639,370.063,86.964,369.663,86.964z"/>
		<path fill="#010101" d="M374.393,94.521c-1.276,0-1.664-0.526-1.664-1.865v-3.578h-1.276v-0.876h1.276v-2.015l1.126-0.312v2.327
			h1.739v0.876h-1.739v3.178c0,1.026,0.2,1.302,0.889,1.302c0.288,0,0.563-0.038,0.788-0.101l0.113,0.927
			C375.281,94.471,374.793,94.521,374.393,94.521z"/>
		<path fill="#010101" d="M380.399,94.421c0-0.438,0.013-0.889,0.075-1.238h-0.025c-0.3,0.763-1.089,1.351-2.114,1.351
			c-1.026,0-1.727-0.638-1.727-1.639c0-1.339,1.389-2.127,3.729-2.127v-0.463c0-0.876-0.312-1.364-1.302-1.364
			c-0.375,0-0.812,0.062-1.163,0.175c-0.025,0.313-0.088,0.664-0.15,1.014h-0.7v-1.701c0.625-0.2,1.376-0.351,2.114-0.351
			c1.826,0,2.34,0.839,2.34,2.077v3.378c0.3,0.051,0.713,0.101,1.051,0.125v0.676C381.938,94.408,381.075,94.458,380.399,94.421z
			 M380.337,91.543c-1.952,0-2.628,0.488-2.628,1.176c0,0.538,0.376,0.927,0.951,0.927c1.001,0,1.677-0.989,1.677-1.965V91.543z"/>
		<path fill="#010101" d="M382.966,94.421v-0.676c0.312-0.075,0.688-0.138,1.051-0.162v-7.407c-0.301-0.051-0.713-0.101-1.076-0.126
			v-0.675c0.638-0.075,1.477-0.126,2.202-0.088v8.296c0.363,0.024,0.738,0.087,1.051,0.162v0.676H382.966z"/>
		<path fill="#010101" d="M391.337,94.533c-0.488,0-1.051-0.05-1.464-0.162v-1.765h0.688c0.062,0.301,0.112,0.663,0.15,0.988
			c0.212,0.051,0.487,0.062,0.738,0.062c0.838,0,1.413-0.375,1.413-0.976c0-1.376-3.128-0.562-3.128-2.728
			c0-1.063,0.876-1.864,2.503-1.864c0.438,0,0.963,0.062,1.438,0.175v1.702h-0.688c-0.074-0.313-0.125-0.663-0.149-0.977
			c-0.213-0.05-0.463-0.074-0.701-0.074c-0.838,0-1.264,0.35-1.264,0.913c0,1.401,3.115,0.625,3.115,2.69
			C393.989,93.646,392.988,94.533,391.337,94.533z"/>
		<path fill="#010101" d="M394.966,94.421v-0.676c0.325-0.075,0.713-0.138,1.088-0.162v-4.492c-0.3-0.05-0.726-0.101-1.088-0.125
			V88.29c0.625-0.075,1.488-0.125,2.214-0.088v5.381c0.363,0.024,0.738,0.087,1.052,0.162v0.676H394.966z M396.63,86.964
			c-0.413,0-0.751-0.313-0.751-0.726c0-0.413,0.338-0.738,0.751-0.738c0.4,0,0.738,0.325,0.738,0.738
			C397.368,86.639,397.03,86.964,396.63,86.964z"/>
		<path fill="#010101" d="M401.572,97.624c-1.602,0-2.614-0.663-2.614-1.864c0-0.726,0.475-1.339,1.038-1.651
			c-0.375-0.163-0.613-0.514-0.613-0.926c0-0.438,0.275-0.852,0.688-1.052c-0.563-0.338-0.914-0.9-0.914-1.714
			c0-1.251,0.938-2.327,2.641-2.327c0.338,0,0.562,0.037,0.876,0.112h2.114v0.889h-1.025c0.312,0.25,0.5,0.663,0.5,1.151
			c0,1.275-0.863,2.252-2.628,2.252c-0.25,0-0.438-0.025-0.663-0.088c-0.263,0.125-0.4,0.325-0.4,0.525
			c0,0.351,0.313,0.463,1.063,0.488l1.139,0.037c1.339,0.051,2.09,0.676,2.09,1.802C404.863,96.573,403.524,97.624,401.572,97.624z
			 M402.448,94.396l-1.201-0.05c-0.112,0-0.263,0-0.362-0.013c-0.488,0.338-0.801,0.751-0.801,1.227c0,0.738,0.7,1.176,1.677,1.176
			c1.264,0,1.964-0.575,1.964-1.339C403.725,94.796,403.324,94.421,402.448,94.396z M401.748,88.928
			c-0.938,0-1.477,0.601-1.477,1.389c0,0.864,0.513,1.364,1.438,1.364c0.889,0,1.439-0.5,1.439-1.364
			C403.149,89.466,402.648,88.928,401.748,88.928z"/>
		<path fill="#010101" d="M410.632,94.421v-4.004c0-0.876-0.237-1.401-1.051-1.401c-1.026,0-1.777,1.051-1.777,2.428v2.14
			c0.338,0.024,0.701,0.074,1.001,0.162v0.676h-3.215v-0.676c0.325-0.075,0.713-0.138,1.088-0.162v-4.492
			c-0.3-0.05-0.726-0.101-1.088-0.125V88.29c0.625-0.075,1.488-0.125,2.177-0.088c0,0.363-0.025,0.938-0.088,1.313h0.013
			c0.363-0.851,1.139-1.426,2.202-1.426c1.414,0,1.864,0.889,1.864,1.989v3.504c0.363,0.024,0.738,0.087,1.039,0.162v0.676H410.632z
			"/>
		<path fill="#010101" d="M417.29,94.421c0-0.438,0.013-0.889,0.075-1.238h-0.025c-0.3,0.763-1.089,1.351-2.114,1.351
			c-1.026,0-1.727-0.638-1.727-1.639c0-1.339,1.389-2.127,3.729-2.127v-0.463c0-0.876-0.312-1.364-1.302-1.364
			c-0.375,0-0.812,0.062-1.163,0.175c-0.025,0.313-0.088,0.664-0.15,1.014h-0.7v-1.701c0.625-0.2,1.376-0.351,2.114-0.351
			c1.826,0,2.34,0.839,2.34,2.077v3.378c0.3,0.051,0.713,0.101,1.051,0.125v0.676C418.829,94.408,417.966,94.458,417.29,94.421z
			 M417.228,91.543c-1.952,0-2.628,0.488-2.628,1.176c0,0.538,0.376,0.927,0.951,0.927c1.001,0,1.677-0.989,1.677-1.965V91.543z"/>
		<path fill="#010101" d="M419.855,94.421v-0.676c0.312-0.075,0.688-0.138,1.051-0.162v-7.407c-0.301-0.051-0.713-0.101-1.076-0.126
			v-0.675c0.638-0.075,1.477-0.126,2.202-0.088v8.296c0.363,0.024,0.738,0.087,1.051,0.162v0.676H419.855z"/>
	</g>
</g>
<line fill="none" stroke="#CCCCCC" stroke-width="0.6" x1="348.162" y1="5.001" x2="348.162" y2="70.532"/>
<g>
	<path fill="none" stroke="#010101" stroke-width="0.6" stroke-linecap="round" d="M12.497,34.079
		C30.991,50.22,41.04,50.22,44.567,50.22"/>
	<path fill="none" stroke="#010101" stroke-width="0.6" stroke-linecap="round" d="M44.567,50.22
		c2.352,0,13.469,0.321,32.391-16.248C95.451,17.83,105.5,17.83,109.027,17.83"/>
	<path fill="none" stroke="#010101" stroke-width="0.6" stroke-linecap="round" d="M238.162,17.937
		c-2.352,0-13.469-0.32-32.391,16.249c-18.493,16.142-28.542,16.142-32.069,16.142"/>
	<path fill="none" stroke="#010101" stroke-width="0.6" stroke-linecap="round" d="M173.702,50.22
		c-2.352,0-13.47,0.321-32.391-16.248c-18.494-16.143-28.543-16.143-32.07-16.143"/>
</g>
<line fill="none" stroke="#CCCCCC" stroke-width="0.6" x1="12.497" y1="5.001" x2="12.497" y2="70.532"/>
<line fill="none" stroke="#CCCCCC" stroke-width="0.6" x1="12.604" y1="70.21" x2="270.446" y2="70.21"/>
<g>
	<g enable-background="new    ">
		<path d="M248.456,75.83v6.672h-0.687V75.83h-2.264v-0.568h5.213v0.568H248.456z"/>
		<path d="M252.402,82.502v-0.547h2.07v-4.248h-1.91v-0.536h2.585v4.784h1.792v0.547H252.402z M255.417,75.465
			c0,0.365-0.29,0.665-0.665,0.665c-0.365,0-0.665-0.3-0.665-0.665c0-0.364,0.3-0.654,0.665-0.654
			C255.127,74.811,255.417,75.101,255.417,75.465z"/>
		<path d="M262.979,82.502v-3.529c0-0.954-0.097-1.373-0.537-1.373c-0.558,0-1.158,1.041-1.158,2.328v2.574h-0.601v-3.476
			c0-1.008-0.139-1.427-0.579-1.427c-0.547,0-1.116,1.041-1.116,2.328v2.574h-0.611v-5.331h0.58c0,0.461-0.032,0.868-0.086,1.341
			l0.011,0.011c0.204-0.858,0.676-1.438,1.373-1.438c0.708,0,0.955,0.568,0.912,1.416c0.214-0.848,0.687-1.416,1.395-1.416
			c0.74,0,1.03,0.601,1.03,1.673v3.744H262.979z"/>
		<path d="M269.661,79.702h-3.937c-0.011,0.043-0.011,0.086-0.011,0.14c0,1.566,0.804,2.178,1.995,2.178
			c0.558,0,1.33-0.161,1.716-0.354l0.064,0.59c-0.483,0.204-1.223,0.344-1.899,0.344c-1.598,0-2.574-0.869-2.574-2.746
			c0-1.588,0.998-2.778,2.446-2.778c1.458,0,2.22,1.094,2.22,2.231C269.682,79.392,269.682,79.552,269.661,79.702z M267.419,77.6
			c-0.794,0-1.513,0.568-1.642,1.577h3.186C268.963,78.2,268.288,77.6,267.419,77.6z"/>
	</g>
</g>
<g>
	<g enable-background="new    ">
		<path d="M6.534,34.017v0.794l-7.241,2.575v-0.794l4.967-1.695c0.439-0.15,1.019-0.354,1.566-0.515v-0.011
			c-0.525-0.139-1.073-0.343-1.62-0.536l-4.913-1.749v-0.729L6.534,34.017z"/>
		<path d="M6.63,28.043c0,1.427-0.88,2.435-2.746,2.435c-1.491,0-2.778-0.998-2.778-2.628c0-1.255,0.697-2.435,2.682-2.435
			C5.343,25.415,6.63,26.456,6.63,28.043z M1.664,27.936c0,0.923,0.676,1.834,2.167,1.834c1.416,0,2.231-0.708,2.231-1.845
			c0-0.922-0.676-1.812-2.242-1.812C2.479,26.112,1.664,26.777,1.664,27.936z"/>
		<path d="M-0.761,21.747v2.017h-0.536v-2.692h7.284v-2.017h0.547v4.709H5.987v-2.017H-0.761z"/>
		<path d="M6.62,14.292c0,1.03-0.526,1.77-1.781,1.77H1.75v1.791H1.203v-1.791H-0.6l-0.183-0.676h1.985V12.93H1.75v2.456h2.854
			c1.051,0,1.426-0.536,1.426-1.276c0-0.365-0.042-0.836-0.139-1.169l0.568-0.075C6.566,13.284,6.62,13.874,6.62,14.292z"/>
		<path d="M6.63,8.908c0,0.718-0.086,1.384-0.279,1.877l-0.676-0.139C5.922,10.152,6.072,9.53,6.072,8.79
			c0-0.729-0.3-1.491-0.944-1.491c-1.48,0-0.558,3.358-2.521,3.358c-0.836,0-1.512-0.729-1.512-2.135
			c0-0.558,0.086-1.148,0.193-1.577l0.58,0.107C1.696,7.566,1.621,8.071,1.621,8.597c0,0.912,0.397,1.352,0.891,1.352
			c1.405,0,0.536-3.369,2.521-3.369C6.126,6.58,6.63,7.738,6.63,8.908z"/>
	</g>
</g>
<g>
	<g enable-background="new    ">
		<path fill="#010101" d="M18.035,94.421v-0.676c0.3-0.062,0.65-0.125,0.976-0.15l-0.488-1.389h-3.528l-0.488,1.389
			c0.325,0.025,0.688,0.088,0.988,0.15v0.676h-2.928v-0.676c0.225-0.062,0.538-0.125,0.763-0.138l2.778-7.632h1.401l2.79,7.632
			c0.225,0.013,0.538,0.075,0.763,0.138v0.676H18.035z M17.159,88.303c-0.15-0.438-0.275-0.813-0.388-1.227h-0.025
			c-0.101,0.4-0.226,0.788-0.363,1.214l-1.088,3.003h2.94L17.159,88.303z"/>
		<path fill="#010101" d="M26.544,94.421v-4.004c0-0.876-0.238-1.401-1.051-1.401c-1.026,0-1.777,1.051-1.777,2.428v2.14
			c0.338,0.024,0.701,0.074,1.001,0.162v0.676h-3.216v-0.676c0.325-0.075,0.713-0.138,1.088-0.162v-4.492
			c-0.3-0.05-0.726-0.101-1.088-0.125V88.29c0.625-0.075,1.489-0.125,2.177-0.088c0,0.363-0.025,0.938-0.088,1.313h0.013
			c0.363-0.851,1.139-1.426,2.202-1.426c1.414,0,1.864,0.889,1.864,1.989v3.504c0.363,0.024,0.738,0.087,1.039,0.162v0.676H26.544z"
			/>
		<path fill="#010101" d="M33.202,94.421c0-0.438,0.012-0.889,0.075-1.238h-0.025c-0.3,0.763-1.088,1.351-2.114,1.351
			s-1.727-0.638-1.727-1.639c0-1.339,1.389-2.127,3.729-2.127v-0.463c0-0.876-0.313-1.364-1.301-1.364
			c-0.375,0-0.813,0.062-1.164,0.175c-0.025,0.313-0.088,0.664-0.15,1.014h-0.701v-1.701c0.625-0.2,1.376-0.351,2.115-0.351
			c1.827,0,2.34,0.839,2.34,2.077v3.378c0.3,0.051,0.713,0.101,1.051,0.125v0.676C34.741,94.408,33.877,94.458,33.202,94.421z
			 M33.139,91.543c-1.952,0-2.627,0.488-2.627,1.176c0,0.538,0.375,0.927,0.951,0.927c1.001,0,1.677-0.989,1.677-1.965V91.543z"/>
		<path fill="#010101" d="M35.767,94.421v-0.676c0.313-0.075,0.688-0.138,1.051-0.162v-7.407c-0.3-0.051-0.713-0.101-1.076-0.126
			v-0.675c0.638-0.075,1.477-0.126,2.202-0.088v8.296c0.363,0.024,0.738,0.087,1.051,0.162v0.676H35.767z"/>
		<path fill="#010101" d="M42.437,94.533c-1.702,0-2.79-0.976-2.79-3.128c0-1.864,1.151-3.315,3.028-3.315
			c1.577,0,2.79,0.863,2.79,3.128C45.464,93.082,44.313,94.533,42.437,94.533z M42.574,89.028c-0.914,0-1.764,0.688-1.764,2.29
			c0,1.438,0.601,2.265,1.751,2.265c0.926,0,1.739-0.727,1.739-2.277C44.301,89.854,43.7,89.028,42.574,89.028z"/>
		<path fill="#010101" d="M49.094,97.624c-1.602,0-2.615-0.663-2.615-1.864c0-0.726,0.476-1.339,1.039-1.651
			c-0.375-0.163-0.613-0.514-0.613-0.926c0-0.438,0.275-0.852,0.688-1.052c-0.563-0.338-0.914-0.9-0.914-1.714
			c0-1.251,0.938-2.327,2.64-2.327c0.338,0,0.563,0.037,0.876,0.112h2.114v0.889h-1.026c0.313,0.25,0.5,0.663,0.5,1.151
			c0,1.275-0.863,2.252-2.627,2.252c-0.25,0-0.438-0.025-0.663-0.088c-0.263,0.125-0.4,0.325-0.4,0.525
			c0,0.351,0.312,0.463,1.063,0.488l1.139,0.037c1.338,0.051,2.089,0.676,2.089,1.802C52.385,96.573,51.046,97.624,49.094,97.624z
			 M49.97,94.396l-1.201-0.05c-0.112,0-0.263,0-0.363-0.013c-0.488,0.338-0.801,0.751-0.801,1.227c0,0.738,0.701,1.176,1.677,1.176
			c1.264,0,1.964-0.575,1.964-1.339C51.246,94.796,50.846,94.421,49.97,94.396z M49.269,88.928c-0.938,0-1.476,0.601-1.476,1.389
			c0,0.864,0.513,1.364,1.438,1.364c0.889,0,1.439-0.5,1.439-1.364C50.67,89.466,50.17,88.928,49.269,88.928z"/>
		<path fill="#010101" d="M57.666,94.533c-0.488,0-1.051-0.05-1.464-0.162v-1.765h0.688c0.062,0.301,0.112,0.663,0.15,0.988
			c0.213,0.051,0.488,0.062,0.738,0.062c0.838,0,1.414-0.375,1.414-0.976c0-1.376-3.128-0.562-3.128-2.728
			c0-1.063,0.876-1.864,2.502-1.864c0.438,0,0.964,0.062,1.439,0.175v1.702h-0.688c-0.075-0.313-0.125-0.663-0.15-0.977
			c-0.212-0.05-0.463-0.074-0.701-0.074c-0.838,0-1.264,0.35-1.264,0.913c0,1.401,3.116,0.625,3.116,2.69
			C60.318,93.646,59.317,94.533,57.666,94.533z"/>
		<path fill="#010101" d="M61.295,94.421v-0.676c0.325-0.075,0.713-0.138,1.089-0.162v-4.492c-0.301-0.05-0.726-0.101-1.089-0.125
			V88.29c0.625-0.075,1.489-0.125,2.215-0.088v5.381c0.363,0.024,0.738,0.087,1.051,0.162v0.676H61.295z M62.959,86.964
			c-0.413,0-0.75-0.313-0.75-0.726c0-0.413,0.338-0.738,0.75-0.738c0.4,0,0.738,0.325,0.738,0.738
			C63.697,86.639,63.359,86.964,62.959,86.964z"/>
		<path fill="#010101" d="M67.902,97.624c-1.602,0-2.615-0.663-2.615-1.864c0-0.726,0.476-1.339,1.039-1.651
			c-0.375-0.163-0.613-0.514-0.613-0.926c0-0.438,0.275-0.852,0.688-1.052c-0.563-0.338-0.914-0.9-0.914-1.714
			c0-1.251,0.938-2.327,2.64-2.327c0.338,0,0.563,0.037,0.876,0.112h2.114v0.889h-1.026c0.313,0.25,0.5,0.663,0.5,1.151
			c0,1.275-0.863,2.252-2.627,2.252c-0.25,0-0.438-0.025-0.663-0.088c-0.263,0.125-0.4,0.325-0.4,0.525
			c0,0.351,0.312,0.463,1.063,0.488l1.139,0.037c1.338,0.051,2.089,0.676,2.089,1.802C71.192,96.573,69.854,97.624,67.902,97.624z
			 M68.777,94.396l-1.201-0.05c-0.112,0-0.263,0-0.363-0.013c-0.488,0.338-0.801,0.751-0.801,1.227c0,0.738,0.701,1.176,1.677,1.176
			c1.264,0,1.964-0.575,1.964-1.339C70.054,94.796,69.653,94.421,68.777,94.396z M68.077,88.928c-0.938,0-1.476,0.601-1.476,1.389
			c0,0.864,0.513,1.364,1.438,1.364c0.889,0,1.439-0.5,1.439-1.364C69.478,89.466,68.978,88.928,68.077,88.928z"/>
		<path fill="#010101" d="M76.961,94.421v-4.004c0-0.876-0.238-1.401-1.051-1.401c-1.026,0-1.776,1.051-1.776,2.428v2.14
			c0.338,0.024,0.701,0.074,1.001,0.162v0.676h-3.216v-0.676c0.325-0.075,0.713-0.138,1.089-0.162v-4.492
			c-0.301-0.05-0.726-0.101-1.089-0.125V88.29c0.625-0.075,1.489-0.125,2.177-0.088c0,0.363-0.025,0.938-0.087,1.313h0.012
			c0.363-0.851,1.139-1.426,2.202-1.426c1.414,0,1.864,0.889,1.864,1.989v3.504c0.363,0.024,0.738,0.087,1.039,0.162v0.676H76.961z"
			/>
		<path fill="#010101" d="M83.619,94.421c0-0.438,0.013-0.889,0.075-1.238h-0.025c-0.3,0.763-1.088,1.351-2.114,1.351
			c-1.026,0-1.727-0.638-1.727-1.639c0-1.339,1.389-2.127,3.729-2.127v-0.463c0-0.876-0.313-1.364-1.301-1.364
			c-0.375,0-0.813,0.062-1.164,0.175c-0.025,0.313-0.088,0.664-0.15,1.014h-0.701v-1.701c0.625-0.2,1.376-0.351,2.115-0.351
			c1.827,0,2.34,0.839,2.34,2.077v3.378c0.3,0.051,0.713,0.101,1.051,0.125v0.676C85.158,94.408,84.295,94.458,83.619,94.421z
			 M83.557,91.543c-1.952,0-2.628,0.488-2.628,1.176c0,0.538,0.375,0.927,0.951,0.927c1.001,0,1.677-0.989,1.677-1.965V91.543z"/>
		<path fill="#010101" d="M86.185,94.421v-0.676c0.313-0.075,0.688-0.138,1.051-0.162v-7.407c-0.3-0.051-0.713-0.101-1.076-0.126
			v-0.675c0.638-0.075,1.477-0.126,2.202-0.088v8.296c0.363,0.024,0.738,0.087,1.051,0.162v0.676H86.185z"/>
	</g>
</g>
<line fill="none" stroke="#CCCCCC" stroke-width="0.6" x1="12.497" y1="5.001" x2="12.497" y2="70.532"/>
<g>
	<path fill="none" stroke="#010101" stroke-width="0.6" d="M238.27,17.937c2.352,0,13.469-0.32,32.391,16.249"/>
</g>
<polyline fill="none" stroke="#010101" stroke-width="0.6" points="348.162,35.148 354.042,35.148 354.148,38.997 360.027,38.997 
	360.027,43.058 366.015,43.058 366.015,46.585 372.001,46.585 372.001,48.832 377.986,48.832 377.986,50.22 383.867,50.22 
	383.867,49.9 389.853,49.9 389.853,48.404 395.839,48.404 395.839,45.731 401.826,45.731 401.826,42.31 407.812,42.31 
	407.705,37.82 413.691,37.82 413.691,33.009 419.679,33.009 419.679,28.199 425.558,28.199 425.558,24.244 431.544,24.244 
	431.544,21.144 437.529,21.144 437.529,18.792 443.517,18.792 443.517,17.937 449.503,17.937 449.503,18.257 455.489,18.257 
	455.489,20.075 461.369,20.075 461.369,22.854 467.248,22.854 467.248,26.489 473.234,26.489 473.234,30.872 479.222,30.872 
	479.222,35.148 "/>
<polyline fill="none" stroke="#010101" stroke-width="0.6" points="479.222,35.148 485.207,35.148 485.207,38.997 491.193,38.997 
	491.193,43.058 497.181,43.058 497.181,46.585 503.166,46.585 503.166,48.832 509.046,48.832 509.046,50.22 515.032,50.22 
	514.925,49.9 520.912,49.9 520.912,48.404 526.897,48.404 526.897,45.731 532.885,45.731 532.885,42.31 538.871,42.31 
	538.871,37.82 544.856,37.82 544.856,33.009 550.736,33.009 550.736,28.199 556.724,28.199 556.724,24.244 562.709,24.244 
	562.709,21.144 568.696,21.144 568.696,18.792 574.575,18.792 574.575,17.937 580.562,17.937 580.562,18.257 586.548,18.257 
	586.548,20.075 592.428,20.075 592.428,22.854 598.414,22.854 598.414,26.489 604.399,26.489 604.399,30.872 "/>
</svg>
