<?xml version="1.0" encoding="utf-8"?>
<!-- Generator: Adobe Illustrator 16.0.4, SVG Export Plug-In . SVG Version: 6.00 Build 0)  -->
<!DOCTYPE svg PUBLIC "-//W3C//DTD SVG 1.1//EN" "http://www.w3.org/Graphics/SVG/1.1/DTD/svg11.dtd">
<svg version="1.1" id="Layer_1" xmlns="http://www.w3.org/2000/svg" xmlns:xlink="http://www.w3.org/1999/xlink" x="0px" y="0px"
	 width="650px" height="240px" viewBox="-19 0 650 240" enable-background="new -19 0 650 240" xml:space="preserve">
<g>
	<g enable-background="new    ">
		<path fill="#010101" d="M325.909,18.919c-0.722,0-1.41-0.042-1.803-0.042h-0.923v-0.573c0.275-0.063,0.604-0.117,0.923-0.138
			v-5.737c-0.318-0.021-0.647-0.074-0.923-0.138v-0.573h0.901c0.562,0,1.379-0.032,2.153-0.032c2.301,0,3.669,1.071,3.669,3.531
			C329.907,17.667,328.253,18.919,325.909,18.919z M326.153,12.482c-0.382,0-0.807,0.021-1.082,0.032v5.514
			c0.275,0.042,0.657,0.064,0.954,0.064c1.687,0,2.854-0.87,2.854-2.811C328.879,13.458,328.009,12.482,326.153,12.482z"/>
		<path fill="#010101" d="M330.698,18.876v-0.573c0.275-0.063,0.604-0.117,0.923-0.138v-3.807c-0.255-0.042-0.615-0.085-0.923-0.106
			V13.68c0.53-0.063,1.262-0.106,1.877-0.074v4.56c0.308,0.021,0.626,0.074,0.891,0.138v0.573H330.698z M332.108,12.556
			c-0.35,0-0.636-0.265-0.636-0.615s0.286-0.625,0.636-0.625c0.34,0,0.626,0.275,0.626,0.625
			C332.734,12.28,332.448,12.556,332.108,12.556z"/>
		<path fill="#010101" d="M336.296,21.591c-1.357,0-2.217-0.562-2.217-1.58c0-0.615,0.403-1.135,0.881-1.4
			c-0.318-0.138-0.52-0.435-0.52-0.785c0-0.371,0.233-0.721,0.583-0.891c-0.478-0.286-0.774-0.763-0.774-1.453
			c0-1.061,0.796-1.973,2.237-1.973c0.287,0,0.478,0.032,0.743,0.096h1.792v0.753h-0.87c0.266,0.212,0.425,0.562,0.425,0.976
			c0,1.082-0.732,1.909-2.228,1.909c-0.212,0-0.371-0.021-0.562-0.074c-0.223,0.106-0.34,0.276-0.34,0.445
			c0,0.297,0.266,0.393,0.901,0.414l0.965,0.032c1.135,0.042,1.771,0.572,1.771,1.527C339.085,20.701,337.95,21.591,336.296,21.591z
			 M337.038,18.855l-1.018-0.042c-0.096,0-0.223,0-0.308-0.011c-0.414,0.286-0.679,0.636-0.679,1.039
			c0,0.626,0.594,0.997,1.421,0.997c1.071,0,1.665-0.488,1.665-1.135C338.12,19.195,337.78,18.876,337.038,18.855z M336.444,14.221
			c-0.795,0-1.251,0.509-1.251,1.177c0,0.732,0.435,1.156,1.219,1.156c0.753,0,1.22-0.424,1.22-1.156
			C337.632,14.677,337.208,14.221,336.444,14.221z"/>
		<path fill="#010101" d="M339.696,18.876v-0.573c0.275-0.063,0.604-0.117,0.923-0.138v-3.807c-0.255-0.042-0.615-0.085-0.923-0.106
			V13.68c0.53-0.063,1.262-0.106,1.877-0.074v4.56c0.308,0.021,0.626,0.074,0.891,0.138v0.573H339.696z M341.106,12.556
			c-0.35,0-0.636-0.265-0.636-0.615s0.286-0.625,0.636-0.625c0.34,0,0.626,0.275,0.626,0.625
			C341.732,12.28,341.446,12.556,341.106,12.556z"/>
		<path fill="#010101" d="M345.113,18.961c-1.082,0-1.411-0.445-1.411-1.58v-3.033h-1.081v-0.742h1.081v-1.708l0.955-0.265v1.973
			h1.474v0.742h-1.474v2.694c0,0.87,0.169,1.103,0.753,1.103c0.243,0,0.477-0.032,0.668-0.084l0.095,0.785
			C345.866,18.919,345.452,18.961,345.113,18.961z"/>
		<path fill="#010101" d="M350.201,18.876c0-0.371,0.011-0.753,0.063-1.05h-0.021c-0.255,0.647-0.923,1.145-1.793,1.145
			c-0.869,0-1.463-0.541-1.463-1.389c0-1.135,1.177-1.803,3.16-1.803v-0.392c0-0.743-0.266-1.156-1.103-1.156
			c-0.318,0-0.689,0.053-0.986,0.148c-0.021,0.265-0.074,0.562-0.128,0.859h-0.594v-1.442c0.53-0.17,1.167-0.297,1.792-0.297
			c1.549,0,1.983,0.71,1.983,1.76v2.863c0.255,0.042,0.604,0.085,0.891,0.106v0.573C351.506,18.866,350.774,18.908,350.201,18.876z
			 M350.148,16.438c-1.654,0-2.228,0.414-2.228,0.997c0,0.456,0.318,0.785,0.807,0.785c0.849,0,1.421-0.837,1.421-1.665V16.438z"/>
		<path fill="#010101" d="M352.371,18.876v-0.573c0.266-0.063,0.584-0.117,0.892-0.138v-6.278c-0.255-0.042-0.604-0.084-0.912-0.106
			v-0.573c0.541-0.063,1.251-0.106,1.866-0.074v7.031c0.308,0.021,0.626,0.074,0.891,0.138v0.573H352.371z"/>
		<path fill="#010101" d="M357.904,18.876v-0.573c0.275-0.063,0.604-0.117,0.923-0.138v-5.737c-0.318-0.021-0.647-0.074-0.923-0.138
			v-0.573h2.811v0.573c-0.276,0.063-0.604,0.117-0.923,0.138v5.737c0.318,0.021,0.646,0.074,0.923,0.138v0.573H357.904z"/>
		<path fill="#010101" d="M361.953,20.584h-0.911l3.711-9.735h0.912L361.953,20.584z"/>
		<path fill="#010101" d="M369.289,18.982c-2.11,0-3.192-1.432-3.192-3.595c0-2.397,1.527-3.775,3.394-3.775
			c2.1,0,3.192,1.432,3.192,3.595C372.683,17.604,371.145,18.982,369.289,18.982z M369.395,12.471c-1.283,0-2.279,0.976-2.279,2.768
			c0,1.718,0.753,2.885,2.27,2.885c1.272,0,2.269-0.976,2.269-2.768C371.653,13.638,370.9,12.471,369.395,12.471z"/>
		<path fill="#010101" d="M378.371,16.416c-0.297,0-0.562-0.021-0.753-0.042v1.792c0.318,0.021,0.646,0.074,0.923,0.138v0.573
			h-2.811v-0.573c0.275-0.063,0.604-0.117,0.923-0.138v-5.737c-0.318-0.021-0.647-0.074-0.923-0.138v-0.573h0.923
			c0.318,0,1.188-0.042,1.855-0.042c1.931,0,2.726,1.018,2.726,2.238C381.234,15.366,380.121,16.416,378.371,16.416z
			 M378.403,12.471c-0.276,0-0.573,0-0.785,0.021v3.065c0.19,0.032,0.488,0.063,0.838,0.063c1.198,0,1.771-0.71,1.771-1.58
			C380.227,13.245,379.792,12.471,378.403,12.471z"/>
		<path fill="#010101" d="M381.793,18.876v-0.573c0.275-0.063,0.604-0.117,0.923-0.138v-3.807c-0.255-0.042-0.615-0.085-0.923-0.106
			V13.68c0.53-0.063,1.262-0.106,1.877-0.074v4.56c0.308,0.021,0.626,0.074,0.891,0.138v0.573H381.793z M383.203,12.556
			c-0.35,0-0.636-0.265-0.636-0.615s0.286-0.625,0.636-0.625c0.34,0,0.626,0.275,0.626,0.625
			C383.829,12.28,383.543,12.556,383.203,12.556z"/>
		<path fill="#010101" d="M389.331,18.876v-3.394c0-0.742-0.201-1.188-0.891-1.188c-0.869,0-1.506,0.891-1.506,2.057v1.813
			c0.286,0.021,0.594,0.063,0.849,0.138v0.573h-2.726v-0.573c0.275-0.063,0.604-0.117,0.923-0.138v-3.807
			c-0.255-0.042-0.615-0.085-0.923-0.106V13.68c0.53-0.063,1.262-0.106,1.845-0.074c0,0.308-0.021,0.795-0.074,1.113h0.011
			c0.308-0.721,0.966-1.209,1.867-1.209c1.198,0,1.58,0.753,1.58,1.687v2.969c0.308,0.021,0.625,0.074,0.88,0.138v0.573H389.331z"/>
		<path fill="#010101" d="M398.043,18.876v1.294c0.308,0.021,0.626,0.074,0.891,0.148v0.541h-2.768v-0.541
			c0.275-0.074,0.604-0.127,0.923-0.148v-1.294h-3.118l-0.159-0.785l2.99-4.73h1.241v4.656h1.23v0.859H398.043z M397.099,14.295
			h-0.01l-2.344,3.732c0.604-0.01,1.982-0.01,2.354-0.01V14.295z"/>
	</g>
</g>
<g>
	<g enable-background="new    ">
		<path fill="#010101" d="M462.408,15.939v2.619c-0.71,0.265-1.58,0.414-2.364,0.414c-2.163,0-3.553-1.315-3.553-3.531
			c0-2.206,1.39-3.818,3.817-3.818c0.679,0,1.326,0.096,1.962,0.255v1.686h-0.699c-0.064-0.35-0.106-0.658-0.139-0.944
			c-0.392-0.106-0.816-0.159-1.209-0.159c-1.516,0-2.693,0.944-2.693,2.863c0,1.782,1.039,2.8,2.651,2.8
			c0.478,0,0.88-0.074,1.262-0.191v-1.994c-0.318-0.021-0.646-0.074-0.912-0.138v-0.573h2.577v0.583
			C462.886,15.865,462.652,15.907,462.408,15.939z"/>
		<path fill="#010101" d="M467.336,14.454c-1.209-0.201-1.75,0.615-1.75,2.301v1.411c0.318,0.021,0.646,0.074,0.923,0.138v0.573
			h-2.8v-0.573c0.275-0.063,0.604-0.117,0.923-0.138v-3.807c-0.255-0.042-0.615-0.085-0.923-0.106V13.68
			c0.53-0.063,1.262-0.106,1.845-0.074c0,0.329-0.031,0.816-0.105,1.251h0.011c0.233-0.732,0.764-1.464,1.919-1.347L467.336,14.454z
			"/>
		<path fill="#010101" d="M470.355,18.972c-1.442,0-2.365-0.827-2.365-2.651c0-1.58,0.976-2.811,2.566-2.811
			c1.336,0,2.365,0.732,2.365,2.651C472.922,17.742,471.946,18.972,470.355,18.972z M470.472,14.306
			c-0.773,0-1.495,0.583-1.495,1.941c0,1.219,0.509,1.919,1.484,1.919c0.785,0,1.475-0.615,1.475-1.93
			C471.936,15.006,471.427,14.306,470.472,14.306z"/>
		<path fill="#010101" d="M477.818,18.876c0-0.318,0.021-0.785,0.074-1.113h-0.021c-0.308,0.721-0.954,1.208-1.855,1.208
			c-1.209,0-1.58-0.753-1.58-1.686v-2.927c-0.255-0.042-0.604-0.085-0.892-0.106V13.68c0.499-0.063,1.22-0.106,1.835-0.074V17
			c0,0.742,0.212,1.188,0.901,1.188c0.87,0,1.506-0.891,1.506-2.057v-1.782c-0.244-0.032-0.572-0.074-0.858-0.095V13.68
			c0.52-0.063,1.219-0.106,1.803-0.074v4.518c0.254,0.042,0.604,0.085,0.891,0.106v0.573
			C479.123,18.866,478.391,18.908,477.818,18.876z"/>
		<path fill="#010101" d="M484.389,18.876v-3.394c0-0.742-0.201-1.188-0.891-1.188c-0.869,0-1.506,0.891-1.506,2.057v1.813
			c0.286,0.021,0.594,0.063,0.849,0.138v0.573h-2.726v-0.573c0.275-0.063,0.604-0.117,0.923-0.138v-3.807
			c-0.255-0.042-0.615-0.085-0.923-0.106V13.68c0.53-0.063,1.262-0.106,1.845-0.074c0,0.308-0.021,0.795-0.074,1.113h0.011
			c0.308-0.721,0.965-1.209,1.867-1.209c1.198,0,1.58,0.753,1.58,1.687v2.969c0.308,0.021,0.625,0.074,0.88,0.138v0.573H484.389z"/>
		<path fill="#010101" d="M490.493,18.876c0-0.297,0.021-0.764,0.085-1.071l-0.021-0.01c-0.297,0.71-0.943,1.177-1.771,1.177
			c-1.293,0-1.94-0.944-1.94-2.481c0-1.845,1.061-2.958,2.726-2.958c0.286,0,0.572,0.021,0.891,0.053v-1.697
			c-0.254-0.042-0.615-0.084-0.922-0.106v-0.573c0.529-0.063,1.262-0.106,1.877-0.074v6.989c0.254,0.042,0.604,0.085,0.891,0.106
			v0.573C491.808,18.866,491.076,18.908,490.493,18.876z M490.461,14.401c-0.318-0.074-0.636-0.117-0.933-0.117
			c-1.008,0-1.676,0.604-1.676,2.121c0,1.134,0.371,1.781,1.166,1.781c0.955,0,1.442-1.113,1.442-2.036V14.401z"/>
	</g>
</g>
<g>
	<g>
		<g>
			<rect x="363.526" y="85.572" fill="none" stroke="#CDCCCC" stroke-width="0.6339" width="2.937" height="2.938"/>
			<rect x="363.526" y="93.479" fill="none" stroke="#CDCCCC" stroke-width="0.6339" width="2.937" height="2.936"/>
			<rect x="363.526" y="101.384" fill="none" stroke="#CDCCCC" stroke-width="0.6339" width="2.937" height="2.936"/>
			<rect x="363.526" y="109.515" fill="none" stroke="#CDCCCC" stroke-width="0.6339" width="2.937" height="2.937"/>
			<rect x="363.526" y="117.419" fill="none" stroke="#CDCCCC" stroke-width="0.6339" width="2.937" height="2.937"/>
		</g>
		<g>
			<rect x="371.658" y="85.572" fill="none" stroke="#CDCCCC" stroke-width="0.6339" width="2.936" height="2.938"/>
			<rect x="371.658" y="93.479" fill="none" stroke="#CDCCCC" stroke-width="0.6339" width="2.936" height="2.936"/>
			<rect x="371.658" y="101.384" fill="none" stroke="#CDCCCC" stroke-width="0.6339" width="2.936" height="2.936"/>
			<rect x="371.658" y="109.515" fill="none" stroke="#CDCCCC" stroke-width="0.6339" width="2.936" height="2.937"/>
			<rect x="371.658" y="117.419" fill="none" stroke="#CDCCCC" stroke-width="0.6339" width="2.936" height="2.937"/>
		</g>
		<g>
			<rect x="379.788" y="85.572" fill="none" stroke="#CDCCCC" stroke-width="0.6339" width="2.938" height="2.938"/>
			<rect x="379.788" y="93.479" fill="none" stroke="#CDCCCC" stroke-width="0.6339" width="2.938" height="2.936"/>
			<rect x="379.788" y="101.384" fill="none" stroke="#CDCCCC" stroke-width="0.6339" width="2.938" height="2.936"/>
			<rect x="379.788" y="109.515" fill="none" stroke="#CDCCCC" stroke-width="0.6339" width="2.938" height="2.937"/>
			<rect x="379.788" y="117.419" fill="none" stroke="#CDCCCC" stroke-width="0.6339" width="2.938" height="2.937"/>
		</g>
		<g>
			<rect x="387.692" y="85.572" fill="none" stroke="#CDCCCC" stroke-width="0.6339" width="2.938" height="2.938"/>
			<rect x="387.692" y="93.479" fill="none" stroke="#CDCCCC" stroke-width="0.6339" width="2.938" height="2.936"/>
			<rect x="387.692" y="101.384" fill="none" stroke="#CDCCCC" stroke-width="0.6339" width="2.938" height="2.936"/>
			<rect x="387.692" y="109.515" fill="none" stroke="#CDCCCC" stroke-width="0.6339" width="2.938" height="2.937"/>
			<rect x="387.692" y="117.419" fill="none" stroke="#CDCCCC" stroke-width="0.6339" width="2.938" height="2.937"/>
		</g>
		<g>
			<rect x="395.824" y="85.572" fill="none" stroke="#CDCCCC" stroke-width="0.6339" width="2.936" height="2.938"/>
			<rect x="395.824" y="93.479" fill="none" stroke="#CDCCCC" stroke-width="0.6339" width="2.936" height="2.936"/>
			<rect x="395.824" y="101.384" fill="none" stroke="#CDCCCC" stroke-width="0.6339" width="2.936" height="2.936"/>
			<rect x="395.824" y="109.515" fill="none" stroke="#CDCCCC" stroke-width="0.6339" width="2.936" height="2.937"/>
			<rect x="395.824" y="117.419" fill="none" stroke="#CDCCCC" stroke-width="0.6339" width="2.936" height="2.937"/>
		</g>
		<g>
			<rect x="403.955" y="85.572" fill="none" stroke="#CDCCCC" stroke-width="0.6339" width="2.937" height="2.938"/>
			<rect x="403.955" y="93.479" fill="none" stroke="#CDCCCC" stroke-width="0.6339" width="2.937" height="2.936"/>
			<rect x="403.955" y="101.384" fill="none" stroke="#CDCCCC" stroke-width="0.6339" width="2.937" height="2.936"/>
			<rect x="403.955" y="109.515" fill="none" stroke="#CDCCCC" stroke-width="0.6339" width="2.937" height="2.937"/>
			<rect x="403.955" y="117.419" fill="none" stroke="#CDCCCC" stroke-width="0.6339" width="2.937" height="2.937"/>
		</g>
		<g>
			<rect x="412.088" y="85.572" fill="none" stroke="#CDCCCC" stroke-width="0.6339" width="2.936" height="2.938"/>
			<rect x="412.088" y="93.479" fill="none" stroke="#CDCCCC" stroke-width="0.6339" width="2.936" height="2.936"/>
			<rect x="412.088" y="101.384" fill="none" stroke="#CDCCCC" stroke-width="0.6339" width="2.936" height="2.936"/>
			<rect x="412.088" y="109.515" fill="none" stroke="#CDCCCC" stroke-width="0.6339" width="2.936" height="2.937"/>
			<rect x="412.088" y="117.419" fill="none" stroke="#CDCCCC" stroke-width="0.6339" width="2.936" height="2.937"/>
		</g>
		<g>
			<rect x="420.333" y="85.572" fill="none" stroke="#CDCCCC" stroke-width="0.6339" width="2.933" height="2.938"/>
			<rect x="420.333" y="93.479" fill="none" stroke="#CDCCCC" stroke-width="0.6339" width="2.933" height="2.936"/>
			<rect x="420.333" y="101.384" fill="none" stroke="#CDCCCC" stroke-width="0.6339" width="2.933" height="2.936"/>
			<rect x="420.333" y="109.515" fill="none" stroke="#CDCCCC" stroke-width="0.6339" width="2.933" height="2.937"/>
			<rect x="420.333" y="117.419" fill="none" stroke="#CDCCCC" stroke-width="0.6339" width="2.933" height="2.937"/>
		</g>
		<g>
			<rect x="428.463" y="85.572" fill="none" stroke="#CDCCCC" stroke-width="0.6339" width="2.936" height="2.938"/>
			<rect x="428.463" y="93.479" fill="none" stroke="#CDCCCC" stroke-width="0.6339" width="2.936" height="2.936"/>
			<rect x="428.463" y="101.384" fill="none" stroke="#CDCCCC" stroke-width="0.6339" width="2.936" height="2.936"/>
			<rect x="428.463" y="109.515" fill="none" stroke="#CDCCCC" stroke-width="0.6339" width="2.936" height="2.937"/>
			<rect x="428.463" y="117.419" fill="none" stroke="#CDCCCC" stroke-width="0.6339" width="2.936" height="2.937"/>
		</g>
		<g>
			<rect x="436.369" y="85.572" fill="none" stroke="#CDCCCC" stroke-width="0.6339" width="2.938" height="2.938"/>
			<rect x="436.369" y="93.479" fill="none" stroke="#CDCCCC" stroke-width="0.6339" width="2.938" height="2.936"/>
			<rect x="436.369" y="101.384" fill="none" stroke="#CDCCCC" stroke-width="0.6339" width="2.938" height="2.936"/>
			<rect x="436.369" y="109.515" fill="none" stroke="#CDCCCC" stroke-width="0.6339" width="2.938" height="2.937"/>
			<rect x="436.369" y="117.419" fill="none" stroke="#CDCCCC" stroke-width="0.6339" width="2.938" height="2.937"/>
		</g>
		<g>
			<rect x="444.499" y="85.572" fill="none" stroke="#CDCCCC" stroke-width="0.6339" width="2.938" height="2.938"/>
			<rect x="444.499" y="93.479" fill="none" stroke="#CDCCCC" stroke-width="0.6339" width="2.938" height="2.936"/>
			<rect x="444.499" y="101.384" fill="none" stroke="#CDCCCC" stroke-width="0.6339" width="2.938" height="2.936"/>
			<rect x="444.499" y="109.515" fill="none" stroke="#CDCCCC" stroke-width="0.6339" width="2.938" height="2.937"/>
			<rect x="444.499" y="117.419" fill="none" stroke="#CDCCCC" stroke-width="0.6339" width="2.938" height="2.937"/>
		</g>
		<g>
			<rect x="452.63" y="85.572" fill="none" stroke="#CDCCCC" stroke-width="0.6339" width="2.937" height="2.938"/>
			<rect x="452.63" y="93.479" fill="none" stroke="#CDCCCC" stroke-width="0.6339" width="2.937" height="2.936"/>
			<rect x="452.63" y="101.384" fill="none" stroke="#CDCCCC" stroke-width="0.6339" width="2.937" height="2.936"/>
			<rect x="452.63" y="109.515" fill="none" stroke="#CDCCCC" stroke-width="0.6339" width="2.937" height="2.937"/>
			<rect x="452.63" y="117.419" fill="none" stroke="#CDCCCC" stroke-width="0.6339" width="2.937" height="2.937"/>
		</g>
		<g>
			<rect x="460.763" y="85.572" fill="none" stroke="#CDCCCC" stroke-width="0.6339" width="2.935" height="2.938"/>
			<rect x="460.763" y="93.479" fill="none" stroke="#CDCCCC" stroke-width="0.6339" width="2.935" height="2.936"/>
			<rect x="460.763" y="101.384" fill="none" stroke="#CDCCCC" stroke-width="0.6339" width="2.935" height="2.936"/>
			<rect x="460.763" y="109.515" fill="none" stroke="#CDCCCC" stroke-width="0.6339" width="2.935" height="2.937"/>
			<rect x="460.763" y="117.419" fill="none" stroke="#CDCCCC" stroke-width="0.6339" width="2.935" height="2.937"/>
		</g>
		<g>
			<rect x="468.894" y="85.572" fill="none" stroke="#CDCCCC" stroke-width="0.6339" width="2.935" height="2.938"/>
			<rect x="468.894" y="93.479" fill="none" stroke="#CDCCCC" stroke-width="0.6339" width="2.935" height="2.936"/>
			<rect x="468.894" y="101.384" fill="none" stroke="#CDCCCC" stroke-width="0.6339" width="2.935" height="2.936"/>
			<rect x="468.894" y="109.515" fill="none" stroke="#CDCCCC" stroke-width="0.6339" width="2.935" height="2.937"/>
			<rect x="468.894" y="117.419" fill="none" stroke="#CDCCCC" stroke-width="0.6339" width="2.935" height="2.937"/>
		</g>
		<g>
			<rect x="477.023" y="85.572" fill="none" stroke="#CDCCCC" stroke-width="0.6339" width="2.936" height="2.938"/>
			<rect x="477.023" y="93.479" fill="none" stroke="#CDCCCC" stroke-width="0.6339" width="2.936" height="2.936"/>
			<rect x="477.023" y="101.384" fill="none" stroke="#CDCCCC" stroke-width="0.6339" width="2.936" height="2.936"/>
			<rect x="477.023" y="109.515" fill="none" stroke="#CDCCCC" stroke-width="0.6339" width="2.936" height="2.937"/>
			<rect x="477.023" y="117.419" fill="none" stroke="#CDCCCC" stroke-width="0.6339" width="2.936" height="2.937"/>
		</g>
		<g>
			<rect x="484.93" y="85.572" fill="none" stroke="#CDCCCC" stroke-width="0.6339" width="2.938" height="2.938"/>
			<rect x="484.93" y="93.479" fill="none" stroke="#CDCCCC" stroke-width="0.6339" width="2.938" height="2.936"/>
			<rect x="484.93" y="101.384" fill="none" stroke="#CDCCCC" stroke-width="0.6339" width="2.938" height="2.936"/>
			<rect x="484.93" y="109.515" fill="none" stroke="#CDCCCC" stroke-width="0.6339" width="2.938" height="2.937"/>
			<rect x="484.93" y="117.419" fill="none" stroke="#CDCCCC" stroke-width="0.6339" width="2.938" height="2.937"/>
		</g>
		<g>
			<rect x="493.06" y="85.572" fill="none" stroke="#CDCCCC" stroke-width="0.6339" width="2.938" height="2.938"/>
			<rect x="493.06" y="93.479" fill="none" stroke="#CDCCCC" stroke-width="0.6339" width="2.938" height="2.936"/>
			<rect x="493.06" y="101.384" fill="none" stroke="#CDCCCC" stroke-width="0.6339" width="2.938" height="2.936"/>
			<rect x="493.06" y="109.515" fill="none" stroke="#CDCCCC" stroke-width="0.6339" width="2.938" height="2.937"/>
			<rect x="493.06" y="117.419" fill="none" stroke="#CDCCCC" stroke-width="0.6339" width="2.938" height="2.937"/>
		</g>
		<g>
			<rect x="501.191" y="85.572" fill="none" stroke="#CDCCCC" stroke-width="0.6339" width="2.937" height="2.938"/>
			<rect x="501.191" y="93.479" fill="none" stroke="#CDCCCC" stroke-width="0.6339" width="2.937" height="2.936"/>
			<rect x="501.191" y="101.384" fill="none" stroke="#CDCCCC" stroke-width="0.6339" width="2.937" height="2.936"/>
			<rect x="501.191" y="109.515" fill="none" stroke="#CDCCCC" stroke-width="0.6339" width="2.937" height="2.937"/>
			<rect x="501.191" y="117.419" fill="none" stroke="#CDCCCC" stroke-width="0.6339" width="2.937" height="2.937"/>
		</g>
		<g>
			<rect x="509.323" y="85.572" fill="none" stroke="#CDCCCC" stroke-width="0.6339" width="2.937" height="2.938"/>
			<rect x="509.323" y="93.479" fill="none" stroke="#CDCCCC" stroke-width="0.6339" width="2.937" height="2.936"/>
			<rect x="509.323" y="101.384" fill="none" stroke="#CDCCCC" stroke-width="0.6339" width="2.937" height="2.936"/>
			<rect x="509.323" y="109.515" fill="none" stroke="#CDCCCC" stroke-width="0.6339" width="2.937" height="2.937"/>
			<rect x="509.323" y="117.419" fill="none" stroke="#CDCCCC" stroke-width="0.6339" width="2.937" height="2.937"/>
		</g>
		<g>
			<rect x="517.455" y="85.572" fill="none" stroke="#CDCCCC" stroke-width="0.6339" width="2.934" height="2.938"/>
			<rect x="517.455" y="93.479" fill="none" stroke="#CDCCCC" stroke-width="0.6339" width="2.934" height="2.936"/>
			<rect x="517.455" y="101.384" fill="none" stroke="#CDCCCC" stroke-width="0.6339" width="2.934" height="2.936"/>
			<rect x="517.455" y="109.515" fill="none" stroke="#CDCCCC" stroke-width="0.6339" width="2.934" height="2.937"/>
			<rect x="517.455" y="117.419" fill="none" stroke="#CDCCCC" stroke-width="0.6339" width="2.934" height="2.937"/>
		</g>
		<g>
			<rect x="525.698" y="85.572" fill="none" stroke="#CDCCCC" stroke-width="0.6339" width="2.936" height="2.938"/>
			<rect x="525.698" y="93.479" fill="none" stroke="#CDCCCC" stroke-width="0.6339" width="2.936" height="2.936"/>
			<rect x="525.698" y="101.384" fill="none" stroke="#CDCCCC" stroke-width="0.6339" width="2.936" height="2.936"/>
			<rect x="525.698" y="109.515" fill="none" stroke="#CDCCCC" stroke-width="0.6339" width="2.936" height="2.937"/>
			<rect x="525.698" y="117.419" fill="none" stroke="#CDCCCC" stroke-width="0.6339" width="2.936" height="2.937"/>
		</g>
		<g>
			<rect x="533.604" y="85.572" fill="none" stroke="#CDCCCC" stroke-width="0.6339" width="2.936" height="2.938"/>
			<rect x="533.604" y="93.479" fill="none" stroke="#CDCCCC" stroke-width="0.6339" width="2.936" height="2.936"/>
			<rect x="533.604" y="101.384" fill="none" stroke="#CDCCCC" stroke-width="0.6339" width="2.936" height="2.936"/>
			<rect x="533.604" y="109.515" fill="none" stroke="#CDCCCC" stroke-width="0.6339" width="2.936" height="2.937"/>
			<rect x="533.604" y="117.419" fill="none" stroke="#CDCCCC" stroke-width="0.6339" width="2.936" height="2.937"/>
		</g>
		<g>
			<rect x="541.734" y="85.572" fill="none" stroke="#CDCCCC" stroke-width="0.6339" width="2.937" height="2.938"/>
			<rect x="541.734" y="93.479" fill="none" stroke="#CDCCCC" stroke-width="0.6339" width="2.937" height="2.936"/>
			<rect x="541.734" y="101.384" fill="none" stroke="#CDCCCC" stroke-width="0.6339" width="2.937" height="2.936"/>
			<rect x="541.734" y="109.515" fill="none" stroke="#CDCCCC" stroke-width="0.6339" width="2.937" height="2.937"/>
			<rect x="541.734" y="117.419" fill="none" stroke="#CDCCCC" stroke-width="0.6339" width="2.937" height="2.937"/>
		</g>
		<g>
			<rect x="331.227" y="85.572" fill="none" stroke="#CDCCCC" stroke-width="0.6339" width="2.938" height="2.938"/>
			<rect x="331.227" y="93.479" fill="none" stroke="#CDCCCC" stroke-width="0.6339" width="2.938" height="2.936"/>
			<rect x="331.227" y="101.384" fill="none" stroke="#CDCCCC" stroke-width="0.6339" width="2.938" height="2.936"/>
			<rect x="331.227" y="109.515" fill="none" stroke="#CDCCCC" stroke-width="0.6339" width="2.938" height="2.937"/>
			<rect x="331.227" y="117.419" fill="none" stroke="#CDCCCC" stroke-width="0.6339" width="2.938" height="2.937"/>
		</g>
		<g>
			<rect x="339.134" y="85.572" fill="none" stroke="#CDCCCC" stroke-width="0.6339" width="2.937" height="2.938"/>
			<rect x="339.134" y="93.479" fill="none" stroke="#CDCCCC" stroke-width="0.6339" width="2.937" height="2.936"/>
			<rect x="339.134" y="101.384" fill="none" stroke="#CDCCCC" stroke-width="0.6339" width="2.937" height="2.936"/>
			<rect x="339.134" y="109.515" fill="none" stroke="#CDCCCC" stroke-width="0.6339" width="2.937" height="2.937"/>
			<rect x="339.134" y="117.419" fill="none" stroke="#CDCCCC" stroke-width="0.6339" width="2.937" height="2.937"/>
		</g>
		<g>
			<rect x="347.265" y="85.572" fill="none" stroke="#CDCCCC" stroke-width="0.6339" width="2.937" height="2.938"/>
			<rect x="347.265" y="93.479" fill="none" stroke="#CDCCCC" stroke-width="0.6339" width="2.937" height="2.936"/>
			<rect x="347.265" y="101.384" fill="none" stroke="#CDCCCC" stroke-width="0.6339" width="2.937" height="2.936"/>
			<rect x="347.265" y="109.515" fill="none" stroke="#CDCCCC" stroke-width="0.6339" width="2.937" height="2.937"/>
			<rect x="347.265" y="117.419" fill="none" stroke="#CDCCCC" stroke-width="0.6339" width="2.937" height="2.937"/>
		</g>
		<g>
			<rect x="355.397" y="85.572" fill="none" stroke="#CDCCCC" stroke-width="0.6339" width="2.933" height="2.938"/>
			<rect x="355.397" y="93.479" fill="none" stroke="#CDCCCC" stroke-width="0.6339" width="2.933" height="2.936"/>
			<rect x="355.397" y="101.384" fill="none" stroke="#CDCCCC" stroke-width="0.6339" width="2.933" height="2.936"/>
			<rect x="355.397" y="109.515" fill="none" stroke="#CDCCCC" stroke-width="0.6339" width="2.933" height="2.937"/>
			<rect x="355.397" y="117.419" fill="none" stroke="#CDCCCC" stroke-width="0.6339" width="2.933" height="2.937"/>
		</g>
		<g>
			<rect x="306.723" y="85.572" fill="none" stroke="#CDCCCC" stroke-width="0.6339" width="2.936" height="2.938"/>
			<rect x="306.723" y="93.479" fill="none" stroke="#CDCCCC" stroke-width="0.6339" width="2.936" height="2.936"/>
			<rect x="306.723" y="101.384" fill="none" stroke="#CDCCCC" stroke-width="0.6339" width="2.936" height="2.936"/>
			<rect x="306.723" y="109.515" fill="none" stroke="#CDCCCC" stroke-width="0.6339" width="2.936" height="2.937"/>
			<rect x="306.723" y="117.419" fill="none" stroke="#CDCCCC" stroke-width="0.6339" width="2.936" height="2.937"/>
		</g>
		<g>
			<rect x="314.967" y="85.572" fill="none" stroke="#CDCCCC" stroke-width="0.6339" width="2.936" height="2.938"/>
			<rect x="314.967" y="93.479" fill="none" stroke="#CDCCCC" stroke-width="0.6339" width="2.936" height="2.936"/>
			<rect x="314.967" y="101.384" fill="none" stroke="#CDCCCC" stroke-width="0.6339" width="2.936" height="2.936"/>
			<rect x="314.967" y="109.515" fill="none" stroke="#CDCCCC" stroke-width="0.6339" width="2.936" height="2.937"/>
			<rect x="314.967" y="117.419" fill="none" stroke="#CDCCCC" stroke-width="0.6339" width="2.936" height="2.937"/>
		</g>
		<g>
			<rect x="323.098" y="85.572" fill="none" stroke="#CDCCCC" stroke-width="0.6339" width="2.936" height="2.938"/>
			<rect x="323.098" y="93.479" fill="none" stroke="#CDCCCC" stroke-width="0.6339" width="2.936" height="2.936"/>
			<rect x="323.098" y="101.384" fill="none" stroke="#CDCCCC" stroke-width="0.6339" width="2.936" height="2.936"/>
			<rect x="323.098" y="109.515" fill="none" stroke="#CDCCCC" stroke-width="0.6339" width="2.936" height="2.937"/>
			<rect x="323.098" y="117.419" fill="none" stroke="#CDCCCC" stroke-width="0.6339" width="2.936" height="2.937"/>
		</g>
	</g>
	<g>
		<g>
			<rect x="363.526" y="140.797" fill="none" stroke="#CDCCCC" stroke-width="0.6339" width="2.937" height="2.936"/>
			<rect x="363.526" y="148.703" fill="none" stroke="#CDCCCC" stroke-width="0.6339" width="2.937" height="2.935"/>
			<rect x="363.526" y="156.608" fill="none" stroke="#CDCCCC" stroke-width="0.6339" width="2.937" height="2.936"/>
			<rect x="363.526" y="164.513" fill="none" stroke="#CDCCCC" stroke-width="0.6339" width="2.937" height="2.937"/>
			<rect x="363.526" y="172.418" fill="none" stroke="#CDCCCC" stroke-width="0.6339" width="2.937" height="2.938"/>
		</g>
		<g>
			<rect x="371.658" y="140.797" fill="none" stroke="#CDCCCC" stroke-width="0.6339" width="2.936" height="2.936"/>
			<rect x="371.658" y="148.703" fill="none" stroke="#CDCCCC" stroke-width="0.6339" width="2.936" height="2.935"/>
			<rect x="371.658" y="156.608" fill="none" stroke="#CDCCCC" stroke-width="0.6339" width="2.936" height="2.936"/>
			<rect x="371.658" y="164.513" fill="none" stroke="#CDCCCC" stroke-width="0.6339" width="2.936" height="2.937"/>
			<rect x="371.658" y="172.418" fill="none" stroke="#CDCCCC" stroke-width="0.6339" width="2.936" height="2.938"/>
		</g>
		<g>
			<rect x="379.788" y="140.797" fill="none" stroke="#CDCCCC" stroke-width="0.6339" width="2.938" height="2.936"/>
			<rect x="379.788" y="148.703" fill="none" stroke="#CDCCCC" stroke-width="0.6339" width="2.938" height="2.935"/>
			<rect x="379.788" y="156.608" fill="none" stroke="#CDCCCC" stroke-width="0.6339" width="2.938" height="2.936"/>
			<rect x="379.788" y="164.513" fill="none" stroke="#CDCCCC" stroke-width="0.6339" width="2.938" height="2.937"/>
			<rect x="379.788" y="172.418" fill="none" stroke="#CDCCCC" stroke-width="0.6339" width="2.938" height="2.938"/>
		</g>
		<g>
			<rect x="387.692" y="140.797" fill="none" stroke="#CDCCCC" stroke-width="0.6339" width="2.938" height="2.936"/>
			<rect x="387.692" y="148.703" fill="none" stroke="#CDCCCC" stroke-width="0.6339" width="2.938" height="2.935"/>
			<rect x="387.692" y="156.608" fill="none" stroke="#CDCCCC" stroke-width="0.6339" width="2.938" height="2.936"/>
			<rect x="387.692" y="164.513" fill="none" stroke="#CDCCCC" stroke-width="0.6339" width="2.938" height="2.937"/>
			<rect x="387.692" y="172.418" fill="none" stroke="#CDCCCC" stroke-width="0.6339" width="2.938" height="2.938"/>
		</g>
		<g>
			<rect x="395.824" y="140.797" fill="none" stroke="#CDCCCC" stroke-width="0.6339" width="2.936" height="2.936"/>
			<rect x="395.824" y="148.703" fill="none" stroke="#CDCCCC" stroke-width="0.6339" width="2.936" height="2.935"/>
			<rect x="395.824" y="156.608" fill="none" stroke="#CDCCCC" stroke-width="0.6339" width="2.936" height="2.936"/>
			<rect x="395.824" y="164.513" fill="none" stroke="#CDCCCC" stroke-width="0.6339" width="2.936" height="2.937"/>
			<rect x="395.824" y="172.418" fill="none" stroke="#CDCCCC" stroke-width="0.6339" width="2.936" height="2.938"/>
		</g>
		<g>
			<rect x="403.955" y="140.797" fill="none" stroke="#CDCCCC" stroke-width="0.6339" width="2.937" height="2.936"/>
			<rect x="403.955" y="148.703" fill="none" stroke="#CDCCCC" stroke-width="0.6339" width="2.937" height="2.935"/>
			<rect x="403.955" y="156.608" fill="none" stroke="#CDCCCC" stroke-width="0.6339" width="2.937" height="2.936"/>
			<rect x="403.955" y="164.513" fill="none" stroke="#CDCCCC" stroke-width="0.6339" width="2.937" height="2.937"/>
			<rect x="403.955" y="172.418" fill="none" stroke="#CDCCCC" stroke-width="0.6339" width="2.937" height="2.938"/>
		</g>
		<g>
			<rect x="412.088" y="140.797" fill="none" stroke="#CDCCCC" stroke-width="0.6339" width="2.936" height="2.936"/>
			<rect x="412.088" y="148.703" fill="none" stroke="#CDCCCC" stroke-width="0.6339" width="2.936" height="2.935"/>
			<rect x="412.088" y="156.608" fill="none" stroke="#CDCCCC" stroke-width="0.6339" width="2.936" height="2.936"/>
			<rect x="412.088" y="164.513" fill="none" stroke="#CDCCCC" stroke-width="0.6339" width="2.936" height="2.937"/>
			<rect x="412.088" y="172.418" fill="none" stroke="#CDCCCC" stroke-width="0.6339" width="2.936" height="2.938"/>
		</g>
		<g>
			<rect x="420.333" y="140.797" fill="none" stroke="#CDCCCC" stroke-width="0.6339" width="2.933" height="2.936"/>
			<rect x="420.333" y="148.703" fill="none" stroke="#CDCCCC" stroke-width="0.6339" width="2.933" height="2.935"/>
			<rect x="420.333" y="156.608" fill="none" stroke="#CDCCCC" stroke-width="0.6339" width="2.933" height="2.936"/>
			<rect x="420.333" y="164.513" fill="none" stroke="#CDCCCC" stroke-width="0.6339" width="2.933" height="2.937"/>
			<rect x="420.333" y="172.418" fill="none" stroke="#CDCCCC" stroke-width="0.6339" width="2.933" height="2.938"/>
		</g>
		<g>
			<rect x="428.463" y="140.797" fill="none" stroke="#CDCCCC" stroke-width="0.6339" width="2.936" height="2.936"/>
			<rect x="428.463" y="148.703" fill="none" stroke="#CDCCCC" stroke-width="0.6339" width="2.936" height="2.935"/>
			<rect x="428.463" y="156.608" fill="none" stroke="#CDCCCC" stroke-width="0.6339" width="2.936" height="2.936"/>
			<rect x="428.463" y="164.513" fill="none" stroke="#CDCCCC" stroke-width="0.6339" width="2.936" height="2.937"/>
			<rect x="428.463" y="172.418" fill="none" stroke="#CDCCCC" stroke-width="0.6339" width="2.936" height="2.938"/>
		</g>
		<g>
			<rect x="436.369" y="140.797" fill="none" stroke="#CDCCCC" stroke-width="0.6339" width="2.938" height="2.936"/>
			<rect x="436.369" y="148.703" fill="none" stroke="#CDCCCC" stroke-width="0.6339" width="2.938" height="2.935"/>
			<rect x="436.369" y="156.608" fill="none" stroke="#CDCCCC" stroke-width="0.6339" width="2.938" height="2.936"/>
			<rect x="436.369" y="164.513" fill="none" stroke="#CDCCCC" stroke-width="0.6339" width="2.938" height="2.937"/>
			<rect x="436.369" y="172.418" fill="none" stroke="#CDCCCC" stroke-width="0.6339" width="2.938" height="2.938"/>
		</g>
		<g>
			<rect x="444.499" y="140.797" fill="none" stroke="#CDCCCC" stroke-width="0.6339" width="2.938" height="2.936"/>
			<rect x="444.499" y="148.703" fill="none" stroke="#CDCCCC" stroke-width="0.6339" width="2.938" height="2.935"/>
			<rect x="444.499" y="156.608" fill="none" stroke="#CDCCCC" stroke-width="0.6339" width="2.938" height="2.936"/>
			<rect x="444.499" y="164.513" fill="none" stroke="#CDCCCC" stroke-width="0.6339" width="2.938" height="2.937"/>
			<rect x="444.499" y="172.418" fill="none" stroke="#CDCCCC" stroke-width="0.6339" width="2.938" height="2.938"/>
		</g>
		<g>
			<rect x="452.63" y="140.797" fill="none" stroke="#CDCCCC" stroke-width="0.6339" width="2.937" height="2.936"/>
			<rect x="452.63" y="148.703" fill="none" stroke="#CDCCCC" stroke-width="0.6339" width="2.937" height="2.935"/>
			<rect x="452.63" y="156.608" fill="none" stroke="#CDCCCC" stroke-width="0.6339" width="2.937" height="2.936"/>
			<rect x="452.63" y="164.513" fill="none" stroke="#CDCCCC" stroke-width="0.6339" width="2.937" height="2.937"/>
			<rect x="452.63" y="172.418" fill="none" stroke="#CDCCCC" stroke-width="0.6339" width="2.937" height="2.938"/>
		</g>
		<g>
			<rect x="460.763" y="140.797" fill="none" stroke="#CDCCCC" stroke-width="0.6339" width="2.935" height="2.936"/>
			<rect x="460.763" y="148.703" fill="none" stroke="#CDCCCC" stroke-width="0.6339" width="2.935" height="2.935"/>
			<rect x="460.763" y="156.608" fill="none" stroke="#CDCCCC" stroke-width="0.6339" width="2.935" height="2.936"/>
			<rect x="460.763" y="164.513" fill="none" stroke="#CDCCCC" stroke-width="0.6339" width="2.935" height="2.937"/>
			<rect x="460.763" y="172.418" fill="none" stroke="#CDCCCC" stroke-width="0.6339" width="2.935" height="2.938"/>
		</g>
		<g>
			<rect x="468.894" y="140.797" fill="none" stroke="#CDCCCC" stroke-width="0.6339" width="2.935" height="2.936"/>
			<rect x="468.894" y="148.703" fill="none" stroke="#CDCCCC" stroke-width="0.6339" width="2.935" height="2.935"/>
			<rect x="468.894" y="156.608" fill="none" stroke="#CDCCCC" stroke-width="0.6339" width="2.935" height="2.936"/>
			<rect x="468.894" y="164.513" fill="none" stroke="#CDCCCC" stroke-width="0.6339" width="2.935" height="2.937"/>
			<rect x="468.894" y="172.418" fill="none" stroke="#CDCCCC" stroke-width="0.6339" width="2.935" height="2.938"/>
		</g>
		<g>
			<rect x="477.023" y="140.797" fill="none" stroke="#CDCCCC" stroke-width="0.6339" width="2.936" height="2.936"/>
			<rect x="477.023" y="148.703" fill="none" stroke="#CDCCCC" stroke-width="0.6339" width="2.936" height="2.935"/>
			<rect x="477.023" y="156.608" fill="none" stroke="#CDCCCC" stroke-width="0.6339" width="2.936" height="2.936"/>
			<rect x="477.023" y="164.513" fill="none" stroke="#CDCCCC" stroke-width="0.6339" width="2.936" height="2.937"/>
			<rect x="477.023" y="172.418" fill="none" stroke="#CDCCCC" stroke-width="0.6339" width="2.936" height="2.938"/>
		</g>
		<g>
			<rect x="484.93" y="140.797" fill="none" stroke="#CDCCCC" stroke-width="0.6339" width="2.938" height="2.936"/>
			<rect x="484.93" y="148.703" fill="none" stroke="#CDCCCC" stroke-width="0.6339" width="2.938" height="2.935"/>
			<rect x="484.93" y="156.608" fill="none" stroke="#CDCCCC" stroke-width="0.6339" width="2.938" height="2.936"/>
			<rect x="484.93" y="164.513" fill="none" stroke="#CDCCCC" stroke-width="0.6339" width="2.938" height="2.937"/>
			<rect x="484.93" y="172.418" fill="none" stroke="#CDCCCC" stroke-width="0.6339" width="2.938" height="2.938"/>
		</g>
		<rect x="493.06" y="140.797" fill="none" stroke="#CDCCCC" stroke-width="0.6339" width="2.938" height="2.936"/>
		<rect x="493.06" y="148.703" fill="none" stroke="#CDCCCC" stroke-width="0.6339" width="2.938" height="2.935"/>
		<rect x="493.06" y="156.608" fill="none" stroke="#CDCCCC" stroke-width="0.6339" width="2.938" height="2.936"/>
		<rect x="493.06" y="164.513" fill="none" stroke="#CDCCCC" stroke-width="0.6339" width="2.938" height="2.937"/>
		<rect x="493.06" y="172.418" fill="none" stroke="#CDCCCC" stroke-width="0.6339" width="2.938" height="2.938"/>
		<rect x="501.191" y="140.797" fill="none" stroke="#CDCCCC" stroke-width="0.6339" width="2.937" height="2.936"/>
		<rect x="501.191" y="148.703" fill="none" stroke="#CDCCCC" stroke-width="0.6339" width="2.937" height="2.935"/>
		<rect x="501.191" y="156.608" fill="none" stroke="#CDCCCC" stroke-width="0.6339" width="2.937" height="2.936"/>
		<rect x="501.191" y="164.513" fill="none" stroke="#CDCCCC" stroke-width="0.6339" width="2.937" height="2.937"/>
		<rect x="501.191" y="172.418" fill="none" stroke="#CDCCCC" stroke-width="0.6339" width="2.937" height="2.938"/>
		<rect x="509.323" y="140.797" fill="none" stroke="#CDCCCC" stroke-width="0.6339" width="2.937" height="2.936"/>
		<rect x="509.323" y="148.703" fill="none" stroke="#CDCCCC" stroke-width="0.6339" width="2.937" height="2.935"/>
		<rect x="509.323" y="156.608" fill="none" stroke="#CDCCCC" stroke-width="0.6339" width="2.937" height="2.936"/>
		<rect x="509.323" y="164.513" fill="none" stroke="#CDCCCC" stroke-width="0.6339" width="2.937" height="2.937"/>
		<rect x="509.323" y="172.418" fill="none" stroke="#CDCCCC" stroke-width="0.6339" width="2.937" height="2.938"/>
		<rect x="517.455" y="140.797" fill="none" stroke="#CDCCCC" stroke-width="0.6339" width="2.934" height="2.936"/>
		<rect x="517.455" y="148.703" fill="none" stroke="#CDCCCC" stroke-width="0.6339" width="2.934" height="2.935"/>
		<rect x="517.455" y="156.608" fill="none" stroke="#CDCCCC" stroke-width="0.6339" width="2.934" height="2.936"/>
		<rect x="517.455" y="164.513" fill="none" stroke="#CDCCCC" stroke-width="0.6339" width="2.934" height="2.937"/>
		<rect x="517.455" y="172.418" fill="none" stroke="#CDCCCC" stroke-width="0.6339" width="2.934" height="2.938"/>
		<rect x="525.698" y="140.797" fill="none" stroke="#CDCCCC" stroke-width="0.6339" width="2.936" height="2.936"/>
		<rect x="525.698" y="148.703" fill="none" stroke="#CDCCCC" stroke-width="0.6339" width="2.936" height="2.935"/>
		<rect x="525.698" y="156.608" fill="none" stroke="#CDCCCC" stroke-width="0.6339" width="2.936" height="2.936"/>
		<rect x="525.698" y="164.513" fill="none" stroke="#CDCCCC" stroke-width="0.6339" width="2.936" height="2.937"/>
		<rect x="525.698" y="172.418" fill="none" stroke="#CDCCCC" stroke-width="0.6339" width="2.936" height="2.938"/>
		<rect x="533.604" y="140.797" fill="none" stroke="#CDCCCC" stroke-width="0.6339" width="2.936" height="2.936"/>
		<rect x="533.604" y="148.703" fill="none" stroke="#CDCCCC" stroke-width="0.6339" width="2.936" height="2.935"/>
		<rect x="533.604" y="156.608" fill="none" stroke="#CDCCCC" stroke-width="0.6339" width="2.936" height="2.936"/>
		<rect x="533.604" y="164.513" fill="none" stroke="#CDCCCC" stroke-width="0.6339" width="2.936" height="2.937"/>
		<rect x="533.604" y="172.418" fill="none" stroke="#CDCCCC" stroke-width="0.6339" width="2.936" height="2.938"/>
		<rect x="541.734" y="140.797" fill="none" stroke="#CDCCCC" stroke-width="0.6339" width="2.937" height="2.936"/>
		<rect x="541.734" y="148.703" fill="none" stroke="#CDCCCC" stroke-width="0.6339" width="2.937" height="2.935"/>
		<rect x="541.734" y="156.608" fill="none" stroke="#CDCCCC" stroke-width="0.6339" width="2.937" height="2.936"/>
		<rect x="541.734" y="164.513" fill="none" stroke="#CDCCCC" stroke-width="0.6339" width="2.937" height="2.937"/>
		<rect x="541.734" y="172.418" fill="none" stroke="#CDCCCC" stroke-width="0.6339" width="2.937" height="2.938"/>
		<g>
			<rect x="331.227" y="140.797" fill="none" stroke="#CDCCCC" stroke-width="0.6339" width="2.938" height="2.936"/>
			<rect x="331.227" y="148.703" fill="none" stroke="#CDCCCC" stroke-width="0.6339" width="2.938" height="2.935"/>
			<rect x="331.227" y="156.608" fill="none" stroke="#CDCCCC" stroke-width="0.6339" width="2.938" height="2.936"/>
			<rect x="331.227" y="164.513" fill="none" stroke="#CDCCCC" stroke-width="0.6339" width="2.938" height="2.937"/>
			<rect x="331.227" y="172.418" fill="none" stroke="#CDCCCC" stroke-width="0.6339" width="2.938" height="2.938"/>
		</g>
		<g>
			<rect x="339.134" y="140.797" fill="none" stroke="#CDCCCC" stroke-width="0.6339" width="2.937" height="2.936"/>
			<rect x="339.134" y="148.703" fill="none" stroke="#CDCCCC" stroke-width="0.6339" width="2.937" height="2.935"/>
			<rect x="339.134" y="156.608" fill="none" stroke="#CDCCCC" stroke-width="0.6339" width="2.937" height="2.936"/>
			<rect x="339.134" y="164.513" fill="none" stroke="#CDCCCC" stroke-width="0.6339" width="2.937" height="2.937"/>
			<rect x="339.134" y="172.418" fill="none" stroke="#CDCCCC" stroke-width="0.6339" width="2.937" height="2.938"/>
		</g>
		<g>
			<rect x="347.265" y="140.797" fill="none" stroke="#CDCCCC" stroke-width="0.6339" width="2.937" height="2.936"/>
			<rect x="347.265" y="148.703" fill="none" stroke="#CDCCCC" stroke-width="0.6339" width="2.937" height="2.935"/>
			<rect x="347.265" y="156.608" fill="none" stroke="#CDCCCC" stroke-width="0.6339" width="2.937" height="2.936"/>
			<rect x="347.265" y="164.513" fill="none" stroke="#CDCCCC" stroke-width="0.6339" width="2.937" height="2.937"/>
			<rect x="347.265" y="172.418" fill="none" stroke="#CDCCCC" stroke-width="0.6339" width="2.937" height="2.938"/>
		</g>
		<g>
			<rect x="355.397" y="140.797" fill="none" stroke="#CDCCCC" stroke-width="0.6339" width="2.933" height="2.936"/>
			<rect x="355.397" y="148.703" fill="none" stroke="#CDCCCC" stroke-width="0.6339" width="2.933" height="2.935"/>
			<rect x="355.397" y="156.608" fill="none" stroke="#CDCCCC" stroke-width="0.6339" width="2.933" height="2.936"/>
			<rect x="355.397" y="164.513" fill="none" stroke="#CDCCCC" stroke-width="0.6339" width="2.933" height="2.937"/>
			<rect x="355.397" y="172.418" fill="none" stroke="#CDCCCC" stroke-width="0.6339" width="2.933" height="2.938"/>
		</g>
		<g>
			<rect x="306.723" y="140.797" fill="none" stroke="#CDCCCC" stroke-width="0.6339" width="2.936" height="2.936"/>
			<rect x="306.723" y="148.703" fill="none" stroke="#CDCCCC" stroke-width="0.6339" width="2.936" height="2.935"/>
			<rect x="306.723" y="156.608" fill="none" stroke="#CDCCCC" stroke-width="0.6339" width="2.936" height="2.936"/>
			<rect x="306.723" y="164.513" fill="none" stroke="#CDCCCC" stroke-width="0.6339" width="2.936" height="2.937"/>
			<rect x="306.723" y="172.418" fill="none" stroke="#CDCCCC" stroke-width="0.6339" width="2.936" height="2.938"/>
		</g>
		<g>
			<rect x="314.967" y="140.797" fill="none" stroke="#CDCCCC" stroke-width="0.6339" width="2.936" height="2.936"/>
			<rect x="314.967" y="148.703" fill="none" stroke="#CDCCCC" stroke-width="0.6339" width="2.936" height="2.935"/>
			<rect x="314.967" y="156.608" fill="none" stroke="#CDCCCC" stroke-width="0.6339" width="2.936" height="2.936"/>
			<rect x="314.967" y="164.513" fill="none" stroke="#CDCCCC" stroke-width="0.6339" width="2.936" height="2.937"/>
			<rect x="314.967" y="172.418" fill="none" stroke="#CDCCCC" stroke-width="0.6339" width="2.936" height="2.938"/>
		</g>
		<g>
			<rect x="323.098" y="140.797" fill="none" stroke="#CDCCCC" stroke-width="0.6339" width="2.936" height="2.936"/>
			<rect x="323.098" y="148.703" fill="none" stroke="#CDCCCC" stroke-width="0.6339" width="2.936" height="2.935"/>
			<rect x="323.098" y="156.608" fill="none" stroke="#CDCCCC" stroke-width="0.6339" width="2.936" height="2.936"/>
			<rect x="323.098" y="164.513" fill="none" stroke="#CDCCCC" stroke-width="0.6339" width="2.936" height="2.937"/>
			<rect x="323.098" y="172.418" fill="none" stroke="#CDCCCC" stroke-width="0.6339" width="2.936" height="2.938"/>
		</g>
	</g>
	<g>
		<g>
			<g>
				<rect x="338.682" y="53.5" fill="none" stroke="#CDCCCC" stroke-width="0.6339" width="2.937" height="2.936"/>
				<rect x="330.777" y="53.5" fill="none" stroke="#CDCCCC" stroke-width="0.6339" width="2.936" height="2.936"/>
				<rect x="322.871" y="53.5" fill="none" stroke="#CDCCCC" stroke-width="0.6339" width="2.936" height="2.936"/>
				<rect x="314.74" y="53.5" fill="none" stroke="#CDCCCC" stroke-width="0.6339" width="2.936" height="2.936"/>
				<rect x="306.723" y="53.5" fill="none" stroke="#CDCCCC" stroke-width="0.6339" width="2.936" height="2.936"/>
			</g>
			<g>
				<rect x="306.723" y="61.406" fill="none" stroke="#CDCCCC" stroke-width="0.6339" width="2.936" height="2.936"/>
				<rect x="314.74" y="61.406" fill="none" stroke="#CDCCCC" stroke-width="0.6339" width="2.936" height="2.936"/>
				<rect x="322.871" y="61.406" fill="none" stroke="#CDCCCC" stroke-width="0.6339" width="2.936" height="2.936"/>
				<rect x="330.777" y="61.406" fill="none" stroke="#CDCCCC" stroke-width="0.6339" width="2.936" height="2.936"/>
				<rect x="338.682" y="61.406" fill="none" stroke="#CDCCCC" stroke-width="0.6339" width="2.937" height="2.936"/>
			</g>
		</g>
		<g>
			<g>
				<rect x="387.242" y="53.5" fill="none" stroke="#CDCCCC" stroke-width="0.6339" width="2.937" height="2.936"/>
				<rect x="379.336" y="53.5" fill="none" stroke="#CDCCCC" stroke-width="0.6339" width="2.938" height="2.936"/>
				<rect x="371.432" y="53.5" fill="none" stroke="#CDCCCC" stroke-width="0.6339" width="2.936" height="2.936"/>
				<rect x="363.301" y="53.5" fill="none" stroke="#CDCCCC" stroke-width="0.6339" width="2.934" height="2.936"/>
				<rect x="355.397" y="53.5" fill="none" stroke="#CDCCCC" stroke-width="0.6339" width="2.933" height="2.936"/>
			</g>
			<g>
				<rect x="355.397" y="61.406" fill="none" stroke="#CDCCCC" stroke-width="0.6339" width="2.933" height="2.936"/>
				<rect x="363.301" y="61.406" fill="none" stroke="#CDCCCC" stroke-width="0.6339" width="2.934" height="2.936"/>
				<rect x="371.432" y="61.406" fill="none" stroke="#CDCCCC" stroke-width="0.6339" width="2.936" height="2.936"/>
				<rect x="379.336" y="61.406" fill="none" stroke="#CDCCCC" stroke-width="0.6339" width="2.938" height="2.936"/>
				<rect x="387.242" y="61.406" fill="none" stroke="#CDCCCC" stroke-width="0.6339" width="2.937" height="2.936"/>
			</g>
		</g>
		<g>
			<g>
				<rect x="435.916" y="53.5" fill="none" stroke="#CDCCCC" stroke-width="0.6339" width="2.938" height="2.936"/>
				<rect x="428.012" y="53.5" fill="none" stroke="#CDCCCC" stroke-width="0.6339" width="2.936" height="2.936"/>
				<rect x="420.105" y="53.5" fill="none" stroke="#CDCCCC" stroke-width="0.6339" width="2.936" height="2.936"/>
				<rect x="411.862" y="53.5" fill="none" stroke="#CDCCCC" stroke-width="0.6339" width="2.937" height="2.936"/>
				<rect x="403.955" y="53.5" fill="none" stroke="#CDCCCC" stroke-width="0.6339" width="2.937" height="2.936"/>
			</g>
			<g>
				<rect x="403.955" y="61.406" fill="none" stroke="#CDCCCC" stroke-width="0.6339" width="2.937" height="2.936"/>
				<rect x="411.862" y="61.406" fill="none" stroke="#CDCCCC" stroke-width="0.6339" width="2.937" height="2.936"/>
				<rect x="420.105" y="61.406" fill="none" stroke="#CDCCCC" stroke-width="0.6339" width="2.936" height="2.936"/>
				<rect x="428.012" y="61.406" fill="none" stroke="#CDCCCC" stroke-width="0.6339" width="2.936" height="2.936"/>
				<rect x="435.916" y="61.406" fill="none" stroke="#CDCCCC" stroke-width="0.6339" width="2.938" height="2.936"/>
			</g>
		</g>
		<g>
			<g>
				<rect x="484.478" y="53.5" fill="none" stroke="#CDCCCC" stroke-width="0.6339" width="2.937" height="2.936"/>
				<rect x="476.574" y="53.5" fill="none" stroke="#CDCCCC" stroke-width="0.6339" width="2.934" height="2.936"/>
				<rect x="468.667" y="53.5" fill="none" stroke="#CDCCCC" stroke-width="0.6339" width="2.937" height="2.936"/>
				<rect x="460.535" y="53.5" fill="none" stroke="#CDCCCC" stroke-width="0.6339" width="2.936" height="2.936"/>
				<rect x="452.63" y="53.5" fill="none" stroke="#CDCCCC" stroke-width="0.6339" width="2.937" height="2.936"/>
			</g>
			<g>
				<rect x="452.63" y="61.406" fill="none" stroke="#CDCCCC" stroke-width="0.6339" width="2.937" height="2.936"/>
				<rect x="460.535" y="61.406" fill="none" stroke="#CDCCCC" stroke-width="0.6339" width="2.936" height="2.936"/>
				<rect x="468.667" y="61.406" fill="none" stroke="#CDCCCC" stroke-width="0.6339" width="2.937" height="2.936"/>
				<rect x="476.574" y="61.406" fill="none" stroke="#CDCCCC" stroke-width="0.6339" width="2.934" height="2.936"/>
				<rect x="484.478" y="61.406" fill="none" stroke="#CDCCCC" stroke-width="0.6339" width="2.937" height="2.936"/>
			</g>
		</g>
		<g>
			<g>
				<rect x="533.15" y="53.5" fill="none" stroke="#CDCCCC" stroke-width="0.6339" width="2.938" height="2.936"/>
				<rect x="525.246" y="53.5" fill="none" stroke="#CDCCCC" stroke-width="0.6339" width="2.937" height="2.936"/>
				<rect x="517.229" y="53.5" fill="none" stroke="#CDCCCC" stroke-width="0.6339" width="2.936" height="2.936"/>
				<rect x="509.097" y="53.5" fill="none" stroke="#CDCCCC" stroke-width="0.6339" width="2.936" height="2.936"/>
				<rect x="501.191" y="53.5" fill="none" stroke="#CDCCCC" stroke-width="0.6339" width="2.937" height="2.936"/>
			</g>
			<g>
				<rect x="501.191" y="61.406" fill="none" stroke="#CDCCCC" stroke-width="0.6339" width="2.937" height="2.936"/>
				<rect x="509.097" y="61.406" fill="none" stroke="#CDCCCC" stroke-width="0.6339" width="2.936" height="2.936"/>
				<rect x="517.229" y="61.406" fill="none" stroke="#CDCCCC" stroke-width="0.6339" width="2.936" height="2.936"/>
				<rect x="525.246" y="61.406" fill="none" stroke="#CDCCCC" stroke-width="0.6339" width="2.937" height="2.936"/>
				<rect x="533.15" y="61.406" fill="none" stroke="#CDCCCC" stroke-width="0.6339" width="2.938" height="2.936"/>
			</g>
		</g>
	</g>
	<g>
		<g>
			<g>
				<rect x="338.682" y="198.167" fill="none" stroke="#CDCCCC" stroke-width="0.6339" width="2.937" height="2.937"/>
				<rect x="330.777" y="198.167" fill="none" stroke="#CDCCCC" stroke-width="0.6339" width="2.936" height="2.937"/>
				<rect x="322.871" y="198.167" fill="none" stroke="#CDCCCC" stroke-width="0.6339" width="2.936" height="2.937"/>
				<rect x="314.74" y="198.167" fill="none" stroke="#CDCCCC" stroke-width="0.6339" width="2.936" height="2.937"/>
				<rect x="306.723" y="198.167" fill="none" stroke="#CDCCCC" stroke-width="0.6339" width="2.936" height="2.937"/>
			</g>
			<g>
				<rect x="306.723" y="206.297" fill="none" stroke="#CDCCCC" stroke-width="0.6339" width="2.936" height="2.938"/>
				<rect x="314.74" y="206.297" fill="none" stroke="#CDCCCC" stroke-width="0.6339" width="2.936" height="2.938"/>
				<rect x="322.871" y="206.297" fill="none" stroke="#CDCCCC" stroke-width="0.6339" width="2.936" height="2.938"/>
				<rect x="330.777" y="206.297" fill="none" stroke="#CDCCCC" stroke-width="0.6339" width="2.936" height="2.938"/>
				<rect x="338.682" y="206.297" fill="none" stroke="#CDCCCC" stroke-width="0.6339" width="2.937" height="2.938"/>
			</g>
		</g>
		<g>
			<g>
				<rect x="387.242" y="198.167" fill="none" stroke="#CDCCCC" stroke-width="0.6339" width="2.937" height="2.937"/>
				<rect x="379.336" y="198.167" fill="none" stroke="#CDCCCC" stroke-width="0.6339" width="2.938" height="2.937"/>
				<rect x="371.432" y="198.167" fill="none" stroke="#CDCCCC" stroke-width="0.6339" width="2.936" height="2.937"/>
				<rect x="363.301" y="198.167" fill="none" stroke="#CDCCCC" stroke-width="0.6339" width="2.934" height="2.937"/>
				<rect x="355.397" y="198.167" fill="none" stroke="#CDCCCC" stroke-width="0.6339" width="2.933" height="2.937"/>
			</g>
			<g>
				<rect x="355.397" y="206.297" fill="none" stroke="#CDCCCC" stroke-width="0.6339" width="2.933" height="2.938"/>
				<rect x="363.301" y="206.297" fill="none" stroke="#CDCCCC" stroke-width="0.6339" width="2.934" height="2.938"/>
				<rect x="371.432" y="206.297" fill="none" stroke="#CDCCCC" stroke-width="0.6339" width="2.936" height="2.938"/>
				<rect x="379.336" y="206.297" fill="none" stroke="#CDCCCC" stroke-width="0.6339" width="2.938" height="2.938"/>
				<rect x="387.242" y="206.297" fill="none" stroke="#CDCCCC" stroke-width="0.6339" width="2.937" height="2.938"/>
			</g>
		</g>
		<g>
			<g>
				<rect x="435.916" y="198.167" fill="none" stroke="#CDCCCC" stroke-width="0.6339" width="2.938" height="2.937"/>
				<rect x="428.012" y="198.167" fill="none" stroke="#CDCCCC" stroke-width="0.6339" width="2.936" height="2.937"/>
				<rect x="420.105" y="198.167" fill="none" stroke="#CDCCCC" stroke-width="0.6339" width="2.936" height="2.937"/>
				<rect x="411.862" y="198.167" fill="none" stroke="#CDCCCC" stroke-width="0.6339" width="2.937" height="2.937"/>
				<rect x="403.955" y="198.167" fill="none" stroke="#CDCCCC" stroke-width="0.6339" width="2.937" height="2.937"/>
			</g>
			<g>
				<rect x="403.955" y="206.297" fill="none" stroke="#CDCCCC" stroke-width="0.6339" width="2.937" height="2.938"/>
				<rect x="411.862" y="206.297" fill="none" stroke="#CDCCCC" stroke-width="0.6339" width="2.937" height="2.938"/>
				<rect x="420.105" y="206.297" fill="none" stroke="#CDCCCC" stroke-width="0.6339" width="2.936" height="2.938"/>
				<rect x="428.012" y="206.297" fill="none" stroke="#CDCCCC" stroke-width="0.6339" width="2.936" height="2.938"/>
				<rect x="435.916" y="206.297" fill="none" stroke="#CDCCCC" stroke-width="0.6339" width="2.938" height="2.938"/>
			</g>
		</g>
		<g>
			<g>
				<rect x="484.478" y="198.167" fill="none" stroke="#CDCCCC" stroke-width="0.6339" width="2.937" height="2.937"/>
				<rect x="476.574" y="198.167" fill="none" stroke="#CDCCCC" stroke-width="0.6339" width="2.934" height="2.937"/>
				<rect x="468.667" y="198.167" fill="none" stroke="#CDCCCC" stroke-width="0.6339" width="2.937" height="2.937"/>
				<rect x="460.535" y="198.167" fill="none" stroke="#CDCCCC" stroke-width="0.6339" width="2.936" height="2.937"/>
				<rect x="452.63" y="198.167" fill="none" stroke="#CDCCCC" stroke-width="0.6339" width="2.937" height="2.937"/>
			</g>
			<g>
				<rect x="452.63" y="206.297" fill="none" stroke="#CDCCCC" stroke-width="0.6339" width="2.937" height="2.938"/>
				<rect x="460.535" y="206.297" fill="none" stroke="#CDCCCC" stroke-width="0.6339" width="2.936" height="2.938"/>
				<rect x="468.667" y="206.297" fill="none" stroke="#CDCCCC" stroke-width="0.6339" width="2.937" height="2.938"/>
				<rect x="476.574" y="206.297" fill="none" stroke="#CDCCCC" stroke-width="0.6339" width="2.934" height="2.938"/>
				<rect x="484.478" y="206.297" fill="none" stroke="#CDCCCC" stroke-width="0.6339" width="2.937" height="2.938"/>
			</g>
		</g>
		<g>
			<g>
				<rect x="533.15" y="198.167" fill="none" stroke="#CDCCCC" stroke-width="0.6339" width="2.938" height="2.937"/>
				<rect x="525.246" y="198.167" fill="none" stroke="#CDCCCC" stroke-width="0.6339" width="2.937" height="2.937"/>
				<rect x="517.229" y="198.167" fill="none" stroke="#CDCCCC" stroke-width="0.6339" width="2.936" height="2.937"/>
				<rect x="509.097" y="198.167" fill="none" stroke="#CDCCCC" stroke-width="0.6339" width="2.936" height="2.937"/>
				<rect x="501.191" y="198.167" fill="none" stroke="#CDCCCC" stroke-width="0.6339" width="2.937" height="2.937"/>
			</g>
			<g>
				<rect x="501.191" y="206.297" fill="none" stroke="#CDCCCC" stroke-width="0.6339" width="2.937" height="2.938"/>
				<rect x="509.097" y="206.297" fill="none" stroke="#CDCCCC" stroke-width="0.6339" width="2.936" height="2.938"/>
				<rect x="517.229" y="206.297" fill="none" stroke="#CDCCCC" stroke-width="0.6339" width="2.936" height="2.938"/>
				<rect x="525.246" y="206.297" fill="none" stroke="#CDCCCC" stroke-width="0.6339" width="2.937" height="2.938"/>
				<rect x="533.15" y="206.297" fill="none" stroke="#CDCCCC" stroke-width="0.6339" width="2.938" height="2.938"/>
			</g>
		</g>
	</g>
	<rect x="289.33" y="45.144" fill="none" stroke="#CDCCCC" stroke-width="0.6339" width="272.506" height="170.077"/>
</g>
<g>
	<polyline fill="none" stroke="#010101" stroke-width="0.6339" points="142.404,178.065 166.12,178.065 146.695,178.065 	"/>
	<line fill="none" stroke="#010101" stroke-width="0.6339" x1="146.921" y1="184.617" x2="161.829" y2="184.617"/>
	<line fill="none" stroke="#010101" stroke-width="0.6339" x1="151.665" y1="190.487" x2="157.084" y2="190.487"/>
</g>
<g enable-background="new    ">
	<path fill="#010101" d="M177.877,194.311v2.619c-0.71,0.265-1.58,0.414-2.365,0.414c-2.164,0-3.553-1.315-3.553-3.531
		c0-2.206,1.389-3.818,3.818-3.818c0.679,0,1.325,0.096,1.962,0.255v1.686h-0.7c-0.063-0.35-0.106-0.658-0.138-0.944
		c-0.393-0.106-0.816-0.159-1.209-0.159c-1.517,0-2.694,0.944-2.694,2.863c0,1.782,1.04,2.8,2.651,2.8
		c0.477,0,0.88-0.074,1.262-0.191v-1.994c-0.318-0.021-0.647-0.074-0.912-0.138V193.6h2.577v0.583
		C178.354,194.236,178.121,194.279,177.877,194.311z"/>
	<path fill="#010101" d="M182.804,192.826c-1.209-0.201-1.75,0.615-1.75,2.301v1.411c0.318,0.021,0.647,0.074,0.923,0.138v0.573
		h-2.8v-0.573c0.276-0.063,0.604-0.117,0.922-0.138v-3.807c-0.254-0.042-0.615-0.085-0.922-0.106v-0.573
		c0.53-0.064,1.262-0.106,1.845-0.074c0,0.329-0.032,0.816-0.106,1.251h0.01c0.233-0.732,0.764-1.464,1.92-1.347L182.804,192.826z"
		/>
	<path fill="#010101" d="M185.824,197.343c-1.442,0-2.365-0.827-2.365-2.651c0-1.58,0.976-2.811,2.566-2.811
		c1.336,0,2.365,0.732,2.365,2.651C188.39,196.113,187.415,197.343,185.824,197.343z M185.94,192.677
		c-0.774,0-1.496,0.583-1.496,1.941c0,1.219,0.509,1.919,1.485,1.919c0.785,0,1.474-0.615,1.474-1.93
		C187.404,193.377,186.895,192.677,185.94,192.677z"/>
	<path fill="#010101" d="M193.286,197.248c0-0.318,0.021-0.785,0.074-1.113h-0.021c-0.308,0.721-0.954,1.208-1.856,1.208
		c-1.209,0-1.58-0.753-1.58-1.686v-2.927c-0.254-0.042-0.604-0.085-0.891-0.106v-0.573c0.499-0.064,1.22-0.106,1.834-0.074v3.394
		c0,0.742,0.212,1.188,0.901,1.188c0.87,0,1.506-0.891,1.506-2.057v-1.782c-0.244-0.032-0.572-0.074-0.859-0.095v-0.573
		c0.52-0.064,1.22-0.106,1.803-0.074v4.518c0.255,0.042,0.604,0.085,0.891,0.106v0.573
		C194.59,197.237,193.858,197.28,193.286,197.248z"/>
	<path fill="#010101" d="M199.857,197.248v-3.394c0-0.742-0.202-1.188-0.891-1.188c-0.87,0-1.506,0.891-1.506,2.058v1.813
		c0.286,0.021,0.594,0.063,0.849,0.138v0.573h-2.726v-0.573c0.276-0.063,0.604-0.117,0.922-0.138v-3.807
		c-0.254-0.042-0.615-0.085-0.922-0.106v-0.573c0.53-0.064,1.262-0.106,1.845-0.074c0,0.308-0.021,0.795-0.074,1.113h0.011
		c0.307-0.721,0.965-1.209,1.866-1.209c1.198,0,1.58,0.753,1.58,1.687v2.969c0.308,0.021,0.626,0.074,0.88,0.138v0.573H199.857z"/>
	<path fill="#010101" d="M205.962,197.248c0-0.297,0.021-0.764,0.084-1.071l-0.021-0.01c-0.297,0.71-0.944,1.177-1.771,1.177
		c-1.294,0-1.941-0.943-1.941-2.481c0-1.845,1.061-2.958,2.726-2.958c0.287,0,0.573,0.021,0.891,0.053v-1.697
		c-0.255-0.042-0.615-0.084-0.923-0.106v-0.573c0.53-0.063,1.262-0.106,1.877-0.074v6.989c0.254,0.042,0.604,0.085,0.891,0.106
		v0.573C207.277,197.237,206.545,197.28,205.962,197.248z M205.93,192.773c-0.318-0.074-0.637-0.117-0.934-0.117
		c-1.007,0-1.675,0.604-1.675,2.121c0,1.134,0.371,1.781,1.167,1.781c0.955,0,1.442-1.113,1.442-2.036V192.773z"/>
</g>
<polyline fill="none" stroke="#010101" stroke-width="0.6339" stroke-linecap="round" stroke-linejoin="round" points="
	154.601,133.796 154.601,45.595 154.601,45.595 62.108,45.595 "/>
<polyline fill="none" stroke="#010101" stroke-width="0.6339" points="160.474,95.511 154.375,95.511 148.277,95.511 "/>
<polygon fill="#010101" stroke="#010101" stroke-width="0.6339" points="154.826,95.059 160.021,86.476 149.18,86.476 "/>
<polygon fill="none" stroke="#010101" stroke-width="0.6339" points="55.558,37.237 63.012,45.37 55.558,53.5 36.134,53.5 
	36.134,37.237 "/>
<polyline fill="none" stroke="#010101" stroke-width="0.6339" points="154.375,133.796 149.406,136.055 160.247,139.442 
	149.18,143.056 160.925,145.992 148.954,149.606 154.826,151.187 154.826,177.84 "/>
<g enable-background="new    ">
	<path fill="#010101" d="M171.8,100.032v-0.573c0.276-0.063,0.604-0.117,0.923-0.138v-5.737c-0.318-0.021-0.647-0.074-0.923-0.138
		v-0.573h2.811v0.573c-0.276,0.063-0.604,0.117-0.923,0.138v5.652h1.877c0.032-0.286,0.096-0.679,0.18-1.029h0.668v1.824H171.8z"/>
	<path fill="#010101" d="M176.845,100.032v-0.573c0.276-0.063,0.604-0.117,0.923-0.138v-5.737c-0.318-0.021-0.647-0.074-0.923-0.138
		v-0.573h4.624v1.654h-0.679c-0.063-0.329-0.116-0.647-0.138-0.891h-1.919v2.354h1.527c0.042-0.265,0.084-0.509,0.148-0.731h0.594
		v2.174h-0.594c-0.064-0.223-0.117-0.488-0.148-0.732h-1.527v2.545h1.93c0.032-0.276,0.085-0.594,0.148-0.912h0.689v1.697H176.845z"
		/>
	<path fill="#010101" d="M185.199,100.074c-0.721,0-1.411-0.042-1.803-0.042h-0.923v-0.573c0.276-0.063,0.604-0.117,0.923-0.138
		v-5.737c-0.318-0.021-0.647-0.074-0.923-0.138v-0.573h0.901c0.562,0,1.379-0.032,2.153-0.032c2.301,0,3.669,1.071,3.669,3.531
		C189.197,98.823,187.542,100.074,185.199,100.074z M185.442,93.637c-0.382,0-0.806,0.021-1.082,0.032v5.514
		c0.276,0.042,0.658,0.064,0.955,0.064c1.686,0,2.853-0.87,2.853-2.811C188.168,94.613,187.298,93.637,185.442,93.637z"/>
</g>
<g enable-background="new    ">
	<path fill="#010101" d="M24.022,71.66c-0.721,0-1.411-0.042-1.803-0.042h-0.923v-0.573c0.276-0.063,0.604-0.117,0.923-0.138v-5.737
		c-0.318-0.021-0.647-0.074-0.923-0.138v-0.573h0.901c0.562,0,1.379-0.032,2.153-0.032c2.301,0,3.669,1.071,3.669,3.531
		C28.021,70.408,26.366,71.66,24.022,71.66z M24.266,65.223c-0.381,0-0.806,0.021-1.082,0.032v5.515
		c0.276,0.042,0.658,0.063,0.955,0.063c1.686,0,2.853-0.87,2.853-2.811C26.992,66.198,26.122,65.223,24.266,65.223z"/>
	<path fill="#010101" d="M28.812,71.617v-0.573c0.276-0.063,0.604-0.117,0.922-0.138V67.1c-0.254-0.042-0.615-0.085-0.922-0.106
		v-0.573c0.53-0.064,1.262-0.106,1.877-0.074v4.56c0.308,0.021,0.625,0.074,0.891,0.138v0.573H28.812z M30.222,65.297
		c-0.35,0-0.636-0.265-0.636-0.615s0.287-0.625,0.636-0.625c0.339,0,0.626,0.275,0.626,0.625
		C30.848,65.021,30.561,65.297,30.222,65.297z"/>
	<path fill="#010101" d="M34.409,74.332c-1.357,0-2.216-0.562-2.216-1.58c0-0.615,0.403-1.135,0.88-1.4
		c-0.318-0.138-0.52-0.435-0.52-0.785c0-0.371,0.233-0.721,0.583-0.891c-0.478-0.286-0.774-0.763-0.774-1.453
		c0-1.061,0.795-1.973,2.238-1.973c0.286,0,0.477,0.032,0.742,0.096h1.792V67.1h-0.87c0.265,0.212,0.424,0.562,0.424,0.976
		c0,1.082-0.731,1.909-2.227,1.909c-0.212,0-0.372-0.021-0.562-0.074c-0.223,0.106-0.339,0.276-0.339,0.445
		c0,0.297,0.265,0.393,0.902,0.414l0.965,0.032c1.135,0.042,1.771,0.572,1.771,1.527C37.198,73.441,36.063,74.332,34.409,74.332z
		 M35.151,71.596l-1.018-0.042c-0.095,0-0.223,0-0.308-0.011c-0.414,0.286-0.679,0.636-0.679,1.039c0,0.626,0.594,0.997,1.421,0.997
		c1.071,0,1.665-0.488,1.665-1.135C36.233,71.936,35.894,71.617,35.151,71.596z M34.557,66.961c-0.795,0-1.251,0.509-1.251,1.177
		c0,0.732,0.435,1.156,1.22,1.156c0.753,0,1.22-0.424,1.22-1.156C35.745,67.417,35.321,66.961,34.557,66.961z"/>
	<path fill="#010101" d="M37.81,71.617v-0.573c0.276-0.063,0.604-0.117,0.922-0.138V67.1c-0.254-0.042-0.615-0.085-0.922-0.106
		v-0.573c0.53-0.064,1.262-0.106,1.877-0.074v4.56c0.308,0.021,0.625,0.074,0.891,0.138v0.573H37.81z M39.22,65.297
		c-0.35,0-0.636-0.265-0.636-0.615s0.287-0.625,0.636-0.625c0.339,0,0.626,0.275,0.626,0.625
		C39.846,65.021,39.559,65.297,39.22,65.297z"/>
	<path fill="#010101" d="M43.227,71.702c-1.082,0-1.411-0.445-1.411-1.58v-3.033h-1.082v-0.742h1.082v-1.708l0.955-0.265v1.973
		h1.474v0.742h-1.474v2.694c0,0.87,0.17,1.103,0.753,1.103c0.244,0,0.478-0.032,0.668-0.084l0.096,0.785
		C43.979,71.66,43.566,71.702,43.227,71.702z"/>
	<path fill="#010101" d="M48.314,71.617c0-0.371,0.011-0.753,0.064-1.05h-0.021c-0.254,0.647-0.922,1.145-1.792,1.145
		s-1.463-0.541-1.463-1.389c0-1.135,1.177-1.803,3.16-1.803v-0.392c0-0.743-0.265-1.156-1.103-1.156
		c-0.318,0-0.689,0.053-0.986,0.148c-0.021,0.265-0.074,0.562-0.127,0.859h-0.594v-1.442c0.53-0.17,1.167-0.297,1.792-0.297
		c1.548,0,1.983,0.71,1.983,1.76v2.863c0.254,0.042,0.604,0.085,0.891,0.106v0.573C49.619,71.606,48.887,71.649,48.314,71.617z
		 M48.262,69.178c-1.654,0-2.227,0.414-2.227,0.997c0,0.456,0.318,0.785,0.806,0.785c0.848,0,1.421-0.837,1.421-1.665V69.178z"/>
	<path fill="#010101" d="M50.485,71.617v-0.573c0.265-0.063,0.583-0.117,0.891-0.138v-6.278c-0.254-0.042-0.604-0.084-0.912-0.106
		V63.95c0.541-0.063,1.251-0.106,1.867-0.074v7.031c0.308,0.021,0.625,0.074,0.891,0.138v0.573H50.485z"/>
	<path fill="#010101" d="M56.018,71.617v-0.573c0.276-0.063,0.604-0.117,0.923-0.138v-5.737c-0.318-0.021-0.647-0.074-0.923-0.138
		v-0.573h2.811v0.573c-0.276,0.063-0.604,0.117-0.923,0.138v5.737c0.318,0.021,0.647,0.074,0.923,0.138v0.573H56.018z"/>
	<path fill="#010101" d="M60.066,73.325h-0.912l3.712-9.735h0.912L60.066,73.325z"/>
	<path fill="#010101" d="M67.402,71.723c-2.11,0-3.192-1.432-3.192-3.595c0-2.397,1.527-3.775,3.394-3.775
		c2.1,0,3.192,1.432,3.192,3.595C70.796,70.345,69.258,71.723,67.402,71.723z M67.508,65.212c-1.283,0-2.28,0.976-2.28,2.768
		c0,1.718,0.753,2.885,2.27,2.885c1.272,0,2.27-0.976,2.27-2.768C69.767,66.378,69.014,65.212,67.508,65.212z"/>
	<path fill="#010101" d="M76.484,69.157c-0.297,0-0.562-0.021-0.753-0.042v1.792c0.318,0.021,0.647,0.074,0.923,0.138v0.573h-2.811
		v-0.573c0.276-0.063,0.604-0.117,0.923-0.138v-5.737c-0.318-0.021-0.647-0.074-0.923-0.138v-0.573h0.923
		c0.318,0,1.188-0.042,1.855-0.042c1.93,0,2.726,1.018,2.726,2.238C79.348,68.107,78.234,69.157,76.484,69.157z M76.516,65.212
		c-0.275,0-0.573,0-0.785,0.021v3.065c0.191,0.032,0.488,0.063,0.838,0.063c1.198,0,1.771-0.71,1.771-1.58
		C78.34,65.986,77.905,65.212,76.516,65.212z"/>
	<path fill="#010101" d="M79.906,71.617v-0.573c0.276-0.063,0.604-0.117,0.922-0.138V67.1c-0.254-0.042-0.615-0.085-0.922-0.106
		v-0.573c0.53-0.064,1.262-0.106,1.877-0.074v4.56c0.308,0.021,0.625,0.074,0.891,0.138v0.573H79.906z M81.316,65.297
		c-0.35,0-0.636-0.265-0.636-0.615s0.287-0.625,0.636-0.625c0.339,0,0.626,0.275,0.626,0.625
		C81.942,65.021,81.656,65.297,81.316,65.297z"/>
	<path fill="#010101" d="M87.444,71.617v-3.394c0-0.742-0.201-1.188-0.891-1.188c-0.87,0-1.506,0.891-1.506,2.058v1.813
		c0.286,0.021,0.594,0.063,0.849,0.138v0.573h-2.726v-0.573c0.276-0.063,0.604-0.117,0.922-0.138V67.1
		c-0.254-0.042-0.615-0.085-0.922-0.106v-0.573c0.53-0.064,1.262-0.106,1.845-0.074c0,0.308-0.021,0.795-0.074,1.113h0.011
		c0.307-0.721,0.965-1.209,1.866-1.209c1.198,0,1.58,0.753,1.58,1.687v2.969c0.308,0.021,0.626,0.074,0.88,0.138v0.573H87.444z"/>
	<path fill="#010101" d="M96.156,71.617v1.294c0.308,0.021,0.625,0.074,0.891,0.148V73.6h-2.768V73.06
		c0.275-0.074,0.604-0.127,0.922-0.148v-1.294h-3.118l-0.159-0.785l2.991-4.73h1.241v4.656h1.23v0.859H96.156z M95.212,67.036
		h-0.011l-2.344,3.733c0.604-0.011,1.983-0.011,2.354-0.011V67.036z"/>
</g>
<path fill="none" stroke="#818181" stroke-width="1.2677" stroke-linecap="round" d="M389.274,86.928c0,0-16.036-2.937-22.585-23.49
	c-4.293-12.875-5.195-32.751-5.195-32.751"/>
<path fill="none" stroke="#221F1F" stroke-width="1.2677" stroke-linecap="round" d="M478.154,111.096
	c0,0,18.069-22.361-2.033-83.683"/>
<g>
	
		<line fill="none" stroke="#010101" stroke-width="1.2677" stroke-linecap="round" x1="478.83" y1="119.001" x2="453.534" y2="119.001"/>
	
		<line fill="none" stroke="#010101" stroke-width="1.2677" stroke-linecap="round" x1="405.086" y1="119.001" x2="428.689" y2="119.001"/>
	<rect x="428.463" y="115.613" fill="#CDCCCC" width="25.297" height="6.776"/>
	<rect x="430.722" y="115.387" fill="#676767" width="3.388" height="7.002"/>
	<rect x="435.69" y="115.387" fill="#010101" width="3.388" height="7.002"/>
	<rect x="440.659" y="115.387" fill="#818181" width="3.388" height="7.002"/>
	<rect x="447.438" y="115.387" fill="#B4B4B4" width="3.385" height="7.002"/>
</g>
<g enable-background="new    ">
	<path fill="#010101" d="M175.703,142.59c0,0.827-0.552,1.506-1.336,1.803v0.011c0.912,0.18,1.485,0.859,1.485,1.729
		c0,1.432-1.188,2.396-2.917,2.396c-0.308,0-0.668-0.042-0.955-0.106l0.096-0.87c0.265,0.085,0.594,0.138,0.944,0.138
		c1.071,0,1.782-0.53,1.782-1.442c0-1.071-0.965-1.411-2.45-1.262v-0.774c1.453,0.011,2.344-0.53,2.344-1.485
		c0-0.679-0.414-1.082-1.145-1.082c-0.244,0-0.509,0.063-0.7,0.138c-0.021,0.276-0.063,0.583-0.127,0.88h-0.583v-1.506
		c0.456-0.191,0.955-0.308,1.517-0.308C175.099,140.851,175.703,141.636,175.703,142.59z"/>
	<path fill="#010101" d="M180.621,142.59c0,0.827-0.552,1.506-1.336,1.803v0.011c0.912,0.18,1.485,0.859,1.485,1.729
		c0,1.432-1.188,2.396-2.917,2.396c-0.308,0-0.668-0.042-0.955-0.106l0.096-0.87c0.265,0.085,0.594,0.138,0.944,0.138
		c1.071,0,1.782-0.53,1.782-1.442c0-1.071-0.965-1.411-2.45-1.262v-0.774c1.453,0.011,2.343-0.53,2.343-1.485
		c0-0.679-0.414-1.082-1.145-1.082c-0.244,0-0.509,0.063-0.7,0.138c-0.021,0.276-0.063,0.583-0.127,0.88h-0.583v-1.506
		c0.456-0.191,0.955-0.308,1.517-0.308C180.016,140.851,180.621,141.636,180.621,142.59z"/>
	<path fill="#010101" d="M184.488,146.578c-1.484,0-2.608-0.859-2.608-2.81c0-1.813,1.293-2.917,2.832-2.917
		c1.739,0,2.608,1.135,2.608,2.789C187.32,145.496,186.016,146.578,184.488,146.578z M184.637,141.657
		c-0.997,0-1.792,0.763-1.792,2.046c0,1.167,0.52,2.068,1.729,2.068c0.986,0,1.782-0.764,1.782-2.058
		C186.355,142.559,185.825,141.657,184.637,141.657z"/>
	<path fill="#010101" d="M192.967,146.567c-1.442,0-2.365-0.827-2.365-2.651c0-1.58,0.976-2.811,2.566-2.811
		c1.336,0,2.365,0.732,2.365,2.651C195.533,145.337,194.558,146.567,192.967,146.567z M193.083,141.901
		c-0.774,0-1.496,0.583-1.496,1.941c0,1.219,0.509,1.919,1.485,1.919c0.785,0,1.474-0.615,1.474-1.93
		C194.547,142.601,194.038,141.901,193.083,141.901z"/>
	<path fill="#010101" d="M200.281,146.472v-3.394c0-0.742-0.201-1.188-0.901-1.188c-0.87,0-1.495,0.891-1.495,2.058v1.813
		c0.286,0.021,0.594,0.063,0.848,0.138v0.573h-2.693v-0.573c0.265-0.063,0.583-0.117,0.891-0.138v-6.278
		c-0.254-0.042-0.604-0.084-0.912-0.106v-0.573c0.53-0.063,1.251-0.106,1.867-0.074v2.503c0,0.339-0.021,0.764-0.095,1.05
		l0.021,0.011c0.308-0.721,0.955-1.188,1.845-1.188c1.198,0,1.58,0.753,1.58,1.687v2.969c0.297,0.021,0.615,0.074,0.88,0.138v0.573
		H200.281z"/>
	<path fill="#010101" d="M210.097,146.472v-3.383c0-0.721-0.169-1.199-0.848-1.199c-0.753,0-1.485,0.795-1.485,2.079v1.792
		c0.297,0.021,0.594,0.063,0.859,0.138v0.573h-1.803v-3.383c0-0.668-0.138-1.199-0.859-1.199c-0.795,0-1.474,0.87-1.474,2.079v1.792
		c0.286,0.021,0.594,0.063,0.849,0.138v0.573h-2.726v-0.573c0.276-0.063,0.604-0.117,0.922-0.138v-3.807
		c-0.254-0.042-0.615-0.085-0.922-0.106v-0.573c0.53-0.064,1.272-0.106,1.856-0.074c0,0.308-0.032,0.795-0.085,1.113l0.021,0.011
		c0.297-0.742,0.976-1.22,1.824-1.22c1.113,0,1.411,0.764,1.463,1.199c0.212-0.499,0.785-1.199,1.803-1.199
		c0.997,0,1.559,0.53,1.559,1.729v2.927c0.318,0.021,0.625,0.074,0.891,0.138v0.573H210.097z"/>
</g>
<g>
	<g>
		<polygon fill="#010101" points="178.091,74.506 174.025,82.186 170.411,78.572 		"/>
		<line fill="none" stroke="#010101" stroke-width="0.6339" x1="174.025" y1="78.572" x2="164.539" y2="88.058"/>
	</g>
	<g>
		<polygon fill="#010101" points="172.67,69.311 168.831,76.991 164.991,73.15 		"/>
		<line fill="none" stroke="#010101" stroke-width="0.6339" x1="168.831" y1="73.15" x2="159.344" y2="82.863"/>
	</g>
</g>
<g>
	
		<line fill="none" stroke="#010101" stroke-width="1.2677" stroke-linecap="round" x1="405.538" y1="110.871" x2="360.139" y2="135.151"/>
	
		<line fill="none" stroke="#010101" stroke-width="1.2677" stroke-linecap="round" x1="354.493" y1="124.647" x2="389.5" y2="94.607"/>
	<path fill="#818181" d="M363.526,137.636l-14.457,9.485c0,0-7.451,3.841-12.421-4.515c-5.195-8.358,2.033-12.424,2.033-12.424
		l14.456-9.486L363.526,137.636z"/>
</g>
</svg>
