<?xml version="1.0" encoding="utf-8"?>
<!-- Generator: Adobe Illustrator 16.0.4, SVG Export Plug-In . SVG Version: 6.00 Build 0)  -->
<!DOCTYPE svg PUBLIC "-//W3C//DTD SVG 1.1//EN" "http://www.w3.org/Graphics/SVG/1.1/DTD/svg11.dtd">
<svg version="1.1" id="Layer_1" xmlns="http://www.w3.org/2000/svg" xmlns:xlink="http://www.w3.org/1999/xlink" x="0px" y="0px"
	 width="650px" height="240px" viewBox="-19 0 650 240" enable-background="new -19 0 650 240" xml:space="preserve">
<g>
	<g>
		<rect x="361.291" y="87.111" fill="none" stroke="#CDCCCC" stroke-width="0.6" width="2.993" height="2.993"/>
		<rect x="361.291" y="95.021" fill="none" stroke="#CDCCCC" stroke-width="0.6" width="2.993" height="2.993"/>
		<rect x="361.291" y="102.931" fill="none" stroke="#CDCCCC" stroke-width="0.6" width="2.993" height="2.994"/>
		<rect x="361.291" y="110.842" fill="none" stroke="#CDCCCC" stroke-width="0.6" width="2.993" height="2.993"/>
		<rect x="361.291" y="118.752" fill="none" stroke="#CDCCCC" stroke-width="0.6" width="2.993" height="2.993"/>
	</g>
	<g>
		<rect x="369.309" y="87.111" fill="none" stroke="#CDCCCC" stroke-width="0.6" width="2.993" height="2.993"/>
		<rect x="369.309" y="95.021" fill="none" stroke="#CDCCCC" stroke-width="0.6" width="2.993" height="2.993"/>
		<rect x="369.309" y="102.931" fill="none" stroke="#CDCCCC" stroke-width="0.6" width="2.993" height="2.994"/>
		<rect x="369.309" y="110.842" fill="none" stroke="#CDCCCC" stroke-width="0.6" width="2.993" height="2.993"/>
		<rect x="369.309" y="118.752" fill="none" stroke="#CDCCCC" stroke-width="0.6" width="2.993" height="2.993"/>
	</g>
	<g>
		<rect x="377.433" y="87.111" fill="none" stroke="#CDCCCC" stroke-width="0.6" width="2.994" height="2.993"/>
		<rect x="377.433" y="95.021" fill="none" stroke="#CDCCCC" stroke-width="0.6" width="2.994" height="2.993"/>
		<rect x="377.433" y="102.931" fill="none" stroke="#CDCCCC" stroke-width="0.6" width="2.994" height="2.994"/>
		<rect x="377.433" y="110.842" fill="none" stroke="#CDCCCC" stroke-width="0.6" width="2.994" height="2.993"/>
		<rect x="377.433" y="118.752" fill="none" stroke="#CDCCCC" stroke-width="0.6" width="2.994" height="2.993"/>
	</g>
	<g>
		<rect x="385.45" y="87.111" fill="none" stroke="#CDCCCC" stroke-width="0.6" width="2.993" height="2.993"/>
		<rect x="385.45" y="95.021" fill="none" stroke="#CDCCCC" stroke-width="0.6" width="2.993" height="2.993"/>
		<rect x="385.45" y="102.931" fill="none" stroke="#CDCCCC" stroke-width="0.6" width="2.993" height="2.994"/>
		<rect x="385.45" y="110.842" fill="none" stroke="#CDCCCC" stroke-width="0.6" width="2.993" height="2.993"/>
		<rect x="385.45" y="118.752" fill="none" stroke="#CDCCCC" stroke-width="0.6" width="2.993" height="2.993"/>
	</g>
	<g>
		<rect x="393.575" y="87.111" fill="none" stroke="#CDCCCC" stroke-width="0.6" width="2.993" height="2.993"/>
		<rect x="393.575" y="95.021" fill="none" stroke="#CDCCCC" stroke-width="0.6" width="2.993" height="2.993"/>
		<rect x="393.575" y="102.931" fill="none" stroke="#CDCCCC" stroke-width="0.6" width="2.993" height="2.994"/>
		<rect x="393.575" y="110.842" fill="none" stroke="#CDCCCC" stroke-width="0.6" width="2.993" height="2.993"/>
		<rect x="393.575" y="118.752" fill="none" stroke="#CDCCCC" stroke-width="0.6" width="2.993" height="2.993"/>
	</g>
	<g>
		<rect x="401.593" y="87.111" fill="none" stroke="#CDCCCC" stroke-width="0.6" width="2.993" height="2.993"/>
		<rect x="401.593" y="95.021" fill="none" stroke="#CDCCCC" stroke-width="0.6" width="2.993" height="2.993"/>
		<rect x="401.593" y="102.931" fill="none" stroke="#CDCCCC" stroke-width="0.6" width="2.993" height="2.994"/>
		<rect x="401.593" y="110.842" fill="none" stroke="#CDCCCC" stroke-width="0.6" width="2.993" height="2.993"/>
		<rect x="401.593" y="118.752" fill="none" stroke="#CDCCCC" stroke-width="0.6" width="2.993" height="2.993"/>
	</g>
	<g>
		<rect x="409.717" y="87.111" fill="none" stroke="#CDCCCC" stroke-width="0.6" width="2.994" height="2.993"/>
		<rect x="409.717" y="95.021" fill="none" stroke="#CDCCCC" stroke-width="0.6" width="2.994" height="2.993"/>
		<rect x="409.717" y="102.931" fill="none" stroke="#CDCCCC" stroke-width="0.6" width="2.994" height="2.994"/>
		<rect x="409.717" y="110.842" fill="none" stroke="#CDCCCC" stroke-width="0.6" width="2.994" height="2.993"/>
		<rect x="409.717" y="118.752" fill="none" stroke="#CDCCCC" stroke-width="0.6" width="2.994" height="2.993"/>
	</g>
	<g>
		<rect x="417.841" y="87.111" fill="none" stroke="#CDCCCC" stroke-width="0.6" width="2.993" height="2.993"/>
		<rect x="417.841" y="95.021" fill="none" stroke="#CDCCCC" stroke-width="0.6" width="2.993" height="2.993"/>
		<rect x="417.841" y="102.931" fill="none" stroke="#CDCCCC" stroke-width="0.6" width="2.993" height="2.994"/>
		<rect x="417.841" y="110.842" fill="none" stroke="#CDCCCC" stroke-width="0.6" width="2.993" height="2.993"/>
		<rect x="417.841" y="118.752" fill="none" stroke="#CDCCCC" stroke-width="0.6" width="2.993" height="2.993"/>
	</g>
	<g>
		<rect x="425.966" y="87.111" fill="none" stroke="#CDCCCC" stroke-width="0.6" width="2.993" height="2.993"/>
		<rect x="425.966" y="95.021" fill="none" stroke="#CDCCCC" stroke-width="0.6" width="2.993" height="2.993"/>
		<rect x="425.966" y="102.931" fill="none" stroke="#CDCCCC" stroke-width="0.6" width="2.993" height="2.994"/>
		<rect x="425.966" y="110.842" fill="none" stroke="#CDCCCC" stroke-width="0.6" width="2.993" height="2.993"/>
		<rect x="425.966" y="118.752" fill="none" stroke="#CDCCCC" stroke-width="0.6" width="2.993" height="2.993"/>
	</g>
	<g>
		<rect x="433.982" y="87.111" fill="none" stroke="#CDCCCC" stroke-width="0.6" width="2.994" height="2.993"/>
		<rect x="433.982" y="95.021" fill="none" stroke="#CDCCCC" stroke-width="0.6" width="2.994" height="2.993"/>
		<rect x="433.982" y="102.931" fill="none" stroke="#CDCCCC" stroke-width="0.6" width="2.994" height="2.994"/>
		<rect x="433.982" y="110.842" fill="none" stroke="#CDCCCC" stroke-width="0.6" width="2.994" height="2.993"/>
		<rect x="433.982" y="118.752" fill="none" stroke="#CDCCCC" stroke-width="0.6" width="2.994" height="2.993"/>
	</g>
	<g>
		<rect x="442.107" y="87.111" fill="none" stroke="#CDCCCC" stroke-width="0.6" width="2.994" height="2.993"/>
		<rect x="442.107" y="95.021" fill="none" stroke="#CDCCCC" stroke-width="0.6" width="2.994" height="2.993"/>
		<rect x="442.107" y="102.931" fill="none" stroke="#CDCCCC" stroke-width="0.6" width="2.994" height="2.994"/>
		<rect x="442.107" y="110.842" fill="none" stroke="#CDCCCC" stroke-width="0.6" width="2.994" height="2.993"/>
		<rect x="442.107" y="118.752" fill="none" stroke="#CDCCCC" stroke-width="0.6" width="2.994" height="2.993"/>
	</g>
	<g>
		<rect x="450.125" y="87.111" fill="none" stroke="#CDCCCC" stroke-width="0.6" width="2.993" height="2.993"/>
		<rect x="450.125" y="95.021" fill="none" stroke="#CDCCCC" stroke-width="0.6" width="2.993" height="2.993"/>
		<rect x="450.125" y="102.931" fill="none" stroke="#CDCCCC" stroke-width="0.6" width="2.993" height="2.994"/>
		<rect x="450.125" y="110.842" fill="none" stroke="#CDCCCC" stroke-width="0.6" width="2.993" height="2.993"/>
		<rect x="450.125" y="118.752" fill="none" stroke="#CDCCCC" stroke-width="0.6" width="2.993" height="2.993"/>
	</g>
	<g>
		<rect x="458.25" y="87.111" fill="none" stroke="#CDCCCC" stroke-width="0.6" width="2.992" height="2.993"/>
		<rect x="458.25" y="95.021" fill="none" stroke="#CDCCCC" stroke-width="0.6" width="2.992" height="2.993"/>
		<rect x="458.25" y="102.931" fill="none" stroke="#CDCCCC" stroke-width="0.6" width="2.992" height="2.994"/>
		<rect x="458.25" y="110.842" fill="none" stroke="#CDCCCC" stroke-width="0.6" width="2.992" height="2.993"/>
		<rect x="458.25" y="118.752" fill="none" stroke="#CDCCCC" stroke-width="0.6" width="2.992" height="2.993"/>
	</g>
	<g>
		<rect x="466.48" y="87.111" fill="none" stroke="#CDCCCC" stroke-width="0.6" width="2.993" height="2.993"/>
		<rect x="466.48" y="95.021" fill="none" stroke="#CDCCCC" stroke-width="0.6" width="2.993" height="2.993"/>
		<rect x="466.48" y="102.931" fill="none" stroke="#CDCCCC" stroke-width="0.6" width="2.993" height="2.994"/>
		<rect x="466.48" y="110.842" fill="none" stroke="#CDCCCC" stroke-width="0.6" width="2.993" height="2.993"/>
		<rect x="466.48" y="118.752" fill="none" stroke="#CDCCCC" stroke-width="0.6" width="2.993" height="2.993"/>
	</g>
	<g>
		<rect x="474.498" y="87.111" fill="none" stroke="#CDCCCC" stroke-width="0.6" width="2.992" height="2.993"/>
		<rect x="474.498" y="95.021" fill="none" stroke="#CDCCCC" stroke-width="0.6" width="2.992" height="2.993"/>
		<rect x="474.498" y="102.931" fill="none" stroke="#CDCCCC" stroke-width="0.6" width="2.992" height="2.994"/>
		<rect x="474.498" y="110.842" fill="none" stroke="#CDCCCC" stroke-width="0.6" width="2.992" height="2.993"/>
		<rect x="474.498" y="118.752" fill="none" stroke="#CDCCCC" stroke-width="0.6" width="2.992" height="2.993"/>
	</g>
	<g>
		<rect x="482.622" y="87.111" fill="none" stroke="#CDCCCC" stroke-width="0.6" width="2.993" height="2.993"/>
		<rect x="482.622" y="95.021" fill="none" stroke="#CDCCCC" stroke-width="0.6" width="2.993" height="2.993"/>
		<rect x="482.622" y="102.931" fill="none" stroke="#CDCCCC" stroke-width="0.6" width="2.993" height="2.994"/>
		<rect x="482.622" y="110.842" fill="none" stroke="#CDCCCC" stroke-width="0.6" width="2.993" height="2.993"/>
		<rect x="482.622" y="118.752" fill="none" stroke="#CDCCCC" stroke-width="0.6" width="2.993" height="2.993"/>
	</g>
	<g>
		<rect x="490.641" y="87.111" fill="none" stroke="#CDCCCC" stroke-width="0.6" width="2.992" height="2.993"/>
		<rect x="490.641" y="95.021" fill="none" stroke="#CDCCCC" stroke-width="0.6" width="2.992" height="2.993"/>
		<rect x="490.641" y="102.931" fill="none" stroke="#CDCCCC" stroke-width="0.6" width="2.992" height="2.994"/>
		<rect x="490.641" y="110.842" fill="none" stroke="#CDCCCC" stroke-width="0.6" width="2.992" height="2.993"/>
		<rect x="490.641" y="118.752" fill="none" stroke="#CDCCCC" stroke-width="0.6" width="2.992" height="2.993"/>
	</g>
	<g>
		<rect x="498.764" y="87.111" fill="none" stroke="#CDCCCC" stroke-width="0.6" width="2.994" height="2.993"/>
		<rect x="498.764" y="95.021" fill="none" stroke="#CDCCCC" stroke-width="0.6" width="2.994" height="2.993"/>
		<rect x="498.764" y="102.931" fill="none" stroke="#CDCCCC" stroke-width="0.6" width="2.994" height="2.994"/>
		<rect x="498.764" y="110.842" fill="none" stroke="#CDCCCC" stroke-width="0.6" width="2.994" height="2.993"/>
		<rect x="498.764" y="118.752" fill="none" stroke="#CDCCCC" stroke-width="0.6" width="2.994" height="2.993"/>
	</g>
	<g>
		<rect x="506.781" y="87.111" fill="none" stroke="#CDCCCC" stroke-width="0.6" width="2.993" height="2.993"/>
		<rect x="506.781" y="95.021" fill="none" stroke="#CDCCCC" stroke-width="0.6" width="2.993" height="2.993"/>
		<rect x="506.781" y="102.931" fill="none" stroke="#CDCCCC" stroke-width="0.6" width="2.993" height="2.994"/>
		<rect x="506.781" y="110.842" fill="none" stroke="#CDCCCC" stroke-width="0.6" width="2.993" height="2.993"/>
		<rect x="506.781" y="118.752" fill="none" stroke="#CDCCCC" stroke-width="0.6" width="2.993" height="2.993"/>
	</g>
	<g>
		<rect x="514.906" y="87.111" fill="none" stroke="#CDCCCC" stroke-width="0.6" width="2.993" height="2.993"/>
		<rect x="514.906" y="95.021" fill="none" stroke="#CDCCCC" stroke-width="0.6" width="2.993" height="2.993"/>
		<rect x="514.906" y="102.931" fill="none" stroke="#CDCCCC" stroke-width="0.6" width="2.993" height="2.994"/>
		<rect x="514.906" y="110.842" fill="none" stroke="#CDCCCC" stroke-width="0.6" width="2.993" height="2.993"/>
		<rect x="514.906" y="118.752" fill="none" stroke="#CDCCCC" stroke-width="0.6" width="2.993" height="2.993"/>
	</g>
	<g>
		<rect x="523.031" y="87.111" fill="none" stroke="#CDCCCC" stroke-width="0.6" width="2.992" height="2.993"/>
		<rect x="523.031" y="95.021" fill="none" stroke="#CDCCCC" stroke-width="0.6" width="2.992" height="2.993"/>
		<rect x="523.031" y="102.931" fill="none" stroke="#CDCCCC" stroke-width="0.6" width="2.992" height="2.994"/>
		<rect x="523.031" y="110.842" fill="none" stroke="#CDCCCC" stroke-width="0.6" width="2.992" height="2.993"/>
		<rect x="523.031" y="118.752" fill="none" stroke="#CDCCCC" stroke-width="0.6" width="2.992" height="2.993"/>
	</g>
	<g>
		<rect x="531.154" y="87.111" fill="none" stroke="#CDCCCC" stroke-width="0.6" width="2.994" height="2.993"/>
		<rect x="531.154" y="95.021" fill="none" stroke="#CDCCCC" stroke-width="0.6" width="2.994" height="2.993"/>
		<rect x="531.154" y="102.931" fill="none" stroke="#CDCCCC" stroke-width="0.6" width="2.994" height="2.994"/>
		<rect x="531.154" y="110.842" fill="none" stroke="#CDCCCC" stroke-width="0.6" width="2.994" height="2.993"/>
		<rect x="531.154" y="118.752" fill="none" stroke="#CDCCCC" stroke-width="0.6" width="2.994" height="2.993"/>
	</g>
	<g>
		<rect x="539.172" y="87.111" fill="none" stroke="#CDCCCC" stroke-width="0.6" width="2.993" height="2.993"/>
		<rect x="539.172" y="95.021" fill="none" stroke="#CDCCCC" stroke-width="0.6" width="2.993" height="2.993"/>
		<rect x="539.172" y="102.931" fill="none" stroke="#CDCCCC" stroke-width="0.6" width="2.993" height="2.994"/>
		<rect x="539.172" y="110.842" fill="none" stroke="#CDCCCC" stroke-width="0.6" width="2.993" height="2.993"/>
		<rect x="539.172" y="118.752" fill="none" stroke="#CDCCCC" stroke-width="0.6" width="2.993" height="2.993"/>
	</g>
	<g>
		<rect x="328.9" y="87.111" fill="none" stroke="#CDCCCC" stroke-width="0.6" width="2.993" height="2.993"/>
		<rect x="328.9" y="95.021" fill="none" stroke="#CDCCCC" stroke-width="0.6" width="2.993" height="2.993"/>
		<rect x="328.9" y="102.931" fill="none" stroke="#CDCCCC" stroke-width="0.6" width="2.993" height="2.994"/>
		<rect x="328.9" y="110.842" fill="none" stroke="#CDCCCC" stroke-width="0.6" width="2.993" height="2.993"/>
		<rect x="328.9" y="118.752" fill="none" stroke="#CDCCCC" stroke-width="0.6" width="2.993" height="2.993"/>
	</g>
	<g>
		<rect x="336.918" y="87.111" fill="none" stroke="#CDCCCC" stroke-width="0.6" width="2.993" height="2.993"/>
		<rect x="336.918" y="95.021" fill="none" stroke="#CDCCCC" stroke-width="0.6" width="2.993" height="2.993"/>
		<rect x="336.918" y="102.931" fill="none" stroke="#CDCCCC" stroke-width="0.6" width="2.993" height="2.994"/>
		<rect x="336.918" y="110.842" fill="none" stroke="#CDCCCC" stroke-width="0.6" width="2.993" height="2.993"/>
		<rect x="336.918" y="118.752" fill="none" stroke="#CDCCCC" stroke-width="0.6" width="2.993" height="2.993"/>
	</g>
	<g>
		<rect x="345.042" y="87.111" fill="none" stroke="#CDCCCC" stroke-width="0.6" width="2.994" height="2.993"/>
		<rect x="345.042" y="95.021" fill="none" stroke="#CDCCCC" stroke-width="0.6" width="2.994" height="2.993"/>
		<rect x="345.042" y="102.931" fill="none" stroke="#CDCCCC" stroke-width="0.6" width="2.994" height="2.994"/>
		<rect x="345.042" y="110.842" fill="none" stroke="#CDCCCC" stroke-width="0.6" width="2.994" height="2.993"/>
		<rect x="345.042" y="118.752" fill="none" stroke="#CDCCCC" stroke-width="0.6" width="2.994" height="2.993"/>
	</g>
	<g>
		<rect x="353.06" y="87.111" fill="none" stroke="#CDCCCC" stroke-width="0.6" width="2.993" height="2.993"/>
		<rect x="353.06" y="95.021" fill="none" stroke="#CDCCCC" stroke-width="0.6" width="2.993" height="2.993"/>
		<rect x="353.06" y="102.931" fill="none" stroke="#CDCCCC" stroke-width="0.6" width="2.993" height="2.994"/>
		<rect x="353.06" y="110.842" fill="none" stroke="#CDCCCC" stroke-width="0.6" width="2.993" height="2.993"/>
		<rect x="353.06" y="118.752" fill="none" stroke="#CDCCCC" stroke-width="0.6" width="2.993" height="2.993"/>
	</g>
	<g>
		<rect x="304.527" y="87.111" fill="none" stroke="#CDCCCC" stroke-width="0.6" width="2.993" height="2.993"/>
		<rect x="304.527" y="95.021" fill="none" stroke="#CDCCCC" stroke-width="0.6" width="2.993" height="2.993"/>
		<rect x="304.527" y="102.931" fill="none" stroke="#CDCCCC" stroke-width="0.6" width="2.993" height="2.994"/>
		<rect x="304.527" y="110.842" fill="none" stroke="#CDCCCC" stroke-width="0.6" width="2.993" height="2.993"/>
		<rect x="304.527" y="118.752" fill="none" stroke="#CDCCCC" stroke-width="0.6" width="2.993" height="2.993"/>
	</g>
	<g>
		<rect x="312.759" y="87.111" fill="none" stroke="#CDCCCC" stroke-width="0.6" width="2.993" height="2.993"/>
		<rect x="312.759" y="95.021" fill="none" stroke="#CDCCCC" stroke-width="0.6" width="2.993" height="2.993"/>
		<rect x="312.759" y="102.931" fill="none" stroke="#CDCCCC" stroke-width="0.6" width="2.993" height="2.994"/>
		<rect x="312.759" y="110.842" fill="none" stroke="#CDCCCC" stroke-width="0.6" width="2.993" height="2.993"/>
		<rect x="312.759" y="118.752" fill="none" stroke="#CDCCCC" stroke-width="0.6" width="2.993" height="2.993"/>
	</g>
	<g>
		<rect x="320.777" y="87.111" fill="none" stroke="#CDCCCC" stroke-width="0.6" width="2.992" height="2.993"/>
		<rect x="320.777" y="95.021" fill="none" stroke="#CDCCCC" stroke-width="0.6" width="2.992" height="2.993"/>
		<rect x="320.777" y="102.931" fill="none" stroke="#CDCCCC" stroke-width="0.6" width="2.992" height="2.994"/>
		<rect x="320.777" y="110.842" fill="none" stroke="#CDCCCC" stroke-width="0.6" width="2.992" height="2.993"/>
		<rect x="320.777" y="118.752" fill="none" stroke="#CDCCCC" stroke-width="0.6" width="2.992" height="2.993"/>
	</g>
</g>
<g>
	<g>
		<rect x="361.291" y="142.057" fill="none" stroke="#CDCCCC" stroke-width="0.6" width="2.993" height="2.992"/>
		<rect x="361.291" y="149.967" fill="none" stroke="#CDCCCC" stroke-width="0.6" width="2.993" height="2.994"/>
		<rect x="361.291" y="157.878" fill="none" stroke="#CDCCCC" stroke-width="0.6" width="2.993" height="2.993"/>
		<rect x="361.291" y="165.895" fill="none" stroke="#CDCCCC" stroke-width="0.6" width="2.993" height="2.994"/>
		<rect x="361.291" y="173.913" fill="none" stroke="#CDCCCC" stroke-width="0.6" width="2.993" height="2.993"/>
	</g>
	<g>
		<rect x="369.309" y="142.057" fill="none" stroke="#CDCCCC" stroke-width="0.6" width="2.993" height="2.992"/>
		<rect x="369.309" y="149.967" fill="none" stroke="#CDCCCC" stroke-width="0.6" width="2.993" height="2.994"/>
		<rect x="369.309" y="157.878" fill="none" stroke="#CDCCCC" stroke-width="0.6" width="2.993" height="2.993"/>
		<rect x="369.309" y="165.895" fill="none" stroke="#CDCCCC" stroke-width="0.6" width="2.993" height="2.994"/>
		<rect x="369.309" y="173.913" fill="none" stroke="#CDCCCC" stroke-width="0.6" width="2.993" height="2.993"/>
	</g>
	<g>
		<rect x="377.433" y="142.057" fill="none" stroke="#CDCCCC" stroke-width="0.6" width="2.994" height="2.992"/>
		<rect x="377.433" y="149.967" fill="none" stroke="#CDCCCC" stroke-width="0.6" width="2.994" height="2.994"/>
		<rect x="377.433" y="157.878" fill="none" stroke="#CDCCCC" stroke-width="0.6" width="2.994" height="2.993"/>
		<rect x="377.433" y="165.895" fill="none" stroke="#CDCCCC" stroke-width="0.6" width="2.994" height="2.994"/>
		<rect x="377.433" y="173.913" fill="none" stroke="#CDCCCC" stroke-width="0.6" width="2.994" height="2.993"/>
	</g>
	<g>
		<rect x="385.45" y="142.057" fill="none" stroke="#CDCCCC" stroke-width="0.6" width="2.993" height="2.992"/>
		<rect x="385.45" y="149.967" fill="none" stroke="#CDCCCC" stroke-width="0.6" width="2.993" height="2.994"/>
		<rect x="385.45" y="157.878" fill="none" stroke="#CDCCCC" stroke-width="0.6" width="2.993" height="2.993"/>
		<rect x="385.45" y="165.895" fill="none" stroke="#CDCCCC" stroke-width="0.6" width="2.993" height="2.994"/>
		<rect x="385.45" y="173.913" fill="none" stroke="#CDCCCC" stroke-width="0.6" width="2.993" height="2.993"/>
	</g>
	<g>
		<rect x="393.575" y="142.057" fill="none" stroke="#CDCCCC" stroke-width="0.6" width="2.993" height="2.992"/>
		<rect x="393.575" y="149.967" fill="none" stroke="#CDCCCC" stroke-width="0.6" width="2.993" height="2.994"/>
		<rect x="393.575" y="157.878" fill="none" stroke="#CDCCCC" stroke-width="0.6" width="2.993" height="2.993"/>
		<rect x="393.575" y="165.895" fill="none" stroke="#CDCCCC" stroke-width="0.6" width="2.993" height="2.994"/>
		<rect x="393.575" y="173.913" fill="none" stroke="#CDCCCC" stroke-width="0.6" width="2.993" height="2.993"/>
	</g>
	<g>
		<rect x="401.593" y="142.057" fill="none" stroke="#CDCCCC" stroke-width="0.6" width="2.993" height="2.992"/>
		<rect x="401.593" y="149.967" fill="none" stroke="#CDCCCC" stroke-width="0.6" width="2.993" height="2.994"/>
		<rect x="401.593" y="157.878" fill="none" stroke="#CDCCCC" stroke-width="0.6" width="2.993" height="2.993"/>
		<rect x="401.593" y="165.895" fill="none" stroke="#CDCCCC" stroke-width="0.6" width="2.993" height="2.994"/>
		<rect x="401.593" y="173.913" fill="none" stroke="#CDCCCC" stroke-width="0.6" width="2.993" height="2.993"/>
	</g>
	<g>
		<rect x="409.717" y="142.057" fill="none" stroke="#CDCCCC" stroke-width="0.6" width="2.994" height="2.992"/>
		<rect x="409.717" y="149.967" fill="none" stroke="#CDCCCC" stroke-width="0.6" width="2.994" height="2.994"/>
		<rect x="409.717" y="157.878" fill="none" stroke="#CDCCCC" stroke-width="0.6" width="2.994" height="2.993"/>
		<rect x="409.717" y="165.895" fill="none" stroke="#CDCCCC" stroke-width="0.6" width="2.994" height="2.994"/>
		<rect x="409.717" y="173.913" fill="none" stroke="#CDCCCC" stroke-width="0.6" width="2.994" height="2.993"/>
	</g>
	<g>
		<rect x="417.841" y="142.057" fill="none" stroke="#CDCCCC" stroke-width="0.6" width="2.993" height="2.992"/>
		<rect x="417.841" y="149.967" fill="none" stroke="#CDCCCC" stroke-width="0.6" width="2.993" height="2.994"/>
		<rect x="417.841" y="157.878" fill="none" stroke="#CDCCCC" stroke-width="0.6" width="2.993" height="2.993"/>
		<rect x="417.841" y="165.895" fill="none" stroke="#CDCCCC" stroke-width="0.6" width="2.993" height="2.994"/>
		<rect x="417.841" y="173.913" fill="none" stroke="#CDCCCC" stroke-width="0.6" width="2.993" height="2.993"/>
	</g>
	<g>
		<rect x="425.966" y="142.057" fill="none" stroke="#CDCCCC" stroke-width="0.6" width="2.993" height="2.992"/>
		<rect x="425.966" y="149.967" fill="none" stroke="#CDCCCC" stroke-width="0.6" width="2.993" height="2.994"/>
		<rect x="425.966" y="157.878" fill="none" stroke="#CDCCCC" stroke-width="0.6" width="2.993" height="2.993"/>
		<rect x="425.966" y="165.895" fill="none" stroke="#CDCCCC" stroke-width="0.6" width="2.993" height="2.994"/>
		<rect x="425.966" y="173.913" fill="none" stroke="#CDCCCC" stroke-width="0.6" width="2.993" height="2.993"/>
	</g>
	<g>
		<rect x="433.982" y="142.057" fill="none" stroke="#CDCCCC" stroke-width="0.6" width="2.994" height="2.992"/>
		<rect x="433.982" y="149.967" fill="none" stroke="#CDCCCC" stroke-width="0.6" width="2.994" height="2.994"/>
		<rect x="433.982" y="157.878" fill="none" stroke="#CDCCCC" stroke-width="0.6" width="2.994" height="2.993"/>
		<rect x="433.982" y="165.895" fill="none" stroke="#CDCCCC" stroke-width="0.6" width="2.994" height="2.994"/>
		<rect x="433.982" y="173.913" fill="none" stroke="#CDCCCC" stroke-width="0.6" width="2.994" height="2.993"/>
	</g>
	<g>
		<rect x="442.107" y="142.057" fill="none" stroke="#CDCCCC" stroke-width="0.6" width="2.994" height="2.992"/>
		<rect x="442.107" y="149.967" fill="none" stroke="#CDCCCC" stroke-width="0.6" width="2.994" height="2.994"/>
		<rect x="442.107" y="157.878" fill="none" stroke="#CDCCCC" stroke-width="0.6" width="2.994" height="2.993"/>
		<rect x="442.107" y="165.895" fill="none" stroke="#CDCCCC" stroke-width="0.6" width="2.994" height="2.994"/>
		<rect x="442.107" y="173.913" fill="none" stroke="#CDCCCC" stroke-width="0.6" width="2.994" height="2.993"/>
	</g>
	<g>
		<rect x="450.125" y="142.057" fill="none" stroke="#CDCCCC" stroke-width="0.6" width="2.993" height="2.992"/>
		<rect x="450.125" y="149.967" fill="none" stroke="#CDCCCC" stroke-width="0.6" width="2.993" height="2.994"/>
		<rect x="450.125" y="157.878" fill="none" stroke="#CDCCCC" stroke-width="0.6" width="2.993" height="2.993"/>
		<rect x="450.125" y="165.895" fill="none" stroke="#CDCCCC" stroke-width="0.6" width="2.993" height="2.994"/>
		<rect x="450.125" y="173.913" fill="none" stroke="#CDCCCC" stroke-width="0.6" width="2.993" height="2.993"/>
	</g>
	<g>
		<rect x="458.25" y="142.057" fill="none" stroke="#CDCCCC" stroke-width="0.6" width="2.992" height="2.992"/>
		<rect x="458.25" y="149.967" fill="none" stroke="#CDCCCC" stroke-width="0.6" width="2.992" height="2.994"/>
		<rect x="458.25" y="157.878" fill="none" stroke="#CDCCCC" stroke-width="0.6" width="2.992" height="2.993"/>
		<rect x="458.25" y="165.895" fill="none" stroke="#CDCCCC" stroke-width="0.6" width="2.992" height="2.994"/>
		<rect x="458.25" y="173.913" fill="none" stroke="#CDCCCC" stroke-width="0.6" width="2.992" height="2.993"/>
	</g>
	<g>
		<rect x="466.48" y="142.057" fill="none" stroke="#CDCCCC" stroke-width="0.6" width="2.993" height="2.992"/>
		<rect x="466.48" y="149.967" fill="none" stroke="#CDCCCC" stroke-width="0.6" width="2.993" height="2.994"/>
		<rect x="466.48" y="157.878" fill="none" stroke="#CDCCCC" stroke-width="0.6" width="2.993" height="2.993"/>
		<rect x="466.48" y="165.895" fill="none" stroke="#CDCCCC" stroke-width="0.6" width="2.993" height="2.994"/>
		<rect x="466.48" y="173.913" fill="none" stroke="#CDCCCC" stroke-width="0.6" width="2.993" height="2.993"/>
	</g>
	<g>
		<rect x="474.498" y="142.057" fill="none" stroke="#CDCCCC" stroke-width="0.6" width="2.992" height="2.992"/>
		<rect x="474.498" y="149.967" fill="none" stroke="#CDCCCC" stroke-width="0.6" width="2.992" height="2.994"/>
		<rect x="474.498" y="157.878" fill="none" stroke="#CDCCCC" stroke-width="0.6" width="2.992" height="2.993"/>
		<rect x="474.498" y="165.895" fill="none" stroke="#CDCCCC" stroke-width="0.6" width="2.992" height="2.994"/>
		<rect x="474.498" y="173.913" fill="none" stroke="#CDCCCC" stroke-width="0.6" width="2.992" height="2.993"/>
	</g>
	<g>
		<rect x="482.622" y="142.057" fill="none" stroke="#CDCCCC" stroke-width="0.6" width="2.993" height="2.992"/>
		<rect x="482.622" y="149.967" fill="none" stroke="#CDCCCC" stroke-width="0.6" width="2.993" height="2.994"/>
		<rect x="482.622" y="157.878" fill="none" stroke="#CDCCCC" stroke-width="0.6" width="2.993" height="2.993"/>
		<rect x="482.622" y="165.895" fill="none" stroke="#CDCCCC" stroke-width="0.6" width="2.993" height="2.994"/>
		<rect x="482.622" y="173.913" fill="none" stroke="#CDCCCC" stroke-width="0.6" width="2.993" height="2.993"/>
	</g>
	<rect x="490.641" y="142.057" fill="none" stroke="#CDCCCC" stroke-width="0.6" width="2.992" height="2.992"/>
	<rect x="490.641" y="149.967" fill="none" stroke="#CDCCCC" stroke-width="0.6" width="2.992" height="2.994"/>
	<rect x="490.641" y="157.878" fill="none" stroke="#CDCCCC" stroke-width="0.6" width="2.992" height="2.993"/>
	<rect x="490.641" y="165.895" fill="none" stroke="#CDCCCC" stroke-width="0.6" width="2.992" height="2.994"/>
	<rect x="490.641" y="173.913" fill="none" stroke="#CDCCCC" stroke-width="0.6" width="2.992" height="2.993"/>
	<rect x="498.764" y="142.057" fill="none" stroke="#CDCCCC" stroke-width="0.6" width="2.994" height="2.992"/>
	<rect x="498.764" y="149.967" fill="none" stroke="#CDCCCC" stroke-width="0.6" width="2.994" height="2.994"/>
	<rect x="498.764" y="157.878" fill="none" stroke="#CDCCCC" stroke-width="0.6" width="2.994" height="2.993"/>
	<rect x="498.764" y="165.895" fill="none" stroke="#CDCCCC" stroke-width="0.6" width="2.994" height="2.994"/>
	<rect x="498.764" y="173.913" fill="none" stroke="#CDCCCC" stroke-width="0.6" width="2.994" height="2.993"/>
	<rect x="506.781" y="142.057" fill="none" stroke="#CDCCCC" stroke-width="0.6" width="2.993" height="2.992"/>
	<rect x="506.781" y="149.967" fill="none" stroke="#CDCCCC" stroke-width="0.6" width="2.993" height="2.994"/>
	<rect x="506.781" y="157.878" fill="none" stroke="#CDCCCC" stroke-width="0.6" width="2.993" height="2.993"/>
	<rect x="506.781" y="165.895" fill="none" stroke="#CDCCCC" stroke-width="0.6" width="2.993" height="2.994"/>
	<rect x="506.781" y="173.913" fill="none" stroke="#CDCCCC" stroke-width="0.6" width="2.993" height="2.993"/>
	<rect x="514.906" y="142.057" fill="none" stroke="#CDCCCC" stroke-width="0.6" width="2.993" height="2.992"/>
	<rect x="514.906" y="149.967" fill="none" stroke="#CDCCCC" stroke-width="0.6" width="2.993" height="2.994"/>
	<rect x="514.906" y="157.878" fill="none" stroke="#CDCCCC" stroke-width="0.6" width="2.993" height="2.993"/>
	<rect x="514.906" y="165.895" fill="none" stroke="#CDCCCC" stroke-width="0.6" width="2.993" height="2.994"/>
	<rect x="514.906" y="173.913" fill="none" stroke="#CDCCCC" stroke-width="0.6" width="2.993" height="2.993"/>
	<rect x="523.031" y="142.057" fill="none" stroke="#CDCCCC" stroke-width="0.6" width="2.992" height="2.992"/>
	<rect x="523.031" y="149.967" fill="none" stroke="#CDCCCC" stroke-width="0.6" width="2.992" height="2.994"/>
	<rect x="523.031" y="157.878" fill="none" stroke="#CDCCCC" stroke-width="0.6" width="2.992" height="2.993"/>
	<rect x="523.031" y="165.895" fill="none" stroke="#CDCCCC" stroke-width="0.6" width="2.992" height="2.994"/>
	<rect x="523.031" y="173.913" fill="none" stroke="#CDCCCC" stroke-width="0.6" width="2.992" height="2.993"/>
	<rect x="531.154" y="142.057" fill="none" stroke="#CDCCCC" stroke-width="0.6" width="2.994" height="2.992"/>
	<rect x="531.154" y="149.967" fill="none" stroke="#CDCCCC" stroke-width="0.6" width="2.994" height="2.994"/>
	<rect x="531.154" y="157.878" fill="none" stroke="#CDCCCC" stroke-width="0.6" width="2.994" height="2.993"/>
	<rect x="531.154" y="165.895" fill="none" stroke="#CDCCCC" stroke-width="0.6" width="2.994" height="2.994"/>
	<rect x="531.154" y="173.913" fill="none" stroke="#CDCCCC" stroke-width="0.6" width="2.994" height="2.993"/>
	<rect x="539.172" y="142.057" fill="none" stroke="#CDCCCC" stroke-width="0.6" width="2.993" height="2.992"/>
	<rect x="539.172" y="149.967" fill="none" stroke="#CDCCCC" stroke-width="0.6" width="2.993" height="2.994"/>
	<rect x="539.172" y="157.878" fill="none" stroke="#CDCCCC" stroke-width="0.6" width="2.993" height="2.993"/>
	<rect x="539.172" y="165.895" fill="none" stroke="#CDCCCC" stroke-width="0.6" width="2.993" height="2.994"/>
	<rect x="539.172" y="173.913" fill="none" stroke="#CDCCCC" stroke-width="0.6" width="2.993" height="2.993"/>
	<g>
		<rect x="328.9" y="142.057" fill="none" stroke="#CDCCCC" stroke-width="0.6" width="2.993" height="2.992"/>
		<rect x="328.9" y="149.967" fill="none" stroke="#CDCCCC" stroke-width="0.6" width="2.993" height="2.994"/>
		<rect x="328.9" y="157.878" fill="none" stroke="#CDCCCC" stroke-width="0.6" width="2.993" height="2.993"/>
		<rect x="328.9" y="165.895" fill="none" stroke="#CDCCCC" stroke-width="0.6" width="2.993" height="2.994"/>
		<rect x="328.9" y="173.913" fill="none" stroke="#CDCCCC" stroke-width="0.6" width="2.993" height="2.993"/>
	</g>
	<g>
		<rect x="336.918" y="142.057" fill="none" stroke="#CDCCCC" stroke-width="0.6" width="2.993" height="2.992"/>
		<rect x="336.918" y="149.967" fill="none" stroke="#CDCCCC" stroke-width="0.6" width="2.993" height="2.994"/>
		<rect x="336.918" y="157.878" fill="none" stroke="#CDCCCC" stroke-width="0.6" width="2.993" height="2.993"/>
		<rect x="336.918" y="165.895" fill="none" stroke="#CDCCCC" stroke-width="0.6" width="2.993" height="2.994"/>
		<rect x="336.918" y="173.913" fill="none" stroke="#CDCCCC" stroke-width="0.6" width="2.993" height="2.993"/>
	</g>
	<g>
		<rect x="345.042" y="142.057" fill="none" stroke="#CDCCCC" stroke-width="0.6" width="2.994" height="2.992"/>
		<rect x="345.042" y="149.967" fill="none" stroke="#CDCCCC" stroke-width="0.6" width="2.994" height="2.994"/>
		<rect x="345.042" y="157.878" fill="none" stroke="#CDCCCC" stroke-width="0.6" width="2.994" height="2.993"/>
		<rect x="345.042" y="165.895" fill="none" stroke="#CDCCCC" stroke-width="0.6" width="2.994" height="2.994"/>
		<rect x="345.042" y="173.913" fill="none" stroke="#CDCCCC" stroke-width="0.6" width="2.994" height="2.993"/>
	</g>
	<g>
		<rect x="353.06" y="142.057" fill="none" stroke="#CDCCCC" stroke-width="0.6" width="2.993" height="2.992"/>
		<rect x="353.06" y="149.967" fill="none" stroke="#CDCCCC" stroke-width="0.6" width="2.993" height="2.994"/>
		<rect x="353.06" y="157.878" fill="none" stroke="#CDCCCC" stroke-width="0.6" width="2.993" height="2.993"/>
		<rect x="353.06" y="165.895" fill="none" stroke="#CDCCCC" stroke-width="0.6" width="2.993" height="2.994"/>
		<rect x="353.06" y="173.913" fill="none" stroke="#CDCCCC" stroke-width="0.6" width="2.993" height="2.993"/>
	</g>
	<g>
		<rect x="304.527" y="142.057" fill="none" stroke="#CDCCCC" stroke-width="0.6" width="2.993" height="2.992"/>
		<rect x="304.527" y="149.967" fill="none" stroke="#CDCCCC" stroke-width="0.6" width="2.993" height="2.994"/>
		<rect x="304.527" y="157.878" fill="none" stroke="#CDCCCC" stroke-width="0.6" width="2.993" height="2.993"/>
		<rect x="304.527" y="165.895" fill="none" stroke="#CDCCCC" stroke-width="0.6" width="2.993" height="2.994"/>
		<rect x="304.527" y="173.913" fill="none" stroke="#CDCCCC" stroke-width="0.6" width="2.993" height="2.993"/>
	</g>
	<g>
		<rect x="312.759" y="142.057" fill="none" stroke="#CDCCCC" stroke-width="0.6" width="2.993" height="2.992"/>
		<rect x="312.759" y="149.967" fill="none" stroke="#CDCCCC" stroke-width="0.6" width="2.993" height="2.994"/>
		<rect x="312.759" y="157.878" fill="none" stroke="#CDCCCC" stroke-width="0.6" width="2.993" height="2.993"/>
		<rect x="312.759" y="165.895" fill="none" stroke="#CDCCCC" stroke-width="0.6" width="2.993" height="2.994"/>
		<rect x="312.759" y="173.913" fill="none" stroke="#CDCCCC" stroke-width="0.6" width="2.993" height="2.993"/>
	</g>
	<g>
		<rect x="320.777" y="142.057" fill="none" stroke="#CDCCCC" stroke-width="0.6" width="2.992" height="2.992"/>
		<rect x="320.777" y="149.967" fill="none" stroke="#CDCCCC" stroke-width="0.6" width="2.992" height="2.994"/>
		<rect x="320.777" y="157.878" fill="none" stroke="#CDCCCC" stroke-width="0.6" width="2.992" height="2.993"/>
		<rect x="320.777" y="165.895" fill="none" stroke="#CDCCCC" stroke-width="0.6" width="2.992" height="2.994"/>
		<rect x="320.777" y="173.913" fill="none" stroke="#CDCCCC" stroke-width="0.6" width="2.992" height="2.993"/>
	</g>
</g>
<g>
	<g>
		<g>
			<rect x="336.384" y="54.827" fill="none" stroke="#CDCCCC" stroke-width="0.6" width="2.993" height="2.993"/>
			<rect x="328.474" y="54.827" fill="none" stroke="#CDCCCC" stroke-width="0.6" width="2.993" height="2.993"/>
			<rect x="320.456" y="54.827" fill="none" stroke="#CDCCCC" stroke-width="0.6" width="2.993" height="2.993"/>
			<rect x="312.546" y="54.827" fill="none" stroke="#CDCCCC" stroke-width="0.6" width="2.993" height="2.993"/>
			<rect x="304.527" y="54.827" fill="none" stroke="#CDCCCC" stroke-width="0.6" width="2.993" height="2.993"/>
		</g>
		<g>
			<rect x="304.527" y="62.737" fill="none" stroke="#CDCCCC" stroke-width="0.6" width="2.993" height="2.994"/>
			<rect x="312.546" y="62.737" fill="none" stroke="#CDCCCC" stroke-width="0.6" width="2.993" height="2.994"/>
			<rect x="320.456" y="62.737" fill="none" stroke="#CDCCCC" stroke-width="0.6" width="2.993" height="2.994"/>
			<rect x="328.474" y="62.737" fill="none" stroke="#CDCCCC" stroke-width="0.6" width="2.993" height="2.994"/>
			<rect x="336.384" y="62.737" fill="none" stroke="#CDCCCC" stroke-width="0.6" width="2.993" height="2.994"/>
		</g>
	</g>
	<g>
		<g>
			<rect x="384.916" y="54.827" fill="none" stroke="#CDCCCC" stroke-width="0.6" width="2.993" height="2.993"/>
			<rect x="377.006" y="54.827" fill="none" stroke="#CDCCCC" stroke-width="0.6" width="2.993" height="2.993"/>
			<rect x="368.988" y="54.827" fill="none" stroke="#CDCCCC" stroke-width="0.6" width="2.992" height="2.993"/>
			<rect x="360.97" y="54.827" fill="none" stroke="#CDCCCC" stroke-width="0.6" width="2.994" height="2.993"/>
			<rect x="353.06" y="54.827" fill="none" stroke="#CDCCCC" stroke-width="0.6" width="2.993" height="2.993"/>
		</g>
		<g>
			<rect x="353.06" y="62.737" fill="none" stroke="#CDCCCC" stroke-width="0.6" width="2.993" height="2.994"/>
			<rect x="360.97" y="62.737" fill="none" stroke="#CDCCCC" stroke-width="0.6" width="2.994" height="2.994"/>
			<rect x="369.096" y="62.737" fill="none" stroke="#CDCCCC" stroke-width="0.6" width="2.993" height="2.994"/>
			<rect x="377.006" y="62.737" fill="none" stroke="#CDCCCC" stroke-width="0.6" width="2.993" height="2.994"/>
			<rect x="384.916" y="62.737" fill="none" stroke="#CDCCCC" stroke-width="0.6" width="2.993" height="2.994"/>
		</g>
	</g>
	<g>
		<g>
			<rect x="433.448" y="54.827" fill="none" stroke="#CDCCCC" stroke-width="0.6" width="2.994" height="2.993"/>
			<rect x="425.538" y="54.827" fill="none" stroke="#CDCCCC" stroke-width="0.6" width="2.993" height="2.993"/>
			<rect x="417.628" y="54.827" fill="none" stroke="#CDCCCC" stroke-width="0.6" width="2.993" height="2.993"/>
			<rect x="409.609" y="54.827" fill="none" stroke="#CDCCCC" stroke-width="0.6" width="2.993" height="2.993"/>
			<rect x="401.593" y="54.827" fill="none" stroke="#CDCCCC" stroke-width="0.6" width="2.993" height="2.993"/>
		</g>
		<g>
			<rect x="401.593" y="62.737" fill="none" stroke="#CDCCCC" stroke-width="0.6" width="2.993" height="2.994"/>
			<rect x="409.609" y="62.737" fill="none" stroke="#CDCCCC" stroke-width="0.6" width="2.993" height="2.994"/>
			<rect x="417.628" y="62.737" fill="none" stroke="#CDCCCC" stroke-width="0.6" width="2.993" height="2.994"/>
			<rect x="425.538" y="62.737" fill="none" stroke="#CDCCCC" stroke-width="0.6" width="2.993" height="2.994"/>
			<rect x="433.448" y="62.737" fill="none" stroke="#CDCCCC" stroke-width="0.6" width="2.994" height="2.994"/>
		</g>
	</g>
	<g>
		<g>
			<rect x="481.981" y="54.827" fill="none" stroke="#CDCCCC" stroke-width="0.6" width="2.993" height="2.993"/>
			<rect x="474.07" y="54.827" fill="none" stroke="#CDCCCC" stroke-width="0.6" width="2.994" height="2.993"/>
			<rect x="466.053" y="54.827" fill="none" stroke="#CDCCCC" stroke-width="0.6" width="2.993" height="2.993"/>
			<rect x="458.142" y="54.827" fill="none" stroke="#CDCCCC" stroke-width="0.6" width="2.994" height="2.993"/>
			<rect x="450.125" y="54.827" fill="none" stroke="#CDCCCC" stroke-width="0.6" width="2.993" height="2.993"/>
		</g>
		<g>
			<rect x="450.125" y="62.737" fill="none" stroke="#CDCCCC" stroke-width="0.6" width="2.993" height="2.994"/>
			<rect x="458.142" y="62.737" fill="none" stroke="#CDCCCC" stroke-width="0.6" width="2.994" height="2.994"/>
			<rect x="466.053" y="62.737" fill="none" stroke="#CDCCCC" stroke-width="0.6" width="2.993" height="2.994"/>
			<rect x="474.07" y="62.737" fill="none" stroke="#CDCCCC" stroke-width="0.6" width="2.994" height="2.994"/>
			<rect x="481.981" y="62.737" fill="none" stroke="#CDCCCC" stroke-width="0.6" width="2.993" height="2.994"/>
		</g>
	</g>
	<g>
		<g>
			<rect x="530.514" y="54.827" fill="none" stroke="#CDCCCC" stroke-width="0.6" width="2.992" height="2.993"/>
			<rect x="522.496" y="54.827" fill="none" stroke="#CDCCCC" stroke-width="0.6" width="2.993" height="2.993"/>
			<rect x="514.585" y="54.827" fill="none" stroke="#CDCCCC" stroke-width="0.6" width="2.993" height="2.993"/>
			<rect x="506.675" y="54.827" fill="none" stroke="#CDCCCC" stroke-width="0.6" width="2.993" height="2.993"/>
			<rect x="498.764" y="54.827" fill="none" stroke="#CDCCCC" stroke-width="0.6" width="2.994" height="2.993"/>
		</g>
		<g>
			<rect x="498.764" y="62.737" fill="none" stroke="#CDCCCC" stroke-width="0.6" width="2.994" height="2.994"/>
			<rect x="506.675" y="62.737" fill="none" stroke="#CDCCCC" stroke-width="0.6" width="2.993" height="2.994"/>
			<rect x="514.585" y="62.737" fill="none" stroke="#CDCCCC" stroke-width="0.6" width="2.993" height="2.994"/>
			<rect x="522.496" y="62.737" fill="none" stroke="#CDCCCC" stroke-width="0.6" width="2.993" height="2.994"/>
			<rect x="530.514" y="62.737" fill="none" stroke="#CDCCCC" stroke-width="0.6" width="2.992" height="2.994"/>
		</g>
	</g>
</g>
<g>
	<g>
		<g>
			<rect x="336.384" y="199.462" fill="none" stroke="#CDCCCC" stroke-width="0.6" width="2.993" height="2.993"/>
			<rect x="328.474" y="199.462" fill="none" stroke="#CDCCCC" stroke-width="0.6" width="2.993" height="2.993"/>
			<rect x="320.456" y="199.462" fill="none" stroke="#CDCCCC" stroke-width="0.6" width="2.993" height="2.993"/>
			<rect x="312.546" y="199.462" fill="none" stroke="#CDCCCC" stroke-width="0.6" width="2.993" height="2.993"/>
			<rect x="304.527" y="199.462" fill="none" stroke="#CDCCCC" stroke-width="0.6" width="2.993" height="2.993"/>
		</g>
		<g>
			<rect x="304.527" y="207.479" fill="none" stroke="#CDCCCC" stroke-width="0.6" width="2.993" height="2.994"/>
			<rect x="312.546" y="207.479" fill="none" stroke="#CDCCCC" stroke-width="0.6" width="2.993" height="2.994"/>
			<rect x="320.456" y="207.479" fill="none" stroke="#CDCCCC" stroke-width="0.6" width="2.993" height="2.994"/>
			<rect x="328.474" y="207.479" fill="none" stroke="#CDCCCC" stroke-width="0.6" width="2.993" height="2.994"/>
			<rect x="336.384" y="207.479" fill="none" stroke="#CDCCCC" stroke-width="0.6" width="2.993" height="2.994"/>
		</g>
	</g>
	<g>
		<g>
			<rect x="384.916" y="199.462" fill="none" stroke="#CDCCCC" stroke-width="0.6" width="2.993" height="2.993"/>
			<rect x="377.006" y="199.462" fill="none" stroke="#CDCCCC" stroke-width="0.6" width="2.993" height="2.993"/>
			<rect x="368.988" y="199.462" fill="none" stroke="#CDCCCC" stroke-width="0.6" width="2.992" height="2.993"/>
			<rect x="360.97" y="199.462" fill="none" stroke="#CDCCCC" stroke-width="0.6" width="2.994" height="2.993"/>
			<rect x="353.06" y="199.462" fill="none" stroke="#CDCCCC" stroke-width="0.6" width="2.993" height="2.993"/>
		</g>
		<g>
			<rect x="353.06" y="207.479" fill="none" stroke="#CDCCCC" stroke-width="0.6" width="2.993" height="2.994"/>
			<rect x="360.97" y="207.479" fill="none" stroke="#CDCCCC" stroke-width="0.6" width="2.994" height="2.994"/>
			<rect x="369.096" y="207.479" fill="none" stroke="#CDCCCC" stroke-width="0.6" width="2.993" height="2.994"/>
			<rect x="377.006" y="207.479" fill="none" stroke="#CDCCCC" stroke-width="0.6" width="2.993" height="2.994"/>
			<rect x="384.916" y="207.479" fill="none" stroke="#CDCCCC" stroke-width="0.6" width="2.993" height="2.994"/>
		</g>
	</g>
	<g>
		<g>
			<rect x="433.448" y="199.462" fill="none" stroke="#CDCCCC" stroke-width="0.6" width="2.994" height="2.993"/>
			<rect x="425.538" y="199.462" fill="none" stroke="#CDCCCC" stroke-width="0.6" width="2.993" height="2.993"/>
			<rect x="417.628" y="199.462" fill="none" stroke="#CDCCCC" stroke-width="0.6" width="2.993" height="2.993"/>
			<rect x="409.609" y="199.462" fill="none" stroke="#CDCCCC" stroke-width="0.6" width="2.993" height="2.993"/>
			<rect x="401.593" y="199.462" fill="none" stroke="#CDCCCC" stroke-width="0.6" width="2.993" height="2.993"/>
		</g>
		<g>
			<rect x="401.593" y="207.479" fill="none" stroke="#CDCCCC" stroke-width="0.6" width="2.993" height="2.994"/>
			<rect x="409.609" y="207.479" fill="none" stroke="#CDCCCC" stroke-width="0.6" width="2.993" height="2.994"/>
			<rect x="417.628" y="207.479" fill="none" stroke="#CDCCCC" stroke-width="0.6" width="2.993" height="2.994"/>
			<rect x="425.538" y="207.479" fill="none" stroke="#CDCCCC" stroke-width="0.6" width="2.993" height="2.994"/>
			<rect x="433.448" y="207.479" fill="none" stroke="#CDCCCC" stroke-width="0.6" width="2.994" height="2.994"/>
		</g>
	</g>
	<g>
		<g>
			<rect x="481.981" y="199.462" fill="none" stroke="#CDCCCC" stroke-width="0.6" width="2.993" height="2.993"/>
			<rect x="474.07" y="199.462" fill="none" stroke="#CDCCCC" stroke-width="0.6" width="2.994" height="2.993"/>
			<rect x="466.053" y="199.462" fill="none" stroke="#CDCCCC" stroke-width="0.6" width="2.993" height="2.993"/>
			<rect x="458.142" y="199.462" fill="none" stroke="#CDCCCC" stroke-width="0.6" width="2.994" height="2.993"/>
			<rect x="450.125" y="199.462" fill="none" stroke="#CDCCCC" stroke-width="0.6" width="2.993" height="2.993"/>
		</g>
		<g>
			<rect x="450.125" y="207.479" fill="none" stroke="#CDCCCC" stroke-width="0.6" width="2.993" height="2.994"/>
			<rect x="458.142" y="207.479" fill="none" stroke="#CDCCCC" stroke-width="0.6" width="2.994" height="2.994"/>
			<rect x="466.053" y="207.479" fill="none" stroke="#CDCCCC" stroke-width="0.6" width="2.993" height="2.994"/>
			<rect x="474.07" y="207.479" fill="none" stroke="#CDCCCC" stroke-width="0.6" width="2.994" height="2.994"/>
			<rect x="481.981" y="207.479" fill="none" stroke="#CDCCCC" stroke-width="0.6" width="2.993" height="2.994"/>
		</g>
	</g>
	<g>
		<g>
			<rect x="530.514" y="199.462" fill="none" stroke="#CDCCCC" stroke-width="0.6" width="2.992" height="2.993"/>
			<rect x="522.496" y="199.462" fill="none" stroke="#CDCCCC" stroke-width="0.6" width="2.993" height="2.993"/>
			<rect x="514.585" y="199.462" fill="none" stroke="#CDCCCC" stroke-width="0.6" width="2.993" height="2.993"/>
			<rect x="506.675" y="199.462" fill="none" stroke="#CDCCCC" stroke-width="0.6" width="2.993" height="2.993"/>
			<rect x="498.764" y="199.462" fill="none" stroke="#CDCCCC" stroke-width="0.6" width="2.994" height="2.993"/>
		</g>
		<g>
			<rect x="498.764" y="207.479" fill="none" stroke="#CDCCCC" stroke-width="0.6" width="2.994" height="2.994"/>
			<rect x="506.675" y="207.479" fill="none" stroke="#CDCCCC" stroke-width="0.6" width="2.993" height="2.994"/>
			<rect x="514.585" y="207.479" fill="none" stroke="#CDCCCC" stroke-width="0.6" width="2.993" height="2.994"/>
			<rect x="522.496" y="207.479" fill="none" stroke="#CDCCCC" stroke-width="0.6" width="2.993" height="2.994"/>
			<rect x="530.514" y="207.479" fill="none" stroke="#CDCCCC" stroke-width="0.6" width="2.992" height="2.994"/>
		</g>
	</g>
</g>
<rect x="287.104" y="46.703" fill="none" stroke="#CDCCCC" stroke-width="0.6" width="272.059" height="169.757"/>
<g enable-background="new    ">
	<path fill="#010101" d="M374.122,16.112v2.125h-0.909v-2.125h-2.009v-0.793h2.009v-2.115h0.909v2.115h2.01v0.793H374.122z"/>
	<path fill="#010101" d="M377.975,20.913c-0.274,0-0.539-0.021-0.782-0.053l0.085-0.877c0.211,0.053,0.497,0.084,0.761,0.084
		c1.301,0,1.978-0.667,1.978-1.544S379.308,17,378.007,17c-0.201,0-0.392,0-0.603,0.01v-3.648h3.373v0.931h-2.464v1.893
		c1.776,0,2.738,0.931,2.738,2.189C381.052,19.845,379.741,20.913,377.975,20.913z"/>
	<path fill="#010101" d="M388.013,12.411l-2.358,6.45h-1.089l-2.295-6.45c-0.2-0.011-0.465-0.063-0.645-0.117v-0.571h2.559v0.571
		c-0.254,0.053-0.561,0.106-0.846,0.127l1.322,3.892c0.147,0.412,0.327,0.962,0.476,1.48h0.011c0.127-0.486,0.307-1.005,0.486-1.555
		l1.374-3.817c-0.285-0.021-0.581-0.074-0.835-0.127v-0.571h2.475v0.571C388.479,12.348,388.203,12.4,388.013,12.411z"/>
</g>
<g enable-background="new    ">
	<path fill="#010101" d="M476.688,15.932v2.612c-0.709,0.265-1.576,0.413-2.358,0.413c-2.157,0-3.542-1.311-3.542-3.521
		c0-2.199,1.385-3.807,3.807-3.807c0.677,0,1.321,0.095,1.956,0.254v1.681h-0.698c-0.063-0.349-0.105-0.655-0.137-0.941
		c-0.392-0.106-0.814-0.159-1.206-0.159c-1.512,0-2.686,0.941-2.686,2.855c0,1.776,1.036,2.792,2.644,2.792
		c0.476,0,0.878-0.074,1.258-0.19v-1.988c-0.317-0.021-0.645-0.074-0.909-0.137v-0.571h2.569v0.582
		C477.163,15.858,476.931,15.9,476.688,15.932z"/>
	<path fill="#010101" d="M481.608,14.452c-1.205-0.201-1.744,0.613-1.744,2.295v1.406c0.316,0.021,0.645,0.074,0.92,0.138v0.571
		h-2.792v-0.571c0.275-0.063,0.603-0.117,0.92-0.138v-3.796c-0.254-0.042-0.613-0.084-0.92-0.105V13.68
		c0.528-0.063,1.259-0.105,1.84-0.074c0,0.328-0.031,0.814-0.105,1.248h0.011c0.232-0.729,0.761-1.459,1.914-1.343L481.608,14.452z"
		/>
	<path fill="#010101" d="M484.625,18.957c-1.438,0-2.358-0.825-2.358-2.644c0-1.576,0.973-2.802,2.559-2.802
		c1.333,0,2.358,0.729,2.358,2.644C487.184,17.73,486.211,18.957,484.625,18.957z M484.741,14.304c-0.772,0-1.491,0.582-1.491,1.935
		c0,1.216,0.508,1.914,1.48,1.914c0.782,0,1.47-0.613,1.47-1.924C486.2,15.001,485.692,14.304,484.741,14.304z"/>
	<path fill="#010101" d="M492.073,18.861c0-0.317,0.021-0.783,0.073-1.11h-0.021c-0.307,0.719-0.952,1.206-1.851,1.206
		c-1.206,0-1.576-0.751-1.576-1.681v-2.919c-0.253-0.042-0.603-0.084-0.888-0.105V13.68c0.497-0.063,1.216-0.105,1.829-0.074v3.384
		c0,0.74,0.212,1.184,0.899,1.184c0.866,0,1.501-0.888,1.501-2.051v-1.776c-0.243-0.032-0.571-0.074-0.856-0.095V13.68
		c0.519-0.063,1.216-0.105,1.798-0.074v4.504c0.254,0.042,0.603,0.085,0.888,0.106v0.571
		C493.374,18.851,492.644,18.893,492.073,18.861z"/>
	<path fill="#010101" d="M498.633,18.861v-3.384c0-0.74-0.201-1.184-0.889-1.184c-0.867,0-1.501,0.888-1.501,2.051v1.808
		c0.285,0.021,0.592,0.063,0.846,0.138v0.571h-2.718v-0.571c0.275-0.063,0.603-0.117,0.92-0.138v-3.796
		c-0.254-0.042-0.613-0.084-0.92-0.105V13.68c0.528-0.063,1.259-0.105,1.84-0.074c0,0.307-0.021,0.793-0.074,1.11h0.011
		c0.307-0.719,0.963-1.206,1.861-1.206c1.194,0,1.575,0.751,1.575,1.681v2.961c0.307,0.021,0.624,0.074,0.878,0.138v0.571H498.633z"
		/>
	<path fill="#010101" d="M504.728,18.861c0-0.296,0.021-0.761,0.084-1.068l-0.021-0.011c-0.296,0.708-0.941,1.174-1.767,1.174
		c-1.29,0-1.935-0.941-1.935-2.475c0-1.84,1.058-2.95,2.718-2.95c0.285,0,0.57,0.021,0.888,0.053v-1.692
		c-0.254-0.042-0.613-0.085-0.92-0.106v-0.571c0.529-0.063,1.259-0.106,1.872-0.074v6.968c0.254,0.042,0.603,0.085,0.888,0.106
		v0.571C506.039,18.851,505.309,18.893,504.728,18.861z M504.695,14.399c-0.317-0.074-0.634-0.116-0.931-0.116
		c-1.004,0-1.67,0.603-1.67,2.115c0,1.131,0.37,1.776,1.163,1.776c0.951,0,1.438-1.11,1.438-2.03V14.399z"/>
</g>
<g>
	<g enable-background="new    ">
		<path fill="#010101" d="M269.223,18.904c-0.719,0-1.406-0.042-1.798-0.042h-0.92v-0.571c0.275-0.063,0.603-0.117,0.92-0.138
			v-5.721c-0.317-0.021-0.645-0.074-0.92-0.138v-0.571h0.899c0.561,0,1.375-0.032,2.146-0.032c2.295,0,3.659,1.068,3.659,3.521
			C273.209,17.656,271.56,18.904,269.223,18.904z M269.466,12.485c-0.381,0-0.804,0.021-1.079,0.032v5.499
			c0.275,0.042,0.656,0.063,0.952,0.063c1.682,0,2.845-0.867,2.845-2.802C272.184,13.458,271.316,12.485,269.466,12.485z"/>
		<path fill="#010101" d="M274.007,18.861v-0.571c0.275-0.063,0.603-0.117,0.92-0.138v-3.796c-0.254-0.042-0.613-0.084-0.92-0.105
			V13.68c0.529-0.063,1.258-0.105,1.872-0.074v4.547c0.307,0.021,0.624,0.074,0.888,0.138v0.571H274.007z M275.413,12.559
			c-0.349,0-0.634-0.265-0.634-0.613c0-0.349,0.286-0.624,0.634-0.624c0.338,0,0.624,0.275,0.624,0.624
			C276.037,12.284,275.751,12.559,275.413,12.559z"/>
		<path fill="#010101" d="M279.592,21.568c-1.354,0-2.21-0.561-2.21-1.576c0-0.613,0.402-1.131,0.878-1.396
			c-0.317-0.138-0.518-0.434-0.518-0.783c0-0.37,0.232-0.719,0.582-0.888c-0.476-0.286-0.772-0.761-0.772-1.449
			c0-1.058,0.793-1.967,2.231-1.967c0.286,0,0.476,0.032,0.74,0.095h1.787v0.75h-0.867c0.265,0.212,0.423,0.561,0.423,0.973
			c0,1.079-0.729,1.903-2.22,1.903c-0.211,0-0.37-0.021-0.561-0.074c-0.222,0.106-0.338,0.275-0.338,0.444
			c0,0.296,0.264,0.391,0.899,0.412l0.962,0.032c1.132,0.042,1.766,0.571,1.766,1.523C282.373,20.68,281.242,21.568,279.592,21.568z
			 M280.332,18.84l-1.015-0.042c-0.095,0-0.222,0-0.307-0.011c-0.412,0.286-0.677,0.635-0.677,1.037
			c0,0.624,0.592,0.994,1.417,0.994c1.068,0,1.66-0.486,1.66-1.131C281.411,19.179,281.072,18.861,280.332,18.84z M279.74,14.219
			c-0.793,0-1.248,0.507-1.248,1.174c0,0.729,0.434,1.152,1.216,1.152c0.75,0,1.216-0.423,1.216-1.152
			C280.924,14.674,280.501,14.219,279.74,14.219z"/>
		<path fill="#010101" d="M282.99,18.861v-0.571c0.275-0.063,0.603-0.117,0.92-0.138v-3.796c-0.254-0.042-0.613-0.084-0.92-0.105
			V13.68c0.529-0.063,1.258-0.105,1.872-0.074v4.547c0.307,0.021,0.624,0.074,0.888,0.138v0.571H282.99z M284.396,12.559
			c-0.349,0-0.634-0.265-0.634-0.613c0-0.349,0.286-0.624,0.634-0.624c0.338,0,0.624,0.275,0.624,0.624
			C285.02,12.284,284.734,12.559,284.396,12.559z"/>
		<path fill="#010101" d="M288.395,18.946c-1.079,0-1.406-0.444-1.406-1.576v-3.024h-1.079v-0.74h1.079v-1.703l0.952-0.264v1.967
			h1.47v0.74h-1.47v2.686c0,0.867,0.169,1.1,0.751,1.1c0.243,0,0.476-0.032,0.666-0.085l0.095,0.783
			C289.146,18.904,288.733,18.946,288.395,18.946z"/>
		<path fill="#010101" d="M293.473,18.861c0-0.37,0.01-0.751,0.063-1.047h-0.021c-0.253,0.645-0.92,1.142-1.787,1.142
			c-0.867,0-1.459-0.54-1.459-1.385c0-1.131,1.174-1.798,3.151-1.798v-0.391c0-0.74-0.264-1.152-1.1-1.152
			c-0.317,0-0.687,0.053-0.983,0.148c-0.021,0.264-0.074,0.561-0.127,0.856h-0.592v-1.438c0.528-0.169,1.163-0.296,1.787-0.296
			c1.544,0,1.978,0.708,1.978,1.755v2.855c0.254,0.042,0.603,0.085,0.888,0.106v0.571C294.773,18.851,294.044,18.893,293.473,18.861
			z M293.42,16.429c-1.649,0-2.22,0.413-2.22,0.994c0,0.455,0.317,0.782,0.803,0.782c0.846,0,1.417-0.835,1.417-1.66V16.429z"/>
		<path fill="#010101" d="M295.644,18.861v-0.571c0.264-0.063,0.582-0.117,0.888-0.138v-6.26c-0.254-0.042-0.603-0.085-0.909-0.106
			v-0.571c0.539-0.063,1.248-0.106,1.861-0.074v7.011c0.307,0.021,0.624,0.074,0.888,0.138v0.571H295.644z"/>
		<path fill="#010101" d="M301.167,18.861v-0.571c0.275-0.063,0.603-0.117,0.92-0.138v-5.721c-0.317-0.021-0.645-0.074-0.92-0.138
			v-0.571h2.802v0.571c-0.275,0.063-0.603,0.117-0.92,0.138v5.721c0.317,0.021,0.645,0.074,0.92,0.138v0.571H301.167z"/>
		<path fill="#010101" d="M305.208,20.564h-0.909L308,10.856h0.909L305.208,20.564z"/>
		<path fill="#010101" d="M312.528,18.967c-2.104,0-3.183-1.428-3.183-3.585c0-2.39,1.522-3.765,3.384-3.765
			c2.094,0,3.183,1.428,3.183,3.585C315.912,17.592,314.379,18.967,312.528,18.967z M312.634,12.475
			c-1.279,0-2.272,0.973-2.272,2.76c0,1.713,0.75,2.876,2.263,2.876c1.269,0,2.263-0.973,2.263-2.76
			C314.887,13.638,314.136,12.475,312.634,12.475z"/>
		<path fill="#010101" d="M321.596,16.408c-0.296,0-0.56-0.021-0.75-0.042v1.787c0.316,0.021,0.645,0.074,0.92,0.138v0.571h-2.803
			v-0.571c0.275-0.063,0.603-0.117,0.92-0.138v-5.721c-0.317-0.021-0.645-0.074-0.92-0.138v-0.571h0.92
			c0.317,0,1.185-0.042,1.851-0.042c1.925,0,2.718,1.015,2.718,2.231C324.451,15.361,323.341,16.408,321.596,16.408z
			 M321.628,12.475c-0.275,0-0.571,0-0.782,0.021v3.056c0.19,0.032,0.486,0.063,0.835,0.063c1.195,0,1.766-0.708,1.766-1.576
			C323.446,13.247,323.013,12.475,321.628,12.475z"/>
		<path fill="#010101" d="M325.016,18.861v-0.571c0.275-0.063,0.603-0.117,0.92-0.138v-3.796c-0.254-0.042-0.613-0.084-0.92-0.105
			V13.68c0.528-0.063,1.259-0.105,1.872-0.074v4.547c0.307,0.021,0.623,0.074,0.888,0.138v0.571H325.016z M326.422,12.559
			c-0.349,0-0.635-0.265-0.635-0.613c0-0.349,0.286-0.624,0.635-0.624c0.339,0,0.624,0.275,0.624,0.624
			C327.046,12.284,326.761,12.559,326.422,12.559z"/>
		<path fill="#010101" d="M332.536,18.861v-3.384c0-0.74-0.201-1.184-0.889-1.184c-0.867,0-1.501,0.888-1.501,2.051v1.808
			c0.285,0.021,0.592,0.063,0.846,0.138v0.571h-2.718v-0.571c0.275-0.063,0.603-0.117,0.92-0.138v-3.796
			c-0.254-0.042-0.613-0.084-0.92-0.105V13.68c0.528-0.063,1.259-0.105,1.84-0.074c0,0.307-0.021,0.793-0.074,1.11h0.011
			c0.307-0.719,0.962-1.206,1.861-1.206c1.194,0,1.575,0.751,1.575,1.681v2.961c0.307,0.021,0.624,0.074,0.878,0.138v0.571H332.536z
			"/>
		<path fill="#010101" d="M341.232,18.861v1.29c0.307,0.021,0.624,0.074,0.889,0.148v0.54h-2.761v-0.54
			c0.275-0.074,0.604-0.127,0.92-0.148v-1.29h-3.108l-0.158-0.783l2.981-4.716h1.237v4.642h1.227v0.856H341.232z M340.291,14.293
			h-0.011l-2.337,3.722c0.604-0.01,1.978-0.01,2.348-0.01V14.293z"/>
	</g>
</g>
<line fill="none" stroke="#61696A" stroke-width="1.1809" x1="501.223" y1="151.571" x2="475.994" y2="151.571"/>
<line fill="none" stroke="#010101" stroke-width="1.2" stroke-linecap="round" x1="427.676" y1="151.571" x2="451.193" y2="151.571"/>
<rect x="450.98" y="148.257" fill="#CDCCCC" width="25.229" height="6.841"/>
<rect x="453.332" y="148.151" fill="#818181" width="3.421" height="7.055"/>
<rect x="458.25" y="148.151" fill="#010101" width="3.42" height="7.055"/>
<rect x="463.167" y="148.151" fill="#9A9A9A" width="3.421" height="7.055"/>
<rect x="469.795" y="148.151" fill="#B4B4B4" width="3.421" height="7.055"/>
<path fill="none" stroke="#221F1F" stroke-width="1.8088" d="M500.368,143.447"/>
<rect x="418.375" y="118.432" fill="#ABABAB" stroke="#221F1F" stroke-width="0.5904" width="2.993" height="3.101"/>
<rect x="425.538" y="118.432" fill="#ABABAB" stroke="#221F1F" stroke-width="0.5904" width="2.993" height="3.101"/>
<rect x="418.375" y="142.377" fill="#ABABAB" stroke="#221F1F" stroke-width="0.5904" width="2.993" height="3.1"/>
<rect x="425.538" y="142.377" fill="#ABABAB" stroke="#221F1F" stroke-width="0.5904" width="2.993" height="3.1"/>
<rect x="413.03" y="121.639" fill="#CDCCCC" stroke="#221F1F" stroke-width="0.5904" width="21.38" height="20.952"/>
<circle fill="#FFFFFF" stroke="#221F1F" stroke-width="0.5904" cx="423.721" cy="132.115" r="7.162"/>
<circle fill="#010101" cx="423.721" cy="132.115" r="5.452"/>
<g enable-background="new    ">
	<path fill="#010101" d="M24.014,95.499c-0.719,0-1.406-0.042-1.798-0.042h-0.92v-0.571c0.275-0.063,0.603-0.117,0.92-0.138v-5.721
		c-0.317-0.021-0.645-0.074-0.92-0.138v-0.571h0.899c0.561,0,1.375-0.032,2.146-0.032c2.295,0,3.659,1.068,3.659,3.521
		C28,94.25,26.351,95.499,24.014,95.499z M24.257,89.08c-0.381,0-0.804,0.021-1.079,0.032v5.499
		c0.275,0.042,0.656,0.063,0.952,0.063c1.682,0,2.845-0.867,2.845-2.802C26.975,90.053,26.107,89.08,24.257,89.08z"/>
	<path fill="#010101" d="M28.798,95.456v-0.571c0.275-0.063,0.603-0.117,0.92-0.138v-3.796c-0.254-0.042-0.613-0.084-0.92-0.105
		v-0.571c0.529-0.063,1.258-0.105,1.872-0.074v4.547c0.307,0.021,0.624,0.074,0.888,0.138v0.571H28.798z M30.204,89.154
		c-0.349,0-0.634-0.265-0.634-0.613c0-0.349,0.286-0.624,0.634-0.624c0.338,0,0.624,0.275,0.624,0.624
		C30.828,88.879,30.542,89.154,30.204,89.154z"/>
	<path fill="#010101" d="M34.383,98.163c-1.354,0-2.21-0.561-2.21-1.576c0-0.613,0.402-1.131,0.878-1.396
		c-0.317-0.138-0.518-0.434-0.518-0.783c0-0.37,0.232-0.719,0.582-0.888c-0.476-0.286-0.772-0.761-0.772-1.449
		c0-1.058,0.793-1.967,2.231-1.967c0.286,0,0.476,0.032,0.74,0.095h1.787v0.75h-0.867c0.265,0.212,0.423,0.561,0.423,0.973
		c0,1.079-0.729,1.903-2.22,1.903c-0.211,0-0.37-0.021-0.561-0.074c-0.222,0.106-0.338,0.275-0.338,0.444
		c0,0.296,0.264,0.391,0.899,0.412l0.962,0.032c1.132,0.042,1.766,0.571,1.766,1.523C37.164,97.275,36.033,98.163,34.383,98.163z
		 M35.123,95.435l-1.015-0.042c-0.095,0-0.222,0-0.307-0.011c-0.412,0.286-0.677,0.635-0.677,1.037c0,0.624,0.592,0.994,1.417,0.994
		c1.068,0,1.66-0.486,1.66-1.131C36.202,95.773,35.863,95.456,35.123,95.435z M34.531,90.814c-0.793,0-1.248,0.507-1.248,1.174
		c0,0.729,0.434,1.152,1.216,1.152c0.75,0,1.216-0.423,1.216-1.152C35.715,91.269,35.292,90.814,34.531,90.814z"/>
	<path fill="#010101" d="M37.781,95.456v-0.571c0.275-0.063,0.603-0.117,0.92-0.138v-3.796c-0.254-0.042-0.613-0.084-0.92-0.105
		v-0.571c0.529-0.063,1.258-0.105,1.872-0.074v4.547c0.307,0.021,0.624,0.074,0.888,0.138v0.571H37.781z M39.187,89.154
		c-0.349,0-0.634-0.265-0.634-0.613c0-0.349,0.286-0.624,0.634-0.624c0.338,0,0.624,0.275,0.624,0.624
		C39.811,88.879,39.525,89.154,39.187,89.154z"/>
	<path fill="#010101" d="M43.186,95.541c-1.079,0-1.406-0.444-1.406-1.576v-3.024h-1.079v-0.74h1.079v-1.703l0.952-0.264v1.967h1.47
		v0.74h-1.47v2.686c0,0.867,0.169,1.1,0.751,1.1c0.243,0,0.476-0.032,0.666-0.085l0.095,0.783
		C43.937,95.499,43.524,95.541,43.186,95.541z"/>
	<path fill="#010101" d="M48.264,95.456c0-0.37,0.01-0.751,0.063-1.047h-0.021c-0.253,0.645-0.92,1.142-1.787,1.142
		c-0.867,0-1.459-0.54-1.459-1.385c0-1.131,1.174-1.798,3.151-1.798v-0.391c0-0.74-0.264-1.152-1.1-1.152
		c-0.317,0-0.687,0.053-0.983,0.148c-0.021,0.264-0.074,0.561-0.127,0.856h-0.592v-1.438c0.528-0.169,1.163-0.296,1.787-0.296
		c1.544,0,1.978,0.708,1.978,1.755v2.855c0.254,0.042,0.603,0.085,0.888,0.106v0.571C49.564,95.445,48.835,95.488,48.264,95.456z
		 M48.211,93.024c-1.649,0-2.22,0.413-2.22,0.994c0,0.455,0.317,0.782,0.803,0.782c0.846,0,1.417-0.835,1.417-1.66V93.024z"/>
	<path fill="#010101" d="M50.435,95.456v-0.571c0.264-0.063,0.582-0.117,0.888-0.138v-6.26c-0.254-0.042-0.603-0.085-0.909-0.106
		v-0.571c0.539-0.063,1.248-0.106,1.861-0.074v7.011c0.307,0.021,0.624,0.074,0.888,0.138v0.571H50.435z"/>
	<path fill="#010101" d="M55.958,95.456v-0.571c0.275-0.063,0.603-0.117,0.92-0.138v-5.721c-0.317-0.021-0.645-0.074-0.92-0.138
		v-0.571h2.802v0.571c-0.275,0.063-0.603,0.117-0.92,0.138v5.721c0.317,0.021,0.645,0.074,0.92,0.138v0.571H55.958z"/>
	<path fill="#010101" d="M59.999,97.159H59.09l3.701-9.708H63.7L59.999,97.159z"/>
	<path fill="#010101" d="M67.319,95.562c-2.104,0-3.183-1.428-3.183-3.585c0-2.39,1.522-3.765,3.384-3.765
		c2.094,0,3.183,1.428,3.183,3.585C70.703,94.187,69.17,95.562,67.319,95.562z M67.425,89.069c-1.28,0-2.273,0.973-2.273,2.76
		c0,1.713,0.75,2.876,2.263,2.876c1.269,0,2.263-0.973,2.263-2.76C69.677,90.232,68.927,89.069,67.425,89.069z"/>
	<path fill="#010101" d="M76.387,93.003c-0.296,0-0.561-0.021-0.751-0.042v1.787c0.317,0.021,0.645,0.074,0.92,0.138v0.571h-2.802
		v-0.571c0.275-0.063,0.603-0.117,0.92-0.138v-5.721c-0.317-0.021-0.645-0.074-0.92-0.138v-0.571h0.92
		c0.317,0,1.185-0.042,1.851-0.042c1.925,0,2.718,1.015,2.718,2.231C79.242,91.956,78.132,93.003,76.387,93.003z M76.419,89.069
		c-0.275,0-0.571,0-0.783,0.021v3.056c0.19,0.032,0.486,0.063,0.835,0.063c1.195,0,1.766-0.708,1.766-1.576
		C78.238,89.841,77.804,89.069,76.419,89.069z"/>
	<path fill="#010101" d="M79.806,95.456v-0.571c0.275-0.063,0.603-0.117,0.92-0.138v-3.796c-0.254-0.042-0.613-0.084-0.92-0.105
		v-0.571c0.529-0.063,1.258-0.105,1.872-0.074v4.547c0.307,0.021,0.624,0.074,0.888,0.138v0.571H79.806z M81.212,89.154
		c-0.349,0-0.634-0.265-0.634-0.613c0-0.349,0.286-0.624,0.634-0.624c0.338,0,0.624,0.275,0.624,0.624
		C81.836,88.879,81.551,89.154,81.212,89.154z"/>
	<path fill="#010101" d="M87.326,95.456v-3.384c0-0.74-0.201-1.184-0.888-1.184c-0.867,0-1.501,0.888-1.501,2.051v1.808
		c0.286,0.021,0.592,0.063,0.846,0.138v0.571h-2.718v-0.571c0.275-0.063,0.603-0.117,0.92-0.138v-3.796
		c-0.254-0.042-0.613-0.084-0.92-0.105v-0.571c0.529-0.063,1.258-0.105,1.84-0.074c0,0.307-0.021,0.793-0.074,1.11h0.01
		c0.307-0.719,0.962-1.206,1.861-1.206c1.195,0,1.576,0.751,1.576,1.681v2.961c0.307,0.021,0.624,0.074,0.877,0.138v0.571H87.326z"
		/>
	<path fill="#010101" d="M96.023,95.456v1.29c0.307,0.021,0.624,0.074,0.888,0.148v0.54h-2.76v-0.54
		c0.275-0.074,0.603-0.127,0.92-0.148v-1.29h-3.109l-0.159-0.783l2.982-4.716h1.237V94.6h1.227v0.856H96.023z M95.083,90.888h-0.011
		l-2.337,3.722c0.603-0.01,1.978-0.01,2.348-0.01V90.888z"/>
</g>
<circle fill="none" stroke="#010101" stroke-width="0.6" cx="152.837" cy="63.272" r="3.421"/>
<circle fill="none" stroke="#010101" stroke-width="0.6" cx="152.837" cy="82.941" r="3.42"/>
<line fill="none" stroke="#010101" stroke-width="0.6" x1="153.158" y1="28.958" x2="153.158" y2="59.851"/>
<polyline fill="none" stroke="#010101" stroke-width="0.6" points="58.552,116.616 152.73,116.616 152.73,86.362 "/>
<polyline fill="none" stroke="#010101" stroke-width="0.6" points="164.489,57.606 164.489,72.144 164.489,87.966 "/>
<path fill="none" stroke="#010101" stroke-width="0.6" d="M182.662,71.182"/>
<line fill="none" stroke="#010101" stroke-width="0.6" x1="182.662" y1="72.572" x2="164.489" y2="72.572"/>
<polyline fill="none" stroke="#010101" stroke-width="0.6" points="152.517,178.083 152.517,154.885 160.748,152.534 
	146.209,146.546 160.32,142.485 145.782,136.284 160.748,131.154 152.623,129.015 152.623,117.256 "/>
<polygon fill="none" stroke="#010101" stroke-width="0.6" points="50.641,108.597 58.124,116.722 50.641,125.06 31.292,125.06 
	31.292,108.597 "/>
<g enable-background="new    ">
	<path fill="#010101" d="M145.311,21.676v2.125h-0.91v-2.125h-2.009v-0.793h2.009v-2.115h0.91v2.115h2.009v0.793H145.311z"/>
	<path fill="#010101" d="M149.164,26.477c-0.275,0-0.54-0.021-0.783-0.053l0.084-0.877c0.211,0.053,0.497,0.084,0.762,0.084
		c1.3,0,1.977-0.667,1.977-1.544s-0.708-1.522-2.009-1.522c-0.201,0-0.392,0-0.603,0.01v-3.648h3.374v0.931h-2.464v1.893
		c1.776,0,2.739,0.931,2.739,2.189C152.241,25.409,150.929,26.477,149.164,26.477z"/>
	<path fill="#010101" d="M159.201,17.976l-2.358,6.45h-1.089l-2.294-6.45c-0.201-0.011-0.465-0.063-0.645-0.117v-0.571h2.559v0.571
		c-0.254,0.053-0.561,0.106-0.846,0.127l1.322,3.892c0.148,0.412,0.328,0.962,0.476,1.48h0.01c0.127-0.486,0.307-1.005,0.487-1.555
		l1.375-3.817c-0.286-0.021-0.582-0.074-0.835-0.127v-0.571h2.475v0.571C159.667,17.912,159.392,17.965,159.201,17.976z"/>
</g>
<g enable-background="new    ">
	<path fill="#010101" d="M174.843,192.783v2.611c-0.708,0.265-1.575,0.412-2.358,0.412c-2.157,0-3.542-1.311-3.542-3.521
		c0-2.2,1.385-3.807,3.807-3.807c0.677,0,1.322,0.095,1.957,0.253v1.682h-0.698c-0.063-0.349-0.106-0.655-0.138-0.941
		c-0.391-0.105-0.814-0.158-1.206-0.158c-1.512,0-2.686,0.941-2.686,2.855c0,1.776,1.036,2.791,2.644,2.791
		c0.476,0,0.877-0.074,1.258-0.19v-1.987c-0.317-0.021-0.645-0.074-0.91-0.138v-0.571h2.57v0.582
		C175.319,192.708,175.087,192.75,174.843,192.783z"/>
	<path fill="#010101" d="M179.765,191.302c-1.205-0.201-1.745,0.613-1.745,2.294v1.407c0.317,0.021,0.645,0.073,0.92,0.137v0.571
		h-2.792v-0.571c0.275-0.063,0.603-0.116,0.92-0.137v-3.797c-0.254-0.042-0.613-0.084-0.92-0.105v-0.571
		c0.529-0.063,1.258-0.105,1.84-0.074c0,0.328-0.032,0.814-0.105,1.248h0.01c0.233-0.729,0.762-1.459,1.914-1.343L179.765,191.302z"
		/>
	<path fill="#010101" d="M182.781,195.806c-1.438,0-2.358-0.824-2.358-2.644c0-1.575,0.973-2.802,2.559-2.802
		c1.332,0,2.358,0.729,2.358,2.644C185.34,194.58,184.367,195.806,182.781,195.806z M182.897,191.154
		c-0.771,0-1.491,0.582-1.491,1.936c0,1.216,0.507,1.914,1.48,1.914c0.782,0,1.47-0.614,1.47-1.925
		C184.356,191.852,183.849,191.154,182.897,191.154z"/>
	<path fill="#010101" d="M190.229,195.711c0-0.317,0.021-0.782,0.074-1.11h-0.021c-0.307,0.719-0.952,1.205-1.851,1.205
		c-1.206,0-1.576-0.75-1.576-1.681v-2.919c-0.254-0.042-0.603-0.084-0.888-0.105v-0.571c0.497-0.063,1.216-0.105,1.829-0.074v3.384
		c0,0.74,0.211,1.185,0.899,1.185c0.867,0,1.501-0.888,1.501-2.051v-1.777c-0.243-0.031-0.571-0.073-0.856-0.095v-0.571
		c0.518-0.063,1.216-0.105,1.798-0.074v4.505c0.253,0.043,0.603,0.085,0.888,0.105v0.571
		C191.529,195.701,190.8,195.743,190.229,195.711z"/>
	<path fill="#010101" d="M196.789,195.711v-3.384c0-0.74-0.201-1.185-0.889-1.185c-0.867,0-1.501,0.889-1.501,2.052v1.809
		c0.286,0.021,0.592,0.062,0.846,0.137v0.571h-2.718v-0.571c0.275-0.063,0.603-0.116,0.92-0.137v-3.797
		c-0.254-0.042-0.613-0.084-0.92-0.105v-0.571c0.529-0.063,1.258-0.105,1.84-0.074c0,0.307-0.021,0.794-0.074,1.11h0.01
		c0.307-0.719,0.962-1.205,1.861-1.205c1.195,0,1.576,0.751,1.576,1.682v2.961c0.307,0.021,0.624,0.073,0.877,0.137v0.571H196.789z"
		/>
	<path fill="#010101" d="M202.883,195.711c0-0.296,0.021-0.762,0.084-1.068l-0.021-0.01c-0.296,0.708-0.941,1.173-1.766,1.173
		c-1.29,0-1.935-0.94-1.935-2.474c0-1.84,1.058-2.95,2.718-2.95c0.285,0,0.571,0.021,0.888,0.053v-1.692
		c-0.254-0.042-0.613-0.084-0.92-0.105v-0.571c0.528-0.063,1.258-0.105,1.872-0.074v6.969c0.253,0.043,0.603,0.085,0.888,0.105
		v0.571C204.194,195.701,203.465,195.743,202.883,195.711z M202.852,191.25c-0.317-0.074-0.635-0.117-0.931-0.117
		c-1.004,0-1.671,0.604-1.671,2.115c0,1.132,0.37,1.776,1.163,1.776c0.952,0,1.438-1.11,1.438-2.03V191.25z"/>
</g>
<g>
	<g>
		<polyline fill="none" stroke="#D3463E" stroke-width="0.54" points="140.33,177.868 164.169,177.868 144.606,177.868 		"/>
		<line fill="none" stroke="#D3463E" stroke-width="0.54" x1="144.82" y1="184.175" x2="159.679" y2="184.175"/>
		<line fill="none" stroke="#D3463E" stroke-width="0.54" x1="149.523" y1="190.163" x2="154.976" y2="190.163"/>
	</g>
	<g>
		<polyline fill="none" stroke="#010101" stroke-width="0.54" points="140.33,177.868 164.169,177.868 144.606,177.868 		"/>
		<line fill="none" stroke="#010101" stroke-width="0.54" x1="144.82" y1="184.175" x2="159.679" y2="184.175"/>
		<line fill="none" stroke="#010101" stroke-width="0.54" x1="149.523" y1="190.163" x2="154.976" y2="190.163"/>
	</g>
</g>
<g enable-background="new    ">
	<path fill="#010101" d="M196.711,66.849c-0.296,0-0.561-0.021-0.751-0.042v1.787c0.317,0.021,0.645,0.074,0.92,0.138v0.571h-2.802
		v-0.571c0.275-0.063,0.603-0.117,0.92-0.138v-5.721c-0.317-0.021-0.645-0.074-0.92-0.138v-0.571h0.92
		c0.317,0,1.185-0.042,1.851-0.042c1.925,0,2.718,1.015,2.718,2.231C199.566,65.802,198.456,66.849,196.711,66.849z M196.743,62.915
		c-0.275,0-0.571,0-0.783,0.021v3.056c0.19,0.032,0.486,0.063,0.835,0.063c1.195,0,1.766-0.708,1.766-1.576
		C198.562,63.687,198.128,62.915,196.743,62.915z"/>
	<path fill="#010101" d="M204.275,69.302c0-0.317,0.021-0.783,0.074-1.11h-0.021c-0.307,0.719-0.952,1.206-1.851,1.206
		c-1.206,0-1.576-0.751-1.576-1.681v-2.919c-0.254-0.042-0.603-0.084-0.888-0.105V64.12c0.497-0.063,1.216-0.105,1.829-0.074v3.384
		c0,0.74,0.211,1.184,0.899,1.184c0.867,0,1.501-0.888,1.501-2.051v-1.776c-0.243-0.032-0.571-0.074-0.856-0.095V64.12
		c0.518-0.063,1.216-0.105,1.798-0.074v4.504c0.253,0.042,0.603,0.085,0.888,0.106v0.571
		C205.576,69.291,204.847,69.333,204.275,69.302z"/>
	<path fill="#010101" d="M206.458,69.302v-0.571c0.264-0.063,0.582-0.117,0.888-0.138v-6.26c-0.254-0.042-0.603-0.085-0.91-0.106
		v-0.571c0.54-0.063,1.248-0.106,1.861-0.074v7.011c0.307,0.021,0.624,0.074,0.888,0.138v0.571H206.458z"/>
	<path fill="#010101" d="M211.229,69.397c-0.413,0-0.888-0.042-1.237-0.138v-1.491h0.582c0.053,0.254,0.095,0.561,0.127,0.835
		c0.18,0.042,0.413,0.053,0.624,0.053c0.708,0,1.195-0.317,1.195-0.825c0-1.163-2.644-0.476-2.644-2.305
		c0-0.899,0.74-1.576,2.115-1.576c0.37,0,0.814,0.053,1.216,0.148v1.438h-0.582c-0.063-0.264-0.105-0.56-0.126-0.825
		c-0.18-0.042-0.392-0.063-0.592-0.063c-0.708,0-1.068,0.296-1.068,0.772c0,1.185,2.633,0.529,2.633,2.273
		C213.47,68.646,212.624,69.397,211.229,69.397z"/>
	<path fill="#010101" d="M218.845,66.658h-3.437c-0.042,1.375,0.518,1.967,1.66,1.967c0.507,0,1.036-0.106,1.501-0.307l0.138,0.751
		c-0.529,0.211-1.164,0.328-1.819,0.328c-1.597,0-2.464-0.846-2.464-2.696c0-1.565,0.877-2.75,2.369-2.75
		c1.47,0,2.083,0.983,2.083,2.157C218.876,66.235,218.866,66.447,218.845,66.658z M216.73,64.67c-0.688,0-1.174,0.507-1.29,1.311
		h2.464C217.925,65.178,217.47,64.67,216.73,64.67z"/>
</g>
<g enable-background="new    ">
	<path fill="#010101" d="M195.633,83.041c-0.413,0-0.888-0.042-1.237-0.138v-1.491h0.582c0.053,0.254,0.095,0.561,0.127,0.835
		c0.18,0.042,0.413,0.053,0.624,0.053c0.708,0,1.195-0.317,1.195-0.825c0-1.163-2.644-0.476-2.644-2.305
		c0-0.899,0.74-1.576,2.115-1.576c0.37,0,0.814,0.053,1.216,0.148v1.438h-0.582c-0.063-0.264-0.105-0.56-0.126-0.825
		c-0.18-0.042-0.392-0.063-0.592-0.063c-0.708,0-1.068,0.296-1.068,0.772c0,1.185,2.633,0.529,2.633,2.273
		C197.875,82.29,197.028,83.041,195.633,83.041z"/>
	<path fill="#010101" d="M206.495,78.388l-1.438,4.558h-1.089l-1.037-3.098c-0.116-0.328-0.211-0.677-0.296-1.047h-0.011
		c-0.116,0.465-0.243,0.877-0.38,1.322l-0.878,2.823h-1.1l-1.354-4.558c-0.233-0.021-0.465-0.063-0.677-0.127V77.69h2.421v0.571
		c-0.222,0.063-0.465,0.106-0.729,0.127l0.645,2.348c0.116,0.434,0.243,0.856,0.328,1.195h0.011c0.095-0.444,0.222-0.877,0.359-1.29
		l0.941-2.95h0.983l0.952,2.95c0.19,0.624,0.286,0.931,0.37,1.29h0.01c0.095-0.37,0.19-0.677,0.328-1.153l0.687-2.39
		c-0.243-0.021-0.507-0.063-0.729-0.127V77.69h2.358v0.571C206.96,78.324,206.728,78.367,206.495,78.388z"/>
	<path fill="#010101" d="M207.547,82.945v-0.571c0.275-0.063,0.603-0.117,0.92-0.138V78.44c-0.254-0.042-0.613-0.084-0.92-0.105
		v-0.571c0.529-0.063,1.258-0.105,1.872-0.074v4.547c0.307,0.021,0.624,0.074,0.888,0.138v0.571H207.547z M208.954,76.643
		c-0.349,0-0.634-0.265-0.634-0.613c0-0.349,0.286-0.624,0.634-0.624c0.338,0,0.624,0.275,0.624,0.624
		C209.578,76.368,209.292,76.643,208.954,76.643z"/>
	<path fill="#010101" d="M212.953,83.03c-1.079,0-1.406-0.444-1.406-1.576V78.43h-1.079v-0.74h1.079v-1.703l0.952-0.264v1.967h1.47
		v0.74h-1.47v2.686c0,0.867,0.169,1.1,0.751,1.1c0.243,0,0.476-0.032,0.666-0.085l0.095,0.783
		C213.704,82.988,213.291,83.03,212.953,83.03z"/>
	<path fill="#010101" d="M217.174,83.03c-1.301,0-2.379-0.603-2.379-2.538c0-1.692,0.856-2.887,2.612-2.887
		c0.444,0,0.92,0.074,1.29,0.19v1.534h-0.592c-0.063-0.307-0.105-0.603-0.137-0.857c-0.18-0.053-0.423-0.084-0.708-0.084
		c-0.941,0-1.47,0.793-1.47,1.946c0,1.068,0.349,1.872,1.586,1.872c0.455,0,0.899-0.095,1.258-0.254l0.159,0.793
		C218.39,82.893,217.809,83.03,217.174,83.03z"/>
	<path fill="#010101" d="M223.5,82.945v-3.384c0-0.74-0.201-1.184-0.898-1.184c-0.867,0-1.491,0.888-1.491,2.051v1.808
		c0.286,0.021,0.592,0.063,0.846,0.138v0.571h-2.686v-0.571c0.264-0.063,0.582-0.117,0.888-0.138v-6.26
		c-0.254-0.042-0.603-0.085-0.909-0.106V75.3c0.528-0.063,1.248-0.106,1.861-0.074v2.496c0,0.338-0.021,0.761-0.095,1.047
		l0.021,0.01c0.307-0.719,0.952-1.184,1.84-1.184c1.195,0,1.575,0.751,1.575,1.681v2.961c0.296,0.021,0.613,0.074,0.878,0.138v0.571
		H223.5z"/>
</g>
<path fill="none" stroke="#818181" stroke-width="1.2" stroke-linecap="round" d="M427.568,159.375c0,0-46.607,17.853-77.502-7.483
	c-30.894-25.335-43.401-108.075-46.715-126.996"/>
<path fill="none" stroke="#414141" stroke-width="1.2" stroke-linecap="round" d="M419.444,151.357c0,0-37.521,9.515-52.381-7.482
	c-33.673-38.271,13.363-95.676,12.293-117.483"/>
<path fill="none" stroke="#221F1F" stroke-width="1.2" stroke-linecap="round" d="M499.299,144.409c0,0,16.676,4.062,21.594-29.397
	c5.345-36.88-16.569-78.785-33.032-89.688"/>
<g enable-background="new    ">
	<path fill="#010101" d="M169.052,146.727v-0.582c0.349-0.063,0.75-0.116,1.152-0.137v-3.902l-1.195,0.508l-0.159-0.804l1.565-0.603
		h0.771v4.801c0.296,0.021,0.624,0.073,0.952,0.137v0.582H169.052z"/>
	<path fill="#010101" d="M175.6,146.833c-1.48,0-2.602-0.856-2.602-2.802c0-1.809,1.291-2.908,2.824-2.908
		c1.734,0,2.601,1.132,2.601,2.781C178.423,145.754,177.123,146.833,175.6,146.833z M175.748,141.926
		c-0.994,0-1.787,0.762-1.787,2.041c0,1.163,0.518,2.062,1.724,2.062c0.983,0,1.776-0.761,1.776-2.051
		C177.461,142.825,176.933,141.926,175.748,141.926z"/>
	<path fill="#010101" d="M183.069,146.727v-0.571c0.211-0.053,0.444-0.095,0.666-0.116l-2.591-2.897v2.877
		c0.243,0.021,0.55,0.062,0.793,0.137v0.571h-2.675v-0.571c0.275-0.063,0.603-0.116,0.92-0.137v-5.722
		c-0.317-0.021-0.645-0.073-0.92-0.137v-0.571h2.675v0.571c-0.243,0.074-0.55,0.116-0.793,0.137v2.718l2.548-2.728
		c-0.232-0.021-0.507-0.063-0.729-0.127v-0.571h2.654v0.571c-0.222,0.053-0.497,0.105-0.74,0.127l-2.623,2.738l2.781,3.003
		c0.243,0.021,0.518,0.074,0.74,0.127v0.571H183.069z"/>
</g>
</svg>
