<?xml version="1.0" encoding="utf-8"?>
<!-- Generator: Adobe Illustrator 16.0.4, SVG Export Plug-In . SVG Version: 6.00 Build 0)  -->
<!DOCTYPE svg PUBLIC "-//W3C//DTD SVG 1.1//EN" "http://www.w3.org/Graphics/SVG/1.1/DTD/svg11.dtd">
<svg version="1.1" id="Layer_1" xmlns="http://www.w3.org/2000/svg" xmlns:xlink="http://www.w3.org/1999/xlink" x="0px" y="0px"
	 width="650px" height="160px" viewBox="-19 0 650 160" enable-background="new -19 0 650 160" xml:space="preserve">
<circle fill="#FFFFFF" stroke="#010101" stroke-width="0.375" cx="448.509" cy="89.303" r="22.516"/>
<line fill="none" stroke="#010101" stroke-width="0.375" x1="256.557" y1="31.244" x2="321.098" y2="13.873"/>
<g>
	<g enable-background="new    ">
		<path fill="#010101" d="M467.165,124.321v-0.647c0.312-0.072,0.684-0.132,1.043-0.156v-6.488
			c-0.359-0.024-0.731-0.084-1.043-0.156v-0.647h3.178v0.647c-0.312,0.072-0.684,0.132-1.043,0.156v6.393h2.123
			c0.036-0.324,0.107-0.768,0.204-1.163h0.755v2.062H467.165z"/>
		<path fill="#010101" d="M472.889,124.321v-0.647c0.312-0.072,0.684-0.132,1.044-0.156v-4.306c-0.288-0.048-0.696-0.096-1.044-0.12
			v-0.647c0.6-0.071,1.428-0.12,2.123-0.084v5.157c0.348,0.024,0.708,0.084,1.008,0.156v0.647H472.889z M474.484,117.172
			c-0.396,0-0.72-0.3-0.72-0.695s0.323-0.708,0.72-0.708c0.384,0,0.707,0.312,0.707,0.708
			C475.191,116.861,474.868,117.172,474.484,117.172z"/>
		<path fill="#010101" d="M479.224,127.391c-1.535,0-2.507-0.636-2.507-1.787c0-0.695,0.456-1.283,0.996-1.583
			c-0.36-0.156-0.588-0.492-0.588-0.888c0-0.42,0.264-0.815,0.659-1.007c-0.539-0.324-0.875-0.864-0.875-1.644
			c0-1.199,0.899-2.23,2.53-2.23c0.324,0,0.54,0.036,0.84,0.107h2.026v0.852h-0.983c0.3,0.24,0.48,0.636,0.48,1.104
			c0,1.224-0.828,2.159-2.52,2.159c-0.239,0-0.419-0.024-0.635-0.084c-0.252,0.12-0.384,0.312-0.384,0.504
			c0,0.335,0.3,0.443,1.019,0.467l1.092,0.036c1.283,0.048,2.003,0.648,2.003,1.728
			C482.378,126.383,481.095,127.391,479.224,127.391z M480.063,124.296l-1.151-0.048c-0.108,0-0.252,0-0.348-0.012
			c-0.468,0.324-0.768,0.72-0.768,1.176c0,0.707,0.671,1.127,1.606,1.127c1.212,0,1.883-0.552,1.883-1.283
			C481.286,124.68,480.902,124.321,480.063,124.296z M479.392,119.056c-0.899,0-1.415,0.575-1.415,1.331
			c0,0.827,0.491,1.307,1.379,1.307c0.852,0,1.379-0.479,1.379-1.307C480.734,119.572,480.255,119.056,479.392,119.056z"/>
		<path fill="#010101" d="M487.742,124.321v-3.838c0-0.84-0.229-1.343-1.02-1.343c-0.983,0-1.691,1.007-1.691,2.326v2.051
			c0.324,0.024,0.672,0.072,0.959,0.156v0.647h-3.046v-0.647c0.3-0.072,0.66-0.132,1.008-0.156v-7.1
			c-0.288-0.048-0.684-0.097-1.032-0.12v-0.647c0.601-0.072,1.416-0.12,2.111-0.084v2.83c0,0.384-0.024,0.863-0.108,1.188
			l0.024,0.012c0.348-0.815,1.079-1.343,2.087-1.343c1.355,0,1.787,0.852,1.787,1.906v3.358c0.336,0.024,0.695,0.084,0.995,0.156
			v0.647H487.742z"/>
		<path fill="#010101" d="M492.771,124.417c-1.224,0-1.595-0.504-1.595-1.787v-3.43h-1.224v-0.84h1.224v-1.931l1.079-0.3v2.23h1.667
			v0.84h-1.667v3.046c0,0.983,0.191,1.248,0.852,1.248c0.275,0,0.539-0.036,0.756-0.097l0.107,0.888
			C493.623,124.369,493.155,124.417,492.771,124.417z"/>
	</g>
</g>
<g>
	<g enable-background="new    ">
		<path fill="#010101" d="M230.513,17.353c-0.624,0-1.223-0.072-1.727-0.204V15.23h0.792c0.072,0.396,0.12,0.768,0.156,1.079
			c0.264,0.06,0.576,0.108,0.887,0.108c0.959,0,1.739-0.384,1.739-1.391c0-1.823-3.694-1.091-3.694-3.694
			c0-1.332,1.055-2.291,2.866-2.291c0.564,0,1.031,0.06,1.559,0.156v1.859H232.3c-0.072-0.372-0.12-0.756-0.144-1.056
			c-0.18-0.036-0.456-0.072-0.708-0.072c-1.067,0-1.631,0.516-1.631,1.271c0,1.775,3.694,1.116,3.694,3.658
			C233.511,16.309,232.372,17.353,230.513,17.353z"/>
		<path fill="#010101" d="M243.277,12.076l-1.631,5.169h-1.235l-1.175-3.514c-0.132-0.372-0.24-0.768-0.336-1.187h-0.012
			c-0.132,0.527-0.276,0.995-0.432,1.499l-0.996,3.202h-1.248l-1.535-5.169c-0.264-0.024-0.527-0.072-0.768-0.144v-0.648h2.747
			v0.648c-0.252,0.072-0.528,0.12-0.828,0.144l0.732,2.662c0.132,0.492,0.276,0.972,0.372,1.355h0.012
			c0.108-0.504,0.252-0.996,0.408-1.463l1.067-3.346h1.115l1.08,3.346c0.216,0.708,0.324,1.056,0.42,1.463h0.012
			c0.108-0.42,0.216-0.768,0.372-1.307l0.779-2.71c-0.276-0.024-0.576-0.072-0.828-0.144v-0.648h2.675v0.648
			C243.804,12.003,243.541,12.051,243.277,12.076z"/>
		<path fill="#010101" d="M244.47,17.245v-0.647c0.312-0.072,0.684-0.132,1.043-0.156v-4.306c-0.288-0.048-0.695-0.096-1.043-0.12
			v-0.648c0.6-0.072,1.427-0.12,2.123-0.084v5.157c0.348,0.024,0.708,0.084,1.007,0.156v0.647H244.47z M246.065,10.097
			c-0.396,0-0.72-0.3-0.72-0.696c0-0.396,0.324-0.708,0.72-0.708c0.384,0,0.708,0.312,0.708,0.708
			C246.772,9.785,246.449,10.097,246.065,10.097z"/>
		<path fill="#010101" d="M250.601,17.34c-1.224,0-1.595-0.503-1.595-1.787v-3.43h-1.223v-0.84h1.223V9.353l1.08-0.3v2.23h1.667
			v0.84h-1.667v3.046c0,0.983,0.192,1.247,0.852,1.247c0.276,0,0.54-0.036,0.755-0.096l0.108,0.887
			C251.452,17.292,250.984,17.34,250.601,17.34z"/>
		<path fill="#010101" d="M255.388,17.34c-1.476,0-2.699-0.684-2.699-2.878c0-1.919,0.972-3.274,2.962-3.274
			c0.504,0,1.043,0.084,1.463,0.216v1.739h-0.672c-0.072-0.348-0.12-0.684-0.156-0.972c-0.204-0.06-0.48-0.096-0.804-0.096
			c-1.067,0-1.667,0.899-1.667,2.207c0,1.211,0.396,2.123,1.799,2.123c0.516,0,1.02-0.108,1.427-0.288l0.18,0.899
			C256.767,17.185,256.107,17.34,255.388,17.34z"/>
		<path fill="#010101" d="M262.563,17.245v-3.838c0-0.839-0.228-1.343-1.02-1.343c-0.983,0-1.691,1.007-1.691,2.327v2.051
			c0.324,0.024,0.672,0.072,0.959,0.156v0.647h-3.046v-0.647c0.3-0.072,0.66-0.132,1.007-0.156v-7.1
			c-0.288-0.048-0.684-0.096-1.031-0.12V8.573c0.6-0.072,1.415-0.12,2.111-0.084v2.831c0,0.384-0.024,0.864-0.108,1.188l0.024,0.012
			c0.348-0.815,1.08-1.343,2.087-1.343c1.355,0,1.787,0.852,1.787,1.907v3.358c0.336,0.024,0.695,0.084,0.995,0.156v0.647H262.563z"
			/>
	</g>
</g>
<g>
	<g enable-background="new    ">
		<path fill="#010101" d="M107,89.139c-0.456,0-1.211-0.036-2.075-0.036h-1.043v-0.647c0.312-0.072,0.684-0.132,1.043-0.156v-6.488
			c-0.36-0.024-0.732-0.084-1.043-0.156v-0.648h1.02c0.576,0,1.355-0.036,2.327-0.036c1.739,0,2.59,0.731,2.59,1.943
			c0,0.852-0.456,1.583-1.331,1.883v0.024c1.127,0.192,1.643,1.02,1.643,1.859C110.13,87.651,109.531,89.139,107,89.139z
			 M107.036,81.858c-0.372,0-0.684,0.012-1.02,0.024v2.615c0.24,0.012,0.444,0.012,0.744,0.012c1.331,0,1.907-0.528,1.907-1.416
			C108.667,82.374,108.295,81.858,107.036,81.858z M106.784,85.336c-0.144,0-0.576,0-0.768,0.012v2.831
			c0.216,0.036,0.576,0.06,1.055,0.06c1.319,0,1.895-0.648,1.895-1.523C108.967,85.672,108.02,85.336,106.784,85.336z"/>
		<path fill="#010101" d="M114.896,89.103c0-0.42,0.012-0.852,0.072-1.188h-0.024c-0.288,0.732-1.043,1.295-2.027,1.295
			c-0.983,0-1.655-0.612-1.655-1.571c0-1.283,1.331-2.039,3.574-2.039v-0.444c0-0.839-0.3-1.307-1.247-1.307
			c-0.36,0-0.78,0.06-1.115,0.168c-0.024,0.3-0.084,0.635-0.144,0.971h-0.672v-1.631c0.6-0.192,1.319-0.336,2.027-0.336
			c1.751,0,2.243,0.803,2.243,1.991v3.238c0.288,0.048,0.684,0.096,1.007,0.12v0.647C116.371,89.09,115.543,89.139,114.896,89.103z
			 M114.835,86.344c-1.871,0-2.519,0.468-2.519,1.127c0,0.516,0.36,0.887,0.912,0.887c0.959,0,1.607-0.947,1.607-1.883V86.344z"/>
		<path fill="#010101" d="M119.853,89.198c-1.224,0-1.595-0.503-1.595-1.787v-3.43h-1.223v-0.84h1.223v-1.931l1.08-0.3v2.23h1.667
			v0.84h-1.667v3.046c0,0.983,0.192,1.247,0.852,1.247c0.276,0,0.54-0.036,0.755-0.096l0.108,0.887
			C120.704,89.15,120.236,89.198,119.853,89.198z"/>
		<path fill="#010101" d="M124.304,89.198c-1.223,0-1.595-0.503-1.595-1.787v-3.43h-1.223v-0.84h1.223v-1.931l1.08-0.3v2.23h1.667
			v0.84h-1.667v3.046c0,0.983,0.192,1.247,0.852,1.247c0.276,0,0.54-0.036,0.755-0.096l0.108,0.887
			C125.156,89.15,124.688,89.198,124.304,89.198z"/>
		<path fill="#010101" d="M131.406,86.104h-3.898c-0.048,1.559,0.588,2.231,1.883,2.231c0.576,0,1.175-0.12,1.703-0.348l0.156,0.852
			c-0.6,0.24-1.319,0.372-2.063,0.372c-1.811,0-2.794-0.959-2.794-3.058c0-1.775,0.996-3.119,2.687-3.119
			c1.667,0,2.363,1.116,2.363,2.447C131.442,85.625,131.43,85.864,131.406,86.104z M129.008,83.85c-0.78,0-1.332,0.576-1.463,1.487
			h2.794C130.363,84.425,129.847,83.85,129.008,83.85z"/>
		<path fill="#010101" d="M136.447,84.101c-1.367-0.228-1.979,0.696-1.979,2.603v1.595c0.36,0.024,0.731,0.084,1.043,0.156v0.647
			h-3.167v-0.647c0.312-0.072,0.684-0.132,1.043-0.156v-4.306c-0.288-0.048-0.695-0.096-1.043-0.12v-0.648
			c0.6-0.072,1.427-0.12,2.087-0.084c0,0.372-0.036,0.924-0.12,1.416h0.012c0.264-0.828,0.864-1.655,2.171-1.523L136.447,84.101z"/>
		<path fill="#010101" d="M142.59,83.934l-2.111,5.805c-0.647,1.823-1.259,2.422-2.59,2.422c-0.228,0-0.564-0.024-0.816-0.072
			l0.084-0.972c0.276,0.084,0.516,0.132,0.792,0.132c0.647,0,1.019-0.324,1.451-1.475l0.251-0.672h-0.276l-1.835-5.169
			c-0.264-0.024-0.54-0.072-0.768-0.144v-0.648h2.735v0.648c-0.228,0.072-0.492,0.12-0.78,0.144l0.899,2.578
			c0.18,0.552,0.324,0.996,0.456,1.487h0.024c0.096-0.408,0.324-1.091,0.552-1.775l0.803-2.291
			c-0.288-0.024-0.552-0.072-0.779-0.144v-0.648h2.663v0.648C143.118,83.861,142.854,83.909,142.59,83.934z"/>
	</g>
</g>
<path fill="none" stroke="#010101" stroke-width="0.375" d="M323.303,30.642h63.472c11.023,0,20.11,8.953,20.11,20.444v29.665
	h33.473c4.677,0,8.352,3.809,8.352,8.352c0,4.678-3.809,8.352-8.352,8.352h-33.473v30.132c0,11.024-8.953,20.11-20.11,20.11H193.085
	c-11.024,0-20.11-8.953-20.11-20.11V50.619c0-11.023,8.953-20.11,20.11-20.11h63.472"/>
<circle fill="#FFFFFF" stroke="#010101" stroke-width="0.375" cx="256.557" cy="30.642" r="4.143"/>
<circle fill="#FFFFFF" stroke="#010101" stroke-width="0.375" cx="323.303" cy="30.642" r="4.143"/>
<rect x="170.236" y="72.4" fill="#FFFFFF" width="6.614" height="24.987"/>
<line fill="none" stroke="#010101" stroke-width="0.375" x1="156.272" y1="72.4" x2="189.678" y2="72.4"/>
<line fill="none" stroke="#010101" stroke-width="0.375" x1="156.272" y1="89.103" x2="189.678" y2="89.103"/>
<line fill="none" stroke="#010101" stroke-width="0.375" x1="164.69" y1="80.751" x2="181.326" y2="80.751"/>
<line fill="none" stroke="#010101" stroke-width="0.375" x1="164.69" y1="97.387" x2="181.326" y2="97.387"/>
<text transform="matrix(1 0 0 1 161.3008 67.7964)" fill="#010101" font-family="'TheSansMono-W3Light'" font-size="16.7091">+</text>
</svg>
