<?xml version="1.0" encoding="utf-8"?>
<!-- Generator: Adobe Illustrator 18.0.0, SVG Export Plug-In . SVG Version: 6.00 Build 0)  -->
<!DOCTYPE svg PUBLIC "-//W3C//DTD SVG 1.1//EN" "http://www.w3.org/Graphics/SVG/1.1/DTD/svg11.dtd">
<svg version="1.1" id="Layer_1" xmlns="http://www.w3.org/2000/svg" xmlns:xlink="http://www.w3.org/1999/xlink" x="0px" y="0px"
	 viewBox="0 0 640 480" enable-background="new 0 0 640 480" xml:space="preserve">
<g>
	<rect x="69.3" y="96.5" fill="none" stroke="#999999" stroke-width="1.3" width="267.6" height="267.6"/>
	<line fill="none" stroke="#999999" stroke-width="1.3" x1="69.3" y1="319.6" x2="336.9" y2="319.6"/>
	<line fill="none" stroke="#999999" stroke-width="1.3" x1="69.3" y1="274.9" x2="336.9" y2="274.9"/>
	<line fill="none" stroke="#999999" stroke-width="1.3" x1="69.3" y1="230.3" x2="336.9" y2="230.3"/>
	<line fill="none" stroke="#999999" stroke-width="1.3" x1="69.3" y1="185.8" x2="336.9" y2="185.8"/>
	<line fill="none" stroke="#999999" stroke-width="1.3" x1="69.3" y1="141.1" x2="336.9" y2="141.1"/>
	<line fill="none" stroke="#999999" stroke-width="1.3" x1="292.3" y1="96.5" x2="292.3" y2="364.1"/>
	<line fill="none" stroke="#999999" stroke-width="1.3" x1="247.8" y1="96.5" x2="247.8" y2="364.1"/>
	<line fill="none" stroke="#999999" stroke-width="1.3" x1="203.1" y1="96.5" x2="203.1" y2="364.1"/>
	<line fill="none" stroke="#999999" stroke-width="1.3" x1="158.5" y1="96.5" x2="158.5" y2="364.1"/>
	<line fill="none" stroke="#999999" stroke-width="1.3" x1="114" y1="96.5" x2="114" y2="364.1"/>
</g>
<g>
	<path d="M74.7,32.1l-2.4-4l-2.4,4h-3.2v-1.2c0.6-0.1,1.3-0.3,1.8-0.3l2.6-3.9l-2.5-3.9c-0.6,0-1.2-0.2-1.8-0.3v-1.2h3.3l2.3,3.9
		l2.3-3.9h3.1v1.2c-0.6,0.1-1.3,0.3-1.8,0.3l-2.4,3.8l2.6,4c0.6,0,1.2,0.2,1.8,0.3v1.2H74.7z"/>
</g>
<g>
	<path d="M8.6,90.4l-3.8,10.5c-1.2,3.3-2.3,4.4-4.7,4.4c-0.4,0-1,0-1.5-0.1l0.2-1.8c0.5,0.2,0.9,0.2,1.4,0.2c1.2,0,1.8-0.6,2.6-2.7
		l0.5-1.2H2.9l-3.3-9.3c-0.5,0-1-0.1-1.4-0.3V89h4.9v1.2c-0.4,0.1-0.9,0.2-1.4,0.3L3.3,95c0.3,1,0.6,1.8,0.8,2.7h0
		c0.2-0.7,0.6-2,1-3.2l1.4-4.1c-0.5,0-1-0.1-1.4-0.3V89H10v1.2C9.6,90.3,9.1,90.4,8.6,90.4z"/>
</g>
<g>
	<path d="M73.3,69.1c-2.9,0-5.3-1.7-5.3-6.7c0-4.3,2.6-6.7,5.7-6.7c2.8,0,5.3,1.6,5.3,6.6C78.9,66.7,76.3,69.1,73.3,69.1z
		 M73.4,57.3c-1.8,0-3.4,1.6-3.4,5c0,3.6,1.4,5.1,3.4,5.1c1.8,0,3.4-1.5,3.4-5C76.8,58.9,75.5,57.3,73.4,57.3z"/>
	<path d="M112.4,68.9v-1.8h4v-9.1l-3.7,2.4l-0.7-1.7l4.8-2.9h1.7v11.3h3.4v1.8H112.4z"/>
	<path d="M155.1,68.9v-1.6l3.1-2.8c2.7-2.3,3.4-3.2,3.4-4.7c0-1.4-0.8-2.4-2.7-2.4c-1.3,0-2.4,0.6-3.1,1.1l-0.4-1.7
		c1.1-0.7,2.4-1.1,4-1.1c2.9,0,4.4,1.6,4.4,3.8c0,1.8-1,3.2-3.3,5.3l-2.6,2.2l-0.1,0c1-0.1,3.4-0.1,6.6-0.1v1.9H155.1z"/>
	<path d="M201.2,70.9c-0.9,0-1.9-0.1-2.7-0.3l0.3-1.8c0.7,0.3,1.7,0.4,2.6,0.4c2.3,0,3.8-1.3,3.8-2.9c0-1.6-1.3-2.7-3.6-2.7
		c-0.7,0-1.3,0-1.9,0.1v-1.6h0.5c3.1,0,4.6-0.9,4.6-2.7c0-1.4-1.1-2.1-2.6-2.1c-1.2,0-2.2,0.3-3.1,0.8l-0.3-1.7
		c1.1-0.5,2.3-0.8,3.7-0.8c2.9,0,4.3,1.4,4.3,3.5c0,1.7-1.1,2.9-2.6,3.4l0,0c1.8,0.2,3.1,1.7,3.1,3.5
		C207.4,68.9,204.8,70.9,201.2,70.9z"/>
	<path d="M249.2,67.1v3.6h-1.9v-3.6h-6.6l-0.2-1.6l6-9.6h2.7v9.4h2.5v1.8H249.2z M247.3,57.7L247.3,57.7l-4.9,7.6c1.3,0,4,0,4.9,0
		V57.7z"/>
	<path d="M287.5,70.9c-0.7,0-1.6-0.1-2.4-0.2l0.2-1.7c0.7,0.2,1.7,0.3,2.4,0.3c2.6,0,4-1.5,4-3.2c0-1.8-1.5-2.8-3.9-2.8
		c-0.9,0-1.7,0.1-2.2,0.2v-7.4h7.6v1.9l-5.8,0v3.8c0.4,0,0.8,0,1.1,0c3.6,0,5.4,1.8,5.4,4.1C293.9,68.6,291.3,70.9,287.5,70.9z"/>
	<path d="M332.6,69.1c-3,0-4.9-2.3-4.9-6.2c0-6.2,3.1-8.8,7.2-8.8c0.4,0,1,0,1.3,0.1v1.7c-0.5-0.1-0.9-0.1-1.4-0.1
		c-2.8,0-4.3,1.6-4.9,4.6c-0.1,0.2-0.1,0.6-0.2,1.1h0c0.7-1.2,2-1.9,3.4-1.9c2.9,0,4.5,1.9,4.5,4.2
		C337.5,67.1,335.6,69.1,332.6,69.1z M332.7,61.3c-1.8,0-2.8,1.6-2.8,2.8c0,1.8,1,3.3,2.9,3.3c1.7,0,2.8-1.3,2.8-3.2
		C335.6,62.5,334.6,61.3,332.7,61.3z"/>
</g>
<circle fill="#808080" cx="114" cy="142.6" r="7"/>
<circle fill="#808080" cx="249.6" cy="320.2" r="7"/>
<g>
	<path d="M39.7,106.3c-2.9,0-5.3-1.7-5.3-6.7c0-4.3,2.6-6.7,5.7-6.7c2.8,0,5.3,1.6,5.3,6.6C45.3,103.9,42.7,106.3,39.7,106.3z
		 M39.8,94.5c-1.8,0-3.4,1.6-3.4,5c0,3.6,1.4,5.1,3.4,5.1c1.8,0,3.4-1.5,3.4-5C43.2,96.1,41.9,94.5,39.8,94.5z"/>
	<path d="M35.6,149.3v-1.8h4v-9.1l-3.7,2.4l-0.7-1.7l4.8-2.9h1.7v11.3h3.4v1.8H35.6z"/>
	<path d="M35.1,192.5v-1.6l3.1-2.8c2.7-2.3,3.4-3.2,3.4-4.7c0-1.4-0.8-2.4-2.7-2.4c-1.3,0-2.4,0.6-3.1,1.1l-0.4-1.7
		c1.1-0.7,2.4-1.1,4-1.1c2.9,0,4.4,1.6,4.4,3.8c0,1.8-1,3.2-3.3,5.3l-2.6,2.2l-0.1,0c1-0.1,3.4-0.1,6.6-0.1v1.9H35.1z"/>
	<path d="M38,237.7c-0.9,0-1.9-0.1-2.7-0.3l0.3-1.8c0.7,0.3,1.7,0.4,2.6,0.4c2.3,0,3.8-1.3,3.8-2.9c0-1.6-1.3-2.7-3.6-2.7
		c-0.7,0-1.3,0-1.9,0.1v-1.6h0.5c3.1,0,4.6-0.9,4.6-2.7c0-1.4-1.1-2.1-2.6-2.1c-1.2,0-2.2,0.3-3.1,0.8l-0.3-1.7
		c1.1-0.5,2.3-0.8,3.7-0.8c2.9,0,4.3,1.4,4.3,3.5c0,1.7-1.1,2.9-2.6,3.4l0,0c1.8,0.2,3.1,1.7,3.1,3.5
		C44.2,235.7,41.6,237.7,38,237.7z"/>
	<path d="M42.8,277.1v3.6h-1.9v-3.6h-6.6l-0.2-1.6l6-9.5h2.7v9.4h2.5v1.8H42.8z M40.9,267.7L40.9,267.7l-4.9,7.6c1.3,0,4,0,4.9,0
		V267.7z"/>
	<path d="M37.9,324.1c-0.7,0-1.6-0.1-2.4-0.2l0.2-1.7c0.7,0.2,1.7,0.3,2.4,0.3c2.6,0,4-1.5,4-3.2c0-1.8-1.5-2.8-3.9-2.8
		c-0.9,0-1.7,0.1-2.2,0.2v-7.4h7.6v1.9l-5.8,0v3.8c0.4,0,0.8,0,1.1,0c3.6,0,5.4,1.8,5.4,4.1C44.3,321.8,41.7,324.1,37.9,324.1z"/>
	<path d="M39.8,365.5c-3,0-4.9-2.3-4.9-6.2c0-6.2,3.1-8.8,7.2-8.8c0.4,0,1,0,1.3,0.1v1.7c-0.5-0.1-0.9-0.1-1.4-0.1
		c-2.8,0-4.3,1.6-4.9,4.6c-0.1,0.2-0.1,0.6-0.2,1.1h0c0.7-1.2,2-1.9,3.4-1.9c2.9,0,4.5,1.9,4.5,4.2
		C44.7,363.5,42.8,365.5,39.8,365.5z M39.9,357.7c-1.8,0-2.8,1.6-2.8,2.8c0,1.8,1,3.3,2.9,3.3c1.7,0,2.8-1.3,2.8-3.2
		C42.8,358.9,41.8,357.7,39.9,357.7z"/>
</g>
<line stroke="#000000" stroke-width="1.3" x1="70.4" y1="96.5" x2="61.9" y2="96.5"/>
<line stroke="#000000" stroke-width="1.3" x1="70.4" y1="141.3" x2="61.9" y2="141.3"/>
<line stroke="#000000" stroke-width="1.3" x1="70.4" y1="185.7" x2="61.9" y2="185.7"/>
<line stroke="#000000" stroke-width="1.3" x1="70.4" y1="230.2" x2="61.9" y2="230.2"/>
<line stroke="#000000" stroke-width="1.3" x1="70.4" y1="274.9" x2="61.9" y2="274.9"/>
<line stroke="#000000" stroke-width="1.3" x1="70.4" y1="320.1" x2="61.9" y2="320.1"/>
<line stroke="#000000" stroke-width="1.3" x1="70.4" y1="363.7" x2="61.9" y2="363.7"/>
<line stroke="#000000" stroke-width="1.3" x1="336.5" y1="96.4" x2="336.5" y2="87.8"/>
<line stroke="#000000" stroke-width="1.3" x1="291.7" y1="96.4" x2="291.7" y2="87.8"/>
<line stroke="#000000" stroke-width="1.3" x1="247.3" y1="96.4" x2="247.3" y2="87.8"/>
<line stroke="#000000" stroke-width="1.3" x1="202.8" y1="96.4" x2="202.8" y2="87.8"/>
<line stroke="#000000" stroke-width="1.3" x1="158.1" y1="96.4" x2="158.1" y2="87.8"/>
<line stroke="#000000" stroke-width="1.3" x1="112.9" y1="96.4" x2="112.9" y2="87.8"/>
<line stroke="#000000" stroke-width="1.3" x1="69.7" y1="96.4" x2="69.7" y2="87.8"/>
<polyline fill="#FFFFFF" stroke="#000000" stroke-width="1.3" points="9.1,178.2 3.8,183.5 -1.5,178.2 "/>
<line fill="#FFFFFF" stroke="#000000" stroke-width="1.3" x1="3.8" y1="183.5" x2="3.8" y2="120.8"/>
<polyline fill="#FFFFFF" stroke="#000000" stroke-width="1.3" points="151.2,20.3 156.5,25.6 151.2,30.9 "/>
<line fill="#FFFFFF" stroke="#000000" stroke-width="1.3" x1="157.7" y1="25.6" x2="95" y2="25.6"/>
<g>
	<path d="M416.5,227.8h-7c-0.1,2.8,1.1,4,3.4,4c1,0,2.1-0.2,3.1-0.6l0.3,1.5c-1.1,0.4-2.4,0.7-3.7,0.7c-3.3,0-5-1.7-5-5.5
		c0-3.2,1.8-5.6,4.8-5.6c3,0,4.3,2,4.3,4.4C416.5,226.9,416.5,227.3,416.5,227.8z M412.1,223.7c-1.4,0-2.4,1-2.6,2.7h5
		C414.6,224.7,413.7,223.7,412.1,223.7z"/>
	<path d="M417.9,233.2V232c0.5-0.1,1.2-0.2,1.8-0.3v-12.8c-0.5-0.1-1.2-0.2-1.9-0.2v-1.2c1.1-0.1,2.5-0.2,3.8-0.2v14.3
		c0.6,0,1.3,0.2,1.8,0.3v1.2H417.9z"/>
	<path d="M424.3,233.2V232c0.5-0.1,1.2-0.2,1.8-0.3v-12.8c-0.5-0.1-1.2-0.2-1.9-0.2v-1.2c1.1-0.1,2.5-0.2,3.8-0.2v14.3
		c0.6,0,1.3,0.2,1.8,0.3v1.2H424.3z"/>
	<path d="M430.8,233.2V232c0.6-0.1,1.2-0.2,1.9-0.3v-7.8c-0.5-0.1-1.3-0.2-1.9-0.2v-1.2c1.1-0.1,2.6-0.2,3.8-0.2v9.3
		c0.6,0,1.3,0.2,1.8,0.3v1.2H430.8z M433.7,220.3c-0.7,0-1.3-0.5-1.3-1.3c0-0.7,0.6-1.3,1.3-1.3c0.7,0,1.3,0.6,1.3,1.3
		C435,219.7,434.4,220.3,433.7,220.3z"/>
	<path d="M442.6,233.3c-0.7,0-1.2,0-1.8-0.1v3.9c0.6,0,1.3,0.2,1.9,0.3v1.2H437v-1.2c0.6-0.1,1.1-0.2,1.8-0.3v-13.1
		c-0.5-0.1-1.2-0.2-1.8-0.2v-1.2c1.1-0.1,2.5-0.2,3.7-0.2c0,0.6-0.1,1.6-0.2,2.2l0,0c0.6-1.5,1.9-2.4,3.6-2.4c2.5,0,4,1.8,4,5.1
		C448.1,231.1,446.1,233.3,442.6,233.3z M443.7,223.8c-1.9,0-2.9,2.3-2.9,4.1v3.5c0.6,0.2,1.2,0.3,1.9,0.3c2,0,3.4-1.2,3.4-4.3
		C446.1,225.1,445.4,223.8,443.7,223.8z"/>
	<path d="M452.9,233.3c-0.8,0-1.8-0.1-2.5-0.3v-3h1.2c0.1,0.5,0.2,1.1,0.3,1.7c0.4,0.1,0.8,0.1,1.3,0.1c1.4,0,2.4-0.6,2.4-1.7
		c0-2.4-5.4-1-5.4-4.7c0-1.8,1.5-3.2,4.3-3.2c0.8,0,1.7,0.1,2.5,0.3v2.9h-1.2c-0.1-0.5-0.2-1.1-0.3-1.7c-0.4-0.1-0.8-0.1-1.2-0.1
		c-1.4,0-2.2,0.6-2.2,1.6c0,2.4,5.4,1.1,5.4,4.6C457.4,231.8,455.7,233.3,452.9,233.3z"/>
	<path d="M468.4,227.8h-7c-0.1,2.8,1.1,4,3.4,4c1,0,2.1-0.2,3.1-0.6l0.3,1.5c-1.1,0.4-2.4,0.7-3.7,0.7c-3.3,0-5-1.7-5-5.5
		c0-3.2,1.8-5.6,4.8-5.6c3,0,4.3,2,4.3,4.4C468.5,226.9,468.5,227.3,468.4,227.8z M464.1,223.7c-1.4,0-2.4,1-2.6,2.7h5
		C466.5,224.7,465.6,223.7,464.1,223.7z"/>
	<path d="M484.3,233.2V232c0.5-0.1,1.1-0.2,1.7-0.3l-1-7.5c-0.2-1.6-0.4-2.8-0.4-3.7h0c-0.2,0.7-0.3,1.6-0.7,2.5l-3.5,10h-1.8
		l-3.3-9.5c-0.4-1.1-0.6-2.2-0.8-3h0c0,1.1-0.2,2.4-0.3,3.7l-0.9,7.4c0.6,0,1.2,0.2,1.7,0.3v1.2h-5V232c0.4-0.1,1-0.2,1.3-0.2
		l1.7-11.7c-0.6,0-1.3-0.2-1.9-0.3v-1.2h4.6l3.1,8.9c0.3,0.8,0.6,2,0.8,2.9h0c0.2-1,0.5-1.8,0.8-2.8l3.1-9h4.7v1.2
		c-0.6,0.1-1.2,0.2-1.9,0.3l1.8,11.7c0.4,0,1,0.2,1.3,0.2v1.2H484.3z"/>
	<path d="M495.4,233.3c-2.9,0-4.8-1.7-4.8-5.4c0-3.2,2-5.7,5.2-5.7c2.7,0,4.8,1.5,4.8,5.4C500.6,230.8,498.6,233.3,495.4,233.3z
		 M495.6,223.8c-1.6,0-3,1.2-3,4c0,2.5,1,3.9,3,3.9c1.6,0,3-1.3,3-3.9C498.6,225.3,497.6,223.8,495.6,223.8z"/>
	<path d="M509.8,233.2c0-0.6,0-1.6,0.2-2.2l0,0c-0.6,1.4-1.9,2.4-3.6,2.4c-2.6,0-4-1.9-4-5.1c0-3.8,2.2-6,5.6-6c0.6,0,1.2,0,1.8,0.1
		v-3.5c-0.5-0.1-1.3-0.2-1.9-0.2v-1.2c1.1-0.1,2.6-0.2,3.8-0.2v14.2c0.5,0.1,1.2,0.2,1.8,0.2v1.2C512.5,233.1,511,233.2,509.8,233.2
		z M509.8,224c-0.6-0.2-1.3-0.2-1.9-0.2c-2.1,0-3.4,1.2-3.4,4.3c0,2.3,0.8,3.6,2.4,3.6c1.9,0,2.9-2.3,2.9-4.1V224z"/>
	<path d="M523.7,227.8h-7c-0.1,2.8,1.1,4,3.4,4c1,0,2.1-0.2,3.1-0.6l0.3,1.5c-1.1,0.4-2.4,0.7-3.7,0.7c-3.3,0-5-1.7-5-5.5
		c0-3.2,1.8-5.6,4.8-5.6c3,0,4.3,2,4.3,4.4C523.8,226.9,523.8,227.3,523.7,227.8z M519.4,223.7c-1.4,0-2.4,1-2.6,2.7h5
		C521.8,224.7,520.9,223.7,519.4,223.7z"/>
	<path d="M534.2,237.7c-2.5-4-3.2-7.5-3.2-10.7c0-3.2,0.7-6.9,3.2-10.7l1.4,0.7c-1.8,3-2.7,6.4-2.7,10c0,3.7,0.9,7,2.7,10
		L534.2,237.7z"/>
	<path d="M548.4,233.3c-4.4,0-6.7-2.7-6.7-7.1c0-4.5,2.3-7.8,7.1-7.8c1.2,0,2.4,0.2,3.5,0.4v3.6h-1.4c-0.2-0.7-0.2-1.4-0.3-2
		c-0.8-0.2-1.4-0.3-2.1-0.3c-3.1,0-4.6,2.5-4.6,5.7c0,3.5,1.6,5.7,5,5.7c1.2,0,2.5-0.3,3.4-0.7l0.3,1.7
		C551.3,233,549.9,233.3,548.4,233.3z"/>
	<path d="M560.4,233.4c-4.3,0-6.5-2.9-6.5-7.3c0-4.9,3.1-7.7,6.9-7.7c4.3,0,6.5,2.9,6.5,7.3C567.4,230.6,564.2,233.4,560.4,233.4z
		 M560.7,220.1c-2.6,0-4.6,2-4.6,5.6c0,3.5,1.5,5.9,4.6,5.9c2.6,0,4.6-2,4.6-5.6C565.3,222.5,563.7,220.1,560.7,220.1z"/>
	<path d="M577.7,233.2l-3.9-6.5h-1.1v5.1c0.5,0,1.1,0.1,1.6,0.3v1.2h-5.5V232c0.6-0.1,1.2-0.2,1.9-0.3V220c-0.6,0-1.3-0.2-1.9-0.3
		v-1.2h1.7c0.6,0,2.4-0.1,4-0.1c3.1,0,5.1,1,5.1,3.9c0,2.3-1.6,3.6-3.9,4c0.3,0.4,0.7,0.9,1,1.3l2.5,4c0.5,0.1,1.1,0.2,1.7,0.3v1.2
		H577.7z M574.2,220.1c-0.4,0-1.1,0-1.5,0.1v5h1.7c2.1,0,3.3-1,3.3-2.6C577.6,220.8,576.5,220.1,574.2,220.1z"/>
	<path d="M595.6,220v13.1h-2.7l-5.6-9.2c-0.6-1.1-1.2-2.2-1.7-3.2c0.2,2.5,0.2,6.3,0.2,10.9c0.6,0,1.2,0.2,1.7,0.3v1.2H582V232
		c0.6-0.1,1.2-0.3,1.9-0.3V220c-0.6,0-1.3-0.2-1.9-0.3v-1.2h4.6l5.6,9.1c0.6,1,1.2,2.2,1.7,3.2c-0.2-2.5-0.2-6.3-0.2-10.8
		c-0.6,0-1.2-0.2-1.7-0.3v-1.2h5.1v1.2C596.6,219.9,596.1,220,595.6,220z"/>
	<path d="M598.7,233.2V232c0.6-0.1,1.2-0.2,1.9-0.3V220c-0.6,0-1.3-0.2-1.9-0.3v-1.2h9.4v3.4h-1.4c-0.1-0.7-0.2-1.3-0.3-1.8h-3.9
		v4.8h3.1c0.1-0.5,0.2-1,0.3-1.5h1.2v4.4h-1.2c-0.1-0.5-0.2-1-0.3-1.5h-3.1v5.2h3.9c0.1-0.6,0.2-1.2,0.3-1.9h1.4v3.5H598.7z"/>
	<path d="M619,233.2l-3.9-6.5H614v5.1c0.5,0,1.1,0.1,1.6,0.3v1.2h-5.5V232c0.6-0.1,1.2-0.2,1.9-0.3V220c-0.6,0-1.3-0.2-1.9-0.3v-1.2
		h1.7c0.6,0,2.4-0.1,4-0.1c3.1,0,5.1,1,5.1,3.9c0,2.3-1.6,3.6-3.9,4c0.3,0.4,0.7,0.9,1,1.3l2.5,4c0.5,0.1,1.1,0.2,1.7,0.3v1.2H619z
		 M615.5,220.1c-0.4,0-1.1,0-1.5,0.1v5h1.7c2.1,0,3.3-1,3.3-2.6C618.9,220.8,617.8,220.1,615.5,220.1z"/>
	<path d="M627,233.3c-1.1,0-2.2-0.1-3.1-0.4v-3.5h1.4c0.1,0.7,0.2,1.4,0.3,1.9c0.5,0.1,1,0.2,1.6,0.2c1.7,0,3.1-0.7,3.1-2.5
		c0-3.3-6.7-2-6.7-6.7c0-2.4,1.9-4.1,5.2-4.1c1,0,1.9,0.1,2.8,0.3v3.3h-1.4c-0.1-0.7-0.2-1.4-0.3-1.9c-0.3-0.1-0.8-0.1-1.3-0.1
		c-1.9,0-2.9,0.9-2.9,2.3c0,3.2,6.7,2,6.7,6.6C632.4,231.5,630.4,233.3,627,233.3z"/>
	<path d="M640.2,237.7l-1.4-0.7c1.8-3,2.7-6.4,2.7-9.9c0-3.7-0.9-7-2.7-10.1l1.5-0.7c2.5,4,3.1,7.5,3.1,10.6
		C643.4,230.1,642.6,233.8,640.2,237.7z"/>
	<path d="M651.8,236.5l-0.8-0.7c1.4-1.5,1.4-2.5,0.9-3.1c-0.6-0.8-0.1-1.9,0.9-1.9C654.5,230.7,655.2,233.4,651.8,236.5z M652.9,227
		c-0.7,0-1.3-0.6-1.3-1.3c0-0.7,0.6-1.3,1.3-1.3s1.3,0.6,1.3,1.3C654.2,226.4,653.6,227,652.9,227z"/>
	<path d="M416.5,253.7h-7c-0.1,2.8,1.1,4,3.4,4c1,0,2.1-0.2,3.1-0.6l0.3,1.5c-1.1,0.4-2.4,0.7-3.7,0.7c-3.3,0-5-1.7-5-5.5
		c0-3.2,1.8-5.6,4.8-5.6c3,0,4.3,2,4.3,4.4C416.5,252.8,416.5,253.2,416.5,253.7z M412.1,249.6c-1.4,0-2.4,1-2.6,2.7h5
		C414.6,250.6,413.7,249.6,412.1,249.6z"/>
	<path d="M417.9,259.1v-1.2c0.5-0.1,1.2-0.2,1.8-0.3v-12.8c-0.5-0.1-1.2-0.2-1.9-0.2v-1.2c1.1-0.1,2.5-0.2,3.8-0.2v14.3
		c0.6,0,1.3,0.2,1.8,0.3v1.2H417.9z"/>
	<path d="M424.3,259.1v-1.2c0.5-0.1,1.2-0.2,1.8-0.3v-12.8c-0.5-0.1-1.2-0.2-1.9-0.2v-1.2c1.1-0.1,2.5-0.2,3.8-0.2v14.3
		c0.6,0,1.3,0.2,1.8,0.3v1.2H424.3z"/>
	<path d="M430.8,259.1v-1.2c0.6-0.1,1.2-0.2,1.9-0.3v-7.8c-0.5-0.1-1.3-0.2-1.9-0.2v-1.2c1.1-0.1,2.6-0.2,3.8-0.2v9.3
		c0.6,0,1.3,0.2,1.8,0.3v1.2H430.8z M433.7,246.2c-0.7,0-1.3-0.5-1.3-1.3s0.6-1.3,1.3-1.3c0.7,0,1.3,0.6,1.3,1.3
		C435,245.6,434.4,246.2,433.7,246.2z"/>
	<path d="M442.6,259.2c-0.7,0-1.2,0-1.8-0.1v3.9c0.6,0,1.3,0.2,1.9,0.3v1.2H437v-1.2c0.6-0.1,1.1-0.2,1.8-0.3v-13.1
		c-0.5-0.1-1.2-0.2-1.8-0.2v-1.2c1.1-0.1,2.5-0.2,3.7-0.2c0,0.6-0.1,1.6-0.2,2.2l0,0c0.6-1.5,1.9-2.4,3.6-2.4c2.5,0,4,1.8,4,5.1
		C448.1,257,446.1,259.2,442.6,259.2z M443.7,249.7c-1.9,0-2.9,2.3-2.9,4.1v3.5c0.6,0.2,1.2,0.3,1.9,0.3c2,0,3.4-1.2,3.4-4.3
		C446.1,251.1,445.4,249.7,443.7,249.7z"/>
	<path d="M452.9,259.3c-0.8,0-1.8-0.1-2.5-0.3v-3h1.2c0.1,0.5,0.2,1.1,0.3,1.7c0.4,0.1,0.8,0.1,1.3,0.1c1.4,0,2.4-0.6,2.4-1.7
		c0-2.4-5.4-1-5.4-4.7c0-1.8,1.5-3.2,4.3-3.2c0.8,0,1.7,0.1,2.5,0.3v2.9h-1.2c-0.1-0.5-0.2-1.1-0.3-1.7c-0.4-0.1-0.8-0.1-1.2-0.1
		c-1.4,0-2.2,0.6-2.2,1.6c0,2.4,5.4,1.1,5.4,4.6C457.4,257.7,455.7,259.3,452.9,259.3z"/>
	<path d="M468.4,253.7h-7c-0.1,2.8,1.1,4,3.4,4c1,0,2.1-0.2,3.1-0.6l0.3,1.5c-1.1,0.4-2.4,0.7-3.7,0.7c-3.3,0-5-1.7-5-5.5
		c0-3.2,1.8-5.6,4.8-5.6c3,0,4.3,2,4.3,4.4C468.5,252.8,468.5,253.2,468.4,253.7z M464.1,249.6c-1.4,0-2.4,1-2.6,2.7h5
		C466.5,250.6,465.6,249.6,464.1,249.6z"/>
	<path d="M478.8,263.6c-2.5-4-3.2-7.5-3.2-10.7c0-3.2,0.7-6.9,3.2-10.7l1.4,0.7c-1.8,3-2.7,6.4-2.7,10c0,3.7,0.9,7,2.7,10
		L478.8,263.6z"/>
	<path d="M493.6,259.1l-2.4-4l-2.4,4h-3.2v-1.2c0.6-0.1,1.3-0.3,1.8-0.3l2.6-3.9l-2.5-3.9c-0.6,0-1.2-0.2-1.8-0.3v-1.2h3.3l2.3,3.9
		l2.3-3.9h3.1v1.2c-0.6,0.1-1.3,0.3-1.8,0.3l-2.4,3.8l2.6,4c0.6,0,1.2,0.2,1.8,0.3v1.2H493.6z"/>
	<path d="M499.4,259.1v-1.8h4v-9.1l-3.7,2.4l-0.7-1.7l4.8-2.9h1.7v11.3h3.4v1.8H499.4z"/>
	<path d="M516.2,262.4l-0.8-0.7c1.4-1.5,1.4-2.5,0.9-3.1c-0.6-0.8-0.1-1.9,0.9-1.9C518.8,256.6,519.6,259.4,516.2,262.4z"/>
	<path d="M534.1,249.8l-3.8,10.5c-1.2,3.3-2.3,4.4-4.7,4.4c-0.4,0-1,0-1.5-0.1l0.2-1.8c0.5,0.2,0.9,0.2,1.4,0.2
		c1.2,0,1.8-0.6,2.6-2.7l0.5-1.2h-0.5l-3.3-9.3c-0.5,0-1-0.1-1.4-0.3v-1.2h4.9v1.2c-0.4,0.1-0.9,0.2-1.4,0.3l1.6,4.6
		c0.3,1,0.6,1.8,0.8,2.7h0c0.2-0.7,0.6-2,1-3.2l1.4-4.1c-0.5,0-1-0.1-1.4-0.3v-1.2h4.8v1.2C535.1,249.6,534.6,249.7,534.1,249.8z"/>
	<path d="M537.9,259.1v-1.8h4v-9.1l-3.7,2.4l-0.7-1.7l4.8-2.9h1.7v11.3h3.4v1.8H537.9z"/>
	<path d="M554.7,262.4l-0.8-0.7c1.4-1.5,1.4-2.5,0.9-3.1c-0.6-0.8-0.1-1.9,0.9-1.9C557.3,256.6,558,259.4,554.7,262.4z"/>
	<path d="M570.2,259.1l-2.4-4l-2.4,4h-3.2v-1.2c0.6-0.1,1.3-0.3,1.8-0.3l2.6-3.9l-2.5-3.9c-0.6,0-1.2-0.2-1.8-0.3v-1.2h3.3l2.3,3.9
		l2.3-3.9h3.1v1.2c-0.6,0.1-1.3,0.3-1.8,0.3l-2.4,3.8l2.6,4c0.6,0,1.2,0.2,1.8,0.3v1.2H570.2z"/>
	<path d="M575.5,259.1v-1.6l3.1-2.8c2.7-2.3,3.4-3.2,3.4-4.7c0-1.4-0.8-2.4-2.7-2.4c-1.3,0-2.4,0.6-3.1,1.1l-0.4-1.7
		c1.1-0.7,2.4-1.1,4-1.1c2.9,0,4.4,1.6,4.4,3.8c0,1.8-1,3.2-3.3,5.3l-2.6,2.2l-0.1,0c1-0.1,3.4-0.1,6.6-0.1v1.9H575.5z"/>
	<path d="M592.8,262.4l-0.8-0.7c1.4-1.5,1.4-2.5,0.9-3.1c-0.6-0.8-0.1-1.9,0.9-1.9C595.4,256.6,596.1,259.4,592.8,262.4z"/>
	<path d="M610.7,249.8l-3.8,10.5c-1.2,3.3-2.3,4.4-4.7,4.4c-0.4,0-1,0-1.5-0.1l0.2-1.8c0.5,0.2,0.9,0.2,1.4,0.2
		c1.2,0,1.8-0.6,2.6-2.7l0.5-1.2h-0.5l-3.3-9.3c-0.5,0-1-0.1-1.4-0.3v-1.2h4.9v1.2c-0.4,0.1-0.9,0.2-1.4,0.3l1.6,4.6
		c0.3,1,0.6,1.8,0.8,2.7h0c0.2-0.7,0.6-2,1-3.2l1.4-4.1c-0.5,0-1-0.1-1.4-0.3v-1.2h4.8v1.2C611.7,249.6,611.2,249.7,610.7,249.8z"/>
	<path d="M614,259.1v-1.6l3.1-2.8c2.7-2.3,3.4-3.2,3.4-4.7c0-1.4-0.8-2.4-2.7-2.4c-1.3,0-2.4,0.6-3.1,1.1l-0.4-1.7
		c1.1-0.7,2.4-1.1,4-1.1c2.9,0,4.4,1.6,4.4,3.8c0,1.8-1,3.2-3.3,5.3l-2.6,2.2l-0.1,0c1-0.1,3.4-0.1,6.6-0.1v1.9H614z"/>
	<path d="M631.9,263.6l-1.4-0.7c1.8-3,2.7-6.4,2.7-9.9c0-3.7-0.9-7-2.7-10.1l1.5-0.7c2.5,4,3.1,7.5,3.1,10.6
		C635,256,634.3,259.7,631.9,263.6z"/>
	<path d="M643.5,262.4l-0.8-0.7c1.4-1.5,1.4-2.5,0.9-3.1c-0.6-0.8-0.1-1.9,0.9-1.9C646.1,256.6,646.9,259.4,643.5,262.4z
		 M644.6,252.9c-0.7,0-1.3-0.6-1.3-1.3c0-0.7,0.6-1.3,1.3-1.3s1.3,0.6,1.3,1.3C645.9,252.4,645.3,252.9,644.6,252.9z"/>
</g>
<g>
	<path d="M127.6,135.4c-3.6-3.3-5.3-6.7-5.3-10.9c0-4.4,2.1-8.1,5.4-11l1.1,1.1c-2.9,2.9-4.5,6.2-4.5,9.7c0,3.6,1.5,6.9,4.5,9.9
		L127.6,135.4z"/>
	<path d="M134,130.6v-1.8h4v-9.1l-3.7,2.4l-0.7-1.7l4.8-2.9h1.7v11.3h3.4v1.8H134z"/>
	<path d="M147.6,133.4c2.2-0.6,2.9-1.6,2.9-2.4c0-1.4-1.1-1.4-1.1-2.5c0-0.9,0.6-1.6,1.5-1.6c1.4,0,2,1.3,2,2.7c0,2.7-1.8,4.3-5,5
		L147.6,133.4z"/>
	<path d="M159.9,130.6v-1.8h4v-9.1l-3.7,2.4l-0.7-1.7l4.8-2.9h1.7v11.3h3.4v1.8H159.9z"/>
	<path d="M174.9,113.5c3.6,3.3,5.3,6.7,5.3,10.9c0,4.4-2.1,8.1-5.4,11l-1.1-1.1c2.9-2.9,4.5-6.2,4.5-9.7c0-3.6-1.5-6.9-4.5-9.9
		L174.9,113.5z"/>
</g>
<g>
	<path d="M265.4,313c-3.6-3.3-5.3-6.7-5.3-10.9c0-4.4,2.1-8.1,5.4-11l1.1,1.1c-2.9,2.9-4.5,6.2-4.5,9.7c0,3.6,1.5,6.9,4.5,9.9
		L265.4,313z"/>
	<path d="M279,306.3v3.6H277v-3.6h-6.6l-0.2-1.6l6-9.5h2.7v9.4h2.5v1.8H279z M277.1,297L277.1,297l-4.9,7.6c1.3,0,4,0,4.9,0V297z"/>
	<path d="M285.4,311c2.2-0.6,2.9-1.6,2.9-2.4c0-1.4-1.1-1.4-1.1-2.5c0-0.9,0.6-1.6,1.5-1.6c1.4,0,2,1.3,2,2.7c0,2.7-1.8,4.3-5,5
		L285.4,311z"/>
	<path d="M300,310.2c-0.7,0-1.6-0.1-2.4-0.2l0.2-1.7c0.7,0.2,1.7,0.3,2.4,0.3c2.6,0,4-1.5,4-3.2c0-1.8-1.5-2.8-3.9-2.8
		c-0.9,0-1.7,0.1-2.2,0.2v-7.4h7.6v1.9l-5.8,0v3.8c0.4,0,0.8,0,1.1,0c3.6,0,5.4,1.8,5.4,4.1C306.3,307.9,303.8,310.2,300,310.2z"/>
	<path d="M312.6,291.1c3.6,3.3,5.3,6.7,5.3,10.9c0,4.4-2.1,8.1-5.4,11l-1.1-1.1c2.9-2.9,4.5-6.2,4.5-9.7c0-3.6-1.5-6.9-4.5-9.9
		L312.6,291.1z"/>
</g>
<g>
	<path fill="#808080" d="M55.7,424.7v-1.2c0.6-0.1,1.2-0.2,1.9-0.3v-11.7c-0.6,0-1.3-0.2-1.9-0.3v-1.2h9.4v3.4h-1.4
		c-0.1-0.7-0.2-1.3-0.3-1.8h-3.9v4.8h3.1c0.1-0.5,0.2-1,0.3-1.5h1.2v4.4h-1.2c-0.1-0.5-0.2-1-0.3-1.5h-3.1v5.2h3.9
		c0.1-0.6,0.2-1.2,0.3-1.9h1.4v3.5H55.7z"/>
	<path fill="#808080" d="M74.7,424.7l-2.4-4l-2.4,4h-3.2v-1.2c0.6-0.1,1.3-0.3,1.8-0.3l2.6-3.9l-2.5-3.9c-0.6,0-1.2-0.2-1.8-0.3
		v-1.2h3.3l2.3,3.9l2.3-3.9h3.1v1.2c-0.6,0.1-1.3,0.3-1.8,0.3l-2.4,3.8l2.6,4c0.6,0,1.2,0.2,1.8,0.3v1.2H74.7z"/>
	<path fill="#808080" d="M85.7,424.7c0-0.8,0-1.5,0.1-2.1h0c-0.5,1.3-1.9,2.3-3.7,2.3c-1.8,0-3-1.1-3-2.8c0-2.3,2.4-3.7,6.4-3.7
		v-0.8c0-1.5-0.5-2.4-2.2-2.4c-0.6,0-1.4,0.1-2,0.3c0,0.5-0.2,1.1-0.3,1.8h-1.2v-2.9c1.1-0.3,2.4-0.6,3.7-0.6c3.2,0,4,1.4,4,3.6v5.8
		c0.5,0.1,1.2,0.2,1.8,0.2v1.2C88.4,424.6,86.9,424.7,85.7,424.7z M85.6,419.7c-3.4,0-4.5,0.8-4.5,2c0,0.9,0.6,1.6,1.6,1.6
		c1.7,0,2.9-1.7,2.9-3.4V419.7z"/>
	<path fill="#808080" d="M105.7,424.7v-6.9c0-1.5-0.3-2.4-1.7-2.4c-1.5,0-3,1.6-3,4.2v3.7c0.6,0,1.2,0.1,1.8,0.3v1.2H99v-6.9
		c0-1.4-0.3-2.4-1.8-2.4c-1.6,0-3,1.8-3,4.2v3.7c0.6,0,1.2,0.1,1.7,0.3v1.2h-5.6v-1.2c0.6-0.1,1.2-0.2,1.9-0.3v-7.8
		c-0.5-0.1-1.3-0.2-1.9-0.2v-1.2c1.1-0.1,2.6-0.2,3.8-0.2c0,0.6-0.1,1.6-0.2,2.3l0,0c0.6-1.5,2-2.5,3.7-2.5c2.3,0,2.9,1.6,3,2.4
		c0.4-1,1.6-2.4,3.7-2.4c2,0,3.2,1.1,3.2,3.5v6c0.6,0,1.3,0.2,1.8,0.3v1.2H105.7z"/>
	<path fill="#808080" d="M115.6,424.8c-0.7,0-1.2,0-1.8-0.1v3.9c0.6,0,1.3,0.2,1.9,0.3v1.2H110v-1.2c0.6-0.1,1.1-0.2,1.8-0.3v-13.1
		c-0.5-0.1-1.2-0.2-1.8-0.2v-1.2c1.1-0.1,2.5-0.2,3.7-0.2c0,0.6-0.1,1.6-0.2,2.2l0,0c0.6-1.5,1.9-2.4,3.6-2.4c2.5,0,4,1.8,4,5.1
		C121.1,422.6,119.1,424.8,115.6,424.8z M116.7,415.3c-1.9,0-2.9,2.3-2.9,4.1v3.5c0.6,0.2,1.2,0.3,1.9,0.3c2,0,3.4-1.2,3.4-4.3
		C119.1,416.6,118.3,415.3,116.7,415.3z"/>
	<path fill="#808080" d="M122.4,424.7v-1.2c0.5-0.1,1.2-0.2,1.8-0.3v-12.8c-0.5-0.1-1.2-0.2-1.9-0.2V409c1.1-0.1,2.5-0.2,3.8-0.2
		v14.3c0.6,0,1.3,0.2,1.8,0.3v1.2H122.4z"/>
	<path fill="#808080" d="M138.2,419.3h-7c-0.1,2.8,1.1,4,3.4,4c1,0,2.1-0.2,3.1-0.6l0.3,1.5c-1.1,0.4-2.4,0.7-3.7,0.7
		c-3.3,0-5-1.7-5-5.5c0-3.2,1.8-5.6,4.8-5.6c3,0,4.3,2,4.3,4.4C138.3,418.4,138.2,418.8,138.2,419.3z M133.9,415.2
		c-1.4,0-2.4,1-2.6,2.7h5C136.3,416.2,135.4,415.2,133.9,415.2z"/>
	<path fill="#808080" d="M142.7,418.5c-0.7,0-1.3-0.6-1.3-1.3c0-0.7,0.6-1.3,1.3-1.3c0.7,0,1.3,0.6,1.3,1.3
		C144,417.9,143.4,418.5,142.7,418.5z M142.7,424.9c-0.7,0-1.3-0.6-1.3-1.3c0-0.7,0.6-1.3,1.3-1.3c0.7,0,1.3,0.6,1.3,1.3
		C144,424.3,143.4,424.9,142.7,424.9z"/>
	<path d="M163.7,419.3h-7c-0.1,2.8,1.1,4,3.4,4c1,0,2.1-0.2,3.1-0.6l0.3,1.5c-1.1,0.4-2.4,0.7-3.7,0.7c-3.3,0-5-1.7-5-5.5
		c0-3.2,1.8-5.6,4.8-5.6c3,0,4.3,2,4.3,4.4C163.8,418.4,163.8,418.8,163.7,419.3z M159.4,415.2c-1.4,0-2.4,1-2.6,2.7h5
		C161.9,416.2,160.9,415.2,159.4,415.2z"/>
	<path d="M165.2,424.7v-1.2c0.5-0.1,1.2-0.2,1.8-0.3v-12.8c-0.5-0.1-1.2-0.2-1.9-0.2V409c1.1-0.1,2.5-0.2,3.8-0.2v14.3
		c0.6,0,1.3,0.2,1.8,0.3v1.2H165.2z"/>
	<path d="M171.5,424.7v-1.2c0.5-0.1,1.2-0.2,1.8-0.3v-12.8c-0.5-0.1-1.2-0.2-1.9-0.2V409c1.1-0.1,2.5-0.2,3.8-0.2v14.3
		c0.6,0,1.3,0.2,1.8,0.3v1.2H171.5z"/>
	<path d="M178.1,424.7v-1.2c0.6-0.1,1.2-0.2,1.9-0.3v-7.8c-0.5-0.1-1.3-0.2-1.9-0.2v-1.2c1.1-0.1,2.6-0.2,3.8-0.2v9.3
		c0.6,0,1.3,0.2,1.8,0.3v1.2H178.1z M181,411.8c-0.7,0-1.3-0.5-1.3-1.3s0.6-1.3,1.3-1.3c0.7,0,1.3,0.6,1.3,1.3
		C182.3,411.2,181.7,411.8,181,411.8z"/>
	<path d="M189.9,424.8c-0.7,0-1.2,0-1.8-0.1v3.9c0.6,0,1.3,0.2,1.9,0.3v1.2h-5.6v-1.2c0.6-0.1,1.1-0.2,1.8-0.3v-13.1
		c-0.5-0.1-1.2-0.2-1.8-0.2v-1.2c1.1-0.1,2.5-0.2,3.7-0.2c0,0.6-0.1,1.6-0.2,2.2l0,0c0.6-1.5,1.9-2.4,3.6-2.4c2.5,0,4,1.8,4,5.1
		C195.4,422.6,193.4,424.8,189.9,424.8z M191,415.3c-1.9,0-2.9,2.3-2.9,4.1v3.5c0.6,0.2,1.2,0.3,1.9,0.3c2,0,3.4-1.2,3.4-4.3
		C193.4,416.6,192.6,415.3,191,415.3z"/>
	<path d="M200.1,424.9c-0.8,0-1.8-0.1-2.5-0.3v-3h1.2c0.1,0.5,0.2,1.1,0.3,1.7c0.4,0.1,0.8,0.1,1.3,0.1c1.4,0,2.4-0.6,2.4-1.7
		c0-2.4-5.4-1-5.4-4.7c0-1.8,1.5-3.2,4.3-3.2c0.8,0,1.7,0.1,2.5,0.3v2.9H203c-0.1-0.5-0.2-1.1-0.3-1.7c-0.4-0.1-0.8-0.1-1.2-0.1
		c-1.4,0-2.2,0.6-2.2,1.6c0,2.4,5.4,1.1,5.4,4.6C204.7,423.3,203,424.9,200.1,424.9z"/>
	<path d="M215.7,419.3h-7c-0.1,2.8,1.1,4,3.4,4c1,0,2.1-0.2,3.1-0.6l0.3,1.5c-1.1,0.4-2.4,0.7-3.7,0.7c-3.3,0-5-1.7-5-5.5
		c0-3.2,1.8-5.6,4.8-5.6c3,0,4.3,2,4.3,4.4C215.8,418.4,215.7,418.8,215.7,419.3z M211.4,415.2c-1.4,0-2.4,1-2.6,2.7h5
		C213.8,416.2,212.9,415.2,211.4,415.2z"/>
	<path d="M231.6,424.7v-1.2c0.5-0.1,1.1-0.2,1.7-0.3l-1-7.5c-0.2-1.6-0.4-2.8-0.4-3.7h0c-0.2,0.7-0.3,1.6-0.7,2.5l-3.5,10h-1.8
		l-3.3-9.5c-0.4-1.1-0.6-2.2-0.8-3h0c0,1.1-0.2,2.4-0.3,3.7l-0.9,7.4c0.6,0,1.2,0.2,1.7,0.3v1.2h-5v-1.2c0.4-0.1,1-0.2,1.3-0.2
		l1.7-11.7c-0.6,0-1.3-0.2-1.9-0.3v-1.2h4.6l3.1,8.9c0.3,0.8,0.6,2,0.8,2.9h0c0.2-1,0.5-1.8,0.8-2.8l3.1-9h4.7v1.2
		c-0.6,0.1-1.2,0.2-1.9,0.3l1.8,11.7c0.4,0,1,0.2,1.3,0.2v1.2H231.6z"/>
	<path d="M242.7,424.9c-2.9,0-4.8-1.7-4.8-5.4c0-3.2,2-5.7,5.2-5.7c2.7,0,4.8,1.5,4.8,5.4C247.9,422.4,245.9,424.9,242.7,424.9z
		 M242.9,415.3c-1.6,0-3,1.2-3,4c0,2.5,1,3.9,3,3.9c1.6,0,3-1.3,3-3.9C245.9,416.8,244.9,415.3,242.9,415.3z"/>
	<path d="M257.1,424.7c0-0.6,0-1.6,0.2-2.2l0,0c-0.6,1.4-1.9,2.4-3.6,2.4c-2.6,0-4-1.9-4-5.1c0-3.8,2.2-6,5.6-6c0.6,0,1.2,0,1.8,0.1
		v-3.5c-0.5-0.1-1.3-0.2-1.9-0.2V409c1.1-0.1,2.6-0.2,3.8-0.2v14.2c0.5,0.1,1.2,0.2,1.8,0.2v1.2
		C259.8,424.6,258.3,424.7,257.1,424.7z M257.1,415.5c-0.6-0.2-1.3-0.2-1.9-0.2c-2.1,0-3.4,1.2-3.4,4.3c0,2.3,0.8,3.6,2.4,3.6
		c1.9,0,2.9-2.3,2.9-4.1V415.5z"/>
	<path d="M271,419.3h-7c-0.1,2.8,1.1,4,3.4,4c1,0,2.1-0.2,3.1-0.6l0.3,1.5c-1.1,0.4-2.4,0.7-3.7,0.7c-3.3,0-5-1.7-5-5.5
		c0-3.2,1.8-5.6,4.8-5.6c3,0,4.3,2,4.3,4.4C271.1,418.4,271.1,418.8,271,419.3z M266.7,415.2c-1.4,0-2.4,1-2.6,2.7h5
		C269.1,416.2,268.2,415.2,266.7,415.2z"/>
	<path d="M281.4,429.2c-2.5-4-3.2-7.5-3.2-10.7c0-3.2,0.7-6.9,3.2-10.7l1.4,0.7c-1.8,3-2.7,6.4-2.7,10c0,3.7,0.9,7,2.7,10
		L281.4,429.2z"/>
	<path d="M295.7,424.9c-4.4,0-6.7-2.7-6.7-7.1c0-4.5,2.3-7.8,7.1-7.8c1.2,0,2.4,0.2,3.5,0.4v3.6h-1.4c-0.2-0.7-0.2-1.4-0.3-2
		c-0.8-0.2-1.4-0.3-2.1-0.3c-3.1,0-4.6,2.5-4.6,5.7c0,3.5,1.6,5.7,5,5.7c1.2,0,2.5-0.3,3.4-0.7l0.3,1.7
		C298.6,424.5,297.1,424.9,295.7,424.9z"/>
	<path d="M307.7,424.9c-4.3,0-6.5-2.9-6.5-7.3c0-4.9,3.1-7.7,6.9-7.7c4.3,0,6.5,2.9,6.5,7.3C314.6,422.1,311.5,424.9,307.7,424.9z
		 M307.9,411.6c-2.6,0-4.6,2-4.6,5.6c0,3.5,1.5,5.9,4.6,5.9c2.6,0,4.6-2,4.6-5.6C312.5,414,311,411.6,307.9,411.6z"/>
	<path d="M325,424.7l-3.9-6.5H320v5.1c0.5,0,1.1,0.1,1.6,0.3v1.2h-5.5v-1.2c0.6-0.1,1.2-0.2,1.9-0.3v-11.7c-0.6,0-1.3-0.2-1.9-0.3
		v-1.2h1.7c0.6,0,2.4-0.1,4-0.1c3.1,0,5.1,1,5.1,3.9c0,2.3-1.6,3.6-3.9,4c0.3,0.4,0.7,0.9,1,1.3l2.5,4c0.5,0.1,1.1,0.2,1.7,0.3v1.2
		H325z M321.5,411.6c-0.4,0-1.1,0-1.5,0.1v5h1.7c2.1,0,3.3-1,3.3-2.6C324.9,412.3,323.8,411.6,321.5,411.6z"/>
	<path d="M342.9,411.5v13.1h-2.7l-5.6-9.2c-0.6-1.1-1.2-2.2-1.7-3.2c0.2,2.5,0.2,6.3,0.2,10.9c0.6,0,1.2,0.2,1.7,0.3v1.2h-5.5v-1.2
		c0.6-0.1,1.2-0.3,1.9-0.3v-11.7c-0.6,0-1.3-0.2-1.9-0.3v-1.2h4.6l5.6,9.1c0.6,1,1.2,2.2,1.7,3.2c-0.2-2.5-0.2-6.3-0.2-10.8
		c-0.6,0-1.2-0.2-1.7-0.3v-1.2h5.1v1.2C343.9,411.4,343.4,411.5,342.9,411.5z"/>
	<path d="M345.9,424.7v-1.2c0.6-0.1,1.2-0.2,1.9-0.3v-11.7c-0.6,0-1.3-0.2-1.9-0.3v-1.2h9.4v3.4H354c-0.1-0.7-0.2-1.3-0.3-1.8h-3.9
		v4.8h3.1c0.1-0.5,0.2-1,0.3-1.5h1.2v4.4h-1.2c-0.1-0.5-0.2-1-0.3-1.5h-3.1v5.2h3.9c0.1-0.6,0.2-1.2,0.3-1.9h1.4v3.5H345.9z"/>
	<path d="M366.3,424.7l-3.9-6.5h-1.1v5.1c0.5,0,1.1,0.1,1.6,0.3v1.2h-5.5v-1.2c0.6-0.1,1.2-0.2,1.9-0.3v-11.7
		c-0.6,0-1.3-0.2-1.9-0.3v-1.2h1.7c0.6,0,2.4-0.1,4-0.1c3.1,0,5.1,1,5.1,3.9c0,2.3-1.6,3.6-3.9,4c0.3,0.4,0.7,0.9,1,1.3l2.5,4
		c0.5,0.1,1.1,0.2,1.7,0.3v1.2H366.3z M362.8,411.6c-0.4,0-1.1,0-1.5,0.1v5h1.7c2.1,0,3.3-1,3.3-2.6
		C366.2,412.3,365.1,411.6,362.8,411.6z"/>
	<path d="M374.3,424.9c-1.1,0-2.2-0.1-3.1-0.4V421h1.4c0.1,0.7,0.2,1.4,0.3,1.9c0.5,0.1,1,0.2,1.6,0.2c1.7,0,3.1-0.7,3.1-2.5
		c0-3.3-6.7-2-6.7-6.7c0-2.4,1.9-4.1,5.2-4.1c1,0,1.9,0.1,2.8,0.3v3.3h-1.4c-0.1-0.7-0.2-1.4-0.3-1.9c-0.3-0.1-0.8-0.1-1.3-0.1
		c-1.9,0-2.9,0.9-2.9,2.3c0,3.2,6.7,2,6.7,6.6C379.7,423,377.7,424.9,374.3,424.9z"/>
	<path d="M387.5,429.2l-1.4-0.7c1.8-3,2.7-6.4,2.7-9.9c0-3.7-0.9-7-2.7-10.1l1.5-0.7c2.5,4,3.1,7.5,3.1,10.6
		C390.6,421.6,389.9,425.3,387.5,429.2z"/>
	<path d="M399.1,428l-0.8-0.7c1.4-1.5,1.4-2.5,0.9-3.1c-0.6-0.8-0.1-1.9,0.9-1.9C401.8,422.2,402.5,424.9,399.1,428z M400.2,418.5
		c-0.7,0-1.3-0.6-1.3-1.3c0-0.7,0.6-1.3,1.3-1.3c0.7,0,1.3,0.6,1.3,1.3C401.5,417.9,400.9,418.5,400.2,418.5z"/>
	<path d="M165.5,445.2h-7c-0.1,2.8,1.1,4,3.4,4c1,0,2.1-0.2,3.1-0.6l0.3,1.5c-1.1,0.4-2.4,0.7-3.7,0.7c-3.3,0-5-1.7-5-5.5
		c0-3.2,1.8-5.6,4.8-5.6c3,0,4.3,2,4.3,4.4C165.6,444.3,165.5,444.7,165.5,445.2z M161.2,441.1c-1.4,0-2.4,1-2.6,2.7h5
		C163.6,442.2,162.7,441.1,161.2,441.1z"/>
	<path d="M166.9,450.6v-1.2c0.5-0.1,1.2-0.2,1.8-0.3v-12.8c-0.5-0.1-1.2-0.2-1.9-0.2V435c1.1-0.1,2.5-0.2,3.8-0.2v14.3
		c0.6,0,1.3,0.2,1.8,0.3v1.2H166.9z"/>
	<path d="M173.3,450.6v-1.2c0.5-0.1,1.2-0.2,1.8-0.3v-12.8c-0.5-0.1-1.2-0.2-1.9-0.2V435c1.1-0.1,2.5-0.2,3.8-0.2v14.3
		c0.6,0,1.3,0.2,1.8,0.3v1.2H173.3z"/>
	<path d="M179.9,450.6v-1.2c0.6-0.1,1.2-0.2,1.9-0.3v-7.8c-0.5-0.1-1.3-0.2-1.9-0.2V440c1.1-0.1,2.6-0.2,3.8-0.2v9.3
		c0.6,0,1.3,0.2,1.8,0.3v1.2H179.9z M182.8,437.7c-0.7,0-1.3-0.5-1.3-1.3s0.6-1.3,1.3-1.3c0.7,0,1.3,0.6,1.3,1.3
		C184,437.1,183.4,437.7,182.8,437.7z"/>
	<path d="M191.7,450.7c-0.7,0-1.2,0-1.8-0.1v3.9c0.6,0,1.3,0.2,1.9,0.3v1.2h-5.6v-1.2c0.6-0.1,1.1-0.2,1.8-0.3v-13.1
		c-0.5-0.1-1.2-0.2-1.8-0.2V440c1.1-0.1,2.5-0.2,3.7-0.2c0,0.6-0.1,1.6-0.2,2.2l0,0c0.6-1.5,1.9-2.4,3.6-2.4c2.5,0,4,1.8,4,5.1
		C197.2,448.5,195.1,450.7,191.7,450.7z M192.8,441.2c-1.9,0-2.9,2.3-2.9,4.1v3.5c0.6,0.2,1.2,0.3,1.9,0.3c2,0,3.4-1.2,3.4-4.3
		C195.1,442.6,194.4,441.2,192.8,441.2z"/>
	<path d="M201.9,450.8c-0.8,0-1.8-0.1-2.5-0.3v-3h1.2c0.1,0.5,0.2,1.1,0.3,1.7c0.4,0.1,0.8,0.1,1.3,0.1c1.4,0,2.4-0.6,2.4-1.7
		c0-2.4-5.4-1-5.4-4.7c0-1.8,1.5-3.2,4.3-3.2c0.8,0,1.7,0.1,2.5,0.3v2.9h-1.2c-0.1-0.5-0.2-1.1-0.3-1.7c-0.4-0.1-0.8-0.1-1.2-0.1
		c-1.4,0-2.2,0.6-2.2,1.6c0,2.4,5.4,1.1,5.4,4.6C206.5,449.2,204.7,450.8,201.9,450.8z"/>
	<path d="M217.4,445.2h-7c-0.1,2.8,1.1,4,3.4,4c1,0,2.1-0.2,3.1-0.6l0.3,1.5c-1.1,0.4-2.4,0.7-3.7,0.7c-3.3,0-5-1.7-5-5.5
		c0-3.2,1.8-5.6,4.8-5.6c3,0,4.3,2,4.3,4.4C217.5,444.3,217.5,444.7,217.4,445.2z M213.1,441.1c-1.4,0-2.4,1-2.6,2.7h5
		C215.6,442.2,214.6,441.1,213.1,441.1z"/>
	<path d="M232,455.4c-3.6-3.3-5.3-6.7-5.3-10.9c0-4.4,2.1-8.1,5.4-11l1.1,1.1c-2.9,2.9-4.5,6.2-4.5,9.7c0,3.6,1.5,6.9,4.5,9.9
		L232,455.4z"/>
	<path d="M238.4,450.6v-1.8h4v-9.1l-3.7,2.4l-0.7-1.7l4.8-2.9h1.7v11.3h3.4v1.8H238.4z"/>
	<path d="M252.1,453.4c2.2-0.6,2.9-1.6,2.9-2.4c0-1.4-1.1-1.4-1.1-2.5c0-0.9,0.6-1.6,1.5-1.6c1.4,0,2,1.3,2,2.7c0,2.7-1.8,4.3-5,5
		L252.1,453.4z"/>
	<path d="M264.3,450.6v-1.8h4v-9.1l-3.7,2.4l-0.7-1.7l4.8-2.9h1.7v11.3h3.4v1.8H264.3z"/>
	<path d="M278,453.4c2.2-0.6,2.9-1.6,2.9-2.4c0-1.4-1.1-1.4-1.1-2.5c0-0.9,0.6-1.6,1.5-1.6c1.4,0,2,1.3,2,2.7c0,2.7-1.8,4.3-5,5
		L278,453.4z"/>
	<path d="M297.5,448.7v3.6h-1.9v-3.6h-6.6l-0.2-1.6l6-9.5h2.7v9.4h2.5v1.8H297.5z M295.6,439.4L295.6,439.4l-4.9,7.6
		c1.3,0,4,0,4.9,0V439.4z"/>
	<path d="M303.9,453.4c2.2-0.6,2.9-1.6,2.9-2.4c0-1.4-1.1-1.4-1.1-2.5c0-0.9,0.6-1.6,1.5-1.6c1.4,0,2,1.3,2,2.7c0,2.7-1.8,4.3-5,5
		L303.9,453.4z"/>
	<path d="M318.5,452.6c-0.7,0-1.6-0.1-2.4-0.2l0.2-1.7c0.7,0.2,1.7,0.3,2.4,0.3c2.6,0,4-1.5,4-3.2c0-1.8-1.5-2.8-3.9-2.8
		c-0.9,0-1.7,0.1-2.2,0.2v-7.4h7.6v1.9l-5.8,0v3.8c0.4,0,0.8,0,1.1,0c3.6,0,5.4,1.8,5.4,4.1C324.8,450.3,322.3,452.6,318.5,452.6z"
		/>
	<path d="M331.1,433.6c3.6,3.3,5.3,6.7,5.3,10.9c0,4.4-2.1,8.1-5.4,11l-1.1-1.1c2.9-2.9,4.5-6.2,4.5-9.7c0-3.6-1.5-6.9-4.5-9.9
		L331.1,433.6z"/>
	<path d="M355.2,453.9l-0.8-0.7c1.4-1.5,1.4-2.5,0.9-3.1c-0.6-0.8-0.1-1.9,0.9-1.9C357.8,448.1,358.5,450.9,355.2,453.9z
		 M356.2,444.4c-0.7,0-1.3-0.6-1.3-1.3c0-0.7,0.6-1.3,1.3-1.3c0.7,0,1.3,0.6,1.3,1.3C357.6,443.9,357,444.4,356.2,444.4z"/>
</g>
<ellipse fill="none" stroke="#000000" stroke-width="2" cx="180.9" cy="230.3" rx="66.9" ry="89.2"/>
</svg>
