<?xml version="1.0" encoding="utf-8"?>
<!-- Generator: Adobe Illustrator 18.0.0, SVG Export Plug-In . SVG Version: 6.00 Build 0)  -->
<!DOCTYPE svg PUBLIC "-//W3C//DTD SVG 1.1//EN" "http://www.w3.org/Graphics/SVG/1.1/DTD/svg11.dtd">
<svg version="1.1" id="Layer_1" xmlns="http://www.w3.org/2000/svg" xmlns:xlink="http://www.w3.org/1999/xlink" x="0px" y="0px"
	 viewBox="0 0 612 792" enable-background="new 0 0 612 792" xml:space="preserve">
<g>
	<rect x="26.9" y="22" fill="none" stroke="#999999" stroke-width="1.3" width="578.2" height="578.2"/>
	<line fill="none" stroke="#999999" stroke-width="1.3" x1="26.9" y1="504.1" x2="605.3" y2="504.1"/>
	<line fill="none" stroke="#999999" stroke-width="1.3" x1="26.9" y1="407.6" x2="605.3" y2="407.6"/>
	<line fill="none" stroke="#999999" stroke-width="1.3" x1="26.9" y1="311.6" x2="605.3" y2="311.6"/>
	<line fill="none" stroke="#999999" stroke-width="1.3" x1="26.9" y1="215" x2="605.3" y2="215"/>
	<line fill="none" stroke="#999999" stroke-width="1.3" x1="26.9" y1="118.4" x2="605.3" y2="118.4"/>
	<line fill="none" stroke="#999999" stroke-width="1.3" x1="508.7" y1="22" x2="508.7" y2="600.7"/>
	<line fill="none" stroke="#999999" stroke-width="1.3" x1="412.6" y1="22" x2="412.6" y2="600.7"/>
	<line fill="none" stroke="#999999" stroke-width="1.3" x1="316" y1="22" x2="316" y2="600.7"/>
	<line fill="none" stroke="#999999" stroke-width="1.3" x1="219.6" y1="22" x2="219.6" y2="600.7"/>
	<line fill="none" stroke="#999999" stroke-width="1.3" x1="123.5" y1="22" x2="123.5" y2="600.7"/>
</g>
<g enable-background="new    ">
	<path d="M38.6,754.3l-5.2-8.7l-5.2,8.7h-6.9v-2.5c1.3-0.3,2.7-0.6,4-0.6l5.7-8.4l-5.3-8.4c-1.3-0.1-2.7-0.4-4-0.6v-2.5h7.1l4.9,8.6
		l5-8.6h6.8v2.5c-1.3,0.3-2.7,0.6-4,0.6l-5.2,8.1l5.6,8.6c1.3,0.1,2.5,0.4,4,0.6v2.5h-7.4V754.3z"/>
</g>
<g enable-background="new    ">
	<path d="M-111.9,579.5l-8.3,22.6c-2.5,7.1-4.9,9.4-10,9.4c-0.9,0-2.2-0.1-3.2-0.3l0.3-3.8c1,0.3,2.1,0.4,3.1,0.4
		c2.5,0,4-1.3,5.6-5.7l1-2.7h-1l-7.1-20.1c-1-0.1-2.1-0.3-2.9-0.6v-2.5h10.6v2.5c-0.9,0.3-1.9,0.4-3.1,0.6l3.5,10
		c0.7,2.2,1.3,3.8,1.8,5.7h0.1c0.4-1.6,1.3-4.3,2.2-6.9l3.1-8.8c-1.2-0.1-2.2-0.3-3.1-0.6v-2.5h10.3v2.5
		C-109.9,579.2-110.9,579.5-111.9,579.5z"/>
</g>
<g enable-background="new    ">
	<path d="M32.7,674.1c-6.2,0-11.5-3.7-11.5-14.4c0-9.3,5.6-14.4,12.2-14.4c6,0,11.5,3.5,11.5,14.3C44.9,668.8,39.3,674.1,32.7,674.1
		z M33,648.6c-3.8,0-7.4,3.4-7.4,10.8c0,7.8,2.9,11.1,7.4,11.1c3.8,0,7.4-3.2,7.4-10.8C40.5,652,37.6,648.6,33,648.6z"/>
</g>
<text transform="matrix(1 0 0 1 44.7397 673.578)" font-family="'TheSerif-HP5Plain'" font-size="46.6835" letter-spacing="51"> </text>
<g enable-background="new    ">
	<path d="M117.3,673.5v-3.8h8.6v-19.6l-8.1,5.3l-1.5-3.5l10.3-6.3h3.5v24.3h7.2v3.8h-20.1V673.5z"/>
</g>
<text transform="matrix(1 0 0 1 138.1059 673.578)" font-family="'TheSerif-HP5Plain'" font-size="46.6835" letter-spacing="51"> </text>
<g enable-background="new    ">
	<path d="M209.6,673.5v-3.4l6.6-6c5.9-5,7.4-6.9,7.4-10.2c0-3.1-1.8-5.2-5.7-5.2c-2.7,0-5.3,1.3-6.8,2.4l-0.9-3.7
		c2.4-1.5,5.2-2.4,8.6-2.4c6.2,0,9.6,3.5,9.6,8.3c0,4-2.1,6.9-7.2,11.5l-5.6,4.9l-0.1,0.1c2.2-0.1,7.2-0.3,14.3-0.3v4L209.6,673.5
		L209.6,673.5z"/>
</g>
<text transform="matrix(1 0 0 1 231.4725 673.578)" font-family="'TheSerif-HP5Plain'" font-size="46.6835" letter-spacing="51"> </text>
<g enable-background="new    ">
	<path d="M309.3,677.9c-1.9,0-4.1-0.3-5.9-0.7l0.7-3.8c1.6,0.6,3.5,0.9,5.6,0.9c5,0,8.1-2.8,8.1-6.2c0-3.5-2.8-5.7-7.7-5.7
		c-1.6,0-2.8,0.1-4.1,0.1v-3.5h1c6.6,0,10-1.9,10-5.7c0-2.9-2.4-4.6-5.7-4.6c-2.5,0-4.7,0.7-6.6,1.8l-0.7-3.7c2.4-1,5-1.6,8.1-1.6
		c6.2,0,9.4,3.1,9.4,7.5c0,3.7-2.4,6.2-5.7,7.2v0.1c3.8,0.4,6.8,3.7,6.8,7.5C322.5,673.5,317.1,677.9,309.3,677.9z"/>
</g>
<text transform="matrix(1 0 0 1 324.8397 673.578)" font-family="'TheSerif-HP5Plain'" font-size="46.6835" letter-spacing="51"> </text>
<g enable-background="new    ">
	<path d="M413.1,669.7v7.8h-4.1v-7.8h-14.3l-0.3-3.4l13-20.6h5.9v20.2h5.5v3.8H413.1z M408.9,649.3L408.9,649.3l-10.5,16.5
		c2.8-0.1,8.7-0.1,10.5-0.1V649.3z"/>
</g>
<text transform="matrix(1 0 0 1 418.2079 673.578)" font-family="'TheSerif-HP5Plain'" font-size="46.6835" letter-spacing="51"> </text>
<g enable-background="new    ">
	<path d="M505.9,677.9c-1.5,0-3.5-0.1-5.2-0.4l0.3-3.7c1.5,0.4,3.7,0.6,5.3,0.6c5.6,0,8.7-3.2,8.7-7.1c0-4-3.2-6-8.4-6
		c-1.9,0-3.7,0.1-4.9,0.3v-15.9h16.4v4h-12.5v8.3c0.7,0,1.6,0,2.4,0c7.7,0,11.6,4,11.6,8.8C519.6,673.1,514.2,677.9,505.9,677.9z"/>
</g>
<text transform="matrix(1 0 0 1 511.576 673.578)" font-family="'TheSerif-HP5Plain'" font-size="46.6835" letter-spacing="51"> </text>
<g enable-background="new    ">
	<path d="M603.4,674.1c-6.6,0-10.6-4.9-10.6-13.4c0-13.4,6.6-19,15.5-19c0.9,0,2.1,0,2.8,0.1v3.7c-1-0.1-1.9-0.3-3.1-0.3
		c-6,0-9.4,3.5-10.6,10c-0.1,0.4-0.3,1.5-0.4,2.4l0,0c1.5-2.7,4.3-4.1,7.4-4.1c6.2,0,9.7,4,9.7,9.1
		C614,669.5,609.9,674.1,603.4,674.1z M603.7,657.1c-3.8,0-6,3.4-6,6c0,3.8,2.2,7.2,6.3,7.2c3.7,0,6-2.8,6-6.9
		C609.9,659.8,607.7,657.1,603.7,657.1z"/>
</g>
<circle cx="124.5" cy="600.8" r="14.9"/>
<circle cx="412.2" cy="119.2" r="14.9"/>
<g enable-background="new    ">
	<path d="M-36.9,43.4c-6.6,0-10.6-4.9-10.6-13.4c0-13.4,6.6-19,15.5-19c0.9,0,2.1,0,2.8,0.1v3.7c-1-0.1-1.9-0.3-3.1-0.3
		c-6,0-9.4,3.5-10.6,10c-0.1,0.4-0.3,1.3-0.4,2.4l0,0c1.5-2.7,4.3-4.1,7.4-4.1c6.2,0,9.7,4,9.7,9.1C-26.3,38.8-30.6,43.4-36.9,43.4z
		 M-36.6,26.5c-3.8,0-6,3.4-6,6c0,3.8,2.2,7.2,6.3,7.2c3.7,0,6-2.8,6-6.9C-30.6,29.1-32.6,26.5-36.6,26.5z"/>
</g>
<g enable-background="new    ">
	<path d="M-40.9,140.6c-1.5,0-3.5-0.1-5.2-0.4l0.3-3.7c1.5,0.4,3.7,0.6,5.3,0.6c5.6,0,8.7-3.2,8.7-6.9c0-4-3.2-6-8.4-6
		c-1.9,0-3.7,0.1-4.9,0.3v-15.9h16.4v4h-12.5v8.3c0.7,0,1.6,0,2.4,0c7.7,0,11.6,4,11.6,8.8C-27.3,135.7-32.8,140.6-40.9,140.6z"/>
</g>
<g enable-background="new    ">
	<path d="M-30.4,225.6v7.8h-4.1v-7.8h-14.3l-0.3-3.4l13-20.6h5.9v20.2h5.5v3.8L-30.4,225.6L-30.4,225.6z M-34.4,205.4L-34.4,205.4
		l-10.5,16.5c2.8-0.1,8.7-0.1,10.5-0.1V205.4z"/>
</g>
<g enable-background="new    ">
	<path d="M-40.7,327.4c-1.9,0-4.1-0.3-5.9-0.7l0.7-3.8c1.6,0.6,3.5,0.9,5.6,0.9c5,0,8.1-2.8,8.1-6.2c0-3.5-2.8-5.7-7.7-5.7
		c-1.6,0-2.8,0.1-4.1,0.1v-3.5h1c6.6,0,10-1.9,10-5.7c0-2.9-2.4-4.6-5.7-4.6c-2.5,0-4.7,0.7-6.6,1.8l-0.7-3.7c2.4-1,5-1.6,8.1-1.6
		c6.2,0,9.4,3.1,9.4,7.5c0,3.7-2.4,6.2-5.7,7.2v0.1c3.8,0.4,6.8,3.7,6.8,7.5C-27.5,322.9-32.9,327.4-40.7,327.4z"/>
</g>
<g enable-background="new    ">
	<path d="M-47.1,416.4V413l6.6-6c5.9-5,7.4-6.9,7.4-10.2c0-3.1-1.8-5.2-5.7-5.2c-2.7,0-5.3,1.3-6.8,2.4l-0.9-3.7
		c2.4-1.5,5.2-2.4,8.6-2.4c6.2,0,9.6,3.5,9.6,8.3c0,4-2.1,6.9-7.2,11.5l-5.6,4.9l-0.1,0.1c2.2-0.1,7.2-0.3,14.3-0.3v4L-47.1,416.4
		L-47.1,416.4z"/>
</g>
<g enable-background="new    ">
	<path d="M-46,509.7v-3.8h8.6v-19.6l-8.1,5.3l-1.5-3.5l10.3-6.3h3.5V506h7.2v3.8H-46V509.7z"/>
</g>
<g enable-background="new    ">
	<path d="M-37.2,603.5c-6.2,0-11.5-3.7-11.5-14.4c0-9.3,5.6-14.4,12.2-14.4c6,0,11.5,3.5,11.5,14.3C-25,598.3-30.6,603.5-37.2,603.5
		z M-36.9,578.1c-3.8,0-7.4,3.4-7.4,10.8c0,7.8,2.9,11.1,7.4,11.1c3.8,0,7.4-3.2,7.4-10.8C-29.5,581.5-32.5,578.1-36.9,578.1z"/>
</g>
<line fill="none" stroke="#000000" stroke-width="1.3" x1="29.3" y1="22" x2="10.9" y2="22"/>
<line fill="none" stroke="#000000" stroke-width="1.3" x1="29.3" y1="119" x2="10.9" y2="119"/>
<line fill="none" stroke="#000000" stroke-width="1.3" x1="29.3" y1="215" x2="10.9" y2="215"/>
<line fill="none" stroke="#000000" stroke-width="1.3" x1="29.3" y1="311.1" x2="10.9" y2="311.1"/>
<line fill="none" stroke="#000000" stroke-width="1.3" x1="29.3" y1="407.6" x2="10.9" y2="407.6"/>
<line fill="none" stroke="#000000" stroke-width="1.3" x1="29.3" y1="505.4" x2="10.9" y2="505.4"/>
<line fill="none" stroke="#000000" stroke-width="1.3" x1="29.3" y1="599.7" x2="10.9" y2="599.7"/>
<line fill="none" stroke="#000000" stroke-width="1.3" x1="604.6" y1="618.5" x2="604.6" y2="599.8"/>
<line fill="none" stroke="#000000" stroke-width="1.3" x1="507.6" y1="618.5" x2="507.6" y2="599.8"/>
<line fill="none" stroke="#000000" stroke-width="1.3" x1="411.6" y1="618.5" x2="411.6" y2="599.8"/>
<line fill="none" stroke="#000000" stroke-width="1.3" x1="315.5" y1="618.5" x2="315.5" y2="599.8"/>
<line fill="none" stroke="#000000" stroke-width="1.3" x1="218.9" y1="618.5" x2="218.9" y2="599.8"/>
<line fill="none" stroke="#000000" stroke-width="1.3" x1="121" y1="618.5" x2="121" y2="599.8"/>
<line fill="none" stroke="#000000" stroke-width="1.3" x1="26.9" y1="618.5" x2="26.9" y2="599.8"/>
<polyline fill="#FFFFFF" stroke="#000000" stroke-width="1.3" points="-134.1,423.3 -122.6,412 -110.9,423.3 "/>
<line fill="none" stroke="#000000" stroke-width="1.3" x1="-122.6" y1="412" x2="-122.6" y2="547.5"/>
<polyline fill="#FFFFFF" stroke="#000000" stroke-width="1.3" points="203.7,728.7 215.2,740.2 203.7,751.7 "/>
<line fill="none" stroke="#000000" stroke-width="1.3" x1="217.9" y1="740.2" x2="82.4" y2="740.2"/>
<line fill="none" stroke="#000000" stroke-width="1.3" x1="124.5" y1="599.7" x2="411.7" y2="118.4"/>
<g enable-background="new    ">
	<path d="M457.9,131.4c-1.8,0-4.7-0.1-8.1-0.1h-4.1v-2.5c1.2-0.3,2.7-0.4,4.1-0.6V103c-1.5-0.1-2.8-0.3-4.1-0.6v-2.5h4
		c2.2,0,5.3-0.1,9-0.1c6.8,0,10,2.8,10,7.5c0,3.2-1.8,6.2-5.2,7.4v0.1c4.4,0.7,6.3,4,6.3,7.2C470,125.5,467.6,131.4,457.9,131.4z
		 M457.9,103c-1.5,0-2.7,0-4,0.1v10.2c0.9,0,1.8,0,2.9,0c5.2,0,7.4-2.1,7.4-5.5C464.4,105,462.9,103,457.9,103z M457,116.5
		c-0.6,0-2.2,0-2.9,0v11.1c0.9,0.1,2.2,0.3,4.1,0.3c5.2,0,7.4-2.5,7.4-5.9C465.4,117.9,461.7,116.5,457,116.5z"/>
	<path d="M501.5,141.7c-7.8-7.1-11.5-14.4-11.5-23.4c0-9.6,4.6-17.4,11.6-23.7l2.4,2.5c-6.3,6.2-9.7,13.4-9.7,20.9
		c0,7.8,3.2,14.9,9.7,21.2L501.5,141.7z"/>
	<path d="M531,127.3v7.8h-4.1v-7.8h-14.3l-0.3-3.4l13-20.6h5.9v20.2h5.5v3.8L531,127.3L531,127.3z M526.9,107.1L526.9,107.1
		l-10.5,16.5c2.8-0.1,8.7-0.1,10.5-0.1V107.1z"/>
	<path d="M544.9,137.3c4.9-1.3,6.2-3.5,6.2-5.2c0-2.9-2.4-2.9-2.4-5.5c0-1.9,1.5-3.4,3.2-3.4c2.9,0,4.3,2.8,4.3,5.9
		c0,5.7-4,9.1-10.8,10.8L544.9,137.3z"/>
	<path d="M576.4,135.6c-1.5,0-3.5-0.1-5.2-0.4l0.3-3.7c1.5,0.4,3.7,0.6,5.3,0.6c5.6,0,8.7-3.2,8.7-6.9c0-4-3.2-6-8.4-6
		c-1.9,0-3.7,0.1-4.9,0.3v-15.9h16.4v4h-12.5v8.3c0.7,0,1.6,0,2.4,0c7.7,0,11.6,4,11.6,8.8C590.1,130.7,584.7,135.6,576.4,135.6z"/>
	<path d="M603.7,94.4c7.8,7.2,11.5,14.4,11.5,23.6c0,9.6-4.6,17.4-11.6,23.7l-2.4-2.4c6.3-6.2,9.7-13.6,9.7-20.9
		c0-7.8-3.2-15-9.7-21.2L603.7,94.4z"/>
</g>
<g enable-background="new    ">
	<path d="M182.5,587.6v-2.5c1.2-0.3,2.4-0.4,3.7-0.6l-1.8-5.2h-13.1l-1.8,5.2c1.2,0.1,2.5,0.3,3.7,0.6v2.5h-11.1v-2.5
		c0.9-0.3,2.1-0.4,2.8-0.4l10.3-28.5h5.2l10.5,28.5c0.9,0,2.1,0.3,2.8,0.4v2.5H182.5z M179.2,564.7c-0.6-1.6-1-3.1-1.5-4.6h-0.1
		c-0.4,1.5-0.9,2.9-1.3,4.6l-4.1,11.2h10.9L179.2,564.7z"/>
	<path d="M213.1,598c-7.8-7.1-11.5-14.4-11.5-23.4c0-9.6,4.6-17.4,11.6-23.7l2.4,2.5c-6.3,6.2-9.7,13.4-9.7,20.9
		c0,7.8,3.2,14.9,9.7,21.2L213.1,598z"/>
	<path d="M227,587.6v-3.8h8.6v-19.6l-8.1,5.3l-1.5-3.5l10.3-6.3h3.5v24.3h7.2v3.8H227V587.6z"/>
	<path d="M255.5,593.6c4.9-1.3,6.2-3.5,6.2-5.2c0-2.9-2.4-2.9-2.4-5.5c0-1.9,1.5-3.4,3.2-3.4c2.9,0,4.3,2.8,4.3,5.9
		c0,5.7-4,9.1-10.8,10.8L255.5,593.6z"/>
	<path d="M290.8,588c-6.2,0-11.5-3.7-11.5-14.4c0-9.3,5.6-14.4,12.2-14.4c6,0,11.5,3.5,11.5,14.3C303.1,582.8,297.3,588,290.8,588z
		 M291.1,562.5c-3.8,0-7.4,3.4-7.4,10.8c0,7.8,2.9,11.1,7.4,11.1c3.8,0,7.4-3.2,7.4-10.8C298.5,565.9,295.6,562.5,291.1,562.5z"/>
	<path d="M314.4,550.7c7.8,7.2,11.5,14.4,11.5,23.6c0,9.6-4.6,17.4-11.6,23.7l-2.4-2.4c6.3-6.2,9.7-13.6,9.7-20.9
		c0-7.8-3.2-15-9.7-21.2L314.4,550.7z"/>
</g>
</svg>
