<?xml version="1.0" encoding="utf-8"?>
<!-- Generator: Adobe Illustrator 18.0.0, SVG Export Plug-In . SVG Version: 6.00 Build 0)  -->
<!DOCTYPE svg PUBLIC "-//W3C//DTD SVG 1.1//EN" "http://www.w3.org/Graphics/SVG/1.1/DTD/svg11.dtd">
<svg version="1.1" id="Layer_1" xmlns="http://www.w3.org/2000/svg" xmlns:xlink="http://www.w3.org/1999/xlink" x="0px" y="0px"
	 viewBox="0 0 640 480" enable-background="new 0 0 640 480" xml:space="preserve">
<g>
	<rect x="66.3" y="112.5" fill="none" stroke="#999999" stroke-width="1.3" width="267.6" height="267.6"/>
	<line fill="none" stroke="#999999" stroke-width="1.3" x1="66.3" y1="335.6" x2="333.9" y2="335.6"/>
	<line fill="none" stroke="#999999" stroke-width="1.3" x1="66.3" y1="290.9" x2="333.9" y2="290.9"/>
	<line fill="none" stroke="#999999" stroke-width="1.3" x1="66.3" y1="246.3" x2="333.9" y2="246.3"/>
	<line fill="none" stroke="#999999" stroke-width="1.3" x1="66.3" y1="201.8" x2="333.9" y2="201.8"/>
	<line fill="none" stroke="#999999" stroke-width="1.3" x1="66.3" y1="157.1" x2="333.9" y2="157.1"/>
	<line fill="none" stroke="#999999" stroke-width="1.3" x1="289.3" y1="112.5" x2="289.3" y2="380.1"/>
	<line fill="none" stroke="#999999" stroke-width="1.3" x1="244.8" y1="112.5" x2="244.8" y2="380.1"/>
	<line fill="none" stroke="#999999" stroke-width="1.3" x1="200.1" y1="112.5" x2="200.1" y2="380.1"/>
	<line fill="none" stroke="#999999" stroke-width="1.3" x1="155.5" y1="112.5" x2="155.5" y2="380.1"/>
	<line fill="none" stroke="#999999" stroke-width="1.3" x1="111" y1="112.5" x2="111" y2="380.1"/>
</g>
<g>
	<path d="M71.7,48.1l-2.4-4l-2.4,4h-3.2v-1.2c0.6-0.1,1.3-0.3,1.8-0.3l2.6-3.9l-2.5-3.9c-0.6,0-1.2-0.2-1.8-0.3v-1.2h3.3l2.3,3.9
		l2.3-3.9h3.1v1.2c-0.6,0.1-1.3,0.3-1.8,0.3l-2.4,3.8l2.6,4c0.6,0,1.2,0.2,1.8,0.3v1.2H71.7z"/>
</g>
<g>
	<path d="M5.6,106.4l-3.8,10.5c-1.2,3.3-2.3,4.4-4.7,4.4c-0.4,0-1,0-1.5-0.1l0.2-1.8c0.5,0.2,0.9,0.2,1.4,0.2c1.2,0,1.8-0.6,2.6-2.7
		l0.5-1.2h-0.5l-3.3-9.3c-0.5,0-1-0.1-1.4-0.3V105h4.9v1.2c-0.4,0.1-0.9,0.2-1.4,0.3l1.6,4.6c0.3,1,0.6,1.8,0.8,2.7h0
		c0.2-0.7,0.6-2,1-3.2l1.4-4.1c-0.5,0-1-0.1-1.4-0.3V105H7v1.2C6.6,106.3,6.1,106.4,5.6,106.4z"/>
</g>
<g>
	<path d="M70.3,85.1c-2.9,0-5.3-1.7-5.3-6.7c0-4.3,2.6-6.7,5.7-6.7c2.8,0,5.3,1.6,5.3,6.6C75.9,82.7,73.3,85.1,70.3,85.1z
		 M70.4,73.3c-1.8,0-3.4,1.6-3.4,5c0,3.6,1.4,5.1,3.4,5.1c1.8,0,3.4-1.5,3.4-5C73.8,74.9,72.5,73.3,70.4,73.3z"/>
	<path d="M109.4,84.9v-1.8h4v-9.1l-3.7,2.4l-0.7-1.7l4.8-2.9h1.7v11.3h3.4v1.8H109.4z"/>
	<path d="M152.1,84.9v-1.6l3.1-2.8c2.7-2.3,3.4-3.2,3.4-4.7c0-1.4-0.8-2.4-2.7-2.4c-1.3,0-2.4,0.6-3.1,1.1l-0.4-1.7
		c1.1-0.7,2.4-1.1,4-1.1c2.9,0,4.4,1.6,4.4,3.8c0,1.8-1,3.2-3.3,5.3l-2.6,2.2l-0.1,0c1-0.1,3.4-0.1,6.6-0.1v1.9H152.1z"/>
	<path d="M198.2,86.9c-0.9,0-1.9-0.1-2.7-0.3l0.3-1.8c0.7,0.3,1.7,0.4,2.6,0.4c2.3,0,3.8-1.3,3.8-2.9c0-1.6-1.3-2.7-3.6-2.7
		c-0.7,0-1.3,0-1.9,0.1v-1.6h0.5c3.1,0,4.6-0.9,4.6-2.7c0-1.4-1.1-2.1-2.6-2.1c-1.2,0-2.2,0.3-3.1,0.8l-0.3-1.7
		c1.1-0.5,2.3-0.8,3.7-0.8c2.9,0,4.3,1.4,4.3,3.5c0,1.7-1.1,2.9-2.6,3.4l0,0c1.8,0.2,3.1,1.7,3.1,3.5
		C204.4,84.9,201.8,86.9,198.2,86.9z"/>
	<path d="M246.2,83.1v3.6h-1.9v-3.6h-6.6l-0.2-1.6l6-9.5h2.7v9.4h2.5v1.8H246.2z M244.3,73.7L244.3,73.7l-4.9,7.6c1.3,0,4,0,4.9,0
		V73.7z"/>
	<path d="M284.5,86.9c-0.7,0-1.6-0.1-2.4-0.2l0.2-1.7c0.7,0.2,1.7,0.3,2.4,0.3c2.6,0,4-1.5,4-3.2c0-1.8-1.5-2.8-3.9-2.8
		c-0.9,0-1.7,0.1-2.2,0.2v-7.4h7.6v1.9l-5.8,0v3.8c0.4,0,0.8,0,1.1,0c3.6,0,5.4,1.8,5.4,4.1C290.9,84.6,288.3,86.9,284.5,86.9z"/>
	<path d="M329.6,85.1c-3,0-4.9-2.3-4.9-6.2c0-6.2,3.1-8.8,7.2-8.8c0.4,0,1,0,1.3,0.1v1.7c-0.5-0.1-0.9-0.1-1.4-0.1
		c-2.8,0-4.3,1.6-4.9,4.6c-0.1,0.2-0.1,0.6-0.2,1.1h0c0.7-1.2,2-1.9,3.4-1.9c2.9,0,4.5,1.9,4.5,4.2
		C334.5,83.1,332.6,85.1,329.6,85.1z M329.7,77.3c-1.8,0-2.8,1.6-2.8,2.8c0,1.8,1,3.3,2.9,3.3c1.7,0,2.8-1.3,2.8-3.2
		C332.6,78.5,331.6,77.3,329.7,77.3z"/>
</g>
<circle fill="#808080" cx="111" cy="158.6" r="7"/>
<g>
	<path d="M36.7,122.3c-2.9,0-5.3-1.7-5.3-6.7c0-4.3,2.6-6.7,5.7-6.7c2.8,0,5.3,1.6,5.3,6.6C42.3,119.9,39.7,122.3,36.7,122.3z
		 M36.8,110.5c-1.8,0-3.4,1.6-3.4,5c0,3.6,1.4,5.1,3.4,5.1c1.8,0,3.4-1.5,3.4-5C40.2,112.1,38.9,110.5,36.8,110.5z"/>
	<path d="M32.6,165.3v-1.8h4v-9.1l-3.7,2.4l-0.7-1.7l4.8-2.9h1.7v11.3h3.4v1.8H32.6z"/>
	<path d="M32.1,208.5v-1.6l3.1-2.8c2.7-2.3,3.4-3.2,3.4-4.7c0-1.4-0.8-2.4-2.7-2.4c-1.3,0-2.4,0.6-3.1,1.1l-0.4-1.7
		c1.1-0.7,2.4-1.1,4-1.1c2.9,0,4.4,1.6,4.4,3.8c0,1.8-1,3.2-3.3,5.3l-2.6,2.2l-0.1,0c1-0.1,3.4-0.1,6.6-0.1v1.9H32.1z"/>
	<path d="M35,253.7c-0.9,0-1.9-0.1-2.7-0.3l0.3-1.8c0.7,0.3,1.7,0.4,2.6,0.4c2.3,0,3.8-1.3,3.8-2.9c0-1.6-1.3-2.7-3.6-2.7
		c-0.7,0-1.3,0-1.9,0.1v-1.6h0.5c3.1,0,4.6-0.9,4.6-2.7c0-1.4-1.1-2.1-2.6-2.1c-1.2,0-2.2,0.3-3.1,0.8l-0.3-1.7
		c1.1-0.5,2.3-0.8,3.7-0.8c2.9,0,4.3,1.4,4.3,3.5c0,1.7-1.1,2.9-2.6,3.4l0,0c1.8,0.2,3.1,1.7,3.1,3.5
		C41.2,251.7,38.6,253.7,35,253.7z"/>
	<path d="M39.8,293.1v3.6h-1.9v-3.6h-6.6l-0.2-1.6l6-9.5h2.7v9.4h2.5v1.8H39.8z M37.9,283.7L37.9,283.7l-4.9,7.6c1.3,0,4,0,4.9,0
		V283.7z"/>
	<path d="M34.9,340.1c-0.7,0-1.6-0.1-2.4-0.2l0.2-1.7c0.7,0.2,1.7,0.3,2.4,0.3c2.6,0,4-1.5,4-3.2c0-1.8-1.5-2.8-3.9-2.8
		c-0.9,0-1.7,0.1-2.2,0.2v-7.4h7.6v1.9l-5.8,0v3.8c0.4,0,0.8,0,1.1,0c3.6,0,5.4,1.8,5.4,4.1C41.3,337.8,38.7,340.1,34.9,340.1z"/>
	<path d="M36.8,381.5c-3,0-4.9-2.3-4.9-6.2c0-6.2,3.1-8.8,7.2-8.8c0.4,0,1,0,1.3,0.1v1.7c-0.5-0.1-0.9-0.1-1.4-0.1
		c-2.8,0-4.3,1.6-4.9,4.6c-0.1,0.2-0.1,0.6-0.2,1.1h0c0.7-1.2,2-1.9,3.4-1.9c2.9,0,4.5,1.9,4.5,4.2
		C41.7,379.5,39.8,381.5,36.8,381.5z M36.9,373.7c-1.8,0-2.8,1.6-2.8,2.8c0,1.8,1,3.3,2.9,3.3c1.7,0,2.8-1.3,2.8-3.2
		C39.8,374.9,38.8,373.7,36.9,373.7z"/>
</g>
<line stroke="#000000" stroke-width="1.3" x1="67.4" y1="112.5" x2="58.9" y2="112.5"/>
<line stroke="#000000" stroke-width="1.3" x1="67.4" y1="157.3" x2="58.9" y2="157.3"/>
<line stroke="#000000" stroke-width="1.3" x1="67.4" y1="201.7" x2="58.9" y2="201.7"/>
<line stroke="#000000" stroke-width="1.3" x1="67.4" y1="246.2" x2="58.9" y2="246.2"/>
<line stroke="#000000" stroke-width="1.3" x1="67.4" y1="290.9" x2="58.9" y2="290.9"/>
<line stroke="#000000" stroke-width="1.3" x1="67.4" y1="336.1" x2="58.9" y2="336.1"/>
<line stroke="#000000" stroke-width="1.3" x1="67.4" y1="379.7" x2="58.9" y2="379.7"/>
<line stroke="#000000" stroke-width="1.3" x1="333.5" y1="112.4" x2="333.5" y2="103.8"/>
<line stroke="#000000" stroke-width="1.3" x1="288.7" y1="112.4" x2="288.7" y2="103.8"/>
<line stroke="#000000" stroke-width="1.3" x1="244.3" y1="112.4" x2="244.3" y2="103.8"/>
<line stroke="#000000" stroke-width="1.3" x1="199.8" y1="112.4" x2="199.8" y2="103.8"/>
<line stroke="#000000" stroke-width="1.3" x1="155.1" y1="112.4" x2="155.1" y2="103.8"/>
<line stroke="#000000" stroke-width="1.3" x1="109.9" y1="112.4" x2="109.9" y2="103.8"/>
<line stroke="#000000" stroke-width="1.3" x1="66.7" y1="112.4" x2="66.7" y2="103.8"/>
<polyline fill="#FFFFFF" stroke="#000000" stroke-width="1.3" points="6.1,194.2 0.8,199.5 -4.5,194.2 "/>
<line fill="#FFFFFF" stroke="#000000" stroke-width="1.3" x1="0.8" y1="199.5" x2="0.8" y2="136.8"/>
<polyline fill="#FFFFFF" stroke="#000000" stroke-width="1.3" points="148.2,36.3 153.5,41.6 148.2,46.9 "/>
<line fill="#FFFFFF" stroke="#000000" stroke-width="1.3" x1="154.7" y1="41.6" x2="92" y2="41.6"/>
<g>
	<path d="M413.5,243.8h-7c-0.1,2.8,1.1,4,3.4,4c1,0,2.1-0.2,3.1-0.6l0.3,1.5c-1.1,0.4-2.4,0.7-3.7,0.7c-3.3,0-5-1.7-5-5.5
		c0-3.2,1.8-5.6,4.8-5.6c3,0,4.3,2,4.3,4.4C413.5,242.9,413.5,243.3,413.5,243.8z M409.1,239.7c-1.4,0-2.4,1-2.6,2.7h5
		C411.6,240.7,410.7,239.7,409.1,239.7z"/>
	<path d="M414.9,249.2V248c0.5-0.1,1.2-0.2,1.8-0.3v-12.8c-0.5-0.1-1.2-0.2-1.9-0.2v-1.2c1.1-0.1,2.5-0.2,3.8-0.2v14.3
		c0.6,0,1.3,0.2,1.8,0.3v1.2H414.9z"/>
	<path d="M421.3,249.2V248c0.5-0.1,1.2-0.2,1.8-0.3v-12.8c-0.5-0.1-1.2-0.2-1.9-0.2v-1.2c1.1-0.1,2.5-0.2,3.8-0.2v14.3
		c0.6,0,1.3,0.2,1.8,0.3v1.2H421.3z"/>
	<path d="M427.8,249.2V248c0.6-0.1,1.2-0.2,1.9-0.3v-7.8c-0.5-0.1-1.3-0.2-1.9-0.2v-1.2c1.1-0.1,2.6-0.2,3.8-0.2v9.3
		c0.6,0,1.3,0.2,1.8,0.3v1.2H427.8z M430.7,236.3c-0.7,0-1.3-0.5-1.3-1.3c0-0.7,0.6-1.3,1.3-1.3c0.7,0,1.3,0.6,1.3,1.3
		C432,235.7,431.4,236.3,430.7,236.3z"/>
	<path d="M439.6,249.3c-0.7,0-1.2,0-1.8-0.1v3.9c0.6,0,1.3,0.2,1.9,0.3v1.2H434v-1.2c0.6-0.1,1.1-0.2,1.8-0.3v-13.1
		c-0.5-0.1-1.2-0.2-1.8-0.2v-1.2c1.1-0.1,2.5-0.2,3.7-0.2c0,0.6-0.1,1.6-0.2,2.2l0,0c0.6-1.5,1.9-2.4,3.6-2.4c2.5,0,4,1.8,4,5.1
		C445.1,247.1,443.1,249.3,439.6,249.3z M440.7,239.8c-1.9,0-2.9,2.3-2.9,4.1v3.5c0.6,0.2,1.2,0.3,1.9,0.3c2,0,3.4-1.2,3.4-4.3
		C443.1,241.1,442.4,239.8,440.7,239.8z"/>
	<path d="M449.9,249.3c-0.8,0-1.8-0.1-2.5-0.3v-3h1.2c0.1,0.5,0.2,1.1,0.3,1.7c0.4,0.1,0.8,0.1,1.3,0.1c1.4,0,2.4-0.6,2.4-1.7
		c0-2.4-5.4-1-5.4-4.7c0-1.8,1.5-3.2,4.3-3.2c0.8,0,1.7,0.1,2.5,0.3v2.9h-1.2c-0.1-0.5-0.2-1.1-0.3-1.7c-0.4-0.1-0.8-0.1-1.2-0.1
		c-1.4,0-2.2,0.6-2.2,1.6c0,2.4,5.4,1.1,5.4,4.6C454.4,247.8,452.7,249.3,449.9,249.3z"/>
	<path d="M465.4,243.8h-7c-0.1,2.8,1.1,4,3.4,4c1,0,2.1-0.2,3.1-0.6l0.3,1.5c-1.1,0.4-2.4,0.7-3.7,0.7c-3.3,0-5-1.7-5-5.5
		c0-3.2,1.8-5.6,4.8-5.6c3,0,4.3,2,4.3,4.4C465.5,242.9,465.5,243.3,465.4,243.8z M461.1,239.7c-1.4,0-2.4,1-2.6,2.7h5
		C463.5,240.7,462.6,239.7,461.1,239.7z"/>
	<path d="M481.3,249.2V248c0.5-0.1,1.1-0.2,1.7-0.3l-1-7.5c-0.2-1.6-0.4-2.8-0.4-3.7h0c-0.2,0.7-0.3,1.6-0.7,2.5l-3.5,10h-1.8
		l-3.3-9.5c-0.4-1.1-0.6-2.2-0.8-3h0c0,1.1-0.2,2.4-0.3,3.7l-0.9,7.4c0.6,0,1.2,0.2,1.7,0.3v1.2h-5V248c0.4-0.1,1-0.2,1.3-0.2
		l1.7-11.7c-0.6,0-1.3-0.2-1.9-0.3v-1.2h4.6l3.1,8.9c0.3,0.8,0.6,2,0.8,2.9h0c0.2-1,0.5-1.8,0.8-2.8l3.1-9h4.7v1.2
		c-0.6,0.1-1.2,0.2-1.9,0.3l1.8,11.7c0.4,0,1,0.2,1.3,0.2v1.2H481.3z"/>
	<path d="M492.4,249.3c-2.9,0-4.8-1.7-4.8-5.4c0-3.2,2-5.7,5.2-5.7c2.7,0,4.8,1.5,4.8,5.4C497.6,246.8,495.6,249.3,492.4,249.3z
		 M492.6,239.8c-1.6,0-3,1.2-3,4c0,2.5,1,3.9,3,3.9c1.6,0,3-1.3,3-3.9C495.6,241.3,494.6,239.8,492.6,239.8z"/>
	<path d="M506.8,249.2c0-0.6,0-1.6,0.2-2.2l0,0c-0.6,1.4-1.9,2.4-3.6,2.4c-2.6,0-4-1.9-4-5.1c0-3.8,2.2-6,5.6-6c0.6,0,1.2,0,1.8,0.1
		v-3.5c-0.5-0.1-1.3-0.2-1.9-0.2v-1.2c1.1-0.1,2.6-0.2,3.8-0.2v14.2c0.5,0.1,1.2,0.2,1.8,0.2v1.2C509.5,249.1,508,249.2,506.8,249.2
		z M506.8,240c-0.6-0.2-1.3-0.2-1.9-0.2c-2.1,0-3.4,1.2-3.4,4.3c0,2.3,0.8,3.6,2.4,3.6c1.9,0,2.9-2.3,2.9-4.1V240z"/>
	<path d="M520.7,243.8h-7c-0.1,2.8,1.1,4,3.4,4c1,0,2.1-0.2,3.1-0.6l0.3,1.5c-1.1,0.4-2.4,0.7-3.7,0.7c-3.3,0-5-1.7-5-5.5
		c0-3.2,1.8-5.6,4.8-5.6c3,0,4.3,2,4.3,4.4C520.8,242.9,520.8,243.3,520.7,243.8z M516.4,239.7c-1.4,0-2.4,1-2.6,2.7h5
		C518.8,240.7,517.9,239.7,516.4,239.7z"/>
	<path d="M531.2,253.7c-2.5-4-3.2-7.5-3.2-10.7c0-3.2,0.7-6.9,3.2-10.7l1.4,0.7c-1.8,3-2.7,6.4-2.7,10c0,3.7,0.9,7,2.7,10
		L531.2,253.7z"/>
	<path d="M545.4,249.3c-4.4,0-6.7-2.7-6.7-7.1c0-4.5,2.3-7.8,7.1-7.8c1.2,0,2.4,0.2,3.5,0.4v3.6h-1.4c-0.2-0.7-0.2-1.4-0.3-2
		c-0.8-0.2-1.4-0.3-2.1-0.3c-3.1,0-4.6,2.5-4.6,5.7c0,3.5,1.6,5.7,5,5.7c1.2,0,2.5-0.3,3.4-0.7l0.3,1.7
		C548.4,249,546.9,249.3,545.4,249.3z"/>
	<path d="M557.4,249.4c-4.3,0-6.5-2.9-6.5-7.3c0-4.9,3.1-7.7,6.9-7.7c4.3,0,6.5,2.9,6.5,7.3C564.4,246.6,561.2,249.4,557.4,249.4z
		 M557.7,236.1c-2.6,0-4.6,2-4.6,5.6c0,3.5,1.5,5.9,4.6,5.9c2.6,0,4.6-2,4.6-5.6C562.3,238.5,560.7,236.1,557.7,236.1z"/>
	<path d="M574.7,249.2l-3.9-6.5h-1.1v5.1c0.5,0,1.1,0.1,1.6,0.3v1.2h-5.5V248c0.6-0.1,1.2-0.2,1.9-0.3V236c-0.6,0-1.3-0.2-1.9-0.3
		v-1.2h1.7c0.6,0,2.4-0.1,4-0.1c3.1,0,5.1,1,5.1,3.9c0,2.3-1.6,3.6-3.9,4c0.3,0.4,0.7,0.9,1,1.3l2.5,4c0.5,0.1,1.1,0.2,1.7,0.3v1.2
		H574.7z M571.2,236.1c-0.4,0-1.1,0-1.5,0.1v5h1.7c2.1,0,3.3-1,3.3-2.6C574.6,236.7,573.5,236.1,571.2,236.1z"/>
	<path d="M592.6,236v13.1h-2.7l-5.6-9.2c-0.6-1.1-1.2-2.2-1.7-3.2c0.2,2.5,0.2,6.3,0.2,10.9c0.6,0,1.2,0.2,1.7,0.3v1.2H579V248
		c0.6-0.1,1.2-0.3,1.9-0.3V236c-0.6,0-1.3-0.2-1.9-0.3v-1.2h4.6l5.6,9.1c0.6,1,1.2,2.2,1.7,3.2c-0.2-2.5-0.2-6.3-0.2-10.8
		c-0.6,0-1.2-0.2-1.7-0.3v-1.2h5.1v1.2C593.6,235.9,593.1,236,592.6,236z"/>
	<path d="M595.7,249.2V248c0.6-0.1,1.2-0.2,1.9-0.3V236c-0.6,0-1.3-0.2-1.9-0.3v-1.2h9.4v3.4h-1.4c-0.1-0.7-0.2-1.3-0.3-1.8h-3.9
		v4.8h3.1c0.1-0.5,0.2-1,0.3-1.5h1.2v4.4h-1.2c-0.1-0.5-0.2-1-0.3-1.5h-3.1v5.2h3.9c0.1-0.6,0.2-1.2,0.3-1.9h1.4v3.5H595.7z"/>
	<path d="M616,249.2l-3.9-6.5H611v5.1c0.5,0,1.1,0.1,1.6,0.3v1.2h-5.5V248c0.6-0.1,1.2-0.2,1.9-0.3V236c-0.6,0-1.3-0.2-1.9-0.3v-1.2
		h1.7c0.6,0,2.4-0.1,4-0.1c3.1,0,5.1,1,5.1,3.9c0,2.3-1.6,3.6-3.9,4c0.3,0.4,0.7,0.9,1,1.3l2.5,4c0.5,0.1,1.1,0.2,1.7,0.3v1.2H616z
		 M612.5,236.1c-0.4,0-1.1,0-1.5,0.1v5h1.7c2.1,0,3.3-1,3.3-2.6C615.9,236.7,614.8,236.1,612.5,236.1z"/>
	<path d="M626.3,253.7l-1.4-0.7c1.8-3,2.7-6.4,2.7-9.9c0-3.7-0.9-7-2.7-10.1l1.5-0.7c2.5,4,3.1,7.5,3.1,10.6
		C629.5,246.1,628.7,249.8,626.3,253.7z"/>
	<path d="M637.9,252.5l-0.8-0.7c1.4-1.5,1.4-2.5,0.9-3.1c-0.6-0.8-0.1-1.9,0.9-1.9C640.6,246.7,641.3,249.4,637.9,252.5z M639,243
		c-0.7,0-1.3-0.6-1.3-1.3c0-0.7,0.6-1.3,1.3-1.3c0.7,0,1.3,0.6,1.3,1.3C640.3,242.4,639.7,243,639,243z"/>
	<path d="M413.5,269.7h-7c-0.1,2.8,1.1,4,3.4,4c1,0,2.1-0.2,3.1-0.6l0.3,1.5c-1.1,0.4-2.4,0.7-3.7,0.7c-3.3,0-5-1.7-5-5.5
		c0-3.2,1.8-5.6,4.8-5.6c3,0,4.3,2,4.3,4.4C413.5,268.8,413.5,269.2,413.5,269.7z M409.1,265.6c-1.4,0-2.4,1-2.6,2.7h5
		C411.6,266.6,410.7,265.6,409.1,265.6z"/>
	<path d="M414.9,275.1v-1.2c0.5-0.1,1.2-0.2,1.8-0.3v-12.8c-0.5-0.1-1.2-0.2-1.9-0.2v-1.2c1.1-0.1,2.5-0.2,3.8-0.2v14.3
		c0.6,0,1.3,0.2,1.8,0.3v1.2H414.9z"/>
	<path d="M421.3,275.1v-1.2c0.5-0.1,1.2-0.2,1.8-0.3v-12.8c-0.5-0.1-1.2-0.2-1.9-0.2v-1.2c1.1-0.1,2.5-0.2,3.8-0.2v14.3
		c0.6,0,1.3,0.2,1.8,0.3v1.2H421.3z"/>
	<path d="M427.8,275.1v-1.2c0.6-0.1,1.2-0.2,1.9-0.3v-7.8c-0.5-0.1-1.3-0.2-1.9-0.2v-1.2c1.1-0.1,2.6-0.2,3.8-0.2v9.3
		c0.6,0,1.3,0.2,1.8,0.3v1.2H427.8z M430.7,262.2c-0.7,0-1.3-0.5-1.3-1.3s0.6-1.3,1.3-1.3c0.7,0,1.3,0.6,1.3,1.3
		C432,261.6,431.4,262.2,430.7,262.2z"/>
	<path d="M439.6,275.2c-0.7,0-1.2,0-1.8-0.1v3.9c0.6,0,1.3,0.2,1.9,0.3v1.2H434v-1.2c0.6-0.1,1.1-0.2,1.8-0.3v-13.1
		c-0.5-0.1-1.2-0.2-1.8-0.2v-1.2c1.1-0.1,2.5-0.2,3.7-0.2c0,0.6-0.1,1.6-0.2,2.2l0,0c0.6-1.5,1.9-2.4,3.6-2.4c2.5,0,4,1.8,4,5.1
		C445.1,273,443.1,275.2,439.6,275.2z M440.7,265.7c-1.9,0-2.9,2.3-2.9,4.1v3.5c0.6,0.2,1.2,0.3,1.9,0.3c2,0,3.4-1.2,3.4-4.3
		C443.1,267.1,442.4,265.7,440.7,265.7z"/>
	<path d="M449.9,275.3c-0.8,0-1.8-0.1-2.5-0.3v-3h1.2c0.1,0.5,0.2,1.1,0.3,1.7c0.4,0.1,0.8,0.1,1.3,0.1c1.4,0,2.4-0.6,2.4-1.7
		c0-2.4-5.4-1-5.4-4.7c0-1.8,1.5-3.2,4.3-3.2c0.8,0,1.7,0.1,2.5,0.3v2.9h-1.2c-0.1-0.5-0.2-1.1-0.3-1.7c-0.4-0.1-0.8-0.1-1.2-0.1
		c-1.4,0-2.2,0.6-2.2,1.6c0,2.4,5.4,1.1,5.4,4.6C454.4,273.7,452.7,275.3,449.9,275.3z"/>
	<path d="M465.4,269.7h-7c-0.1,2.8,1.1,4,3.4,4c1,0,2.1-0.2,3.1-0.6l0.3,1.5c-1.1,0.4-2.4,0.7-3.7,0.7c-3.3,0-5-1.7-5-5.5
		c0-3.2,1.8-5.6,4.8-5.6c3,0,4.3,2,4.3,4.4C465.5,268.8,465.5,269.2,465.4,269.7z M461.1,265.6c-1.4,0-2.4,1-2.6,2.7h5
		C463.5,266.6,462.6,265.6,461.1,265.6z"/>
	<path d="M475.8,279.6c-2.5-4-3.2-7.5-3.2-10.7c0-3.2,0.7-6.9,3.2-10.7l1.4,0.7c-1.8,3-2.7,6.4-2.7,10c0,3.7,0.9,7,2.7,10
		L475.8,279.6z"/>
	<path d="M490.6,275.1l-2.4-4l-2.4,4h-3.2v-1.2c0.6-0.1,1.3-0.3,1.8-0.3l2.6-3.9l-2.5-3.9c-0.6,0-1.2-0.2-1.8-0.3v-1.2h3.3l2.3,3.9
		l2.3-3.9h3.1v1.2c-0.6,0.1-1.3,0.3-1.8,0.3l-2.4,3.8l2.6,4c0.6,0,1.2,0.2,1.8,0.3v1.2H490.6z"/>
	<path d="M500.2,278.4l-0.8-0.7c1.4-1.5,1.4-2.5,0.9-3.1c-0.6-0.8-0.1-1.9,0.9-1.9C502.9,272.6,503.6,275.4,500.2,278.4z"/>
	<path d="M518.2,265.8l-3.8,10.5c-1.2,3.3-2.3,4.4-4.7,4.4c-0.4,0-1,0-1.5-0.1l0.2-1.8c0.5,0.2,0.9,0.2,1.4,0.2
		c1.2,0,1.8-0.6,2.6-2.7l0.5-1.2h-0.5l-3.3-9.3c-0.5,0-1-0.1-1.4-0.3v-1.2h4.9v1.2c-0.4,0.1-0.9,0.2-1.4,0.3l1.6,4.6
		c0.3,1,0.6,1.8,0.8,2.7h0c0.2-0.7,0.6-2,1-3.2l1.4-4.1c-0.5,0-1-0.1-1.4-0.3v-1.2h4.8v1.2C519.1,265.6,518.7,265.7,518.2,265.8z"/>
	<path d="M525.8,278.4l-0.8-0.7c1.4-1.5,1.4-2.5,0.9-3.1c-0.6-0.8-0.1-1.9,0.9-1.9C528.4,272.6,529.1,275.4,525.8,278.4z"/>
	<path d="M550.1,265.8l-2.9,9.3h-2.2l-2.1-6.3c-0.2-0.7-0.4-1.4-0.6-2.1h0c-0.2,1-0.5,1.8-0.8,2.7l-1.8,5.8h-2.2l-2.8-9.3
		c-0.5,0-1-0.1-1.4-0.3v-1.2h4.9v1.2c-0.5,0.1-1,0.2-1.5,0.3l1.3,4.8c0.2,0.9,0.5,1.8,0.7,2.4h0c0.2-0.9,0.5-1.8,0.7-2.6l1.9-6h2
		l1.9,6c0.4,1.3,0.6,1.9,0.8,2.6h0c0.2-0.8,0.4-1.4,0.7-2.4l1.4-4.9c-0.5,0-1-0.1-1.5-0.3v-1.2h4.8v1.2
		C551.1,265.6,550.6,265.7,550.1,265.8z"/>
	<path d="M552.2,275.1v-1.2c0.6-0.1,1.2-0.2,1.9-0.3v-7.8c-0.5-0.1-1.3-0.2-1.9-0.2v-1.2c1.1-0.1,2.6-0.2,3.8-0.2v9.3
		c0.6,0,1.3,0.2,1.8,0.3v1.2H552.2z M555.1,262.2c-0.7,0-1.3-0.5-1.3-1.3s0.6-1.3,1.3-1.3c0.7,0,1.3,0.6,1.3,1.3
		C556.4,261.6,555.8,262.2,555.1,262.2z"/>
	<path d="M566.6,275.1c0-0.6,0-1.6,0.2-2.2l0,0c-0.6,1.4-1.9,2.4-3.6,2.4c-2.6,0-4-1.9-4-5.1c0-3.8,2.2-6,5.6-6c0.6,0,1.2,0,1.8,0.1
		v-3.5c-0.5-0.1-1.3-0.2-1.9-0.2v-1.2c1.1-0.1,2.6-0.2,3.8-0.2v14.2c0.5,0.1,1.2,0.2,1.8,0.2v1.2C569.3,275,567.8,275.1,566.6,275.1
		z M566.5,266c-0.6-0.2-1.3-0.2-1.9-0.2c-2.1,0-3.4,1.2-3.4,4.3c0,2.3,0.8,3.6,2.4,3.6c1.9,0,2.9-2.3,2.9-4.1V266z"/>
	<path d="M575.4,275.2c-2.2,0-2.9-0.9-2.9-3.2v-6.2h-2.2v-1.5h2.2v-3.5l1.9-0.5v4h3v1.5h-3v5.5c0,1.8,0.3,2.2,1.5,2.2
		c0.5,0,1-0.1,1.4-0.2l0.2,1.6C577,275.2,576.1,275.2,575.4,275.2z"/>
	<path d="M587.3,275.1v-6.9c0-1.5-0.4-2.4-1.8-2.4c-1.8,0-3,1.8-3,4.2v3.7c0.6,0,1.2,0.1,1.7,0.3v1.2h-5.5v-1.2
		c0.5-0.1,1.2-0.2,1.8-0.3v-12.8c-0.5-0.1-1.2-0.2-1.9-0.2v-1.2c1.1-0.1,2.5-0.2,3.8-0.2v5.1c0,0.7,0,1.6-0.2,2.1l0,0
		c0.6-1.5,1.9-2.4,3.8-2.4c2.4,0,3.2,1.5,3.2,3.4v6c0.6,0,1.3,0.2,1.8,0.3v1.2H587.3z"/>
	<path d="M597.6,278.4l-0.8-0.7c1.4-1.5,1.4-2.5,0.9-3.1c-0.6-0.8-0.1-1.9,0.9-1.9C600.2,272.6,600.9,275.4,597.6,278.4z"/>
	<path d="M613.9,275.1v-6.9c0-1.5-0.4-2.4-1.8-2.4c-1.8,0-3,1.8-3,4.2v3.7c0.6,0,1.2,0.1,1.7,0.3v1.2h-5.5v-1.2
		c0.5-0.1,1.2-0.2,1.8-0.3v-12.8c-0.5-0.1-1.2-0.2-1.9-0.2v-1.2c1.1-0.1,2.5-0.2,3.8-0.2v5.1c0,0.7,0,1.6-0.2,2.1l0,0
		c0.6-1.5,1.9-2.4,3.8-2.4c2.4,0,3.2,1.5,3.2,3.4v6c0.6,0,1.3,0.2,1.8,0.3v1.2H613.9z"/>
	<path d="M627.9,269.7h-7c-0.1,2.8,1.1,4,3.4,4c1,0,2.1-0.2,3.1-0.6l0.3,1.5c-1.1,0.4-2.4,0.7-3.7,0.7c-3.3,0-5-1.7-5-5.5
		c0-3.2,1.8-5.6,4.8-5.6c3,0,4.3,2,4.3,4.4C628,268.8,628,269.2,627.9,269.7z M623.6,265.6c-1.4,0-2.4,1-2.6,2.7h5
		C626.1,266.6,625.1,265.6,623.6,265.6z"/>
	<path d="M629.6,275.1v-1.2c0.6-0.1,1.2-0.2,1.9-0.3v-7.8c-0.5-0.1-1.3-0.2-1.9-0.2v-1.2c1.1-0.1,2.6-0.2,3.8-0.2v9.3
		c0.6,0,1.3,0.2,1.8,0.3v1.2H629.6z M632.5,262.2c-0.7,0-1.3-0.5-1.3-1.3s0.6-1.3,1.3-1.3c0.7,0,1.3,0.6,1.3,1.3
		C633.8,261.6,633.2,262.2,632.5,262.2z"/>
	<path d="M641,280.6c-2.8,0-4.5-1.1-4.5-3.2c0-1.3,0.8-2.3,1.8-2.9c-0.6-0.3-1.1-0.9-1.1-1.6c0-0.8,0.5-1.5,1.2-1.8
		c-1-0.6-1.6-1.6-1.6-3c0-2.2,1.6-4,4.6-4c0.6,0,1,0.1,1.5,0.2h3.7v1.5h-1.8c0.5,0.4,0.9,1.1,0.9,2c0,2.2-1.5,3.9-4.5,3.9
		c-0.4,0-0.8,0-1.1-0.2c-0.5,0.2-0.7,0.6-0.7,0.9c0,0.6,0.5,0.8,1.8,0.8l2,0.1c2.3,0.1,3.6,1.2,3.6,3.1
		C646.7,278.8,644.4,280.6,641,280.6z M642.5,275l-2.1-0.1c-0.2,0-0.5,0-0.6,0c-0.8,0.6-1.4,1.3-1.4,2.1c0,1.3,1.2,2,2.9,2
		c2.2,0,3.4-1,3.4-2.3C644.8,275.7,644.1,275.1,642.5,275z M641.3,265.6c-1.6,0-2.5,1-2.5,2.4c0,1.5,0.9,2.4,2.5,2.4
		c1.5,0,2.5-0.9,2.5-2.4C643.8,266.5,642.9,265.6,641.3,265.6z"/>
	<path d="M656.4,275.1v-6.9c0-1.5-0.4-2.4-1.8-2.4c-1.8,0-3,1.8-3,4.2v3.7c0.6,0,1.2,0.1,1.7,0.3v1.2h-5.5v-1.2
		c0.5-0.1,1.2-0.2,1.8-0.3v-12.8c-0.5-0.1-1.2-0.2-1.9-0.2v-1.2c1.1-0.1,2.5-0.2,3.8-0.2v5.1c0,0.7,0,1.6-0.2,2.1l0,0
		c0.6-1.5,1.9-2.4,3.8-2.4c2.4,0,3.2,1.5,3.2,3.4v6c0.6,0,1.3,0.2,1.8,0.3v1.2H656.4z"/>
	<path d="M665.4,275.2c-2.2,0-2.9-0.9-2.9-3.2v-6.2h-2.2v-1.5h2.2v-3.5l1.9-0.5v4h3v1.5h-3v5.5c0,1.8,0.3,2.2,1.5,2.2
		c0.5,0,1-0.1,1.4-0.2l0.2,1.6C667,275.2,666.1,275.2,665.4,275.2z"/>
	<path d="M675,279.6l-1.4-0.7c1.8-3,2.7-6.4,2.7-9.9c0-3.7-0.9-7-2.7-10.1l1.5-0.7c2.5,4,3.1,7.5,3.1,10.6
		C678.1,272,677.4,275.7,675,279.6z"/>
	<path d="M686.6,278.4l-0.8-0.7c1.4-1.5,1.4-2.5,0.9-3.1c-0.6-0.8-0.1-1.9,0.9-1.9C689.2,272.6,690,275.4,686.6,278.4z M687.7,268.9
		c-0.7,0-1.3-0.6-1.3-1.3c0-0.7,0.6-1.3,1.3-1.3c0.7,0,1.3,0.6,1.3,1.3C689,268.4,688.4,268.9,687.7,268.9z"/>
</g>
<g>
	<path d="M124.6,151.4c-3.6-3.3-5.3-6.7-5.3-10.9c0-4.4,2.1-8.1,5.4-11l1.1,1.1c-2.9,2.9-4.5,6.2-4.5,9.7c0,3.6,1.5,6.9,4.5,9.9
		L124.6,151.4z"/>
	<path d="M131,146.6v-1.8h4v-9.1l-3.7,2.4l-0.7-1.7l4.8-2.9h1.7v11.3h3.4v1.8H131z"/>
	<path d="M144.6,149.4c2.2-0.6,2.9-1.6,2.9-2.4c0-1.4-1.1-1.4-1.1-2.5c0-0.9,0.6-1.6,1.5-1.6c1.4,0,2,1.3,2,2.7c0,2.7-1.8,4.3-5,5
		L144.6,149.4z"/>
	<path d="M156.9,146.6v-1.8h4v-9.1l-3.7,2.4l-0.7-1.7l4.8-2.9h1.7v11.3h3.4v1.8H156.9z"/>
	<path d="M171.9,129.5c3.6,3.3,5.3,6.7,5.3,10.9c0,4.4-2.1,8.1-5.4,11l-1.1-1.1c2.9-2.9,4.5-6.2,4.5-9.7c0-3.6-1.5-6.9-4.5-9.9
		L171.9,129.5z"/>
</g>
<g>
	<path fill="#808080" d="M52.7,440.7v-1.2c0.6-0.1,1.2-0.2,1.9-0.3v-11.7c-0.6,0-1.3-0.2-1.9-0.3v-1.2h9.4v3.4h-1.4
		c-0.1-0.7-0.2-1.3-0.3-1.8h-3.9v4.8h3.1c0.1-0.5,0.2-1,0.3-1.5h1.2v4.4h-1.2c-0.1-0.5-0.2-1-0.3-1.5h-3.1v5.2h3.9
		c0.1-0.6,0.2-1.2,0.3-1.9h1.4v3.5H52.7z"/>
	<path fill="#808080" d="M71.7,440.7l-2.4-4l-2.4,4h-3.2v-1.2c0.6-0.1,1.3-0.3,1.8-0.3l2.6-3.9l-2.5-3.9c-0.6,0-1.2-0.2-1.8-0.3
		v-1.2h3.3l2.3,3.9l2.3-3.9h3.1v1.2c-0.6,0.1-1.3,0.3-1.8,0.3l-2.4,3.8l2.6,4c0.6,0,1.2,0.2,1.8,0.3v1.2H71.7z"/>
	<path fill="#808080" d="M82.7,440.7c0-0.8,0-1.5,0.1-2.1h0c-0.5,1.3-1.9,2.3-3.7,2.3c-1.8,0-3-1.1-3-2.8c0-2.3,2.4-3.7,6.4-3.7
		v-0.8c0-1.5-0.5-2.4-2.2-2.4c-0.6,0-1.4,0.1-2,0.3c0,0.5-0.2,1.1-0.3,1.8h-1.2v-2.9c1.1-0.3,2.4-0.6,3.7-0.6c3.2,0,4,1.4,4,3.6v5.8
		c0.5,0.1,1.2,0.2,1.8,0.2v1.2C85.4,440.6,83.9,440.7,82.7,440.7z M82.6,435.7c-3.4,0-4.5,0.8-4.5,2c0,0.9,0.6,1.6,1.6,1.6
		c1.7,0,2.9-1.7,2.9-3.4V435.7z"/>
	<path fill="#808080" d="M102.7,440.7v-6.9c0-1.5-0.3-2.4-1.7-2.4c-1.5,0-3,1.6-3,4.2v3.7c0.6,0,1.2,0.1,1.8,0.3v1.2H96v-6.9
		c0-1.4-0.3-2.4-1.8-2.4c-1.6,0-3,1.8-3,4.2v3.7c0.6,0,1.2,0.1,1.7,0.3v1.2h-5.6v-1.2c0.6-0.1,1.2-0.2,1.9-0.3v-7.8
		c-0.5-0.1-1.3-0.2-1.9-0.2v-1.2c1.1-0.1,2.6-0.2,3.8-0.2c0,0.6-0.1,1.6-0.2,2.3l0,0c0.6-1.5,2-2.5,3.7-2.5c2.3,0,2.9,1.6,3,2.4
		c0.4-1,1.6-2.4,3.7-2.4c2,0,3.2,1.1,3.2,3.5v6c0.6,0,1.3,0.2,1.8,0.3v1.2H102.7z"/>
	<path fill="#808080" d="M112.6,440.8c-0.7,0-1.2,0-1.8-0.1v3.9c0.6,0,1.3,0.2,1.9,0.3v1.2H107v-1.2c0.6-0.1,1.1-0.2,1.8-0.3v-13.1
		c-0.5-0.1-1.2-0.2-1.8-0.2v-1.2c1.1-0.1,2.5-0.2,3.7-0.2c0,0.6-0.1,1.6-0.2,2.2l0,0c0.6-1.5,1.9-2.4,3.6-2.4c2.5,0,4,1.8,4,5.1
		C118.1,438.6,116.1,440.8,112.6,440.8z M113.7,431.3c-1.9,0-2.9,2.3-2.9,4.1v3.5c0.6,0.2,1.2,0.3,1.9,0.3c2,0,3.4-1.2,3.4-4.3
		C116.1,432.6,115.3,431.3,113.7,431.3z"/>
	<path fill="#808080" d="M119.4,440.7v-1.2c0.5-0.1,1.2-0.2,1.8-0.3v-12.8c-0.5-0.1-1.2-0.2-1.9-0.2V425c1.1-0.1,2.5-0.2,3.8-0.2
		v14.3c0.6,0,1.3,0.2,1.8,0.3v1.2H119.4z"/>
	<path fill="#808080" d="M135.2,435.3h-7c-0.1,2.8,1.1,4,3.4,4c1,0,2.1-0.2,3.1-0.6l0.3,1.5c-1.1,0.4-2.4,0.7-3.7,0.7
		c-3.3,0-5-1.7-5-5.5c0-3.2,1.8-5.6,4.8-5.6c3,0,4.3,2,4.3,4.4C135.3,434.4,135.2,434.8,135.2,435.3z M130.9,431.2
		c-1.4,0-2.4,1-2.6,2.7h5C133.3,432.2,132.4,431.2,130.9,431.2z"/>
	<path fill="#808080" d="M139.7,434.5c-0.7,0-1.3-0.6-1.3-1.3c0-0.7,0.6-1.3,1.3-1.3c0.7,0,1.3,0.6,1.3,1.3
		C141,433.9,140.4,434.5,139.7,434.5z M139.7,440.9c-0.7,0-1.3-0.6-1.3-1.3c0-0.7,0.6-1.3,1.3-1.3c0.7,0,1.3,0.6,1.3,1.3
		C141,440.3,140.4,440.9,139.7,440.9z"/>
	<path d="M160.7,435.3h-7c-0.1,2.8,1.1,4,3.4,4c1,0,2.1-0.2,3.1-0.6l0.3,1.5c-1.1,0.4-2.4,0.7-3.7,0.7c-3.3,0-5-1.7-5-5.5
		c0-3.2,1.8-5.6,4.8-5.6c3,0,4.3,2,4.3,4.4C160.8,434.4,160.8,434.8,160.7,435.3z M156.4,431.2c-1.4,0-2.4,1-2.6,2.7h5
		C158.9,432.2,157.9,431.2,156.4,431.2z"/>
	<path d="M162.2,440.7v-1.2c0.5-0.1,1.2-0.2,1.8-0.3v-12.8c-0.5-0.1-1.2-0.2-1.9-0.2V425c1.1-0.1,2.5-0.2,3.8-0.2v14.3
		c0.6,0,1.3,0.2,1.8,0.3v1.2H162.2z"/>
	<path d="M168.5,440.7v-1.2c0.5-0.1,1.2-0.2,1.8-0.3v-12.8c-0.5-0.1-1.2-0.2-1.9-0.2V425c1.1-0.1,2.5-0.2,3.8-0.2v14.3
		c0.6,0,1.3,0.2,1.8,0.3v1.2H168.5z"/>
	<path d="M175.1,440.7v-1.2c0.6-0.1,1.2-0.2,1.9-0.3v-7.8c-0.5-0.1-1.3-0.2-1.9-0.2v-1.2c1.1-0.1,2.6-0.2,3.8-0.2v9.3
		c0.6,0,1.3,0.2,1.8,0.3v1.2H175.1z M178,427.8c-0.7,0-1.3-0.5-1.3-1.3s0.6-1.3,1.3-1.3c0.7,0,1.3,0.6,1.3,1.3
		C179.3,427.2,178.7,427.8,178,427.8z"/>
	<path d="M186.9,440.8c-0.7,0-1.2,0-1.8-0.1v3.9c0.6,0,1.3,0.2,1.9,0.3v1.2h-5.6v-1.2c0.6-0.1,1.1-0.2,1.8-0.3v-13.1
		c-0.5-0.1-1.2-0.2-1.8-0.2v-1.2c1.1-0.1,2.5-0.2,3.7-0.2c0,0.6-0.1,1.6-0.2,2.2l0,0c0.6-1.5,1.9-2.4,3.6-2.4c2.5,0,4,1.8,4,5.1
		C192.4,438.6,190.4,440.8,186.9,440.8z M188,431.3c-1.9,0-2.9,2.3-2.9,4.1v3.5c0.6,0.2,1.2,0.3,1.9,0.3c2,0,3.4-1.2,3.4-4.3
		C190.4,432.6,189.6,431.3,188,431.3z"/>
	<path d="M197.1,440.9c-0.8,0-1.8-0.1-2.5-0.3v-3h1.2c0.1,0.5,0.2,1.1,0.3,1.7c0.4,0.1,0.8,0.1,1.3,0.1c1.4,0,2.4-0.6,2.4-1.7
		c0-2.4-5.4-1-5.4-4.7c0-1.8,1.5-3.2,4.3-3.2c0.8,0,1.7,0.1,2.5,0.3v2.9H200c-0.1-0.5-0.2-1.1-0.3-1.7c-0.4-0.1-0.8-0.1-1.2-0.1
		c-1.4,0-2.2,0.6-2.2,1.6c0,2.4,5.4,1.1,5.4,4.6C201.7,439.3,200,440.9,197.1,440.9z"/>
	<path d="M212.7,435.3h-7c-0.1,2.8,1.1,4,3.4,4c1,0,2.1-0.2,3.1-0.6l0.3,1.5c-1.1,0.4-2.4,0.7-3.7,0.7c-3.3,0-5-1.7-5-5.5
		c0-3.2,1.8-5.6,4.8-5.6c3,0,4.3,2,4.3,4.4C212.8,434.4,212.7,434.8,212.7,435.3z M208.4,431.2c-1.4,0-2.4,1-2.6,2.7h5
		C210.8,432.2,209.9,431.2,208.4,431.2z"/>
	<path d="M228.6,440.7v-1.2c0.5-0.1,1.1-0.2,1.7-0.3l-1-7.5c-0.2-1.6-0.4-2.8-0.4-3.7h0c-0.2,0.7-0.3,1.6-0.7,2.5l-3.5,10h-1.8
		l-3.3-9.5c-0.4-1.1-0.6-2.2-0.8-3h0c0,1.1-0.2,2.4-0.3,3.7l-0.9,7.4c0.6,0,1.2,0.2,1.7,0.3v1.2h-5v-1.2c0.4-0.1,1-0.2,1.3-0.2
		l1.7-11.7c-0.6,0-1.3-0.2-1.9-0.3v-1.2h4.6l3.1,8.9c0.3,0.8,0.6,2,0.8,2.9h0c0.2-1,0.5-1.8,0.8-2.8l3.1-9h4.7v1.2
		c-0.6,0.1-1.2,0.2-1.9,0.3l1.8,11.7c0.4,0,1,0.2,1.3,0.2v1.2H228.6z"/>
	<path d="M239.7,440.9c-2.9,0-4.8-1.7-4.8-5.4c0-3.2,2-5.7,5.2-5.7c2.7,0,4.8,1.5,4.8,5.4C244.9,438.4,242.9,440.9,239.7,440.9z
		 M239.9,431.3c-1.6,0-3,1.2-3,4c0,2.5,1,3.9,3,3.9c1.6,0,3-1.3,3-3.9C242.9,432.8,241.9,431.3,239.9,431.3z"/>
	<path d="M254.1,440.7c0-0.6,0-1.6,0.2-2.2l0,0c-0.6,1.4-1.9,2.4-3.6,2.4c-2.6,0-4-1.9-4-5.1c0-3.8,2.2-6,5.6-6c0.6,0,1.2,0,1.8,0.1
		v-3.5c-0.5-0.1-1.3-0.2-1.9-0.2V425c1.1-0.1,2.6-0.2,3.8-0.2v14.2c0.5,0.1,1.2,0.2,1.8,0.2v1.2
		C256.8,440.6,255.3,440.7,254.1,440.7z M254.1,431.5c-0.6-0.2-1.3-0.2-1.9-0.2c-2.1,0-3.4,1.2-3.4,4.3c0,2.3,0.8,3.6,2.4,3.6
		c1.9,0,2.9-2.3,2.9-4.1V431.5z"/>
	<path d="M268,435.3h-7c-0.1,2.8,1.1,4,3.4,4c1,0,2.1-0.2,3.1-0.6l0.3,1.5c-1.1,0.4-2.4,0.7-3.7,0.7c-3.3,0-5-1.7-5-5.5
		c0-3.2,1.8-5.6,4.8-5.6c3,0,4.3,2,4.3,4.4C268.1,434.4,268.1,434.8,268,435.3z M263.7,431.2c-1.4,0-2.4,1-2.6,2.7h5
		C266.1,432.2,265.2,431.2,263.7,431.2z"/>
	<path d="M278.4,445.2c-2.5-4-3.2-7.5-3.2-10.7c0-3.2,0.7-6.9,3.2-10.7l1.4,0.7c-1.8,3-2.7,6.4-2.7,10c0,3.7,0.9,7,2.7,10
		L278.4,445.2z"/>
	<path d="M292.7,440.9c-4.4,0-6.7-2.7-6.7-7.1c0-4.5,2.3-7.8,7.1-7.8c1.2,0,2.4,0.2,3.5,0.4v3.6h-1.4c-0.2-0.7-0.2-1.4-0.3-2
		c-0.8-0.2-1.4-0.3-2.1-0.3c-3.1,0-4.6,2.5-4.6,5.7c0,3.5,1.6,5.7,5,5.7c1.2,0,2.5-0.3,3.4-0.7l0.3,1.7
		C295.6,440.5,294.1,440.9,292.7,440.9z"/>
	<path d="M304.7,440.9c-4.3,0-6.5-2.9-6.5-7.3c0-4.9,3.1-7.7,6.9-7.7c4.3,0,6.5,2.9,6.5,7.3C311.6,438.1,308.5,440.9,304.7,440.9z
		 M304.9,427.6c-2.6,0-4.6,2-4.6,5.6c0,3.5,1.5,5.9,4.6,5.9c2.6,0,4.6-2,4.6-5.6C309.5,430,308,427.6,304.9,427.6z"/>
	<path d="M322,440.7l-3.9-6.5H317v5.1c0.5,0,1.1,0.1,1.6,0.3v1.2h-5.5v-1.2c0.6-0.1,1.2-0.2,1.9-0.3v-11.7c-0.6,0-1.3-0.2-1.9-0.3
		v-1.2h1.7c0.6,0,2.4-0.1,4-0.1c3.1,0,5.1,1,5.1,3.9c0,2.3-1.6,3.6-3.9,4c0.3,0.4,0.7,0.9,1,1.3l2.5,4c0.5,0.1,1.1,0.2,1.7,0.3v1.2
		H322z M318.5,427.6c-0.4,0-1.1,0-1.5,0.1v5h1.7c2.1,0,3.3-1,3.3-2.6C321.9,428.3,320.8,427.6,318.5,427.6z"/>
	<path d="M339.9,427.5v13.1h-2.7l-5.6-9.2c-0.6-1.1-1.2-2.2-1.7-3.2c0.2,2.5,0.2,6.3,0.2,10.9c0.6,0,1.2,0.2,1.7,0.3v1.2h-5.5v-1.2
		c0.6-0.1,1.2-0.3,1.9-0.3v-11.7c-0.6,0-1.3-0.2-1.9-0.3v-1.2h4.6l5.6,9.1c0.6,1,1.2,2.2,1.7,3.2c-0.2-2.5-0.2-6.3-0.2-10.8
		c-0.6,0-1.2-0.2-1.7-0.3v-1.2h5.1v1.2C340.9,427.4,340.4,427.5,339.9,427.5z"/>
	<path d="M342.9,440.7v-1.2c0.6-0.1,1.2-0.2,1.9-0.3v-11.7c-0.6,0-1.3-0.2-1.9-0.3v-1.2h9.4v3.4H351c-0.1-0.7-0.2-1.3-0.3-1.8h-3.9
		v4.8h3.1c0.1-0.5,0.2-1,0.3-1.5h1.2v4.4h-1.2c-0.1-0.5-0.2-1-0.3-1.5h-3.1v5.2h3.9c0.1-0.6,0.2-1.2,0.3-1.9h1.4v3.5H342.9z"/>
	<path d="M363.3,440.7l-3.9-6.5h-1.1v5.1c0.5,0,1.1,0.1,1.6,0.3v1.2h-5.5v-1.2c0.6-0.1,1.2-0.2,1.9-0.3v-11.7
		c-0.6,0-1.3-0.2-1.9-0.3v-1.2h1.7c0.6,0,2.4-0.1,4-0.1c3.1,0,5.1,1,5.1,3.9c0,2.3-1.6,3.6-3.9,4c0.3,0.4,0.7,0.9,1,1.3l2.5,4
		c0.5,0.1,1.1,0.2,1.7,0.3v1.2H363.3z M359.8,427.6c-0.4,0-1.1,0-1.5,0.1v5h1.7c2.1,0,3.3-1,3.3-2.6
		C363.2,428.3,362.1,427.6,359.8,427.6z"/>
	<path d="M373.6,445.2l-1.4-0.7c1.8-3,2.7-6.4,2.7-9.9c0-3.7-0.9-7-2.7-10.1l1.5-0.7c2.5,4,3.1,7.5,3.1,10.6
		C376.7,437.6,376,441.3,373.6,445.2z"/>
	<path d="M385.2,444l-0.8-0.7c1.4-1.5,1.4-2.5,0.9-3.1c-0.6-0.8-0.1-1.9,0.9-1.9C387.8,438.2,388.6,440.9,385.2,444z M386.3,434.5
		c-0.7,0-1.3-0.6-1.3-1.3c0-0.7,0.6-1.3,1.3-1.3s1.3,0.6,1.3,1.3C387.6,433.9,387,434.5,386.3,434.5z"/>
	<path d="M162.5,461.2h-7c-0.1,2.8,1.1,4,3.4,4c1,0,2.1-0.2,3.1-0.6l0.3,1.5c-1.1,0.4-2.4,0.7-3.7,0.7c-3.3,0-5-1.7-5-5.5
		c0-3.2,1.8-5.6,4.8-5.6c3,0,4.3,2,4.3,4.4C162.6,460.3,162.5,460.7,162.5,461.2z M158.2,457.1c-1.4,0-2.4,1-2.6,2.7h5
		C160.6,458.2,159.7,457.1,158.2,457.1z"/>
	<path d="M163.9,466.6v-1.2c0.5-0.1,1.2-0.2,1.8-0.3v-12.8c-0.5-0.1-1.2-0.2-1.9-0.2V451c1.1-0.1,2.5-0.2,3.8-0.2v14.3
		c0.6,0,1.3,0.2,1.8,0.3v1.2H163.9z"/>
	<path d="M170.3,466.6v-1.2c0.5-0.1,1.2-0.2,1.8-0.3v-12.8c-0.5-0.1-1.2-0.2-1.9-0.2V451c1.1-0.1,2.5-0.2,3.8-0.2v14.3
		c0.6,0,1.3,0.2,1.8,0.3v1.2H170.3z"/>
	<path d="M176.9,466.6v-1.2c0.6-0.1,1.2-0.2,1.9-0.3v-7.8c-0.5-0.1-1.3-0.2-1.9-0.2V456c1.1-0.1,2.6-0.2,3.8-0.2v9.3
		c0.6,0,1.3,0.2,1.8,0.3v1.2H176.9z M179.8,453.7c-0.7,0-1.3-0.5-1.3-1.3s0.6-1.3,1.3-1.3c0.7,0,1.3,0.6,1.3,1.3
		C181,453.1,180.4,453.7,179.8,453.7z"/>
	<path d="M188.7,466.7c-0.7,0-1.2,0-1.8-0.1v3.9c0.6,0,1.3,0.2,1.9,0.3v1.2h-5.6v-1.2c0.6-0.1,1.1-0.2,1.8-0.3v-13.1
		c-0.5-0.1-1.2-0.2-1.8-0.2V456c1.1-0.1,2.5-0.2,3.7-0.2c0,0.6-0.1,1.6-0.2,2.2l0,0c0.6-1.5,1.9-2.4,3.6-2.4c2.5,0,4,1.8,4,5.1
		C194.2,464.5,192.1,466.7,188.7,466.7z M189.8,457.2c-1.9,0-2.9,2.3-2.9,4.1v3.5c0.6,0.2,1.2,0.3,1.9,0.3c2,0,3.4-1.2,3.4-4.3
		C192.1,458.6,191.4,457.2,189.8,457.2z"/>
	<path d="M198.9,466.8c-0.8,0-1.8-0.1-2.5-0.3v-3h1.2c0.1,0.5,0.2,1.1,0.3,1.7c0.4,0.1,0.8,0.1,1.3,0.1c1.4,0,2.4-0.6,2.4-1.7
		c0-2.4-5.4-1-5.4-4.7c0-1.8,1.5-3.2,4.3-3.2c0.8,0,1.7,0.1,2.5,0.3v2.9h-1.2c-0.1-0.5-0.2-1.1-0.3-1.7c-0.4-0.1-0.8-0.1-1.2-0.1
		c-1.4,0-2.2,0.6-2.2,1.6c0,2.4,5.4,1.1,5.4,4.6C203.5,465.2,201.7,466.8,198.9,466.8z"/>
	<path d="M214.4,461.2h-7c-0.1,2.8,1.1,4,3.4,4c1,0,2.1-0.2,3.1-0.6l0.3,1.5c-1.1,0.4-2.4,0.7-3.7,0.7c-3.3,0-5-1.7-5-5.5
		c0-3.2,1.8-5.6,4.8-5.6c3,0,4.3,2,4.3,4.4C214.5,460.3,214.5,460.7,214.4,461.2z M210.1,457.1c-1.4,0-2.4,1-2.6,2.7h5
		C212.6,458.2,211.6,457.1,210.1,457.1z"/>
	<path d="M229,471.4c-3.6-3.3-5.3-6.7-5.3-10.9c0-4.4,2.1-8.1,5.4-11l1.1,1.1c-2.9,2.9-4.5,6.2-4.5,9.7c0,3.6,1.5,6.9,4.5,9.9
		L229,471.4z"/>
	<path d="M235.4,466.6v-1.8h4v-9.1l-3.7,2.4l-0.7-1.7l4.8-2.9h1.7v11.3h3.4v1.8H235.4z"/>
	<path d="M249.1,469.4c2.2-0.6,2.9-1.6,2.9-2.4c0-1.4-1.1-1.4-1.1-2.5c0-0.9,0.6-1.6,1.5-1.6c1.4,0,2,1.3,2,2.7c0,2.7-1.8,4.3-5,5
		L249.1,469.4z"/>
	<path d="M261.3,466.6v-1.8h4v-9.1l-3.7,2.4l-0.7-1.7l4.8-2.9h1.7v11.3h3.4v1.8H261.3z"/>
	<path d="M275,469.4c2.2-0.6,2.9-1.6,2.9-2.4c0-1.4-1.1-1.4-1.1-2.5c0-0.9,0.6-1.6,1.5-1.6c1.4,0,2,1.3,2,2.7c0,2.7-1.8,4.3-5,5
		L275,469.4z"/>
	<path d="M289.7,468.6c-0.9,0-1.9-0.1-2.7-0.3l0.3-1.8c0.7,0.3,1.7,0.4,2.6,0.4c2.3,0,3.8-1.3,3.8-2.9c0-1.6-1.3-2.7-3.6-2.7
		c-0.7,0-1.3,0-1.9,0.1v-1.6h0.5c3.1,0,4.6-0.9,4.6-2.7c0-1.4-1.1-2.1-2.6-2.1c-1.2,0-2.2,0.3-3.1,0.8l-0.3-1.7
		c1.1-0.5,2.3-0.8,3.7-0.8c2.9,0,4.3,1.4,4.3,3.5c0,1.7-1.1,2.9-2.6,3.4l0,0c1.8,0.2,3.1,1.7,3.1,3.5
		C295.8,466.5,293.3,468.6,289.7,468.6z"/>
	<path d="M300.9,469.4c2.2-0.6,2.9-1.6,2.9-2.4c0-1.4-1.1-1.4-1.1-2.5c0-0.9,0.6-1.6,1.5-1.6c1.4,0,2,1.3,2,2.7c0,2.7-1.8,4.3-5,5
		L300.9,469.4z"/>
	<path d="M315.5,468.6c-0.7,0-1.6-0.1-2.4-0.2l0.2-1.7c0.7,0.2,1.7,0.3,2.4,0.3c2.6,0,4-1.5,4-3.2c0-1.8-1.5-2.8-3.9-2.8
		c-0.9,0-1.7,0.1-2.2,0.2v-7.4h7.6v1.9l-5.8,0v3.8c0.4,0,0.8,0,1.1,0c3.6,0,5.4,1.8,5.4,4.1C321.8,466.3,319.3,468.6,315.5,468.6z"
		/>
	<path d="M328.1,449.6c3.6,3.3,5.3,6.7,5.3,10.9c0,4.4-2.1,8.1-5.4,11l-1.1-1.1c2.9-2.9,4.5-6.2,4.5-9.7c0-3.6-1.5-6.9-4.5-9.9
		L328.1,449.6z"/>
	<path d="M343.9,469.9l-0.8-0.7c1.4-1.5,1.4-2.5,0.9-3.1c-0.6-0.8-0.1-1.9,0.9-1.9C346.5,464.1,347.3,466.9,343.9,469.9z M345,460.4
		c-0.7,0-1.3-0.6-1.3-1.3c0-0.7,0.6-1.3,1.3-1.3s1.3,0.6,1.3,1.3C346.3,459.9,345.7,460.4,345,460.4z"/>
</g>
<ellipse fill="none" stroke="#000000" stroke-width="2" cx="177.9" cy="268.6" rx="66.9" ry="111.5"/>
</svg>
