<?xml version="1.0" encoding="utf-8"?>
<!-- Generator: Adobe Illustrator 18.0.0, SVG Export Plug-In . SVG Version: 6.00 Build 0)  -->
<!DOCTYPE svg PUBLIC "-//W3C//DTD SVG 1.1//EN" "http://www.w3.org/Graphics/SVG/1.1/DTD/svg11.dtd">
<svg version="1.1" id="Layer_1" xmlns="http://www.w3.org/2000/svg" xmlns:xlink="http://www.w3.org/1999/xlink" x="0px" y="0px"
	 viewBox="0 0 612 792" enable-background="new 0 0 612 792" xml:space="preserve">
<g>
	<rect x="77.5" y="148" fill="none" stroke="#999999" stroke-width="1.3" width="486" height="486"/>
	<line fill="none" stroke="#999999" stroke-width="1.3" x1="77.5" y1="553.3" x2="563.6" y2="553.3"/>
	<line fill="none" stroke="#999999" stroke-width="1.3" x1="77.5" y1="472.1" x2="563.6" y2="472.1"/>
	<line fill="none" stroke="#999999" stroke-width="1.3" x1="77.5" y1="391" x2="563.6" y2="391"/>
	<line fill="none" stroke="#999999" stroke-width="1.3" x1="77.5" y1="310.2" x2="563.6" y2="310.2"/>
	<line fill="none" stroke="#999999" stroke-width="1.3" x1="77.5" y1="229" x2="563.6" y2="229"/>
	<line fill="none" stroke="#999999" stroke-width="1.3" x1="482.5" y1="148" x2="482.5" y2="634.1"/>
	<line fill="none" stroke="#999999" stroke-width="1.3" x1="401.5" y1="148" x2="401.5" y2="634.1"/>
	<line fill="none" stroke="#999999" stroke-width="1.3" x1="320.6" y1="148" x2="320.6" y2="634.1"/>
	<line fill="none" stroke="#999999" stroke-width="1.3" x1="239.5" y1="148" x2="239.5" y2="634.1"/>
	<line fill="none" stroke="#999999" stroke-width="1.3" x1="158.6" y1="148" x2="158.6" y2="634.1"/>
</g>
<g enable-background="new    ">
	<path d="M87.2,31.2l-4.4-7.3l-4.2,7.3h-5.9V29c1.1-0.2,2.2-0.6,3.3-0.6l4.8-7l-4.6-7c-1.1,0-2.2-0.4-3.3-0.6v-2.2h5.9l4,7.2
		l4.2-7.2h6.1v2.2c-1.1,0.2-2.2,0.6-3.3,0.6l-4.4,6.8l4.8,7.2c1.1,0,2.2,0.4,3.3,0.6v2.2L87.2,31.2L87.2,31.2z"/>
</g>
<g enable-background="new    ">
	<path d="M-32.8,137l-7,18.9c-2.2,5.9-4,7.9-8.4,7.9c-0.7,0-1.8,0-2.8-0.2l0.2-3.1c0.9,0.2,1.7,0.4,2.6,0.4c2.2,0,3.3-1.1,4.8-4.8
		l0.7-2.2h-0.9l-6.1-16.9c-0.9,0-1.8-0.2-2.6-0.6v-2.2h9v2.2c-0.7,0.2-1.7,0.4-2.6,0.6l2.9,8.4c0.6,1.8,1.1,3.3,1.5,5l0,0
		c0.4-1.3,1.1-3.5,1.8-5.9l2.6-7.5c-0.9,0-1.8-0.2-2.6-0.6v-2.2h8.6v2.2C-30.9,136.7-31.8,136.9-32.8,137z"/>
</g>
<g enable-background="new    ">
	<path d="M84.7,98.3c-5.1,0-9.7-3.1-9.7-12.1c0-7.9,4.8-12.1,10.3-12.1c5,0,9.7,2.9,9.7,11.9C94.9,93.9,90.2,98.3,84.7,98.3z
		 M84.9,77c-3.1,0-6.2,2.8-6.2,9c0,6.6,2.4,9.4,6.2,9.4c3.1,0,6.2-2.8,6.2-9C91.1,79.8,88.7,77,84.9,77z"/>
</g>
<g enable-background="new    ">
	<path d="M155.7,98v-3.1h7.2V78.3l-6.8,4.4l-1.3-2.9l8.6-5.3h3.1v20.4h6.1V98H155.7z"/>
</g>
<g enable-background="new    ">
	<path d="M233.3,98V95l5.7-5.1c5-4.2,6.2-5.9,6.2-8.4s-1.5-4.4-4.8-4.4c-2.2,0-4.4,1.1-5.7,2l-0.7-3.1c2-1.3,4.2-2,7.2-2
		c5.3,0,8.1,2.9,8.1,7c0,3.3-1.7,5.9-6.1,9.5l-4.8,4h-0.2c1.8-0.2,6.1-0.2,11.9-0.2v3.3h-16.9V98z"/>
</g>
<g enable-background="new    ">
	<path d="M317.1,101.6c-1.7,0-3.5-0.2-5-0.6l0.6-3.1c1.3,0.6,2.9,0.7,4.8,0.7c4.2,0,6.8-2.4,6.8-5.3c0-2.9-2.4-4.8-6.4-4.8
		c-1.3,0-2.4,0-3.5,0.2v-2.9h0.7c5.7,0,8.4-1.7,8.4-4.8c0-2.4-1.8-3.9-4.8-3.9c-2.2,0-4,0.6-5.5,1.5l-0.6-3.1c2-0.9,4.2-1.3,6.8-1.3
		c5.3,0,7.9,2.6,7.9,6.2c0,3.1-1.8,5.3-4.8,6.1l0,0c3.3,0.4,5.7,3.1,5.7,6.2C328.1,98,323.6,101.6,317.1,101.6z"/>
</g>
<g enable-background="new    ">
	<path d="M404.3,94.7v6.6h-3.5v-6.6h-12.1l-0.2-2.9l10.8-17.2h5v17.1h4.6v3.1H404.3z M400.8,77.6L400.8,77.6L392,91.5
		c2.4,0,7.3,0,8.8,0V77.6z"/>
</g>
<g enable-background="new    ">
	<path d="M473.8,101.6c-1.3,0-2.9-0.2-4.4-0.4l0.2-3.1c1.3,0.4,3.1,0.6,4.4,0.6c4.8,0,7.3-2.8,7.3-5.9c0-3.3-2.8-5.1-7-5.1
		c-1.7,0-3.1,0.2-4,0.2V74.5h13.8v3.3h-10.5v7c0.7,0,1.5,0,1.8,0c6.4,0,9.7,3.3,9.7,7.5C485.2,97.4,480.6,101.6,473.8,101.6z"/>
</g>
<g enable-background="new    ">
	<path d="M555.7,98.3c-5.5,0-8.8-4-8.8-11.2c0-11.4,5.5-16,13-16c0.7,0,1.7,0,2.4,0.2v3.1c-0.7-0.2-1.7-0.2-2.6-0.2
		c-5,0-7.9,2.9-9,8.4c-0.2,0.4-0.2,1.1-0.4,2l0,0c1.3-2.2,3.7-3.5,6.2-3.5c5.1,0,8.1,3.3,8.1,7.7C564.7,94.7,561,98.3,555.7,98.3z
		 M555.8,84.2c-3.3,0-5.1,2.8-5.1,5.1c0,3.3,1.8,6.1,5.3,6.1c3.1,0,5-2.4,5-5.9C561,86.4,559.1,84.2,555.8,84.2z"/>
</g>
<circle fill="#808080" cx="158.6" cy="310.2" r="12.7"/>
<circle fill="#808080" cx="481.2" cy="310.2" r="12.7"/>
<g enable-background="new    ">
	<path d="M23.6,165.8c-5.1,0-9.7-3.1-9.7-12.1c0-7.9,4.8-12.1,10.3-12.1c5,0,9.7,2.9,9.7,11.9C33.9,161.6,29.1,165.8,23.6,165.8z
		 M23.9,144.6c-3.1,0-6.2,2.8-6.2,9c0,6.6,2.4,9.4,6.2,9.4c3.1,0,6.2-2.8,6.2-9C30.2,147.5,27.6,144.6,23.9,144.6z"/>
</g>
<g enable-background="new    ">
	<path d="M16.2,244v-3.1h7.2v-16.5l-6.8,4.4l-1.3-2.9l8.6-5.3h3.1v20.4h6.1v3.1H16.2z"/>
</g>
<g enable-background="new    ">
	<path d="M15.3,322.5v-2.9l5.7-5.1c5-4.2,6.2-5.9,6.2-8.4c0-2.6-1.5-4.4-4.8-4.4c-2.2,0-4.4,1.1-5.7,2l-0.7-3.1c2-1.3,4.2-2,7.2-2
		c5.3,0,8.1,2.9,8.1,7c0,3.3-1.7,5.9-6.1,9.5l-4.8,4h-0.2c1.8-0.2,6.1-0.2,11.9-0.2v3.3H15.3V322.5z"/>
</g>
<g enable-background="new    ">
	<path d="M20.6,404.5c-1.7,0-3.5-0.2-5-0.6l0.6-3.1c1.3,0.6,2.9,0.7,4.8,0.7c4.2,0,6.8-2.4,6.8-5.3c0-2.9-2.4-4.8-6.4-4.8
		c-1.3,0-2.4,0-3.5,0.2v-2.9h0.7c5.7,0,8.4-1.7,8.4-4.8c0-2.4-1.8-3.9-4.8-3.9c-2.2,0-4,0.6-5.5,1.5l-0.6-3.1c2-0.9,4.2-1.3,6.8-1.3
		c5.3,0,7.9,2.6,7.9,6.2c0,3.1-1.8,5.3-4.8,6.1l0,0c3.3,0.4,5.7,3.1,5.7,6.2C31.8,400.9,27.2,404.5,20.6,404.5z"/>
</g>
<g enable-background="new    ">
	<path d="M29.4,476.1v6.6H26v-6.6H13.9l-0.2-2.9l10.8-17.2h5V473H34v3.1H29.4z M26,459L26,459L17.2,473c2.4,0,7.3,0,8.8,0V459z"/>
</g>
<g enable-background="new    ">
	<path d="M20.5,561.4c-1.3,0-2.9-0.2-4.4-0.4l0.2-3.1c1.3,0.4,3.1,0.6,4.4,0.6c4.8,0,7.3-2.8,7.3-5.9c0-3.3-2.8-5.1-7-5.1
		c-1.7,0-3.1,0.2-4,0.2v-13.4h13.8v3.3H20.3v7c0.7,0,1.5,0,1.8,0c6.4,0,9.7,3.3,9.7,7.5C32,557.4,27.2,561.4,20.5,561.4z"/>
</g>
<g enable-background="new    ">
	<path d="M23.9,636.6c-5.5,0-8.8-4-8.8-11.2c0-11.4,5.5-16,13-16c0.7,0,1.7,0,2.4,0.2v3.1c-0.7-0.2-1.7-0.2-2.6-0.2
		c-5,0-7.9,2.9-9,8.4c-0.2,0.4-0.2,1.1-0.4,2l0,0c1.3-2.2,3.7-3.5,6.2-3.5c5.1,0,8.1,3.3,8.1,7.7C32.8,633,29.3,636.6,23.9,636.6z
		 M24.1,622.5c-3.3,0-5.1,2.8-5.1,5.1c0,3.3,1.8,6.1,5.3,6.1c3.1,0,5-2.4,5-5.9C29.3,624.7,27.4,622.5,24.1,622.5z"/>
</g>
<line fill="none" stroke="#000000" stroke-width="1.3" x1="79.5" y1="148" x2="63.9" y2="148"/>
<line fill="none" stroke="#000000" stroke-width="1.3" x1="79.5" y1="229.3" x2="63.9" y2="229.3"/>
<line fill="none" stroke="#000000" stroke-width="1.3" x1="79.5" y1="310.1" x2="63.9" y2="310.1"/>
<line fill="none" stroke="#000000" stroke-width="1.3" x1="79.5" y1="391" x2="63.9" y2="391"/>
<line fill="none" stroke="#000000" stroke-width="1.3" x1="79.5" y1="472.2" x2="63.9" y2="472.2"/>
<line fill="none" stroke="#000000" stroke-width="1.3" x1="79.5" y1="554.1" x2="63.9" y2="554.1"/>
<line fill="none" stroke="#000000" stroke-width="1.3" x1="79.5" y1="633.3" x2="63.9" y2="633.3"/>
<line fill="none" stroke="#000000" stroke-width="1.3" x1="563" y1="147.9" x2="563" y2="132.4"/>
<line fill="none" stroke="#000000" stroke-width="1.3" x1="481.4" y1="147.9" x2="481.4" y2="132.4"/>
<line fill="none" stroke="#000000" stroke-width="1.3" x1="400.6" y1="147.9" x2="400.6" y2="132.4"/>
<line fill="none" stroke="#000000" stroke-width="1.3" x1="319.9" y1="147.9" x2="319.9" y2="132.4"/>
<line fill="none" stroke="#000000" stroke-width="1.3" x1="238.8" y1="147.9" x2="238.8" y2="132.4"/>
<line fill="none" stroke="#000000" stroke-width="1.3" x1="156.6" y1="147.9" x2="156.6" y2="132.4"/>
<line fill="none" stroke="#000000" stroke-width="1.3" x1="78.3" y1="147.9" x2="78.3" y2="132.4"/>
<polyline fill="#FFFFFF" stroke="#000000" stroke-width="1.3" points="-31.8,296.5 -41.6,306 -51.1,296.5 "/>
<line fill="none" stroke="#000000" stroke-width="1.3" x1="-41.6" y1="306" x2="-41.6" y2="192.3"/>
<polyline fill="#FFFFFF" stroke="#000000" stroke-width="1.3" points="226.1,9.7 235.9,19.2 226.1,28.8 "/>
<line fill="none" stroke="#000000" stroke-width="1.3" x1="237.9" y1="19.2" x2="124.1" y2="19.2"/>
<g enable-background="new    ">
	<path d="M647,396.3v-2.2c0.9-0.2,2.2-0.4,3.3-0.6v-23.3c-0.9-0.2-2.2-0.4-3.3-0.4v-2.2c2-0.2,4.6-0.4,7-0.2v26.2
		c1.1,0,2.4,0.4,3.3,0.6v2.2H647V396.3z"/>
	<path d="M659,396.3v-2.2c1.1-0.2,2.2-0.4,3.5-0.6v-14.1c-0.9-0.2-2.2-0.4-3.5-0.4v-2.2c2-0.2,4.6-0.4,7-0.4v16.9
		c1.1,0,2.4,0.4,3.3,0.6v2.2H659V396.3z M664.3,372.8c-1.3,0-2.4-0.9-2.4-2.2s1.1-2.4,2.4-2.4c1.3,0,2.4,1.1,2.4,2.4
		C666.5,371.9,665.6,372.8,664.3,372.8z"/>
	<path d="M686.8,396.3v-12.5c0-2.8-0.7-4.4-3.3-4.4c-3.3,0-5.5,3.3-5.5,7.5v6.8c1.1,0,2.2,0.2,3.1,0.6v2.2h-10.1v-2.2
		c1.1-0.2,2.2-0.4,3.5-0.6v-14.1c-0.9-0.2-2.2-0.4-3.5-0.4V377c2-0.2,4.6-0.4,6.8-0.4c0,1.1,0,2.9-0.2,4l0,0c1.1-2.8,3.5-4.4,7-4.4
		c4.4,0,5.9,2.8,5.9,6.2v11c1.1,0,2.4,0.4,3.3,0.6v2.2L686.8,396.3L686.8,396.3z"/>
	<path d="M712.4,386.4h-12.7c-0.2,5.1,1.8,7.3,6.2,7.3c1.8,0,3.9-0.4,5.5-1.1l0.6,2.8c-2,0.7-4.4,1.3-6.8,1.3
		c-5.9,0-9.2-3.1-9.2-10.1c0-5.9,3.3-10.3,8.8-10.3s7.7,3.7,7.7,8.1C712.5,384.9,712.5,385.6,712.4,386.4z M704.6,379
		c-2.6,0-4.4,1.8-4.8,5h9.2C709,380.9,707.4,379,704.6,379z"/>
	<path d="M731.4,404.5c-4.6-7.3-5.7-13.6-5.7-19.3s1.3-12.5,5.7-19.4l2.6,1.3c-3.1,5.5-5,11.7-5,18.2c0,6.8,1.7,12.7,5,18.2
		L731.4,404.5z"/>
	<path d="M758.2,396.3l-4.4-7.3l-4.2,7.3h-5.9v-2.2c1.1-0.2,2.2-0.6,3.3-0.6l4.8-7l-4.6-7c-1.1,0-2.2-0.4-3.3-0.6v-2.2h5.9l4,7.2
		l4.2-7.2h5.7v2.2c-1.1,0.2-2.2,0.6-3.3,0.6l-4.4,6.8l4.8,7.2c1.1,0,2.2,0.4,3.3,0.6v2.2L758.2,396.3L758.2,396.3z"/>
	<path d="M768.7,396.3v-3.1h7.2v-16.5l-6.8,4.4l-1.3-2.9l8.6-5.3h2.9v20.4h6.1v3.1H768.7z"/>
	<path d="M799.3,402.3l-1.5-1.3c2.6-2.8,2.6-4.6,1.7-5.7c-1.1-1.3-0.2-3.5,1.7-3.5C804.1,391.9,805.4,396.8,799.3,402.3z"/>
	<path d="M831.8,379.4l-7,18.9c-2.2,5.9-4,7.9-8.4,7.9c-0.7,0-1.8,0-2.8-0.2l0.2-3.1c0.9,0.2,1.7,0.4,2.6,0.4c2.2,0,3.3-1.1,4.8-4.8
		l0.7-2.2H821l-6.1-16.9c-0.9,0-1.8-0.2-2.6-0.6v-2.2h9v2.2c-0.7,0.2-1.7,0.4-2.6,0.6l2.9,8.4c0.6,1.8,1.1,3.3,1.5,5l0,0
		c0.4-1.3,1.1-3.5,1.8-5.9l2.6-7.5c-0.9,0-1.8-0.2-2.6-0.6v-2.2h8.6v2.2C833.4,379,832.7,379.2,831.8,379.4z"/>
	<path d="M838.6,396.3v-3.1h7.2v-16.5l-6.8,4.4l-1.3-2.9l8.6-5.3h2.9v20.4h6.1v3.1H838.6z"/>
	<path d="M869.2,402.3l-1.5-1.3c2.6-2.8,2.6-4.6,1.7-5.7c-1.1-1.3-0.2-3.5,1.7-3.5C874,391.9,875.3,396.8,869.2,402.3z"/>
	<path d="M897.3,396.3l-4.4-7.3l-4.2,7.3h-5.9v-2.2c1.1-0.2,2.2-0.6,3.3-0.6l4.8-7l-4.6-7c-1.1,0-2.2-0.4-3.3-0.6v-2.2h5.9l4,7.2
		l4.2-7.2h5.7v2.2c-1.1,0.2-2.2,0.6-3.3,0.6l-4.4,6.8l4.8,7.2c1.1,0,2.2,0.4,3.3,0.6v2.2L897.3,396.3L897.3,396.3z"/>
	<path d="M907,396.3v-2.9l5.7-5.1c5-4.2,6.2-5.9,6.2-8.4c0-2.6-1.5-4.4-4.8-4.4c-2.2,0-4.4,1.1-5.7,2l-0.7-3.1c2-1.3,4.2-2,7.2-2
		c5.3,0,8.1,2.9,8.1,7c0,3.3-1.7,5.9-6.1,9.5l-4.8,4H912c1.8-0.2,6.1-0.2,11.9-0.2v3.3H907V396.3z"/>
	<path d="M938.4,402.3l-1.5-1.3c2.6-2.8,2.6-4.6,1.7-5.7c-1.1-1.3-0.2-3.5,1.7-3.5C943.2,391.9,944.5,396.8,938.4,402.3z"/>
	<path d="M970.9,379.4l-7,18.9c-2.2,5.9-4,7.9-8.4,7.9c-0.7,0-1.8,0-2.8-0.2l0.2-3.1c0.9,0.2,1.7,0.4,2.6,0.4c2.2,0,3.3-1.1,4.8-4.8
		l0.7-2.2H960l-6.1-16.9c-0.9,0-1.8-0.2-2.6-0.6v-2.2h9v2.2c-0.7,0.2-1.7,0.4-2.6,0.6l2.9,8.4c0.6,1.8,1.1,3.3,1.5,5l0,0
		c0.4-1.3,1.1-3.5,1.8-5.9l2.6-7.5c-0.9,0-1.8-0.2-2.6-0.6v-2.2h8.6v2.2C972.7,379,971.8,379.2,970.9,379.4z"/>
	<path d="M976.9,396.3v-2.9l5.7-5.1c5-4.2,6.2-5.9,6.2-8.4c0-2.6-1.5-4.4-4.8-4.4c-2.2,0-4.4,1.1-5.7,2l-0.7-3.1c2-1.3,4.2-2,7.2-2
		c5.3,0,8.1,2.9,8.1,7c0,3.3-1.7,5.9-6.1,9.5l-4.8,4h-0.2c1.8-0.2,6.1-0.2,11.9-0.2v3.3h-16.9V396.3z"/>
	<path d="M1009.4,404.5l-2.6-1.3c3.3-5.5,5-11.7,5-18c0-6.8-1.7-12.7-5-18.3l2.8-1.3c4.6,7.3,5.7,13.6,5.7,19.3
		C1015.1,390.6,1013.8,397.4,1009.4,404.5z"/>
	<path d="M1030.5,402.3l-1.5-1.3c2.6-2.8,2.6-4.6,1.7-5.7c-1.1-1.3-0.2-3.5,1.7-3.5C1035.3,391.9,1036.6,396.8,1030.5,402.3z
		 M1032.3,385.1c-1.3,0-2.4-1.1-2.4-2.4s1.1-2.4,2.4-2.4c1.3,0,2.4,1.1,2.4,2.4C1034.9,384,1033.8,385.1,1032.3,385.1z"/>
</g>
<text transform="matrix(1 0 0 1 646.3711 479.9532)" fill="#999999" font-family="'TheSerif-HP5Plain'" font-size="30.5127" letter-spacing="67"> </text>
<g enable-background="new    ">
	<path fill="#999999" d="M753.3,472.8c-0.9,0-1.7,0-2.2-0.2v5.1c0.9,0,1.8,0.2,2.6,0.4v1.7h-8.1v-1.7c0.7-0.2,1.7-0.4,2.6-0.4v-16.5
		c-0.9,0-1.8-0.2-2.6-0.4v-1.7h2.6c0.9,0,3.5-0.2,5.3-0.2c5.5,0,7.9,2.9,7.9,6.4C761.5,469.9,758.2,472.8,753.3,472.8z M753.3,461.6
		c-0.7,0-1.7,0-2.2,0v8.8c0.6,0,1.5,0.2,2.4,0.2c3.5,0,5.1-2,5.1-4.6C758.6,463.8,757.3,461.6,753.3,461.6z"/>
	<path fill="#999999" d="M770.3,480.1c-4.2,0-6.8-2.4-6.8-7.7c0-4.6,2.8-8.1,7.3-8.1c3.9,0,6.8,2,6.8,7.7
		C777.7,476.7,774.9,480.1,770.3,480.1z M770.5,466.7c-2.2,0-4.2,1.7-4.2,5.5c0,3.5,1.5,5.5,4.2,5.5c2.2,0,4.2-1.8,4.2-5.5
		C774.7,468.8,773.3,466.7,770.5,466.7z"/>
	<path fill="#999999" d="M779.9,480v-1.7c0.7-0.2,1.7-0.4,2.6-0.4v-11c-0.7-0.2-1.8-0.2-2.6-0.4v-1.7c1.5-0.2,3.7-0.4,5.3-0.2v13.2
		c0.9,0,1.8,0.2,2.6,0.4v1.7H779.9z M783.9,461.8c-0.9,0-1.8-0.7-1.8-1.8s0.7-1.8,1.8-1.8c0.9,0,1.8,0.7,1.8,1.8
		C785.6,461.1,784.8,461.8,783.9,461.8z"/>
	<path fill="#999999" d="M801.5,480v-9.7c0-2.2-0.6-3.5-2.6-3.5c-2.6,0-4.4,2.6-4.4,5.9v5.1c0.7,0,1.7,0.2,2.4,0.4v1.7H789v-1.7
		c0.7-0.2,1.7-0.4,2.6-0.4v-11c-0.7-0.2-1.8-0.2-2.6-0.4v-1.7c1.5-0.2,3.7-0.4,5.3-0.2c0,0.9,0,2.2-0.2,3.1l0,0
		c0.9-2,2.8-3.5,5.3-3.5c3.5,0,4.6,2.2,4.6,4.8v8.6c0.9,0,1.8,0.2,2.6,0.4v1.7h-5.1V480z"/>
	<path fill="#999999" d="M814.2,480.1c-3.1,0-4-1.3-4-4.6v-8.8H807v-2.2h3.1v-5l2.8-0.7v5.7h4.2v2.2h-4.2v7.7c0,2.6,0.6,3.1,2.2,3.1
		c0.7,0,1.3,0,1.8-0.2l0.4,2.2C816.4,480.1,815.3,480.1,814.2,480.1z"/>
	<path fill="#999999" d="M838.4,480v-1.7c0.7-0.2,1.7-0.4,2.4-0.4l-1.1-3.3h-8.6l-1.1,3.3c0.7,0,1.7,0.2,2.4,0.4v1.7h-7.2v-1.7
		c0.6-0.2,1.3-0.4,1.8-0.4l6.8-18.5h3.5l6.8,18.5c0.6,0,1.3,0.2,1.8,0.4v1.7H838.4z M836.4,465.1c-0.4-1.1-0.7-2-0.9-2.9l0,0
		c-0.2,0.9-0.6,1.8-0.9,2.9l-2.6,7.3h7.2L836.4,465.1z"/>
	<path fill="#999999" d="M881.2,472.8c-0.9,0-1.7,0-2.2-0.2v5.1c0.9,0,1.8,0.2,2.6,0.4v1.7h-8.1v-1.7c0.7-0.2,1.7-0.4,2.6-0.4v-16.5
		c-0.9,0-1.8-0.2-2.6-0.4v-1.7h2.6c0.9,0,3.5-0.2,5.3-0.2c5.5,0,7.9,2.9,7.9,6.4C889.4,469.9,886.1,472.8,881.2,472.8z M881.2,461.6
		c-0.7,0-1.7,0-2.2,0v8.8c0.6,0,1.5,0.2,2.4,0.2c3.5,0,5.1-2,5.1-4.6C886.5,463.8,885.2,461.6,881.2,461.6z"/>
	<path fill="#999999" d="M898.2,480.1c-4.2,0-6.8-2.4-6.8-7.7c0-4.6,2.8-8.1,7.3-8.1c3.9,0,6.8,2,6.8,7.7
		C905.6,476.7,902.8,480.1,898.2,480.1z M898.4,466.7c-2.2,0-4.2,1.7-4.2,5.5c0,3.5,1.5,5.5,4.2,5.5c2.2,0,4.2-1.8,4.2-5.5
		C902.6,468.8,901.2,466.7,898.4,466.7z"/>
	<path fill="#999999" d="M907.6,480v-1.7c0.7-0.2,1.7-0.4,2.6-0.4v-11c-0.7-0.2-1.8-0.2-2.6-0.4v-1.7c1.5-0.2,3.7-0.4,5.3-0.2v13.2
		c0.9,0,1.8,0.2,2.6,0.4v1.7H907.6z M911.8,461.8c-0.9,0-1.8-0.7-1.8-1.8s0.7-1.8,1.8-1.8c0.9,0,1.8,0.7,1.8,1.8
		C913.4,461.1,912.7,461.8,911.8,461.8z"/>
	<path fill="#999999" d="M929.4,480v-9.7c0-2.2-0.6-3.5-2.6-3.5c-2.6,0-4.4,2.6-4.4,5.9v5.1c0.7,0,1.7,0.2,2.4,0.4v1.7h-7.9v-1.7
		c0.7-0.2,1.7-0.4,2.6-0.4v-11c-0.7-0.2-1.8-0.2-2.6-0.4v-1.7c1.5-0.2,3.7-0.4,5.3-0.2c0,0.9,0,2.2-0.2,3.1l0,0
		c0.9-2,2.8-3.5,5.3-3.5c3.5,0,4.6,2.2,4.6,4.8v8.6c0.9,0,1.8,0.2,2.6,0.4v1.7h-5.1V480z"/>
	<path fill="#999999" d="M942.1,480.1c-3.1,0-4-1.3-4-4.6v-8.8h-3.1v-2.2h3.1v-5l2.8-0.7v5.7h4.2v2.2h-4.2v7.7
		c0,2.6,0.6,3.1,2.2,3.1c0.7,0,1.3,0,1.8-0.2l0.4,2.2C944.3,480.1,943.2,480.1,942.1,480.1z"/>
	<path fill="#999999" d="M961.7,480c-1.1,0-3.1,0-5.3,0h-2.8v-1.7c0.7-0.2,1.7-0.4,2.6-0.4v-16.5c-0.9,0-1.8-0.2-2.6-0.4v-1.7h2.6
		c1.5,0,3.5,0,5.9,0c4.4,0,6.6,1.8,6.6,5c0,2.2-1.1,4-3.3,4.8l0,0c2.9,0.6,4.2,2.6,4.2,4.8C969.6,476.3,968.1,480,961.7,480z
		 M961.7,461.6c-0.9,0-1.7,0-2.6,0v6.6c0.6,0,1.1,0,1.8,0c3.3,0,4.8-1.3,4.8-3.7C965.9,462.9,965,461.6,961.7,461.6z M961.1,470.4
		c-0.4,0-1.5,0-2,0v7.2c0.6,0,1.5,0.2,2.8,0.2c3.3,0,4.8-1.7,4.8-3.9C966.7,471.1,964.3,470.4,961.1,470.4z"/>
</g>
<g enable-background="new    ">
	<path d="M184.3,287.3v-2.2c0.9-0.2,2-0.4,3.1-0.6l-1.5-4.4h-11l-1.5,4.4c1.1,0,2.2,0.2,3.1,0.6v2.2h-9.2v-2.2
		c0.7-0.2,1.7-0.4,2.4-0.4l8.6-23.9h4.4l8.8,23.9c0.7,0,1.7,0.2,2.4,0.4v2.2H184.3z M181.6,268c-0.6-1.3-0.9-2.6-1.3-3.9l0,0
		c-0.4,1.3-0.7,2.4-1.1,3.9l-3.5,9.4h9.2L181.6,268z"/>
	<path d="M218.6,296.1c-6.6-6.1-9.7-12.1-9.7-19.8c0-8.1,3.9-14.7,9.7-20l2,2c-5.3,5.1-8.3,11.4-8.3,17.6c0,6.6,2.8,12.5,8.3,17.8
		L218.6,296.1z"/>
	<path d="M230.2,287.3v-3.1h7.2v-16.5l-6.8,4.4l-1.3-2.9l8.6-5.3h2.9v20.4h6.1v3.1H230.2z"/>
	<path d="M254.9,292.4c4-1.1,5.3-2.9,5.3-4.4c0-2.4-2-2.6-2-4.6c0-1.7,1.1-2.9,2.8-2.9c2.4,0,3.7,2.4,3.7,5c0,4.8-3.3,7.7-9,9.2
		L254.9,292.4z"/>
	<path d="M276.4,287.3v-2.9l5.7-5.1c5-4.2,6.2-5.9,6.2-8.4c0-2.6-1.5-4.4-4.8-4.4c-2.2,0-4.4,1.1-5.7,2l-0.7-3.1c2-1.3,4.2-2,7.2-2
		c5.3,0,8.1,2.9,8.1,7c0,3.3-1.7,5.9-6.1,9.5l-4.8,4h-0.2c1.8-0.2,6.1-0.2,11.9-0.2v3.3h-16.9V287.3z"/>
	<path d="M304.5,256.3c6.6,6.1,9.7,12.1,9.7,19.8c0,8.1-3.9,14.7-9.7,20l-2-2c5.3-5.1,8.3-11.4,8.3-17.6c0-6.6-2.8-12.7-8.3-17.8
		L304.5,256.3z"/>
</g>
<g enable-background="new    ">
	<path d="M500.8,287.5c-1.5,0-4-0.2-6.8-0.2h-3.5v-2.2c1.1-0.2,2.2-0.4,3.5-0.6v-21.1c-1.1,0-2.4-0.4-3.5-0.6v-2.2h3.3
		c1.8,0,4.4-0.2,7.5-0.2c5.7,0,8.4,2.4,8.4,6.4c0,2.8-1.5,5.1-4.4,6.2l0,0c3.7,0.6,5.3,3.3,5.3,6.1
		C510.9,282.5,509.1,287.5,500.8,287.5z M500.8,263.6c-1.3,0-2.2,0-3.3,0v8.6c0.7,0,1.5,0,2.4,0c4.4,0,6.2-1.7,6.2-4.6
		C506.1,265.3,505,263.6,500.8,263.6z M500.1,275c-0.6,0-1.8,0-2.6,0v9.2c0.7,0.2,1.8,0.2,3.5,0.2c4.4,0,6.2-2.2,6.2-5
		C507.2,276.1,504.1,275,500.1,275z"/>
	<path d="M537.5,296.1c-6.6-6.1-9.7-12.1-9.7-19.8c0-8.1,3.9-14.7,9.7-20l2,2c-5.3,5.1-8.3,11.4-8.3,17.6c0,6.6,2.8,12.5,8.3,17.8
		L537.5,296.1z"/>
	<path d="M553.3,291c-1.3,0-2.9-0.2-4.4-0.4l0.2-3.1c1.3,0.4,3.1,0.6,4.4,0.6c4.8,0,7.3-2.8,7.3-5.9c0-3.3-2.8-5.1-7-5.1
		c-1.7,0-3.1,0.2-4,0.2v-13.4h13.8v3.3h-10.5v7c0.7,0,1.5,0,1.8,0c6.4,0,9.7,3.3,9.7,7.5C564.8,286.8,560.2,291,553.3,291z"/>
	<path d="M573.8,292.4c4-1.1,5.3-2.9,5.3-4.4c0-2.4-2-2.6-2-4.6c0-1.7,1.1-2.9,2.8-2.9c2.4,0,3.7,2.4,3.7,5c0,4.8-3.3,7.7-9,9.2
		L573.8,292.4z"/>
	<path d="M595.3,287.3v-2.9l5.7-5.1c5-4.2,6.2-5.9,6.2-8.4c0-2.6-1.5-4.4-4.8-4.4c-2.2,0-4.4,1.1-5.7,2l-0.7-3.1c2-1.3,4.2-2,7.2-2
		c5.3,0,8.1,2.9,8.1,7c0,3.3-1.7,5.9-6.1,9.5l-4.8,4h-0.2c1.8-0.2,6.1-0.2,11.9-0.2v3.3h-16.9V287.3z"/>
	<path d="M623.4,256.3c6.6,6.1,9.7,12.1,9.7,19.8c0,8.1-3.9,14.7-9.7,20l-2-2c5.3-5.1,8.3-11.4,8.3-17.6c0-6.6-2.8-12.7-8.3-17.8
		L623.4,256.3z"/>
</g>
<line fill="none" stroke="#999999" stroke-width="5" x1="744.5" y1="424.9" x2="841.5" y2="424.9"/>
<line fill="none" stroke="#999999" stroke-width="5" x1="864.3" y1="424.9" x2="974" y2="424.9"/>
<line fill="none" stroke="#000000" stroke-width="2" x1="156" y1="311.5" x2="482.5" y2="311.5"/>
<g enable-background="new    ">
	<path fill="#808080" d="M91.1,740.7v-2.2c1.1-0.2,2.2-0.4,3.5-0.6v-21.3c-1.1,0-2.4-0.4-3.5-0.6v-2.2h17.1v6.1h-2.6
		c-0.2-1.3-0.4-2.4-0.6-3.3h-7.2v8.6h5.7c0.2-0.9,0.4-1.8,0.6-2.8h2.2v8.1h-2.2c-0.2-0.7-0.4-1.8-0.6-2.8h-5.7v9.4h7.2
		c0.2-1.1,0.4-2.2,0.6-3.3h2.6v6.2H91.1V740.7z"/>
	<path fill="#808080" d="M125.6,740.7l-4.4-7.3l-4.2,7.3h-5.9v-2.2c1.1-0.2,2.2-0.6,3.3-0.6l4.8-7l-4.6-7c-1.1,0-2.2-0.4-3.3-0.6
		v-2.2h5.9l4,7.2l4.2-7.2h5.7v2.2c-1.1,0.2-2.2,0.6-3.3,0.6l-4.4,6.8l4.8,7.2c1.1,0,2.2,0.4,3.3,0.6v2.2L125.6,740.7L125.6,740.7z"
		/>
	<path fill="#808080" d="M145.6,740.7c0-1.3,0-2.8,0.2-3.9l0,0c-0.9,2.4-3.5,4.2-6.6,4.2c-3.1,0-5.5-2-5.5-5.1
		c0-4.2,4.4-6.6,11.7-6.6v-1.7c0-2.8-0.9-4.2-4-4.2c-1.1,0-2.6,0.2-3.7,0.6c0,0.9-0.2,2-0.6,3.1h-2.2v-5.3c2-0.6,4.4-1.1,6.6-1.1
		c5.7,0,7.3,2.6,7.3,6.4v10.6c0.9,0.2,2.2,0.4,3.3,0.4v2.2C150.5,740.5,147.8,740.7,145.6,740.7z M145.4,731.7
		c-6.1,0-8.3,1.5-8.3,3.7c0,1.7,1.1,2.9,2.9,2.9c3.1,0,5.3-3.1,5.3-6.2V731.7z"/>
	<path fill="#808080" d="M181.9,740.7v-12.5c0-2.8-0.6-4.4-3.1-4.4c-2.8,0-5.5,2.9-5.5,7.7v6.6c1.1,0,2.2,0.2,3.1,0.6v2.2h-6.6
		v-12.5c0-2.4-0.6-4.4-3.1-4.4c-2.9,0-5.5,3.3-5.5,7.7v6.6c1.1,0,2.2,0.2,3.1,0.6v2.2h-10.1v-2.2c1.1-0.2,2.2-0.4,3.5-0.6V724
		c-0.9-0.2-2.2-0.4-3.5-0.4v-2.2c2-0.2,4.8-0.4,6.8-0.4c0,1.1-0.2,2.9-0.4,4l0,0c1.1-2.8,3.7-4.6,6.8-4.6c4,0,5.1,2.8,5.5,4.4
		c0.7-1.8,2.9-4.4,6.6-4.4s5.7,2,5.7,6.4v10.8c1.1,0,2.4,0.4,3.3,0.6v2.2h-6.6V740.7z"/>
	<path fill="#808080" d="M199.9,740.9c-1.3,0-2.2,0-3.3-0.2v7c1.1,0,2.4,0.4,3.5,0.6v2.2h-10.3v-2.2c1.1-0.2,2-0.4,3.3-0.6v-23.9
		c-0.9-0.2-2.2-0.4-3.3-0.4v-2.2c1.8-0.2,4.6-0.4,6.8-0.4c0,1.1-0.2,2.9-0.4,4l0,0c1.1-2.8,3.5-4.4,6.4-4.4c4.6,0,7.2,3.3,7.2,9.2
		C210,736.8,206.1,740.9,199.9,740.9z M201.9,723.6c-3.5,0-5.3,4-5.3,7.5v6.4c1.1,0.4,2.2,0.6,3.5,0.6c3.7,0,6.2-2.2,6.2-7.9
		C206.1,726,204.9,723.6,201.9,723.6z"/>
	<path fill="#808080" d="M212.4,740.7v-2.2c0.9-0.2,2.2-0.4,3.3-0.6v-23.1c-0.9-0.2-2.2-0.4-3.3-0.4v-2.2c2-0.2,4.6-0.4,7-0.2v26.1
		c1.1,0,2.4,0.4,3.3,0.6v2.2h-10.3V740.7z"/>
	<path fill="#808080" d="M241,730.8h-12.7c-0.2,5.1,1.8,7.3,6.2,7.3c1.8,0,3.9-0.4,5.5-1.1l0.6,2.8c-2,0.7-4.4,1.3-6.8,1.3
		c-5.9,0-9.2-3.1-9.2-10.1c0-5.9,3.3-10.3,8.8-10.3s7.7,3.7,7.7,8.1C241,729.3,241,730,241,730.8z M233.1,723.4
		c-2.6,0-4.4,1.8-4.8,5h9.2C237.5,725.3,235.9,723.4,233.1,723.4z"/>
	<path fill="#808080" d="M249.1,729.5c-1.3,0-2.4-1.1-2.4-2.4s1.1-2.4,2.4-2.4s2.4,1.1,2.4,2.4S250.4,729.5,249.1,729.5z M249.1,741
		c-1.3,0-2.4-1.1-2.4-2.4s1.1-2.4,2.4-2.4s2.4,1.1,2.4,2.4S250.4,741,249.1,741z"/>
</g>
<g enable-background="new    ">
	<path d="M272.6,740.7v-2.2c0.9-0.2,2.2-0.4,3.3-0.6v-23.1c-0.9-0.2-2.2-0.4-3.3-0.4v-2.2c2-0.2,4.6-0.4,7-0.2v26.1
		c1.1,0,2.4,0.4,3.3,0.6v2.2h-10.3V740.7z"/>
	<path d="M284.7,740.7v-2.2c1.1-0.2,2.2-0.4,3.5-0.6V724c-0.9-0.2-2.2-0.4-3.5-0.4v-2.2c2-0.2,4.6-0.4,7-0.4v16.9
		c1.1,0,2.4,0.4,3.3,0.6v2.2H284.7z M289.8,717.2c-1.3,0-2.4-0.9-2.4-2.2s1.1-2.4,2.4-2.4c1.3,0,2.4,1.1,2.4,2.4
		S291.1,717.2,289.8,717.2z"/>
	<path d="M312.6,740.7v-12.5c0-2.8-0.7-4.4-3.3-4.4c-3.3,0-5.5,3.3-5.5,7.5v6.8c1.1,0,2.2,0.2,3.1,0.6v2.2h-10.1v-2.2
		c1.1-0.2,2.2-0.4,3.5-0.6V724c-0.9-0.2-2.2-0.4-3.5-0.4v-2.2c2-0.2,4.6-0.4,6.8-0.4c0,1.1,0,2.9-0.2,4l0,0c1.1-2.8,3.5-4.4,7-4.4
		c4.4,0,5.9,2.8,5.9,6.2v11c1.1,0,2.4,0.4,3.3,0.6v2.2H312.6z"/>
	<path d="M337.9,730.8h-12.7c-0.2,5.1,1.8,7.3,6.2,7.3c1.8,0,3.9-0.4,5.5-1.1l0.6,2.8c-2,0.7-4.4,1.3-6.8,1.3
		c-5.9,0-9.2-3.1-9.2-10.1c0-5.9,3.3-10.3,8.8-10.3c5.5,0,7.7,3.7,7.7,8.1C338.1,729.3,338.1,730,337.9,730.8z M330.2,723.4
		c-2.6,0-4.4,1.8-4.8,5h9.2C334.6,725.3,332.9,723.4,330.2,723.4z"/>
	<path d="M364.5,749.5c-6.6-6.1-9.7-12.1-9.7-19.8c0-8.1,3.9-14.7,9.7-20l2,2c-5.3,5.1-8.3,11.4-8.3,17.6c0,6.6,2.8,12.5,8.3,17.8
		L364.5,749.5z"/>
	<path d="M376,740.7v-3.1h7.2V721l-6.8,4.4l-1.3-2.9l8.6-5.3h2.9v20.4h6.1v3.1H376z"/>
	<path d="M400.8,745.8c4-1.1,5.3-2.9,5.3-4.4c0-2.4-2-2.6-2-4.6c0-1.7,1.1-2.9,2.8-2.9c2.4,0,3.7,2.4,3.7,5c0,4.8-3.3,7.7-9,9.2
		L400.8,745.8z"/>
	<path d="M422.3,740.7v-2.9l5.7-5.1c5-4.2,6.2-5.9,6.2-8.4c0-2.6-1.5-4.4-4.8-4.4c-2.2,0-4.4,1.1-5.7,2l-0.7-3.1c2-1.3,4.2-2,7.2-2
		c5.3,0,8.1,2.9,8.1,7c0,3.3-1.7,5.9-6.1,9.5l-4.8,4h-0.2c1.8-0.2,6.1-0.2,11.9-0.2v3.3h-16.9V740.7z"/>
	<path d="M448,745.8c4-1.1,5.3-2.9,5.3-4.4c0-2.4-2-2.6-2-4.6c0-1.7,1.1-2.9,2.8-2.9c2.4,0,3.7,2.4,3.7,5c0,4.8-3.3,7.7-9,9.2
		L448,745.8z"/>
	<path d="M474.4,744.3c-1.3,0-2.9-0.2-4.4-0.4l0.2-3.1c1.3,0.4,3.1,0.6,4.4,0.6c4.8,0,7.3-2.8,7.3-5.9c0-3.3-2.8-5.1-7-5.1
		c-1.7,0-3.1,0.2-4,0.2v-13.4h13.8v3.3h-10.5v7c0.7,0,1.5,0,1.8,0c6.4,0,9.7,3.3,9.7,7.5C485.9,740.1,481.4,744.3,474.4,744.3z"/>
	<path d="M494.9,745.8c4-1.1,5.3-2.9,5.3-4.4c0-2.4-2-2.6-2-4.6c0-1.7,1.1-2.9,2.8-2.9c2.4,0,3.7,2.4,3.7,5c0,4.8-3.3,7.7-9,9.2
		L494.9,745.8z"/>
	<path d="M516.4,740.7v-2.9l5.7-5.1c5-4.2,6.2-5.9,6.2-8.4c0-2.6-1.5-4.4-4.8-4.4c-2.2,0-4.4,1.1-5.7,2l-0.7-3.1c2-1.3,4.2-2,7.2-2
		c5.3,0,8.1,2.9,8.1,7c0,3.3-1.7,5.9-6.1,9.5l-4.8,4h-0.2c1.8-0.2,6.1-0.2,11.9-0.2v3.3h-16.9V740.7z"/>
	<path d="M544.5,709.7c6.6,6.1,9.7,12.1,9.7,19.8c0,8.1-3.9,14.7-9.7,20l-2-2c5.3-5.1,8.3-11.4,8.3-17.6c0-6.6-2.8-12.7-8.3-17.8
		L544.5,709.7z"/>
	<path d="M588.1,746.7l-1.5-1.3c2.6-2.8,2.6-4.6,1.7-5.7c-1.1-1.3-0.2-3.5,1.7-3.5C592.9,736.3,594.2,741,588.1,746.7z M590,729.5
		c-1.3,0-2.4-1.1-2.4-2.4s1.1-2.4,2.4-2.4c1.3,0,2.4,1.1,2.4,2.4C592.4,728.4,591.4,729.5,590,729.5z"/>
</g>
</svg>
