<?xml version="1.0" encoding="utf-8"?>
<!-- Generator: Adobe Illustrator 18.0.0, SVG Export Plug-In . SVG Version: 6.00 Build 0)  -->
<!DOCTYPE svg PUBLIC "-//W3C//DTD SVG 1.1//EN" "http://www.w3.org/Graphics/SVG/1.1/DTD/svg11.dtd">
<svg version="1.1" id="Layer_1" xmlns="http://www.w3.org/2000/svg" xmlns:xlink="http://www.w3.org/1999/xlink" x="0px" y="0px"
	 viewBox="0 0 612 792" enable-background="new 0 0 612 792" xml:space="preserve">
<g id="Layer_2" display="none">
	<rect x="270.1" y="678.4" display="inline" fill="#FBB03B" width="14.5" height="28.7"/>
	<rect x="421.6" y="738.8" display="inline" fill="#FBB03B" width="7.2" height="28.7"/>
	<rect x="212" y="678.4" display="inline" fill="#00FFFF" width="47.3" height="28.7"/>
	<rect x="153" y="678.4" display="inline" fill="#00FF00" width="47.3" height="28.7"/>
	<rect x="365.7" y="738.8" display="inline" fill="#00FFFF" width="47.3" height="29.1"/>
	<rect x="267.5" y="739.2" display="inline" fill="#00FF00" width="47.5" height="28.5"/>
	<rect x="65.3" y="738.4" display="inline" fill="#FFFF00" width="128.6" height="29.1"/>
	<rect x="65.3" y="678.7" display="inline" fill="#FFFF00" width="59.9" height="28.7"/>
	<text transform="matrix(1 0 0 1 66.3311 700.0293)" display="inline" font-family="'TheSansMono-W3Light'" font-size="24.3844">line (1,0,4,5);</text>
</g>
<g id="Layer_1_1_">
	<g enable-background="new    ">
		<path d="M-1175.9,413.7c-14.5,0-28.7-1-36.3-1h-18.7v-12.4c5.8-1.7,12.4-2.7,18.7-2.7V274.4c-6.3-0.5-12.9-1.7-18.7-2.7V259h18.1
			c11,0,28.1-0.5,43.1-0.5c46,0,74.2,23.1,74.2,75.7C-1095.4,386.6-1128.8,413.7-1175.9,413.7z M-1171.4,275.3
			c-7.6,0-16.3,0.5-21.6,0.5v118.4c5.8,1,13.4,1.7,19.2,1.7c33.9,0,57.1-19,57.1-60.6C-1116.4,296.3-1134,275.3-1171.4,275.3z"/>
		<path d="M-1006.7,317.5c-24.5-4.4-35,12.9-35,49.2v30.2c6.3,0.5,12.9,1.7,18.7,2.7V412h-56.6V400c5.8-1.7,12.4-2.7,18.7-2.7v-81.6
			c-5.3-1-12.4-1.7-18.7-2.2v-12.4c10.5-1.7,25.8-2.2,37.3-1.7c0,7.1-0.5,17.3-2.4,27l0,0c4.7-15.6,15.3-31.4,38.4-29.2
			L-1006.7,317.5z"/>
		<path d="M-931.5,412.5c0-8,0-16.3,1.1-22.7h-0.5c-5.3,14.1-18.7,24.4-36.3,24.4c-17.6,0-29.2-11.4-29.2-29.7
			c0-24.4,23.9-39,63.7-39V337c0-15.6-5.3-24.8-22.1-24.8c-6.3,0-13.9,1-19.7,3.2c-0.5,5.8-1.8,11.9-2.4,18.3h-11.6v-30.7
			c10.5-3.9,23.4-6.6,36.3-6.6c31,0,39.7,15.1,39.7,37.8v61.6c5.3,1,12.4,1.7,18.1,2.2v12.4C-905.2,412.5-919.7,413.2-931.5,412.5z
			 M-932.6,360.1c-33.1,0-45,8.8-45,21.7c0,9.7,6.3,16.8,16.3,16.8c16.8,0,28.7-17.8,28.7-35.6
			C-932.6,362.8-932.6,360.1-932.6,360.1z"/>
		<path d="M-723.7,314.8l-29.2,98.4H-775l-21-66.5c-2.4-7.1-4.2-14.6-5.8-22.7l0,0c-2.4,10.2-4.7,19-7.6,28.7l-17.6,60.6h-22.1
			l-27.4-98.4c-4.7-0.5-9.5-1.7-13.4-2.7v-12.4h48.9v12.4c-4.7,1.7-9.5,2.2-14.5,2.7l12.9,50.9c2.4,9.3,4.7,18.3,6.3,26.1l0,0
			c1.8-9.7,4.7-19,7.1-27.5l19.2-63.8h19.7l19.2,63.8c4.2,13.4,5.8,20,7.6,27.5l0,0c1.8-8,4.2-14.6,6.3-24.8l13.9-51.4
			c-4.7-0.5-10.5-1.7-14.5-2.7v-12.4h47.9v12.4C-714.2,313.1-719,314.3-723.7,314.8z"/>
		<path d="M-587.7,412.5c0-8,0-16.3,1.1-22.7h-0.5c-5.3,14.1-18.7,24.4-36.3,24.4c-17.6,0-29.2-11.4-29.2-29.7
			c0-24.4,23.9-39,63.7-39V337c0-15.6-5.3-24.8-22.1-24.8c-6.3,0-13.9,1-19.7,3.2c-0.5,5.8-1.8,11.9-2.4,18.3h-11.6v-30.7
			c10.5-3.9,23.4-6.6,36.3-6.6c31,0,39.7,15.1,39.7,37.8v61.6c5.3,1,12.4,1.7,18.1,2.2v12.4C-561.4,412.5-576.7,413.2-587.7,412.5z
			 M-588.8,360.1c-33.1,0-45,8.8-45,21.7c0,9.7,6.3,16.8,16.3,16.8c16.8,0,28.7-17.8,28.7-35.6V360.1z"/>
		<path d="M-497.8,412.5V400c5.3-1.7,11.6-2.7,18.1-2.7V262.7c-5.3-1-12.4-1.7-18.1-2.2v-12.4c11-1.7,25-2.2,37.4-1.7v150.8
			c6.3,0.5,12.9,1.7,18.1,2.7v12.4h-55.5V412.5z"/>
		<path d="M-432.3,412.5V400c5.8-1.7,12.4-2.7,18.7-2.7v-81.6c-5.3-1-12.4-1.7-18.7-2.2v-12.4c10.5-1.7,25.8-2.2,37.9-1.7v97.9
			c6.3,0.5,12.9,1.7,18.1,2.7v12.4H-432.3z M-403.9,276.8c-7.1,0-12.9-5.8-12.9-12.9c0-7.1,5.8-13.4,12.9-13.4s12.9,5.8,12.9,13.4
			C-391.5,270.9-397.3,276.8-403.9,276.8z"/>
		<path d="M-280.5,412.5v-73.1c0-15.6-4.2-25.3-18.1-25.3c-17.6,0-30.2,19-30.2,44.3v39c5.8,0.5,11.6,1.7,16.8,2.7v12.4h-55V400
			c5.8-1.7,12.4-2.7,18.7-2.7v-81.6c-5.3-1-12.4-1.7-18.7-2.2v-12.4c10.5-1.7,25.8-2.2,37.4-1.7c0,6.6-0.5,17.3-1.8,23.9l0,0
			c6.3-15.6,19.2-26.1,37.4-26.1c23.9,0,31.6,16.3,31.6,36.3v63.8c6.3,0.5,12.9,1.7,17.6,2.7v12.4L-280.5,412.5L-280.5,412.5z"/>
		<path d="M-141.6,355.7h-69.4c-0.5,29.7,10.5,42.1,33.1,42.1c10.5,0,21-2.2,30.2-6.6l2.9,16.3c-10.5,4.4-23.4,7.1-36.8,7.1
			c-32.1,0-49.7-18.3-49.7-57.7c0-33.6,17.6-59.4,47.9-59.4c29.7,0,42.1,21.2,42.1,46.5C-141.1,346.7-141.6,350.8-141.6,355.7z
			 M-184.2,313.1c-13.9,0-23.9,10.7-26.3,28h49.7C-160.3,323.8-169.8,313.1-184.2,313.1z"/>
		<path d="M-2.2,263.9c-5.3-1.7-11-2.7-15.8-2.7c-15.3,0-22.1,9.3-22.1,29.2v8.8h29.7v15.6h-29.7v82.1c6.3,0.5,12.9,1.7,18.7,2.7
			V412H-78V400c5.8-1.7,12.4-2.7,18.7-2.7v-82.1h-23.4v-15.6h23.4v-8.8c0-31.4,14.5-46,41.6-46c5.8,0,11.6,0.5,17.6,2.2L-2.2,263.9z
			"/>
		<path d="M71.4,317.5c-24.5-4.4-35,12.9-35,49.2v30.2c6.3,0.5,12.9,1.7,18.7,2.7V412H-1.4V400c5.8-1.7,12.4-2.7,18.7-2.7v-81.6
			c-5.3-1-12.4-1.7-18.7-2.2v-12.4c10.5-1.7,25.8-2.2,37.4-1.7c0,7.1-0.5,17.3-2.4,27l0,0c4.7-15.6,15.3-31.4,38.4-29.2L71.4,317.5z
			"/>
		<path d="M131.9,414.6c-29.2,0-47.9-17.8-47.9-56.7c0-34.1,19.7-60.6,51.8-60.6c26.8,0,47.9,15.6,47.9,56.7
			C184,388.3,164,414.6,131.9,414.6z M134.3,314.8c-15.8,0-30.2,12.4-30.2,41.6c0,26.1,10.5,41.2,29.7,41.2
			c15.8,0,29.7-12.9,29.7-41.6C163.5,329.4,153.5,314.8,134.3,314.8z"/>
		<path d="M349.2,412.5v-72.3c0-15.6-3.4-26.1-16.8-26.1c-15.3,0-29.7,17.3-29.7,44.8v38.5c5.8,0.5,11.6,1.7,17.6,2.7v12.4h-36.3
			v-72.3c0-14.6-2.9-26.1-17.6-26.1c-15.8,0-29.7,19-29.7,44.8v38.5c5.8,0.5,11.6,1.7,16.8,2.7v12.4h-55V400
			c5.8-1.7,12.4-2.7,18.7-2.7v-81.6c-5.3-1-12.4-1.7-18.7-2.2v-12.4c10.5-1.7,25.8-2.2,37.4-1.7c0,6.6-0.5,17.3-1.8,23.9h0.5
			c5.8-15.6,19.7-26.1,36.8-26.1c22.1,0,28.7,16.3,29.2,26.1c4.2-10.7,15.8-26.1,36.3-26.1c19.7,0,31.6,11.4,31.6,37.3v62.6
			c6.3,0.5,12.9,1.7,18.1,2.7v12.4L349.2,412.5L349.2,412.5z"/>
		<path d="M483.3,460.2c-25-42.6-31-78.9-31-112.5s7.1-72.3,31.6-113l13.9,7.1c-17.6,31.9-26.3,68.2-26.3,104.7
			c0,39,8.7,74,26.8,105.9L483.3,460.2z"/>
		<path d="M558,412.5V400c7.1-1.7,15.3-2.7,23.4-2.7v-83.8l-23.9,10.7l-2.9-17.3l31.6-12.9h15.8v103.3c5.8,0.5,12.9,1.7,19.2,2.7
			v12.4L558,412.5L558,412.5z"/>
		<path d="M687.2,447.8l-8.2-7.6c13.4-15.6,13.9-26.1,9.5-32.9c-5.8-8-1.1-20.5,9.5-20.5C712.7,387.1,719.8,415.9,687.2,447.8z"/>
		<path d="M822.4,414.6c-29.7,0-52.6-18.3-52.6-60.6c0-39,26.3-62.6,57.1-62.6c35,0,52.6,24.4,52.6,59.9
			C879.7,391.5,853.4,414.6,822.4,414.6z M825.5,309.4c-19.7,0-36.3,16.3-36.3,43.8c0,24.8,10.5,44.3,35,44.3
			c19.7,0,35.5-16.3,35.5-44.3C860.5,328.7,849.5,309.4,825.5,309.4z"/>
		<path d="M956.8,460.2l-13.9-7.1c17.6-31.9,26.3-68.2,26.3-104.7c0-39-8.7-73.6-26.8-105.9l14.5-7.1c25,42.1,31,78.4,31,111.8
			C987.5,380.1,980.7,419,956.8,460.2z"/>
		<path d="M1099.1,414.6c-21.6,0-28.7-9.7-28.7-34.1v-64.8h-21.6v-15.6h21.6v-36.8l19.2-5.8v42.1h29.7v15.6h-29.7V373
			c0,19,3.4,23.9,15.3,23.9c4.7,0,9.5-0.5,13.4-1.7l1.8,16.8C1114.3,413.7,1106.2,414.6,1099.1,414.6z"/>
		<path d="M1183.8,414.6c-29.2,0-47.9-17.8-47.9-56.7c0-34.1,19.7-60.6,51.8-60.6c26.8,0,47.9,15.6,47.9,56.7
			C1235.8,388.3,1215.9,414.6,1183.8,414.6z M1186.1,314.8c-15.8,0-30.2,12.4-30.2,41.6c0,26.1,10.5,41.2,29.7,41.2
			c15.8,0,29.7-12.9,29.7-41.6C1215.9,329.4,1205.3,314.8,1186.1,314.8z"/>
		<path d="M1336.6,460.2c-25-42.6-31-78.9-31-112.5s7.1-72.3,31.6-113l13.9,7.1c-17.6,31.9-26.3,68.2-26.3,104.7
			c0,39,8.7,74,26.8,105.9L1336.6,460.2z"/>
		<path d="M1490.2,412.5V440c6.3,0.5,12.9,1.7,18.1,3.2v11.4h-55.5v-11.4c5.8-1.7,12.4-2.7,18.7-3.2v-27.5h-63.1l-2.9-16.8
			l60.2-101.6h25v100.1h24.5v18.3L1490.2,412.5L1490.2,412.5z M1471,314.3L1471,314.3l-47.3,79.9c12.4,0,39.7,0,47.3,0V314.3z"/>
		<path d="M1578.8,447.8l-8.2-7.6c13.4-15.6,13.9-26.1,9.5-32.9c-5.8-8-1.1-20.5,9.5-20.5C1604.6,387.1,1612.2,415.9,1578.8,447.8z"
			/>
		<path d="M1679.3,456.8c-5.8,0-11-0.5-15.8-1l1.8-19c4.2,1,10,1.7,15.3,1.7c26.3,0,39.7-14.6,39.7-33.6s-14.5-32.9-40.2-32.9
			c-4.2,0-8.2,0-12.4,0v-78.4h68.4v20h-49.7V354c35.5,0,55.5,20,55.5,47C1741.7,433.6,1714.8,456.8,1679.3,456.8z"/>
		<path d="M1817.7,460.2l-13.9-7.1c17.6-31.9,26.3-68.2,26.3-104.7c0-39-8.7-73.6-26.8-105.9l14.5-7.1c25,42.1,31,78.4,31,111.8
			C1849.2,380.1,1842.1,419,1817.7,460.2z"/>
		<path d="M1887.1,414.6c-7.1,0-13.4-6.6-13.4-14.1c0-7.6,5.8-14.1,13.4-14.1c7.6,0,13.4,6.6,13.4,14.1
			C1900.5,408.1,1894.7,414.6,1887.1,414.6z"/>
	</g>
	<g enable-background="new    ">
		<path fill="#999999" d="M-770.3,635.8l-25,63.8h-17.6l-24.5-63.8c-3.4-0.5-7.1-1-10.5-1.7v-8h36.8v8c-3.4,1-7.6,1.7-11,1.7
			l13.4,35.6c1.8,4.9,3.4,9.7,4.7,14.6l0,0c1.1-4.9,2.9-9.7,4.7-14.1l13.4-36.3c-4.2-0.5-7.6-1-11-1.7v-8h36.8v8
			C-763.4,634.6-766.8,635.3-770.3,635.8z"/>
		<path fill="#999999" d="M-689.3,662.8h-51.8c-0.5,19.5,7.6,27.5,25,27.5c7.6,0,15.8-1.7,22.9-4.4l2.4,10.2
			c-8.2,2.7-17.6,4.9-27.4,4.9c-23.9,0-37.4-11.9-37.4-37.8c0-22.2,13.4-38.5,35.5-38.5s31.6,14.1,31.6,30.2
			C-688.7,656.7-688.7,659.4-689.3,662.8z M-721.3,634.6c-10.5,0-17.6,7.1-19.2,18.3h37.4C-703.2,641.6-709.5,634.6-721.3,634.6z"/>
		<path fill="#999999" d="M-622.2,638c-18.1-2.7-26.3,8.8-26.3,32.4v19.5c4.7,0.5,10,1,13.9,2.2v8h-42.1v-8c4.2-1,9.5-1.7,13.9-2.2
			V637c-4.2-0.5-9.5-1-13.9-1.7v-8c8.2-1,19.2-1.7,28.1-1c0,4.9-0.5,11.4-1.8,17.3l0,0c3.4-10.2,11.6-20.5,29.2-19L-622.2,638z"/>
		<path fill="#999999" d="M-577.7,700.6c-11,0-18.7-1-27.4-2.7v-95.7c-4.2-0.5-9.5-1-13.9-1.7v-8c8.2-1,18.7-1.7,28.1-1V627
			c0,4.4-0.5,10.2-1.1,14.1h0.5c4.2-10.2,13.9-16.3,26.3-16.3c18.7,0,29.2,11.9,29.2,34.6C-535.6,685-551.4,700.6-577.7,700.6z
			 M-568.3,635.8c-14.5,0-21.6,15.6-21.6,28v24.4c4.2,1,8.7,1.7,13.9,1.7c15.3,0,25-8.8,25-29.7
			C-550.9,644.3-556.7,635.8-568.3,635.8z"/>
	</g>
	<g enable-background="new    ">
		<path fill="#999999" d="M544.1,701.1c-21.6,0-35.5-11.4-35.5-37.3c0-22.2,14.5-39.5,38.4-39.5c20.5,0,35.5,10.2,35.5,37.3
			C582.5,683.8,568,701.1,544.1,701.1z M545.9,635.8c-11.6,0-22.9,8-22.9,27c0,17.3,7.6,27,22.1,27c11.6,0,22.1-8.8,22.1-27
			C568,645.5,560.4,635.8,545.9,635.8z"/>
		<path fill="#999999" d="M630.4,700.6c-11,0-18.7-1-27.4-2.7v-95.7c-4.2-0.5-9.5-1-13.9-1.7v-8c8.2-1,18.7-1.7,28.1-1V627
			c0,4.4-0.5,10.2-1.1,14.1h0.5c4.2-10.2,13.9-16.3,26.3-16.3c18.7,0,29.2,11.9,29.2,34.6C671.9,685,656.1,700.6,630.4,700.6z
			 M639.3,635.8c-14.5,0-21.6,15.6-21.6,28v24.4c4.2,1,8.7,1.7,13.9,1.7c15.3,0,25-8.8,25-29.7C656.7,644.3,651.4,635.8,639.3,635.8
			z"/>
		<path fill="#999999" d="M681.9,737.4c-2.9,0-7.6-0.5-10.5-1l1.1-11.4c2.9,1,6.3,1.7,10,1.7c10,0,12.9-3.9,12.9-17.3V637
			c-4.2-0.5-9.5-1-13.4-1.7v-8c7.6-1,18.7-1.7,27.4-1v81.6C709.8,727.6,703,737.4,681.9,737.4z M703,611.4c-5.3,0-9.5-3.9-9.5-8.8
			c0-4.9,4.2-8.8,9.5-8.8s9.5,3.9,9.5,8.8C712.2,607.5,708.2,611.4,703,611.4z"/>
		<path fill="#999999" d="M796.9,662.8H745c-0.5,19.5,7.6,27.5,25,27.5c7.6,0,15.8-1.7,22.9-4.4l2.4,10.2
			c-8.2,2.7-17.6,4.9-27.4,4.9c-23.9,0-37.4-11.9-37.4-37.8c0-22.2,13.4-38.5,35.5-38.5s31.6,14.1,31.6,30.2
			C797.4,656.7,796.9,659.4,796.9,662.8z M764.8,634.6c-10.5,0-17.6,7.1-19.2,18.3h37.4C782.9,641.6,775.8,634.6,764.8,634.6z"/>
		<path fill="#999999" d="M847.1,700.6c-19.7,0-36.3-8.8-36.3-35.6c0-23.9,12.9-40.4,39.7-40.4c7.1,0,13.9,1,19.2,2.7v21.7H861
			c-1.1-4.4-1.8-8.8-2.4-11.9c-2.9-0.5-6.3-1-10.5-1c-13.9,0-22.1,11.4-22.1,27c0,15.1,5.3,26.5,23.9,26.5c7.1,0,13.4-1,19.2-3.9
			l2.4,11.4C865.8,698.9,856.8,700.6,847.1,700.6z"/>
		<path fill="#999999" d="M914.2,700.6c-16.3,0-21-6.6-21-22.2v-42.1h-16.3V626h16.3v-23.9l14.5-3.9v27.5h22.1V636h-22.1v37.8
			c0,11.9,2.4,15.6,11,15.6c3.4,0,7.1-0.5,10-1l1.1,10.7C925.2,700.1,919.4,700.6,914.2,700.6z"/>
	</g>
	<g enable-background="new    ">
		<path fill="#999999" d="M1400.2,701.1c-21.6,0-35.5-11.4-35.5-37.3c0-22.2,14.5-39.5,38.4-39.5c20.5,0,35.5,10.2,35.5,37.3
			C1438.9,683.8,1424.2,701.1,1400.2,701.1z M1402.1,635.8c-11.6,0-22.9,8-22.9,27c0,17.3,7.6,27,22.1,27c11.6,0,22.1-8.8,22.1-27
			C1423.6,645.5,1416,635.8,1402.1,635.8z"/>
		<path fill="#999999" d="M1486,700.6c-11,0-18.7-1-27.4-2.7v-95.7c-4.2-0.5-9.5-1-13.9-1.7v-8c8.2-1,18.7-1.7,28.1-1V627
			c0,4.4-0.5,10.2-1.1,14.1h0.5c4.2-10.2,13.9-16.3,26.3-16.3c18.7,0,29.2,11.9,29.2,34.6C1528.1,685,1512.3,700.6,1486,700.6z
			 M1495.5,635.8c-14.5,0-21.6,15.6-21.6,28v24.4c4.2,1,8.7,1.7,13.9,1.7c15.3,0,25-8.8,25-29.7
			C1513.1,644.3,1507,635.8,1495.5,635.8z"/>
		<path fill="#999999" d="M1538.1,737.4c-2.9,0-7.6-0.5-10.5-1l1.1-11.4c2.9,1,6.3,1.7,10,1.7c10,0,12.9-3.9,12.9-17.3V637
			c-4.2-0.5-9.5-1-13.4-1.7v-8c7.6-1,18.7-1.7,27.4-1v81.6C1565.4,727.6,1558.6,737.4,1538.1,737.4z M1558.6,611.4
			c-5.3,0-9.5-3.9-9.5-8.8c0-4.9,4.2-8.8,9.5-8.8c5.3,0,9.5,3.9,9.5,8.8C1567.8,607.5,1563.8,611.4,1558.6,611.4z"/>
		<path fill="#999999" d="M1652.5,662.8h-52.1c-0.5,19.5,7.6,27.5,25,27.5c7.6,0,15.8-1.7,22.9-4.4l2.4,10.2
			c-8.2,2.7-17.6,4.9-27.4,4.9c-23.9,0-37.4-11.9-37.4-37.8c0-22.2,13.4-38.5,35.5-38.5S1653,639,1653,655
			C1653,656.7,1653,659.4,1652.5,662.8z M1620.9,634.6c-10.5,0-17.6,7.1-19.2,18.3h37.4C1639.1,641.6,1632,634.6,1620.9,634.6z"/>
		<path fill="#999999" d="M1703.2,700.6c-19.7,0-36.3-8.8-36.3-35.6c0-23.9,12.9-40.4,39.7-40.4c7.1,0,13.9,1,19.2,2.7v21.7h-8.7
			c-1.1-4.4-1.8-8.8-2.4-11.9c-2.9-0.5-6.3-1-10.5-1c-13.9,0-22.1,11.4-22.1,27c0,15.1,5.3,26.5,23.9,26.5c7.1,0,13.4-1,19.2-3.9
			l2.4,11.4C1721.4,698.9,1712.5,700.6,1703.2,700.6z"/>
		<path fill="#999999" d="M1770.3,700.6c-16.3,0-21-6.6-21-22.2v-42.1H1733V626h16.3v-23.9l14.5-3.9v27.5h22.1V636h-22.4v37.8
			c0,11.9,2.4,15.6,11,15.6c3.4,0,7.1-0.5,10-1l1.1,10.7C1781.4,700.1,1775.1,700.6,1770.3,700.6z"/>
	</g>
	<line fill="none" stroke="#999999" stroke-width="5" x1="-1232.7" y1="509.9" x2="-121.4" y2="509.9"/>
	<line fill="none" stroke="#999999" stroke-width="5" x1="462.3" y1="509.9" x2="1009.4" y2="509.9"/>
	<line fill="none" stroke="#999999" stroke-width="5" x1="1316.3" y1="509.9" x2="1863.2" y2="509.9"/>
</g>
</svg>
