<?xml version="1.0" encoding="utf-8"?>
<!-- Generator: Adobe Illustrator 18.0.0, SVG Export Plug-In . SVG Version: 6.00 Build 0)  -->
<!DOCTYPE svg PUBLIC "-//W3C//DTD SVG 1.1//EN" "http://www.w3.org/Graphics/SVG/1.1/DTD/svg11.dtd">
<svg version="1.1" id="Layer_1" xmlns="http://www.w3.org/2000/svg" xmlns:xlink="http://www.w3.org/1999/xlink" x="0px" y="0px"
	 viewBox="0 0 612 792" enable-background="new 0 0 612 792" xml:space="preserve">
<line fill="none" stroke="#000000" x1="-133.2" y1="120.2" x2="-133.2" y2="489.6"/>
<circle cx="-431.7" cy="301.3" r="16"/>
<rect x="87.2" y="181.1" fill="#FFFFFF" stroke="#000000" width="400.1" height="245.2"/>
<ellipse fill="#FFFFFF" stroke="#000000" cx="812" cy="302.4" rx="128.7" ry="182.2"/>
<g enable-background="new    ">
	<path d="M-478.5,624.4c-1.4,0-2.6,0-3.4-0.3v8.6c1.4,0,3.2,0.3,4.3,0.6v2.6h-13.5v-2.6c1.4-0.3,2.9-0.6,4.3-0.6v-27.1
		c-1.4,0-3.2-0.3-4.3-0.6v-2.6h4.3c1.4,0,5.7-0.3,8.9-0.3c9.2,0,12.9,4.9,12.9,10.6C-465.2,619.2-470.2,624.4-478.5,624.4z
		 M-478.5,605.4c-1.4,0-2.6,0-3.7,0V620c0.9,0.3,2.3,0.3,4,0.3c5.7,0,8.3-3.4,8.3-7.4C-470.1,609.2-471.9,605.4-478.5,605.4z"/>
	<path d="M-450.6,636.4c-6.9,0-11.2-4-11.2-12.6c0-7.4,4.6-13.5,12.3-13.5c6.3,0,11.2,3.4,11.2,12.6
		C-438.6,630.7-443.1,636.4-450.6,636.4z M-450,614.3c-3.7,0-7.2,2.9-7.2,9.2c0,5.7,2.3,9.2,7.2,9.2c3.7,0,6.9-2.9,6.9-9.2
		C-443.1,617.5-445.7,614.3-450,614.3z"/>
	<path d="M-434.8,635.8v-2.6c1.4-0.3,2.9-0.6,4.3-0.6v-18c-1.1-0.3-2.9-0.3-4.3-0.6v-2.6c2.6-0.3,6-0.6,8.9-0.3v21.6
		c1.4,0,2.9,0.3,4.3,0.6v2.6L-434.8,635.8L-434.8,635.8L-434.8,635.8z M-428.4,606c-1.7,0-3.2-1.1-3.2-2.9s1.4-2.9,3.2-2.9
		c1.7,0,2.9,1.4,2.9,2.9S-426.7,606-428.4,606z"/>
	<path d="M-399.2,635.8v-16c0-3.4-0.9-5.7-4.3-5.7c-4,0-7.2,4.3-7.2,9.7v8.6c1.4,0,2.9,0.3,4,0.6v2.6h-12.9V633
		c1.4-0.3,2.9-0.6,4.3-0.6v-18c-1.1-0.3-2.9-0.3-4.3-0.6v-2.6c2.6-0.3,6-0.6,8.9-0.3c0,1.4,0,3.7-0.3,5.2l0,0
		c1.4-3.4,4.6-5.7,8.9-5.7c5.7,0,7.4,3.4,7.4,8v14c1.4,0,2.9,0.3,4.3,0.6v2.6h-8.9v0.2H-399.2z"/>
	<path d="M-378.4,636.4c-5.2,0-6.6-2-6.6-7.4v-14.3h-5.2v-3.4h5.2V603l4.6-1.1v9.5h6.9v3.4h-6.9v12.9c0,4,0.9,5.2,3.4,5.2
		c1.1,0,2.3-0.3,3.2-0.3l0.6,3.7C-374.7,636.1-376.7,636.4-378.4,636.4z"/>
</g>
<text transform="matrix(1 0 0 1 -370.9948 635.8984)" font-family="'TheSerif-HP5Plain'" font-size="50.1778" letter-spacing="57"> </text>
<text transform="matrix(1 0 0 1 -291.8218 635.8984)" font-family="'TheSerif-HP5Plain'" font-size="50.1778" letter-spacing="83"> </text>
<g enable-background="new    ">
	<path d="M-179.1,635.8v-2.6c1.4-0.3,2.9-0.6,4.3-0.6v-27.1c-1.4,0-3.2-0.3-4.3-0.6v-2.5h13.5v2.6c-1.4,0.3-2.9,0.6-4.3,0.6v26.8
		h8.9c0.3-1.4,0.6-3.2,0.9-4.9h3.2v8.6h-21.9v-0.3L-179.1,635.8L-179.1,635.8z"/>
	<path d="M-155.1,635.8v-2.6c1.4-0.3,2.9-0.6,4.3-0.6v-18c-1.1-0.3-2.9-0.3-4.3-0.6v-2.6c2.6-0.3,6-0.6,8.9-0.3v21.6
		c1.4,0,2.9,0.3,4.3,0.6v2.6L-155.1,635.8L-155.1,635.8z M-148.6,606c-1.7,0-3.2-1.1-3.2-2.9s1.4-2.9,3.2-2.9c1.8,0,2.9,1.4,2.9,2.9
		S-146.8,606-148.6,606z"/>
	<path d="M-119.5,635.8v-16c0-3.4-0.9-5.7-4.3-5.7c-4,0-7.2,4.3-7.2,9.7v8.6c1.4,0,2.9,0.3,4,0.6v2.6h-12.9V633
		c1.4-0.3,2.9-0.6,4.3-0.6v-18c-1.1-0.3-2.9-0.3-4.3-0.6v-2.6c2.6-0.3,6-0.6,8.9-0.3c0,1.4,0,3.7-0.3,5.2l0,0
		c1.4-3.4,4.6-5.7,8.9-5.7c5.7,0,7.4,3.4,7.4,8v14c1.4,0,2.9,0.3,4.3,0.6v2.6h-8.9L-119.5,635.8L-119.5,635.8z"/>
	<path d="M-87,623.5h-16.3c-0.3,6.6,2.6,9.5,8,9.5c2.3,0,4.9-0.6,7.2-1.4l0.6,3.4c-2.6,1.1-5.4,1.4-8.6,1.4c-7.7,0-11.7-4-11.7-12.9
		c0-7.4,4.3-13.2,11.2-13.2s10,4.6,10,10.3C-87,621.5-87,622.3-87,623.5z M-96.9,614c-3.2,0-5.7,2.3-6,6.3h11.7
		C-91.3,616.3-93.6,614-96.9,614z"/>
</g>
<text transform="matrix(1 0 0 1 -84.4147 635.8984)" font-family="'TheSerif-HP5Plain'" font-size="50.1778" letter-spacing="72"> </text>
<text transform="matrix(1 0 0 1 9.2498 635.8984)" font-family="'TheSerif-HP5Plain'" font-size="50.1778" letter-spacing="83"> </text>
<g enable-background="new    ">
	<path d="M208.2,635.8l-9.2-15.2h-2.6v11.8c1.1,0,2.6,0.3,3.7,0.6v2.6h-12.6V633c1.4-0.3,2.9-0.6,4.3-0.6v-27.1
		c-1.4,0-3.2-0.3-4.3-0.6v-2.6h4c1.4,0,5.7-0.3,9.5-0.3c7.2,0,12,2.3,12,9.2c0,5.2-3.7,8.6-9.2,9.2c0.9,0.9,1.4,2,2.3,3.2l5.7,9.5
		c1.1,0.3,2.6,0.3,4,0.6v2.9h-7.7L208.2,635.8L208.2,635.8z M199.9,605.4c-1.1,0-2.6,0-3.4,0.3v11.7h4c4.9,0,7.7-2.3,7.7-6
		C207.9,607.2,205.3,605.4,199.9,605.4z"/>
	<path d="M239.6,623.5h-16.3c-0.3,6.6,2.6,9.5,8,9.5c2.3,0,4.9-0.6,7.2-1.4l0.6,3.4c-2.6,1.1-5.4,1.4-8.6,1.4
		c-7.7,0-11.7-4-11.7-12.9c0-7.4,4.3-13.2,11.2-13.2s10,4.6,10,10.3C239.6,621.5,239.6,622.3,239.6,623.5z M229.7,614
		c-3.2,0-5.7,2.3-6,6.3h11.7C235.4,616.3,233.1,614,229.7,614z"/>
	<path d="M255.3,636.4c-6.3,0-11.5-2.9-11.5-12c0-8,4-13.7,12.3-13.7c2,0,4.3,0.3,6,0.9v7.2h-2.9c-0.3-1.4-0.6-2.9-0.6-4
		c-0.9-0.3-2-0.3-3.4-0.3c-4.6,0-6.9,3.7-6.9,9.2c0,5.2,1.7,8.9,7.4,8.9c2.3,0,4.3-0.6,6-1.1l0.9,3.7
		C261,635.8,258.5,636.4,255.3,636.4z"/>
	<path d="M276.5,636.4c-5.2,0-6.6-2-6.6-7.4v-14.3h-5.1v-3.4h5.2V603l4.6-1.1v9.5h6.9v3.4h-6.9v12.9c0,4,0.9,5.2,3.4,5.2
		c1.1,0,2.3-0.3,3.2-0.3l0.6,3.7C279.9,636.1,277.9,636.4,276.5,636.4z"/>
	<path d="M300.4,635.8c0-1.7,0-3.4,0.3-4.9l0,0c-1.1,3.2-4.3,5.4-8.6,5.4s-6.9-2.6-6.9-6.6c0-5.4,5.7-8.6,14.9-8.6v-2
		c0-3.4-1.1-5.4-5.2-5.4c-1.4,0-3.2,0.3-4.6,0.6c0,1.1-0.3,2.6-0.6,4h-2.9v-6.9c2.6-0.9,5.4-1.4,8.6-1.4c7.4,0,9.5,3.4,9.5,8.3v13.5
		c1.1,0.3,2.9,0.3,4.3,0.6v2.6C306.7,635.8,303.3,636.1,300.4,635.8z M300.1,624.4c-7.7,0-10.6,2-10.6,4.9c0,2.3,1.4,3.7,3.7,3.7
		c4,0,6.9-4,6.9-8V624.4L300.1,624.4z"/>
	<path d="M331.5,635.8v-16c0-3.4-0.9-5.7-4.3-5.7c-4,0-7.2,4.3-7.2,9.7v8.6c1.4,0,2.9,0.3,4,0.6v2.6h-12.9V633
		c1.4-0.3,2.9-0.6,4.3-0.6v-18c-1.1-0.3-2.9-0.3-4.3-0.6v-2.6c2.6-0.3,6-0.6,8.9-0.3c0,1.4,0,3.7-0.3,5.2l0,0
		c1.4-3.4,4.6-5.7,8.9-5.7c5.7,0,7.4,3.4,7.4,8v14c1.4,0,2.9,0.3,4.3,0.6v2.6h-8.9v0.2H331.5z"/>
	<path d="M353.5,648.6c-6.3,0-10.6-2.6-10.6-7.4c0-2.9,2-5.4,4.3-6.6c-1.4-0.6-2.6-2-2.6-3.7c0-1.7,1.1-3.4,2.9-4.3
		c-2.3-1.4-3.7-3.7-3.7-6.9c0-5.2,3.7-9.5,10.6-9.5c1.4,0,2.3,0.3,3.4,0.6h8.6v3.4h-4c1.1,1.1,2,2.6,2,4.6c0,5.2-3.4,9.2-10.6,9.2
		c-1.1,0-1.7,0-2.6-0.3c-1.1,0.6-1.7,1.4-1.7,2c0,1.4,1.1,2,4.3,2l4.6,0.3c5.4,0.3,8.3,2.6,8.3,7.2
		C366.6,644.5,361.6,648.6,353.5,648.6z M357,635.8l-4.9-0.3c-0.6,0-1.1,0-1.4,0c-2,1.4-3.2,3.2-3.2,4.9c0,2.9,2.9,4.9,6.9,4.9
		c5.2,0,8-2.3,8-5.4C362.1,637.5,360.7,635.8,357,635.8z M354.4,613.8c-3.7,0-6,2.3-6,5.7s2,5.4,5.7,5.4c3.4,0,5.7-2,5.7-5.4
		C359.8,616,357.8,613.8,354.4,613.8z"/>
	<path d="M369.2,635.8v-2.6c1.1-0.3,2.9-0.6,4.3-0.6V603c-1.1-0.3-2.9-0.3-4.3-0.6v-2.6c2.6-0.3,6-0.6,8.9-0.3v33.4
		c1.4,0,2.9,0.3,4.3,0.6v2.6h-13.2L369.2,635.8L369.2,635.8z"/>
	<path d="M405.8,623.5h-16.3c-0.3,6.6,2.6,9.5,8,9.5c2.3,0,4.9-0.6,7.2-1.4l0.6,3.4c-2.6,1.1-5.4,1.4-8.6,1.4
		c-7.7,0-11.7-4-11.7-12.9c0-7.4,4.3-13.2,11.2-13.2c6.9,0,10,4.6,10,10.3C405.8,621.5,405.8,622.3,405.8,623.5z M395.8,614
		c-3.2,0-5.7,2.3-6,6.3h11.7C401.5,616.3,399.2,614,395.8,614z"/>
</g>
<text transform="matrix(1 0 0 1 408.4554 635.8984)" font-family="'TheSerif-HP5Plain'" font-size="50.1778"> </text>
<text transform="matrix(1 0 0 1 410.6736 635.8984)" font-family="'TheSerif-HP5Plain'" font-size="50.1778"> </text>
<text transform="matrix(1 0 0 1 421.5502 635.8984)" font-family="'TheSerif-HP5Plain'" font-size="50.1778" letter-spacing="72"> </text>
<text transform="matrix(1 0 0 1 511.0376 635.8984)" font-family="'TheSerif-HP5Plain'" font-size="50.1778" letter-spacing="83">  </text>
<g enable-background="new    ">
	<path d="M746,635.8v-2.6c1.4-0.3,2.9-0.6,4.3-0.6v-27.1c-1.4,0-3.2-0.3-4.3-0.6v-2.5h21.9v7.7h-3.2c-0.3-1.4-0.6-3.2-0.6-4.3h-9.5
		V617h7.2c0.3-1.1,0.3-2.3,0.6-3.4h2.9v10.3h-2.9c-0.3-1.1-0.6-2.3-0.6-3.4h-7.2v12h9.2c0.3-1.4,0.3-2.9,0.6-4.3h3.2v8h-21.6
		L746,635.8L746,635.8z"/>
	<path d="M772,635.8v-2.6c1.1-0.3,2.9-0.6,4.3-0.6V603c-1.1-0.3-2.9-0.3-4.3-0.6v-2.6c2.6-0.3,6-0.6,8.9-0.3v33.4
		c1.4,0,2.9,0.3,4.3,0.6v2.6H772V635.8z"/>
	<path d="M786.8,635.8v-2.6c1.1-0.3,2.9-0.6,4.3-0.6V603c-1.1-0.3-2.9-0.3-4.3-0.6v-2.6c2.6-0.3,6-0.6,8.9-0.3v33.4
		c1.4,0,2.9,0.3,4.3,0.6v2.6h-13.2V635.8z"/>
	<path d="M802.2,635.8v-2.6c1.4-0.3,2.9-0.6,4.3-0.6v-18c-1.1-0.3-2.9-0.3-4.3-0.6v-2.6c2.6-0.3,6-0.6,8.9-0.3v21.6
		c1.4,0,2.9,0.3,4.3,0.6v2.6L802.2,635.8L802.2,635.8z M808.8,606c-1.7,0-3.2-1.1-3.2-2.9s1.4-2.9,3.2-2.9c1.7,0,2.9,1.4,2.9,2.9
		S810.5,606,808.8,606z"/>
	<path d="M829.3,636.4c-1.7,0-2.9,0-4.3-0.3v9.2c1.4,0,3.2,0.3,4.3,0.6v2.6h-13.2v-2.6c1.4-0.3,2.6-0.6,4.3-0.6v-30.5
		c-1.1-0.3-2.9-0.3-4.3-0.6v-2.6c2.6-0.3,6-0.6,8.6-0.3c0,1.4-0.3,3.7-0.3,5.2l0,0c1.4-3.4,4.3-5.7,8.3-5.7c6,0,9.2,4,9.2,11.7
		C842.2,631.2,837.3,636.4,829.3,636.4z M831.9,614.3c-4.6,0-6.9,5.2-6.9,9.7v8.3c1.4,0.3,2.9,0.6,4.6,0.6c4.9,0,8-2.9,8-10
		C837.6,617.2,835.9,614.3,831.9,614.3z"/>
	<path d="M853.4,636.4c-2,0-4.3-0.3-6-0.6v-7.2h2.9c0.3,1.1,0.6,2.6,0.6,4c0.9,0.3,2,0.3,2.9,0.3c3.4,0,5.7-1.4,5.7-4
		c0-5.4-12.6-2.3-12.6-10.9c0-4.3,3.4-7.4,10-7.4c1.7,0,4,0.3,5.7,0.6v6.9h-2.9c-0.3-1.1-0.6-2.6-0.6-4c-0.9-0.3-2-0.3-2.9-0.3
		c-3.4,0-5.2,1.4-5.2,3.7c0,5.7,12.6,2.6,12.6,10.9C864,632.9,859.9,636.4,853.4,636.4z"/>
	<path d="M889.3,623.5H873c-0.3,6.6,2.6,9.5,8,9.5c2.3,0,4.9-0.6,7.2-1.4l0.6,3.4c-2.6,1.1-5.4,1.4-8.6,1.4c-7.7,0-11.7-4-11.7-12.9
		c0-7.4,4.3-13.2,11.2-13.2s10,4.6,10,10.3C889.6,621.5,889.6,622.3,889.3,623.5z M879.3,614c-3.2,0-5.7,2.3-6,6.3H885
		C885,616.3,882.8,614,879.3,614z"/>
</g>
</svg>
