<?xml version="1.0" encoding="utf-8"?>
<!-- Generator: Adobe Illustrator 18.0.0, SVG Export Plug-In . SVG Version: 6.00 Build 0)  -->
<!DOCTYPE svg PUBLIC "-//W3C//DTD SVG 1.1//EN" "http://www.w3.org/Graphics/SVG/1.1/DTD/svg11.dtd">
<svg version="1.1" id="Layer_1" xmlns="http://www.w3.org/2000/svg" xmlns:xlink="http://www.w3.org/1999/xlink" x="0px" y="0px"
	 viewBox="0 0 640 480" enable-background="new 0 0 640 480" xml:space="preserve">
<g>
	<rect x="74.3" y="101.5" fill="none" stroke="#999999" stroke-width="1.3" width="267.6" height="267.6"/>
	<line fill="none" stroke="#999999" stroke-width="1.3" x1="74.3" y1="324.6" x2="341.9" y2="324.6"/>
	<line fill="none" stroke="#999999" stroke-width="1.3" x1="74.3" y1="279.9" x2="341.9" y2="279.9"/>
	<line fill="none" stroke="#999999" stroke-width="1.3" x1="74.3" y1="235.3" x2="341.9" y2="235.3"/>
	<line fill="none" stroke="#999999" stroke-width="1.3" x1="74.3" y1="190.8" x2="341.9" y2="190.8"/>
	<line fill="none" stroke="#999999" stroke-width="1.3" x1="74.3" y1="146.1" x2="341.9" y2="146.1"/>
	<line fill="none" stroke="#999999" stroke-width="1.3" x1="297.3" y1="101.5" x2="297.3" y2="369.1"/>
	<line fill="none" stroke="#999999" stroke-width="1.3" x1="252.8" y1="101.5" x2="252.8" y2="369.1"/>
	<line fill="none" stroke="#999999" stroke-width="1.3" x1="208.1" y1="101.5" x2="208.1" y2="369.1"/>
	<line fill="none" stroke="#999999" stroke-width="1.3" x1="163.5" y1="101.5" x2="163.5" y2="369.1"/>
	<line fill="none" stroke="#999999" stroke-width="1.3" x1="119" y1="101.5" x2="119" y2="369.1"/>
</g>
<g>
	<path d="M79.7,37.1l-2.4-4l-2.4,4h-3.2v-1.2c0.6-0.1,1.3-0.3,1.8-0.3l2.6-3.9l-2.5-3.9c-0.6,0-1.2-0.2-1.8-0.3v-1.2h3.3l2.3,3.9
		l2.3-3.9h3.1v1.2c-0.6,0.1-1.3,0.3-1.8,0.3l-2.4,3.8l2.6,4c0.6,0,1.2,0.2,1.8,0.3v1.2H79.7z"/>
</g>
<g>
	<path d="M13.6,95.4l-3.8,10.5c-1.2,3.3-2.3,4.4-4.7,4.4c-0.4,0-1,0-1.5-0.1l0.2-1.8c0.5,0.2,0.9,0.2,1.4,0.2c1.2,0,1.8-0.6,2.6-2.7
		l0.5-1.2H7.9l-3.3-9.3c-0.5,0-1-0.1-1.4-0.3V94h4.9v1.2c-0.4,0.1-0.9,0.2-1.4,0.3l1.6,4.6c0.3,1,0.6,1.8,0.8,2.7h0
		c0.2-0.7,0.6-2,1-3.2l1.4-4.1c-0.5,0-1-0.1-1.4-0.3V94H15v1.2C14.6,95.3,14.1,95.4,13.6,95.4z"/>
</g>
<g>
	<path d="M78.3,74.1c-2.9,0-5.3-1.7-5.3-6.7c0-4.3,2.6-6.7,5.7-6.7c2.8,0,5.3,1.6,5.3,6.6C83.9,71.7,81.3,74.1,78.3,74.1z
		 M78.4,62.3c-1.8,0-3.4,1.6-3.4,5c0,3.6,1.4,5.1,3.4,5.1c1.8,0,3.4-1.5,3.4-5C81.8,63.9,80.5,62.3,78.4,62.3z"/>
	<path d="M117.4,73.9v-1.8h4v-9.1l-3.7,2.4l-0.7-1.7l4.8-2.9h1.7v11.3h3.4v1.8H117.4z"/>
	<path d="M160.1,73.9v-1.6l3.1-2.8c2.7-2.3,3.4-3.2,3.4-4.7c0-1.4-0.8-2.4-2.7-2.4c-1.3,0-2.4,0.6-3.1,1.1l-0.4-1.7
		c1.1-0.7,2.4-1.1,4-1.1c2.9,0,4.4,1.6,4.4,3.8c0,1.8-1,3.2-3.3,5.3l-2.6,2.2l-0.1,0c1-0.1,3.4-0.1,6.6-0.1v1.9H160.1z"/>
	<path d="M206.2,75.9c-0.9,0-1.9-0.1-2.7-0.3l0.3-1.8c0.7,0.3,1.7,0.4,2.6,0.4c2.3,0,3.8-1.3,3.8-2.9c0-1.6-1.3-2.7-3.6-2.7
		c-0.7,0-1.3,0-1.9,0.1v-1.6h0.5c3.1,0,4.6-0.9,4.6-2.7c0-1.4-1.1-2.1-2.6-2.1c-1.2,0-2.2,0.3-3.1,0.8l-0.3-1.7
		c1.1-0.5,2.3-0.8,3.7-0.8c2.9,0,4.3,1.4,4.3,3.5c0,1.7-1.1,2.9-2.6,3.4l0,0c1.8,0.2,3.1,1.7,3.1,3.5
		C212.4,73.9,209.8,75.9,206.2,75.9z"/>
	<path d="M254.2,72.1v3.6h-1.9v-3.6h-6.6l-0.2-1.6l6-9.6h2.7v9.4h2.5v1.8H254.2z M252.3,62.7L252.3,62.7l-4.9,7.6c1.3,0,4,0,4.9,0
		V62.7z"/>
	<path d="M292.5,75.9c-0.7,0-1.6-0.1-2.4-0.2l0.2-1.7c0.7,0.2,1.7,0.3,2.4,0.3c2.6,0,4-1.5,4-3.2c0-1.8-1.5-2.8-3.9-2.8
		c-0.9,0-1.7,0.1-2.2,0.2v-7.4h7.6v1.9l-5.8,0v3.8c0.4,0,0.8,0,1.1,0c3.6,0,5.4,1.8,5.4,4.1C298.9,73.6,296.3,75.9,292.5,75.9z"/>
	<path d="M337.6,74.1c-3,0-4.9-2.3-4.9-6.2c0-6.2,3.1-8.8,7.2-8.8c0.4,0,1,0,1.3,0.1v1.7c-0.5-0.1-0.9-0.1-1.4-0.1
		c-2.8,0-4.3,1.6-4.9,4.6c-0.1,0.2-0.1,0.6-0.2,1.1h0c0.7-1.2,2-1.9,3.4-1.9c2.9,0,4.5,1.9,4.5,4.2
		C342.5,72.1,340.6,74.1,337.6,74.1z M337.7,66.3c-1.8,0-2.8,1.6-2.8,2.8c0,1.8,1,3.3,2.9,3.3c1.7,0,2.8-1.3,2.8-3.2
		C340.6,67.5,339.6,66.3,337.7,66.3z"/>
</g>
<circle fill="#808080" cx="209" cy="189.6" r="7"/>
<g>
	<path d="M44.7,111.3c-2.9,0-5.3-1.7-5.3-6.7c0-4.3,2.6-6.7,5.7-6.7c2.8,0,5.3,1.6,5.3,6.6C50.3,108.9,47.7,111.3,44.7,111.3z
		 M44.8,99.5c-1.8,0-3.4,1.6-3.4,5c0,3.6,1.4,5.1,3.4,5.1c1.8,0,3.4-1.5,3.4-5C48.2,101.1,46.9,99.5,44.8,99.5z"/>
	<path d="M40.6,154.3v-1.8h4v-9.1l-3.7,2.4l-0.7-1.7l4.8-2.9h1.7v11.3h3.4v1.8H40.6z"/>
	<path d="M40.1,197.5v-1.6l3.1-2.8c2.7-2.3,3.4-3.2,3.4-4.7c0-1.4-0.8-2.4-2.7-2.4c-1.3,0-2.4,0.6-3.1,1.1l-0.4-1.7
		c1.1-0.7,2.4-1.1,4-1.1c2.9,0,4.4,1.6,4.4,3.8c0,1.8-1,3.2-3.3,5.3l-2.6,2.2l-0.1,0c1-0.1,3.4-0.1,6.6-0.1v1.9H40.1z"/>
	<path d="M43,242.7c-0.9,0-1.9-0.1-2.7-0.3l0.3-1.8c0.7,0.3,1.7,0.4,2.6,0.4c2.3,0,3.8-1.3,3.8-2.9c0-1.6-1.3-2.7-3.6-2.7
		c-0.7,0-1.3,0-1.9,0.1v-1.6h0.5c3.1,0,4.6-0.9,4.6-2.7c0-1.4-1.1-2.1-2.6-2.1c-1.2,0-2.2,0.3-3.1,0.8l-0.3-1.7
		c1.1-0.5,2.3-0.8,3.7-0.8c2.9,0,4.3,1.4,4.3,3.5c0,1.7-1.1,2.9-2.6,3.4l0,0c1.8,0.2,3.1,1.7,3.1,3.5
		C49.2,240.7,46.6,242.7,43,242.7z"/>
	<path d="M47.8,282.1v3.6h-1.9v-3.6h-6.6l-0.2-1.6l6-9.5h2.7v9.4h2.5v1.8H47.8z M45.9,272.7L45.9,272.7l-4.9,7.6c1.3,0,4,0,4.9,0
		V272.7z"/>
	<path d="M42.9,329.1c-0.7,0-1.6-0.1-2.4-0.2l0.2-1.7c0.7,0.2,1.7,0.3,2.4,0.3c2.6,0,4-1.5,4-3.2c0-1.8-1.5-2.8-3.9-2.8
		c-0.9,0-1.7,0.1-2.2,0.2v-7.4h7.6v1.9l-5.8,0v3.8c0.4,0,0.8,0,1.1,0c3.6,0,5.4,1.8,5.4,4.1C49.3,326.8,46.7,329.1,42.9,329.1z"/>
	<path d="M44.8,370.5c-3,0-4.9-2.3-4.9-6.2c0-6.2,3.1-8.8,7.2-8.8c0.4,0,1,0,1.3,0.1v1.7c-0.5-0.1-0.9-0.1-1.4-0.1
		c-2.8,0-4.3,1.6-4.9,4.6c-0.1,0.2-0.1,0.6-0.2,1.1h0c0.7-1.2,2-1.9,3.4-1.9c2.9,0,4.5,1.9,4.5,4.2
		C49.7,368.5,47.8,370.5,44.8,370.5z M44.9,362.7c-1.8,0-2.8,1.6-2.8,2.8c0,1.8,1,3.3,2.9,3.3c1.7,0,2.8-1.3,2.8-3.2
		C47.8,363.9,46.8,362.7,44.9,362.7z"/>
</g>
<line stroke="#000000" stroke-width="1.3" x1="75.4" y1="101.5" x2="66.9" y2="101.5"/>
<line stroke="#000000" stroke-width="1.3" x1="75.4" y1="146.3" x2="66.9" y2="146.3"/>
<line stroke="#000000" stroke-width="1.3" x1="75.4" y1="190.7" x2="66.9" y2="190.7"/>
<line stroke="#000000" stroke-width="1.3" x1="75.4" y1="235.2" x2="66.9" y2="235.2"/>
<line stroke="#000000" stroke-width="1.3" x1="75.4" y1="279.9" x2="66.9" y2="279.9"/>
<line stroke="#000000" stroke-width="1.3" x1="75.4" y1="325.1" x2="66.9" y2="325.1"/>
<line stroke="#000000" stroke-width="1.3" x1="75.4" y1="368.7" x2="66.9" y2="368.7"/>
<line stroke="#000000" stroke-width="1.3" x1="341.5" y1="101.4" x2="341.5" y2="92.8"/>
<line stroke="#000000" stroke-width="1.3" x1="296.7" y1="101.4" x2="296.7" y2="92.8"/>
<line stroke="#000000" stroke-width="1.3" x1="252.3" y1="101.4" x2="252.3" y2="92.8"/>
<line stroke="#000000" stroke-width="1.3" x1="207.8" y1="101.4" x2="207.8" y2="92.8"/>
<line stroke="#000000" stroke-width="1.3" x1="163.1" y1="101.4" x2="163.1" y2="92.8"/>
<line stroke="#000000" stroke-width="1.3" x1="117.9" y1="101.4" x2="117.9" y2="92.8"/>
<line stroke="#000000" stroke-width="1.3" x1="74.7" y1="101.4" x2="74.7" y2="92.8"/>
<polyline fill="#FFFFFF" stroke="#000000" stroke-width="1.3" points="14.1,183.2 8.8,188.5 3.5,183.2 "/>
<line fill="#FFFFFF" stroke="#000000" stroke-width="1.3" x1="8.8" y1="188.5" x2="8.8" y2="125.8"/>
<polyline fill="#FFFFFF" stroke="#000000" stroke-width="1.3" points="156.2,25.3 161.5,30.6 156.2,35.9 "/>
<line fill="#FFFFFF" stroke="#000000" stroke-width="1.3" x1="162.7" y1="30.6" x2="100" y2="30.6"/>
<g>
	<path d="M419.6,229.1c-2.5-0.4-3.6,1.3-3.6,4.7v2.9c0.6,0,1.3,0.2,1.9,0.3v1.2h-5.7V237c0.6-0.1,1.2-0.2,1.9-0.3v-7.8
		c-0.5-0.1-1.3-0.2-1.9-0.2v-1.2c1.1-0.1,2.6-0.2,3.8-0.2c0,0.7-0.1,1.7-0.2,2.5h0c0.5-1.5,1.6-3,3.9-2.7L419.6,229.1z"/>
	<path d="M429.9,232.8h-7c-0.1,2.8,1.1,4,3.4,4c1,0,2.1-0.2,3.1-0.6l0.3,1.5c-1.1,0.4-2.4,0.7-3.7,0.7c-3.3,0-5-1.7-5-5.5
		c0-3.2,1.8-5.6,4.8-5.6c3,0,4.3,2,4.3,4.4C430,231.9,430,232.3,429.9,232.8z M425.6,228.7c-1.4,0-2.4,1-2.6,2.7h5
		C428,229.7,427.1,228.7,425.6,228.7z"/>
	<path d="M436.7,238.3c-2.7,0-4.9-1.2-4.9-5.2c0-3.5,1.8-5.9,5.3-5.9c0.9,0,1.9,0.2,2.6,0.4v3.1h-1.2c-0.1-0.6-0.2-1.2-0.3-1.8
		c-0.4-0.1-0.9-0.2-1.4-0.2c-1.9,0-3,1.6-3,4c0,2.2,0.7,3.8,3.2,3.8c0.9,0,1.8-0.2,2.6-0.5l0.3,1.6C439.2,238,438,238.3,436.7,238.3
		z"/>
	<path d="M445.8,238.3c-2.2,0-2.9-0.9-2.9-3.2v-6.2h-2.2v-1.5h2.2v-3.5l1.9-0.5v4h3v1.5h-3v5.5c0,1.8,0.3,2.2,1.5,2.2
		c0.5,0,1-0.1,1.4-0.2l0.2,1.6C447.3,238.2,446.5,238.3,445.8,238.3z"/>
	<path d="M463.5,238.2V237c0.5-0.1,1.1-0.2,1.7-0.3l-1-7.5c-0.2-1.6-0.4-2.8-0.4-3.7h0c-0.2,0.7-0.3,1.6-0.7,2.5l-3.5,10h-1.8
		l-3.3-9.5c-0.4-1.1-0.6-2.2-0.8-3h0c0,1.1-0.2,2.4-0.3,3.7l-0.9,7.4c0.6,0,1.2,0.2,1.7,0.3v1.2h-5V237c0.4-0.1,1-0.2,1.3-0.2
		L452,225c-0.6,0-1.3-0.2-1.9-0.3v-1.2h4.6l3.1,8.9c0.3,0.8,0.6,2,0.8,2.9h0c0.2-1,0.5-1.8,0.8-2.8l3.1-9h4.7v1.2
		c-0.6,0.1-1.2,0.2-1.9,0.3l1.8,11.7c0.4,0,1,0.2,1.3,0.2v1.2H463.5z"/>
	<path d="M474.6,238.3c-2.9,0-4.8-1.7-4.8-5.4c0-3.2,2-5.7,5.2-5.7c2.7,0,4.8,1.5,4.8,5.4C479.8,235.8,477.8,238.3,474.6,238.3z
		 M474.8,228.8c-1.6,0-3,1.2-3,4c0,2.5,1,3.9,3,3.9c1.6,0,3-1.3,3-3.9C477.8,230.3,476.8,228.8,474.8,228.8z"/>
	<path d="M489,238.2c0-0.6,0-1.6,0.2-2.2l0,0c-0.6,1.4-1.9,2.4-3.6,2.4c-2.6,0-4-1.9-4-5.1c0-3.8,2.2-6,5.6-6c0.6,0,1.2,0,1.8,0.1
		v-3.5c-0.5-0.1-1.3-0.2-1.9-0.2v-1.2c1.1-0.1,2.6-0.2,3.8-0.2v14.2c0.5,0.1,1.2,0.2,1.8,0.2v1.2C491.7,238.1,490.2,238.2,489,238.2
		z M488.9,229c-0.6-0.2-1.3-0.2-1.9-0.2c-2.1,0-3.4,1.2-3.4,4.3c0,2.3,0.8,3.6,2.4,3.6c1.9,0,2.9-2.3,2.9-4.1V229z"/>
	<path d="M502.9,232.8h-7c-0.1,2.8,1.1,4,3.4,4c1,0,2.1-0.2,3.1-0.6l0.3,1.5c-1.1,0.4-2.4,0.7-3.7,0.7c-3.3,0-5-1.7-5-5.5
		c0-3.2,1.8-5.6,4.8-5.6c3,0,4.3,2,4.3,4.4C503,231.9,502.9,232.3,502.9,232.8z M498.6,228.7c-1.4,0-2.4,1-2.6,2.7h5
		C501,229.7,500.1,228.7,498.6,228.7z"/>
	<path d="M513.3,242.7c-2.5-4-3.2-7.5-3.2-10.7c0-3.2,0.7-6.9,3.2-10.7l1.4,0.7c-1.8,3-2.7,6.4-2.7,10c0,3.7,0.9,7,2.7,10
		L513.3,242.7z"/>
	<path d="M527.5,238.3c-4.4,0-6.7-2.7-6.7-7.1c0-4.5,2.3-7.8,7.1-7.8c1.2,0,2.4,0.2,3.5,0.4v3.6H530c-0.2-0.7-0.2-1.4-0.3-2
		c-0.8-0.2-1.4-0.3-2.1-0.3c-3.1,0-4.6,2.5-4.6,5.7c0,3.5,1.6,5.7,5,5.7c1.2,0,2.5-0.3,3.4-0.7l0.3,1.7
		C530.5,238,529,238.3,527.5,238.3z"/>
	<path d="M533,238.2V237c0.6-0.1,1.2-0.2,1.9-0.3V225c-0.6,0-1.3-0.2-1.9-0.3v-1.2h9.4v3.4H541c-0.1-0.7-0.2-1.3-0.3-1.8h-3.9v4.8
		h3.1c0.1-0.5,0.2-1,0.3-1.5h1.2v4.4h-1.2c-0.1-0.5-0.2-1-0.3-1.5h-3.1v5.2h3.9c0.1-0.6,0.2-1.2,0.3-1.9h1.4v3.5H533z"/>
	<path d="M558.1,225v13.1h-2.7l-5.6-9.2c-0.6-1.1-1.2-2.2-1.7-3.2c0.2,2.5,0.2,6.3,0.2,10.9c0.6,0,1.2,0.2,1.7,0.3v1.2h-5.5V237
		c0.6-0.1,1.2-0.3,1.9-0.3V225c-0.6,0-1.3-0.2-1.9-0.3v-1.2h4.6l5.6,9.1c0.6,1,1.2,2.2,1.7,3.2c-0.2-2.5-0.2-6.3-0.2-10.8
		c-0.6,0-1.2-0.2-1.7-0.3v-1.2h5.1v1.2C559.1,224.9,558.6,225,558.1,225z"/>
	<path d="M570.5,227.2c-0.1-0.8-0.3-1.5-0.3-2h-3v11.5c0.6,0,1.3,0.2,1.9,0.3v1.2h-5.7V237c0.6-0.1,1.2-0.2,1.9-0.3v-11.5h-3
		c0,0.5-0.2,1.2-0.3,2h-1.4v-3.6h11.3v3.6H570.5z"/>
	<path d="M572.9,238.2V237c0.6-0.1,1.2-0.2,1.9-0.3V225c-0.6,0-1.3-0.2-1.9-0.3v-1.2h9.4v3.4h-1.4c-0.1-0.7-0.2-1.3-0.3-1.8h-3.9
		v4.8h3.1c0.1-0.5,0.2-1,0.3-1.5h1.2v4.4h-1.2c-0.1-0.5-0.2-1-0.3-1.5h-3.1v5.2h3.9c0.1-0.6,0.2-1.2,0.3-1.9h1.4v3.5H572.9z"/>
	<path d="M593.2,238.2l-3.9-6.5h-1.1v5.1c0.5,0,1.1,0.1,1.6,0.3v1.2h-5.5V237c0.6-0.1,1.2-0.2,1.9-0.3V225c-0.6,0-1.3-0.2-1.9-0.3
		v-1.2h1.7c0.6,0,2.4-0.1,4-0.1c3.1,0,5.1,1,5.1,3.9c0,2.3-1.6,3.6-3.9,4c0.3,0.4,0.7,0.9,1,1.3l2.5,4c0.5,0.1,1.1,0.2,1.7,0.3v1.2
		H593.2z M589.7,225.1c-0.4,0-1.1,0-1.5,0.1v5h1.7c2.1,0,3.3-1,3.3-2.6C593.1,225.8,592,225.1,589.7,225.1z"/>
	<path d="M603.5,242.7l-1.4-0.7c1.8-3,2.7-6.4,2.7-9.9c0-3.7-0.9-7-2.7-10.1l1.5-0.7c2.5,4,3.1,7.5,3.1,10.6
		C606.7,235.1,606,238.8,603.5,242.7z"/>
	<path d="M615.2,241.5l-0.8-0.7c1.4-1.5,1.4-2.5,0.9-3.1c-0.6-0.8-0.1-1.9,0.9-1.9C617.8,235.7,618.5,238.4,615.2,241.5z M616.2,232
		c-0.7,0-1.3-0.6-1.3-1.3c0-0.7,0.6-1.3,1.3-1.3s1.3,0.6,1.3,1.3C617.6,231.4,617,232,616.2,232z"/>
	<path d="M419.6,255.1c-2.5-0.4-3.6,1.3-3.6,4.7v2.9c0.6,0,1.3,0.2,1.9,0.3v1.2h-5.7v-1.2c0.6-0.1,1.2-0.2,1.9-0.3v-7.8
		c-0.5-0.1-1.3-0.2-1.9-0.2v-1.2c1.1-0.1,2.6-0.2,3.8-0.2c0,0.7-0.1,1.7-0.2,2.5h0c0.5-1.5,1.6-3,3.9-2.7L419.6,255.1z"/>
	<path d="M429.9,258.7h-7c-0.1,2.8,1.1,4,3.4,4c1,0,2.1-0.2,3.1-0.6l0.3,1.5c-1.1,0.4-2.4,0.7-3.7,0.7c-3.3,0-5-1.7-5-5.5
		c0-3.2,1.8-5.6,4.8-5.6c3,0,4.3,2,4.3,4.4C430,257.8,430,258.2,429.9,258.7z M425.6,254.6c-1.4,0-2.4,1-2.6,2.7h5
		C428,255.6,427.1,254.6,425.6,254.6z"/>
	<path d="M436.7,264.2c-2.7,0-4.9-1.2-4.9-5.2c0-3.5,1.8-5.9,5.3-5.9c0.9,0,1.9,0.2,2.6,0.4v3.1h-1.2c-0.1-0.6-0.2-1.2-0.3-1.8
		c-0.4-0.1-0.9-0.2-1.4-0.2c-1.9,0-3,1.6-3,4c0,2.2,0.7,3.8,3.2,3.8c0.9,0,1.8-0.2,2.6-0.5l0.3,1.6C439.2,264,438,264.2,436.7,264.2
		z"/>
	<path d="M445.8,264.2c-2.2,0-2.9-0.9-2.9-3.2v-6.2h-2.2v-1.5h2.2v-3.5l1.9-0.5v4h3v1.5h-3v5.5c0,1.8,0.3,2.2,1.5,2.2
		c0.5,0,1-0.1,1.4-0.2l0.2,1.6C447.3,264.2,446.5,264.2,445.8,264.2z"/>
	<path d="M453.3,268.6c-2.5-4-3.2-7.5-3.2-10.7c0-3.2,0.7-6.9,3.2-10.7l1.4,0.7c-1.8,3-2.7,6.4-2.7,10c0,3.7,0.9,7,2.7,10
		L453.3,268.6z"/>
	<path d="M468,264.1l-2.4-4l-2.4,4h-3.2v-1.2c0.6-0.1,1.3-0.3,1.8-0.3l2.6-3.9l-2.5-3.9c-0.6,0-1.2-0.2-1.8-0.3v-1.2h3.3l2.3,3.9
		l2.3-3.9h3.1v1.2c-0.6,0.1-1.3,0.3-1.8,0.3l-2.4,3.8l2.6,4c0.6,0,1.2,0.2,1.8,0.3v1.2H468z"/>
	<path d="M477.7,267.4l-0.8-0.7c1.4-1.5,1.4-2.5,0.9-3.1c-0.6-0.8-0.1-1.9,0.9-1.9C480.3,261.6,481.1,264.4,477.7,267.4z"/>
	<path d="M495.6,254.8l-3.8,10.5c-1.2,3.3-2.3,4.4-4.7,4.4c-0.4,0-1,0-1.5-0.1l0.2-1.8c0.5,0.2,0.9,0.2,1.4,0.2
		c1.2,0,1.8-0.6,2.6-2.7l0.5-1.2h-0.5l-3.3-9.3c-0.5,0-1-0.1-1.4-0.3v-1.2h4.9v1.2c-0.4,0.1-0.9,0.2-1.4,0.3l1.6,4.6
		c0.3,1,0.6,1.8,0.8,2.7h0c0.2-0.7,0.6-2,1-3.2l1.4-4.1c-0.5,0-1-0.1-1.4-0.3v-1.2h4.8v1.2C496.6,254.6,496.1,254.7,495.6,254.8z"/>
	<path d="M503.2,267.4l-0.8-0.7c1.4-1.5,1.4-2.5,0.9-3.1c-0.6-0.8-0.1-1.9,0.9-1.9C505.9,261.6,506.6,264.4,503.2,267.4z"/>
	<path d="M527.6,254.8l-2.9,9.3h-2.2l-2.1-6.3c-0.2-0.7-0.4-1.4-0.6-2.1h0c-0.2,1-0.5,1.8-0.8,2.7l-1.8,5.8h-2.2l-2.8-9.3
		c-0.5,0-1-0.1-1.4-0.3v-1.2h4.9v1.2c-0.5,0.1-1,0.2-1.5,0.3l1.3,4.8c0.2,0.9,0.5,1.8,0.7,2.4h0c0.2-0.9,0.5-1.8,0.7-2.6l1.9-6h2
		l1.9,6c0.4,1.3,0.6,1.9,0.8,2.6h0c0.2-0.8,0.4-1.4,0.7-2.4l1.4-4.9c-0.5,0-1-0.1-1.5-0.3v-1.2h4.8v1.2
		C528.5,254.6,528,254.7,527.6,254.8z"/>
	<path d="M529.7,264.1v-1.2c0.6-0.1,1.2-0.2,1.9-0.3v-7.8c-0.5-0.1-1.3-0.2-1.9-0.2v-1.2c1.1-0.1,2.6-0.2,3.8-0.2v9.3
		c0.6,0,1.3,0.2,1.8,0.3v1.2H529.7z M532.6,251.2c-0.7,0-1.3-0.5-1.3-1.3s0.6-1.3,1.3-1.3c0.7,0,1.3,0.6,1.3,1.3
		C533.8,250.6,533.3,251.2,532.6,251.2z"/>
	<path d="M544,264.1c0-0.6,0-1.6,0.2-2.2l0,0c-0.6,1.4-1.9,2.4-3.6,2.4c-2.6,0-4-1.9-4-5.1c0-3.8,2.2-6,5.6-6c0.6,0,1.2,0,1.8,0.1
		v-3.5c-0.5-0.1-1.3-0.2-1.9-0.2v-1.2c1.1-0.1,2.6-0.2,3.8-0.2v14.2c0.5,0.1,1.2,0.2,1.8,0.2v1.2C546.7,264.1,545.2,264.1,544,264.1
		z M544,255c-0.6-0.2-1.3-0.2-1.9-0.2c-2.1,0-3.4,1.2-3.4,4.3c0,2.3,0.8,3.6,2.4,3.6c1.9,0,2.9-2.3,2.9-4.1V255z"/>
	<path d="M552.9,264.2c-2.2,0-2.9-0.9-2.9-3.2v-6.2h-2.2v-1.5h2.2v-3.5l1.9-0.5v4h3v1.5h-3v5.5c0,1.8,0.3,2.2,1.5,2.2
		c0.5,0,1-0.1,1.4-0.2l0.2,1.6C554.4,264.2,553.6,264.2,552.9,264.2z"/>
	<path d="M564.8,264.1v-6.9c0-1.5-0.4-2.4-1.8-2.4c-1.8,0-3,1.8-3,4.2v3.7c0.6,0,1.2,0.1,1.7,0.3v1.2h-5.5v-1.2
		c0.5-0.1,1.2-0.2,1.8-0.3v-12.8c-0.5-0.1-1.2-0.2-1.9-0.2v-1.2c1.1-0.1,2.5-0.2,3.8-0.2v5.1c0,0.7,0,1.6-0.2,2.1l0,0
		c0.6-1.5,1.9-2.4,3.8-2.4c2.4,0,3.2,1.5,3.2,3.4v6c0.6,0,1.3,0.2,1.8,0.3v1.2H564.8z"/>
	<path d="M575,267.4l-0.8-0.7c1.4-1.5,1.4-2.5,0.9-3.1c-0.6-0.8-0.1-1.9,0.9-1.9C577.6,261.6,578.4,264.4,575,267.4z"/>
	<path d="M591.4,264.1v-6.9c0-1.5-0.4-2.4-1.8-2.4c-1.8,0-3,1.8-3,4.2v3.7c0.6,0,1.2,0.1,1.7,0.3v1.2h-5.5v-1.2
		c0.5-0.1,1.2-0.2,1.8-0.3v-12.8c-0.5-0.1-1.2-0.2-1.9-0.2v-1.2c1.1-0.1,2.5-0.2,3.8-0.2v5.1c0,0.7,0,1.6-0.2,2.1l0,0
		c0.6-1.5,1.9-2.4,3.8-2.4c2.4,0,3.2,1.5,3.2,3.4v6c0.6,0,1.3,0.2,1.8,0.3v1.2H591.4z"/>
	<path d="M605.4,258.7h-7c-0.1,2.8,1.1,4,3.4,4c1,0,2.1-0.2,3.1-0.6l0.3,1.5c-1.1,0.4-2.4,0.7-3.7,0.7c-3.3,0-5-1.7-5-5.5
		c0-3.2,1.8-5.6,4.8-5.6c3,0,4.3,2,4.3,4.4C605.5,257.8,605.4,258.2,605.4,258.7z M601.1,254.6c-1.4,0-2.4,1-2.6,2.7h5
		C603.5,255.6,602.6,254.6,601.1,254.6z"/>
	<path d="M607.1,264.1v-1.2c0.6-0.1,1.2-0.2,1.9-0.3v-7.8c-0.5-0.1-1.3-0.2-1.9-0.2v-1.2c1.1-0.1,2.6-0.2,3.8-0.2v9.3
		c0.6,0,1.3,0.2,1.8,0.3v1.2H607.1z M610,251.2c-0.7,0-1.3-0.5-1.3-1.3s0.6-1.3,1.3-1.3c0.7,0,1.3,0.6,1.3,1.3
		C611.2,250.6,610.6,251.2,610,251.2z"/>
	<path d="M618.5,269.6c-2.8,0-4.5-1.1-4.5-3.2c0-1.3,0.8-2.3,1.8-2.9c-0.6-0.3-1.1-0.9-1.1-1.6c0-0.8,0.5-1.5,1.2-1.8
		c-1-0.6-1.6-1.6-1.6-3c0-2.2,1.6-4,4.6-4c0.6,0,1,0.1,1.5,0.2h3.7v1.5h-1.8c0.5,0.4,0.9,1.1,0.9,2c0,2.2-1.5,3.9-4.5,3.9
		c-0.4,0-0.8,0-1.1-0.2c-0.5,0.2-0.7,0.6-0.7,0.9c0,0.6,0.5,0.8,1.8,0.8l2,0.1c2.3,0.1,3.6,1.2,3.6,3.1
		C624.2,267.8,621.9,269.6,618.5,269.6z M620,264l-2.1-0.1c-0.2,0-0.5,0-0.6,0c-0.8,0.6-1.4,1.3-1.4,2.1c0,1.3,1.2,2,2.9,2
		c2.2,0,3.4-1,3.4-2.3C622.2,264.7,621.5,264.1,620,264z M618.8,254.6c-1.6,0-2.5,1-2.5,2.4c0,1.5,0.9,2.4,2.5,2.4
		c1.5,0,2.5-0.9,2.5-2.4C621.2,255.5,620.3,254.6,618.8,254.6z"/>
	<path d="M633.8,264.1v-6.9c0-1.5-0.4-2.4-1.8-2.4c-1.8,0-3,1.8-3,4.2v3.7c0.6,0,1.2,0.1,1.7,0.3v1.2h-5.5v-1.2
		c0.5-0.1,1.2-0.2,1.8-0.3v-12.8c-0.5-0.1-1.2-0.2-1.9-0.2v-1.2c1.1-0.1,2.5-0.2,3.8-0.2v5.1c0,0.7,0,1.6-0.2,2.1l0,0
		c0.6-1.5,1.9-2.4,3.8-2.4c2.4,0,3.2,1.5,3.2,3.4v6c0.6,0,1.3,0.2,1.8,0.3v1.2H633.8z"/>
	<path d="M642.9,264.2c-2.2,0-2.9-0.9-2.9-3.2v-6.2h-2.2v-1.5h2.2v-3.5l1.9-0.5v4h3v1.5h-3v5.5c0,1.8,0.3,2.2,1.5,2.2
		c0.5,0,1-0.1,1.4-0.2l0.2,1.6C644.4,264.2,643.6,264.2,642.9,264.2z"/>
	<path d="M652.4,268.6l-1.4-0.7c1.8-3,2.7-6.4,2.7-9.9c0-3.7-0.9-7-2.7-10.1l1.5-0.7c2.5,4,3.1,7.5,3.1,10.6
		C655.6,261,654.9,264.7,652.4,268.6z"/>
	<path d="M664.1,267.4l-0.8-0.7c1.4-1.5,1.4-2.5,0.9-3.1c-0.6-0.8-0.1-1.9,0.9-1.9C666.7,261.6,667.4,264.4,664.1,267.4z
		 M665.1,257.9c-0.7,0-1.3-0.6-1.3-1.3c0-0.7,0.6-1.3,1.3-1.3s1.3,0.6,1.3,1.3C666.5,257.4,665.9,257.9,665.1,257.9z"/>
</g>
<text transform="matrix(1 0 0 1 218.5635 179.9517)" font-family="'TheSansMono-W5Regular'" font-size="21.6">(3,2)</text>
<line fill="none" stroke="#000000" stroke-width="2" x1="118.7" y1="145.9" x2="298.5" y2="145.9"/>
<line fill="none" stroke="#000000" stroke-width="2" x1="117.5" y1="235.9" x2="297.3" y2="235.9"/>
<line fill="none" stroke="#000000" stroke-width="2" x1="297.4" y1="235.3" x2="297.4" y2="145.2"/>
<line fill="none" stroke="#000000" stroke-width="2" x1="118.6" y1="235.9" x2="118.6" y2="146.4"/>
<g>
	<path fill="#808080" d="M60.7,429.7v-1.2c0.6-0.1,1.2-0.2,1.9-0.3v-11.7c-0.6,0-1.3-0.2-1.9-0.3v-1.2h9.4v3.4h-1.4
		c-0.1-0.7-0.2-1.3-0.3-1.8h-3.9v4.8h3.1c0.1-0.5,0.2-1,0.3-1.5h1.2v4.4h-1.2c-0.1-0.5-0.2-1-0.3-1.5h-3.1v5.2h3.9
		c0.1-0.6,0.2-1.2,0.3-1.9h1.4v3.5H60.7z"/>
	<path fill="#808080" d="M79.7,429.7l-2.4-4l-2.4,4h-3.2v-1.2c0.6-0.1,1.3-0.3,1.8-0.3l2.6-3.9l-2.5-3.9c-0.6,0-1.2-0.2-1.8-0.3
		v-1.2h3.3l2.3,3.9l2.3-3.9h3.1v1.2c-0.6,0.1-1.3,0.3-1.8,0.3l-2.4,3.8l2.6,4c0.6,0,1.2,0.2,1.8,0.3v1.2H79.7z"/>
	<path fill="#808080" d="M90.7,429.7c0-0.8,0-1.5,0.1-2.1h0c-0.5,1.3-1.9,2.3-3.7,2.3c-1.8,0-3-1.1-3-2.8c0-2.3,2.4-3.7,6.4-3.7
		v-0.8c0-1.5-0.5-2.4-2.2-2.4c-0.6,0-1.4,0.1-2,0.3c0,0.5-0.2,1.1-0.3,1.8h-1.2v-2.9c1.1-0.3,2.4-0.6,3.7-0.6c3.2,0,4,1.4,4,3.6v5.8
		c0.5,0.1,1.2,0.2,1.8,0.2v1.2C93.4,429.6,91.9,429.7,90.7,429.7z M90.6,424.7c-3.4,0-4.5,0.8-4.5,2c0,0.9,0.6,1.6,1.6,1.6
		c1.7,0,2.9-1.7,2.9-3.4V424.7z"/>
	<path fill="#808080" d="M110.7,429.7v-6.9c0-1.5-0.3-2.4-1.7-2.4c-1.5,0-3,1.6-3,4.2v3.7c0.6,0,1.2,0.1,1.8,0.3v1.2H104v-6.9
		c0-1.4-0.3-2.4-1.8-2.4c-1.6,0-3,1.8-3,4.2v3.7c0.6,0,1.2,0.1,1.7,0.3v1.2h-5.6v-1.2c0.6-0.1,1.2-0.2,1.9-0.3v-7.8
		c-0.5-0.1-1.3-0.2-1.9-0.2v-1.2c1.1-0.1,2.6-0.2,3.8-0.2c0,0.6-0.1,1.6-0.2,2.3l0,0c0.6-1.5,2-2.5,3.7-2.5c2.3,0,2.9,1.6,3,2.4
		c0.4-1,1.6-2.4,3.7-2.4c2,0,3.2,1.1,3.2,3.5v6c0.6,0,1.3,0.2,1.8,0.3v1.2H110.7z"/>
	<path fill="#808080" d="M120.6,429.8c-0.7,0-1.2,0-1.8-0.1v3.9c0.6,0,1.3,0.2,1.9,0.3v1.2H115v-1.2c0.6-0.1,1.1-0.2,1.8-0.3v-13.1
		c-0.5-0.1-1.2-0.2-1.8-0.2v-1.2c1.1-0.1,2.5-0.2,3.7-0.2c0,0.6-0.1,1.6-0.2,2.2l0,0c0.6-1.5,1.9-2.4,3.6-2.4c2.5,0,4,1.8,4,5.1
		C126.1,427.6,124.1,429.8,120.6,429.8z M121.7,420.3c-1.9,0-2.9,2.3-2.9,4.1v3.5c0.6,0.2,1.2,0.3,1.9,0.3c2,0,3.4-1.2,3.4-4.3
		C124.1,421.6,123.3,420.3,121.7,420.3z"/>
	<path fill="#808080" d="M127.4,429.7v-1.2c0.5-0.1,1.2-0.2,1.8-0.3v-12.8c-0.5-0.1-1.2-0.2-1.9-0.2V414c1.1-0.1,2.5-0.2,3.8-0.2
		v14.3c0.6,0,1.3,0.2,1.8,0.3v1.2H127.4z"/>
	<path fill="#808080" d="M143.2,424.3h-7c-0.1,2.8,1.1,4,3.4,4c1,0,2.1-0.2,3.1-0.6l0.3,1.5c-1.1,0.4-2.4,0.7-3.7,0.7
		c-3.3,0-5-1.7-5-5.5c0-3.2,1.8-5.6,4.8-5.6c3,0,4.3,2,4.3,4.4C143.3,423.4,143.2,423.8,143.2,424.3z M138.9,420.2
		c-1.4,0-2.4,1-2.6,2.7h5C141.3,421.2,140.4,420.2,138.9,420.2z"/>
	<path fill="#808080" d="M147.7,423.5c-0.7,0-1.3-0.6-1.3-1.3c0-0.7,0.6-1.3,1.3-1.3c0.7,0,1.3,0.6,1.3,1.3
		C149,422.9,148.4,423.5,147.7,423.5z M147.7,429.9c-0.7,0-1.3-0.6-1.3-1.3c0-0.7,0.6-1.3,1.3-1.3c0.7,0,1.3,0.6,1.3,1.3
		C149,429.3,148.4,429.9,147.7,429.9z"/>
	<path d="M166.8,420.7c-2.5-0.4-3.6,1.3-3.6,4.7v2.9c0.6,0,1.3,0.2,1.9,0.3v1.2h-5.7v-1.2c0.6-0.1,1.2-0.2,1.9-0.3v-7.8
		c-0.5-0.1-1.3-0.2-1.9-0.2v-1.2c1.1-0.1,2.6-0.2,3.8-0.2c0,0.7-0.1,1.7-0.2,2.5h0c0.5-1.5,1.6-3,3.9-2.7L166.8,420.7z"/>
	<path d="M177.2,424.3h-7c-0.1,2.8,1.1,4,3.4,4c1,0,2.1-0.2,3.1-0.6l0.3,1.5c-1.1,0.4-2.4,0.7-3.7,0.7c-3.3,0-5-1.7-5-5.5
		c0-3.2,1.8-5.6,4.8-5.6c3,0,4.3,2,4.3,4.4C177.3,423.4,177.3,423.8,177.2,424.3z M172.9,420.2c-1.4,0-2.4,1-2.6,2.7h5
		C175.3,421.2,174.4,420.2,172.9,420.2z"/>
	<path d="M184,429.8c-2.7,0-4.9-1.2-4.9-5.2c0-3.5,1.8-5.9,5.3-5.9c0.9,0,1.9,0.2,2.6,0.4v3.1h-1.2c-0.1-0.6-0.2-1.2-0.3-1.8
		c-0.4-0.1-0.9-0.2-1.4-0.2c-1.9,0-3,1.6-3,4c0,2.2,0.7,3.8,3.2,3.8c0.9,0,1.8-0.2,2.6-0.5l0.3,1.6
		C186.5,429.6,185.3,429.8,184,429.8z"/>
	<path d="M193,429.8c-2.2,0-2.9-0.9-2.9-3.2v-6.2H188v-1.5h2.2v-3.5l1.9-0.5v4h3v1.5h-3v5.5c0,1.8,0.3,2.2,1.5,2.2
		c0.5,0,1-0.1,1.4-0.2l0.2,1.6C194.6,429.7,193.7,429.8,193,429.8z"/>
	<path d="M210.8,429.7v-1.2c0.5-0.1,1.1-0.2,1.7-0.3l-1-7.5c-0.2-1.6-0.4-2.8-0.4-3.7h0c-0.2,0.7-0.3,1.6-0.7,2.5l-3.5,10H205
		l-3.3-9.5c-0.4-1.1-0.6-2.2-0.8-3h0c0,1.1-0.2,2.4-0.3,3.7l-0.9,7.4c0.6,0,1.2,0.2,1.7,0.3v1.2h-5v-1.2c0.4-0.1,1-0.2,1.3-0.2
		l1.7-11.7c-0.6,0-1.3-0.2-1.9-0.3v-1.2h4.6l3.1,8.9c0.3,0.8,0.6,2,0.8,2.9h0c0.2-1,0.5-1.8,0.8-2.8l3.1-9h4.7v1.2
		c-0.6,0.1-1.2,0.2-1.9,0.3l1.8,11.7c0.4,0,1,0.2,1.3,0.2v1.2H210.8z"/>
	<path d="M221.9,429.9c-2.9,0-4.8-1.7-4.8-5.4c0-3.2,2-5.7,5.2-5.7c2.7,0,4.8,1.5,4.8,5.4C227.1,427.4,225.1,429.9,221.9,429.9z
		 M222.1,420.3c-1.6,0-3,1.2-3,4c0,2.5,1,3.9,3,3.9c1.6,0,3-1.3,3-3.9C225.1,421.8,224,420.3,222.1,420.3z"/>
	<path d="M236.3,429.7c0-0.6,0-1.6,0.2-2.2l0,0c-0.6,1.4-1.9,2.4-3.6,2.4c-2.6,0-4-1.9-4-5.1c0-3.8,2.2-6,5.6-6c0.6,0,1.2,0,1.8,0.1
		v-3.5c-0.5-0.1-1.3-0.2-1.9-0.2V414c1.1-0.1,2.6-0.2,3.8-0.2v14.2c0.5,0.1,1.2,0.2,1.8,0.2v1.2C239,429.6,237.5,429.7,236.3,429.7z
		 M236.2,420.5c-0.6-0.2-1.3-0.2-1.9-0.2c-2.1,0-3.4,1.2-3.4,4.3c0,2.3,0.8,3.6,2.4,3.6c1.9,0,2.9-2.3,2.9-4.1V420.5z"/>
	<path d="M250.2,424.3h-7c-0.1,2.8,1.1,4,3.4,4c1,0,2.1-0.2,3.1-0.6l0.3,1.5c-1.1,0.4-2.4,0.7-3.7,0.7c-3.3,0-5-1.7-5-5.5
		c0-3.2,1.8-5.6,4.8-5.6c3,0,4.3,2,4.3,4.4C250.2,423.4,250.2,423.8,250.2,424.3z M245.9,420.2c-1.4,0-2.4,1-2.6,2.7h5
		C248.3,421.2,247.4,420.2,245.9,420.2z"/>
	<path d="M260.6,434.2c-2.5-4-3.2-7.5-3.2-10.7c0-3.2,0.7-6.9,3.2-10.7l1.4,0.7c-1.8,3-2.7,6.4-2.7,10c0,3.7,0.9,7,2.7,10
		L260.6,434.2z"/>
	<path d="M274.8,429.9c-4.4,0-6.7-2.7-6.7-7.1c0-4.5,2.3-7.8,7.1-7.8c1.2,0,2.4,0.2,3.5,0.4v3.6h-1.4c-0.2-0.7-0.2-1.4-0.3-2
		c-0.8-0.2-1.4-0.3-2.1-0.3c-3.1,0-4.6,2.5-4.6,5.7c0,3.5,1.6,5.7,5,5.7c1.2,0,2.5-0.3,3.4-0.7l0.3,1.7
		C277.8,429.5,276.3,429.9,274.8,429.9z"/>
	<path d="M280.3,429.7v-1.2c0.6-0.1,1.2-0.2,1.9-0.3v-11.7c-0.6,0-1.3-0.2-1.9-0.3v-1.2h9.4v3.4h-1.4c-0.1-0.7-0.2-1.3-0.3-1.8h-3.9
		v4.8h3.1c0.1-0.5,0.2-1,0.3-1.5h1.2v4.4h-1.2c-0.1-0.5-0.2-1-0.3-1.5h-3.1v5.2h3.9c0.1-0.6,0.2-1.2,0.3-1.9h1.4v3.5H280.3z"/>
	<path d="M305.4,416.5v13.1h-2.7l-5.6-9.2c-0.6-1.1-1.2-2.2-1.7-3.2c0.2,2.5,0.2,6.3,0.2,10.9c0.6,0,1.2,0.2,1.7,0.3v1.2h-5.5v-1.2
		c0.6-0.1,1.2-0.3,1.9-0.3v-11.7c-0.6,0-1.3-0.2-1.9-0.3v-1.2h4.6l5.6,9.1c0.6,1,1.2,2.2,1.7,3.2c-0.2-2.5-0.2-6.3-0.2-10.8
		c-0.6,0-1.2-0.2-1.7-0.3v-1.2h5.1v1.2C306.4,416.4,305.9,416.5,305.4,416.5z"/>
	<path d="M317.8,418.7c-0.1-0.8-0.3-1.5-0.3-2h-3v11.5c0.6,0,1.3,0.2,1.9,0.3v1.2h-5.7v-1.2c0.6-0.1,1.2-0.2,1.9-0.3v-11.5h-3
		c0,0.5-0.2,1.2-0.3,2h-1.4v-3.6h11.3v3.6H317.8z"/>
	<path d="M320.2,429.7v-1.2c0.6-0.1,1.2-0.2,1.9-0.3v-11.7c-0.6,0-1.3-0.2-1.9-0.3v-1.2h9.4v3.4h-1.4c-0.1-0.7-0.2-1.3-0.3-1.8H324
		v4.8h3.1c0.1-0.5,0.2-1,0.3-1.5h1.2v4.4h-1.2c-0.1-0.5-0.2-1-0.3-1.5H324v5.2h3.9c0.1-0.6,0.2-1.2,0.3-1.9h1.4v3.5H320.2z"/>
	<path d="M340.5,429.7l-3.9-6.5h-1.1v5.1c0.5,0,1.1,0.1,1.6,0.3v1.2h-5.5v-1.2c0.6-0.1,1.2-0.2,1.9-0.3v-11.7
		c-0.6,0-1.3-0.2-1.9-0.3v-1.2h1.7c0.6,0,2.4-0.1,4-0.1c3.1,0,5.1,1,5.1,3.9c0,2.3-1.6,3.6-3.9,4c0.3,0.4,0.7,0.9,1,1.3l2.5,4
		c0.5,0.1,1.1,0.2,1.7,0.3v1.2H340.5z M337,416.6c-0.4,0-1.1,0-1.5,0.1v5h1.7c2.1,0,3.3-1,3.3-2.6
		C340.4,417.3,339.3,416.6,337,416.6z"/>
	<path d="M350.8,434.2l-1.4-0.7c1.8-3,2.7-6.4,2.7-9.9c0-3.7-0.9-7-2.7-10.1l1.5-0.7c2.5,4,3.1,7.5,3.1,10.6
		C354,426.6,353.3,430.3,350.8,434.2z"/>
	<path d="M362.4,433l-0.8-0.7c1.4-1.5,1.4-2.5,0.9-3.1c-0.6-0.8-0.1-1.9,0.9-1.9C365.1,427.2,365.8,429.9,362.4,433z M363.5,423.5
		c-0.7,0-1.3-0.6-1.3-1.3c0-0.7,0.6-1.3,1.3-1.3s1.3,0.6,1.3,1.3C364.8,422.9,364.2,423.5,363.5,423.5z"/>
	<path d="M168.6,446.6c-2.5-0.4-3.6,1.3-3.6,4.7v2.9c0.6,0,1.3,0.2,1.9,0.3v1.2h-5.7v-1.2c0.6-0.1,1.2-0.2,1.9-0.3v-7.8
		c-0.5-0.1-1.3-0.2-1.9-0.2V445c1.1-0.1,2.6-0.2,3.8-0.2c0,0.7-0.1,1.7-0.2,2.5h0c0.5-1.5,1.6-3,3.9-2.7L168.6,446.6z"/>
	<path d="M179,450.2h-7c-0.1,2.8,1.1,4,3.4,4c1,0,2.1-0.2,3.1-0.6l0.3,1.5c-1.1,0.4-2.4,0.7-3.7,0.7c-3.3,0-5-1.7-5-5.5
		c0-3.2,1.8-5.6,4.8-5.6c3,0,4.3,2,4.3,4.4C179,449.3,179,449.7,179,450.2z M174.6,446.1c-1.4,0-2.4,1-2.6,2.7h5
		C177.1,447.2,176.2,446.1,174.6,446.1z"/>
	<path d="M185.8,455.8c-2.7,0-4.9-1.2-4.9-5.2c0-3.5,1.8-5.9,5.3-5.9c0.9,0,1.9,0.2,2.6,0.4v3.1h-1.2c-0.1-0.6-0.2-1.2-0.3-1.8
		c-0.4-0.1-0.9-0.2-1.4-0.2c-1.9,0-3,1.6-3,4c0,2.2,0.7,3.8,3.2,3.8c0.9,0,1.8-0.2,2.6-0.5l0.3,1.6
		C188.3,455.5,187.1,455.8,185.8,455.8z"/>
	<path d="M194.8,455.8c-2.2,0-2.9-0.9-2.9-3.2v-6.2h-2.2v-1.5h2.2v-3.5l1.9-0.5v4h3v1.5h-3v5.5c0,1.8,0.3,2.2,1.5,2.2
		c0.5,0,1-0.1,1.4-0.2l0.2,1.6C196.3,455.7,195.5,455.8,194.8,455.8z"/>
	<path d="M211.2,460.4c-3.6-3.3-5.3-6.7-5.3-10.9c0-4.4,2.1-8.1,5.4-11l1.1,1.1c-2.9,2.9-4.5,6.2-4.5,9.7c0,3.6,1.5,6.9,4.5,9.9
		L211.2,460.4z"/>
	<path d="M220,457.6c-0.9,0-1.9-0.1-2.7-0.3l0.3-1.8c0.7,0.3,1.7,0.4,2.6,0.4c2.3,0,3.8-1.3,3.8-2.9c0-1.6-1.3-2.7-3.6-2.7
		c-0.7,0-1.3,0-1.9,0.1v-1.6h0.5c3.1,0,4.6-0.9,4.6-2.7c0-1.4-1.1-2.1-2.6-2.1c-1.2,0-2.2,0.3-3.1,0.8l-0.3-1.7
		c1.1-0.5,2.3-0.8,3.7-0.8c2.9,0,4.3,1.4,4.3,3.5c0,1.7-1.1,2.9-2.6,3.4l0,0c1.8,0.2,3.1,1.7,3.1,3.5
		C226.2,455.5,223.6,457.6,220,457.6z"/>
	<path d="M231.2,458.4c2.2-0.6,2.9-1.6,2.9-2.4c0-1.4-1.1-1.4-1.1-2.5c0-0.9,0.6-1.6,1.5-1.6c1.4,0,2,1.3,2,2.7c0,2.7-1.8,4.3-5,5
		L231.2,458.4z"/>
	<path d="M243,455.6V454l3.1-2.8c2.7-2.3,3.4-3.2,3.4-4.7c0-1.4-0.8-2.4-2.7-2.4c-1.3,0-2.4,0.6-3.1,1.1l-0.4-1.7
		c1.1-0.7,2.4-1.1,4-1.1c2.9,0,4.4,1.6,4.4,3.8c0,1.8-1,3.2-3.3,5.3l-2.6,2.2l-0.1,0c1-0.1,3.4-0.1,6.6-0.1v1.9H243z"/>
	<path d="M257.2,458.4c2.2-0.6,2.9-1.6,2.9-2.4c0-1.4-1.1-1.4-1.1-2.5c0-0.9,0.6-1.6,1.5-1.6c1.4,0,2,1.3,2,2.7c0,2.7-1.8,4.3-5,5
		L257.2,458.4z"/>
	<path d="M276.7,453.7v3.6h-1.9v-3.6h-6.6l-0.2-1.6l6-9.5h2.7v9.4h2.5v1.8H276.7z M274.8,444.4L274.8,444.4l-4.9,7.6
		c1.3,0,4,0,4.9,0V444.4z"/>
	<path d="M283.1,458.4c2.2-0.6,2.9-1.6,2.9-2.4c0-1.4-1.1-1.4-1.1-2.5c0-0.9,0.6-1.6,1.5-1.6c1.4,0,2,1.3,2,2.7c0,2.7-1.8,4.3-5,5
		L283.1,458.4z"/>
	<path d="M294.9,455.6V454l3.1-2.8c2.7-2.3,3.4-3.2,3.4-4.7c0-1.4-0.8-2.4-2.7-2.4c-1.3,0-2.4,0.6-3.1,1.1l-0.4-1.7
		c1.1-0.7,2.4-1.1,4-1.1c2.9,0,4.4,1.6,4.4,3.8c0,1.8-1,3.2-3.3,5.3l-2.6,2.2l-0.1,0c1-0.1,3.4-0.1,6.6-0.1v1.9H294.9z"/>
	<path d="M310.3,438.6c3.6,3.3,5.3,6.7,5.3,10.9c0,4.4-2.1,8.1-5.4,11l-1.1-1.1c2.9-2.9,4.5-6.2,4.5-9.7c0-3.6-1.5-6.9-4.5-9.9
		L310.3,438.6z"/>
	<path d="M326.1,458.9l-0.8-0.7c1.4-1.5,1.4-2.5,0.9-3.1c-0.6-0.8-0.1-1.9,0.9-1.9C328.7,453.1,329.4,455.9,326.1,458.9z
		 M327.1,449.4c-0.7,0-1.3-0.6-1.3-1.3c0-0.7,0.6-1.3,1.3-1.3s1.3,0.6,1.3,1.3C328.5,448.9,327.9,449.4,327.1,449.4z"/>
</g>
</svg>
