<?xml version="1.0" encoding="utf-8"?>
<!-- Generator: Adobe Illustrator 18.0.0, SVG Export Plug-In . SVG Version: 6.00 Build 0)  -->
<!DOCTYPE svg PUBLIC "-//W3C//DTD SVG 1.1//EN" "http://www.w3.org/Graphics/SVG/1.1/DTD/svg11.dtd">
<svg version="1.1" id="Layer_1" xmlns="http://www.w3.org/2000/svg" xmlns:xlink="http://www.w3.org/1999/xlink" x="0px" y="0px"
	 viewBox="0 0 612 792" enable-background="new 0 0 612 792" xml:space="preserve">
<g>
	<rect x="-29.6" y="177.1" fill="none" stroke="#999999" stroke-width="1.3" width="444.1" height="444.1"/>
	<line fill="none" stroke="#999999" stroke-width="1.3" x1="-29.6" y1="547.3" x2="414.3" y2="547.3"/>
	<line fill="none" stroke="#999999" stroke-width="1.3" x1="-29.6" y1="473" x2="414.3" y2="473"/>
	<line fill="none" stroke="#999999" stroke-width="1.3" x1="-29.6" y1="399.2" x2="414.3" y2="399.2"/>
	<line fill="none" stroke="#999999" stroke-width="1.3" x1="-29.6" y1="325.3" x2="414.3" y2="325.3"/>
	<line fill="none" stroke="#999999" stroke-width="1.3" x1="-29.6" y1="251" x2="414.3" y2="251"/>
	<line fill="none" stroke="#999999" stroke-width="1.3" x1="340.4" y1="177.1" x2="340.4" y2="621.2"/>
	<line fill="none" stroke="#999999" stroke-width="1.3" x1="266.5" y1="177.1" x2="266.5" y2="621.2"/>
	<line fill="none" stroke="#999999" stroke-width="1.3" x1="192.4" y1="177.1" x2="192.4" y2="621.2"/>
	<line fill="none" stroke="#999999" stroke-width="1.3" x1="118.4" y1="177.1" x2="118.4" y2="621.2"/>
	<line fill="none" stroke="#999999" stroke-width="1.3" x1="44.3" y1="177.1" x2="44.3" y2="621.2"/>
</g>
<g enable-background="new    ">
	<path d="M-20.8,70.3l-4-6.7l-3.9,6.7h-5.4v-2.1c1.1-0.2,2.1-0.4,3-0.6l4.3-6.5l-4.1-6.3c-0.9,0-2.1-0.4-3-0.6v-2.1h5.4l3.7,6.5
		l3.9-6.5h5.2v2.1c-1.1,0.2-2.1,0.4-3,0.6l-3.9,6.3l4.3,6.5c0.9,0,2.1,0.4,3,0.6v2.1H-20.8z"/>
</g>
<g enable-background="new    ">
	<path d="M-130.4,167l-6.3,17.4c-1.9,5.4-3.7,7.3-7.7,7.3c-0.7,0-1.7,0-2.4-0.2l0.2-3c0.7,0.2,1.5,0.4,2.4,0.4c1.9,0,3-0.9,4.3-4.5
		l0.7-2.1h-0.7l-5.4-15.5c-0.7,0-1.7-0.2-2.2-0.4v-1.8h8.2v1.9c-0.7,0.2-1.5,0.4-2.2,0.4l2.6,7.7c0.6,1.7,0.9,3,1.3,4.5l0,0
		c0.4-1.3,0.9-3.2,1.7-5.2l2.4-6.9c-0.9,0-1.7-0.2-2.2-0.4v-2h8v1.9C-128.7,166.8-129.5,167-130.4,167z"/>
</g>
<g enable-background="new    ">
	<path d="M-23.1,131.7c-4.9,0-8.8-2.8-8.8-11c0-7.1,4.3-11.2,9.3-11.2c4.7,0,8.8,2.6,8.8,11C-13.7,127.8-18,131.7-23.1,131.7z
		 M-22.9,112.1c-3,0-5.6,2.6-5.6,8.2c0,6,2.2,8.6,5.8,8.6c3,0,5.6-2.4,5.6-8.2C-17.1,114.7-19.5,112.1-22.9,112.1z"/>
</g>
<g enable-background="new    ">
	<path d="M41.9,131.3v-3h6.5v-15.1l-6.2,4.1l-1.1-2.8l7.8-4.9h2.8v18.7h5.6v3H41.9z"/>
</g>
<g enable-background="new    ">
	<path d="M112.6,131.3v-2.6l5-4.7c4.5-3.9,5.6-5.4,5.6-7.8s-1.3-3.9-4.5-3.9c-2.1,0-4.1,0.9-5.2,1.9l-0.7-2.8
		c1.9-1.1,3.9-1.9,6.5-1.9c4.9,0,7.3,2.8,7.3,6.3c0,3-1.5,5.4-5.6,8.8l-4.3,3.7h-0.2c1.7-0.2,5.6-0.2,11-0.2v3.2H112.6z"/>
</g>
<g enable-background="new    ">
	<path d="M189.2,134.7c-1.5,0-3.2-0.2-4.5-0.6l0.6-3c1.3,0.4,2.8,0.7,4.3,0.7c3.7,0,6.3-2.2,6.3-4.9c0-2.6-2.1-4.5-6-4.5
		c-1.3,0-2.2,0-3.2,0.2V120h0.7c5,0,7.7-1.5,7.7-4.5c0-2.2-1.7-3.5-4.3-3.5c-2.1,0-3.5,0.6-5,1.3l-0.6-2.8c1.9-0.7,3.9-1.3,6.2-1.3
		c4.9,0,7.3,2.4,7.3,5.8c0,2.8-1.7,4.9-4.3,5.6l0,0c3,0.4,5.2,2.8,5.2,5.8C199.4,131.3,195.2,134.7,189.2,134.7z"/>
</g>
<g enable-background="new    ">
	<path d="M268.9,128.3v6h-3.2v-6h-11l-0.2-2.6l9.9-15.9h4.5v15.5h4.1v3H268.9z M265.7,112.7L265.7,112.7l-8,12.7c2.1,0,6.7,0,8,0
		V112.7z"/>
</g>
<g enable-background="new    ">
	<path d="M332.4,134.7c-1.1,0-2.6-0.2-3.9-0.4l0.2-2.8c1.1,0.4,2.8,0.4,4.1,0.4c4.3,0,6.7-2.4,6.7-5.4s-2.4-4.7-6.5-4.7
		c-1.5,0-2.8,0.2-3.7,0.2v-12.3H342v3.2h-9.5v6.3c0.6,0,1.3,0,1.7,0c6,0,9,3,9,6.9C342.8,131,338.7,134.7,332.4,134.7z"/>
</g>
<g enable-background="new    ">
	<path d="M407.2,131.7c-5,0-8-3.7-8-10.3c0-10.3,5-14.6,11.9-14.6c0.7,0,1.5,0,2.1,0.2v2.8c-0.7-0.2-1.5-0.2-2.4-0.2
		c-4.7,0-7.3,2.8-8.2,7.7c-0.2,0.4-0.2,1.1-0.4,1.9l0,0c1.1-2.1,3.4-3.2,5.6-3.2c4.9,0,7.5,3.2,7.5,7.1
		C415.4,128.2,412.1,131.7,407.2,131.7z M407.4,118.8c-3,0-4.7,2.6-4.7,4.7c0,3,1.7,5.6,4.9,5.6c2.8,0,4.7-2.2,4.7-5.2
		C412.1,120.7,410.4,118.8,407.4,118.8z"/>
</g>
<circle fill="#808080" cx="44.3" cy="325.3" r="11.6"/>
<g enable-background="new    ">
	<path d="M-78.9,193.3c-4.9,0-8.8-2.8-8.8-11c0-7.1,4.3-11.2,9.3-11.2c4.7,0,8.8,2.6,8.8,11C-69.6,189.4-73.9,193.3-78.9,193.3z
		 M-78.7,173.9c-3,0-5.6,2.6-5.6,8.2c0,6,2.2,8.6,5.8,8.6c3,0,5.6-2.4,5.6-8.2C-72.9,176.5-75.2,173.9-78.7,173.9z"/>
</g>
<g enable-background="new    ">
	<path d="M-85.6,264.8v-3h6.5v-15.1l-6.2,4.1l-1.1-2.8l7.8-4.9h2.8v18.7h5.6v3H-85.6z"/>
</g>
<g enable-background="new    ">
	<path d="M-86.4,336.5v-2.6l5-4.7c4.5-3.9,5.6-5.4,5.6-7.8s-1.3-3.9-4.5-3.9c-2.1,0-4.1,0.9-5.2,1.9l-0.7-2.8
		c1.9-1.1,3.9-1.9,6.5-1.9c4.9,0,7.3,2.8,7.3,6.3c0,3-1.5,5.4-5.6,8.8l-4.3,3.7h-0.2c1.7-0.2,5.6-0.2,11-0.2v3.2H-86.4z"/>
</g>
<g enable-background="new    ">
	<path d="M-81.5,411.4c-1.5,0-3.2-0.2-4.5-0.6l0.6-3c1.3,0.4,2.8,0.7,4.3,0.7c3.7,0,6.3-2.2,6.3-4.9c0-2.6-2.1-4.5-6-4.5
		c-1.3,0-2.2,0-3.2,0.2v-2.6h0.7c5,0,7.7-1.5,7.7-4.5c0-2.2-1.7-3.5-4.3-3.5c-2.1,0-3.5,0.6-5,1.3l-0.6-2.8c1.9-0.7,3.9-1.3,6.2-1.3
		c4.9,0,7.3,2.4,7.3,5.8c0,2.8-1.7,4.9-4.3,5.6l0,0c3,0.4,5.2,2.8,5.2,5.8C-71.4,408-75.5,411.4-81.5,411.4z"/>
</g>
<g enable-background="new    ">
	<path d="M-73.7,476.7v6h-3.2v-6h-11l-0.2-2.6l9.9-15.9h4.5v15.5h4.1v3H-73.7L-73.7,476.7z M-76.8,461.2L-76.8,461.2l-8,12.7
		c2.1,0,6.7,0,8,0V461.2z"/>
</g>
<g enable-background="new    ">
	<path d="M-81.7,554.7c-1.1,0-2.6-0.2-3.9-0.4l0.2-2.8c1.1,0.4,2.8,0.4,4.1,0.4c4.3,0,6.7-2.4,6.7-5.4s-2.4-4.7-6.5-4.7
		c-1.5,0-2.8,0.2-3.7,0.2v-12.3h12.5v3.2h-9.5v6.3c0.6,0,1.3,0,1.7,0c6,0,9,3,9,6.9C-71.2,551-75.5,554.7-81.7,554.7z"/>
</g>
<g enable-background="new    ">
	<path d="M-78.5,623.4c-5,0-8-3.7-8-10.3c0-10.3,5-14.6,11.9-14.6c0.7,0,1.5,0,2.1,0.2v2.8c-0.7-0.2-1.5-0.2-2.4-0.2
		c-4.7,0-7.3,2.8-8.2,7.7c-0.2,0.4-0.2,1.1-0.4,1.9l0,0c1.1-2.1,3.4-3.2,5.6-3.2c4.9,0,7.5,3.2,7.5,7.1
		C-70.5,620.1-73.7,623.4-78.5,623.4z M-78.5,610.5c-3,0-4.7,2.6-4.7,4.7c0,3,1.7,5.6,4.9,5.6c2.8,0,4.7-2.2,4.7-5.2
		S-75.4,610.5-78.5,610.5z"/>
</g>
<line fill="none" stroke="#000000" stroke-width="1.3" x1="-27.7" y1="177.1" x2="-41.9" y2="177.1"/>
<line fill="none" stroke="#000000" stroke-width="1.3" x1="-27.7" y1="251.4" x2="-41.9" y2="251.4"/>
<line fill="none" stroke="#000000" stroke-width="1.3" x1="-27.7" y1="325.1" x2="-41.9" y2="325.1"/>
<line fill="none" stroke="#000000" stroke-width="1.3" x1="-27.7" y1="398.8" x2="-41.9" y2="398.8"/>
<line fill="none" stroke="#000000" stroke-width="1.3" x1="-27.7" y1="473.1" x2="-41.9" y2="473.1"/>
<line fill="none" stroke="#000000" stroke-width="1.3" x1="-27.7" y1="548" x2="-41.9" y2="548"/>
<line fill="none" stroke="#000000" stroke-width="1.3" x1="-27.7" y1="620.6" x2="-41.9" y2="620.6"/>
<line fill="none" stroke="#000000" stroke-width="1.3" x1="413.8" y1="176.9" x2="413.8" y2="162.7"/>
<line fill="none" stroke="#000000" stroke-width="1.3" x1="339.5" y1="176.9" x2="339.5" y2="162.7"/>
<line fill="none" stroke="#000000" stroke-width="1.3" x1="265.7" y1="176.9" x2="265.7" y2="162.7"/>
<line fill="none" stroke="#000000" stroke-width="1.3" x1="191.8" y1="176.9" x2="191.8" y2="162.7"/>
<line fill="none" stroke="#000000" stroke-width="1.3" x1="117.7" y1="176.9" x2="117.7" y2="162.7"/>
<line fill="none" stroke="#000000" stroke-width="1.3" x1="42.6" y1="176.9" x2="42.6" y2="162.7"/>
<line fill="none" stroke="#000000" stroke-width="1.3" x1="-29.1" y1="176.9" x2="-29.1" y2="162.7"/>
<polyline fill="#FFFFFF" stroke="#000000" stroke-width="1.3" points="-129.5,312.8 -138.3,321.4 -147,312.8 "/>
<line fill="none" stroke="#000000" stroke-width="1.3" x1="-138.3" y1="321.4" x2="-138.3" y2="217.4"/>
<polyline fill="#FFFFFF" stroke="#000000" stroke-width="1.3" points="385.8,523.4 377,532.1 368.2,523.4 "/>
<line fill="none" stroke="#000000" stroke-width="1.3" x1="377" y1="532.1" x2="377" y2="481"/>
<polyline fill="#FFFFFF" stroke="#000000" stroke-width="1.3" points="368.2,348.4 377,339.7 385.8,348.4 "/>
<line fill="none" stroke="#000000" stroke-width="1.3" x1="377" y1="339.7" x2="377" y2="390.8"/>
<polyline fill="#FFFFFF" stroke="#000000" stroke-width="1.3" points="106.1,50.7 114.9,59.5 106.1,68.2 "/>
<line fill="none" stroke="#000000" stroke-width="1.3" x1="116.9" y1="59.5" x2="12.9" y2="59.5"/>
<polyline fill="#FFFFFF" stroke="#000000" stroke-width="1.3" points="311.3,572.7 320,581.4 311.3,590 "/>
<line fill="none" stroke="#000000" stroke-width="1.3" x1="322.1" y1="581.4" x2="251.2" y2="581.4"/>
<polyline fill="#FFFFFF" stroke="#000000" stroke-width="1.3" points="70.8,590 62,581.4 70.8,572.7 "/>
<line fill="none" stroke="#000000" stroke-width="1.3" x1="60" y1="581.4" x2="130.9" y2="581.4"/>
<g enable-background="new    ">
	<path d="M543.1,389c-4.1-0.7-6,2.1-6,7.8v4.9c1.1,0,2.2,0.2,3.2,0.4v1.9h-9.5v-1.9c0.9-0.2,2.1-0.4,3.2-0.4v-12.9
		c-0.9-0.2-2.1-0.4-3.2-0.4v-1.9c1.9-0.2,4.3-0.4,6.2-0.2c0,1.1-0.2,2.8-0.4,4.3l0,0c0.7-2.4,2.6-4.9,6.5-4.5V389z"/>
	<path d="M560.5,394.9h-11.6c-0.2,4.7,1.7,6.7,5.6,6.7c1.7,0,3.5-0.4,5-1.1l0.4,2.6c-1.9,0.7-3.9,1.1-6.2,1.1
		c-5.4,0-8.4-2.8-8.4-9.1c0-5.2,3-9.3,8-9.3s7.1,3.4,7.1,7.3C560.5,393.4,560.5,394.2,560.5,394.9z M553.2,388.2
		c-2.2,0-3.9,1.7-4.3,4.5h8.4C557.3,389.9,555.8,388.2,553.2,388.2z"/>
	<path d="M571.7,404.1c-4.5,0-8-2.1-8-8.6c0-5.8,3-9.7,8.8-9.7c1.5,0,3.2,0.2,4.3,0.6v5.2h-2.1c-0.2-1.1-0.4-2.1-0.4-3
		c-0.6-0.2-1.5-0.4-2.4-0.4c-3.2,0-5,2.6-5,6.5c0,3.5,1.1,6.3,5.4,6.3c1.5,0,3-0.4,4.3-0.9l0.6,2.6
		C575.8,403.7,573.9,404.1,571.7,404.1z"/>
	<path d="M586.6,404.1c-3.7,0-4.9-1.5-4.9-5.4v-10.3H578V386h3.7v-5.8l3.2-0.9v6.7h5v2.4h-5v9.1c0,3,0.6,3.7,2.6,3.7
		c0.7,0,1.7-0.2,2.2-0.4l0.4,2.6C589.2,404.1,587.7,404.1,586.6,404.1z"/>
	<path d="M599.1,411.4c-4.3-6.7-5.2-12.3-5.2-17.7c0-5.2,1.3-11.4,5.2-17.7l2.2,1.1c-3,5-4.5,10.6-4.5,16.4c0,6.2,1.5,11.6,4.5,16.6
		L599.1,411.4z"/>
	<path d="M623.6,403.9l-3.9-6.7l-3.9,6.7h-5.4v-2.1c1.1-0.2,2.1-0.4,3-0.6l4.3-6.5l-4.1-6.3c-0.9,0-2.1-0.4-3-0.6v-2.1h5.4l3.7,6.5
		l3.9-6.5h5.2v2.1c-1.1,0.2-2.1,0.4-3,0.6l-3.9,6.3l4.3,6.5c0.9,0,2.1,0.4,3,0.6v2.1H623.6z"/>
	<path d="M639.6,409.3l-1.3-1.3c2.2-2.4,2.4-4.1,1.5-5.2c-0.9-1.3-0.2-3.2,1.5-3.2C644.1,399.8,645.2,404.3,639.6,409.3z"/>
	<path d="M669.5,388.4l-6.3,17.4c-1.9,5.4-3.7,7.3-7.7,7.3c-0.7,0-1.7,0-2.4-0.2l0.2-3c0.7,0.2,1.5,0.4,2.4,0.4c1.9,0,3-0.9,4.3-4.5
		l0.7-2.1H660l-5.4-15.5c-0.7,0-1.7-0.2-2.2-0.4v-1.9h8.2v1.9c-0.7,0.2-1.5,0.4-2.2,0.4l2.6,7.7c0.6,1.7,0.9,3,1.3,4.5l0,0
		c0.4-1.3,0.9-3.2,1.7-5.2l2.4-6.9c-0.9,0-1.7-0.2-2.2-0.4V386h8v1.9C671,388.2,670.3,388.4,669.5,388.4z"/>
	<path d="M682,409.3l-1.3-1.3c2.2-2.4,2.4-4.1,1.5-5.2c-0.9-1.3-0.2-3.2,1.5-3.2C686.5,399.8,687.6,404.3,682,409.3z"/>
	<path d="M722.3,388.4l-4.9,15.5h-3.7l-3.5-10.5c-0.4-1.1-0.7-2.2-0.9-3.5l0,0c-0.4,1.5-0.7,3-1.3,4.5l-3,9.5h-3.7l-4.7-15.5
		c-0.7,0-1.5-0.2-2.2-0.4v-1.9h8.2v1.9c-0.7,0.2-1.5,0.4-2.4,0.4l2.2,8c0.4,1.5,0.7,3,1.1,4.1l0,0c0.4-1.5,0.7-3,1.3-4.3l3.2-10.1
		h3.4l3.2,10.1c0.6,2.1,0.9,3.2,1.3,4.3l0,0c0.4-1.3,0.6-2.2,1.1-3.9l2.2-8c-0.7,0-1.7-0.2-2.4-0.4v-1.9h8v1.9
		C724,388.2,723.3,388.4,722.3,388.4z"/>
	<path d="M725.9,403.9V402c0.9-0.2,2.1-0.4,3.2-0.4v-12.9c-0.9-0.2-2.1-0.4-3.2-0.4v-1.9c1.9-0.2,4.3-0.4,6.3-0.2v15.5
		c1.1,0,2.1,0.2,3,0.4v1.9h-9.3V403.9z M730.7,382.4c-1.1,0-2.2-0.9-2.2-2.1c0-1.1,0.9-2.1,2.2-2.1c1.1,0,2.1,0.9,2.1,2.1
		S731.9,382.4,730.7,382.4z"/>
	<path d="M749.8,403.9c0-0.9,0-2.6,0.4-3.5l0,0c-0.9,2.4-3.2,3.9-6,3.9c-4.3,0-6.5-3.2-6.5-8.4c0-6.2,3.5-10.1,9.1-10.1
		c0.9,0,1.9,0,3,0.2v-5.8c-0.9-0.2-2.1-0.4-3.2-0.4v-1.9c1.9-0.2,4.3-0.4,6.3-0.2v23.5c0.9,0.2,2.1,0.4,3,0.4v1.9
		C754.3,403.9,751.7,403.9,749.8,403.9z M749.6,388.8c-1.1-0.2-2.2-0.4-3.2-0.4c-3.4,0-5.6,2.1-5.6,7.1c0,3.9,1.3,6,3.9,6
		c3.2,0,4.9-3.7,4.9-6.9L749.6,388.8L749.6,388.8z"/>
	<path d="M764.5,404.1c-3.7,0-4.9-1.5-4.9-5.4v-10.3h-3.7V386h3.7v-5.8l3.2-0.9v6.7h5v2.4h-5v9.1c0,3,0.6,3.7,2.6,3.7
		c0.7,0,1.7-0.2,2.2-0.4l0.4,2.6C767,404.1,765.7,404.1,764.5,404.1z"/>
	<path d="M784.1,403.9v-11.4c0-2.4-0.7-3.9-3-3.9c-3,0-5,3-5,6.9v6.2c0.9,0,2.1,0.2,2.8,0.4v1.9h-9.1v-1.9c0.9-0.2,2.1-0.4,3-0.4
		v-21.3c-0.9-0.2-2.1-0.4-3.2-0.4v-1.9c1.9-0.2,4.3-0.4,6.3-0.2v8.4c0,1.1,0,2.6-0.4,3.5l0,0c1.1-2.4,3.2-3.9,6.2-3.9
		c4.1,0,5.4,2.6,5.4,5.8v10.1c0.9,0,2.1,0.2,3,0.4v1.9h-6V403.9z"/>
	<path d="M801.1,409.3l-1.3-1.3c2.2-2.4,2.4-4.1,1.5-5.2c-0.9-1.3-0.2-3.2,1.5-3.2C805.6,399.8,806.7,404.3,801.1,409.3z"/>
	<path d="M828.2,403.9v-11.4c0-2.4-0.7-3.9-3-3.9c-3,0-5,3-5,6.9v6.2c0.9,0,2.1,0.2,2.8,0.4v1.9h-9.1v-1.9c0.9-0.2,2.1-0.4,3-0.4
		v-21.3c-0.9-0.2-2.1-0.4-3.2-0.4v-1.9c1.9-0.2,4.3-0.4,6.3-0.2v8.4c0,1.1,0,2.6-0.4,3.5l0,0c1.1-2.4,3.2-3.9,6.2-3.9
		c4.1,0,5.4,2.6,5.4,5.8v10.1c0.9,0,2.1,0.2,3,0.4v1.9h-6V403.9z"/>
	<path d="M851.5,394.9h-11.6c-0.2,4.7,1.7,6.7,5.6,6.7c1.7,0,3.5-0.4,5-1.1l0.4,2.6c-1.9,0.7-3.9,1.1-6.2,1.1
		c-5.4,0-8.4-2.8-8.4-9.1c0-5.2,3-9.3,8-9.3s7.1,3.4,7.1,7.3C851.7,393.4,851.7,394.2,851.5,394.9z M844.4,388.2
		c-2.2,0-3.9,1.7-4.3,4.5h8.4C848.5,389.9,846.9,388.2,844.4,388.2z"/>
	<path d="M854.3,403.9V402c0.9-0.2,2.1-0.4,3.2-0.4v-12.9c-0.9-0.2-2.1-0.4-3.2-0.4v-1.9c1.9-0.2,4.3-0.4,6.3-0.2v15.5
		c1.1,0,2.1,0.2,3,0.4v1.9h-9.3V403.9z M859.2,382.4c-1.1,0-2.2-0.9-2.2-2.1c0-1.1,0.9-2.1,2.2-2.1c1.1,0,2.1,0.9,2.1,2.1
		C861.2,381.5,860.3,382.4,859.2,382.4z"/>
	<path d="M873.4,413c-4.7,0-7.5-1.9-7.5-5.4c0-2.1,1.3-3.9,3-4.7c-1.1-0.4-1.7-1.5-1.7-2.6c0-1.3,0.7-2.4,2.1-3
		c-1.7-0.9-2.6-2.6-2.6-4.9c0-3.5,2.6-6.7,7.5-6.7c0.9,0,1.7,0.2,2.4,0.4h6v2.6h-3c0.9,0.7,1.5,1.9,1.5,3.4c0,3.7-2.4,6.5-7.5,6.5
		c-0.7,0-1.3,0-1.9-0.2c-0.7,0.4-1.1,0.9-1.1,1.5c0,0.9,0.9,1.3,3,1.3l3.2,0.2c3.9,0.2,6,1.9,6,5.2C882.7,410.1,879,413,873.4,413z
		 M875.8,403.7l-3.4-0.2c-0.4,0-0.7,0-1.1,0c-1.3,0.9-2.2,2.2-2.2,3.5c0,2.1,2.1,3.4,4.9,3.4c3.5,0,5.6-1.7,5.6-3.9
		C879.5,405,878.2,403.9,875.8,403.7z M873.7,388.2c-2.6,0-4.3,1.7-4.3,3.9c0,2.4,1.5,3.9,4.1,3.9s4.1-1.5,4.1-3.9
		C877.9,389.7,876.4,388.2,873.7,388.2z"/>
	<path d="M898.8,403.9v-11.4c0-2.4-0.7-3.9-3-3.9c-3,0-5,3-5,6.9v6.2c0.9,0,2.1,0.2,2.8,0.4v1.9h-9.1v-1.9c0.9-0.2,2.1-0.4,3-0.4
		v-21.3c-0.9-0.2-2.1-0.4-3.2-0.4v-1.9c1.9-0.2,4.3-0.4,6.3-0.2v8.4c0,1.1,0,2.6-0.4,3.5l0,0c1.1-2.4,3.2-3.9,6.2-3.9
		c4.1,0,5.4,2.6,5.4,5.8v10.1c0.9,0,2.1,0.2,3,0.4v1.9h-6V403.9z"/>
	<path d="M913.7,404.1c-3.7,0-4.9-1.5-4.9-5.4v-10.3h-3.7V386h3.7v-5.8l3.2-0.9v6.7h5v2.4h-5v9.1c0,3,0.6,3.7,2.6,3.7
		c0.7,0,1.7-0.2,2.2-0.4l0.4,2.6C916.3,404.1,914.8,404.1,913.7,404.1z"/>
	<path d="M929.6,411.4l-2.2-1.1c3-5,4.5-10.6,4.5-16.4c0-6.2-1.5-11.6-4.5-16.6l2.4-1.1c4.1,6.7,5.2,12.3,5.2,17.5
		C934.8,398.7,933.7,404.8,929.6,411.4z"/>
	<path d="M949,409.3l-1.3-1.3c2.2-2.4,2.4-4.1,1.5-5.2c-0.9-1.3-0.2-3.2,1.5-3.2C953.3,399.8,954.4,404.3,949,409.3z M950.7,393.6
		c-1.3,0-2.2-0.9-2.2-2.2c0-1.3,0.9-2.2,2.2-2.2c1.3,0,2.2,0.9,2.2,2.2S952,393.6,950.7,393.6z"/>
</g>
<g enable-background="new    ">
	<path d="M66.7,312.4c-6-5.4-8.8-11.2-8.8-18.1c0-7.3,3.5-13.4,9-18.3l1.9,1.9c-4.9,4.7-7.5,10.3-7.5,16.1c0,6,2.4,11.4,7.5,16.4
		L66.7,312.4z"/>
	<path d="M77.2,304.2v-2.8h6.5v-15.1l-6.2,4.1l-1.1-2.8l8-4.9h2.8v18.7h5.6v3H77.1L77.2,304.2L77.2,304.2z"/>
	<path d="M99.9,309.1c3.7-0.9,4.9-2.6,4.9-3.9c0-2.2-1.9-2.2-1.9-4.3c0-1.5,1.1-2.6,2.6-2.6c2.2,0,3.4,2.2,3.4,4.5
		c0,4.5-3,7.1-8.2,8.4L99.9,309.1z"/>
	<path d="M119.5,304.2v-2.6l5-4.7c4.5-3.9,5.6-5.4,5.6-7.8s-1.3-3.9-4.5-3.9c-2.1,0-4.1,0.9-5.2,1.9l-0.7-2.8
		c1.9-1.1,3.9-1.9,6.5-1.9c4.9,0,7.3,2.8,7.3,6.3c0,3-1.5,5.4-5.6,8.8l-4.3,3.7h-0.2c1.7-0.2,5.6-0.2,11-0.2v3.2H119.5z"/>
	<path d="M145.1,276c6,5.6,8.8,11.2,8.8,18.1c0,7.3-3.5,13.4-9,18.3l-1.9-1.9c4.9-4.7,7.5-10.3,7.5-16.1c0-6-2.4-11.6-7.5-16.4
		L145.1,276z"/>
</g>
<line fill="none" stroke="#000000" stroke-width="2" x1="42.1" y1="326.4" x2="340.4" y2="326.4"/>
<line fill="none" stroke="#000000" stroke-width="2" x1="42.1" y1="545.6" x2="340.4" y2="545.6"/>
<line fill="none" stroke="#000000" stroke-width="2" x1="338.5" y1="547.3" x2="338.5" y2="325.3"/>
<line fill="none" stroke="#000000" stroke-width="2" x1="43.8" y1="547.3" x2="43.8" y2="325.3"/>
<g enable-background="new    ">
	<path fill="#808080" d="M-16.5,721.6v-1.9c0.9-0.2,2.1-0.4,3.2-0.4v-19.4c-1.1,0-2.2-0.2-3.2-0.4v-1.9h15.7v5.6H-3
		c-0.2-1.1-0.4-2.2-0.4-3h-6.5v8h5.2c0.2-0.9,0.4-1.7,0.6-2.4H-2v7.3h-2.1c-0.2-0.7-0.4-1.7-0.6-2.4h-5.2v8.6h6.5
		c0.2-0.9,0.4-2.1,0.6-3.2h2.2v5.8h-15.9V721.6z"/>
	<path fill="#808080" d="M15,721.6l-3.9-6.7l-3.9,6.7H1.7v-2c1.1-0.2,2.1-0.4,3-0.6l4.3-6.5l-4.1-6.3c-0.9,0-2.1-0.4-3-0.6v-2.1h5.4
		l3.7,6.5l3.9-6.5h5.2v2.1c-1.1,0.2-2.1,0.4-3,0.6l-3.9,6.3l4.3,6.5c0.9,0,2.1,0.4,3,0.6v2.1L15,721.6L15,721.6z"/>
	<path fill="#808080" d="M33.5,721.6c0-1.3,0-2.6,0.2-3.5l0,0c-0.9,2.2-3.2,3.9-6,3.9c-3,0-4.9-1.9-4.9-4.7c0-3.9,3.9-6.2,10.6-6.2
		v-1.3c0-2.4-0.9-3.9-3.7-3.9c-1.1,0-2.2,0.2-3.4,0.6c0,0.9-0.2,1.9-0.4,3h-2.1v-4.9c1.9-0.6,3.9-0.9,6-0.9c5.2,0,6.7,2.4,6.7,6v9.7
		c0.9,0.2,2.1,0.4,3,0.4v1.9C37.8,721.6,35.3,721.8,33.5,721.6z M33.3,713.4c-5.6,0-7.5,1.3-7.5,3.4c0,1.5,1.1,2.6,2.8,2.6
		c2.8,0,4.9-2.8,4.9-5.6v-0.4H33.3z"/>
	<path fill="#808080" d="M66.5,721.6v-11.4c0-2.4-0.6-4.1-2.8-4.1c-2.6,0-5,2.6-5,7.1v6c0.9,0,2.1,0.2,3,0.4v1.9h-6.2v-11.2
		c0-2.2-0.4-4.1-3-4.1s-5,3-5,7.1v6c0.9,0,2.1,0.2,2.8,0.4v1.9h-9.1v-2c0.9-0.2,2.1-0.4,3.2-0.4v-12.9c-0.9-0.2-2.1-0.4-3.2-0.4V704
		c1.9-0.2,4.3-0.4,6.3-0.2c0,1.1-0.2,2.6-0.4,3.7l0,0c0.9-2.4,3.4-4.1,6.2-4.1c3.7,0,4.9,2.6,4.9,4.1c0.7-1.7,2.6-4.1,6.2-4.1
		c3.4,0,5.2,1.9,5.2,5.8v9.9c1.1,0,2.1,0.2,3,0.4v1.9h-6L66.5,721.6L66.5,721.6z"/>
	<path fill="#808080" d="M83,721.8c-1.1,0-2.1,0-3-0.2v6.5c1.1,0,2.2,0.2,3.2,0.4v1.9h-9.3v-1.9c0.9-0.2,1.9-0.4,3-0.4v-21.7
		c-0.9-0.2-2.1-0.4-3-0.4v-1.9c1.7-0.2,4.1-0.4,6.2-0.2c0,0.9-0.2,2.6-0.4,3.5l0,0c0.9-2.4,3.2-3.9,6-3.9c4.1,0,6.5,3,6.5,8.4
		C92.1,718.3,88.7,721.8,83,721.8z M84.8,706.1c-3.2,0-4.9,3.7-4.9,6.9v5.8c0.9,0.4,2.1,0.4,3.2,0.4c3.4,0,5.6-2.1,5.6-7.1
		C88.7,708.4,87.4,706.1,84.8,706.1z"/>
	<path fill="#808080" d="M94.3,721.6v-1.9c0.9-0.2,2.1-0.4,3-0.4V698c-0.9-0.2-2.1-0.4-3.2-0.4v-1.9c1.9-0.2,4.3-0.4,6.3-0.2v23.7
		c1.1,0,2.1,0.2,3,0.4v1.9h-9.1V721.6z"/>
	<path fill="#808080" d="M120.5,712.7h-11.8c-0.2,4.7,1.7,6.7,5.6,6.7c1.7,0,3.5-0.4,5-1.1l0.4,2.6c-1.9,0.7-3.9,1.1-6.2,1.1
		c-5.4,0-8.4-2.8-8.4-9.1c0-5.2,3-9.3,8-9.3s7.1,3.4,7.1,7.3C120.5,711.2,120.5,711.9,120.5,712.7z M113.2,705.9
		c-2.2,0-3.9,1.7-4.3,4.5h8.4C117.3,707.6,115.8,705.9,113.2,705.9z"/>
	<path fill="#808080" d="M127.9,711.5c-1.3,0-2.2-0.9-2.2-2.2s0.9-2.2,2.2-2.2s2.2,0.9,2.2,2.2C130.2,710.4,129.1,711.5,127.9,711.5
		z M127.9,722c-1.3,0-2.2-0.9-2.2-2.2s0.9-2.2,2.2-2.2s2.2,0.9,2.2,2.2C130.2,720.9,129.1,722,127.9,722z"/>
</g>
<g enable-background="new    ">
	<path d="M162.1,706.7c-4.1-0.7-6,2.1-6,7.8v4.9c1.1,0,2.2,0.2,3.2,0.4v1.9h-9.5v-1.9c0.9-0.2,2.1-0.4,3.2-0.4v-12.9
		c-0.9-0.2-2.1-0.4-3.2-0.4v-1.9c1.9-0.2,4.3-0.4,6.2-0.2c0,1.1-0.2,2.8-0.4,4.3l0,0c0.7-2.4,2.6-4.9,6.5-4.5L162.1,706.7
		L162.1,706.7z"/>
	<path d="M179.3,712.7h-11.6c-0.2,4.7,1.7,6.7,5.6,6.7c1.7,0,3.5-0.4,5-1.1l0.4,2.6c-1.9,0.7-3.9,1.1-6.2,1.1
		c-5.4,0-8.4-2.8-8.4-9.1c0-5.2,3-9.3,8-9.3s7.1,3.4,7.1,7.3C179.3,711.2,179.3,711.9,179.3,712.7z M172.2,705.9
		c-2.2,0-3.9,1.7-4.3,4.5h8.4C176.1,707.6,174.6,705.9,172.2,705.9z"/>
	<path d="M190.5,722c-4.5,0-8-2.1-8-8.6c0-5.8,3-9.7,8.8-9.7c1.5,0,3.2,0.2,4.3,0.6v5.2h-2.1c-0.2-1.1-0.4-2.1-0.4-3
		c-0.6-0.2-1.5-0.4-2.4-0.4c-3.2,0-5,2.6-5,6.5c0,3.5,1.1,6.3,5.4,6.3c1.5,0,3-0.4,4.3-0.9l0.6,2.6C194.6,721.4,192.7,722,190.5,722
		z"/>
	<path d="M205.6,722c-3.7,0-4.9-1.5-4.9-5.4v-10.3H197v-2.4h3.7v-5.8l3.2-0.9v6.7h5v2.4h-5v9.1c0,3,0.6,3.7,2.6,3.7
		c0.7,0,1.7-0.2,2.2-0.4l0.4,2.6C208,721.8,206.7,722,205.6,722z"/>
	<path d="M232.7,729.7c-6-5.4-8.8-11.2-8.8-18.1c0-7.3,3.5-13.4,9-18.3l1.9,1.9c-4.9,4.7-7.5,10.3-7.5,16.1c0,6,2.4,11.4,7.5,16.4
		L232.7,729.7z"/>
	<path d="M243.3,721.6v-3h6.5v-15.1l-6.1,4.1l-1.1-2.8l7.8-4.9h2.8v18.7h5.6v3H243.3L243.3,721.6z"/>
	<path d="M266.1,726.3c3.7-0.9,4.9-2.6,4.9-3.9c0-2.2-1.9-2.2-1.9-4.3c0-1.5,1.1-2.6,2.6-2.6c2.2,0,3.4,2.2,3.4,4.5
		c0,4.5-3,7.1-8.2,8.4L266.1,726.3z"/>
	<path d="M285.5,721.6V719l5-4.7c4.5-3.9,5.6-5.4,5.6-7.8c0-2.4-1.3-3.9-4.5-3.9c-2.1,0-4.1,0.9-5.2,1.9l-0.7-2.8
		c1.9-1.1,3.9-1.9,6.5-1.9c4.9,0,7.3,2.8,7.3,6.3c0,3-1.5,5.4-5.6,8.8l-4.3,3.7h-0.2c1.7-0.2,5.6-0.2,11-0.2v3.2H285.5L285.5,721.6z
		"/>
	<path d="M309,726.3c3.7-0.9,4.9-2.6,4.9-3.9c0-2.2-1.9-2.2-1.9-4.3c0-1.5,1.1-2.6,2.6-2.6c2.2,0,3.4,2.2,3.4,4.5
		c0,4.5-3,7.1-8.2,8.4L309,726.3z"/>
	<path d="M341.3,718.6v6h-3.2v-6h-11l-0.2-2.6l9.9-15.9h4.5v15.5h4.1v3H341.3L341.3,718.6z M338.2,703.1L338.2,703.1l-8,12.7
		c2.1,0,6.7,0,8,0V703.1z"/>
	<path d="M352,726.3c3.7-0.9,4.9-2.6,4.9-3.9c0-2.2-1.9-2.2-1.9-4.3c0-1.5,1.1-2.6,2.6-2.6c2.2,0,3.4,2.2,3.4,4.5
		c0,4.5-3,7.1-8.2,8.4L352,726.3z"/>
	<path d="M376.4,725c-1.5,0-3.2-0.2-4.5-0.6l0.6-3c1.3,0.4,2.8,0.7,4.3,0.7c3.7,0,6.3-2.2,6.3-4.9c0-2.6-2.1-4.5-6-4.5
		c-1.3,0-2.2,0-3.2,0.2v-2.6h0.7c5,0,7.7-1.5,7.7-4.5c0-2.2-1.7-3.5-4.3-3.5c-2.1,0-3.5,0.6-5,1.3l-0.6-2.8c1.9-0.7,3.9-1.3,6.2-1.3
		c4.9,0,7.3,2.4,7.3,5.8c0,2.8-1.7,4.9-4.3,5.6l0,0c3,0.4,5.2,2.8,5.2,5.8C386.7,721.6,382.4,725,376.4,725z"/>
	<path d="M397.1,693.4c6,5.6,8.8,11.2,8.8,18.1c0,7.3-3.5,13.4-9,18.3l-1.9-1.9c4.9-4.7,7.5-10.3,7.5-16.1c0-6-2.4-11.6-7.5-16.4
		L397.1,693.4z"/>
	<path d="M423.5,727.2l-1.3-1.3c2.2-2.4,2.4-4.1,1.5-5.2c-0.9-1.3-0.2-3.2,1.5-3.2C427.8,717.5,428.9,722.2,423.5,727.2z
		 M425.1,711.5c-1.3,0-2.2-0.9-2.2-2.2s0.9-2.2,2.2-2.2s2.2,0.9,2.2,2.2C427.4,710.4,426.3,711.5,425.1,711.5z"/>
</g>
<g enable-background="new    ">
	<path d="M164.9,573.8l-4.9,15.5h-3.7l-3.5-10.5c-0.4-1.1-0.7-2.2-0.9-3.5l0,0c-0.4,1.5-0.7,3-1.3,4.5l-3,9.5h-3.7l-4.7-15.5
		c-0.7,0-1.5-0.2-2.2-0.4v-1.9h8.2v1.9c-0.7,0.2-1.5,0.4-2.4,0.4l2.2,8c0.4,1.5,0.7,3,1.1,4.1l0,0c0.4-1.5,0.7-3,1.3-4.3l3.2-10.1
		h3.4l3.2,10.1c0.6,2.1,0.9,3.2,1.3,4.3l0,0c0.4-1.3,0.6-2.2,1.1-3.9l2.2-8c-0.7,0-1.7-0.2-2.4-0.4v-1.9h8v1.9
		C166.4,573.6,165.7,573.8,164.9,573.8z"/>
	<path d="M168.5,589.3v-1.9c0.9-0.2,2.1-0.4,3.2-0.4v-13.1c-0.9-0.2-2.1-0.4-3.2-0.4v-1.9c1.9-0.2,4.3-0.4,6.3-0.2v15.5
		c1.1,0,2.1,0.2,3,0.4v1.9h-9.3V589.3z M173.1,568c-1.1,0-2.2-0.9-2.2-2.1s0.9-2.1,2.2-2.1c1.1,0,2.1,0.9,2.1,2.1
		C175.4,567.1,174.2,568,173.1,568z"/>
	<path d="M192.2,589.3c0-0.9,0-2.6,0.4-3.5l0,0c-0.9,2.4-3.2,3.9-6,3.9c-4.3,0-6.5-3.2-6.5-8.4c0-6.2,3.5-10.1,9.1-10.1
		c0.9,0,1.9,0,3,0.2v-5.8c-0.9-0.2-2.1-0.4-3.2-0.4v-1.9c1.9-0.2,4.3-0.4,6.3-0.2v23.5c0.9,0.2,2.1,0.4,3,0.4v1.9
		C196.6,589.3,194.2,589.5,192.2,589.3z M192.2,574.1c-1.1-0.2-2.2-0.4-3.2-0.4c-3.4,0-5.6,2.1-5.6,7.1c0,3.9,1.3,6,3.9,6
		c3.2,0,4.9-3.7,4.9-6.9L192.2,574.1L192.2,574.1z"/>
	<path d="M206.9,589.6c-3.7,0-4.9-1.5-4.9-5.4v-10.3h-3.7v-2.4h3.7v-5.8l3.2-0.9v6.7h5v2.4h-5v9.1c0,3,0.6,3.7,2.6,3.7
		c0.7,0,1.7-0.2,2.2-0.4l0.4,2.6C209.3,589.5,208,589.6,206.9,589.6z"/>
	<path d="M226.7,589.3v-11.4c0-2.4-0.7-4.1-3-4.1c-3,0-5,3-5,6.9v6.2c0.9,0,2.1,0.2,2.8,0.4v1.9h-9.1v-1.9c0.9-0.2,2.1-0.4,3-0.4
		v-21.3c-0.9-0.2-2.1-0.4-3.2-0.4v-1.9c1.9-0.2,4.3-0.4,6.3-0.2v8.4c0,1.1,0,2.6-0.4,3.5l0,0c1.1-2.4,3.2-3.9,6.2-3.9
		c4.1,0,5.4,2.6,5.4,5.8V587c0.9,0,2.1,0.2,3,0.4v1.9L226.7,589.3L226.7,589.3z"/>
</g>
<g enable-background="new    ">
	<path d="M369.7,447.9v-11.3c0-2.4-0.7-4.1-3-4.1c-3,0-5,3-5,6.9v6.2c0.9,0,2.1,0.2,2.8,0.4v1.9h-9.1V446c0.9-0.2,2.1-0.4,3-0.4
		v-21.3c-0.9-0.2-2.1-0.4-3.2-0.4V422c1.9-0.2,4.3-0.4,6.3-0.2v8.4c0,1.1,0,2.6-0.4,3.5l0,0c1.1-2.4,3.2-3.9,6.2-3.9
		c4.1,0,5.4,2.6,5.4,5.8v10.1c0.9,0,2.1,0.2,3,0.4v1.9L369.7,447.9L369.7,447.9z"/>
	<path d="M393,439h-11.8c-0.2,4.7,1.7,6.7,5.6,6.7c1.7,0,3.5-0.4,5-1.1l0.4,2.6c-1.9,0.7-3.9,1.1-6.2,1.1c-5.4,0-8.4-2.8-8.4-9.1
		c0-5.2,3-9.3,8-9.3s7.1,3.4,7.1,7.3C393,437.5,393,438.2,393,439z M385.8,432.3c-2.2,0-3.9,1.7-4.3,4.5h8.4
		C389.9,433.9,388.4,432.3,385.8,432.3z"/>
	<path d="M395.8,447.9V446c0.9-0.2,2.1-0.4,3.2-0.4v-12.9c-0.9-0.2-2.1-0.4-3.2-0.4v-1.7c1.9-0.2,4.3-0.4,6.3-0.2v15.5
		c1.1,0,2.1,0.2,3,0.4v1.9h-9.3L395.8,447.9L395.8,447.9z M400.5,426.5c-1.1,0-2.2-0.9-2.2-2.1s0.9-2.1,2.2-2.1
		c1.1,0,2.1,0.9,2.1,2.1C402.6,425.5,401.6,426.5,400.5,426.5z"/>
	<path d="M414.7,457.1c-4.7,0-7.5-1.9-7.5-5.4c0-2.1,1.3-3.9,3-4.7c-1.1-0.4-1.7-1.5-1.7-2.6c0-1.3,0.7-2.4,2.1-3
		c-1.7-0.9-2.6-2.6-2.6-4.9c0-3.5,2.6-6.7,7.5-6.7c0.9,0,1.7,0.2,2.4,0.4h6v2.6h-3c0.9,0.7,1.5,1.9,1.5,3.4c0,3.7-2.4,6.5-7.5,6.5
		c-0.7,0-1.3,0-1.9-0.2c-0.7,0.4-1.1,0.9-1.1,1.5c0,0.9,0.9,1.3,3,1.3l3.2,0.2c3.9,0.2,6,1.9,6,5.2
		C424,454.1,420.3,457.1,414.7,457.1z M417.1,447.8l-3.4-0.2c-0.4,0-0.7,0-1.1,0c-1.3,0.9-2.2,2.2-2.2,3.5c0,2.1,2.1,3.4,4.9,3.4
		c3.5,0,5.6-1.7,5.6-3.9C420.9,449.1,419.7,447.9,417.1,447.8z M415.3,432.3c-2.6,0-4.3,1.7-4.3,3.9c0,2.4,1.5,3.9,4.1,3.9
		s4.1-1.5,4.1-3.9C419.2,433.8,417.7,432.3,415.3,432.3z"/>
	<path d="M440.1,447.9v-11.3c0-2.4-0.7-4.1-3-4.1c-3,0-5,3-5,6.9v6.2c0.9,0,2.1,0.2,2.8,0.4v1.9h-9.2V446c0.9-0.2,2.1-0.4,3-0.4
		v-21.3c-0.9-0.2-2.1-0.4-3.2-0.4V422c1.9-0.2,4.3-0.4,6.3-0.2v8.4c0,1.1,0,2.6-0.4,3.5l0,0c1.1-2.4,3.2-3.9,6.2-3.9
		c4.1,0,5.4,2.6,5.4,5.8v10.1c0.9,0,2.1,0.2,3,0.4v1.9L440.1,447.9L440.1,447.9z"/>
	<path d="M455.2,448.1c-3.7,0-4.9-1.5-4.9-5.4v-10.3h-3.7V430h3.7v-5.8l3.2-0.9v6.7h5v2.4h-5v9.1c0,3,0.6,3.7,2.6,3.7
		c0.7,0,1.7-0.2,2.2-0.4l0.4,2.6C457.6,448.1,456.3,448.1,455.2,448.1z"/>
</g>
</svg>
