<?xml version="1.0" encoding="utf-8"?>
<!-- Generator: Adobe Illustrator 16.0.4, SVG Export Plug-In . SVG Version: 6.00 Build 0)  -->
<!DOCTYPE svg PUBLIC "-//W3C//DTD SVG 1.1//EN" "http://www.w3.org/Graphics/SVG/1.1/DTD/svg11.dtd">
<svg version="1.1" id="Layer_1" xmlns="http://www.w3.org/2000/svg" xmlns:xlink="http://www.w3.org/1999/xlink" x="0px" y="0px"
	 width="1046px" height="600px" viewBox="-259.5 0 1046 600" enable-background="new -259.5 0 1046 600" xml:space="preserve">
<rect x="387.954" y="117.272" opacity="0.5" fill="#FFFF00" enable-background="new    " width="388.562" height="390.228"/>
<rect x="-54.773" y="118.712" opacity="0.5" fill="#FFFF00" enable-background="new    " width="195.228" height="195.228"/>
<g>
	<rect x="-248.106" y="118.864" fill="none" stroke="#999999" stroke-width="1.3" width="388.561" height="388.56"/>
	<line fill="none" stroke="#999999" stroke-width="1.3" x1="-248.106" y1="442.728" x2="140.53" y2="442.728"/>
	<line fill="none" stroke="#999999" stroke-width="1.3" x1="-248.106" y1="377.727" x2="140.53" y2="377.727"/>
	<line fill="none" stroke="#999999" stroke-width="1.3" x1="-248.106" y1="313.182" x2="140.53" y2="313.182"/>
	<line fill="none" stroke="#999999" stroke-width="1.3" x1="-248.106" y1="248.409" x2="140.53" y2="248.409"/>
	<line fill="none" stroke="#999999" stroke-width="1.3" x1="-248.106" y1="183.636" x2="140.53" y2="183.636"/>
	<line fill="none" stroke="#999999" stroke-width="1.3" x1="75.53" y1="118.864" x2="75.53" y2="507.576"/>
	<line fill="none" stroke="#999999" stroke-width="1.3" x1="11.136" y1="118.864" x2="11.136" y2="507.576"/>
	<line fill="none" stroke="#999999" stroke-width="1.3" x1="-53.788" y1="118.864" x2="-53.788" y2="507.576"/>
	<line fill="none" stroke="#999999" stroke-width="1.3" x1="-118.485" y1="118.864" x2="-118.485" y2="507.576"/>
	<line fill="none" stroke="#999999" stroke-width="1.3" x1="-183.182" y1="118.864" x2="-183.182" y2="507.576"/>
</g>
<g enable-background="new    ">
	<path d="M175.184,320.606l-3.485-5.833l-3.485,5.833h-4.773v-1.667c0.909-0.227,1.818-0.379,2.728-0.379l3.788-5.605l-3.712-5.605
		c-0.909,0-1.818-0.229-2.576-0.379v-1.667h4.772l3.258,5.606l3.485-5.606h4.545v1.667c-0.909,0.227-1.818,0.379-2.728,0.379
		l-3.485,5.529l3.788,5.834c0.909,0,1.667,0.227,2.576,0.379v1.666h-4.772L175.184,320.606L175.184,320.606z"/>
</g>
<g enable-background="new    ">
	<path d="M-48.75,81.364l-5.531,15.227c-1.667,4.773-3.257,6.363-6.667,6.363c-0.606,0-1.439,0-2.121-0.227l0.227-2.576
		c0.682,0.228,1.364,0.379,2.045,0.379c1.667,0,2.728-0.909,3.788-3.788l0.682-1.817h-0.682l-4.773-13.561
		c-0.682,0-1.439-0.229-2.045-0.379v-1.667h7.197v1.667c-0.606,0.227-1.364,0.379-2.045,0.379l2.348,6.666
		c0.606,1.439,0.909,2.576,1.364,3.788l0,0c0.228-1.137,0.909-2.879,1.439-4.546l2.045-5.984c-0.682,0-1.439-0.228-2.045-0.379
		v-1.667h7.045v1.667C-47.159,81.212-47.917,81.364-48.75,81.364z"/>
</g>
<polyline fill="none" stroke="#000000" stroke-width="1.3" points="-61.591,127.121 -53.863,119.47 -46.061,127.121 "/>
<polyline fill="none" stroke="#000000" stroke-width="1.3" points="130.455,305.455 138.106,313.182 130.455,320.909 "/>
<line fill="none" stroke="#000000" stroke-width="1.3" x1="138.106" y1="313.182" x2="-248.106" y2="313.182"/>
<line fill="none" stroke="#000000" stroke-width="1.3" x1="-53.788" y1="120.151" x2="-53.788" y2="506.212"/>
<polyline fill="none" stroke="#000000" stroke-width="1.3" points="-46.212,500.984 -53.939,508.409 -61.742,500.984 "/>
<polyline fill="none" stroke="#000000" stroke-width="1.3" points="-240.455,320.909 -248.106,313.182 -240.455,305.455 "/>
<g enable-background="new    ">
	<path d="M-130.227,583.409v-1.667c0.682-0.227,1.818-0.379,2.727-0.379v-17.045c-0.909,0-1.818-0.228-2.727-0.379v-1.667h13.636
		v4.925h-2.045c-0.228-0.909-0.379-1.818-0.379-2.576h-5.606v6.97h4.545c0.227-0.682,0.227-1.439,0.379-2.121h1.818v6.363h-1.818
		c-0.228-0.682-0.379-1.439-0.379-2.121h-4.545v7.576h5.606c0.227-0.682,0.227-1.818,0.379-2.728h2.045v4.924h-13.636V583.409z"/>
	<path d="M-113.561,583.409v-1.667c0.682-0.227,1.818-0.379,2.727-0.379V570c-0.682-0.228-1.818-0.228-2.727-0.379v-1.515
		c1.667-0.228,3.712-0.379,5.53-0.228v13.561c0.909,0,1.818,0.228,2.576,0.379v1.666h-8.106V583.409z M-109.394,564.697
		c-1.136,0-1.818-0.682-1.818-1.818s0.909-1.818,1.818-1.818s1.818,0.682,1.818,1.818S-108.409,564.697-109.394,564.697z"/>
	<path d="M-96.894,591.363c-4.091,0-6.591-1.666-6.591-4.772c0-1.818,1.364-3.258,2.576-4.167c-0.909-0.379-1.439-1.363-1.439-2.348
		c0-1.137,0.682-2.122,1.667-2.576c-1.439-0.909-2.349-2.121-2.349-4.167c0-3.105,2.349-5.833,6.591-5.833
		c0.909,0,1.439,0.228,2.121,0.379h5.228V570h-2.576c0.682,0.606,1.363,1.667,1.363,2.879c0,3.105-2.121,5.605-6.591,5.605
		c-0.606,0-1.136,0-1.667-0.227c-0.682,0.379-0.909,0.682-0.909,1.363c0,0.909,0.682,1.137,2.728,1.363l2.878,0.228
		c3.258,0.228,5.228,1.667,5.228,4.546C-88.712,588.939-91.97,591.363-96.894,591.363z M-94.773,583.409l-2.878-0.228
		c-0.379,0-0.682,0-0.909,0c-1.364,0.909-2.045,1.818-2.045,3.106c0,1.818,1.818,2.879,4.167,2.879c3.106,0,4.924-1.439,4.924-3.258
		C-91.667,584.242-92.5,583.409-94.773,583.409z M-96.591,569.621c-2.349,0-3.712,1.439-3.712,3.485
		c0,2.121,1.364,3.484,3.712,3.484c2.121,0,3.712-1.363,3.712-3.484C-93.106,570.909-94.167,569.621-96.591,569.621z"/>
	<path d="M-74.621,583.409v-10.076c0-2.121-0.606-3.484-2.728-3.484c-2.576,0-4.394,2.575-4.394,5.984v5.228
		c0.909,0,1.818,0.228,2.576,0.379v1.667h-7.879v-1.667c0.682-0.228,1.667-0.379,2.576-0.379v-18.712
		c-0.682-0.228-1.818-0.228-2.727-0.379v-1.667c1.667-0.227,3.712-0.379,5.53-0.227v7.272c0,0.909,0,2.121-0.379,3.105l0,0
		c0.909-2.121,2.727-3.484,5.53-3.484c3.485,0,4.773,2.121,4.773,4.924v8.713c0.909,0,1.818,0.227,2.576,0.378v1.667h-5.152
		C-74.621,582.803-74.621,583.409-74.621,583.409z"/>
	<path d="M-61.742,583.712c-3.106,0-4.167-1.363-4.167-4.772v-9.016h-3.106v-2.121h3.106v-5.151l2.728-0.682v5.833h4.394v2.121
		h-4.394v8.03c0,2.576,0.606,3.258,2.121,3.258c0.682,0,1.439-0.228,2.045-0.228l0.379,2.349
		C-59.318,583.484-60.53,583.712-61.742,583.712z"/>
	<path d="M-44.394,583.409v-10.076c0-2.121-0.606-3.484-2.727-3.484c-2.576,0-4.394,2.575-4.394,5.984v5.228
		c0.909,0,1.818,0.228,2.576,0.379v1.667h-8.03v-1.667c0.682-0.228,1.667-0.379,2.576-0.379v-18.712
		c-0.682-0.228-1.818-0.228-2.727-0.379v-1.667c1.667-0.227,3.712-0.379,5.53-0.227v7.272c0,0.909,0,2.121-0.379,3.105l0,0
		c0.909-2.121,2.727-3.484,5.53-3.484c3.485,0,4.773,2.121,4.773,4.924v8.713c0.909,0,1.818,0.227,2.576,0.378v1.667h-5.152v0.758
		H-44.394L-44.394,583.409z"/>
	<path d="M-12.727,574.772v7.651c-2.046,0.683-4.773,1.364-6.97,1.364c-6.364,0-10.455-3.788-10.455-10.455
		c0-6.666,4.091-11.363,11.363-11.363c2.046,0,3.788,0.379,5.833,0.682v4.925H-15c-0.227-1.137-0.379-2.046-0.379-2.728
		c-1.136-0.379-2.348-0.606-3.712-0.606c-4.545,0-8.03,2.728-8.03,8.409c0,5.228,3.106,8.258,7.879,8.258
		c1.439,0,2.576-0.228,3.712-0.606v-5.833c-0.909,0-1.818-0.228-2.728-0.379v-1.667h7.652v1.667
		C-11.136,574.394-11.894,574.621-12.727,574.772z"/>
	<path d="M1.894,570.379c-3.712-0.606-5.152,1.818-5.152,6.667v4.166c0.909,0,1.818,0.228,2.728,0.379v1.667h-8.409v-1.667
		c0.682-0.228,1.818-0.379,2.728-0.379v-11.363c-0.682-0.228-1.818-0.228-2.728-0.379v-1.439c1.667-0.228,3.712-0.379,5.53-0.228
		c0,0.909-0.227,2.349-0.379,3.713l0,0c0.682-2.122,2.122-4.395,5.606-4.092C1.894,567.5,1.894,570.379,1.894,570.379z"/>
	<path d="M12.955,583.409c0-1.137,0-2.121,0.227-3.106l0,0c-0.682,1.818-2.727,3.485-5.227,3.485s-4.394-1.667-4.394-4.091
		c0-3.258,3.485-5.228,9.318-5.228v-1.137c0-2.121-0.682-3.484-3.258-3.484c-0.909,0-2.045,0.228-2.879,0.379
		c0,0.682-0.227,1.666-0.378,2.575H4.545v-4.394c1.667-0.606,3.485-0.909,5.228-0.909c4.545,0,5.833,2.045,5.833,5.151v8.258
		c0.682,0.228,1.818,0.228,2.576,0.379v1.666C16.97,583.409,14.697,583.484,12.955,583.409z M12.955,576.212
		c-4.924,0-6.591,1.364-6.591,2.879c0,1.363,0.909,2.349,2.348,2.349c2.576,0,4.167-2.576,4.167-4.925
		C12.955,576.516,12.955,576.212,12.955,576.212z"/>
	<path d="M30.985,583.409c0-0.909,0-2.121,0.227-3.106l0,0c-0.909,2.046-2.727,3.485-5.227,3.485c-3.788,0-5.606-2.728-5.606-7.272
		c0-5.531,3.106-8.713,8.03-8.713c0.909,0,1.667,0,2.576,0.228v-4.924c-0.682-0.228-1.818-0.228-2.727-0.379v-1.818
		c1.667-0.228,3.712-0.379,5.53-0.228v20.53c0.682,0.228,1.818,0.228,2.576,0.379v1.667
		C34.849,583.409,32.651,583.484,30.985,583.409z M30.909,570.151c-0.909-0.228-1.818-0.379-2.728-0.379
		c-2.878,0-4.924,1.818-4.924,6.212c0,3.258,1.136,5.228,3.484,5.228c2.728,0,4.167-3.258,4.167-5.984
		C30.909,575.379,30.909,570.151,30.909,570.151z"/>
	<path d="M51.136,575.454H40.985c-0.227,4.092,1.439,5.834,4.924,5.834c1.439,0,3.106-0.379,4.394-0.909l0.378,2.121
		c-1.667,0.606-3.485,0.909-5.53,0.909c-4.772,0-7.272-2.576-7.272-8.03c0-4.546,2.576-8.258,6.97-8.258
		c4.394,0,6.212,2.879,6.212,6.363C51.136,574.242,51.136,575,51.136,575.454z M44.924,569.621c-2.045,0-3.485,1.439-3.788,3.788
		h7.273C48.409,571.137,47.045,569.621,44.924,569.621z"/>
</g>
<g enable-background="new    ">
	<path d="M500.076,584.47c-6.364,0-9.697-4.091-9.697-10.454c0-6.364,3.484-11.364,10.151-11.364c1.667,0,3.485,0.228,5.151,0.606
		v5.151h-2.045c-0.228-1.137-0.379-2.046-0.379-2.879c-1.137-0.379-2.046-0.379-3.106-0.379c-4.545,0-6.667,3.712-6.667,8.409
		c0,5.151,2.349,8.258,7.197,8.258c1.667,0,3.712-0.379,4.925-1.137l0.605,2.349C504.318,583.863,502.272,584.47,500.076,584.47z"/>
	<path d="M514.772,584.47c-4.166,0-6.97-2.349-6.97-7.879c0-4.772,2.879-8.258,7.651-8.258c4.091,0,6.97,2.121,6.97,7.879
		C522.349,580.758,519.621,584.47,514.772,584.47z M515.151,570.53c-2.349,0-4.394,1.667-4.394,5.606
		c0,3.712,1.439,5.605,4.394,5.605c2.349,0,4.394-1.818,4.394-5.605C519.394,572.728,517.954,570.53,515.151,570.53z"/>
	<path d="M546.667,584.091v-10.075c0-2.122-0.606-3.485-2.576-3.485c-2.121,0-4.394,2.349-4.394,6.212v5.228
		c0.909,0,1.818,0.228,2.575,0.379v1.667h-5.228v-10.076c0-2.046-0.378-3.484-2.575-3.484c-2.349,0-4.394,2.575-4.394,6.212v5.228
		c0.908,0,1.817,0.227,2.575,0.378v1.667h-8.03v-1.667c0.682-0.227,1.818-0.378,2.728-0.378V570.53
		c-0.682-0.228-1.818-0.228-2.728-0.379v-1.666c1.667-0.228,3.788-0.379,5.53-0.228c0,0.909-0.228,2.349-0.228,3.258l0,0
		c0.909-2.121,2.879-3.713,5.228-3.713c3.258,0,4.167,2.121,4.395,3.485c0.605-1.439,2.348-3.485,5.227-3.485
		s4.546,1.667,4.546,5.152v8.636c0.909,0,1.818,0.228,2.575,0.379v1.667L546.667,584.091L546.667,584.091z"/>
	<path d="M561.061,584.242c-0.909,0-1.667,0-2.728-0.227v5.605c0.909,0,1.818,0.228,2.728,0.379v1.667h-8.258V590
		c0.682-0.228,1.667-0.379,2.576-0.379V570.53c-0.682-0.228-1.667-0.228-2.576-0.379v-1.667c1.439-0.227,3.713-0.378,5.228-0.227
		c0,0.909-0.228,2.349-0.228,3.105l0,0c0.909-2.121,2.728-3.484,5.151-3.484c3.713,0,5.606,2.576,5.606,7.272
		C569.091,581.137,566.212,584.242,561.061,584.242z M562.728,570.53c-2.728,0-4.167,3.258-4.167,5.985v5.151
		c0.909,0.227,1.667,0.378,2.728,0.378c2.879,0,4.924-1.817,4.924-6.212C566.212,572.576,565.151,570.53,562.728,570.53z"/>
	<path d="M583.561,584.091c0-0.909,0-2.349,0.228-3.258l0,0c-0.909,2.121-2.728,3.713-5.53,3.713c-3.713,0-4.773-2.122-4.773-4.925
		v-8.637c-0.682-0.227-1.817-0.227-2.575-0.378v-1.667c1.439-0.228,3.712-0.379,5.53-0.228v10.076c0,2.121,0.605,3.484,2.728,3.484
		c2.575,0,4.394-2.575,4.394-5.984v-5.228c-0.682-0.228-1.667-0.228-2.576-0.379v-1.667c1.439-0.227,3.713-0.378,5.228-0.227v13.333
		c0.682,0.228,1.818,0.228,2.576,0.379v1.667C587.424,584.091,585.228,584.242,583.561,584.091z"/>
	<path d="M596.742,584.47c-3.105,0-4.166-1.363-4.166-4.772v-9.016h-3.106v-2.121h3.106v-5.151l2.727-0.682v5.833h4.395v2.121
		h-4.395v8.03c0,2.576,0.606,3.258,2.121,3.258c0.683,0,1.439-0.228,2.046-0.228l0.379,2.349
		C598.863,584.242,597.651,584.47,596.742,584.47z"/>
	<path d="M615.228,576.212h-10.151c-0.228,4.091,1.439,5.833,4.924,5.833c1.439,0,3.106-0.378,4.394-0.908l0.379,2.121
		c-1.666,0.605-3.484,0.909-5.53,0.909c-4.772,0-7.272-2.576-7.272-8.03c0-4.546,2.576-8.258,6.97-8.258s6.212,2.879,6.212,6.363
		C615.455,575,615.455,575.682,615.228,576.212z M608.939,570.379c-2.046,0-3.485,1.439-3.788,3.788h7.272
		C612.424,571.894,611.137,570.379,608.939,570.379z"/>
	<path d="M628.333,571.137c-3.712-0.606-5.151,1.818-5.151,6.666v4.167c0.909,0,1.818,0.228,2.728,0.379v1.667h-8.258v-1.667
		c0.682-0.228,1.818-0.379,2.728-0.379v-11.363c-0.682-0.228-1.818-0.228-2.728-0.379v-1.667c1.667-0.228,3.712-0.379,5.53-0.228
		c0,0.909-0.228,2.349-0.379,3.713l0,0c0.682-2.122,2.121-4.395,5.606-4.092L628.333,571.137z"/>
</g>
<g enable-background="new    ">
	<path d="M-193.561,340.834v-2.729h9.849v2.576L-193.561,340.834L-193.561,340.834z"/>
	<path d="M-176.591,348.863v-2.348l4.545-4.092c4.091-3.258,4.924-4.772,4.924-6.666c0-2.046-1.364-3.484-3.788-3.484
		c-1.818,0-3.485,0.908-4.545,1.666l-0.606-2.576c1.667-0.908,3.485-1.666,5.606-1.666c4.167,0,6.364,2.348,6.364,5.605
		c0,2.728-1.439,4.773-4.924,7.652l-3.788,3.257h-0.227c1.439-0.228,4.924-0.228,9.47-0.228v2.728L-176.591,348.863
		L-176.591,348.863z"/>
</g>
<text transform="matrix(1 0 0 1 -150.7744 348.9209)" font-family="'TheSerif-HP5Plain'" font-size="31.3586" letter-spacing="17"> </text>
<g enable-background="new    ">
	<path d="M-126.364,340.834v-2.729h9.849v2.576L-126.364,340.834L-126.364,340.834z"/>
	<path d="M-108.788,348.863v-2.575h5.606v-13.183l-5.53,3.485l-0.909-2.349l6.97-4.166h2.348v16.287h4.924v2.576L-108.788,348.863
		L-108.788,348.863z"/>
</g>
<text transform="matrix(1 0 0 1 -74.4688 348.9209)" font-family="'TheSerif-HP5Plain'" font-size="31.3586" letter-spacing="3"> </text>
<g enable-background="new    ">
	<path d="M-36.97,349.166c-4.167,0-7.651-2.348-7.651-9.696c0-6.212,3.788-9.696,8.257-9.696c4.091,0,7.652,2.348,7.652,9.469
		C-28.788,345.682-32.576,349.166-36.97,349.166z M-36.818,332.197c-2.576,0-4.924,2.121-4.924,7.272
		c0,5.228,2.045,7.575,4.924,7.575c2.576,0,4.924-2.121,4.924-7.196C-31.894,334.395-33.939,332.197-36.818,332.197z"/>
	<path d="M13.485,348.863v-2.575h5.606v-13.183l-5.53,3.485l-0.909-2.349l6.97-4.166h2.349v16.287h4.924v2.576L13.485,348.863
		L13.485,348.863z"/>
</g>
<text transform="matrix(1 0 0 1 42.9512 348.9209)" font-family="'TheSerif-HP5Plain'" font-size="31.3586" letter-spacing="11"> </text>
<g enable-background="new    ">
	<path d="M75.076,348.863v-2.348l4.545-4.092c4.091-3.258,4.924-4.772,4.924-6.666c0-2.046-1.364-3.484-3.788-3.484
		c-1.818,0-3.485,0.908-4.546,1.666l-0.606-2.576c1.667-0.908,3.485-1.666,5.606-1.666c4.167,0,6.364,2.348,6.364,5.605
		c0,2.728-1.439,4.773-4.924,7.652l-3.788,3.257h-0.228c1.439-0.228,4.924-0.228,9.47-0.228v2.728L75.076,348.863L75.076,348.863z"
		/>
</g>
<g enable-background="new    ">
	<path d="M-43.333,195.682v-2.348l4.545-4.091c4.091-3.257,4.924-4.772,4.924-6.667c0-2.045-1.363-3.485-3.788-3.485
		c-1.818,0-3.485,0.909-4.545,1.667l-0.606-2.576c1.667-0.909,3.485-1.667,5.606-1.667c4.167,0,6.363,2.349,6.363,5.606
		c0,2.728-1.439,4.773-4.924,7.651l-3.788,3.258h-0.228c1.439-0.227,4.924-0.227,9.47-0.227v2.727L-43.333,195.682L-43.333,195.682
		L-43.333,195.682z"/>
</g>
<g enable-background="new    ">
	<path d="M-42.651,261.894v-2.576h5.606v-13.106l-5.53,3.485l-0.909-2.348l6.97-4.167h2.349v16.288h4.924v2.576L-42.651,261.894
		L-42.651,261.894z"/>
</g>
<g enable-background="new    ">
	<path d="M-41.288,385.984v-2.575h9.849v2.575H-41.288z"/>
	<path d="M-23.864,394.091v-2.575h5.606v-13.182l-5.53,3.484l-0.909-2.349l6.97-4.167h2.348v16.288h4.924v2.575L-23.864,394.091
		L-23.864,394.091z"/>
</g>
<g enable-background="new    ">
	<path d="M-41.288,452.349v-2.728h9.849v2.576L-41.288,452.349L-41.288,452.349z"/>
	<path d="M-24.545,460.379v-2.349l4.545-4.091c4.091-3.258,4.924-4.772,4.924-6.667c0-2.045-1.364-3.484-3.788-3.484
		c-1.818,0-3.485,0.909-4.545,1.667l-0.606-2.576c1.667-0.909,3.485-1.667,5.606-1.667c4.167,0,6.364,2.349,6.364,5.606
		c0,2.728-1.439,4.772-4.924,7.651l-3.788,3.258h-0.227c1.439-0.228,4.924-0.228,9.47-0.228v2.728L-24.545,460.379L-24.545,460.379z
		"/>
</g>
<text transform="matrix(1 0 0 1 39.0288 157.1514)" font-family="'TheSerif-HP5Plain'" font-size="47.1917" letter-spacing="6"> </text>
<text transform="matrix(1 0 0 1 215.7344 157.1514)" font-family="'TheSerif-HP5Plain'" font-size="47.1917" letter-spacing="18"> </text>
<g>
	<rect x="387.954" y="118.864" fill="none" stroke="#999999" stroke-width="1.3" width="388.562" height="388.56"/>
	<line fill="none" stroke="#999999" stroke-width="1.3" x1="387.954" y1="442.728" x2="776.439" y2="442.728"/>
	<line fill="none" stroke="#999999" stroke-width="1.3" x1="387.954" y1="377.727" x2="776.439" y2="377.727"/>
	<line fill="none" stroke="#999999" stroke-width="1.3" x1="387.954" y1="313.182" x2="776.439" y2="313.182"/>
	<line fill="none" stroke="#999999" stroke-width="1.3" x1="387.954" y1="248.409" x2="776.439" y2="248.409"/>
	<line fill="none" stroke="#999999" stroke-width="1.3" x1="387.954" y1="183.636" x2="776.439" y2="183.636"/>
	<line fill="none" stroke="#999999" stroke-width="1.3" x1="711.742" y1="118.864" x2="711.742" y2="507.576"/>
	<line fill="none" stroke="#999999" stroke-width="1.3" x1="647.045" y1="118.864" x2="647.045" y2="507.576"/>
	<line fill="none" stroke="#999999" stroke-width="1.3" x1="582.121" y1="118.864" x2="582.121" y2="507.576"/>
	<line fill="none" stroke="#999999" stroke-width="1.3" x1="517.197" y1="118.864" x2="517.197" y2="507.576"/>
	<line fill="none" stroke="#999999" stroke-width="1.3" x1="452.651" y1="118.864" x2="452.651" y2="507.576"/>
</g>
<g enable-background="new    ">
	<path d="M395.606,25.53l-3.485-5.833l-3.484,5.833h-4.773v-1.818c0.909-0.227,1.818-0.378,2.728-0.378l3.788-5.606l-3.712-5.606
		c-0.909,0-1.818-0.227-2.576-0.379v-1.667h4.772l3.258,5.606l3.485-5.606h4.545v1.667c-0.909,0.228-1.818,0.379-2.728,0.379
		l-3.484,5.53l3.788,5.833c0.909,0,1.666,0.227,2.575,0.379v1.667H395.606L395.606,25.53L395.606,25.53z"/>
</g>
<g enable-background="new    ">
	<path d="M299.697,110.151l-5.53,15.228c-1.667,4.772-3.257,6.363-6.667,6.363c-0.606,0-1.439,0-2.121-0.227l0.227-2.576
		c0.682,0.227,1.364,0.379,2.045,0.379c1.667,0,2.728-0.909,3.788-3.788l0.682-1.818h-0.682l-4.773-13.561
		c-0.682,0-1.439-0.227-2.045-0.379v-1.667h7.197v1.667c-0.606,0.228-1.364,0.379-2.045,0.379l2.348,6.667
		c0.606,1.439,0.909,2.576,1.364,3.788l0,0c0.227-1.136,0.909-2.878,1.439-4.545l2.045-5.985c-0.682,0-1.439-0.227-2.045-0.379
		v-1.667h6.97v1.667C301.137,110,300.455,110,299.697,110.151z"/>
</g>
<g enable-background="new    ">
	<path d="M393.484,79.242c-4.166,0-7.651-2.348-7.651-9.697c0-6.212,3.788-9.697,8.258-9.697c4.091,0,7.651,2.348,7.651,9.47
		C401.742,75.758,398.03,79.242,393.484,79.242z M393.788,62.121c-2.576,0-4.925,2.121-4.925,7.273c0,5.227,2.046,7.576,4.925,7.576
		c2.575,0,4.924-2.121,4.924-7.197C398.712,64.47,396.818,62.121,393.788,62.121z"/>
</g>
<g enable-background="new    ">
	<path d="M450.379,78.864v-2.576h5.605V63.182l-5.53,3.485l-0.908-2.348l6.97-4.167h2.348v16.288h4.925v2.576L450.379,78.864
		L450.379,78.864z"/>
</g>
<g enable-background="new    ">
	<path d="M512.424,78.864v-2.349l4.546-4.091c4.091-3.258,4.924-4.773,4.924-6.667c0-1.97-1.363-3.485-3.787-3.485
		c-1.818,0-3.485,0.909-4.546,1.667l-0.53-2.576c1.667-0.909,3.485-1.667,5.606-1.667c4.166,0,6.363,2.349,6.363,5.606
		c0,2.727-1.439,4.772-4.924,7.651l-3.788,3.257h-0.228c1.439-0.227,4.924-0.227,9.47-0.227v2.727L512.424,78.864L512.424,78.864
		L512.424,78.864z"/>
</g>
<g enable-background="new    ">
	<path d="M579.394,81.818c-1.363,0-2.727-0.228-3.787-0.606l0.605-2.576c1.137,0.379,2.349,0.606,3.788,0.606
		c3.258,0,5.53-1.818,5.53-4.167c0-2.348-1.818-3.788-5.151-3.788c-1.137,0-1.818,0-2.728,0.227v-2.349h0.682
		c4.546,0,6.667-1.363,6.667-3.788c0-2.045-1.439-3.106-3.788-3.106c-1.667,0-3.105,0.606-4.394,1.364l-0.606-2.348
		c1.667-0.682,3.258-1.137,5.53-1.137c4.167,0,6.213,2.045,6.213,4.924c0,2.349-1.439,4.167-3.788,4.924l0,0
		c2.575,0.379,4.545,2.576,4.545,5.151C588.333,78.864,584.621,81.818,579.394,81.818z"/>
</g>
<g enable-background="new    ">
	<path d="M648.939,76.061v5.228h-2.728v-5.228h-9.696l-0.228-2.349L645,59.849h4.091v13.561h3.712v2.576h-3.787v0.076H648.939z
		 M646.212,62.5L646.212,62.5l-7.196,11.136c1.817,0,5.833,0,7.196,0V62.5z"/>
</g>
<g enable-background="new    ">
	<path d="M704.546,81.818c-0.909,0-2.349-0.228-3.485-0.379l0.228-2.576c1.136,0.378,2.575,0.378,3.484,0.378
		c3.788,0,5.834-2.121,5.834-4.772c0-2.728-2.122-4.091-5.606-4.091c-1.363,0-2.349,0.227-3.258,0.227V59.849h10.985v2.727h-8.409
		v5.53c0.605,0,1.136,0,1.439,0c5.151,0,7.879,2.728,7.879,5.985C713.863,78.485,710.076,81.818,704.546,81.818z"/>
</g>
<g enable-background="new    ">
	<path d="M770.228,79.242c-4.395,0-7.197-3.257-7.197-9.015c0-9.016,4.394-12.803,10.454-12.803c0.606,0,1.439,0,1.818,0.227v2.576
		C774.621,60,773.939,60,773.258,60c-4.091,0-6.212,2.349-7.197,6.667c-0.228,0.379-0.228,0.909-0.379,1.667l0,0
		c1.137-1.818,2.879-2.728,4.925-2.728c4.166,0,6.363,2.728,6.363,6.212C777.424,76.061,774.394,79.242,770.228,79.242z
		 M770.228,67.955c-2.576,0-4.091,2.121-4.091,4.091c0,2.576,1.439,4.773,4.166,4.773c2.576,0,4.091-1.818,4.091-4.546
		C774.394,69.47,772.954,67.955,770.228,67.955z"/>
</g>
<circle cx="387.954" cy="118.864" r="10.076"/>
<circle cx="-54.773" cy="312.349" r="10.075"/>
<g enable-background="new    ">
	<path d="M344.849,133.106c-4.167,0-7.651-2.348-7.651-9.697c0-6.212,3.787-9.697,8.257-9.697c4.092,0,7.652,2.349,7.652,9.47
		C353.106,129.621,349.242,133.106,344.849,133.106z M345.076,116.288c-2.576,0-4.925,2.121-4.925,7.272
		c0,5.228,2.046,7.576,4.925,7.576c2.575,0,4.924-2.121,4.924-7.197C350,118.409,347.954,116.288,345.076,116.288z"/>
</g>
<g enable-background="new    ">
	<path d="M338.863,195.682v-2.576h5.606v-13.182l-5.53,3.485l-0.909-2.349l6.97-4.167h2.349v16.288h4.924v2.576L338.863,195.682
		L338.863,195.682z"/>
</g>
<g enable-background="new    ">
	<path d="M338.258,258.409v-2.349l4.545-4.091c4.091-3.258,4.925-4.773,4.925-6.667c0-2.045-1.364-3.485-3.788-3.485
		c-1.818,0-3.485,0.909-4.546,1.667l-0.605-2.576c1.666-0.909,3.484-1.667,5.605-1.667c4.167,0,6.364,2.349,6.364,5.606
		c0,2.727-1.439,4.772-4.925,7.651l-3.787,3.258h-0.228c1.439-0.228,4.924-0.228,9.47-0.228v2.728L338.258,258.409L338.258,258.409
		L338.258,258.409z"/>
</g>
<g enable-background="new    ">
	<path d="M342.424,324.016c-1.363,0-2.727-0.228-3.787-0.606l0.605-2.575c1.137,0.378,2.349,0.605,3.788,0.605
		c3.258,0,5.53-1.818,5.53-4.166c0-2.35-1.818-3.789-5.151-3.789c-1.137,0-1.818,0-2.728,0.228v-2.349h0.682
		c4.546,0,6.667-1.363,6.667-3.787c0-2.046-1.439-3.106-3.788-3.106c-1.666,0-3.105,0.606-4.394,1.364l-0.606-2.35
		c1.667-0.682,3.258-1.136,5.53-1.136c4.167,0,6.212,2.046,6.212,4.924c0,2.349-1.438,4.167-3.787,4.925l0,0
		c2.575,0.379,4.545,2.575,4.545,5.151C351.288,321.061,347.651,324.016,342.424,324.016z"/>
</g>
<g enable-background="new    ">
	<path d="M349.394,381.061v5.228h-2.727v-5.228h-9.697l-0.228-2.349l8.712-13.863h4.092v13.561h3.712v2.575L349.394,381.061
		L349.394,381.061z M346.591,367.5L346.591,367.5l-7.197,11.137c1.818,0,5.834,0,7.197,0V367.5z"/>
</g>
<g enable-background="new    ">
	<path d="M342.349,449.318c-0.909,0-2.349-0.228-3.485-0.379l0.228-2.576c1.137,0.379,2.576,0.379,3.485,0.379
		c3.787,0,5.833-2.121,5.833-4.772c0-2.728-2.121-4.091-5.606-4.091c-1.363,0-2.349,0.228-3.257,0.228v-10.683h10.984v2.728h-8.409
		v5.53c0.606,0,1.137,0,1.439,0c5.151,0,7.879,2.728,7.879,5.985C351.439,446.137,347.879,449.318,342.349,449.318z"/>
</g>
<g enable-background="new    ">
	<path d="M345.076,509.47c-4.395,0-7.197-3.258-7.197-9.016c0-9.015,4.394-12.803,10.454-12.803c0.606,0,1.439,0,1.818,0.228v2.575
		c-0.682-0.227-1.363-0.227-2.045-0.227c-4.091,0-6.213,2.349-7.197,6.666c-0.228,0.379-0.228,0.909-0.379,1.667l0,0
		c1.137-1.818,2.879-2.728,4.924-2.728c4.167,0,6.592,2.728,6.592,6.213C352.121,506.591,349.242,509.47,345.076,509.47z
		 M345.151,498.258c-2.575,0-4.091,2.121-4.091,4.091c0,2.575,1.439,4.772,4.167,4.772c2.575,0,4.091-1.818,4.091-4.545
		C349.242,500,347.879,498.258,345.151,498.258z"/>
</g>
<line fill="none" stroke="#000000" stroke-width="1.3" x1="389.394" y1="118.864" x2="377.197" y2="118.864"/>
<line fill="none" stroke="#000000" stroke-width="1.3" x1="389.394" y1="184.015" x2="377.197" y2="184.015"/>
<line fill="none" stroke="#000000" stroke-width="1.3" x1="389.394" y1="248.409" x2="377.197" y2="248.409"/>
<line fill="none" stroke="#000000" stroke-width="1.3" x1="389.394" y1="313.03" x2="377.197" y2="313.03"/>
<line fill="none" stroke="#000000" stroke-width="1.3" x1="389.394" y1="378.105" x2="377.197" y2="378.105"/>
<line fill="none" stroke="#000000" stroke-width="1.3" x1="389.394" y1="443.484" x2="377.197" y2="443.484"/>
<line fill="none" stroke="#000000" stroke-width="1.3" x1="389.394" y1="506.97" x2="377.197" y2="506.97"/>
<line fill="none" stroke="#000000" stroke-width="1.3" x1="775.758" y1="118.712" x2="775.758" y2="106.515"/>
<line fill="none" stroke="#000000" stroke-width="1.3" x1="710.833" y1="118.712" x2="710.833" y2="106.515"/>
<line fill="none" stroke="#000000" stroke-width="1.3" x1="646.212" y1="118.712" x2="646.212" y2="106.515"/>
<line fill="none" stroke="#000000" stroke-width="1.3" x1="581.742" y1="118.712" x2="581.742" y2="106.515"/>
<line fill="none" stroke="#000000" stroke-width="1.3" x1="516.818" y1="118.712" x2="516.818" y2="106.515"/>
<line fill="none" stroke="#000000" stroke-width="1.3" x1="451.061" y1="118.712" x2="451.061" y2="106.515"/>
<line fill="none" stroke="#000000" stroke-width="1.3" x1="387.954" y1="118.712" x2="387.954" y2="106.515"/>
<polyline fill="#FFFFFF" stroke="#000000" stroke-width="1.3" points="300.455,237.651 292.727,245.228 285.076,237.651 "/>
<line fill="none" stroke="#000000" stroke-width="1.3" x1="292.727" y1="245.228" x2="292.727" y2="154.318"/>
<polyline fill="#FFFFFF" stroke="#000000" stroke-width="1.3" points="506.742,8.333 514.318,15.985 506.742,23.636 "/>
<line fill="none" stroke="#000000" stroke-width="1.3" x1="516.137" y1="15.985" x2="425.303" y2="15.985"/>
<g id="Layer_2">
</g>
</svg>
