<?xml version="1.0" encoding="utf-8"?>
<!-- Generator: Adobe Illustrator 18.0.0, SVG Export Plug-In . SVG Version: 6.00 Build 0)  -->
<!DOCTYPE svg PUBLIC "-//W3C//DTD SVG 1.1//EN" "http://www.w3.org/Graphics/SVG/1.1/DTD/svg11.dtd">
<svg version="1.1" id="Layer_1" xmlns="http://www.w3.org/2000/svg" xmlns:xlink="http://www.w3.org/1999/xlink" x="0px" y="0px"
	 viewBox="0 0 612 792" enable-background="new 0 0 612 792" xml:space="preserve">
<g>
	<rect x="89.9" y="165.3" fill="none" stroke="#999999" stroke-width="1.3" width="488.1" height="488.1"/>
	<line fill="none" stroke="#999999" stroke-width="1.3" x1="89.9" y1="572.3" x2="578.1" y2="572.3"/>
	<line fill="none" stroke="#999999" stroke-width="1.3" x1="89.9" y1="490.7" x2="578.1" y2="490.7"/>
	<line fill="none" stroke="#999999" stroke-width="1.3" x1="89.9" y1="409.5" x2="578.1" y2="409.5"/>
	<line fill="none" stroke="#999999" stroke-width="1.3" x1="89.9" y1="328.3" x2="578.1" y2="328.3"/>
	<line fill="none" stroke="#999999" stroke-width="1.3" x1="89.9" y1="246.6" x2="578.1" y2="246.6"/>
	<line fill="none" stroke="#999999" stroke-width="1.3" x1="496.5" y1="165.3" x2="496.5" y2="653.6"/>
	<line fill="none" stroke="#999999" stroke-width="1.3" x1="415.4" y1="165.3" x2="415.4" y2="653.6"/>
	<line fill="none" stroke="#999999" stroke-width="1.3" x1="334.1" y1="165.3" x2="334.1" y2="653.6"/>
	<line fill="none" stroke="#999999" stroke-width="1.3" x1="252.6" y1="165.3" x2="252.6" y2="653.6"/>
	<line fill="none" stroke="#999999" stroke-width="1.3" x1="171.3" y1="165.3" x2="171.3" y2="653.6"/>
</g>
<g enable-background="new    ">
	<path d="M99.6,48l-4.4-7.4L90.9,48H85v-2.2c1.2-0.2,2.4-0.5,3.4-0.5l4.9-7.1l-4.5-7.1c-1,0-2.2-0.3-3.4-0.5v-2.2h6.1l4.2,7.2
		l4.2-7.2h5.7v2.2c-1.2,0.2-2.4,0.5-3.4,0.5l-4.4,6.9l4.7,7.2c1,0,2.2,0.3,3.4,0.5V48L99.6,48L99.6,48z"/>
</g>
<g enable-background="new    ">
	<path d="M-20.7,154.2l-6.9,19c-2.2,6.1-4.2,7.9-8.6,7.9c-0.7,0-1.9,0-2.7-0.2l0.3-3.2c0.8,0.3,1.7,0.5,2.5,0.5c2.2,0,3.4-1,4.7-4.9
		l0.8-2.2h-0.8l-6.1-17c-0.8,0-1.9-0.2-2.5-0.5v-2.2h8.9v2.2c-0.7,0.2-1.7,0.3-2.5,0.5l3,8.4c0.7,1.9,1,3.2,1.5,4.9l0,0
		c0.3-1.3,1-3.5,1.9-5.9l2.7-7.6c-1,0-1.9-0.2-2.5-0.5v-2.2h8.8v2.2C-19,154.1-19.9,154.2-20.7,154.2z"/>
</g>
<g enable-background="new    ">
	<path d="M97.1,115.5c-5.2,0-9.8-3-9.8-12.1c0-7.9,4.7-12.3,10.3-12.3c5,0,9.8,3,9.8,12.1C107.4,111.1,102.7,115.5,97.1,115.5z
		 M97.4,94c-3.2,0-6.2,2.9-6.2,9.1c0,6.6,2.5,9.4,6.2,9.4c3.2,0,6.2-2.7,6.2-9.1C103.7,96.8,101.1,94,97.4,94z"/>
</g>
<g enable-background="new    ">
	<path d="M168.5,115v-3.2h7.2V95.1l-6.7,4.4l-1.2-3l8.8-5.4h3v20.5h5.9v3.2h-17V115z"/>
</g>
<g enable-background="new    ">
	<path d="M246.4,115v-2.9l5.6-5c5-4.2,6.2-5.9,6.2-8.6c0-2.5-1.5-4.4-4.9-4.4c-2.4,0-4.4,1-5.7,2l-0.8-3.2c2-1.2,4.4-2,7.2-2
		c5.2,0,8.1,3,8.1,7.1c0,3.4-1.7,5.9-6.1,9.6l-4.7,4h-0.2c1.9-0.2,6.2-0.2,12-0.2v3.4h-16.7V115z"/>
</g>
<g enable-background="new    ">
	<path d="M330.6,118.7c-1.7,0-3.5-0.2-4.9-0.7l0.7-3.2c1.3,0.5,3,0.8,4.7,0.8c4.2,0,6.9-2.4,6.9-5.2c0-3-2.4-4.9-6.6-4.9
		c-1.3,0-2.4,0-3.5,0.2v-3h0.8c5.6,0,8.4-1.7,8.4-4.9c0-2.5-1.9-3.9-4.9-3.9c-2.2,0-4,0.7-5.6,1.5l-0.7-3c2-0.8,4.2-1.3,6.7-1.3
		c5.2,0,7.9,2.5,7.9,6.2c0,3-1.9,5.2-4.9,6.2l0,0c3.2,0.3,5.7,3.2,5.7,6.4C341.7,115,337.1,118.7,330.6,118.7z"/>
</g>
<g enable-background="new    ">
	<path d="M418.1,111.8v6.6h-3.5v-6.6h-12.1l-0.3-2.9L413,91.6h5v17.2h4.5v3.2h-4.5V111.8z M414.5,94.6L414.5,94.6l-8.9,14
		c2.4,0,7.2,0,8.9,0V94.6z"/>
</g>
<g enable-background="new    ">
	<path d="M487.9,118.7c-1.2,0-3-0.2-4.4-0.3l0.3-3c1.3,0.3,3,0.5,4.4,0.5c4.7,0,7.4-2.7,7.4-5.9c0-3.4-2.7-5.2-7.1-5.2
		c-1.5,0-3,0.2-4,0.3V91.6h13.8V95h-10.6v6.9c0.7,0,1.3,0,1.9,0c6.6,0,9.8,3.4,9.8,7.6C499.5,114.7,494.8,118.7,487.9,118.7z"/>
</g>
<g enable-background="new    ">
	<path d="M570.2,115.5c-5.6,0-8.9-4.2-8.9-11.3c0-11.3,5.6-16,13.1-16c0.8,0,1.7,0,2.4,0.2v3.2c-0.8-0.2-1.7-0.2-2.7-0.2
		c-5,0-7.9,3-8.9,8.4c-0.2,0.5-0.2,1.2-0.3,2l0,0c1.3-2.2,3.7-3.4,6.2-3.4c5.2,0,8.1,3.4,8.1,7.7
		C579.1,111.6,575.6,115.5,570.2,115.5z M570.4,101.2c-3.2,0-5.2,2.9-5.2,5c0,3.2,1.9,6.1,5.4,6.1c3.2,0,5-2.4,5-5.9
		C575.6,103.4,573.8,101.2,570.4,101.2z"/>
</g>
<circle cx="415.4" cy="570.3" r="12.6"/>
<g enable-background="new    ">
	<path d="M35.8,183.3c-5.2,0-9.8-3-9.8-12.1c0-7.9,4.7-12.3,10.3-12.3c5,0,9.8,3,9.8,12.1C46.1,179,41.4,183.3,35.8,183.3z
		 M36,161.8c-3.2,0-6.2,2.9-6.2,9.1c0,6.6,2.5,9.4,6.2,9.4c3.2,0,6.2-2.7,6.2-9.1C42.4,164.7,39.9,161.8,36,161.8z"/>
</g>
<g enable-background="new    ">
	<path d="M28.4,261.8v-3.2h7.2v-16.7l-6.7,4.4l-1.2-3l8.8-5.4h3v20.5h6.2v3.2H28.4V261.8z"/>
</g>
<g enable-background="new    ">
	<path d="M27.6,340.5v-2.9l5.6-5c5-4.2,6.2-5.9,6.2-8.6c0-2.5-1.5-4.4-4.9-4.4c-2.4,0-4.4,1-5.7,2l-0.8-3.2c2-1.2,4.4-2,7.2-2
		c5.2,0,8.1,3,8.1,7.1c0,3.4-1.7,5.9-6.1,9.6l-4.7,4h-0.2c1.9-0.2,6.2-0.2,12-0.2v3.4H27.6V340.5z"/>
</g>
<g enable-background="new    ">
	<path d="M32.8,423c-1.7,0-3.5-0.2-4.9-0.7l0.7-3.2c1.3,0.5,3,0.8,4.7,0.8c4.2,0,6.9-2.4,6.9-5.2c0-3-2.4-4.9-6.6-4.9
		c-1.3,0-2.4,0-3.5,0.2v-3H31c5.6,0,8.4-1.7,8.4-4.9c0-2.5-1.9-3.9-4.9-3.9c-2.2,0-4,0.7-5.6,1.5l-0.7-3c2-0.8,4.2-1.3,6.7-1.3
		c5.2,0,7.9,2.5,7.9,6.2c0,3-1.9,5.2-4.9,6.2l0,0c3.2,0.3,5.7,3.2,5.7,6.4C44.1,419.3,39.4,423,32.8,423z"/>
</g>
<g enable-background="new    ">
	<path d="M41.6,494.7v6.6H38v-6.6H25.9l-0.3-2.9l10.9-17.3h5v17.2h4.5v3.2h-4.5V494.7z M38.2,477.7L38.2,477.7l-8.9,14
		c2.4,0,7.2,0,8.9,0V477.7z"/>
</g>
<g enable-background="new    ">
	<path d="M32.6,580.6c-1.2,0-3-0.2-4.4-0.3l0.3-3c1.3,0.3,3,0.5,4.4,0.5c4.7,0,7.4-2.7,7.4-5.9c0-3.4-2.7-5.2-7.1-5.2
		c-1.5,0-3,0.2-4,0.3v-13.5h13.8v3.4H32.5v6.9c0.7,0,1.3,0,1.9,0c6.6,0,9.8,3.4,9.8,7.6C44.3,576.5,39.5,580.6,32.6,580.6z"/>
</g>
<g enable-background="new    ">
	<path d="M36.2,656.1c-5.6,0-8.9-4.2-8.9-11.3c0-11.3,5.6-16,13.1-16c0.8,0,1.7,0,2.4,0.2v3.2c-0.8-0.2-1.7-0.2-2.7-0.2
		c-5,0-7.9,3-8.9,8.4c-0.2,0.5-0.2,1.2-0.3,2l0,0c1.3-2.2,3.7-3.4,6.2-3.4c5.2,0,8.1,3.4,8.1,7.7C45.1,652.4,41.4,656.1,36.2,656.1z
		 M36.3,642c-3.2,0-5.2,2.9-5.2,5c0,3.2,1.9,6.1,5.4,6.1c3.2,0,5-2.4,5-5.9C41.4,644.2,39.7,642,36.3,642z"/>
</g>
<line fill="none" stroke="#000000" stroke-width="1.3" x1="91.9" y1="165.3" x2="76.4" y2="165.3"/>
<line fill="none" stroke="#000000" stroke-width="1.3" x1="91.9" y1="247" x2="76.4" y2="247"/>
<line fill="none" stroke="#000000" stroke-width="1.3" x1="91.9" y1="328.1" x2="76.4" y2="328.1"/>
<line fill="none" stroke="#000000" stroke-width="1.3" x1="91.9" y1="409.2" x2="76.4" y2="409.2"/>
<line fill="none" stroke="#000000" stroke-width="1.3" x1="91.9" y1="490.8" x2="76.4" y2="490.8"/>
<line fill="none" stroke="#000000" stroke-width="1.3" x1="91.9" y1="573.3" x2="76.4" y2="573.3"/>
<line fill="none" stroke="#000000" stroke-width="1.3" x1="91.9" y1="652.9" x2="76.4" y2="652.9"/>
<line fill="none" stroke="#000000" stroke-width="1.3" x1="577.5" y1="165.2" x2="577.5" y2="149.7"/>
<line fill="none" stroke="#000000" stroke-width="1.3" x1="495.5" y1="165.2" x2="495.5" y2="149.7"/>
<line fill="none" stroke="#000000" stroke-width="1.3" x1="414.7" y1="165.2" x2="414.7" y2="149.7"/>
<line fill="none" stroke="#000000" stroke-width="1.3" x1="333.2" y1="165.2" x2="333.2" y2="149.7"/>
<line fill="none" stroke="#000000" stroke-width="1.3" x1="252" y1="165.2" x2="252" y2="149.7"/>
<line fill="none" stroke="#000000" stroke-width="1.3" x1="169.5" y1="165.2" x2="169.5" y2="149.7"/>
<line fill="none" stroke="#000000" stroke-width="1.3" x1="90.7" y1="165.2" x2="90.7" y2="149.7"/>
<polyline fill="#FFFFFF" stroke="#000000" stroke-width="1.3" points="-20,314.5 -29.6,324 -39.2,314.5 "/>
<line fill="none" stroke="#000000" stroke-width="1.3" x1="-29.6" y1="324" x2="-29.6" y2="209.9"/>
<polyline fill="#FFFFFF" stroke="#000000" stroke-width="1.3" points="239.3,26.5 248.9,36.1 239.3,45.7 "/>
<line fill="none" stroke="#000000" stroke-width="1.3" x1="251.1" y1="36.1" x2="136.8" y2="36.1"/>
<g enable-background="new    ">
	<path d="M716,419.3c-1.2,0-2.2,0-3.4-0.2v7.1c1.2,0,2.4,0.3,3.4,0.5v2.2h-10.3v-2.2c1-0.2,2-0.5,3.2-0.5v-23.9
		c-1-0.2-2.2-0.3-3.2-0.3v-2.2c1.9-0.2,4.5-0.3,6.7-0.3c0,1.2-0.2,2.9-0.3,4l0,0c1.2-2.7,3.5-4.4,6.6-4.4c4.5,0,7.2,3.2,7.2,9.3
		C726.1,415.3,722.4,419.3,716,419.3z M718,402c-3.5,0-5.4,4.2-5.4,7.6v6.4c1,0.3,2.2,0.5,3.5,0.5c3.7,0,6.2-2.2,6.2-7.9
		C722.4,404.5,721,402,718,402z"/>
	<path d="M738.2,419.5c-5.4,0-8.8-3-8.8-9.9c0-5.9,3.7-10.4,9.6-10.4c4.9,0,8.8,2.7,8.8,9.9C747.6,414.8,744.1,419.5,738.2,419.5z
		 M738.5,402.1c-2.9,0-5.6,2.2-5.6,7.2c0,4.5,1.9,7.1,5.6,7.1c2.9,0,5.6-2.4,5.6-7.2C744.1,404.7,742.1,402.1,738.5,402.1z"/>
	<path d="M750.5,419v-2.2c1-0.2,2.2-0.5,3.4-0.5v-14.1c-1-0.2-2.4-0.3-3.4-0.3v-2.2c2-0.2,4.7-0.3,6.9-0.3v17c1.2,0,2.4,0.3,3.4,0.5
		v2.2L750.5,419L750.5,419z M755.7,395.6c-1.3,0-2.4-1-2.4-2.4c0-1.3,1-2.4,2.4-2.4c1.2,0,2.4,1,2.4,2.4
		C758.1,394.6,757.1,395.6,755.7,395.6z"/>
	<path d="M778.4,419v-12.6c0-2.7-0.7-4.4-3.4-4.4c-3.2,0-5.6,3.4-5.6,7.6v6.7c1,0,2.2,0.2,3.2,0.5v2.2h-10.1v-2.2
		c1-0.2,2.2-0.5,3.4-0.5v-14.1c-1-0.2-2.4-0.3-3.4-0.3v-2.2c2-0.2,4.7-0.3,6.9-0.3c0,1.2,0,3-0.3,4.2l0,0c1.2-2.7,3.5-4.5,6.9-4.5
		c4.4,0,5.9,2.9,5.9,6.2v11.1c1.2,0,2.4,0.3,3.2,0.5v2.2L778.4,419L778.4,419z"/>
	<path d="M794.9,419.3c-4,0-5.2-1.7-5.2-5.9v-11.3h-4v-2.7h4v-6.4l3.5-1v7.4h5.6v2.7h-5.6v9.9c0,3.2,0.7,4,2.9,4
		c0.8,0,1.9-0.2,2.5-0.3l0.3,2.9C797.8,419.1,796.3,419.3,794.9,419.3z"/>
	<path d="M824.9,427.9c-6.6-6.1-9.8-12.3-9.8-19.9c0-8.1,3.9-14.6,9.8-20l2,2c-5.4,5.2-8.2,11.3-8.2,17.7c0,6.6,2.7,12.6,8.2,18
		L824.9,427.9z"/>
	<path d="M850,419l-5.9-7.6l-5.7,7.6H834l8.1-9.9l-7.6-9.8h4.4l5.7,7.4l5.7-7.4h4l-7.6,9.8l7.9,9.9H850z"/>
	<path d="M861.4,424.2c4-1.2,5.2-3,5.2-4.4c0-2.5-2-2.5-2-4.7c0-1.7,1.2-2.9,2.9-2.9c2.5,0,3.7,2.4,3.7,4.9c0,4.9-3.4,7.7-9.1,9.1
		L861.4,424.2z"/>
	<path d="M893.2,419c-3,7.2-5.4,9.4-10.1,10.1l-0.7-3.2c3.7-0.5,5-1.5,7.4-6.9l-7.9-19.5h4l4.2,10.9c0.5,1.3,1.2,3.2,1.5,4.5l0,0
		c0.3-1.3,1.2-3.4,2-5.6l3.7-9.8h3.9L893.2,419z"/>
	<path d="M911.1,388c6.6,6.1,9.8,12.3,9.8,19.9c0,8.1-3.9,14.6-9.8,20l-2-2c5.4-5.2,8.2-11.4,8.2-17.7c0-6.6-2.7-12.6-8.2-18
		L911.1,388z"/>
	<path d="M931.3,425.2l-1.5-1.3c2.5-2.7,2.5-4.5,1.7-5.7c-1.2-1.3-0.2-3.5,1.7-3.5C936.1,414.6,937.5,419.6,931.3,425.2z
		 M933.3,407.9c-1.3,0-2.5-1-2.5-2.5c0-1.3,1.2-2.5,2.5-2.5c1.3,0,2.5,1.2,2.5,2.5C935.6,406.9,934.6,407.9,933.3,407.9z"/>
</g>
<text transform="matrix(1 0 0 1 175.3309 762.707)" fill="#808080" font-family="'TheSerif-HP5Plain'" font-size="39.4">Example:  </text>
<g enable-background="new    ">
	<path d="M375.5,762.7v-2.2c1-0.2,2-0.3,3-0.5l-1.5-4.4h-11.1l-1.5,4.4c1,0,2.2,0.3,3,0.5v2.2h-9.3v-2.2c0.7-0.2,1.7-0.3,2.4-0.5
		l8.8-24.1h4.4l8.8,24.1c0.7,0,1.7,0.2,2.4,0.5v2.2H375.5z M372.8,743.5c-0.5-1.3-0.8-2.5-1.2-3.9l0,0c-0.3,1.2-0.7,2.5-1.2,3.9
		l-3.4,9.4h9.3L372.8,743.5z"/>
	<path d="M410,771.6c-6.6-6.1-9.8-12.3-9.8-19.9c0-8.1,3.9-14.6,9.8-20l2,2c-5.4,5.2-8.2,11.3-8.2,17.7c0,6.6,2.7,12.6,8.2,18
		L410,771.6z"/>
	<path d="M434.9,759.3v6.6h-3.5v-6.6h-12.1l-0.3-2.9l10.9-17.3h5v17.2h4.5v3.2h-4.5V759.3z M431.4,742.3L431.4,742.3l-8.9,14
		c2.4,0,7.2,0,8.9,0V742.3z"/>
	<path d="M446.5,767.9c4-1.2,5.2-3,5.2-4.4c0-2.5-2-2.5-2-4.7c0-1.7,1.2-2.9,2.9-2.9c2.5,0,3.7,2.4,3.7,4.9c0,4.9-3.4,7.7-9.1,9.1
		L446.5,767.9z"/>
	<path d="M473.1,766.4c-1.2,0-3-0.2-4.4-0.3l0.3-3c1.3,0.3,3,0.5,4.4,0.5c4.7,0,7.4-2.7,7.4-5.9c0-3.4-2.7-5.2-7.1-5.2
		c-1.5,0-3,0.2-4,0.3v-13.5h13.8v3.4h-10.6v6.9c0.7,0,1.3,0,1.9,0c6.6,0,9.8,3.4,9.8,7.6C484.7,762.2,480,766.4,473.1,766.4z"/>
	<path d="M496.2,731.7c6.6,6.1,9.8,12.3,9.8,19.9c0,8.1-3.9,14.6-9.8,20l-2-2c5.4-5.2,8.2-11.4,8.2-17.7c0-6.6-2.7-12.6-8.2-18
		L496.2,731.7z"/>
	<path d="M525,768.7l-1.5-1.3c2.5-2.7,2.5-4.5,1.7-5.7c-1.2-1.3-0.2-3.5,1.7-3.5C529.8,758.3,531.2,763.2,525,768.7z M527,751.6
		c-1.3,0-2.5-1-2.5-2.5c0-1.3,1.2-2.5,2.5-2.5c1.3,0,2.5,1.2,2.5,2.5C529.3,750.4,528.3,751.6,527,751.6z"/>
</g>
<g enable-background="new    ">
	<path d="M470.8,581.1v-2.2c1-0.2,2-0.3,3-0.5l-1.5-4.4h-11.1l-1.5,4.4c1,0,2.2,0.3,3,0.5v2.2h-9.3v-2.2c0.7-0.2,1.7-0.3,2.4-0.5
		l8.8-24.1h4.4l8.8,24.1c0.7,0,1.7,0.2,2.4,0.5v2.2H470.8z M468.1,561.7c-0.5-1.3-0.8-2.5-1.2-3.9l0,0c-0.3,1.2-0.7,2.5-1.2,3.9
		l-3.4,9.4h9.3L468.1,561.7z"/>
	<path d="M505.3,589.8c-6.6-6.1-9.8-12.3-9.8-19.9c0-8.1,3.9-14.6,9.8-20l2,2c-5.4,5.2-8.2,11.3-8.2,17.7c0,6.6,2.7,12.6,8.2,18
		L505.3,589.8z"/>
	<path d="M530,577.7v6.6h-3.5v-6.6h-12.1l-0.3-2.9l10.9-17.3h5v17h4.5v3.2H530z M526.6,560.7L526.6,560.7l-8.9,14c2.4,0,7.2,0,8.9,0
		V560.7z"/>
	<path d="M541.8,586.3c4-1.2,5.2-3,5.2-4.4c0-2.5-2-2.5-2-4.7c0-1.7,1.2-2.9,2.9-2.9c2.5,0,3.7,2.4,3.7,4.9c0,4.9-3.4,7.7-9.1,9.1
		L541.8,586.3z"/>
	<path d="M568.4,584.8c-1.2,0-3-0.2-4.4-0.3l0.3-3c1.3,0.3,3,0.5,4.4,0.5c4.7,0,7.4-2.7,7.4-5.9c0-3.4-2.7-5.2-7.1-5.2
		c-1.5,0-3,0.2-4,0.3v-13.5h13.8v3.4h-10.6v6.9c0.7,0,1.3,0,1.9,0c6.6,0,9.8,3.4,9.8,7.6C580,580.6,575.3,584.8,568.4,584.8z"/>
	<path d="M591.4,549.9c6.6,6.1,9.8,12.3,9.8,19.9c0,8.1-3.9,14.6-9.8,20l-2-2c5.4-5.2,8.2-11.4,8.2-17.7c0-6.6-2.7-12.6-8.2-18
		L591.4,549.9z"/>
</g>
</svg>
