<?xml version="1.0" encoding="utf-8"?>
<!-- Generator: Adobe Illustrator 18.0.0, SVG Export Plug-In . SVG Version: 6.00 Build 0)  -->
<!DOCTYPE svg PUBLIC "-//W3C//DTD SVG 1.1//EN" "http://www.w3.org/Graphics/SVG/1.1/DTD/svg11.dtd">
<svg version="1.1" id="Layer_1" xmlns="http://www.w3.org/2000/svg" xmlns:xlink="http://www.w3.org/1999/xlink" x="0px" y="0px"
	 viewBox="0 0 640 480" enable-background="new 0 0 640 480" xml:space="preserve">
<g>
	<rect x="75.3" y="99.5" fill="none" stroke="#999999" stroke-width="1.3" width="267.6" height="267.6"/>
	<line fill="none" stroke="#999999" stroke-width="1.3" x1="75.3" y1="322.6" x2="342.9" y2="322.6"/>
	<line fill="none" stroke="#999999" stroke-width="1.3" x1="75.3" y1="277.9" x2="342.9" y2="277.9"/>
	<line fill="none" stroke="#999999" stroke-width="1.3" x1="75.3" y1="233.3" x2="342.9" y2="233.3"/>
	<line fill="none" stroke="#999999" stroke-width="1.3" x1="75.3" y1="188.8" x2="342.9" y2="188.8"/>
	<line fill="none" stroke="#999999" stroke-width="1.3" x1="75.3" y1="144.1" x2="342.9" y2="144.1"/>
	<line fill="none" stroke="#999999" stroke-width="1.3" x1="298.3" y1="99.5" x2="298.3" y2="367.1"/>
	<line fill="none" stroke="#999999" stroke-width="1.3" x1="253.8" y1="99.5" x2="253.8" y2="367.1"/>
	<line fill="none" stroke="#999999" stroke-width="1.3" x1="209.1" y1="99.5" x2="209.1" y2="367.1"/>
	<line fill="none" stroke="#999999" stroke-width="1.3" x1="164.5" y1="99.5" x2="164.5" y2="367.1"/>
	<line fill="none" stroke="#999999" stroke-width="1.3" x1="120" y1="99.5" x2="120" y2="367.1"/>
</g>
<g>
	<path d="M80.7,35.1l-2.4-4l-2.4,4h-3.2v-1.2c0.6-0.1,1.3-0.3,1.8-0.3l2.6-3.9l-2.5-3.9c-0.6,0-1.2-0.2-1.8-0.3v-1.2h3.3l2.3,3.9
		l2.3-3.9h3.1v1.2c-0.6,0.1-1.3,0.3-1.8,0.3l-2.4,3.8l2.6,4c0.6,0,1.2,0.2,1.8,0.3v1.2H80.7z"/>
</g>
<g>
	<path d="M14.6,93.4l-3.8,10.5c-1.2,3.3-2.3,4.4-4.7,4.4c-0.4,0-1,0-1.5-0.1l0.2-1.8c0.5,0.2,0.9,0.2,1.4,0.2c1.2,0,1.8-0.6,2.6-2.7
		l0.5-1.2H8.9l-3.3-9.3c-0.5,0-1-0.1-1.4-0.3V92h4.9v1.2c-0.4,0.1-0.9,0.2-1.4,0.3L9.3,98c0.3,1,0.6,1.8,0.8,2.7h0
		c0.2-0.7,0.6-2,1-3.2l1.4-4.1c-0.5,0-1-0.1-1.4-0.3V92H16v1.2C15.6,93.3,15.1,93.4,14.6,93.4z"/>
</g>
<g>
	<path d="M79.3,72.1c-2.9,0-5.3-1.7-5.3-6.7c0-4.3,2.6-6.7,5.7-6.7c2.8,0,5.3,1.6,5.3,6.6C84.9,69.7,82.3,72.1,79.3,72.1z
		 M79.4,60.3c-1.8,0-3.4,1.6-3.4,5c0,3.6,1.4,5.1,3.4,5.1c1.8,0,3.4-1.5,3.4-5C82.8,61.9,81.5,60.3,79.4,60.3z"/>
	<path d="M118.4,71.9v-1.8h4v-9.1l-3.7,2.4l-0.7-1.7l4.8-2.9h1.7v11.3h3.4v1.8H118.4z"/>
	<path d="M161.1,71.9v-1.6l3.1-2.8c2.7-2.3,3.4-3.2,3.4-4.7c0-1.4-0.8-2.4-2.7-2.4c-1.3,0-2.4,0.6-3.1,1.1l-0.4-1.7
		c1.1-0.7,2.4-1.1,4-1.1c2.9,0,4.4,1.6,4.4,3.8c0,1.8-1,3.2-3.3,5.3l-2.6,2.2l-0.1,0c1-0.1,3.4-0.1,6.6-0.1v1.9H161.1z"/>
	<path d="M207.2,73.9c-0.9,0-1.9-0.1-2.7-0.3l0.3-1.8c0.7,0.3,1.7,0.4,2.6,0.4c2.3,0,3.8-1.3,3.8-2.9c0-1.6-1.3-2.7-3.6-2.7
		c-0.7,0-1.3,0-1.9,0.1v-1.6h0.5c3.1,0,4.6-0.9,4.6-2.7c0-1.4-1.1-2.1-2.6-2.1c-1.2,0-2.2,0.3-3.1,0.8l-0.3-1.7
		c1.1-0.5,2.3-0.8,3.7-0.8c2.9,0,4.3,1.4,4.3,3.5c0,1.7-1.1,2.9-2.6,3.4l0,0c1.8,0.2,3.1,1.7,3.1,3.5
		C213.4,71.9,210.8,73.9,207.2,73.9z"/>
	<path d="M255.2,70.1v3.6h-1.9v-3.6h-6.6l-0.2-1.6l6-9.6h2.7v9.4h2.5v1.8H255.2z M253.3,60.7L253.3,60.7l-4.9,7.6c1.3,0,4,0,4.9,0
		V60.7z"/>
	<path d="M293.5,73.9c-0.7,0-1.6-0.1-2.4-0.2l0.2-1.7c0.7,0.2,1.7,0.3,2.4,0.3c2.6,0,4-1.5,4-3.2c0-1.8-1.5-2.8-3.9-2.8
		c-0.9,0-1.7,0.1-2.2,0.2v-7.4h7.6v1.9l-5.8,0v3.8c0.4,0,0.8,0,1.1,0c3.6,0,5.4,1.8,5.4,4.1C299.9,71.6,297.3,73.9,293.5,73.9z"/>
	<path d="M338.6,72.1c-3,0-4.9-2.3-4.9-6.2c0-6.2,3.1-8.8,7.2-8.8c0.4,0,1,0,1.3,0.1v1.7c-0.5-0.1-0.9-0.1-1.4-0.1
		c-2.8,0-4.3,1.6-4.9,4.6c-0.1,0.2-0.1,0.6-0.2,1.1h0c0.7-1.2,2-1.9,3.4-1.9c2.9,0,4.5,1.9,4.5,4.2
		C343.5,70.1,341.6,72.1,338.6,72.1z M338.7,64.3c-1.8,0-2.8,1.6-2.8,2.8c0,1.8,1,3.3,2.9,3.3c1.7,0,2.8-1.3,2.8-3.2
		C341.6,65.5,340.6,64.3,338.7,64.3z"/>
</g>
<circle fill="#808080" cx="120.1" cy="143.9" r="7"/>
<circle fill="#808080" cx="298.9" cy="233.9" r="7"/>
<g>
	<path d="M45.7,109.3c-2.9,0-5.3-1.7-5.3-6.7c0-4.3,2.6-6.7,5.7-6.7c2.8,0,5.3,1.6,5.3,6.6C51.3,106.9,48.7,109.3,45.7,109.3z
		 M45.8,97.5c-1.8,0-3.4,1.6-3.4,5c0,3.6,1.4,5.1,3.4,5.1c1.8,0,3.4-1.5,3.4-5C49.2,99.1,47.9,97.5,45.8,97.5z"/>
	<path d="M41.6,152.3v-1.8h4v-9.1l-3.7,2.4l-0.7-1.7l4.8-2.9h1.7v11.3h3.4v1.8H41.6z"/>
	<path d="M41.1,195.5v-1.6l3.1-2.8c2.7-2.3,3.4-3.2,3.4-4.7c0-1.4-0.8-2.4-2.7-2.4c-1.3,0-2.4,0.6-3.1,1.1l-0.4-1.7
		c1.1-0.7,2.4-1.1,4-1.1c2.9,0,4.4,1.6,4.4,3.8c0,1.8-1,3.2-3.3,5.3l-2.6,2.2l-0.1,0c1-0.1,3.4-0.1,6.6-0.1v1.9H41.1z"/>
	<path d="M44,240.7c-0.9,0-1.9-0.1-2.7-0.3l0.3-1.8c0.7,0.3,1.7,0.4,2.6,0.4c2.3,0,3.8-1.3,3.8-2.9c0-1.6-1.3-2.7-3.6-2.7
		c-0.7,0-1.3,0-1.9,0.1v-1.6h0.5c3.1,0,4.6-0.9,4.6-2.7c0-1.4-1.1-2.1-2.6-2.1c-1.2,0-2.2,0.3-3.1,0.8l-0.3-1.7
		c1.1-0.5,2.3-0.8,3.7-0.8c2.9,0,4.3,1.4,4.3,3.5c0,1.7-1.1,2.9-2.6,3.4l0,0c1.8,0.2,3.1,1.7,3.1,3.5
		C50.2,238.7,47.6,240.7,44,240.7z"/>
	<path d="M48.8,280.1v3.6h-1.9v-3.6h-6.6l-0.2-1.6l6-9.5h2.7v9.4h2.5v1.8H48.8z M46.9,270.7L46.9,270.7l-4.9,7.6c1.3,0,4,0,4.9,0
		V270.7z"/>
	<path d="M43.9,327.1c-0.7,0-1.6-0.1-2.4-0.2l0.2-1.7c0.7,0.2,1.7,0.3,2.4,0.3c2.6,0,4-1.5,4-3.2c0-1.8-1.5-2.8-3.9-2.8
		c-0.9,0-1.7,0.1-2.2,0.2v-7.4h7.6v1.9l-5.8,0v3.8c0.4,0,0.8,0,1.1,0c3.6,0,5.4,1.8,5.4,4.1C50.3,324.8,47.7,327.1,43.9,327.1z"/>
	<path d="M45.8,368.5c-3,0-4.9-2.3-4.9-6.2c0-6.2,3.1-8.8,7.2-8.8c0.4,0,1,0,1.3,0.1v1.7c-0.5-0.1-0.9-0.1-1.4-0.1
		c-2.8,0-4.3,1.6-4.9,4.6c-0.1,0.2-0.1,0.6-0.2,1.1h0c0.7-1.2,2-1.9,3.4-1.9c2.9,0,4.5,1.9,4.5,4.2
		C50.7,366.5,48.8,368.5,45.8,368.5z M45.9,360.7c-1.8,0-2.8,1.6-2.8,2.8c0,1.8,1,3.3,2.9,3.3c1.7,0,2.8-1.3,2.8-3.2
		C48.8,361.9,47.8,360.7,45.9,360.7z"/>
</g>
<line stroke="#000000" stroke-width="1.3" x1="76.4" y1="99.5" x2="67.9" y2="99.5"/>
<line stroke="#000000" stroke-width="1.3" x1="76.4" y1="144.3" x2="67.9" y2="144.3"/>
<line stroke="#000000" stroke-width="1.3" x1="76.4" y1="188.7" x2="67.9" y2="188.7"/>
<line stroke="#000000" stroke-width="1.3" x1="76.4" y1="233.2" x2="67.9" y2="233.2"/>
<line stroke="#000000" stroke-width="1.3" x1="76.4" y1="277.9" x2="67.9" y2="277.9"/>
<line stroke="#000000" stroke-width="1.3" x1="76.4" y1="323.1" x2="67.9" y2="323.1"/>
<line stroke="#000000" stroke-width="1.3" x1="76.4" y1="366.7" x2="67.9" y2="366.7"/>
<line stroke="#000000" stroke-width="1.3" x1="342.5" y1="99.4" x2="342.5" y2="90.8"/>
<line stroke="#000000" stroke-width="1.3" x1="297.7" y1="99.4" x2="297.7" y2="90.8"/>
<line stroke="#000000" stroke-width="1.3" x1="253.3" y1="99.4" x2="253.3" y2="90.8"/>
<line stroke="#000000" stroke-width="1.3" x1="208.8" y1="99.4" x2="208.8" y2="90.8"/>
<line stroke="#000000" stroke-width="1.3" x1="164.1" y1="99.4" x2="164.1" y2="90.8"/>
<line stroke="#000000" stroke-width="1.3" x1="118.9" y1="99.4" x2="118.9" y2="90.8"/>
<line stroke="#000000" stroke-width="1.3" x1="75.7" y1="99.4" x2="75.7" y2="90.8"/>
<polyline fill="#FFFFFF" stroke="#000000" stroke-width="1.3" points="15.1,181.2 9.8,186.5 4.5,181.2 "/>
<line fill="#FFFFFF" stroke="#000000" stroke-width="1.3" x1="9.8" y1="186.5" x2="9.8" y2="123.8"/>
<polyline fill="#FFFFFF" stroke="#000000" stroke-width="1.3" points="157.2,23.3 162.5,28.6 157.2,33.9 "/>
<line fill="#FFFFFF" stroke="#000000" stroke-width="1.3" x1="163.7" y1="28.6" x2="101" y2="28.6"/>
<g>
	<path d="M420.6,227.1c-2.5-0.4-3.6,1.3-3.6,4.7v2.9c0.6,0,1.3,0.2,1.9,0.3v1.2h-5.7V235c0.6-0.1,1.2-0.2,1.9-0.3v-7.8
		c-0.5-0.1-1.3-0.2-1.9-0.2v-1.2c1.1-0.1,2.6-0.2,3.8-0.2c0,0.7-0.1,1.7-0.2,2.5h0c0.5-1.5,1.6-3,3.9-2.7L420.6,227.1z"/>
	<path d="M430.9,230.8h-7c-0.1,2.8,1.1,4,3.4,4c1,0,2.1-0.2,3.1-0.6l0.3,1.5c-1.1,0.4-2.4,0.7-3.7,0.7c-3.3,0-5-1.7-5-5.5
		c0-3.2,1.8-5.6,4.8-5.6c3,0,4.3,2,4.3,4.4C431,229.9,431,230.3,430.9,230.8z M426.6,226.7c-1.4,0-2.4,1-2.6,2.7h5
		C429,227.7,428.1,226.7,426.6,226.7z"/>
	<path d="M437.7,236.3c-2.7,0-4.9-1.2-4.9-5.2c0-3.5,1.8-5.9,5.3-5.9c0.9,0,1.9,0.2,2.6,0.4v3.1h-1.2c-0.1-0.6-0.2-1.2-0.3-1.8
		c-0.4-0.1-0.9-0.2-1.4-0.2c-1.9,0-3,1.6-3,4c0,2.2,0.7,3.8,3.2,3.8c0.9,0,1.8-0.2,2.6-0.5l0.3,1.6C440.2,236,439,236.3,437.7,236.3
		z"/>
	<path d="M446.8,236.3c-2.2,0-2.9-0.9-2.9-3.2v-6.2h-2.2v-1.5h2.2v-3.5l1.9-0.5v4h3v1.5h-3v5.5c0,1.8,0.3,2.2,1.5,2.2
		c0.5,0,1-0.1,1.4-0.2l0.2,1.6C448.3,236.2,447.4,236.3,446.8,236.3z"/>
	<path d="M464.5,236.2V235c0.5-0.1,1.1-0.2,1.7-0.3l-1-7.5c-0.2-1.6-0.4-2.8-0.4-3.7h0c-0.2,0.7-0.3,1.6-0.7,2.5l-3.5,10h-1.8
		l-3.3-9.5c-0.4-1.1-0.6-2.2-0.8-3h0c0,1.1-0.2,2.4-0.3,3.7l-0.9,7.4c0.6,0,1.2,0.2,1.7,0.3v1.2h-5V235c0.4-0.1,1-0.2,1.3-0.2
		L453,223c-0.6,0-1.3-0.2-1.9-0.3v-1.2h4.6l3.1,8.9c0.3,0.8,0.6,2,0.8,2.9h0c0.2-1,0.5-1.8,0.8-2.8l3.1-9h4.7v1.2
		c-0.6,0.1-1.2,0.2-1.9,0.3l1.8,11.7c0.4,0,1,0.2,1.3,0.2v1.2H464.5z"/>
	<path d="M475.6,236.3c-2.9,0-4.8-1.7-4.8-5.4c0-3.2,2-5.7,5.2-5.7c2.7,0,4.8,1.5,4.8,5.4C480.8,233.8,478.8,236.3,475.6,236.3z
		 M475.8,226.8c-1.6,0-3,1.2-3,4c0,2.5,1,3.9,3,3.9c1.6,0,3-1.3,3-3.9C478.8,228.3,477.8,226.8,475.8,226.8z"/>
	<path d="M490,236.2c0-0.6,0-1.6,0.2-2.2l0,0c-0.6,1.4-1.9,2.4-3.6,2.4c-2.6,0-4-1.9-4-5.1c0-3.8,2.2-6,5.6-6c0.6,0,1.2,0,1.8,0.1
		v-3.5c-0.5-0.1-1.3-0.2-1.9-0.2v-1.2c1.1-0.1,2.6-0.2,3.8-0.2v14.2c0.5,0.1,1.2,0.2,1.8,0.2v1.2C492.7,236.1,491.2,236.2,490,236.2
		z M489.9,227c-0.6-0.2-1.3-0.2-1.9-0.2c-2.1,0-3.4,1.2-3.4,4.3c0,2.3,0.8,3.6,2.4,3.6c1.9,0,2.9-2.3,2.9-4.1V227z"/>
	<path d="M503.9,230.8h-7c-0.1,2.8,1.1,4,3.4,4c1,0,2.1-0.2,3.1-0.6l0.3,1.5c-1.1,0.4-2.4,0.7-3.7,0.7c-3.3,0-5-1.7-5-5.5
		c0-3.2,1.8-5.6,4.8-5.6c3,0,4.3,2,4.3,4.4C504,229.9,503.9,230.3,503.9,230.8z M499.6,226.7c-1.4,0-2.4,1-2.6,2.7h5
		C502,227.7,501.1,226.7,499.6,226.7z"/>
	<path d="M514.3,240.7c-2.5-4-3.2-7.5-3.2-10.7c0-3.2,0.7-6.9,3.2-10.7l1.4,0.7c-1.8,3-2.7,6.4-2.7,10c0,3.7,0.9,7,2.7,10
		L514.3,240.7z"/>
	<path d="M528.5,236.3c-4.4,0-6.7-2.7-6.7-7.1c0-4.5,2.3-7.8,7.1-7.8c1.2,0,2.4,0.2,3.5,0.4v3.6H531c-0.2-0.7-0.2-1.4-0.3-2
		c-0.8-0.2-1.4-0.3-2.1-0.3c-3.1,0-4.6,2.5-4.6,5.7c0,3.5,1.6,5.7,5,5.7c1.2,0,2.5-0.3,3.4-0.7l0.3,1.7
		C531.5,236,530,236.3,528.5,236.3z"/>
	<path d="M540.6,236.4c-4.3,0-6.5-2.9-6.5-7.3c0-4.9,3.1-7.7,6.9-7.7c4.3,0,6.5,2.9,6.5,7.3C547.5,233.6,544.4,236.4,540.6,236.4z
		 M540.8,223.1c-2.6,0-4.6,2-4.6,5.6c0,3.5,1.5,5.9,4.6,5.9c2.6,0,4.6-2,4.6-5.6C545.4,225.5,543.9,223.1,540.8,223.1z"/>
	<path d="M557.9,236.2l-3.9-6.5h-1.1v5.1c0.5,0,1.1,0.1,1.6,0.3v1.2H549V235c0.6-0.1,1.2-0.2,1.9-0.3V223c-0.6,0-1.3-0.2-1.9-0.3
		v-1.2h1.7c0.6,0,2.4-0.1,4-0.1c3.1,0,5.1,1,5.1,3.9c0,2.3-1.6,3.6-3.9,4c0.3,0.4,0.7,0.9,1,1.3l2.5,4c0.5,0.1,1.1,0.2,1.7,0.3v1.2
		H557.9z M554.4,223.1c-0.4,0-1.1,0-1.5,0.1v5h1.7c2.1,0,3.3-1,3.3-2.6C557.8,223.8,556.7,223.1,554.4,223.1z"/>
	<path d="M575.7,223v13.1h-2.7l-5.6-9.2c-0.6-1.1-1.2-2.2-1.7-3.2c0.2,2.5,0.2,6.3,0.2,10.9c0.6,0,1.2,0.2,1.7,0.3v1.2h-5.5V235
		c0.6-0.1,1.2-0.3,1.9-0.3V223c-0.6,0-1.3-0.2-1.9-0.3v-1.2h4.6l5.6,9.1c0.6,1,1.2,2.2,1.7,3.2c-0.2-2.5-0.2-6.3-0.2-10.8
		c-0.6,0-1.2-0.2-1.7-0.3v-1.2h5.1v1.2C576.8,222.9,576.3,223,575.7,223z"/>
	<path d="M578.8,236.2V235c0.6-0.1,1.2-0.2,1.9-0.3V223c-0.6,0-1.3-0.2-1.9-0.3v-1.2h9.4v3.4h-1.4c-0.1-0.7-0.2-1.3-0.3-1.8h-3.9
		v4.8h3.1c0.1-0.5,0.2-1,0.3-1.5h1.2v4.4h-1.2c-0.1-0.5-0.2-1-0.3-1.5h-3.1v5.2h3.9c0.1-0.6,0.2-1.2,0.3-1.9h1.4v3.5H578.8z"/>
	<path d="M599.1,236.2l-3.9-6.5h-1.1v5.1c0.5,0,1.1,0.1,1.6,0.3v1.2h-5.5V235c0.6-0.1,1.2-0.2,1.9-0.3V223c-0.6,0-1.3-0.2-1.9-0.3
		v-1.2h1.7c0.6,0,2.4-0.1,4-0.1c3.1,0,5.1,1,5.1,3.9c0,2.3-1.6,3.6-3.9,4c0.3,0.4,0.7,0.9,1,1.3l2.5,4c0.5,0.1,1.1,0.2,1.7,0.3v1.2
		H599.1z M595.6,223.1c-0.4,0-1.1,0-1.5,0.1v5h1.7c2.1,0,3.3-1,3.3-2.6C599.1,223.8,598,223.1,595.6,223.1z"/>
	<path d="M607.2,236.3c-1.1,0-2.2-0.1-3.1-0.4v-3.5h1.4c0.1,0.7,0.2,1.4,0.3,1.9c0.5,0.1,1,0.2,1.6,0.2c1.7,0,3.1-0.7,3.1-2.5
		c0-3.3-6.7-2-6.7-6.7c0-2.4,1.9-4.1,5.2-4.1c1,0,1.9,0.1,2.8,0.3v3.3h-1.4c-0.1-0.7-0.2-1.4-0.3-1.9c-0.3-0.1-0.8-0.1-1.3-0.1
		c-1.9,0-2.9,0.9-2.9,2.3c0,3.2,6.7,2,6.7,6.6C612.6,234.5,610.5,236.3,607.2,236.3z"/>
	<path d="M620.4,240.7l-1.4-0.7c1.8-3,2.7-6.4,2.7-9.9c0-3.7-0.9-7-2.7-10.1l1.5-0.7c2.5,4,3.1,7.5,3.1,10.6
		C623.5,233.1,622.8,236.8,620.4,240.7z"/>
	<path d="M632,239.5l-0.8-0.7c1.4-1.5,1.4-2.5,0.9-3.1c-0.6-0.8-0.1-1.9,0.9-1.9C634.6,233.7,635.3,236.4,632,239.5z M633.1,230
		c-0.7,0-1.3-0.6-1.3-1.3c0-0.7,0.6-1.3,1.3-1.3c0.7,0,1.3,0.6,1.3,1.3C634.4,229.4,633.8,230,633.1,230z"/>
	<path d="M420.6,253.1c-2.5-0.4-3.6,1.3-3.6,4.7v2.9c0.6,0,1.3,0.2,1.9,0.3v1.2h-5.7v-1.2c0.6-0.1,1.2-0.2,1.9-0.3v-7.8
		c-0.5-0.1-1.3-0.2-1.9-0.2v-1.2c1.1-0.1,2.6-0.2,3.8-0.2c0,0.7-0.1,1.7-0.2,2.5h0c0.5-1.5,1.6-3,3.9-2.7L420.6,253.1z"/>
	<path d="M430.9,256.7h-7c-0.1,2.8,1.1,4,3.4,4c1,0,2.1-0.2,3.1-0.6l0.3,1.5c-1.1,0.4-2.4,0.7-3.7,0.7c-3.3,0-5-1.7-5-5.5
		c0-3.2,1.8-5.6,4.8-5.6c3,0,4.3,2,4.3,4.4C431,255.8,431,256.2,430.9,256.7z M426.6,252.6c-1.4,0-2.4,1-2.6,2.7h5
		C429,253.6,428.1,252.6,426.6,252.6z"/>
	<path d="M437.7,262.2c-2.7,0-4.9-1.2-4.9-5.2c0-3.5,1.8-5.9,5.3-5.9c0.9,0,1.9,0.2,2.6,0.4v3.1h-1.2c-0.1-0.6-0.2-1.2-0.3-1.8
		c-0.4-0.1-0.9-0.2-1.4-0.2c-1.9,0-3,1.6-3,4c0,2.2,0.7,3.8,3.2,3.8c0.9,0,1.8-0.2,2.6-0.5l0.3,1.6C440.2,262,439,262.2,437.7,262.2
		z"/>
	<path d="M446.8,262.2c-2.2,0-2.9-0.9-2.9-3.2v-6.2h-2.2v-1.5h2.2v-3.5l1.9-0.5v4h3v1.5h-3v5.5c0,1.8,0.3,2.2,1.5,2.2
		c0.5,0,1-0.1,1.4-0.2l0.2,1.6C448.3,262.2,447.4,262.2,446.8,262.2z"/>
	<path d="M454.3,266.6c-2.5-4-3.2-7.5-3.2-10.7c0-3.2,0.7-6.9,3.2-10.7l1.4,0.7c-1.8,3-2.7,6.4-2.7,10c0,3.7,0.9,7,2.7,10
		L454.3,266.6z"/>
	<path d="M469,262.1l-2.4-4l-2.4,4h-3.2v-1.2c0.6-0.1,1.3-0.3,1.8-0.3l2.6-3.9l-2.5-3.9c-0.6,0-1.2-0.2-1.8-0.3v-1.2h3.3l2.3,3.9
		l2.3-3.9h3.1v1.2c-0.6,0.1-1.3,0.3-1.8,0.3l-2.4,3.8l2.6,4c0.6,0,1.2,0.2,1.8,0.3v1.2H469z"/>
	<path d="M474.9,262.1v-1.8h4v-9.1l-3.7,2.4l-0.7-1.7l4.8-2.9h1.7v11.3h3.4v1.8H474.9z"/>
	<path d="M491.7,265.4l-0.8-0.7c1.4-1.5,1.4-2.5,0.9-3.1c-0.6-0.8-0.1-1.9,0.9-1.9C494.3,259.6,495,262.4,491.7,265.4z"/>
	<path d="M509.6,252.8l-3.8,10.5c-1.2,3.3-2.3,4.4-4.7,4.4c-0.4,0-1,0-1.5-0.1l0.2-1.8c0.5,0.2,0.9,0.2,1.4,0.2
		c1.2,0,1.8-0.6,2.6-2.7l0.5-1.2h-0.5l-3.3-9.3c-0.5,0-1-0.1-1.4-0.3v-1.2h4.9v1.2c-0.4,0.1-0.9,0.2-1.4,0.3l1.6,4.6
		c0.3,1,0.6,1.8,0.8,2.7h0c0.2-0.7,0.6-2,1-3.2l1.4-4.1c-0.5,0-1-0.1-1.4-0.3v-1.2h4.8v1.2C510.5,252.6,510.1,252.7,509.6,252.8z"/>
	<path d="M513.3,262.1v-1.8h4v-9.1l-3.7,2.4l-0.7-1.7l4.8-2.9h1.7v11.3h3.4v1.8H513.3z"/>
	<path d="M530.2,265.4l-0.8-0.7c1.4-1.5,1.4-2.5,0.9-3.1c-0.6-0.8-0.1-1.9,0.9-1.9C532.8,259.6,533.5,262.4,530.2,265.4z"/>
	<path d="M545.6,262.1l-2.4-4l-2.4,4h-3.2v-1.2c0.6-0.1,1.3-0.3,1.8-0.3l2.6-3.9l-2.5-3.9c-0.6,0-1.2-0.2-1.8-0.3v-1.2h3.3l2.3,3.9
		l2.3-3.9h3.1v1.2c-0.6,0.1-1.3,0.3-1.8,0.3l-2.4,3.8l2.6,4c0.6,0,1.2,0.2,1.8,0.3v1.2H545.6z"/>
	<path d="M551,262.1v-1.6l3.1-2.8c2.7-2.3,3.4-3.2,3.4-4.7c0-1.4-0.8-2.4-2.7-2.4c-1.3,0-2.4,0.6-3.1,1.1l-0.4-1.7
		c1.1-0.7,2.4-1.1,4-1.1c2.9,0,4.4,1.6,4.4,3.8c0,1.8-1,3.2-3.3,5.3l-2.6,2.2l-0.1,0c1-0.1,3.4-0.1,6.6-0.1v1.9H551z"/>
	<path d="M568.3,265.4l-0.8-0.7c1.4-1.5,1.4-2.5,0.9-3.1c-0.6-0.8-0.1-1.9,0.9-1.9C570.9,259.6,571.6,262.4,568.3,265.4z"/>
	<path d="M586.2,252.8l-3.8,10.5c-1.2,3.3-2.3,4.4-4.7,4.4c-0.4,0-1,0-1.5-0.1l0.2-1.8c0.5,0.2,0.9,0.2,1.4,0.2
		c1.2,0,1.8-0.6,2.6-2.7l0.5-1.2h-0.5l-3.3-9.3c-0.5,0-1-0.1-1.4-0.3v-1.2h4.9v1.2c-0.4,0.1-0.9,0.2-1.4,0.3l1.6,4.6
		c0.3,1,0.6,1.8,0.8,2.7h0c0.2-0.7,0.6-2,1-3.2l1.4-4.1c-0.5,0-1-0.1-1.4-0.3v-1.2h4.8v1.2C587.1,252.6,586.7,252.7,586.2,252.8z"/>
	<path d="M589.5,262.1v-1.6l3.1-2.8c2.7-2.3,3.4-3.2,3.4-4.7c0-1.4-0.8-2.4-2.7-2.4c-1.3,0-2.4,0.6-3.1,1.1l-0.4-1.7
		c1.1-0.7,2.4-1.1,4-1.1c2.9,0,4.4,1.6,4.4,3.8c0,1.8-1,3.2-3.3,5.3l-2.6,2.2l-0.1,0c1-0.1,3.4-0.1,6.6-0.1v1.9H589.5z"/>
	<path d="M607.3,266.6l-1.4-0.7c1.8-3,2.7-6.4,2.7-9.9c0-3.7-0.9-7-2.7-10.1l1.5-0.7c2.5,4,3.1,7.5,3.1,10.6
		C610.5,259,609.8,262.7,607.3,266.6z"/>
	<path d="M619,265.4l-0.8-0.7c1.4-1.5,1.4-2.5,0.9-3.1c-0.6-0.8-0.1-1.9,0.9-1.9C621.6,259.6,622.3,262.4,619,265.4z M620,255.9
		c-0.7,0-1.3-0.6-1.3-1.3c0-0.7,0.6-1.3,1.3-1.3c0.7,0,1.3,0.6,1.3,1.3C621.4,255.4,620.8,255.9,620,255.9z"/>
</g>
<g>
	<path d="M136,139.6c-3.6-3.3-5.3-6.7-5.3-10.9c0-4.4,2.1-8.1,5.4-11l1.1,1.1c-2.9,2.9-4.5,6.2-4.5,9.7c0,3.6,1.5,6.9,4.5,9.9
		L136,139.6z"/>
	<path d="M142.4,134.8V133h4v-9.1l-3.7,2.4l-0.7-1.7l4.8-2.9h1.7V133h3.4v1.8H142.4z"/>
	<path d="M156,137.6c2.2-0.6,2.9-1.6,2.9-2.4c0-1.4-1.1-1.4-1.1-2.5c0-0.9,0.6-1.6,1.5-1.6c1.4,0,2,1.3,2,2.7c0,2.7-1.8,4.3-5,5
		L156,137.6z"/>
	<path d="M168.3,134.8V133h4v-9.1l-3.7,2.4l-0.7-1.7l4.8-2.9h1.7V133h3.4v1.8H168.3z"/>
	<path d="M183.3,117.7c3.6,3.3,5.3,6.7,5.3,10.9c0,4.4-2.1,8.1-5.4,11l-1.1-1.1c2.9-2.9,4.5-6.2,4.5-9.7c0-3.6-1.5-6.9-4.5-9.9
		L183.3,117.7z"/>
</g>
<g>
	<path d="M310,265.6c-3.6-3.3-5.3-6.7-5.3-10.9c0-4.4,2.1-8.1,5.4-11l1.1,1.1c-2.9,2.9-4.5,6.2-4.5,9.7c0,3.6,1.5,6.9,4.5,9.9
		L310,265.6z"/>
	<path d="M318.7,262.8c-0.7,0-1.6-0.1-2.4-0.2l0.2-1.7c0.7,0.2,1.7,0.3,2.4,0.3c2.6,0,4-1.5,4-3.2c0-1.8-1.5-2.8-3.9-2.8
		c-0.9,0-1.7,0.1-2.2,0.2v-7.4h7.6v1.9l-5.8,0v3.8c0.4,0,0.8,0,1.1,0c3.6,0,5.4,1.8,5.4,4.1C325,260.5,322.5,262.8,318.7,262.8z"/>
	<path d="M330,263.6c2.2-0.6,2.9-1.6,2.9-2.4c0-1.4-1.1-1.4-1.1-2.5c0-0.9,0.6-1.6,1.5-1.6c1.4,0,2,1.3,2,2.7c0,2.7-1.8,4.3-5,5
		L330,263.6z"/>
	<path d="M344.7,262.8c-0.9,0-1.9-0.1-2.7-0.3l0.3-1.8c0.7,0.3,1.7,0.4,2.6,0.4c2.3,0,3.8-1.3,3.8-2.9c0-1.6-1.3-2.7-3.6-2.7
		c-0.7,0-1.3,0-1.9,0.1V254h0.5c3.1,0,4.6-0.9,4.6-2.7c0-1.4-1.1-2.1-2.6-2.1c-1.2,0-2.2,0.3-3.1,0.8l-0.3-1.7
		c1.1-0.5,2.3-0.8,3.7-0.8c2.9,0,4.3,1.4,4.3,3.5c0,1.7-1.1,2.9-2.6,3.4l0,0c1.8,0.2,3.1,1.7,3.1,3.5
		C350.9,260.7,348.3,262.8,344.7,262.8z"/>
	<path d="M357.3,243.7c3.6,3.3,5.3,6.7,5.3,10.9c0,4.4-2.1,8.1-5.4,11l-1.1-1.1c2.9-2.9,4.5-6.2,4.5-9.7c0-3.6-1.5-6.9-4.5-9.9
		L357.3,243.7z"/>
</g>
<line fill="none" stroke="#000000" stroke-width="2" x1="119.7" y1="143.9" x2="299.5" y2="143.9"/>
<line fill="none" stroke="#000000" stroke-width="2" x1="118.5" y1="233.9" x2="298.3" y2="233.9"/>
<line fill="none" stroke="#000000" stroke-width="2" x1="298.4" y1="233.3" x2="298.4" y2="143.2"/>
<line fill="none" stroke="#000000" stroke-width="2" x1="119.6" y1="233.9" x2="119.6" y2="144.4"/>
<g>
	<path fill="#808080" d="M61.7,427.7v-1.2c0.6-0.1,1.2-0.2,1.9-0.3v-11.7c-0.6,0-1.3-0.2-1.9-0.3v-1.2h9.4v3.4h-1.4
		c-0.1-0.7-0.2-1.3-0.3-1.8h-3.9v4.8h3.1c0.1-0.5,0.2-1,0.3-1.5h1.2v4.4h-1.2c-0.1-0.5-0.2-1-0.3-1.5h-3.1v5.2h3.9
		c0.1-0.6,0.2-1.2,0.3-1.9h1.4v3.5H61.7z"/>
	<path fill="#808080" d="M80.7,427.7l-2.4-4l-2.4,4h-3.2v-1.2c0.6-0.1,1.3-0.3,1.8-0.3l2.6-3.9l-2.5-3.9c-0.6,0-1.2-0.2-1.8-0.3
		v-1.2h3.3l2.3,3.9l2.3-3.9h3.1v1.2c-0.6,0.1-1.3,0.3-1.8,0.3l-2.4,3.8l2.6,4c0.6,0,1.2,0.2,1.8,0.3v1.2H80.7z"/>
	<path fill="#808080" d="M91.7,427.7c0-0.8,0-1.5,0.1-2.1h0c-0.5,1.3-1.9,2.3-3.7,2.3c-1.8,0-3-1.1-3-2.8c0-2.3,2.4-3.7,6.4-3.7
		v-0.8c0-1.5-0.5-2.4-2.2-2.4c-0.6,0-1.4,0.1-2,0.3c0,0.5-0.2,1.1-0.3,1.8h-1.2v-2.9c1.1-0.3,2.4-0.6,3.7-0.6c3.2,0,4,1.4,4,3.6v5.8
		c0.5,0.1,1.2,0.2,1.8,0.2v1.2C94.4,427.6,92.9,427.7,91.7,427.7z M91.6,422.7c-3.4,0-4.5,0.8-4.5,2c0,0.9,0.6,1.6,1.6,1.6
		c1.7,0,2.9-1.7,2.9-3.4V422.7z"/>
	<path fill="#808080" d="M111.7,427.7v-6.9c0-1.5-0.3-2.4-1.7-2.4c-1.5,0-3,1.6-3,4.2v3.7c0.6,0,1.2,0.1,1.8,0.3v1.2H105v-6.9
		c0-1.4-0.3-2.4-1.8-2.4c-1.6,0-3,1.8-3,4.2v3.7c0.6,0,1.2,0.1,1.7,0.3v1.2h-5.6v-1.2c0.6-0.1,1.2-0.2,1.9-0.3v-7.8
		c-0.5-0.1-1.3-0.2-1.9-0.2v-1.2c1.1-0.1,2.6-0.2,3.8-0.2c0,0.6-0.1,1.6-0.2,2.3l0,0c0.6-1.5,2-2.5,3.7-2.5c2.3,0,2.9,1.6,3,2.4
		c0.4-1,1.6-2.4,3.7-2.4c2,0,3.2,1.1,3.2,3.5v6c0.6,0,1.3,0.2,1.8,0.3v1.2H111.7z"/>
	<path fill="#808080" d="M121.6,427.8c-0.7,0-1.2,0-1.8-0.1v3.9c0.6,0,1.3,0.2,1.9,0.3v1.2H116v-1.2c0.6-0.1,1.1-0.2,1.8-0.3v-13.1
		c-0.5-0.1-1.2-0.2-1.8-0.2v-1.2c1.1-0.1,2.5-0.2,3.7-0.2c0,0.6-0.1,1.6-0.2,2.2l0,0c0.6-1.5,1.9-2.4,3.6-2.4c2.5,0,4,1.8,4,5.1
		C127.1,425.6,125.1,427.8,121.6,427.8z M122.7,418.3c-1.9,0-2.9,2.3-2.9,4.1v3.5c0.6,0.2,1.2,0.3,1.9,0.3c2,0,3.4-1.2,3.4-4.3
		C125.1,419.6,124.3,418.3,122.7,418.3z"/>
	<path fill="#808080" d="M128.4,427.7v-1.2c0.5-0.1,1.2-0.2,1.8-0.3v-12.8c-0.5-0.1-1.2-0.2-1.9-0.2V412c1.1-0.1,2.5-0.2,3.8-0.2
		v14.3c0.6,0,1.3,0.2,1.8,0.3v1.2H128.4z"/>
	<path fill="#808080" d="M144.2,422.3h-7c-0.1,2.8,1.1,4,3.4,4c1,0,2.1-0.2,3.1-0.6l0.3,1.5c-1.1,0.4-2.4,0.7-3.7,0.7
		c-3.3,0-5-1.7-5-5.5c0-3.2,1.8-5.6,4.8-5.6c3,0,4.3,2,4.3,4.4C144.3,421.4,144.2,421.8,144.2,422.3z M139.9,418.2
		c-1.4,0-2.4,1-2.6,2.7h5C142.3,419.2,141.4,418.2,139.9,418.2z"/>
	<path fill="#808080" d="M148.7,421.5c-0.7,0-1.3-0.6-1.3-1.3c0-0.7,0.6-1.3,1.3-1.3c0.7,0,1.3,0.6,1.3,1.3
		C150,420.9,149.4,421.5,148.7,421.5z M148.7,427.9c-0.7,0-1.3-0.6-1.3-1.3c0-0.7,0.6-1.3,1.3-1.3c0.7,0,1.3,0.6,1.3,1.3
		C150,427.3,149.4,427.9,148.7,427.9z"/>
	<path d="M167.8,418.7c-2.5-0.4-3.6,1.3-3.6,4.7v2.9c0.6,0,1.3,0.2,1.9,0.3v1.2h-5.7v-1.2c0.6-0.1,1.2-0.2,1.9-0.3v-7.8
		c-0.5-0.1-1.3-0.2-1.9-0.2v-1.2c1.1-0.1,2.6-0.2,3.8-0.2c0,0.7-0.1,1.7-0.2,2.5h0c0.5-1.5,1.6-3,3.9-2.7L167.8,418.7z"/>
	<path d="M178.2,422.3h-7c-0.1,2.8,1.1,4,3.4,4c1,0,2.1-0.2,3.1-0.6l0.3,1.5c-1.1,0.4-2.4,0.7-3.7,0.7c-3.3,0-5-1.7-5-5.5
		c0-3.2,1.8-5.6,4.8-5.6c3,0,4.3,2,4.3,4.4C178.3,421.4,178.3,421.8,178.2,422.3z M173.9,418.2c-1.4,0-2.4,1-2.6,2.7h5
		C176.3,419.2,175.4,418.2,173.9,418.2z"/>
	<path d="M185,427.8c-2.7,0-4.9-1.2-4.9-5.2c0-3.5,1.8-5.9,5.3-5.9c0.9,0,1.9,0.2,2.6,0.4v3.1h-1.2c-0.1-0.6-0.2-1.2-0.3-1.8
		c-0.4-0.1-0.9-0.2-1.4-0.2c-1.9,0-3,1.6-3,4c0,2.2,0.7,3.8,3.2,3.8c0.9,0,1.8-0.2,2.6-0.5l0.3,1.6
		C187.5,427.6,186.3,427.8,185,427.8z"/>
	<path d="M194,427.8c-2.2,0-2.9-0.9-2.9-3.2v-6.2H189v-1.5h2.2v-3.5l1.9-0.5v4h3v1.5h-3v5.5c0,1.8,0.3,2.2,1.5,2.2
		c0.5,0,1-0.1,1.4-0.2l0.2,1.6C195.6,427.7,194.7,427.8,194,427.8z"/>
	<path d="M211.8,427.7v-1.2c0.5-0.1,1.1-0.2,1.7-0.3l-1-7.5c-0.2-1.6-0.4-2.8-0.4-3.7h0c-0.2,0.7-0.3,1.6-0.7,2.5l-3.5,10H206
		l-3.3-9.5c-0.4-1.1-0.6-2.2-0.8-3h0c0,1.1-0.2,2.4-0.3,3.7l-0.9,7.4c0.6,0,1.2,0.2,1.7,0.3v1.2h-5v-1.2c0.4-0.1,1-0.2,1.3-0.2
		l1.7-11.7c-0.6,0-1.3-0.2-1.9-0.3v-1.2h4.6l3.1,8.9c0.3,0.8,0.6,2,0.8,2.9h0c0.2-1,0.5-1.8,0.8-2.8l3.1-9h4.7v1.2
		c-0.6,0.1-1.2,0.2-1.9,0.3l1.8,11.7c0.4,0,1,0.2,1.3,0.2v1.2H211.8z"/>
	<path d="M222.9,427.9c-2.9,0-4.8-1.7-4.8-5.4c0-3.2,2-5.7,5.2-5.7c2.7,0,4.8,1.5,4.8,5.4C228.1,425.4,226.1,427.9,222.9,427.9z
		 M223.1,418.3c-1.6,0-3,1.2-3,4c0,2.5,1,3.9,3,3.9c1.6,0,3-1.3,3-3.9C226.1,419.8,225,418.3,223.1,418.3z"/>
	<path d="M237.3,427.7c0-0.6,0-1.6,0.2-2.2l0,0c-0.6,1.4-1.9,2.4-3.6,2.4c-2.6,0-4-1.9-4-5.1c0-3.8,2.2-6,5.6-6c0.6,0,1.2,0,1.8,0.1
		v-3.5c-0.5-0.1-1.3-0.2-1.9-0.2V412c1.1-0.1,2.6-0.2,3.8-0.2v14.2c0.5,0.1,1.2,0.2,1.8,0.2v1.2C240,427.6,238.5,427.7,237.3,427.7z
		 M237.2,418.5c-0.6-0.2-1.3-0.2-1.9-0.2c-2.1,0-3.4,1.2-3.4,4.3c0,2.3,0.8,3.6,2.4,3.6c1.9,0,2.9-2.3,2.9-4.1V418.5z"/>
	<path d="M251.2,422.3h-7c-0.1,2.8,1.1,4,3.4,4c1,0,2.1-0.2,3.1-0.6l0.3,1.5c-1.1,0.4-2.4,0.7-3.7,0.7c-3.3,0-5-1.7-5-5.5
		c0-3.2,1.8-5.6,4.8-5.6c3,0,4.3,2,4.3,4.4C251.2,421.4,251.2,421.8,251.2,422.3z M246.9,418.2c-1.4,0-2.4,1-2.6,2.7h5
		C249.3,419.2,248.4,418.2,246.9,418.2z"/>
	<path d="M261.6,432.2c-2.5-4-3.2-7.5-3.2-10.7c0-3.2,0.7-6.9,3.2-10.7l1.4,0.7c-1.8,3-2.7,6.4-2.7,10c0,3.7,0.9,7,2.7,10
		L261.6,432.2z"/>
	<path d="M275.8,427.9c-4.4,0-6.7-2.7-6.7-7.1c0-4.5,2.3-7.8,7.1-7.8c1.2,0,2.4,0.2,3.5,0.4v3.6h-1.4c-0.2-0.7-0.2-1.4-0.3-2
		c-0.8-0.2-1.4-0.3-2.1-0.3c-3.1,0-4.6,2.5-4.6,5.7c0,3.5,1.6,5.7,5,5.7c1.2,0,2.5-0.3,3.4-0.7l0.3,1.7
		C278.8,427.5,277.3,427.9,275.8,427.9z"/>
	<path d="M287.9,427.9c-4.3,0-6.5-2.9-6.5-7.3c0-4.9,3.1-7.7,6.9-7.7c4.3,0,6.5,2.9,6.5,7.3C294.8,425.1,291.7,427.9,287.9,427.9z
		 M288.1,414.6c-2.6,0-4.6,2-4.6,5.6c0,3.5,1.5,5.9,4.6,5.9c2.6,0,4.6-2,4.6-5.6C292.7,417,291.2,414.6,288.1,414.6z"/>
	<path d="M305.2,427.7l-3.9-6.5h-1.1v5.1c0.5,0,1.1,0.1,1.6,0.3v1.2h-5.5v-1.2c0.6-0.1,1.2-0.2,1.9-0.3v-11.7
		c-0.6,0-1.3-0.2-1.9-0.3v-1.2h1.7c0.6,0,2.4-0.1,4-0.1c3.1,0,5.1,1,5.1,3.9c0,2.3-1.6,3.6-3.9,4c0.3,0.4,0.7,0.9,1,1.3l2.5,4
		c0.5,0.1,1.1,0.2,1.7,0.3v1.2H305.2z M301.7,414.6c-0.4,0-1.1,0-1.5,0.1v5h1.7c2.1,0,3.3-1,3.3-2.6
		C305.1,415.3,304,414.6,301.7,414.6z"/>
	<path d="M323,414.5v13.1h-2.7l-5.6-9.2c-0.6-1.1-1.2-2.2-1.7-3.2c0.2,2.5,0.2,6.3,0.2,10.9c0.6,0,1.2,0.2,1.7,0.3v1.2h-5.5v-1.2
		c0.6-0.1,1.2-0.3,1.9-0.3v-11.7c-0.6,0-1.3-0.2-1.9-0.3v-1.2h4.6l5.6,9.1c0.6,1,1.2,2.2,1.7,3.2c-0.2-2.5-0.2-6.3-0.2-10.8
		c-0.6,0-1.2-0.2-1.7-0.3v-1.2h5.1v1.2C324.1,414.4,323.5,414.5,323,414.5z"/>
	<path d="M326.1,427.7v-1.2c0.6-0.1,1.2-0.2,1.9-0.3v-11.7c-0.6,0-1.3-0.2-1.9-0.3v-1.2h9.4v3.4h-1.4c-0.1-0.7-0.2-1.3-0.3-1.8h-3.9
		v4.8h3.1c0.1-0.5,0.2-1,0.3-1.5h1.2v4.4h-1.2c-0.1-0.5-0.2-1-0.3-1.5h-3.1v5.2h3.9c0.1-0.6,0.2-1.2,0.3-1.9h1.4v3.5H326.1z"/>
	<path d="M346.4,427.7l-3.9-6.5h-1.1v5.1c0.5,0,1.1,0.1,1.6,0.3v1.2h-5.5v-1.2c0.6-0.1,1.2-0.2,1.9-0.3v-11.7
		c-0.6,0-1.3-0.2-1.9-0.3v-1.2h1.7c0.6,0,2.4-0.1,4-0.1c3.1,0,5.1,1,5.1,3.9c0,2.3-1.6,3.6-3.9,4c0.3,0.4,0.7,0.9,1,1.3l2.5,4
		c0.5,0.1,1.1,0.2,1.7,0.3v1.2H346.4z M342.9,414.6c-0.4,0-1.1,0-1.5,0.1v5h1.7c2.1,0,3.3-1,3.3-2.6
		C346.3,415.3,345.2,414.6,342.9,414.6z"/>
	<path d="M354.5,427.9c-1.1,0-2.2-0.1-3.1-0.4V424h1.4c0.1,0.7,0.2,1.4,0.3,1.9c0.5,0.1,1,0.2,1.6,0.2c1.7,0,3.1-0.7,3.1-2.5
		c0-3.3-6.7-2-6.7-6.7c0-2.4,1.9-4.1,5.2-4.1c1,0,1.9,0.1,2.8,0.3v3.3h-1.4c-0.1-0.7-0.2-1.4-0.3-1.9c-0.3-0.1-0.8-0.1-1.3-0.1
		c-1.9,0-2.9,0.9-2.9,2.3c0,3.2,6.7,2,6.7,6.6C359.9,426,357.8,427.9,354.5,427.9z"/>
	<path d="M367.6,432.2l-1.4-0.7c1.8-3,2.7-6.4,2.7-9.9c0-3.7-0.9-7-2.7-10.1l1.5-0.7c2.5,4,3.1,7.5,3.1,10.6
		C370.8,424.6,370.1,428.3,367.6,432.2z"/>
	<path d="M379.3,431l-0.8-0.7c1.4-1.5,1.4-2.5,0.9-3.1c-0.6-0.8-0.1-1.9,0.9-1.9C381.9,425.2,382.6,427.9,379.3,431z M380.3,421.5
		c-0.7,0-1.3-0.6-1.3-1.3c0-0.7,0.6-1.3,1.3-1.3s1.3,0.6,1.3,1.3C381.7,420.9,381.1,421.5,380.3,421.5z"/>
	<path d="M169.6,444.6c-2.5-0.4-3.6,1.3-3.6,4.7v2.9c0.6,0,1.3,0.2,1.9,0.3v1.2h-5.7v-1.2c0.6-0.1,1.2-0.2,1.9-0.3v-7.8
		c-0.5-0.1-1.3-0.2-1.9-0.2V443c1.1-0.1,2.6-0.2,3.8-0.2c0,0.7-0.1,1.7-0.2,2.5h0c0.5-1.5,1.6-3,3.9-2.7L169.6,444.6z"/>
	<path d="M180,448.2h-7c-0.1,2.8,1.1,4,3.4,4c1,0,2.1-0.2,3.1-0.6l0.3,1.5c-1.1,0.4-2.4,0.7-3.7,0.7c-3.3,0-5-1.7-5-5.5
		c0-3.2,1.8-5.6,4.8-5.6c3,0,4.3,2,4.3,4.4C180,447.3,180,447.7,180,448.2z M175.6,444.1c-1.4,0-2.4,1-2.6,2.7h5
		C178.1,445.2,177.2,444.1,175.6,444.1z"/>
	<path d="M186.8,453.8c-2.7,0-4.9-1.2-4.9-5.2c0-3.5,1.8-5.9,5.3-5.9c0.9,0,1.9,0.2,2.6,0.4v3.1h-1.2c-0.1-0.6-0.2-1.2-0.3-1.8
		c-0.4-0.1-0.9-0.2-1.4-0.2c-1.9,0-3,1.6-3,4c0,2.2,0.7,3.8,3.2,3.8c0.9,0,1.8-0.2,2.6-0.5l0.3,1.6
		C189.2,453.5,188.1,453.8,186.8,453.8z"/>
	<path d="M195.8,453.8c-2.2,0-2.9-0.9-2.9-3.2v-6.2h-2.2v-1.5h2.2v-3.5l1.9-0.5v4h3v1.5h-3v5.5c0,1.8,0.3,2.2,1.5,2.2
		c0.5,0,1-0.1,1.4-0.2l0.2,1.6C197.3,453.7,196.5,453.8,195.8,453.8z"/>
	<path d="M212.2,458.4c-3.6-3.3-5.3-6.7-5.3-10.9c0-4.4,2.1-8.1,5.4-11l1.1,1.1c-2.9,2.9-4.5,6.2-4.5,9.7c0,3.6,1.5,6.9,4.5,9.9
		L212.2,458.4z"/>
	<path d="M218.6,453.6v-1.8h4v-9.1l-3.7,2.4l-0.7-1.7l4.8-2.9h1.7v11.3h3.4v1.8H218.6z"/>
	<path d="M232.2,456.4c2.2-0.6,2.9-1.6,2.9-2.4c0-1.4-1.1-1.4-1.1-2.5c0-0.9,0.6-1.6,1.5-1.6c1.4,0,2,1.3,2,2.7c0,2.7-1.8,4.3-5,5
		L232.2,456.4z"/>
	<path d="M244.5,453.6v-1.8h4v-9.1l-3.7,2.4l-0.7-1.7l4.8-2.9h1.7v11.3h3.4v1.8H244.5z"/>
	<path d="M258.2,456.4c2.2-0.6,2.9-1.6,2.9-2.4c0-1.4-1.1-1.4-1.1-2.5c0-0.9,0.6-1.6,1.5-1.6c1.4,0,2,1.3,2,2.7c0,2.7-1.8,4.3-5,5
		L258.2,456.4z"/>
	<path d="M272.8,455.6c-0.7,0-1.6-0.1-2.4-0.2l0.2-1.7c0.7,0.2,1.7,0.3,2.4,0.3c2.6,0,4-1.5,4-3.2c0-1.8-1.5-2.8-3.9-2.8
		c-0.9,0-1.7,0.1-2.2,0.2v-7.4h7.6v1.9l-5.8,0v3.8c0.4,0,0.8,0,1.1,0c3.6,0,5.4,1.8,5.4,4.1C279.1,453.3,276.5,455.6,272.8,455.6z"
		/>
	<path d="M284.1,456.4c2.2-0.6,2.9-1.6,2.9-2.4c0-1.4-1.1-1.4-1.1-2.5c0-0.9,0.6-1.6,1.5-1.6c1.4,0,2,1.3,2,2.7c0,2.7-1.8,4.3-5,5
		L284.1,456.4z"/>
	<path d="M298.8,455.6c-0.9,0-1.9-0.1-2.7-0.3l0.3-1.8c0.7,0.3,1.7,0.4,2.6,0.4c2.3,0,3.8-1.3,3.8-2.9c0-1.6-1.3-2.7-3.6-2.7
		c-0.7,0-1.3,0-1.9,0.1v-1.6h0.5c3.1,0,4.6-0.9,4.6-2.7c0-1.4-1.1-2.1-2.6-2.1c-1.2,0-2.2,0.3-3.1,0.8l-0.3-1.7
		c1.1-0.5,2.3-0.8,3.7-0.8c2.9,0,4.3,1.4,4.3,3.5c0,1.7-1.1,2.9-2.6,3.4l0,0c1.8,0.2,3.1,1.7,3.1,3.5
		C304.9,453.5,302.4,455.6,298.8,455.6z"/>
	<path d="M311.3,436.6c3.6,3.3,5.3,6.7,5.3,10.9c0,4.4-2.1,8.1-5.4,11l-1.1-1.1c2.9-2.9,4.5-6.2,4.5-9.7c0-3.6-1.5-6.9-4.5-9.9
		L311.3,436.6z"/>
	<path d="M335.3,456.9l-0.8-0.7c1.4-1.5,1.4-2.5,0.9-3.1c-0.6-0.8-0.1-1.9,0.9-1.9C338,451.1,338.7,453.9,335.3,456.9z M336.4,447.4
		c-0.7,0-1.3-0.6-1.3-1.3c0-0.7,0.6-1.3,1.3-1.3s1.3,0.6,1.3,1.3C337.7,446.9,337.1,447.4,336.4,447.4z"/>
</g>
</svg>
