<?xml version="1.0" encoding="utf-8"?>
<!-- Generator: Adobe Illustrator 18.0.0, SVG Export Plug-In . SVG Version: 6.00 Build 0)  -->
<!DOCTYPE svg PUBLIC "-//W3C//DTD SVG 1.1//EN" "http://www.w3.org/Graphics/SVG/1.1/DTD/svg11.dtd">
<svg version="1.1" id="Layer_1" xmlns="http://www.w3.org/2000/svg" xmlns:xlink="http://www.w3.org/1999/xlink" x="0px" y="0px"
	 viewBox="0 0 640 480" enable-background="new 0 0 640 480" xml:space="preserve">
<g>
	<rect x="85.3" y="96.5" fill="none" stroke="#999999" stroke-width="1.3" width="267.6" height="267.6"/>
	<line fill="none" stroke="#999999" stroke-width="1.3" x1="85.3" y1="319.6" x2="352.9" y2="319.6"/>
	<line fill="none" stroke="#999999" stroke-width="1.3" x1="85.3" y1="274.9" x2="352.9" y2="274.9"/>
	<line fill="none" stroke="#999999" stroke-width="1.3" x1="85.3" y1="230.3" x2="352.9" y2="230.3"/>
	<line fill="none" stroke="#999999" stroke-width="1.3" x1="85.3" y1="185.8" x2="352.9" y2="185.8"/>
	<line fill="none" stroke="#999999" stroke-width="1.3" x1="85.3" y1="141.1" x2="352.9" y2="141.1"/>
	<line fill="none" stroke="#999999" stroke-width="1.3" x1="308.3" y1="96.5" x2="308.3" y2="364.1"/>
	<line fill="none" stroke="#999999" stroke-width="1.3" x1="263.8" y1="96.5" x2="263.8" y2="364.1"/>
	<line fill="none" stroke="#999999" stroke-width="1.3" x1="219.1" y1="96.5" x2="219.1" y2="364.1"/>
	<line fill="none" stroke="#999999" stroke-width="1.3" x1="174.5" y1="96.5" x2="174.5" y2="364.1"/>
	<line fill="none" stroke="#999999" stroke-width="1.3" x1="130" y1="96.5" x2="130" y2="364.1"/>
</g>
<g>
	<path d="M90.7,32.1l-2.4-4l-2.4,4h-3.2v-1.2c0.6-0.1,1.3-0.3,1.8-0.3l2.6-3.9l-2.5-3.9c-0.6,0-1.2-0.2-1.8-0.3v-1.2h3.3l2.3,3.9
		l2.3-3.9h3.1v1.2c-0.6,0.1-1.3,0.3-1.8,0.3l-2.4,3.8l2.6,4c0.6,0,1.2,0.2,1.8,0.3v1.2H90.7z"/>
</g>
<g>
	<path d="M24.6,90.4l-3.8,10.5c-1.2,3.3-2.3,4.4-4.7,4.4c-0.4,0-1,0-1.5-0.1l0.2-1.8c0.5,0.2,0.9,0.2,1.4,0.2c1.2,0,1.8-0.6,2.6-2.7
		l0.5-1.2h-0.5l-3.3-9.3c-0.5,0-1-0.1-1.4-0.3V89h4.9v1.2c-0.4,0.1-0.9,0.2-1.4,0.3l1.6,4.6c0.3,1,0.6,1.8,0.8,2.7h0
		c0.2-0.7,0.6-2,1-3.2l1.4-4.1c-0.5,0-1-0.1-1.4-0.3V89H26v1.2C25.6,90.3,25.1,90.4,24.6,90.4z"/>
</g>
<g>
	<path d="M89.3,69.1c-2.9,0-5.3-1.7-5.3-6.7c0-4.3,2.6-6.7,5.7-6.7c2.8,0,5.3,1.6,5.3,6.6C94.9,66.7,92.3,69.1,89.3,69.1z
		 M89.4,57.3c-1.8,0-3.4,1.6-3.4,5c0,3.6,1.4,5.1,3.4,5.1c1.8,0,3.4-1.5,3.4-5C92.8,58.9,91.5,57.3,89.4,57.3z"/>
	<path d="M128.4,68.9v-1.8h4v-9.1l-3.7,2.4l-0.7-1.7l4.8-2.9h1.7v11.3h3.4v1.8H128.4z"/>
	<path d="M171.1,68.9v-1.6l3.1-2.8c2.7-2.3,3.4-3.2,3.4-4.7c0-1.4-0.8-2.4-2.7-2.4c-1.3,0-2.4,0.6-3.1,1.1l-0.4-1.7
		c1.1-0.7,2.4-1.1,4-1.1c2.9,0,4.4,1.6,4.4,3.8c0,1.8-1,3.2-3.3,5.3l-2.6,2.2l-0.1,0c1-0.1,3.4-0.1,6.6-0.1v1.9H171.1z"/>
	<path d="M217.2,70.9c-0.9,0-1.9-0.1-2.7-0.3l0.3-1.8c0.7,0.3,1.7,0.4,2.6,0.4c2.3,0,3.8-1.3,3.8-2.9c0-1.6-1.3-2.7-3.6-2.7
		c-0.7,0-1.3,0-1.9,0.1v-1.6h0.5c3.1,0,4.6-0.9,4.6-2.7c0-1.4-1.1-2.1-2.6-2.1c-1.2,0-2.2,0.3-3.1,0.8l-0.3-1.7
		c1.1-0.5,2.3-0.8,3.7-0.8c2.9,0,4.3,1.4,4.3,3.5c0,1.7-1.1,2.9-2.6,3.4l0,0c1.8,0.2,3.1,1.7,3.1,3.5
		C223.4,68.9,220.8,70.9,217.2,70.9z"/>
	<path d="M265.2,67.1v3.6h-1.9v-3.6h-6.6l-0.2-1.6l6-9.6h2.7v9.4h2.5v1.8H265.2z M263.3,57.7L263.3,57.7l-4.9,7.6c1.3,0,4,0,4.9,0
		V57.7z"/>
	<path d="M303.5,70.9c-0.7,0-1.6-0.1-2.4-0.2l0.2-1.7c0.7,0.2,1.7,0.3,2.4,0.3c2.6,0,4-1.5,4-3.2c0-1.8-1.5-2.8-3.9-2.8
		c-0.9,0-1.7,0.1-2.2,0.2v-7.4h7.6v1.9l-5.8,0v3.8c0.4,0,0.8,0,1.1,0c3.6,0,5.4,1.8,5.4,4.1C309.9,68.6,307.3,70.9,303.5,70.9z"/>
	<path d="M348.6,69.1c-3,0-4.9-2.3-4.9-6.2c0-6.2,3.1-8.8,7.2-8.8c0.4,0,1,0,1.3,0.1v1.7c-0.5-0.1-0.9-0.1-1.4-0.1
		c-2.8,0-4.3,1.6-4.9,4.6c-0.1,0.2-0.1,0.6-0.2,1.1h0c0.7-1.2,2-1.9,3.4-1.9c2.9,0,4.5,1.9,4.5,4.2
		C353.5,67.1,351.6,69.1,348.6,69.1z M348.7,61.3c-1.8,0-2.8,1.6-2.8,2.8c0,1.8,1,3.3,2.9,3.3c1.7,0,2.8-1.3,2.8-3.2
		C351.6,62.5,350.6,61.3,348.7,61.3z"/>
</g>
<circle fill="#808080" cx="220" cy="232.6" r="7"/>
<g>
	<path d="M55.7,106.3c-2.9,0-5.3-1.7-5.3-6.7c0-4.3,2.6-6.7,5.7-6.7c2.8,0,5.3,1.6,5.3,6.6C61.3,103.9,58.7,106.3,55.7,106.3z
		 M55.8,94.5c-1.8,0-3.4,1.6-3.4,5c0,3.6,1.4,5.1,3.4,5.1c1.8,0,3.4-1.5,3.4-5C59.2,96.1,57.9,94.5,55.8,94.5z"/>
	<path d="M51.6,149.3v-1.8h4v-9.1l-3.7,2.4l-0.7-1.7l4.8-2.9h1.7v11.3h3.4v1.8H51.6z"/>
	<path d="M51.1,192.5v-1.6l3.1-2.8c2.7-2.3,3.4-3.2,3.4-4.7c0-1.4-0.8-2.4-2.7-2.4c-1.3,0-2.4,0.6-3.1,1.1l-0.4-1.7
		c1.1-0.7,2.4-1.1,4-1.1c2.9,0,4.4,1.6,4.4,3.8c0,1.8-1,3.2-3.3,5.3l-2.6,2.2l-0.1,0c1-0.1,3.4-0.1,6.6-0.1v1.9H51.1z"/>
	<path d="M54,237.7c-0.9,0-1.9-0.1-2.7-0.3l0.3-1.8c0.7,0.3,1.7,0.4,2.6,0.4c2.3,0,3.8-1.3,3.8-2.9c0-1.6-1.3-2.7-3.6-2.7
		c-0.7,0-1.3,0-1.9,0.1v-1.6h0.5c3.1,0,4.6-0.9,4.6-2.7c0-1.4-1.1-2.1-2.6-2.1c-1.2,0-2.2,0.3-3.1,0.8l-0.3-1.7
		c1.1-0.5,2.3-0.8,3.7-0.8c2.9,0,4.3,1.4,4.3,3.5c0,1.7-1.1,2.9-2.6,3.4l0,0c1.8,0.2,3.1,1.7,3.1,3.5
		C60.2,235.7,57.6,237.7,54,237.7z"/>
	<path d="M58.8,277.1v3.6h-1.9v-3.6h-6.6l-0.2-1.6l6-9.5h2.7v9.4h2.5v1.8H58.8z M56.9,267.7L56.9,267.7l-4.9,7.6c1.3,0,4,0,4.9,0
		V267.7z"/>
	<path d="M53.9,324.1c-0.7,0-1.6-0.1-2.4-0.2l0.2-1.7c0.7,0.2,1.7,0.3,2.4,0.3c2.6,0,4-1.5,4-3.2c0-1.8-1.5-2.8-3.9-2.8
		c-0.9,0-1.7,0.1-2.2,0.2v-7.4h7.6v1.9l-5.8,0v3.8c0.4,0,0.8,0,1.1,0c3.6,0,5.4,1.8,5.4,4.1C60.3,321.8,57.7,324.1,53.9,324.1z"/>
	<path d="M55.8,365.5c-3,0-4.9-2.3-4.9-6.2c0-6.2,3.1-8.8,7.2-8.8c0.4,0,1,0,1.3,0.1v1.7c-0.5-0.1-0.9-0.1-1.4-0.1
		c-2.8,0-4.3,1.6-4.9,4.6c-0.1,0.2-0.1,0.6-0.2,1.1h0c0.7-1.2,2-1.9,3.4-1.9c2.9,0,4.5,1.9,4.5,4.2
		C60.7,363.5,58.8,365.5,55.8,365.5z M55.9,357.7c-1.8,0-2.8,1.6-2.8,2.8c0,1.8,1,3.3,2.9,3.3c1.7,0,2.8-1.3,2.8-3.2
		C58.8,358.9,57.8,357.7,55.9,357.7z"/>
</g>
<line stroke="#000000" stroke-width="1.3" x1="86.4" y1="96.5" x2="77.9" y2="96.5"/>
<line stroke="#000000" stroke-width="1.3" x1="86.4" y1="141.3" x2="77.9" y2="141.3"/>
<line stroke="#000000" stroke-width="1.3" x1="86.4" y1="185.7" x2="77.9" y2="185.7"/>
<line stroke="#000000" stroke-width="1.3" x1="86.4" y1="230.2" x2="77.9" y2="230.2"/>
<line stroke="#000000" stroke-width="1.3" x1="86.4" y1="274.9" x2="77.9" y2="274.9"/>
<line stroke="#000000" stroke-width="1.3" x1="86.4" y1="320.1" x2="77.9" y2="320.1"/>
<line stroke="#000000" stroke-width="1.3" x1="86.4" y1="363.7" x2="77.9" y2="363.7"/>
<line stroke="#000000" stroke-width="1.3" x1="352.5" y1="96.4" x2="352.5" y2="87.8"/>
<line stroke="#000000" stroke-width="1.3" x1="307.7" y1="96.4" x2="307.7" y2="87.8"/>
<line stroke="#000000" stroke-width="1.3" x1="263.3" y1="96.4" x2="263.3" y2="87.8"/>
<line stroke="#000000" stroke-width="1.3" x1="218.8" y1="96.4" x2="218.8" y2="87.8"/>
<line stroke="#000000" stroke-width="1.3" x1="174.1" y1="96.4" x2="174.1" y2="87.8"/>
<line stroke="#000000" stroke-width="1.3" x1="128.9" y1="96.4" x2="128.9" y2="87.8"/>
<line stroke="#000000" stroke-width="1.3" x1="85.7" y1="96.4" x2="85.7" y2="87.8"/>
<polyline fill="#FFFFFF" stroke="#000000" stroke-width="1.3" points="25.1,178.2 19.8,183.5 14.5,178.2 "/>
<line fill="#FFFFFF" stroke="#000000" stroke-width="1.3" x1="19.8" y1="183.5" x2="19.8" y2="120.8"/>
<polyline fill="#FFFFFF" stroke="#000000" stroke-width="1.3" points="167.2,20.3 172.5,25.6 167.2,30.9 "/>
<line fill="#FFFFFF" stroke="#000000" stroke-width="1.3" x1="173.7" y1="25.6" x2="111" y2="25.6"/>
<g>
	<path d="M432.5,227.8h-7c-0.1,2.8,1.1,4,3.4,4c1,0,2.1-0.2,3.1-0.6l0.3,1.5c-1.1,0.4-2.4,0.7-3.7,0.7c-3.3,0-5-1.7-5-5.5
		c0-3.2,1.8-5.6,4.8-5.6c3,0,4.3,2,4.3,4.4C432.5,226.9,432.5,227.3,432.5,227.8z M428.1,223.7c-1.4,0-2.4,1-2.6,2.7h5
		C430.6,224.7,429.7,223.7,428.1,223.7z"/>
	<path d="M433.9,233.2V232c0.5-0.1,1.2-0.2,1.8-0.3v-12.8c-0.5-0.1-1.2-0.2-1.9-0.2v-1.2c1.1-0.1,2.5-0.2,3.8-0.2v14.3
		c0.6,0,1.3,0.2,1.8,0.3v1.2H433.9z"/>
	<path d="M440.3,233.2V232c0.5-0.1,1.2-0.2,1.8-0.3v-12.8c-0.5-0.1-1.2-0.2-1.9-0.2v-1.2c1.1-0.1,2.5-0.2,3.8-0.2v14.3
		c0.6,0,1.3,0.2,1.8,0.3v1.2H440.3z"/>
	<path d="M446.8,233.2V232c0.6-0.1,1.2-0.2,1.9-0.3v-7.8c-0.5-0.1-1.3-0.2-1.9-0.2v-1.2c1.1-0.1,2.6-0.2,3.8-0.2v9.3
		c0.6,0,1.3,0.2,1.8,0.3v1.2H446.8z M449.7,220.3c-0.7,0-1.3-0.5-1.3-1.3c0-0.7,0.6-1.3,1.3-1.3c0.7,0,1.3,0.6,1.3,1.3
		C451,219.7,450.4,220.3,449.7,220.3z"/>
	<path d="M458.6,233.3c-0.7,0-1.2,0-1.8-0.1v3.9c0.6,0,1.3,0.2,1.9,0.3v1.2H453v-1.2c0.6-0.1,1.1-0.2,1.8-0.3v-13.1
		c-0.5-0.1-1.2-0.2-1.8-0.2v-1.2c1.1-0.1,2.5-0.2,3.7-0.2c0,0.6-0.1,1.6-0.2,2.2l0,0c0.6-1.5,1.9-2.4,3.6-2.4c2.5,0,4,1.8,4,5.1
		C464.1,231.1,462.1,233.3,458.6,233.3z M459.7,223.8c-1.9,0-2.9,2.3-2.9,4.1v3.5c0.6,0.2,1.2,0.3,1.9,0.3c2,0,3.4-1.2,3.4-4.3
		C462.1,225.1,461.4,223.8,459.7,223.8z"/>
	<path d="M468.9,233.3c-0.8,0-1.8-0.1-2.5-0.3v-3h1.2c0.1,0.5,0.2,1.1,0.3,1.7c0.4,0.1,0.8,0.1,1.3,0.1c1.4,0,2.4-0.6,2.4-1.7
		c0-2.4-5.4-1-5.4-4.7c0-1.8,1.5-3.2,4.3-3.2c0.8,0,1.7,0.1,2.5,0.3v2.9h-1.2c-0.1-0.5-0.2-1.1-0.3-1.7c-0.4-0.1-0.8-0.1-1.2-0.1
		c-1.4,0-2.2,0.6-2.2,1.6c0,2.4,5.4,1.1,5.4,4.6C473.4,231.8,471.7,233.3,468.9,233.3z"/>
	<path d="M484.4,227.8h-7c-0.1,2.8,1.1,4,3.4,4c1,0,2.1-0.2,3.1-0.6l0.3,1.5c-1.1,0.4-2.4,0.7-3.7,0.7c-3.3,0-5-1.7-5-5.5
		c0-3.2,1.8-5.6,4.8-5.6c3,0,4.3,2,4.3,4.4C484.5,226.9,484.5,227.3,484.4,227.8z M480.1,223.7c-1.4,0-2.4,1-2.6,2.7h5
		C482.5,224.7,481.6,223.7,480.1,223.7z"/>
	<path d="M500.3,233.2V232c0.5-0.1,1.1-0.2,1.7-0.3l-1-7.5c-0.2-1.6-0.4-2.8-0.4-3.7h0c-0.2,0.7-0.3,1.6-0.7,2.5l-3.5,10h-1.8
		l-3.3-9.5c-0.4-1.1-0.6-2.2-0.8-3h0c0,1.1-0.2,2.4-0.3,3.7l-0.9,7.4c0.6,0,1.2,0.2,1.7,0.3v1.2h-5V232c0.4-0.1,1-0.2,1.3-0.2
		l1.7-11.7c-0.6,0-1.3-0.2-1.9-0.3v-1.2h4.6l3.1,8.9c0.3,0.8,0.6,2,0.8,2.9h0c0.2-1,0.5-1.8,0.8-2.8l3.1-9h4.7v1.2
		c-0.6,0.1-1.2,0.2-1.9,0.3l1.8,11.7c0.4,0,1,0.2,1.3,0.2v1.2H500.3z"/>
	<path d="M511.4,233.3c-2.9,0-4.8-1.7-4.8-5.4c0-3.2,2-5.7,5.2-5.7c2.7,0,4.8,1.5,4.8,5.4C516.6,230.8,514.6,233.3,511.4,233.3z
		 M511.6,223.8c-1.6,0-3,1.2-3,4c0,2.5,1,3.9,3,3.9c1.6,0,3-1.3,3-3.9C514.6,225.3,513.6,223.8,511.6,223.8z"/>
	<path d="M525.8,233.2c0-0.6,0-1.6,0.2-2.2l0,0c-0.6,1.4-1.9,2.4-3.6,2.4c-2.6,0-4-1.9-4-5.1c0-3.8,2.2-6,5.6-6c0.6,0,1.2,0,1.8,0.1
		v-3.5c-0.5-0.1-1.3-0.2-1.9-0.2v-1.2c1.1-0.1,2.6-0.2,3.8-0.2v14.2c0.5,0.1,1.2,0.2,1.8,0.2v1.2C528.5,233.1,527,233.2,525.8,233.2
		z M525.8,224c-0.6-0.2-1.3-0.2-1.9-0.2c-2.1,0-3.4,1.2-3.4,4.3c0,2.3,0.8,3.6,2.4,3.6c1.9,0,2.9-2.3,2.9-4.1V224z"/>
	<path d="M539.7,227.8h-7c-0.1,2.8,1.1,4,3.4,4c1,0,2.1-0.2,3.1-0.6l0.3,1.5c-1.1,0.4-2.4,0.7-3.7,0.7c-3.3,0-5-1.7-5-5.5
		c0-3.2,1.8-5.6,4.8-5.6c3,0,4.3,2,4.3,4.4C539.8,226.9,539.8,227.3,539.7,227.8z M535.4,223.7c-1.4,0-2.4,1-2.6,2.7h5
		C537.8,224.7,536.9,223.7,535.4,223.7z"/>
	<path d="M550.2,237.7c-2.5-4-3.2-7.5-3.2-10.7c0-3.2,0.7-6.9,3.2-10.7l1.4,0.7c-1.8,3-2.7,6.4-2.7,10c0,3.7,0.9,7,2.7,10
		L550.2,237.7z"/>
	<path d="M564.4,233.3c-4.4,0-6.7-2.7-6.7-7.1c0-4.5,2.3-7.8,7.1-7.8c1.2,0,2.4,0.2,3.5,0.4v3.6h-1.4c-0.2-0.7-0.2-1.4-0.3-2
		c-0.8-0.2-1.4-0.3-2.1-0.3c-3.1,0-4.6,2.5-4.6,5.7c0,3.5,1.6,5.7,5,5.7c1.2,0,2.5-0.3,3.4-0.7l0.3,1.7
		C567.4,233,565.9,233.3,564.4,233.3z"/>
	<path d="M569.8,233.2V232c0.6-0.1,1.2-0.2,1.9-0.3V220c-0.6,0-1.3-0.2-1.9-0.3v-1.2h9.4v3.4h-1.4c-0.1-0.7-0.2-1.3-0.3-1.8h-3.9
		v4.8h3.1c0.1-0.5,0.2-1,0.3-1.5h1.2v4.4h-1.2c-0.1-0.5-0.2-1-0.3-1.5h-3.1v5.2h3.9c0.1-0.6,0.2-1.2,0.3-1.9h1.4v3.5H569.8z"/>
	<path d="M594.9,220v13.1h-2.7l-5.6-9.2c-0.6-1.1-1.2-2.2-1.7-3.2c0.2,2.5,0.2,6.3,0.2,10.9c0.6,0,1.2,0.2,1.7,0.3v1.2h-5.5V232
		c0.6-0.1,1.2-0.3,1.9-0.3V220c-0.6,0-1.3-0.2-1.9-0.3v-1.2h4.6l5.6,9.1c0.6,1,1.2,2.2,1.7,3.2c-0.2-2.5-0.2-6.3-0.2-10.8
		c-0.6,0-1.2-0.2-1.7-0.3v-1.2h5.1v1.2C596,219.9,595.4,220,594.9,220z"/>
	<path d="M607.4,222.2c-0.1-0.8-0.3-1.5-0.3-2h-3v11.5c0.6,0,1.3,0.2,1.9,0.3v1.2h-5.7V232c0.6-0.1,1.2-0.2,1.9-0.3v-11.5h-3
		c0,0.5-0.2,1.2-0.3,2h-1.4v-3.6h11.3v3.6H607.4z"/>
	<path d="M609.7,233.2V232c0.6-0.1,1.2-0.2,1.9-0.3V220c-0.6,0-1.3-0.2-1.9-0.3v-1.2h9.4v3.4h-1.4c-0.1-0.7-0.2-1.3-0.3-1.8h-3.9
		v4.8h3.1c0.1-0.5,0.2-1,0.3-1.5h1.2v4.4H617c-0.1-0.5-0.2-1-0.3-1.5h-3.1v5.2h3.9c0.1-0.6,0.2-1.2,0.3-1.9h1.4v3.5H609.7z"/>
	<path d="M630.1,233.2l-3.9-6.5H625v5.1c0.5,0,1.1,0.1,1.6,0.3v1.2h-5.5V232c0.6-0.1,1.2-0.2,1.9-0.3V220c-0.6,0-1.3-0.2-1.9-0.3
		v-1.2h1.7c0.6,0,2.4-0.1,4-0.1c3.1,0,5.1,1,5.1,3.9c0,2.3-1.6,3.6-3.9,4c0.3,0.4,0.7,0.9,1,1.3l2.5,4c0.5,0.1,1.1,0.2,1.7,0.3v1.2
		H630.1z M626.6,220.1c-0.4,0-1.1,0-1.5,0.1v5h1.7c2.1,0,3.3-1,3.3-2.6C630,220.8,628.9,220.1,626.6,220.1z"/>
	<path d="M640.4,237.7L639,237c1.8-3,2.7-6.4,2.7-9.9c0-3.7-0.9-7-2.7-10.1l1.5-0.7c2.5,4,3.1,7.5,3.1,10.6
		C643.5,230.1,642.8,233.8,640.4,237.7z"/>
	<path d="M652,236.5l-0.8-0.7c1.4-1.5,1.4-2.5,0.9-3.1c-0.6-0.8-0.1-1.9,0.9-1.9C654.6,230.7,655.3,233.4,652,236.5z M653.1,227
		c-0.7,0-1.3-0.6-1.3-1.3c0-0.7,0.6-1.3,1.3-1.3c0.7,0,1.3,0.6,1.3,1.3C654.4,226.4,653.8,227,653.1,227z"/>
	<path d="M432.5,253.7h-7c-0.1,2.8,1.1,4,3.4,4c1,0,2.1-0.2,3.1-0.6l0.3,1.5c-1.1,0.4-2.4,0.7-3.7,0.7c-3.3,0-5-1.7-5-5.5
		c0-3.2,1.8-5.6,4.8-5.6c3,0,4.3,2,4.3,4.4C432.5,252.8,432.5,253.2,432.5,253.7z M428.1,249.6c-1.4,0-2.4,1-2.6,2.7h5
		C430.6,250.6,429.7,249.6,428.1,249.6z"/>
	<path d="M433.9,259.1v-1.2c0.5-0.1,1.2-0.2,1.8-0.3v-12.8c-0.5-0.1-1.2-0.2-1.9-0.2v-1.2c1.1-0.1,2.5-0.2,3.8-0.2v14.3
		c0.6,0,1.3,0.2,1.8,0.3v1.2H433.9z"/>
	<path d="M440.3,259.1v-1.2c0.5-0.1,1.2-0.2,1.8-0.3v-12.8c-0.5-0.1-1.2-0.2-1.9-0.2v-1.2c1.1-0.1,2.5-0.2,3.8-0.2v14.3
		c0.6,0,1.3,0.2,1.8,0.3v1.2H440.3z"/>
	<path d="M446.8,259.1v-1.2c0.6-0.1,1.2-0.2,1.9-0.3v-7.8c-0.5-0.1-1.3-0.2-1.9-0.2v-1.2c1.1-0.1,2.6-0.2,3.8-0.2v9.3
		c0.6,0,1.3,0.2,1.8,0.3v1.2H446.8z M449.7,246.2c-0.7,0-1.3-0.5-1.3-1.3s0.6-1.3,1.3-1.3c0.7,0,1.3,0.6,1.3,1.3
		C451,245.6,450.4,246.2,449.7,246.2z"/>
	<path d="M458.6,259.2c-0.7,0-1.2,0-1.8-0.1v3.9c0.6,0,1.3,0.2,1.9,0.3v1.2H453v-1.2c0.6-0.1,1.1-0.2,1.8-0.3v-13.1
		c-0.5-0.1-1.2-0.2-1.8-0.2v-1.2c1.1-0.1,2.5-0.2,3.7-0.2c0,0.6-0.1,1.6-0.2,2.2l0,0c0.6-1.5,1.9-2.4,3.6-2.4c2.5,0,4,1.8,4,5.1
		C464.1,257,462.1,259.2,458.6,259.2z M459.7,249.7c-1.9,0-2.9,2.3-2.9,4.1v3.5c0.6,0.2,1.2,0.3,1.9,0.3c2,0,3.4-1.2,3.4-4.3
		C462.1,251.1,461.4,249.7,459.7,249.7z"/>
	<path d="M468.9,259.3c-0.8,0-1.8-0.1-2.5-0.3v-3h1.2c0.1,0.5,0.2,1.1,0.3,1.7c0.4,0.1,0.8,0.1,1.3,0.1c1.4,0,2.4-0.6,2.4-1.7
		c0-2.4-5.4-1-5.4-4.7c0-1.8,1.5-3.2,4.3-3.2c0.8,0,1.7,0.1,2.5,0.3v2.9h-1.2c-0.1-0.5-0.2-1.1-0.3-1.7c-0.4-0.1-0.8-0.1-1.2-0.1
		c-1.4,0-2.2,0.6-2.2,1.6c0,2.4,5.4,1.1,5.4,4.6C473.4,257.7,471.7,259.3,468.9,259.3z"/>
	<path d="M484.4,253.7h-7c-0.1,2.8,1.1,4,3.4,4c1,0,2.1-0.2,3.1-0.6l0.3,1.5c-1.1,0.4-2.4,0.7-3.7,0.7c-3.3,0-5-1.7-5-5.5
		c0-3.2,1.8-5.6,4.8-5.6c3,0,4.3,2,4.3,4.4C484.5,252.8,484.5,253.2,484.4,253.7z M480.1,249.6c-1.4,0-2.4,1-2.6,2.7h5
		C482.5,250.6,481.6,249.6,480.1,249.6z"/>
	<path d="M494.8,263.6c-2.5-4-3.2-7.5-3.2-10.7c0-3.2,0.7-6.9,3.2-10.7l1.4,0.7c-1.8,3-2.7,6.4-2.7,10c0,3.7,0.9,7,2.7,10
		L494.8,263.6z"/>
	<path d="M509.6,259.1l-2.4-4l-2.4,4h-3.2v-1.2c0.6-0.1,1.3-0.3,1.8-0.3l2.6-3.9l-2.5-3.9c-0.6,0-1.2-0.2-1.8-0.3v-1.2h3.3l2.3,3.9
		l2.3-3.9h3.1v1.2c-0.6,0.1-1.3,0.3-1.8,0.3l-2.4,3.8l2.6,4c0.6,0,1.2,0.2,1.8,0.3v1.2H509.6z"/>
	<path d="M519.2,262.4l-0.8-0.7c1.4-1.5,1.4-2.5,0.9-3.1c-0.6-0.8-0.1-1.9,0.9-1.9C521.9,256.6,522.6,259.4,519.2,262.4z"/>
	<path d="M537.2,249.8l-3.8,10.5c-1.2,3.3-2.3,4.4-4.7,4.4c-0.4,0-1,0-1.5-0.1l0.2-1.8c0.5,0.2,0.9,0.2,1.4,0.2
		c1.2,0,1.8-0.6,2.6-2.7l0.5-1.2h-0.5l-3.3-9.3c-0.5,0-1-0.1-1.4-0.3v-1.2h4.9v1.2c-0.4,0.1-0.9,0.2-1.4,0.3l1.6,4.6
		c0.3,1,0.6,1.8,0.8,2.7h0c0.2-0.7,0.6-2,1-3.2l1.4-4.1c-0.5,0-1-0.1-1.4-0.3v-1.2h4.8v1.2C538.1,249.6,537.7,249.7,537.2,249.8z"/>
	<path d="M544.8,262.4l-0.8-0.7c1.4-1.5,1.4-2.5,0.9-3.1c-0.6-0.8-0.1-1.9,0.9-1.9C547.4,256.6,548.1,259.4,544.8,262.4z"/>
	<path d="M569.1,249.8l-2.9,9.3h-2.2l-2.1-6.3c-0.2-0.7-0.4-1.4-0.6-2.1h0c-0.2,1-0.5,1.8-0.8,2.7l-1.8,5.8h-2.2l-2.8-9.3
		c-0.5,0-1-0.1-1.4-0.3v-1.2h4.9v1.2c-0.5,0.1-1,0.2-1.5,0.3l1.3,4.8c0.2,0.9,0.5,1.8,0.7,2.4h0c0.2-0.9,0.5-1.8,0.7-2.6l1.9-6h2
		l1.9,6c0.4,1.3,0.6,1.9,0.8,2.6h0c0.2-0.8,0.4-1.4,0.7-2.4l1.4-4.9c-0.5,0-1-0.1-1.5-0.3v-1.2h4.8v1.2
		C570.1,249.6,569.6,249.7,569.1,249.8z"/>
	<path d="M571.2,259.1v-1.2c0.6-0.1,1.2-0.2,1.9-0.3v-7.8c-0.5-0.1-1.3-0.2-1.9-0.2v-1.2c1.1-0.1,2.6-0.2,3.8-0.2v9.3
		c0.6,0,1.3,0.2,1.8,0.3v1.2H571.2z M574.1,246.2c-0.7,0-1.3-0.5-1.3-1.3s0.6-1.3,1.3-1.3c0.7,0,1.3,0.6,1.3,1.3
		C575.4,245.6,574.8,246.2,574.1,246.2z"/>
	<path d="M585.6,259.1c0-0.6,0-1.6,0.2-2.2l0,0c-0.6,1.4-1.9,2.4-3.6,2.4c-2.6,0-4-1.9-4-5.1c0-3.8,2.2-6,5.6-6c0.6,0,1.2,0,1.8,0.1
		v-3.5c-0.5-0.1-1.3-0.2-1.9-0.2v-1.2c1.1-0.1,2.6-0.2,3.8-0.2v14.2c0.5,0.1,1.2,0.2,1.8,0.2v1.2
		C588.3,259.1,586.8,259.1,585.6,259.1z M585.5,250c-0.6-0.2-1.3-0.2-1.9-0.2c-2.1,0-3.4,1.2-3.4,4.3c0,2.3,0.8,3.6,2.4,3.6
		c1.9,0,2.9-2.3,2.9-4.1V250z"/>
	<path d="M594.4,259.2c-2.2,0-2.9-0.9-2.9-3.2v-6.2h-2.2v-1.5h2.2v-3.5l1.9-0.5v4h3v1.5h-3v5.5c0,1.8,0.3,2.2,1.5,2.2
		c0.5,0,1-0.1,1.4-0.2l0.2,1.6C596,259.2,595.1,259.2,594.4,259.2z"/>
	<path d="M606.3,259.1v-6.9c0-1.5-0.4-2.4-1.8-2.4c-1.8,0-3,1.8-3,4.2v3.7c0.6,0,1.2,0.1,1.7,0.3v1.2h-5.5v-1.2
		c0.5-0.1,1.2-0.2,1.8-0.3v-12.8c-0.5-0.1-1.2-0.2-1.9-0.2v-1.2c1.1-0.1,2.5-0.2,3.8-0.2v5.1c0,0.7,0,1.6-0.2,2.1l0,0
		c0.6-1.5,1.9-2.4,3.8-2.4c2.4,0,3.2,1.5,3.2,3.4v6c0.6,0,1.3,0.2,1.8,0.3v1.2H606.3z"/>
	<path d="M616.6,262.4l-0.8-0.7c1.4-1.5,1.4-2.5,0.9-3.1c-0.6-0.8-0.1-1.9,0.9-1.9C619.2,256.6,619.9,259.4,616.6,262.4z"/>
	<path d="M632.9,259.1v-6.9c0-1.5-0.4-2.4-1.8-2.4c-1.8,0-3,1.8-3,4.2v3.7c0.6,0,1.2,0.1,1.7,0.3v1.2h-5.5v-1.2
		c0.5-0.1,1.2-0.2,1.8-0.3v-12.8c-0.5-0.1-1.2-0.2-1.9-0.2v-1.2c1.1-0.1,2.5-0.2,3.8-0.2v5.1c0,0.7,0,1.6-0.2,2.1l0,0
		c0.6-1.5,1.9-2.4,3.8-2.4c2.4,0,3.2,1.5,3.2,3.4v6c0.6,0,1.3,0.2,1.8,0.3v1.2H632.9z"/>
	<path d="M646.9,253.7h-7c-0.1,2.8,1.1,4,3.4,4c1,0,2.1-0.2,3.1-0.6l0.3,1.5c-1.1,0.4-2.4,0.7-3.7,0.7c-3.3,0-5-1.7-5-5.5
		c0-3.2,1.8-5.6,4.8-5.6c3,0,4.3,2,4.3,4.4C647,252.8,647,253.2,646.9,253.7z M642.6,249.6c-1.4,0-2.4,1-2.6,2.7h5
		C645.1,250.6,644.1,249.6,642.6,249.6z"/>
	<path d="M648.6,259.1v-1.2c0.6-0.1,1.2-0.2,1.9-0.3v-7.8c-0.5-0.1-1.3-0.2-1.9-0.2v-1.2c1.1-0.1,2.6-0.2,3.8-0.2v9.3
		c0.6,0,1.3,0.2,1.8,0.3v1.2H648.6z M651.5,246.2c-0.7,0-1.3-0.5-1.3-1.3s0.6-1.3,1.3-1.3c0.7,0,1.3,0.6,1.3,1.3
		C652.8,245.6,652.2,246.2,651.5,246.2z"/>
	<path d="M660,264.6c-2.8,0-4.5-1.1-4.5-3.2c0-1.3,0.8-2.3,1.8-2.9c-0.6-0.3-1.1-0.9-1.1-1.6c0-0.8,0.5-1.5,1.2-1.8
		c-1-0.6-1.6-1.6-1.6-3c0-2.2,1.6-4,4.6-4c0.6,0,1,0.1,1.5,0.2h3.7v1.5h-1.8c0.5,0.4,0.9,1.1,0.9,2c0,2.2-1.5,3.9-4.5,3.9
		c-0.4,0-0.8,0-1.1-0.2c-0.5,0.2-0.7,0.6-0.7,0.9c0,0.6,0.5,0.8,1.8,0.8l2,0.1c2.3,0.1,3.6,1.2,3.6,3.1
		C665.7,262.8,663.4,264.6,660,264.6z M661.5,259l-2.1-0.1c-0.2,0-0.5,0-0.6,0c-0.8,0.6-1.4,1.3-1.4,2.1c0,1.3,1.2,2,2.9,2
		c2.2,0,3.4-1,3.4-2.3C663.8,259.7,663.1,259.1,661.5,259z M660.3,249.6c-1.6,0-2.5,1-2.5,2.4c0,1.5,0.9,2.4,2.5,2.4
		c1.5,0,2.5-0.9,2.5-2.4C662.8,250.5,661.9,249.6,660.3,249.6z"/>
	<path d="M675.4,259.1v-6.9c0-1.5-0.4-2.4-1.8-2.4c-1.8,0-3,1.8-3,4.2v3.7c0.6,0,1.2,0.1,1.7,0.3v1.2h-5.5v-1.2
		c0.5-0.1,1.2-0.2,1.8-0.3v-12.8c-0.5-0.1-1.2-0.2-1.9-0.2v-1.2c1.1-0.1,2.5-0.2,3.8-0.2v5.1c0,0.7,0,1.6-0.2,2.1l0,0
		c0.6-1.5,1.9-2.4,3.8-2.4c2.4,0,3.2,1.5,3.2,3.4v6c0.6,0,1.3,0.2,1.8,0.3v1.2H675.4z"/>
	<path d="M684.4,259.2c-2.2,0-2.9-0.9-2.9-3.2v-6.2h-2.2v-1.5h2.2v-3.5l1.9-0.5v4h3v1.5h-3v5.5c0,1.8,0.3,2.2,1.5,2.2
		c0.5,0,1-0.1,1.4-0.2l0.2,1.6C686,259.2,685.1,259.2,684.4,259.2z"/>
	<path d="M694,263.6l-1.4-0.7c1.8-3,2.7-6.4,2.7-9.9c0-3.7-0.9-7-2.7-10.1l1.5-0.7c2.5,4,3.1,7.5,3.1,10.6
		C697.1,256,696.4,259.7,694,263.6z"/>
	<path d="M705.6,262.4l-0.8-0.7c1.4-1.5,1.4-2.5,0.9-3.1c-0.6-0.8-0.1-1.9,0.9-1.9C708.2,256.6,709,259.4,705.6,262.4z M706.7,252.9
		c-0.7,0-1.3-0.6-1.3-1.3c0-0.7,0.6-1.3,1.3-1.3c0.7,0,1.3,0.6,1.3,1.3C708,252.4,707.4,252.9,706.7,252.9z"/>
</g>
<g>
	<path d="M231.2,223c-3.6-3.3-5.3-6.7-5.3-10.9c0-4.4,2.1-8.1,5.4-11l1.1,1.1c-2.9,2.9-4.5,6.2-4.5,9.7c0,3.6,1.5,6.9,4.5,9.9
		L231.2,223z"/>
	<path d="M240,220.2c-0.9,0-1.9-0.1-2.7-0.3l0.3-1.8c0.7,0.3,1.7,0.4,2.6,0.4c2.3,0,3.8-1.3,3.8-2.9c0-1.6-1.3-2.7-3.6-2.7
		c-0.7,0-1.3,0-1.9,0.1v-1.6h0.5c3.1,0,4.6-0.9,4.6-2.7c0-1.4-1.1-2.1-2.6-2.1c-1.2,0-2.2,0.3-3.1,0.8l-0.3-1.7
		c1.1-0.5,2.3-0.8,3.7-0.8c2.9,0,4.3,1.4,4.3,3.5c0,1.7-1.1,2.9-2.6,3.4l0,0c1.8,0.2,3.1,1.7,3.1,3.5
		C246.1,218.1,243.6,220.2,240,220.2z"/>
	<path d="M251.2,221c2.2-0.6,2.9-1.6,2.9-2.4c0-1.4-1.1-1.4-1.1-2.5c0-0.9,0.6-1.6,1.5-1.6c1.4,0,2,1.3,2,2.7c0,2.7-1.8,4.3-5,5
		L251.2,221z"/>
	<path d="M265.9,220.2c-0.9,0-1.9-0.1-2.7-0.3l0.3-1.8c0.7,0.3,1.7,0.4,2.6,0.4c2.3,0,3.8-1.3,3.8-2.9c0-1.6-1.3-2.7-3.6-2.7
		c-0.7,0-1.3,0-1.9,0.1v-1.6h0.5c3.1,0,4.6-0.9,4.6-2.7c0-1.4-1.1-2.1-2.6-2.1c-1.2,0-2.2,0.3-3.1,0.8l-0.3-1.7
		c1.1-0.5,2.3-0.8,3.7-0.8c2.9,0,4.3,1.4,4.3,3.5c0,1.7-1.1,2.9-2.6,3.4l0,0c1.8,0.2,3.1,1.7,3.1,3.5
		C272.1,218.1,269.5,220.2,265.9,220.2z"/>
	<path d="M278.5,201.1c3.6,3.3,5.3,6.7,5.3,10.9c0,4.4-2.1,8.1-5.4,11l-1.1-1.1c2.9-2.9,4.5-6.2,4.5-9.7c0-3.6-1.5-6.9-4.5-9.9
		L278.5,201.1z"/>
</g>
<g>
	<path fill="#808080" d="M71.7,424.7v-1.2c0.6-0.1,1.2-0.2,1.9-0.3v-11.7c-0.6,0-1.3-0.2-1.9-0.3v-1.2h9.4v3.4h-1.4
		c-0.1-0.7-0.2-1.3-0.3-1.8h-3.9v4.8h3.1c0.1-0.5,0.2-1,0.3-1.5h1.2v4.4h-1.2c-0.1-0.5-0.2-1-0.3-1.5h-3.1v5.2h3.9
		c0.1-0.6,0.2-1.2,0.3-1.9h1.4v3.5H71.7z"/>
	<path fill="#808080" d="M90.7,424.7l-2.4-4l-2.4,4h-3.2v-1.2c0.6-0.1,1.3-0.3,1.8-0.3l2.6-3.9l-2.5-3.9c-0.6,0-1.2-0.2-1.8-0.3
		v-1.2h3.3l2.3,3.9l2.3-3.9h3.1v1.2c-0.6,0.1-1.3,0.3-1.8,0.3l-2.4,3.8l2.6,4c0.6,0,1.2,0.2,1.8,0.3v1.2H90.7z"/>
	<path fill="#808080" d="M101.7,424.7c0-0.8,0-1.5,0.1-2.1h0c-0.5,1.3-1.9,2.3-3.7,2.3c-1.8,0-3-1.1-3-2.8c0-2.3,2.4-3.7,6.4-3.7
		v-0.8c0-1.5-0.5-2.4-2.2-2.4c-0.6,0-1.4,0.1-2,0.3c0,0.5-0.2,1.1-0.3,1.8h-1.2v-2.9c1.1-0.3,2.4-0.6,3.7-0.6c3.2,0,4,1.4,4,3.6v5.8
		c0.5,0.1,1.2,0.2,1.8,0.2v1.2C104.4,424.6,102.9,424.7,101.7,424.7z M101.6,419.7c-3.4,0-4.5,0.8-4.5,2c0,0.9,0.6,1.6,1.6,1.6
		c1.7,0,2.9-1.7,2.9-3.4V419.7z"/>
	<path fill="#808080" d="M121.7,424.7v-6.9c0-1.5-0.3-2.4-1.7-2.4c-1.5,0-3,1.6-3,4.2v3.7c0.6,0,1.2,0.1,1.8,0.3v1.2H115v-6.9
		c0-1.4-0.3-2.4-1.8-2.4c-1.6,0-3,1.8-3,4.2v3.7c0.6,0,1.2,0.1,1.7,0.3v1.2h-5.6v-1.2c0.6-0.1,1.2-0.2,1.9-0.3v-7.8
		c-0.5-0.1-1.3-0.2-1.9-0.2v-1.2c1.1-0.1,2.6-0.2,3.8-0.2c0,0.6-0.1,1.6-0.2,2.3l0,0c0.6-1.5,2-2.5,3.7-2.5c2.3,0,2.9,1.6,3,2.4
		c0.4-1,1.6-2.4,3.7-2.4c2,0,3.2,1.1,3.2,3.5v6c0.6,0,1.3,0.2,1.8,0.3v1.2H121.7z"/>
	<path fill="#808080" d="M131.6,424.8c-0.7,0-1.2,0-1.8-0.1v3.9c0.6,0,1.3,0.2,1.9,0.3v1.2H126v-1.2c0.6-0.1,1.1-0.2,1.8-0.3v-13.1
		c-0.5-0.1-1.2-0.2-1.8-0.2v-1.2c1.1-0.1,2.5-0.2,3.7-0.2c0,0.6-0.1,1.6-0.2,2.2l0,0c0.6-1.5,1.9-2.4,3.6-2.4c2.5,0,4,1.8,4,5.1
		C137.1,422.6,135.1,424.8,131.6,424.8z M132.7,415.3c-1.9,0-2.9,2.3-2.9,4.1v3.5c0.6,0.2,1.2,0.3,1.9,0.3c2,0,3.4-1.2,3.4-4.3
		C135.1,416.6,134.3,415.3,132.7,415.3z"/>
	<path fill="#808080" d="M138.4,424.7v-1.2c0.5-0.1,1.2-0.2,1.8-0.3v-12.8c-0.5-0.1-1.2-0.2-1.9-0.2V409c1.1-0.1,2.5-0.2,3.8-0.2
		v14.3c0.6,0,1.3,0.2,1.8,0.3v1.2H138.4z"/>
	<path fill="#808080" d="M154.2,419.3h-7c-0.1,2.8,1.1,4,3.4,4c1,0,2.1-0.2,3.1-0.6l0.3,1.5c-1.1,0.4-2.4,0.7-3.7,0.7
		c-3.3,0-5-1.7-5-5.5c0-3.2,1.8-5.6,4.8-5.6c3,0,4.3,2,4.3,4.4C154.3,418.4,154.2,418.8,154.2,419.3z M149.9,415.2
		c-1.4,0-2.4,1-2.6,2.7h5C152.3,416.2,151.4,415.2,149.9,415.2z"/>
	<path fill="#808080" d="M158.7,418.5c-0.7,0-1.3-0.6-1.3-1.3c0-0.7,0.6-1.3,1.3-1.3c0.7,0,1.3,0.6,1.3,1.3
		C160,417.9,159.4,418.5,158.7,418.5z M158.7,424.9c-0.7,0-1.3-0.6-1.3-1.3c0-0.7,0.6-1.3,1.3-1.3c0.7,0,1.3,0.6,1.3,1.3
		C160,424.3,159.4,424.9,158.7,424.9z"/>
	<path d="M179.7,419.3h-7c-0.1,2.8,1.1,4,3.4,4c1,0,2.1-0.2,3.1-0.6l0.3,1.5c-1.1,0.4-2.4,0.7-3.7,0.7c-3.3,0-5-1.7-5-5.5
		c0-3.2,1.8-5.6,4.8-5.6c3,0,4.3,2,4.3,4.4C179.8,418.4,179.8,418.8,179.7,419.3z M175.4,415.2c-1.4,0-2.4,1-2.6,2.7h5
		C177.9,416.2,176.9,415.2,175.4,415.2z"/>
	<path d="M181.2,424.7v-1.2c0.5-0.1,1.2-0.2,1.8-0.3v-12.8c-0.5-0.1-1.2-0.2-1.9-0.2V409c1.1-0.1,2.5-0.2,3.8-0.2v14.3
		c0.6,0,1.3,0.2,1.8,0.3v1.2H181.2z"/>
	<path d="M187.5,424.7v-1.2c0.5-0.1,1.2-0.2,1.8-0.3v-12.8c-0.5-0.1-1.2-0.2-1.9-0.2V409c1.1-0.1,2.5-0.2,3.8-0.2v14.3
		c0.6,0,1.3,0.2,1.8,0.3v1.2H187.5z"/>
	<path d="M194.1,424.7v-1.2c0.6-0.1,1.2-0.2,1.9-0.3v-7.8c-0.5-0.1-1.3-0.2-1.9-0.2v-1.2c1.1-0.1,2.6-0.2,3.8-0.2v9.3
		c0.6,0,1.3,0.2,1.8,0.3v1.2H194.1z M197,411.8c-0.7,0-1.3-0.5-1.3-1.3s0.6-1.3,1.3-1.3c0.7,0,1.3,0.6,1.3,1.3
		C198.3,411.2,197.7,411.8,197,411.8z"/>
	<path d="M205.9,424.8c-0.7,0-1.2,0-1.8-0.1v3.9c0.6,0,1.3,0.2,1.9,0.3v1.2h-5.6v-1.2c0.6-0.1,1.1-0.2,1.8-0.3v-13.1
		c-0.5-0.1-1.2-0.2-1.8-0.2v-1.2c1.1-0.1,2.5-0.2,3.7-0.2c0,0.6-0.1,1.6-0.2,2.2l0,0c0.6-1.5,1.9-2.4,3.6-2.4c2.5,0,4,1.8,4,5.1
		C211.4,422.6,209.4,424.8,205.9,424.8z M207,415.3c-1.9,0-2.9,2.3-2.9,4.1v3.5c0.6,0.2,1.2,0.3,1.9,0.3c2,0,3.4-1.2,3.4-4.3
		C209.4,416.6,208.6,415.3,207,415.3z"/>
	<path d="M216.1,424.9c-0.8,0-1.8-0.1-2.5-0.3v-3h1.2c0.1,0.5,0.2,1.1,0.3,1.7c0.4,0.1,0.8,0.1,1.3,0.1c1.4,0,2.4-0.6,2.4-1.7
		c0-2.4-5.4-1-5.4-4.7c0-1.8,1.5-3.2,4.3-3.2c0.8,0,1.7,0.1,2.5,0.3v2.9H219c-0.1-0.5-0.2-1.1-0.3-1.7c-0.4-0.1-0.8-0.1-1.2-0.1
		c-1.4,0-2.2,0.6-2.2,1.6c0,2.4,5.4,1.1,5.4,4.6C220.7,423.3,219,424.9,216.1,424.9z"/>
	<path d="M231.7,419.3h-7c-0.1,2.8,1.1,4,3.4,4c1,0,2.1-0.2,3.1-0.6l0.3,1.5c-1.1,0.4-2.4,0.7-3.7,0.7c-3.3,0-5-1.7-5-5.5
		c0-3.2,1.8-5.6,4.8-5.6c3,0,4.3,2,4.3,4.4C231.8,418.4,231.7,418.8,231.7,419.3z M227.4,415.2c-1.4,0-2.4,1-2.6,2.7h5
		C229.8,416.2,228.9,415.2,227.4,415.2z"/>
	<path d="M247.6,424.7v-1.2c0.5-0.1,1.1-0.2,1.7-0.3l-1-7.5c-0.2-1.6-0.4-2.8-0.4-3.7h0c-0.2,0.7-0.3,1.6-0.7,2.5l-3.5,10h-1.8
		l-3.3-9.5c-0.4-1.1-0.6-2.2-0.8-3h0c0,1.1-0.2,2.4-0.3,3.7l-0.9,7.4c0.6,0,1.2,0.2,1.7,0.3v1.2h-5v-1.2c0.4-0.1,1-0.2,1.3-0.2
		l1.7-11.7c-0.6,0-1.3-0.2-1.9-0.3v-1.2h4.6l3.1,8.9c0.3,0.8,0.6,2,0.8,2.9h0c0.2-1,0.5-1.8,0.8-2.8l3.1-9h4.7v1.2
		c-0.6,0.1-1.2,0.2-1.9,0.3l1.8,11.7c0.4,0,1,0.2,1.3,0.2v1.2H247.6z"/>
	<path d="M258.7,424.9c-2.9,0-4.8-1.7-4.8-5.4c0-3.2,2-5.7,5.2-5.7c2.7,0,4.8,1.5,4.8,5.4C263.9,422.4,261.9,424.9,258.7,424.9z
		 M258.9,415.3c-1.6,0-3,1.2-3,4c0,2.5,1,3.9,3,3.9c1.6,0,3-1.3,3-3.9C261.9,416.8,260.9,415.3,258.9,415.3z"/>
	<path d="M273.1,424.7c0-0.6,0-1.6,0.2-2.2l0,0c-0.6,1.4-1.9,2.4-3.6,2.4c-2.6,0-4-1.9-4-5.1c0-3.8,2.2-6,5.6-6c0.6,0,1.2,0,1.8,0.1
		v-3.5c-0.5-0.1-1.3-0.2-1.9-0.2V409c1.1-0.1,2.6-0.2,3.8-0.2v14.2c0.5,0.1,1.2,0.2,1.8,0.2v1.2
		C275.8,424.6,274.3,424.7,273.1,424.7z M273.1,415.5c-0.6-0.2-1.3-0.2-1.9-0.2c-2.1,0-3.4,1.2-3.4,4.3c0,2.3,0.8,3.6,2.4,3.6
		c1.9,0,2.9-2.3,2.9-4.1V415.5z"/>
	<path d="M287,419.3h-7c-0.1,2.8,1.1,4,3.4,4c1,0,2.1-0.2,3.1-0.6l0.3,1.5c-1.1,0.4-2.4,0.7-3.7,0.7c-3.3,0-5-1.7-5-5.5
		c0-3.2,1.8-5.6,4.8-5.6c3,0,4.3,2,4.3,4.4C287.1,418.4,287.1,418.8,287,419.3z M282.7,415.2c-1.4,0-2.4,1-2.6,2.7h5
		C285.1,416.2,284.2,415.2,282.7,415.2z"/>
	<path d="M297.4,429.2c-2.5-4-3.2-7.5-3.2-10.7c0-3.2,0.7-6.9,3.2-10.7l1.4,0.7c-1.8,3-2.7,6.4-2.7,10c0,3.7,0.9,7,2.7,10
		L297.4,429.2z"/>
	<path d="M311.7,424.9c-4.4,0-6.7-2.7-6.7-7.1c0-4.5,2.3-7.8,7.1-7.8c1.2,0,2.4,0.2,3.5,0.4v3.6h-1.4c-0.2-0.7-0.2-1.4-0.3-2
		c-0.8-0.2-1.4-0.3-2.1-0.3c-3.1,0-4.6,2.5-4.6,5.7c0,3.5,1.6,5.7,5,5.7c1.2,0,2.5-0.3,3.4-0.7l0.3,1.7
		C314.6,424.5,313.1,424.9,311.7,424.9z"/>
	<path d="M317.1,424.7v-1.2c0.6-0.1,1.2-0.2,1.9-0.3v-11.7c-0.6,0-1.3-0.2-1.9-0.3v-1.2h9.4v3.4h-1.4c-0.1-0.7-0.2-1.3-0.3-1.8H321
		v4.8h3.1c0.1-0.5,0.2-1,0.3-1.5h1.2v4.4h-1.2c-0.1-0.5-0.2-1-0.3-1.5H321v5.2h3.9c0.1-0.6,0.2-1.2,0.3-1.9h1.4v3.5H317.1z"/>
	<path d="M342.2,411.5v13.1h-2.7l-5.6-9.2c-0.6-1.1-1.2-2.2-1.7-3.2c0.2,2.5,0.2,6.3,0.2,10.9c0.6,0,1.2,0.2,1.7,0.3v1.2h-5.5v-1.2
		c0.6-0.1,1.2-0.3,1.9-0.3v-11.7c-0.6,0-1.3-0.2-1.9-0.3v-1.2h4.6l5.6,9.1c0.6,1,1.2,2.2,1.7,3.2c-0.2-2.5-0.2-6.3-0.2-10.8
		c-0.6,0-1.2-0.2-1.7-0.3v-1.2h5.1v1.2C343.2,411.4,342.7,411.5,342.2,411.5z"/>
	<path d="M354.6,413.7c-0.1-0.8-0.3-1.5-0.3-2h-3v11.5c0.6,0,1.3,0.2,1.9,0.3v1.2h-5.7v-1.2c0.6-0.1,1.2-0.2,1.9-0.3v-11.5h-3
		c0,0.5-0.2,1.2-0.3,2h-1.4v-3.6H356v3.6H354.6z"/>
	<path d="M357,424.7v-1.2c0.6-0.1,1.2-0.2,1.9-0.3v-11.7c-0.6,0-1.3-0.2-1.9-0.3v-1.2h9.4v3.4H365c-0.1-0.7-0.2-1.3-0.3-1.8h-3.9
		v4.8h3.1c0.1-0.5,0.2-1,0.3-1.5h1.2v4.4h-1.2c-0.1-0.5-0.2-1-0.3-1.5h-3.1v5.2h3.9c0.1-0.6,0.2-1.2,0.3-1.9h1.4v3.5H357z"/>
	<path d="M377.3,424.7l-3.9-6.5h-1.1v5.1c0.5,0,1.1,0.1,1.6,0.3v1.2h-5.5v-1.2c0.6-0.1,1.2-0.2,1.9-0.3v-11.7
		c-0.6,0-1.3-0.2-1.9-0.3v-1.2h1.7c0.6,0,2.4-0.1,4-0.1c3.1,0,5.1,1,5.1,3.9c0,2.3-1.6,3.6-3.9,4c0.3,0.4,0.7,0.9,1,1.3l2.5,4
		c0.5,0.1,1.1,0.2,1.7,0.3v1.2H377.3z M373.8,411.6c-0.4,0-1.1,0-1.5,0.1v5h1.7c2.1,0,3.3-1,3.3-2.6
		C377.3,412.3,376.2,411.6,373.8,411.6z"/>
	<path d="M387.6,429.2l-1.4-0.7c1.8-3,2.7-6.4,2.7-9.9c0-3.7-0.9-7-2.7-10.1l1.5-0.7c2.5,4,3.1,7.5,3.1,10.6
		C390.8,421.6,390.1,425.3,387.6,429.2z"/>
	<path d="M399.3,428l-0.8-0.7c1.4-1.5,1.4-2.5,0.9-3.1c-0.6-0.8-0.1-1.9,0.9-1.9C401.9,422.2,402.6,424.9,399.3,428z M400.3,418.5
		c-0.7,0-1.3-0.6-1.3-1.3c0-0.7,0.6-1.3,1.3-1.3s1.3,0.6,1.3,1.3C401.7,417.9,401.1,418.5,400.3,418.5z"/>
	<path d="M181.5,445.2h-7c-0.1,2.8,1.1,4,3.4,4c1,0,2.1-0.2,3.1-0.6l0.3,1.5c-1.1,0.4-2.4,0.7-3.7,0.7c-3.3,0-5-1.7-5-5.5
		c0-3.2,1.8-5.6,4.8-5.6c3,0,4.3,2,4.3,4.4C181.6,444.3,181.5,444.7,181.5,445.2z M177.2,441.1c-1.4,0-2.4,1-2.6,2.7h5
		C179.6,442.2,178.7,441.1,177.2,441.1z"/>
	<path d="M182.9,450.6v-1.2c0.5-0.1,1.2-0.2,1.8-0.3v-12.8c-0.5-0.1-1.2-0.2-1.9-0.2V435c1.1-0.1,2.5-0.2,3.8-0.2v14.3
		c0.6,0,1.3,0.2,1.8,0.3v1.2H182.9z"/>
	<path d="M189.3,450.6v-1.2c0.5-0.1,1.2-0.2,1.8-0.3v-12.8c-0.5-0.1-1.2-0.2-1.9-0.2V435c1.1-0.1,2.5-0.2,3.8-0.2v14.3
		c0.6,0,1.3,0.2,1.8,0.3v1.2H189.3z"/>
	<path d="M195.9,450.6v-1.2c0.6-0.1,1.2-0.2,1.9-0.3v-7.8c-0.5-0.1-1.3-0.2-1.9-0.2V440c1.1-0.1,2.6-0.2,3.8-0.2v9.3
		c0.6,0,1.3,0.2,1.8,0.3v1.2H195.9z M198.8,437.7c-0.7,0-1.3-0.5-1.3-1.3s0.6-1.3,1.3-1.3c0.7,0,1.3,0.6,1.3,1.3
		C200,437.1,199.4,437.7,198.8,437.7z"/>
	<path d="M207.7,450.7c-0.7,0-1.2,0-1.8-0.1v3.9c0.6,0,1.3,0.2,1.9,0.3v1.2h-5.6v-1.2c0.6-0.1,1.1-0.2,1.8-0.3v-13.1
		c-0.5-0.1-1.2-0.2-1.8-0.2V440c1.1-0.1,2.5-0.2,3.7-0.2c0,0.6-0.1,1.6-0.2,2.2l0,0c0.6-1.5,1.9-2.4,3.6-2.4c2.5,0,4,1.8,4,5.1
		C213.2,448.5,211.1,450.7,207.7,450.7z M208.8,441.2c-1.9,0-2.9,2.3-2.9,4.1v3.5c0.6,0.2,1.2,0.3,1.9,0.3c2,0,3.4-1.2,3.4-4.3
		C211.1,442.6,210.4,441.2,208.8,441.2z"/>
	<path d="M217.9,450.8c-0.8,0-1.8-0.1-2.5-0.3v-3h1.2c0.1,0.5,0.2,1.1,0.3,1.7c0.4,0.1,0.8,0.1,1.3,0.1c1.4,0,2.4-0.6,2.4-1.7
		c0-2.4-5.4-1-5.4-4.7c0-1.8,1.5-3.2,4.3-3.2c0.8,0,1.7,0.1,2.5,0.3v2.9h-1.2c-0.1-0.5-0.2-1.1-0.3-1.7c-0.4-0.1-0.8-0.1-1.2-0.1
		c-1.4,0-2.2,0.6-2.2,1.6c0,2.4,5.4,1.1,5.4,4.6C222.5,449.2,220.7,450.8,217.9,450.8z"/>
	<path d="M233.4,445.2h-7c-0.1,2.8,1.1,4,3.4,4c1,0,2.1-0.2,3.1-0.6l0.3,1.5c-1.1,0.4-2.4,0.7-3.7,0.7c-3.3,0-5-1.7-5-5.5
		c0-3.2,1.8-5.6,4.8-5.6c3,0,4.3,2,4.3,4.4C233.5,444.3,233.5,444.7,233.4,445.2z M229.1,441.1c-1.4,0-2.4,1-2.6,2.7h5
		C231.6,442.2,230.6,441.1,229.1,441.1z"/>
	<path d="M248,455.4c-3.6-3.3-5.3-6.7-5.3-10.9c0-4.4,2.1-8.1,5.4-11l1.1,1.1c-2.9,2.9-4.5,6.2-4.5,9.7c0,3.6,1.5,6.9,4.5,9.9
		L248,455.4z"/>
	<path d="M256.9,452.6c-0.9,0-1.9-0.1-2.7-0.3l0.3-1.8c0.7,0.3,1.7,0.4,2.6,0.4c2.3,0,3.8-1.3,3.8-2.9c0-1.6-1.3-2.7-3.6-2.7
		c-0.7,0-1.3,0-1.9,0.1v-1.6h0.5c3.1,0,4.6-0.9,4.6-2.7c0-1.4-1.1-2.1-2.6-2.1c-1.2,0-2.2,0.3-3.1,0.8l-0.3-1.7
		c1.1-0.5,2.3-0.8,3.7-0.8c2.9,0,4.3,1.4,4.3,3.5c0,1.7-1.1,2.9-2.6,3.4l0,0c1.8,0.2,3.1,1.7,3.1,3.5
		C263,450.5,260.5,452.6,256.9,452.6z"/>
	<path d="M268.1,453.4c2.2-0.6,2.9-1.6,2.9-2.4c0-1.4-1.1-1.4-1.1-2.5c0-0.9,0.6-1.6,1.5-1.6c1.4,0,2,1.3,2,2.7c0,2.7-1.8,4.3-5,5
		L268.1,453.4z"/>
	<path d="M282.8,452.6c-0.9,0-1.9-0.1-2.7-0.3l0.3-1.8c0.7,0.3,1.7,0.4,2.6,0.4c2.3,0,3.8-1.3,3.8-2.9c0-1.6-1.3-2.7-3.6-2.7
		c-0.7,0-1.3,0-1.9,0.1v-1.6h0.5c3.1,0,4.6-0.9,4.6-2.7c0-1.4-1.1-2.1-2.6-2.1c-1.2,0-2.2,0.3-3.1,0.8l-0.3-1.7
		c1.1-0.5,2.3-0.8,3.7-0.8c2.9,0,4.3,1.4,4.3,3.5c0,1.7-1.1,2.9-2.6,3.4l0,0c1.8,0.2,3.1,1.7,3.1,3.5
		C288.9,450.5,286.4,452.6,282.8,452.6z"/>
	<path d="M294,453.4c2.2-0.6,2.9-1.6,2.9-2.4c0-1.4-1.1-1.4-1.1-2.5c0-0.9,0.6-1.6,1.5-1.6c1.4,0,2,1.3,2,2.7c0,2.7-1.8,4.3-5,5
		L294,453.4z"/>
	<path d="M313.5,448.7v3.6h-1.9v-3.6h-6.6l-0.2-1.6l6-9.5h2.7v9.4h2.5v1.8H313.5z M311.6,439.4L311.6,439.4l-4.9,7.6
		c1.3,0,4,0,4.9,0V439.4z"/>
	<path d="M319.9,453.4c2.2-0.6,2.9-1.6,2.9-2.4c0-1.4-1.1-1.4-1.1-2.5c0-0.9,0.6-1.6,1.5-1.6c1.4,0,2,1.3,2,2.7c0,2.7-1.8,4.3-5,5
		L319.9,453.4z"/>
	<path d="M336.4,450.8c-3,0-4.9-2.3-4.9-6.2c0-6.2,3.1-8.8,7.2-8.8c0.4,0,1,0,1.3,0.1v1.7c-0.5-0.1-0.9-0.1-1.4-0.1
		c-2.8,0-4.3,1.6-4.9,4.6c-0.1,0.2-0.1,0.6-0.2,1.1h0c0.7-1.2,2-1.9,3.4-1.9c2.9,0,4.5,1.9,4.5,4.2
		C341.3,448.7,339.3,450.8,336.4,450.8z M336.5,443c-1.8,0-2.8,1.6-2.8,2.8c0,1.8,1,3.3,2.9,3.3c1.7,0,2.8-1.3,2.8-3.2
		C339.3,444.2,338.4,443,336.5,443z"/>
	<path d="M347.1,433.6c3.6,3.3,5.3,6.7,5.3,10.9c0,4.4-2.1,8.1-5.4,11l-1.1-1.1c2.9-2.9,4.5-6.2,4.5-9.7c0-3.6-1.5-6.9-4.5-9.9
		L347.1,433.6z"/>
	<path d="M362.9,453.9l-0.8-0.7c1.4-1.5,1.4-2.5,0.9-3.1c-0.6-0.8-0.1-1.9,0.9-1.9C365.5,448.1,366.3,450.9,362.9,453.9z M364,444.4
		c-0.7,0-1.3-0.6-1.3-1.3c0-0.7,0.6-1.3,1.3-1.3s1.3,0.6,1.3,1.3C365.3,443.9,364.7,444.4,364,444.4z"/>
</g>
<ellipse fill="none" stroke="#000000" stroke-width="2" cx="219.1" cy="230.3" rx="89.2" ry="133.8"/>
</svg>
