<?xml version="1.0" encoding="utf-8"?>
<!-- Generator: Adobe Illustrator 17.1.0, SVG Export Plug-In . SVG Version: 6.00 Build 0)  -->
<!DOCTYPE svg PUBLIC "-//W3C//DTD SVG 1.1//EN" "http://www.w3.org/Graphics/SVG/1.1/DTD/svg11.dtd">
<svg version="1.1" id="Layer_1" xmlns="http://www.w3.org/2000/svg" xmlns:xlink="http://www.w3.org/1999/xlink" x="0px" y="0px"
	 viewBox="0 52 612 700" enable-background="new 0 52 612 700" xml:space="preserve">
<line fill="none" stroke="#000000" stroke-width="1.3" x1="292.3" y1="436.8" x2="447" y2="282"/>
<polyline fill="#FFFFFF" stroke="#999999" stroke-width="1.3" points="429.2,436.8 429.2,418.9 447,418.9 "/>
<path fill="none" stroke="#000000" stroke-width="1.3" d="M306.3,422.4c3.5,3.5,5.7,8.4,5.7,13.8c0,0.2,0,0.4,0,0.6"/>
<text transform="matrix(1 0 0 1 316.8623 431.1846)" font-family="'MyriadPro-Regular'" font-size="17.0018">θ</text>
<path fill="none" stroke="#999999" stroke-width="1.3" d="M511.4,436.9c0,120.5-97.7,218.2-218.2,218.2S75.1,557.4,75.1,436.9
	s97.7-218.2,218.2-218.2c60,0,114.4,24.3,153.8,63.5"/>
<path fill="none" stroke="#000000" stroke-width="1.3" d="M447,282.1c39.8,39.5,64.4,94.3,64.4,154.7"/>
<line fill="none" stroke="#000000" stroke-width="1.3" x1="293.2" y1="218.7" x2="293.2" y2="654.9"/>
<line fill="none" stroke="#000000" stroke-width="1.3" x1="75.2" y1="436.8" x2="511.3" y2="436.8"/>
<text transform="matrix(1 0 0 1 17.4419 111.9287)" font-family="'TheSerif-HP5Plain'" font-size="17.0018">Unit Circle:</text>
<line fill="none" stroke="#999999" stroke-width="1.3" stroke-dasharray="4,4" x1="447" y1="282" x2="447" y2="436.8"/>
<text transform="matrix(1 0 0 1 283.8032 204.4941)" fill="#999999" font-family="'TheSerif-HP5Plain'" font-size="17.0018">90°</text>
<text transform="matrix(1 0 0 1 521.8281 439.6855)" fill="#999999" font-family="'TheSerif-HP5Plain'" font-size="17.0018">0°</text>
<text transform="matrix(1 0 0 1 278.1362 678.6553)" fill="#999999" font-family="'TheSerif-HP5Plain'" font-size="17.0018">270°</text>
<g>
	<text transform="matrix(1 0 0 1 38.2222 439.6855)" fill="#999999" font-family="'TheSerif-HP5Plain'" font-size="17.0018">180°</text>
</g>
<circle cx="447.2" cy="282.2" r="4.6"/>
<text transform="matrix(1 0 0 1 459.4883 281.9463)" font-family="'TheSansMono-W3Light'" font-size="17.0018">p(r,</text>
<text transform="matrix(1 0 0 1 500.293 281.9463)" font-family="'MyriadPro-Regular'" font-size="17.0018">θ</text>
<text transform="matrix(1 0 0 1 509.3604 281.9463)" font-family="'TheSansMono-W3Light'" font-size="17.0018">)</text>
<text transform="matrix(1 0 0 1 334.3096 331.063)" font-family="'TheSerif-HP5Plain'" font-size="17.0018">r</text>
<text transform="matrix(1 0 0 1 308.2402 351.4648)" fill="#999999" font-family="'TheSerif-HP5Plain'" font-size="17.0018">(radius)</text>
<text transform="matrix(1 0 0 1 543.625 336.73)" font-family="'TheSerif-HP5Plain'" font-size="17.0018">s</text>
<text transform="matrix(1 0 0 1 503.5762 357.1323)" fill="#999999" font-family="'TheSerif-HP5Plain'" font-size="17.0018">(arc length)</text>
<text transform="matrix(1 0 0 1 544.8223 439.6855)" font-family="'TheSerif-HP5Plain'" font-size="17.0018">2π</text>
<text transform="matrix(1 0 0 1 18.6641 439.6855)" font-family="'TheSerif-HP5Plain'" font-size="17.0018">π</text>
<text transform="matrix(1 0 0 1 282.2393 702.2686)" font-family="'TheSerif-HP5Plain'" font-size="17.0018">3π</text>
<text transform="matrix(1 0 0 1 287.623 722.6709)" font-family="'TheSerif-HP5Plain'" font-size="17.0018">2</text>
<line fill="none" stroke="#000000" stroke-width="1.3" x1="281.9" y1="707" x2="304.6" y2="707"/>
<text transform="matrix(1 0 0 1 288.8037 160.1006)" font-family="'TheSerif-HP5Plain'" font-size="17.0018">π</text>
<text transform="matrix(1 0 0 1 289.5596 180.5024)" font-family="'TheSerif-HP5Plain'" font-size="17.0018">2</text>
<line fill="none" stroke="#000000" stroke-width="1.3" x1="282.9" y1="164.8" x2="305.5" y2="164.8"/>
<circle cx="293.2" cy="436.9" r="4.6"/>
<text transform="matrix(1 0 0 1 241.2988 454.7979)" font-family="'TheSerif-HP5Plain'" font-size="17.0018">origin</text>
</svg>
